<svg width="11" height="12" viewBox="0 0 11 12" fill="none" xmlns="http://www.w3.org/2000/svg">
<path d="M10.464 0.263977H0.536012C0.403695 0.263977 0.276797 0.319168 0.183234 0.417408C0.089672 0.515649 0.0371094 0.648892 0.0371094 0.787825C0.0371094 0.926758 0.089672 1.06 0.183234 1.15824C0.276797 1.25648 0.403695 1.31167 0.536012 1.31167H9.26225L0.185506 10.8423C0.139357 10.8907 0.10275 10.9482 0.0777743 11.0116C0.0527988 11.0749 0.0399437 11.1427 0.0399437 11.2112C0.0399437 11.2798 0.0527988 11.3476 0.0777743 11.4109C0.10275 11.4743 0.139357 11.5318 0.185506 11.5802C0.231654 11.6287 0.286441 11.6671 0.346737 11.6933C0.407033 11.7196 0.471658 11.7331 0.536922 11.7331C0.602186 11.7331 0.666811 11.7196 0.727108 11.6933C0.787404 11.6671 0.84219 11.6287 0.888339 11.5802L9.96509 2.04869V11.2122C9.96509 11.3511 10.0176 11.4844 10.1112 11.5826C10.2048 11.6809 10.3317 11.736 10.464 11.736C10.5963 11.736 10.7232 11.6809 10.8168 11.5826C10.9103 11.4844 10.9629 11.3511 10.9629 11.2122V0.785913C10.9619 0.647467 10.909 0.515006 10.8156 0.417286C10.7222 0.319567 10.5958 0.264477 10.464 0.263977Z" fill="white"/>
</svg>
