<?xml version="1.0" encoding="UTF-8"?>
<svg id="Layer_1" xmlns="http://www.w3.org/2000/svg" version="1.1" viewBox="0 0 22 25">
  <!-- Generator: Adobe Illustrator 29.2.1, SVG Export Plug-In . SVG Version: 2.1.0 Build 116)  -->
  <path d="M2.45,5.45c.46-.46,1-.82,1.6-1.07.6-.25,1.24-.38,1.89-.38s1.29.13,1.89.38c.6.25,1.14.61,1.6,1.07l1.57,1.57,1.57-1.57c.93-.93,2.18-1.45,3.49-1.45,1.31,0,2.56.52,3.49,1.45.93.93,1.45,2.18,1.45,3.49,0,1.31-.52,2.56-1.45,3.49l-1.57,1.57h.01s-6.98,6.99-6.98,6.99h-.01s-.01,0-.01,0l-6.98-6.98h.01s-1.57-1.59-1.57-1.59c-.46-.46-.82-1-1.07-1.6-.25-.6-.38-1.24-.38-1.89s.13-1.29.38-1.89c.25-.6.61-1.14,1.07-1.6Z" fill="none" stroke="#000" stroke-linejoin="round"/>
</svg>