<?xml version="1.0" encoding="UTF-8"?>
<svg id="Layer_1" xmlns="http://www.w3.org/2000/svg" version="1.1" viewBox="0 0 22 25">
  <!-- Generator: Adobe Illustrator 29.2.1, SVG Export Plug-In . SVG Version: 2.1.0 Build 116)  -->
  <path d="M11.75,24.26c-.22.16-.48.24-.75.24s-.53-.08-.75-.24C3.81,19.67-3.02,10.23,3.89,3.41,5.79,1.54,8.34.5,11,.5c2.67,0,5.23,1.05,7.11,2.91,6.91,6.82.07,16.26-6.36,20.85Z" fill="none" stroke="#000" stroke-linecap="round" stroke-linejoin="round"/>
  <path d="M11,12.5c.71,0,1.39-.28,1.89-.78s.78-1.18.78-1.89-.28-1.39-.78-1.89c-.5-.5-1.18-.78-1.89-.78s-1.39.28-1.89.78c-.5.5-.78,1.18-.78,1.89s.28,1.39.78,1.89c.5.5,1.18.78,1.89.78Z" fill="none" stroke="#000" stroke-linecap="round" stroke-linejoin="round"/>
</svg>