<svg width="14" height="20" viewBox="0 0 14 20" fill="none" xmlns="http://www.w3.org/2000/svg">
<path d="M10.6475 5C10.3315 3.623 10.2295 1 8.29947 1H5.66047C3.73147 1 3.63047 3.623 3.31347 5M3.31347 15C3.62947 16.377 3.73147 19 5.66147 19H8.29947C10.2295 19 10.3315 16.377 10.6475 15M12.4805 8V12C12.4805 13.657 11.2495 15 9.73047 15H4.23047C2.71147 15 1.48047 13.657 1.48047 12V8C1.48047 6.343 2.71147 5 4.23047 5H9.73047C11.2495 5 12.4805 6.343 12.4805 8Z" stroke="#707070" stroke-width="1.5" stroke-linecap="round" stroke-linejoin="round"/>
<path d="M6.98047 8V10.5L8.58447 11.5" stroke="#707070" stroke-width="1.5" stroke-linecap="round" stroke-linejoin="round"/>
</svg>
