<svg width="59" height="60" viewBox="0 0 59 60" fill="none" xmlns="http://www.w3.org/2000/svg">
<rect y="0.5" width="59" height="59" rx="20" fill="#F0F0F0"/>
<path d="M19.4475 22.636C20.0128 22.0707 20.6838 21.6224 21.4222 21.3165C22.1607 21.0106 22.9522 20.8531 23.7515 20.8531C24.5509 20.8531 25.3424 21.0106 26.0809 21.3165C26.8193 21.6224 27.4903 22.0707 28.0555 22.636L29.9982 24.5786L31.9409 22.636C33.0826 21.4945 34.6309 20.8533 36.2454 20.8534C37.8598 20.8535 39.4081 21.495 40.5496 22.6366C41.691 23.7783 42.3323 25.3267 42.3321 26.9411C42.332 28.5555 41.6906 30.1038 40.5489 31.2453L38.6062 33.1866L38.6235 33.204L30.0155 41.8133L29.9982 41.796L29.9809 41.8133L21.3729 33.204L21.3902 33.1866L19.4475 31.2453C18.8821 30.6801 18.4336 30.009 18.1276 29.2704C17.8216 28.5318 17.6641 27.7401 17.6641 26.9406C17.6641 26.1411 17.8216 25.3495 18.1276 24.6109C18.4336 23.8723 18.8821 23.2012 19.4475 22.636Z" stroke="black" stroke-linejoin="round"/>
</svg>
