<svg width="22" height="25" viewBox="0 0 22 25" fill="none" xmlns="http://www.w3.org/2000/svg">
<path d="M11.7464 24.26C11.5288 24.4163 11.2676 24.5003 10.9997 24.5003C10.7318 24.5003 10.4706 24.4163 10.253 24.26C3.81437 19.6707 -3.01896 10.2307 3.88904 3.40933C5.7855 1.5438 8.33949 0.498832 10.9997 0.500001C13.6664 0.500001 16.225 1.54667 18.1104 3.408C25.0184 10.2293 18.185 19.668 11.7464 24.26Z" stroke="white" stroke-linecap="round" stroke-linejoin="round"/>
<path d="M11.0026 12.5001C11.7098 12.5001 12.3881 12.2191 12.8882 11.719C13.3883 11.2189 13.6693 10.5407 13.6693 9.83341C13.6693 9.12617 13.3883 8.44789 12.8882 7.9478C12.3881 7.4477 11.7098 7.16675 11.0026 7.16675C10.2954 7.16675 9.61708 7.4477 9.11699 7.9478C8.61689 8.44789 8.33594 9.12617 8.33594 9.83341C8.33594 10.5407 8.61689 11.2189 9.11699 11.719C9.61708 12.2191 10.2954 12.5001 11.0026 12.5001Z" stroke="white" stroke-linecap="round" stroke-linejoin="round"/>
</svg>
