<?xml version="1.0" standalone="no"?>
<!DOCTYPE svg PUBLIC "-//W3C//DTD SVG 1.1//EN" "http://www.w3.org/Graphics/SVG/1.1/DTD/svg11.dtd" >
<svg xmlns="http://www.w3.org/2000/svg" xmlns:xlink="http://www.w3.org/1999/xlink" version="1.1">
<metadata>
Created by FontForge 20201107 at Wed Nov 30 21:20:23 2022
 By 
Copyright (c) 2019 by Folch Studio. All rights reserved.
</metadata>
<defs>
<font id="FFFAcidGrotesk-Regular" horiz-adv-x="760" >
  <font-face 
    font-family="FFF Acid Grotesk"
    font-weight="400"
    font-stretch="normal"
    units-per-em="1000"
    panose-1="0 0 0 0 0 0 0 0 0 0"
    ascent="800"
    descent="-200"
    x-height="550"
    cap-height="700"
    bbox="-154 -243 2082 1015"
    underline-thickness="80"
    underline-position="-220"
    unicode-range="U+0020-FB02"
  />
<missing-glyph horiz-adv-x="680" 
d="M580 700v-700h-480v700h480zM472 94v512h-264v-512h264z" />
    <glyph glyph-name="fi" unicode="fi" horiz-adv-x="527" 
d="M117.5 737q43.5 44 124.5 44h217v-91h-202q-36 0 -55.5 -21.5t-19.5 -63.5v-55h220q23 0 38 -15t15 -38v-497h-109v459h-164v-459h-108v459h-70v91h70v62q0 81 43.5 125z" />
    <glyph glyph-name="fl" unicode="fl" horiz-adv-x="575" 
d="M115.5 737q41.5 44 118.5 44h273v-781h-108v690h-150q-32 0 -49.5 -21.5t-17.5 -63.5v-55h120v-91h-120v-459h-108v459h-70v91h70v62q0 81 41.5 125z" />
    <glyph glyph-name="f_f.liga" unicode="ff" horiz-adv-x="640" 
d="M412.5 737q41.5 44 118.5 44h108v-91h-93q-32 0 -49.5 -21.5t-17.5 -63.5v-55h120v-91h-120v-459h-108v459h-189v-459h-108v459h-70v91h70v62q0 81 41.5 125t118.5 44h108v-91h-93q-32 0 -49.5 -21.5t-17.5 -63.5v-55h189v62q0 81 41.5 125z" />
    <glyph glyph-name="f_f_i.liga" unicode="ffi" horiz-adv-x="824" 
d="M644 459h-165v-459h-108v459h-189v-459h-108v459h-70v91h70v62q0 81 41.5 125t118.5 44h108v-91h-93q-32 0 -49.5 -21.5t-17.5 -63.5v-55h189v62q0 81 43.5 125t124.5 44h217v-91h-202q-36 0 -55.5 -21.5t-19.5 -63.5v-55h220q23 0 38 -15t15 -38v-497h-108v459z" />
    <glyph glyph-name="f_f_l.liga" unicode="ffl" horiz-adv-x="872" 
d="M412.5 737q41.5 44 118.5 44h273v-781h-108v690h-150q-32 0 -49.5 -21.5t-17.5 -63.5v-55h120v-91h-120v-459h-108v459h-189v-459h-108v459h-70v91h70v62q0 81 41.5 125t118.5 44h108v-91h-93q-32 0 -49.5 -21.5t-17.5 -63.5v-55h189v62q0 81 41.5 125z" />
    <glyph glyph-name=".notdef" horiz-adv-x="680" 
d="M580 700v-700h-480v700h480zM472 94v512h-264v-512h264z" />
    <glyph glyph-name=".null" horiz-adv-x="0" 
 />
    <glyph glyph-name="nonmarkingreturn" horiz-adv-x="333" 
 />
    <glyph glyph-name="space" unicode=" " horiz-adv-x="224" 
 />
    <glyph glyph-name="exclam" unicode="!" horiz-adv-x="244" 
d="M64 550v150h116v-150l-15 -375h-86zM62 117h119v-117h-119v117z" />
    <glyph glyph-name="quotedbl" unicode="&#x22;" horiz-adv-x="373" 
d="M64 700h99l-5 -257h-89zM309 700l-5 -257h-89l-5 257h99z" />
    <glyph glyph-name="numbersign" unicode="#" horiz-adv-x="692" 
d="M386 181h-152l-47 -181h-100l47 181h-106v83h128l45 173h-105v83h127l47 180h100l-47 -180h152l47 180h100l-47 -180h106v-83h-128l-45 -173h105v-83h-127l-47 -181h-100zM408 264l45 173h-152l-45 -173h152z" />
    <glyph glyph-name="dollar" unicode="$" horiz-adv-x="647" 
d="M278 -13q-113 12 -175 79t-66 176h116q4 -79 49.5 -121t127.5 -42q76 0 120 35.5t44 95.5q0 100 -133 100h-90q-110 0 -167 52t-57 137q0 89 61.5 147t169.5 68l-5 86h97l-5 -86q112 -10 171 -74.5t64 -167.5h-115q-6 149 -164 149q-74 0 -116.5 -31.5t-42.5 -86.5
q0 -92 124 -92h90q124 0 179 -55.5t55 -141.5q0 -98 -65 -159t-180 -70l5 -81h-97z" />
    <glyph glyph-name="percent" unicode="%" horiz-adv-x="912" 
d="M647 700h107l-489 -700h-106zM100.5 666.5q48.5 47.5 122.5 47.5t122.5 -47.5t48.5 -131.5q0 -55 -22.5 -95.5t-61.5 -61.5t-87 -21t-87 21t-61.5 61.5t-22.5 95.5q0 84 48.5 131.5zM164 459.5q23 -26.5 59 -26.5t59 26.5t23 75.5t-23 76t-59 27t-59 -27t-23 -76
t23 -75.5zM540.5 260.5q22.5 40.5 61 61.5t86.5 21q75 0 123.5 -47.5t48.5 -131.5q0 -55 -22.5 -95.5t-62 -61.5t-87.5 -21t-86.5 21t-61 61.5t-22.5 95.5q0 56 22.5 96.5zM629 88.5q23 -26.5 59 -26.5q38 0 60 25t22 77q0 49 -23 76t-59 27q-35 0 -58.5 -27t-23.5 -76
t23 -75.5z" />
    <glyph glyph-name="ampersand" unicode="&#x26;" horiz-adv-x="691" 
d="M139.5 6.5q-52.5 22.5 -83 65.5t-30.5 102q0 130 157 194h1q-46 51 -64 91.5t-18 79.5q0 50 24.5 90t71.5 63.5t110 23.5q93 0 142.5 -45.5t49.5 -117.5q0 -128 -155 -195l-7 -3l133 -141q35 69 39 155h113q-2 -64 -22 -123.5t-56 -108.5l129 -137h-144l-57 61
q-46 -37 -101.5 -57t-116.5 -20q-63 0 -115.5 22.5zM173 106q33 -29 91 -29q81 0 143 54l-170 180l-2 -1q-95 -40 -95 -125q0 -50 33 -79zM227 484.5q16 -28.5 54 -69.5l3 -4l9 4q51 21 77 52t26 70t-24.5 62.5t-66.5 23.5q-43 0 -68.5 -23.5t-25.5 -60.5q0 -26 16 -54.5z
" />
    <glyph glyph-name="quotesingle" unicode="'" horiz-adv-x="215" 
d="M58 700h99l-5 -257h-89z" />
    <glyph glyph-name="parenleft" unicode="(" horiz-adv-x="327" 
d="M120 81.5q-28 119.5 -28 246.5q0 252 109 472h106q-110 -225 -110 -472q0 -126 28.5 -245t81.5 -227h-106q-53 106 -81 225.5z" />
    <glyph glyph-name="parenright" unicode=")" horiz-adv-x="327" 
d="M207 574.5q28 -119.5 28 -246.5q0 -252 -109 -472h-106q110 225 110 472q0 126 -28.5 245t-81.5 227h106q53 -106 81 -225.5z" />
    <glyph glyph-name="asterisk" unicode="*" horiz-adv-x="430" 
d="M62 426l105 108l-149 26l32 97l136 -66l-22 149h102l-22 -150l136 67l32 -97l-149 -26l105 -108l-82 -60l-71 134l-70 -134z" />
    <glyph glyph-name="plus" unicode="+" horiz-adv-x="595" 
d="M52 340h199v208h93v-208h200v-90h-200v-210h-93v210h-199v90z" />
    <glyph glyph-name="comma" unicode="," horiz-adv-x="261" 
d="M117.5 -54.5q21.5 19.5 21.5 51.5v3h-69v125h119v-123q0 -59 -35 -93t-92 -34v51q34 0 55.5 19.5z" />
    <glyph glyph-name="hyphen" unicode="-" horiz-adv-x="520" 
d="M100 325h320v-88h-320v88z" />
    <glyph glyph-name="period" unicode="." horiz-adv-x="239" 
d="M62 117h115v-117h-115v117z" />
    <glyph glyph-name="slash" unicode="/" horiz-adv-x="365" 
d="M110 -100h-100l245 900h100z" />
    <glyph glyph-name="zero" unicode="0" horiz-adv-x="620" 
d="M107.5 79.5q-71.5 95.5 -71.5 270.5t71.5 270.5t202.5 95.5t202.5 -95.5t71.5 -270.5t-71.5 -270.5t-202.5 -95.5t-202.5 95.5zM191 143q41 -70 119 -70q77 0 118.5 70t41.5 207q0 138 -41 207.5t-119 69.5t-119 -69.5t-41 -207.5q0 -137 41 -207z" />
    <glyph glyph-name="one" unicode="1" horiz-adv-x="361" 
d="M277 0h-108v523h-2q-16 -72 -101 -72h-56v99h58q53 0 77.5 25.5t24.5 77.5v47h107v-700z" />
    <glyph glyph-name="two" unicode="2" horiz-adv-x="553" 
d="M43.5 166q17.5 44 61.5 83t125 80l42 22q71 36 100.5 72t29.5 84q0 56 -32 87.5t-87 31.5q-58 0 -91.5 -35.5t-33.5 -103.5h-114q0 107 65.5 167.5t173.5 60.5q106 0 170 -55.5t64 -150.5q0 -74 -46.5 -133t-156.5 -115l-47 -25q-54 -28 -81.5 -50t-36.5 -43t-9 -49h387
v-94h-501v62q0 60 17.5 104z" />
    <glyph glyph-name="three" unicode="3" horiz-adv-x="604" 
d="M109.5 45q-72.5 61 -73.5 172h113q2 -66 42.5 -105t111.5 -39q67 0 109.5 34.5t42.5 95.5q0 60 -43 92.5t-120 32.5h-89v88h74q70 0 110 30.5t40 81.5q0 48 -34 73.5t-86 25.5q-56 0 -92.5 -30.5t-37.5 -83.5h-113q3 93 69 148t175 55q70 0 123 -23t81 -63.5t28 -90.5
q0 -58 -39 -101t-115 -54v-2q87 -9 134.5 -60t47.5 -125q0 -63 -33 -111t-93.5 -75t-139.5 -27q-120 0 -192.5 61z" />
    <glyph glyph-name="four" unicode="4" horiz-adv-x="561" 
d="M353 146h-336v84l308 470h136v-463h90v-91h-90v-146h-108v146zM353 237v350h-2l-221 -348v-2h223z" />
    <glyph glyph-name="five" unicode="5" horiz-adv-x="585" 
d="M168.5 10.5q-56.5 26.5 -91 74.5t-39.5 111h111q6 -55 46.5 -89t99.5 -34q65 0 106 42t41 111q0 70 -41.5 110t-106.5 40q-46 0 -82 -19.5t-57 -51.5h-113l57 395h416v-91h-323l-42 -230h2q30 40 74.5 62.5t98.5 22.5q62 0 115.5 -28t85 -81.5t31.5 -125.5
q0 -74 -34 -129.5t-93.5 -85.5t-134.5 -30q-70 0 -126.5 26.5z" />
    <glyph glyph-name="six" unicode="6" horiz-adv-x="609" 
d="M111 77.5q-75 93.5 -75 269.5q0 180 74 274.5t204 94.5q71 0 126 -29.5t85.5 -80.5t30.5 -111h-111q0 58 -36.5 95t-95.5 37q-71 0 -117 -67t-46 -199v-23h2q23 58 72.5 92t116.5 34q62 0 115 -29.5t85 -84t32 -124.5q0 -73 -33 -128t-91.5 -84.5t-132.5 -29.5
q-130 0 -205 93.5zM208.5 115.5q41.5 -42.5 103.5 -42.5q41 0 74.5 19t53 54.5t19.5 80.5q0 68 -41 108.5t-105 40.5t-105 -40.5t-41 -108.5q0 -69 41.5 -111.5z" />
    <glyph glyph-name="seven" unicode="7" horiz-adv-x="488" 
d="M136.5 224.5q35.5 117.5 100 219.5t146.5 163v2h-373v91h468v-84q-85 -72 -144 -176t-88 -218.5t-29 -221.5h-116q0 107 35.5 224.5z" />
    <glyph glyph-name="eight" unicode="8" horiz-adv-x="587" 
d="M107.5 39q-71.5 55 -71.5 152q0 70 40 117t114 63v2q-60 14 -94.5 55t-34.5 102q0 57 30.5 99.5t83 64.5t118.5 22t119 -22t83.5 -64.5t30.5 -99.5q0 -61 -34.5 -102t-95.5 -55v-2q75 -16 115 -63t40 -117q0 -65 -33 -111.5t-91.5 -71t-133.5 -24.5q-114 0 -185.5 55z
M190 106q40 -33 103 -33q64 0 104 33t40 95t-40 95t-104 33q-63 0 -103 -33t-40 -95t40 -95zM206.5 443q33.5 -28 86.5 -28q54 0 87.5 28t33.5 78t-33.5 78t-87.5 28q-53 0 -86.5 -28t-33.5 -78t33.5 -78z" />
    <glyph glyph-name="nine" unicode="9" horiz-adv-x="609" 
d="M498 622.5q75 -93.5 75 -269.5q0 -180 -74 -274.5t-204 -94.5q-71 0 -126 29.5t-85.5 80.5t-30.5 111h111q0 -58 36.5 -95t95.5 -37q71 0 117 67t46 199v23h-2q-23 -58 -72.5 -92t-116.5 -34q-62 0 -115 29.5t-85 84t-32 124.5q0 73 33 128t91.5 84.5t132.5 29.5
q130 0 205 -93.5zM191 364.5q41 -40.5 105 -40.5t105 40.5t41 108.5q0 69 -41.5 111.5t-103.5 42.5q-41 0 -74.5 -19t-53 -54.5t-19.5 -80.5q0 -68 41 -108.5z" />
    <glyph glyph-name="colon" unicode=":" horiz-adv-x="239" 
d="M62 520h115v-117h-115v117zM62 117h115v-117h-115v117z" />
    <glyph glyph-name="semicolon" unicode=";" horiz-adv-x="261" 
d="M117.5 -54.5q21.5 19.5 21.5 51.5v3h-69v125h119v-123q0 -59 -35 -93t-92 -34v51q34 0 55.5 19.5zM62 520h115v-117h-115v117z" />
    <glyph glyph-name="less" unicode="&#x3c;" horiz-adv-x="610" 
d="M562 444l-422 -159l422 -160v-100l-512 200v119l512 200v-100z" />
    <glyph glyph-name="equal" unicode="=" horiz-adv-x="572" 
d="M80 463h412v-90h-412v90zM80 263h412v-90h-412v90z" />
    <glyph glyph-name="greater" unicode="&#x3e;" horiz-adv-x="610" 
d="M50 125l422 160l-422 159v100l512 -200v-119l-512 -200v100z" />
    <glyph glyph-name="question" unicode="?" horiz-adv-x="589" 
d="M222.5 297q17.5 27 68.5 47l36 14q102 43 102 140q0 61 -35.5 95t-96.5 34q-64 0 -105 -37t-42 -104h-114q1 70 35 121.5t93.5 79.5t134.5 28q78 0 133 -29t83 -77.5t28 -105.5q0 -74 -45 -129t-121 -86l-17 -7q-29 -12 -38 -28t-9 -46v-32h-108v47q0 48 17.5 75z
M200 117h119v-117h-119v117z" />
    <glyph glyph-name="at" unicode="@" horiz-adv-x="994" 
d="M257 -120.5q-105 55.5 -161.5 157t-56.5 235.5q0 133 56.5 233t161 154.5t244.5 54.5q138 0 241.5 -54t159 -153t55.5 -231v-234h-246q-48 0 -74 19t-26 51v1v10h-2q-12 -43 -51.5 -69.5t-95.5 -26.5q-55 0 -100.5 27t-72.5 79t-27 124q0 71 27 123t72.5 79t100.5 27
q51 0 89.5 -23.5t53.5 -69.5h2v41v37h108v-306q0 -33 38 -33h96v144q0 180 -92 264.5t-256 84.5q-105 0 -184.5 -41.5t-123 -121t-43.5 -190.5q0 -110 43.5 -190.5t123 -123t184.5 -42.5h456v-92h-456q-139 0 -244 55.5zM409 154.5q31 -38.5 83 -38.5q53 0 85 39.5t32 101.5
q0 61 -31.5 100.5t-83.5 40.5q-53 0 -84.5 -39t-31.5 -102q0 -64 31 -102.5z" />
    <glyph glyph-name="A" unicode="A" horiz-adv-x="671" 
d="M278 700h114l264 -700h-120l-61 175h-280l-62 -175h-118zM442 269l-41 116q-23 64 -53 155q-3 12 -6.5 22t-6.5 18h-1l-17 -51q-25 -77 -49 -146l-40 -114h214z" />
    <glyph glyph-name="B" unicode="B" horiz-adv-x="664" 
d="M70 700h298q63 0 111 -22t74.5 -61.5t26.5 -90.5q0 -61 -37.5 -100t-104.5 -46v-2q90 -3 141 -50t51 -123q0 -58 -29.5 -104.5t-85 -73.5t-128.5 -27h-317v700zM369 95q71 0 107.5 30t36.5 83t-37 83t-107 30h-186v-226h186zM348 414q56 0 86 26t30 70t-30 69.5t-86 25.5
h-165v-191h165z" />
    <glyph glyph-name="C" unicode="C" horiz-adv-x="743" 
d="M201.5 29.5q-78.5 45.5 -122 128.5t-43.5 193q0 111 41.5 193.5t119.5 127t185 44.5q97 0 168 -37.5t110.5 -101.5t46.5 -144h-117q-4 52 -29 94.5t-70.5 68t-108.5 25.5q-106 0 -166.5 -71t-60.5 -199q0 -84 29.5 -145.5t81 -94t116.5 -32.5q61 0 106 26t70.5 66.5
t31.5 84.5h117q-9 -75 -49.5 -136.5t-111 -98.5t-164.5 -37q-102 0 -180.5 45.5z" />
    <glyph glyph-name="D" unicode="D" horiz-adv-x="714" 
d="M70 700h266q99 0 176.5 -41.5t121.5 -120.5t44 -188t-44 -188t-121.5 -120.5t-176.5 -41.5h-266v700zM330 95q104 0 166.5 66t62.5 189q0 124 -62.5 189.5t-166.5 65.5h-147v-510h147z" />
    <glyph glyph-name="E" unicode="E" horiz-adv-x="581" 
d="M70 700h489v-93h-375v-209h336v-93h-336v-212h376v-93h-490v700z" />
    <glyph glyph-name="F" unicode="F" horiz-adv-x="571" 
d="M70 700h487v-93h-375v-209h336v-93h-336v-305h-112v700z" />
    <glyph glyph-name="G" unicode="G" 
d="M196 29.5q-75 45.5 -117.5 128.5t-42.5 193q0 108 41.5 190.5t119 128.5t183.5 46q96 0 168 -38t111 -102.5t43 -143.5h-116q-2 53 -27.5 96t-72 68t-106.5 25q-69 0 -119.5 -33t-78 -94t-27.5 -143q0 -84 29.5 -145.5t81 -94t116.5 -32.5q60 0 106 26t73 66t34 83h-225
v93h279q26 0 40.5 -14t14.5 -39v-294h-104l19 138h-2q-33 -75 -96.5 -114.5t-153.5 -39.5q-96 0 -171 45.5z" />
    <glyph glyph-name="H" unicode="H" horiz-adv-x="693" 
d="M70 700h113v-301h327v301h113v-700h-113v304h-327v-304h-113v700z" />
    <glyph glyph-name="I" unicode="I" horiz-adv-x="253" 
d="M70 700h113v-700h-113v700z" />
    <glyph glyph-name="J" unicode="J" horiz-adv-x="560" 
d="M80 50q-65 66 -65 188h112q0 -79 33.5 -119t91.5 -40q59 0 92 39.5t33 119.5v462h113v-464q0 -121 -65 -186.5t-173 -65.5q-107 0 -172 66z" />
    <glyph glyph-name="K" unicode="K" horiz-adv-x="648" 
d="M70 700h113v-343h2l300 343h146l-273 -305l288 -395h-141l-220 311h-2l-100 -111v-200h-113v700z" />
    <glyph glyph-name="L" unicode="L" horiz-adv-x="505" 
d="M491 95v-95h-421v700h113v-605h308z" />
    <glyph glyph-name="M" unicode="M" horiz-adv-x="851" 
d="M70 700h170l185 -569h2l185 569h168v-700h-110v400l1 153h-2l-183 -553h-121l-184 553h-2v-25q2 -90 2 -128v-400h-111v700z" />
    <glyph glyph-name="N" unicode="N" horiz-adv-x="736" 
d="M183 543h-2l1 -120v-423h-112v700h145l339 -541h2l-1 120v421h111v-700h-142z" />
    <glyph glyph-name="O" unicode="O" 
d="M206.5 27q-78.5 43 -124.5 126t-46 197t46 197t124.5 126t173.5 43t173.5 -43t124.5 -126t46 -197t-46 -197t-124.5 -126t-173.5 -43t-173.5 43zM184.5 200q29.5 -61 80 -91t115.5 -30t116 30t80 91t29 150t-29 150t-80 91t-116 30t-115.5 -30t-80 -91t-29.5 -150
t29.5 -150z" />
    <glyph glyph-name="P" unicode="P" horiz-adv-x="655" 
d="M70 700h308q70 0 124.5 -26t85.5 -74.5t31 -115.5q0 -66 -30.5 -114t-85.5 -73t-125 -25h-195v-272h-113v700zM358 367q67 0 105.5 31t38.5 86t-39 88t-105 33h-175v-238h175z" />
    <glyph glyph-name="Q" unicode="Q" horiz-adv-x="777" 
d="M629 18.5q-19 18.5 -19 47.5h-1q-45 -40 -104 -61t-125 -21q-95 0 -173.5 43t-124.5 126t-46 197t46 197t124.5 126t173.5 43t173.5 -43t124.5 -126t46 -197q0 -139 -68 -232q0 -15 5.5 -20t20.5 -5h59v-93h-56q-37 0 -56 18.5zM184.5 200q29.5 -61 80 -91t115.5 -30
q86 0 143 50q0 15 -5.5 20t-20.5 5h-66v91h55q37 0 56 -18.5t19 -47.5h3q41 68 41 171q0 89 -29 150t-80 91t-116 30t-115.5 -30t-80 -91t-29.5 -150t29.5 -150z" />
    <glyph glyph-name="R" unicode="R" horiz-adv-x="638" 
d="M70 700h282q118 0 184.5 -52t66.5 -139q0 -69 -41.5 -115.5t-118.5 -61.5v-2q59 -22 89.5 -66t51.5 -119l40 -145h-116l-32 122q-16 65 -36.5 98.5t-53.5 47t-91 13.5h-112v-281h-113v700zM304 375q90 0 136 30.5t46 89.5q0 52 -37 81t-108 29h-158v-230h121z" />
    <glyph glyph-name="S" unicode="S" horiz-adv-x="647" 
d="M116.5 52.5q-74.5 68.5 -79.5 189.5h116q4 -79 49.5 -121t127.5 -42q76 0 120 35.5t44 95.5q0 100 -133 100h-90q-110 0 -167 52t-57 137q0 65 33.5 114t95.5 76t147 27q133 0 202.5 -65.5t74.5 -178.5h-115q-6 149 -164 149q-74 0 -116.5 -31.5t-42.5 -86.5
q0 -92 124 -92h90q124 0 179 -55.5t55 -141.5q0 -70 -34 -122t-97.5 -80t-150.5 -28q-137 0 -211.5 68.5z" />
    <glyph glyph-name="T" unicode="T" horiz-adv-x="609" 
d="M248 605h-234v95h581v-95h-234v-605h-113v605z" />
    <glyph glyph-name="U" unicode="U" horiz-adv-x="700" 
d="M206.5 17q-63.5 33 -100 96.5t-36.5 151.5v435h113v-431q0 -91 46.5 -140.5t120.5 -49.5t121 49.5t47 140.5v431h112v-435q0 -88 -36.5 -151.5t-100 -96.5t-143.5 -33t-143.5 33z" />
    <glyph glyph-name="V" unicode="V" horiz-adv-x="660" 
d="M10 700h121l131 -374q41 -118 67 -200h2q28 89 67 200l131 374h121l-262 -700h-116z" />
    <glyph glyph-name="W" unicode="W" horiz-adv-x="928" 
d="M10 700h116l139 -552h2l130 552h137l128 -552h2l138 552h116l-191 -700h-129l-133 565h-2l-133 -565h-129z" />
    <glyph glyph-name="X" unicode="X" horiz-adv-x="651" 
d="M507 0l-180 265h-2l-181 -265h-135l246 353l-241 347h135l176 -259h2l175 259h135l-242 -347l247 -353h-135z" />
    <glyph glyph-name="Y" unicode="Y" horiz-adv-x="619" 
d="M253 278l-243 422h128l170 -319h2l171 319h128l-244 -422v-278h-112v278z" />
    <glyph glyph-name="Z" unicode="Z" horiz-adv-x="585" 
d="M18 93l389 509v2h-379v96h529v-86l-389 -509v-2h399v-103h-549v93z" />
    <glyph glyph-name="bracketleft" unicode="[" horiz-adv-x="298" 
d="M50 800h238v-90h-135v-764h135v-90h-238v944z" />
    <glyph glyph-name="backslash" unicode="\" horiz-adv-x="365" 
d="M10 800h100l245 -900h-100z" />
    <glyph glyph-name="bracketright" unicode="]" horiz-adv-x="298" 
d="M248 -144h-238v90h135v764h-135v90h238v-944z" />
    <glyph glyph-name="asciicircum" unicode="^" horiz-adv-x="426" 
d="M172 700h82l130 -307h-92l-79 220l-79 -220h-92z" />
    <glyph glyph-name="underscore" unicode="_" horiz-adv-x="600" 
d="M50 0h500v-89h-500v89z" />
    <glyph glyph-name="grave" unicode="`" horiz-adv-x="223" 
d="M11 765h121l80 -152h-96z" />
    <glyph glyph-name="a" unicode="a" horiz-adv-x="595" 
d="M340 15q-50 -31 -116 -31q-83 0 -136 46t-53 129q0 88 59.5 130.5t149.5 42.5h88q81 0 81 63q0 40 -32 61t-82 21q-58 0 -93 -27.5t-39 -77.5h-111q6 91 66.5 142.5t175.5 51.5q114 0 168.5 -51t54.5 -138v-250q0 -19 8.5 -27.5t27.5 -8.5h23v-91h-72q-43 0 -66.5 22
t-23.5 60v26h-2q-26 -62 -76 -93zM174.5 98.5q25.5 -24.5 77.5 -24.5q68 0 114.5 44.5t46.5 130.5v57h-2q-14 -29 -40.5 -42.5t-72.5 -14.5l-43 -1q-54 -1 -80 -25t-26 -62t25.5 -62.5z" />
    <glyph glyph-name="b" unicode="b" horiz-adv-x="650" 
d="M253 16.5q-52 32.5 -77 90.5h-2q1 -21 1 -60v-47h-107v781h108v-280q0 -37 -2 -58h2q25 58 77 90.5t118 32.5t123.5 -34t92.5 -99.5t35 -157.5t-35 -157.5t-92.5 -99.5t-123.5 -34t-118 32.5zM220.5 128.5q45.5 -55.5 120.5 -55.5q76 0 121.5 55.5t45.5 146.5
t-45.5 146.5t-121.5 55.5q-75 0 -120.5 -55.5t-45.5 -146.5t45.5 -146.5z" />
    <glyph glyph-name="c" unicode="c" horiz-adv-x="588" 
d="M159.5 20q-62.5 36 -97 102t-34.5 153q0 88 33 154t95.5 101.5t147.5 35.5q76 0 131.5 -29.5t87 -81t37.5 -115.5h-112q-4 59 -41.5 98t-102.5 39q-76 0 -119 -56t-43 -146q0 -61 20.5 -107t57.5 -70.5t84 -24.5q62 0 99.5 38.5t44.5 87.5h112q-8 -59 -40 -108t-87.5 -78
t-128.5 -29q-82 0 -144.5 36z" />
    <glyph glyph-name="d" unicode="d" horiz-adv-x="650" 
d="M155.5 18q-57.5 34 -92.5 99.5t-35 157.5t35 157.5t92.5 99.5t123.5 34t118 -32.5t77 -90.5h2q-2 21 -2 58v280h108v-781h-107v47q0 39 1 60h-2q-25 -58 -77 -90.5t-118 -32.5t-123.5 34zM187.5 128.5q45.5 -55.5 121.5 -55.5q75 0 120.5 55.5t45.5 146.5t-45.5 146.5
t-120.5 55.5q-76 0 -121.5 -55.5t-45.5 -146.5t45.5 -146.5z" />
    <glyph glyph-name="e" unicode="e" horiz-adv-x="587" 
d="M157 19.5q-61 35.5 -95 101.5t-34 154q0 89 34 154.5t95.5 101t140.5 35.5q76 0 135.5 -31.5t93.5 -91.5t34 -143v-58h-418q4 -75 46 -122t111 -47q51 0 88.5 25.5t52.5 70.5h114q-18 -83 -87.5 -134t-168.5 -51q-81 0 -142 35.5zM450 326q0 68 -40 109.5t-109 41.5
q-70 0 -109.5 -41.5t-47.5 -109.5h306z" />
    <glyph glyph-name="f" unicode="f" horiz-adv-x="349" 
d="M124.5 735.5q44.5 45.5 131.5 45.5h92v-91h-76q-40 0 -62 -21.5t-22 -71.5v-47h120v-91h-120v-459h-108v459h-76v91h76v56q0 84 44.5 129.5z" />
    <glyph glyph-name="g" unicode="g" horiz-adv-x="567" 
d="M69 -166q-43 34 -43 90q0 42 24 72t70 42v2q-31 11 -49.5 35t-18.5 56q0 37 23.5 60.5t59.5 27.5l13 1v2q-48 20 -75.5 60.5t-27.5 95.5q0 58 29.5 100.5t80 65t111.5 22.5q60 0 109 -21.5t78 -61.5h3q2 32 20 49.5t49 17.5h23v-91h-38q-15 0 -22 -6t-9 -20q8 -27 8 -55
q0 -57 -29 -100t-79 -66t-111 -23h-68q-53 0 -53 -38q0 -19 13.5 -29t39.5 -10h176q83 0 130.5 -41.5t47.5 -113.5q0 -73 -47.5 -115t-130.5 -42h-183q-81 0 -124 34zM141 -99q21 -19 62 -19h162q38 0 60 18.5t22 52.5q0 33 -22 51.5t-60 18.5h-162q-40 0 -61.5 -19.5
t-21.5 -51.5t21 -51zM183 298q33 -26 83 -26t83.5 26t33.5 77q0 50 -33.5 76t-83.5 26t-83 -26t-33 -76q0 -51 33 -77z" />
    <glyph glyph-name="h" unicode="h" horiz-adv-x="604" 
d="M68 781h108v-235q0 -44 -2 -89h2q22 49 66 79t105 30q87 0 139 -58t52 -157v-351h-108v326q0 149 -114 149q-60 0 -100 -41.5t-40 -127.5v-306h-108v781z" />
    <glyph glyph-name="i" unicode="i" horiz-adv-x="245" 
d="M68 550h108v-550h-108v550zM67 752h110v-107h-110v107z" />
    <glyph glyph-name="j" unicode="j" horiz-adv-x="243" 
d="M-27 -110h38q27 0 41.5 16.5t14.5 46.5v597h108v-611q0 -60 -39 -99.5t-99 -39.5h-64v90zM65 752h110v-107h-110v107z" />
    <glyph glyph-name="k" unicode="k" horiz-adv-x="546" 
d="M68 781h108v-484h2l216 253h136l-204 -234l222 -316h-135l-159 235h-2l-76 -87v-148h-108v781z" />
    <glyph glyph-name="l" unicode="l" horiz-adv-x="245" 
d="M68 781h108v-781h-108v781z" />
    <glyph glyph-name="m" unicode="m" horiz-adv-x="924" 
d="M68 550h106v-89h2q24 46 64.5 75.5t99.5 29.5t101.5 -31.5t60.5 -87.5h2q23 55 67.5 87t106.5 32q83 0 131 -57.5t48 -156.5v-352h-108v341q0 67 -28 100.5t-76 33.5q-55 0 -91.5 -40.5t-36.5 -115.5v-319h-108v341q0 67 -28 100.5t-77 33.5q-54 0 -91 -41t-37 -116v-318
h-108v550z" />
    <glyph glyph-name="n" unicode="n" horiz-adv-x="604" 
d="M68 550h106v-94h2q26 52 71.5 81t104.5 29q87 0 136.5 -59.5t49.5 -169.5v-337h-108v326q0 77 -30.5 113t-83.5 36q-59 0 -99.5 -42t-40.5 -127v-306h-108v550z" />
    <glyph glyph-name="o" unicode="o" horiz-adv-x="608" 
d="M163.5 18.5q-62.5 34.5 -99 100t-36.5 156.5t36.5 156.5t99 100t140.5 34.5t140.5 -34.5t99 -100t36.5 -156.5t-36.5 -156.5t-99 -100t-140.5 -34.5t-140.5 34.5zM187 125.5q45 -52.5 117 -52.5t117 52.5t45 149.5t-45 149.5t-117 52.5t-117 -52.5t-45 -149.5t45 -149.5z
" />
    <glyph glyph-name="p" unicode="p" horiz-adv-x="650" 
d="M68 550h108v-49q0 -37 -2 -58h2q25 58 77 90.5t118 32.5t123.5 -34t92.5 -99.5t35 -157.5t-35 -157.5t-92.5 -99.5t-123.5 -34t-118 32.5t-77 90.5h-2q2 -21 2 -60v-247h-108v750zM220.5 128.5q45.5 -55.5 120.5 -55.5q76 0 121.5 55.5t45.5 146.5t-45.5 146.5
t-121.5 55.5q-75 0 -120.5 -55.5t-45.5 -146.5t45.5 -146.5z" />
    <glyph glyph-name="q" unicode="q" horiz-adv-x="650" 
d="M476 107h-2q-25 -58 -77 -90.5t-118 -32.5t-123.5 34t-92.5 99.5t-35 157.5t35 157.5t92.5 99.5t123.5 34t118 -32.5t77 -90.5h2q-2 21 -2 58v49h108v-750h-108v247q0 39 2 60zM187.5 128.5q45.5 -55.5 121.5 -55.5q75 0 120.5 55.5t45.5 146.5t-45.5 146.5t-120.5 55.5
q-76 0 -121.5 -55.5t-45.5 -146.5t45.5 -146.5z" />
    <glyph glyph-name="r" unicode="r" horiz-adv-x="379" 
d="M68 550h106v-91h2q22 46 52.5 68.5t86.5 22.5h54v-91h-71q-63 0 -92.5 -36t-29.5 -110v-313h-108v550z" />
    <glyph glyph-name="s" unicode="s" horiz-adv-x="530" 
d="M98.5 37q-61.5 53 -65.5 145h112q2 -55 34.5 -82t88.5 -27q54 0 84.5 24.5t30.5 65.5q0 74 -100 74h-60q-84 0 -132 42t-48 112q0 51 26 90.5t75.5 62t117.5 22.5q105 0 163 -52.5t62 -141.5h-111q-2 51 -31 78t-82 27q-50 0 -78.5 -22t-28.5 -59q0 -34 22.5 -50.5
t64.5 -16.5h65q92 0 140.5 -45.5t48.5 -117.5q0 -53 -27 -94.5t-79 -64.5t-123 -23q-108 0 -169.5 53z" />
    <glyph glyph-name="t" unicode="t" horiz-adv-x="426" 
d="M162.5 37q-37.5 37 -37.5 110v312h-108v91h108v150h108v-150h171v-91h-171v-303q0 -34 16.5 -49.5t49.5 -15.5h109v-91h-135q-73 0 -110.5 37z" />
    <glyph glyph-name="u" unicode="u" horiz-adv-x="601" 
d="M113.5 43.5q-50.5 59.5 -50.5 169.5v337h108v-326q0 -149 114 -149q60 0 99.5 41.5t39.5 127.5v306h108v-550h-106v94h-2q-24 -54 -68.5 -82t-103.5 -28q-88 0 -138.5 59.5z" />
    <glyph glyph-name="v" unicode="v" horiz-adv-x="550" 
d="M9 550h118l147 -413h1l148 413h118l-210 -550h-112z" />
    <glyph glyph-name="w" unicode="w" horiz-adv-x="757" 
d="M9 550h114l98 -414h2l94 414h123l94 -414h2l98 414h114l-153 -550h-118l-98 400h-2l-98 -400h-119z" />
    <glyph glyph-name="x" unicode="x" horiz-adv-x="587" 
d="M228 281l-201 269h135l131 -188h2l131 188h135l-201 -269l210 -281h-134l-141 199h-2l-141 -199h-135z" />
    <glyph glyph-name="y" unicode="y" horiz-adv-x="550" 
d="M9 -109h151l59 139l-210 520h117l148 -390h2l148 390h116l-285 -708q-16 -42 -62 -42h-184v91z" />
    <glyph glyph-name="z" unicode="z" horiz-adv-x="505" 
d="M18 82l302 377v1h-282v90h427v-81l-301 -377v-1h323v-91h-469v82z" />
    <glyph glyph-name="braceleft" unicode="{" horiz-adv-x="392" 
d="M189 -100.5q-45 43.5 -45 111.5v191q0 36 -22.5 58t-57.5 22h-34v92h34q35 0 57.5 22t22.5 58v191q0 68 45 111.5t115 43.5h78v-90h-55q-35 0 -57.5 -23.5t-22.5 -61.5v-189q0 -46 -23.5 -76t-58.5 -30v-4q35 0 58.5 -30t23.5 -76v-189q0 -38 22.5 -61.5t57.5 -23.5h55
v-90h-78q-70 0 -115 43.5z" />
    <glyph glyph-name="bar" unicode="|" horiz-adv-x="245" 
d="M70 800h105v-944h-105v944z" />
    <glyph glyph-name="braceright" unicode="}" horiz-adv-x="392" 
d="M203 756.5q45 -43.5 45 -111.5v-191q0 -36 22.5 -58t57.5 -22h34v-92h-34q-35 0 -57.5 -22t-22.5 -58v-191q0 -68 -45 -111.5t-115 -43.5h-78v90h55q35 0 57.5 23.5t22.5 61.5v189q0 46 23.5 76t58.5 30v4q-35 0 -58.5 30t-23.5 76v189q0 38 -22.5 61.5t-57.5 23.5h-55
v90h78q70 0 115 -43.5z" />
    <glyph glyph-name="asciitilde" unicode="~" horiz-adv-x="600" 
d="M80.5 326q40.5 45 108.5 45q40 0 67.5 -14.5t63.5 -42.5q24 -20 40 -29.5t35 -9.5q26 0 42.5 19t16.5 48h92q0 -69 -40 -114t-109 -45q-40 0 -68 15t-63 43q-24 20 -40 29.5t-35 9.5q-26 0 -42.5 -19.5t-16.5 -48.5h-92q0 69 40.5 114z" />
    <glyph glyph-name="uni00A0" unicode="&#xa0;" horiz-adv-x="224" 
 />
    <glyph glyph-name="exclamdown" unicode="&#xa1;" horiz-adv-x="244" 
d="M64 0l15 375h86l15 -375v-150h-116v150zM62 550h119v-117h-119v117z" />
    <glyph glyph-name="cent" unicode="&#xa2;" horiz-adv-x="572" 
d="M252 83q-102 14 -163 85.5t-61 182.5q0 110 59.5 181.5t164.5 84.5l-5 83h98l-5 -83q90 -12 142.5 -67t61.5 -135h-112q-4 50 -39.5 83t-96.5 33q-72 0 -113 -49.5t-41 -130.5q0 -83 43 -132.5t111 -49.5q58 0 94 32t42 73h112q-10 -73 -64 -126t-140 -65l5 -83h-98z" />
    <glyph glyph-name="sterling" unicode="&#xa3;" horiz-adv-x="603" 
d="M110.5 109q32.5 18 49.5 48t17 64q0 37 -24 80h-111v90h58q-29 58 -29 114q0 61 30 109t84.5 74.5t124.5 26.5t124 -26t84 -75t30 -115h-114q0 54 -35 88.5t-90 34.5t-89.5 -34t-34.5 -87q0 -26 8 -52.5t23 -57.5h212v-90h-175q11 -33 11 -65q0 -45 -21.5 -82.5
t-65.5 -60.5v-2h376v-91h-519v91q44 0 76.5 18z" />
    <glyph glyph-name="currency" unicode="&#xa4;" horiz-adv-x="572" 
d="M167 129l-70 -71l-69 69l72 69q-35 54 -35 119t35 119l-72 70l69 69l71 -72q52 33 116 33t118 -35l73 74l69 -69l-75 -72q33 -53 33 -117q0 -63 -33 -116l75 -72l-69 -69l-73 73q-54 -35 -119 -35q-64 0 -116 33zM194.5 226.5q36.5 -36.5 89.5 -36.5q52 0 88.5 36.5
t36.5 88.5t-36.5 88.5t-88.5 36.5q-53 0 -89.5 -36.5t-36.5 -88.5t36.5 -88.5z" />
    <glyph glyph-name="yen" unicode="&#xa5;" horiz-adv-x="626" 
d="M251 146h-198v89h198v59h-198v89h158v2l-203 315h130l168 -282h2l168 282h131l-203 -315v-2h157v-89h-198v-59h198v-89h-198v-146h-112v146z" />
    <glyph glyph-name="brokenbar" unicode="&#xa6;" horiz-adv-x="243" 
d="M69 800h105v-360h-105v360zM69 216h105v-360h-105v360z" />
    <glyph glyph-name="section" unicode="&#xa7;" horiz-adv-x="560" 
d="M160.5 -181q-51.5 24 -81 66.5t-32.5 96.5h111q4 -43 37.5 -70.5t84.5 -27.5q55 0 88 27.5t33 70.5t-33.5 71.5t-89.5 28.5h-18q-92 0 -145 38.5t-53 105.5q0 49 28 83.5t82 47.5v2q-60 17 -92.5 59.5t-32.5 102.5q0 52 27 96.5t79.5 71t126.5 26.5q67 0 118.5 -24
t81.5 -67t32 -96h-111q-4 44 -37 71t-84 27q-55 0 -88.5 -28t-33.5 -70q0 -43 34.5 -71.5t89.5 -28.5h17q92 0 145 -38.5t53 -105.5q0 -48 -28 -82t-81 -49v-2q60 -17 92 -59.5t32 -102.5q0 -52 -26.5 -96.5t-79 -71t-126.5 -26.5q-68 0 -119.5 24zM196 192q28 -24 84 -24h1
q54 0 82 23.5t28 63.5q0 39 -27.5 63t-83.5 24h-1q-54 0 -82.5 -24t-28.5 -63t28 -63z" />
    <glyph glyph-name="dieresis" unicode="&#xa8;" horiz-adv-x="340" 
d="M35 752h108v-107h-108v107zM197 752h108v-107h-108v107z" />
    <glyph glyph-name="copyright" unicode="&#xa9;" horiz-adv-x="798" 
d="M217.5 34.5q-83.5 49.5 -132.5 133.5t-49 183t49 182.5t132.5 132.5t181.5 49t181.5 -49t132 -132.5t48.5 -182.5t-48.5 -183t-132 -133.5t-181.5 -49.5t-181.5 49.5zM148 203q39 -68 105.5 -108t145.5 -40q78 0 144.5 40t105.5 108t39 148q0 79 -39 146.5t-105.5 107.5
t-144.5 40q-79 0 -145.5 -39.5t-105.5 -107t-39 -147.5t39 -148zM263 496q51 55 140 55q79 0 126 -44t53 -112h-85q-2 36 -27 60.5t-67 24.5q-49 0 -78 -35.5t-29 -93.5q0 -59 30 -95t77 -36q39 0 64 23.5t30 53.5h85q-8 -62 -55.5 -105t-123.5 -43q-87 0 -139 55t-52 147
q0 90 51 145z" />
    <glyph glyph-name="ordfeminine" unicode="&#xaa;" horiz-adv-x="372" 
d="M63.5 399q-32.5 27 -32.5 77q0 49 32.5 75t88.5 26h46q25 0 36.5 9t11.5 23q0 19 -16.5 28.5t-44.5 9.5q-62 0 -67 -51h-73q3 52 37 82.5t103 30.5t101 -30t32 -83v-132q0 -21 19 -21h14v-62h-34q-31 0 -48 14.5t-17 39.5v6h-2q-12 -33 -40.5 -51t-66.5 -18
q-47 0 -79.5 27zM117 445q13 -12 41 -12q38 0 64 23.5t26 67.5v29h-1q-5 -15 -23 -24.5t-46 -9.5l-19 -1q-55 -2 -55 -41q0 -20 13 -32z" />
    <glyph glyph-name="guillemotleft" unicode="&#xab;" horiz-adv-x="544" 
d="M355.5 190.5q-34.5 42.5 -87.5 46.5v85q53 4 87.5 46.5t39.5 106.5h104q-7 -69 -44 -122.5t-95 -72.5v-1q58 -19 95 -72.5t44 -122.5h-104q-5 64 -39.5 106.5zM130.5 190.5q-34.5 42.5 -87.5 46.5v85q53 4 87.5 46.5t39.5 106.5h104q-7 -69 -44 -122.5t-95 -72.5v-1
q58 -19 95 -72.5t44 -122.5h-104q-5 64 -39.5 106.5z" />
    <glyph glyph-name="logicalnot" unicode="&#xac;" horiz-adv-x="540" 
d="M492 352v-244h-84v156h-358v88h442z" />
    <glyph glyph-name="uni00AD" unicode="&#xad;" horiz-adv-x="520" 
d="M100 325h320v-88h-320v88z" />
    <glyph glyph-name="registered" unicode="&#xae;" horiz-adv-x="798" 
d="M217.5 34.5q-83.5 49.5 -132.5 133.5t-49 183t49 182.5t132.5 132.5t181.5 49t181.5 -49t132 -132.5t48.5 -182.5t-48.5 -183t-132 -133.5t-181.5 -49.5t-181.5 49.5zM148 203q39 -68 105.5 -108t145.5 -40t145 40t105 108t39 148q0 79 -39 146.5t-105 107.5t-145 40
t-145.5 -39.5t-105.5 -107t-39 -147.5t39 -148zM256 539h173q63 0 100.5 -29t37.5 -80q0 -41 -24.5 -68t-64.5 -36v-1q24 -10 39.5 -29.5t27.5 -56.5l24 -76h-86l-20 72q-10 36 -25 47t-51 11h-49v-130h-82v376zM413 362q33 0 52 14t19 41q0 24 -16 38t-44 14h-86v-107h75z
" />
    <glyph glyph-name="macron" unicode="&#xaf;" horiz-adv-x="328" 
d="M19 730h290v-90h-290v90z" />
    <glyph glyph-name="degree" unicode="&#xb0;" horiz-adv-x="403" 
d="M126.5 438q-34.5 20 -54.5 54t-20 75q0 40 20 74t54.5 54t75.5 20t75 -20t54 -54t20 -74q0 -41 -20 -75t-54 -54t-75 -20t-75.5 20zM154 519q20 -20 48 -20t47.5 20t19.5 48t-19.5 47.5t-47.5 19.5t-48 -19.5t-20 -47.5t20 -48z" />
    <glyph glyph-name="plusminus" unicode="&#xb1;" horiz-adv-x="612" 
d="M50 401h209v143h94v-143h209v-90h-209v-145h-94v145h-209v90zM50 116h512v-91h-512v91z" />
    <glyph glyph-name="uni00B2" unicode="&#xb2;" horiz-adv-x="245" 
d="M34 511.5q16 20.5 62 46.5l20 11q25 13 35 24.5t10 27.5q0 20 -11 29.5t-28 9.5q-19 0 -29.5 -12t-10.5 -34h-56q-1 45 25.5 69t71.5 24q43 0 69.5 -22.5t26.5 -61.5q0 -62 -79 -101l-22 -11q-26 -13 -33 -21t-7 -17h149v-53h-209v36q0 35 16 55.5z" />
    <glyph glyph-name="uni00B3" unicode="&#xb3;" horiz-adv-x="252" 
d="M49 437.5q-30 24.5 -31 69.5h57q0 -22 15 -34.5t38 -12.5q22 0 36 11t14 31t-13.5 32t-37.5 12h-42v47h35q23 0 35.5 10t12.5 25q0 16 -12 24t-29 8t-28.5 -8.5t-11.5 -26.5h-57q0 36 26.5 59t70.5 23q43 0 70 -21.5t27 -52.5q0 -23 -14 -41t-42 -21v-1q35 -5 50.5 -24
t15.5 -46q0 -39 -29 -63t-78 -24q-48 0 -78 24.5z" />
    <glyph glyph-name="acute" unicode="&#xb4;" horiz-adv-x="223" 
d="M91 765h121l-100 -152h-101z" />
    <glyph glyph-name="uni00B5" unicode="&#xb5;" horiz-adv-x="611" 
d="M68 550h108v-361q0 -58 32 -86t78 -28q57 0 96 41.5t39 117.5v316h108v-423q0 -19 8.5 -27.5t27.5 -8.5h31v-91h-80q-43 0 -66.5 22t-23.5 60v20h-1q-12 -57 -50 -86.5t-87 -29.5q-37 0 -66 16.5t-46 45.5v-248h-108v750z" />
    <glyph glyph-name="paragraph" unicode="&#xb6;" horiz-adv-x="566" 
d="M171 304.5q-54 24.5 -85.5 72t-31.5 111.5t32 112.5t85.5 74t118.5 25.5h77v-900h-77v480q-65 0 -119 24.5zM434 700h78v-900h-78v900z" />
    <glyph glyph-name="periodcentered" unicode="&#xb7;" horiz-adv-x="255" 
d="M64 325h127v-128h-127v128z" />
    <glyph glyph-name="cedilla" unicode="&#xb8;" horiz-adv-x="228" 
d="M18 -192v72h76q11 0 18 6t7 16t-7 16t-18 6h-29v109h66v-70q37 -3 57 -22t20 -51q0 -36 -24.5 -59t-69.5 -23h-96z" />
    <glyph glyph-name="uni00B9" unicode="&#xb9;" horiz-adv-x="168" 
d="M134 420h-55v201h-1q-4 -28 -39 -28h-24v52h24q40 0 40 36v19h55v-280z" />
    <glyph glyph-name="ordmasculine" unicode="&#xba;" horiz-adv-x="356" 
d="M67.5 420q-43.5 44 -43.5 122t43.5 122t110.5 44t110.5 -44t43.5 -122t-43.5 -122t-110.5 -44t-110.5 44zM121 464q21 -28 55 -28q36 0 58.5 27.5t22.5 78.5q0 52 -22.5 78.5t-58.5 26.5q-34 0 -55 -27t-21 -78q0 -50 21 -78z" />
    <glyph glyph-name="guillemotright" unicode="&#xbb;" horiz-adv-x="544" 
d="M187.5 368.5q34.5 -42.5 87.5 -46.5v-85q-53 -4 -87.5 -46.5t-39.5 -106.5h-104q7 69 44 122.5t95 72.5v1q-58 19 -95 72.5t-44 122.5h104q5 -64 39.5 -106.5zM313 206.5q37 53.5 95 72.5v1q-58 19 -95 72.5t-44 122.5h104q5 -64 39.5 -106.5t87.5 -46.5v-85
q-53 -4 -87.5 -46.5t-39.5 -106.5h-104q7 69 44 122.5z" />
    <glyph glyph-name="onequarter" unicode="&#xbc;" horiz-adv-x="978" 
d="M219 210h-86v358h-1q-9 -51 -67 -51h-43v83h43q69 0 69 67v33h85v-490zM613 700h94l-488 -700h-94zM579 169l213 321h104v-316h63v-77h-63v-97h-86v97h-231v72zM810 174v225h-1l-140 -224v-1h141z" />
    <glyph glyph-name="onehalf" unicode="&#xbd;" horiz-adv-x="963" 
d="M219 210h-86v358h-1q-9 -51 -67 -51h-43v83h43q69 0 69 67v33h85v-490zM613 700h94l-488 -700h-94zM607 153.5q29 41.5 110 83.5l33 17q48 25 67 47t19 53q0 37 -20.5 55.5t-55.5 18.5q-37 0 -58.5 -22t-20.5 -65h-87q-1 76 45 119t122 43q74 0 120.5 -39.5t46.5 -106.5
q0 -49 -31 -91t-110 -84l-35 -19q-45 -24 -62.5 -43t-17.5 -38h266v-82h-360v50q0 62 29 103.5z" />
    <glyph glyph-name="threequarters" unicode="&#xbe;" horiz-adv-x="1149" 
d="M91 240q-52 43 -54 122h90q2 -41 28 -65.5t71 -24.5q42 0 70 21t28 61q0 37 -24 58t-66 21h-79v76h69q37 0 58.5 18.5t21.5 48.5t-22 46t-55 16q-35 0 -57 -18t-23 -51h-90q2 65 48 104.5t123 39.5q74 0 119.5 -36.5t45.5 -92.5q0 -40 -24 -70t-65 -39v-2
q52 -10 80.5 -44t28.5 -83q0 -68 -53 -108.5t-135 -40.5t-134 43zM784 700h94l-488 -700h-94zM750 169l213 321h104v-316h63v-77h-63v-97h-86v97h-231v72zM981 174v225h-1l-140 -224v-1h141z" />
    <glyph glyph-name="questiondown" unicode="&#xbf;" horiz-adv-x="600" 
d="M356.5 247q-17.5 -27 -68.5 -47l-36 -14q-102 -43 -102 -140q0 -61 35.5 -95t96.5 -34q64 0 105 37t42 104h114q-1 -70 -35 -121.5t-93.5 -79.5t-134.5 -28q-78 0 -133 29t-83 77.5t-28 105.5q0 74 45 129t121 86l17 7q29 12 38 28t9 46v32h108v-47q0 -48 -17.5 -75z
M260 544h119v-117h-119v117z" />
    <glyph glyph-name="Agrave" unicode="&#xc0;" horiz-adv-x="671" 
d="M278 700h114l264 -700h-120l-61 175h-280l-62 -175h-118zM442 269l-41 116q-23 64 -53 155q-3 12 -6.5 22t-6.5 18h-1l-17 -51q-25 -77 -49 -146l-40 -114h214zM181 915h121l80 -152h-96z" />
    <glyph glyph-name="Aacute" unicode="&#xc1;" horiz-adv-x="671" 
d="M278 700h114l264 -700h-120l-61 175h-280l-62 -175h-118zM442 269l-41 116q-23 64 -53 155q-3 12 -6.5 22t-6.5 18h-1l-17 -51q-25 -77 -49 -146l-40 -114h214zM364 915h121l-100 -152h-101z" />
    <glyph glyph-name="Acircumflex" unicode="&#xc2;" horiz-adv-x="671" 
d="M278 700h114l264 -700h-120l-61 175h-280l-62 -175h-118zM442 269l-41 116q-23 64 -53 155q-3 12 -6.5 22t-6.5 18h-1l-17 -51q-25 -77 -49 -146l-40 -114h214zM295 915h78l106 -152h-93l-51 65h-2l-51 -65h-93z" />
    <glyph glyph-name="Atilde" unicode="&#xc3;" horiz-adv-x="671" 
d="M278 700h114l264 -700h-120l-61 175h-280l-62 -175h-118zM442 269l-41 116q-23 64 -53 155q-3 12 -6.5 22t-6.5 18h-1l-17 -51q-25 -77 -49 -146l-40 -114h214zM361.5 772q-21.5 12 -47.5 35q-17 16 -29.5 23.5t-25.5 7.5q-18 0 -30 -16t-12 -46v-6h-77v16q0 62 32.5 98
t81.5 36q31 0 52.5 -12t47.5 -35q17 -16 29.5 -23.5t25.5 -7.5q18 0 30 16t12 46v6h77v-16q0 -62 -32.5 -98t-81.5 -36q-31 0 -52.5 12z" />
    <glyph glyph-name="Adieresis" unicode="&#xc4;" horiz-adv-x="671" 
d="M278 700h114l264 -700h-120l-61 175h-280l-62 -175h-118zM442 269l-41 116q-23 64 -53 155q-3 12 -6.5 22t-6.5 18h-1l-17 -51q-25 -77 -49 -146l-40 -114h214zM199 902h108v-107h-108v107zM361 902h108v-107h-108v107z" />
    <glyph glyph-name="Aring" unicode="&#xc5;" horiz-adv-x="671" 
d="M267 670q-29 27 -29 67q0 38 26.5 65t65.5 27q38 0 65 -27t27 -65q0 -34 -22 -59l256 -678h-120l-61 175h-280l-62 -175h-118zM442 269l-41 116q-23 64 -53 155q-3 12 -6.5 22t-6.5 18h-1l-17 -51q-25 -77 -49 -146l-40 -114h214zM308 714q9 -9 22 -9t22 9t9 23t-9 23
t-22 9t-22 -9t-9 -23t9 -23z" />
    <glyph glyph-name="AE" unicode="&#xc6;" horiz-adv-x="925" 
d="M459 181h-252l-77 -181h-115l309 700h579v-93h-331v-209h292v-93h-292v-212h332v-93h-445v181zM459 274v333h-72l-141 -333h213z" />
    <glyph glyph-name="Ccedilla" unicode="&#xc7;" horiz-adv-x="743" 
d="M301 -192v72h76q11 0 18 6t7 16t-7 16t-18 6h-29v61q-93 7 -163.5 54.5t-109.5 127.5t-39 184q0 111 41.5 193.5t119.5 127t185 44.5q97 0 168 -37.5t110.5 -101.5t46.5 -144h-117q-4 52 -29 94.5t-70.5 68t-108.5 25.5q-106 0 -166.5 -71t-60.5 -199q0 -84 29.5 -145.5
t81 -94t116.5 -32.5q61 0 106 26t70.5 66.5t31.5 84.5h117q-9 -70 -45.5 -129.5t-99.5 -97.5t-148 -44v-22q37 -3 57 -22t20 -51q0 -36 -24.5 -59t-69.5 -23h-96z" />
    <glyph glyph-name="Egrave" unicode="&#xc8;" horiz-adv-x="581" 
d="M70 700h489v-93h-375v-209h336v-93h-336v-212h376v-93h-490v700zM167 915h121l80 -152h-96z" />
    <glyph glyph-name="Eacute" unicode="&#xc9;" horiz-adv-x="581" 
d="M70 700h489v-93h-375v-209h336v-93h-336v-212h376v-93h-490v700zM349 915h121l-100 -152h-101z" />
    <glyph glyph-name="Ecircumflex" unicode="&#xca;" horiz-adv-x="581" 
d="M70 700h489v-93h-375v-209h336v-93h-336v-212h376v-93h-490v700zM281 915h78l106 -152h-93l-51 65h-2l-51 -65h-93z" />
    <glyph glyph-name="Edieresis" unicode="&#xcb;" horiz-adv-x="581" 
d="M70 700h489v-93h-375v-209h336v-93h-336v-212h376v-93h-490v700zM185 902h108v-107h-108v107zM347 902h108v-107h-108v107z" />
    <glyph glyph-name="Igrave" unicode="&#xcc;" horiz-adv-x="253" 
d="M70 700h113v-700h-113v700zM-26 915h121l80 -152h-96z" />
    <glyph glyph-name="Iacute" unicode="&#xcd;" horiz-adv-x="253" 
d="M70 700h113v-700h-113v700zM156 915h121l-100 -152h-101z" />
    <glyph glyph-name="Icircumflex" unicode="&#xce;" horiz-adv-x="253" 
d="M70 700h113v-700h-113v700zM88 915h78l106 -152h-93l-51 65h-2l-51 -65h-93z" />
    <glyph glyph-name="Idieresis" unicode="&#xcf;" horiz-adv-x="253" 
d="M70 700h113v-700h-113v700zM-8 902h108v-107h-108v107zM154 902h108v-107h-108v107z" />
    <glyph glyph-name="Eth" unicode="&#xd0;" horiz-adv-x="714" 
d="M183 301v-206h147q104 0 166.5 66t62.5 189q0 124 -62.5 189.5t-166.5 65.5h-147v-209h131v-95h-131zM10 396h60v304h266q99 0 176.5 -41.5t121.5 -120.5t44 -188t-44 -188t-121.5 -120.5t-176.5 -41.5h-266v301h-60v95z" />
    <glyph glyph-name="Ntilde" unicode="&#xd1;" horiz-adv-x="736" 
d="M183 543h-2l1 -120v-423h-112v700h145l339 -541h2l-1 120v421h111v-700h-142zM397.5 772q-21.5 12 -47.5 35q-17 16 -29.5 23.5t-25.5 7.5q-18 0 -30 -16t-12 -46v-6h-77v16q0 62 32.5 98t81.5 36q31 0 52.5 -12t47.5 -35q17 -16 29.5 -23.5t25.5 -7.5q18 0 30 16t12 46
v6h77v-16q0 -62 -32.5 -98t-81.5 -36q-31 0 -52.5 12z" />
    <glyph glyph-name="Ograve" unicode="&#xd2;" 
d="M206.5 27q-78.5 43 -124.5 126t-46 197t46 197t124.5 126t173.5 43t173.5 -43t124.5 -126t46 -197t-46 -197t-124.5 -126t-173.5 -43t-173.5 43zM184.5 200q29.5 -61 80 -91t115.5 -30t116 30t80 91t29 150t-29 150t-80 91t-116 30t-115.5 -30t-80 -91t-29.5 -150
t29.5 -150zM227 915h121l80 -152h-96z" />
    <glyph glyph-name="Oacute" unicode="&#xd3;" 
d="M206.5 27q-78.5 43 -124.5 126t-46 197t46 197t124.5 126t173.5 43t173.5 -43t124.5 -126t46 -197t-46 -197t-124.5 -126t-173.5 -43t-173.5 43zM184.5 200q29.5 -61 80 -91t115.5 -30t116 30t80 91t29 150t-29 150t-80 91t-116 30t-115.5 -30t-80 -91t-29.5 -150
t29.5 -150zM409 915h121l-100 -152h-101z" />
    <glyph glyph-name="Ocircumflex" unicode="&#xd4;" 
d="M206.5 27q-78.5 43 -124.5 126t-46 197t46 197t124.5 126t173.5 43t173.5 -43t124.5 -126t46 -197t-46 -197t-124.5 -126t-173.5 -43t-173.5 43zM184.5 200q29.5 -61 80 -91t115.5 -30t116 30t80 91t29 150t-29 150t-80 91t-116 30t-115.5 -30t-80 -91t-29.5 -150
t29.5 -150zM341 915h78l106 -152h-93l-51 65h-2l-51 -65h-93z" />
    <glyph glyph-name="Otilde" unicode="&#xd5;" 
d="M206.5 27q-78.5 43 -124.5 126t-46 197t46 197t124.5 126t173.5 43t173.5 -43t124.5 -126t46 -197t-46 -197t-124.5 -126t-173.5 -43t-173.5 43zM184.5 200q29.5 -61 80 -91t115.5 -30t116 30t80 91t29 150t-29 150t-80 91t-116 30t-115.5 -30t-80 -91t-29.5 -150
t29.5 -150zM407.5 772q-21.5 12 -47.5 35q-17 16 -29.5 23.5t-25.5 7.5q-18 0 -30 -16t-12 -46v-6h-77v16q0 62 32.5 98t81.5 36q31 0 52.5 -12t47.5 -35q17 -16 29.5 -23.5t25.5 -7.5q18 0 30 16t12 46v6h77v-16q0 -62 -32.5 -98t-81.5 -36q-31 0 -52.5 12z" />
    <glyph glyph-name="Odieresis" unicode="&#xd6;" 
d="M206.5 27q-78.5 43 -124.5 126t-46 197t46 197t124.5 126t173.5 43t173.5 -43t124.5 -126t46 -197t-46 -197t-124.5 -126t-173.5 -43t-173.5 43zM184.5 200q29.5 -61 80 -91t115.5 -30t116 30t80 91t29 150t-29 150t-80 91t-116 30t-115.5 -30t-80 -91t-29.5 -150
t29.5 -150zM245 902h108v-107h-108v107zM407 902h108v-107h-108v107z" />
    <glyph glyph-name="multiply" unicode="&#xd7;" horiz-adv-x="578" 
d="M76 135l149 149l-149 149l64 64l149 -149l149 149l64 -64l-149 -149l149 -149l-64 -64l-149 149l-149 -149z" />
    <glyph glyph-name="Oslash" unicode="&#xd8;" horiz-adv-x="763" 
d="M640 605q41 -47 63.5 -111.5t22.5 -143.5q0 -114 -46 -197t-124.5 -126t-173.5 -43q-58 0 -111 16.5t-96 47.5l-40 -48h-99v2l83 99q-81 97 -81 249q0 114 46 197t124.5 126t173.5 43q114 0 200 -59l36 43h100v-2zM192 189l324 389q-55 43 -134 43q-65 0 -115.5 -30
t-80 -91t-29.5 -150q0 -94 35 -161zM382 79q65 0 116 30t80 91t29 150q0 102 -39 168l-327 -391q59 -48 141 -48z" />
    <glyph glyph-name="Ugrave" unicode="&#xd9;" horiz-adv-x="700" 
d="M206.5 17q-63.5 33 -100 96.5t-36.5 151.5v435h113v-431q0 -91 46.5 -140.5t120.5 -49.5t121 49.5t47 140.5v431h112v-435q0 -88 -36.5 -151.5t-100 -96.5t-143.5 -33t-143.5 33zM197 915h121l80 -152h-96z" />
    <glyph glyph-name="Uacute" unicode="&#xda;" horiz-adv-x="700" 
d="M206.5 17q-63.5 33 -100 96.5t-36.5 151.5v435h113v-431q0 -91 46.5 -140.5t120.5 -49.5t121 49.5t47 140.5v431h112v-435q0 -88 -36.5 -151.5t-100 -96.5t-143.5 -33t-143.5 33zM380 915h121l-100 -152h-101z" />
    <glyph glyph-name="Ucircumflex" unicode="&#xdb;" horiz-adv-x="700" 
d="M206.5 17q-63.5 33 -100 96.5t-36.5 151.5v435h113v-431q0 -91 46.5 -140.5t120.5 -49.5t121 49.5t47 140.5v431h112v-435q0 -88 -36.5 -151.5t-100 -96.5t-143.5 -33t-143.5 33zM311 915h78l106 -152h-93l-51 65h-2l-51 -65h-93z" />
    <glyph glyph-name="Udieresis" unicode="&#xdc;" horiz-adv-x="700" 
d="M206.5 17q-63.5 33 -100 96.5t-36.5 151.5v435h113v-431q0 -91 46.5 -140.5t120.5 -49.5t121 49.5t47 140.5v431h112v-435q0 -88 -36.5 -151.5t-100 -96.5t-143.5 -33t-143.5 33zM215 902h108v-107h-108v107zM377 902h108v-107h-108v107z" />
    <glyph glyph-name="Yacute" unicode="&#xdd;" horiz-adv-x="619" 
d="M253 278l-243 422h128l170 -319h2l171 319h128l-244 -422v-278h-112v278zM339 915h121l-100 -152h-101z" />
    <glyph glyph-name="Thorn" unicode="&#xde;" horiz-adv-x="614" 
d="M70 700h113v-144h166q104 0 166.5 -55.5t62.5 -152.5q0 -96 -62.5 -150t-166.5 -54h-166v-144h-113v700zM330 239q63 0 97 29t34 80q0 52 -34.5 82.5t-96.5 30.5h-147v-222h147z" />
    <glyph glyph-name="germandbls" unicode="&#xdf;" horiz-adv-x="585" 
d="M509 321.5q42 -48.5 42 -116.5q0 -57 -28 -103.5t-83.5 -74t-132.5 -27.5h-52v93h45q63 0 100 31t37 84t-37 84.5t-100 31.5h-35v92h40q44 0 73 28.5t29 73.5q0 46 -31 74.5t-81 28.5q-53 0 -85 -33t-32 -88v-500h-108v498q0 99 59 157.5t167 58.5q72 0 122.5 -24
t76.5 -64t26 -90q0 -57 -34 -98t-98 -50v-2q78 -16 120 -64.5z" />
    <glyph glyph-name="agrave" unicode="&#xe0;" horiz-adv-x="595" 
d="M340 15q-50 -31 -116 -31q-83 0 -136 46t-53 129q0 88 59.5 130.5t149.5 42.5h88q81 0 81 63q0 40 -32 61t-82 21q-58 0 -93 -27.5t-39 -77.5h-111q6 91 66.5 142.5t175.5 51.5q114 0 168.5 -51t54.5 -138v-250q0 -19 8.5 -27.5t27.5 -8.5h23v-91h-72q-43 0 -66.5 22
t-23.5 60v26h-2q-26 -62 -76 -93zM174.5 98.5q25.5 -24.5 77.5 -24.5q68 0 114.5 44.5t46.5 130.5v57h-2q-14 -29 -40.5 -42.5t-72.5 -14.5l-43 -1q-54 -1 -80 -25t-26 -62t25.5 -62.5zM145 765h121l80 -152h-96z" />
    <glyph glyph-name="aacute" unicode="&#xe1;" horiz-adv-x="595" 
d="M340 15q-50 -31 -116 -31q-83 0 -136 46t-53 129q0 88 59.5 130.5t149.5 42.5h88q81 0 81 63q0 40 -32 61t-82 21q-58 0 -93 -27.5t-39 -77.5h-111q6 91 66.5 142.5t175.5 51.5q114 0 168.5 -51t54.5 -138v-250q0 -19 8.5 -27.5t27.5 -8.5h23v-91h-72q-43 0 -66.5 22
t-23.5 60v26h-2q-26 -62 -76 -93zM174.5 98.5q25.5 -24.5 77.5 -24.5q68 0 114.5 44.5t46.5 130.5v57h-2q-14 -29 -40.5 -42.5t-72.5 -14.5l-43 -1q-54 -1 -80 -25t-26 -62t25.5 -62.5zM328 765h121l-100 -152h-101z" />
    <glyph glyph-name="acircumflex" unicode="&#xe2;" horiz-adv-x="595" 
d="M340 15q-50 -31 -116 -31q-83 0 -136 46t-53 129q0 88 59.5 130.5t149.5 42.5h88q81 0 81 63q0 40 -32 61t-82 21q-58 0 -93 -27.5t-39 -77.5h-111q6 91 66.5 142.5t175.5 51.5q114 0 168.5 -51t54.5 -138v-250q0 -19 8.5 -27.5t27.5 -8.5h23v-91h-72q-43 0 -66.5 22
t-23.5 60v26h-2q-26 -62 -76 -93zM174.5 98.5q25.5 -24.5 77.5 -24.5q68 0 114.5 44.5t46.5 130.5v57h-2q-14 -29 -40.5 -42.5t-72.5 -14.5l-43 -1q-54 -1 -80 -25t-26 -62t25.5 -62.5zM259 765h78l106 -152h-93l-51 65h-2l-51 -65h-93z" />
    <glyph glyph-name="atilde" unicode="&#xe3;" horiz-adv-x="595" 
d="M340 15q-50 -31 -116 -31q-83 0 -136 46t-53 129q0 88 59.5 130.5t149.5 42.5h88q81 0 81 63q0 40 -32 61t-82 21q-58 0 -93 -27.5t-39 -77.5h-111q6 91 66.5 142.5t175.5 51.5q114 0 168.5 -51t54.5 -138v-250q0 -19 8.5 -27.5t27.5 -8.5h23v-91h-72q-43 0 -66.5 22
t-23.5 60v26h-2q-26 -62 -76 -93zM174.5 98.5q25.5 -24.5 77.5 -24.5q68 0 114.5 44.5t46.5 130.5v57h-2q-14 -29 -40.5 -42.5t-72.5 -14.5l-43 -1q-54 -1 -80 -25t-26 -62t25.5 -62.5zM325.5 622q-21.5 12 -47.5 35q-17 16 -29.5 23.5t-25.5 7.5q-18 0 -30 -16t-12 -46v-6
h-77v16q0 62 32.5 98t81.5 36q31 0 52.5 -12t47.5 -35q17 -16 29.5 -23.5t25.5 -7.5q18 0 30 16t12 46v6h77v-16q0 -62 -32.5 -98t-81.5 -36q-31 0 -52.5 12z" />
    <glyph glyph-name="adieresis" unicode="&#xe4;" horiz-adv-x="595" 
d="M340 15q-50 -31 -116 -31q-83 0 -136 46t-53 129q0 88 59.5 130.5t149.5 42.5h88q81 0 81 63q0 40 -32 61t-82 21q-58 0 -93 -27.5t-39 -77.5h-111q6 91 66.5 142.5t175.5 51.5q114 0 168.5 -51t54.5 -138v-250q0 -19 8.5 -27.5t27.5 -8.5h23v-91h-72q-43 0 -66.5 22
t-23.5 60v26h-2q-26 -62 -76 -93zM174.5 98.5q25.5 -24.5 77.5 -24.5q68 0 114.5 44.5t46.5 130.5v57h-2q-14 -29 -40.5 -42.5t-72.5 -14.5l-43 -1q-54 -1 -80 -25t-26 -62t25.5 -62.5zM163 752h108v-107h-108v107zM325 752h108v-107h-108v107z" />
    <glyph glyph-name="aring" unicode="&#xe5;" horiz-adv-x="595" 
d="M340 15q-50 -31 -116 -31q-83 0 -136 46t-53 129q0 88 59.5 130.5t149.5 42.5h88q81 0 81 63q0 40 -32 61t-82 21q-58 0 -93 -27.5t-39 -77.5h-111q6 91 66.5 142.5t175.5 51.5q114 0 168.5 -51t54.5 -138v-250q0 -19 8.5 -27.5t27.5 -8.5h23v-91h-72q-43 0 -66.5 22
t-23.5 60v26h-2q-26 -62 -76 -93zM174.5 98.5q25.5 -24.5 77.5 -24.5q68 0 114.5 44.5t46.5 130.5v57h-2q-14 -29 -40.5 -42.5t-72.5 -14.5l-43 -1q-54 -1 -80 -25t-26 -62t25.5 -62.5zM232.5 630.5q-26.5 26.5 -26.5 64.5t26.5 65t65.5 27q38 0 65 -27t27 -65t-27 -64.5
t-65 -26.5q-39 0 -65.5 26.5zM276 672q9 -9 22 -9t22 9t9 23t-9 23t-22 9t-22 -9t-9 -23t9 -23z" />
    <glyph glyph-name="ae" unicode="&#xe6;" horiz-adv-x="963" 
d="M136 3q-45 19 -73 59t-28 99q0 87 58 129t147 42h96q39 0 60 16.5t21 46.5q0 39 -32 60.5t-82 21.5q-58 0 -96 -28t-42 -77h-113q6 89 70 141.5t170 52.5q74 0 122 -28t68 -81h2q29 54 81.5 81.5t119.5 27.5q73 0 129.5 -31.5t88.5 -91.5t32 -143v-58h-410
q4 -75 45.5 -122t110.5 -47q51 0 85 25.5t50 70.5h114q-18 -82 -86 -133.5t-161 -51.5q-76 0 -139 37t-91 111h-2q-27 -70 -84.5 -109t-133.5 -39q-52 0 -97 19zM178 99q29 -25 80 -25q43 0 79 19.5t58 59t22 96.5v56h-2q-14 -28 -40.5 -41.5t-72.5 -14.5l-51 -1
q-50 -1 -76 -24.5t-26 -60.5q0 -39 29 -64zM824 326q-1 68 -38 109.5t-103 41.5q-67 0 -108 -42t-49 -109h298z" />
    <glyph glyph-name="ccedilla" unicode="&#xe7;" horiz-adv-x="588" 
d="M222 -192v72h76q11 0 18 6t7 16t-7 16t-18 6h-29v62q-73 7 -127.5 45t-84 100.5t-29.5 143.5q0 88 33 154t95.5 101.5t147.5 35.5q76 0 131.5 -29.5t87 -81t37.5 -115.5h-112q-4 59 -41.5 98t-102.5 39q-76 0 -119 -56t-43 -146q0 -61 20.5 -107t57.5 -70.5t84 -24.5
q62 0 99.5 38.5t44.5 87.5h112q-11 -84 -70 -144.5t-155 -69.5v-22q37 -3 57 -22t20 -51q0 -36 -24.5 -59t-69.5 -23h-96z" />
    <glyph glyph-name="egrave" unicode="&#xe8;" horiz-adv-x="587" 
d="M157 19.5q-61 35.5 -95 101.5t-34 154q0 89 34 154.5t95.5 101t140.5 35.5q76 0 135.5 -31.5t93.5 -91.5t34 -143v-58h-418q4 -75 46 -122t111 -47q51 0 88.5 25.5t52.5 70.5h114q-18 -83 -87.5 -134t-168.5 -51q-81 0 -142 35.5zM450 326q0 68 -40 109.5t-109 41.5
q-70 0 -109.5 -41.5t-47.5 -109.5h306zM141 765h121l80 -152h-96z" />
    <glyph glyph-name="eacute" unicode="&#xe9;" horiz-adv-x="587" 
d="M157 19.5q-61 35.5 -95 101.5t-34 154q0 89 34 154.5t95.5 101t140.5 35.5q76 0 135.5 -31.5t93.5 -91.5t34 -143v-58h-418q4 -75 46 -122t111 -47q51 0 88.5 25.5t52.5 70.5h114q-18 -83 -87.5 -134t-168.5 -51q-81 0 -142 35.5zM450 326q0 68 -40 109.5t-109 41.5
q-70 0 -109.5 -41.5t-47.5 -109.5h306zM323 765h121l-100 -152h-101z" />
    <glyph glyph-name="ecircumflex" unicode="&#xea;" horiz-adv-x="587" 
d="M157 19.5q-61 35.5 -95 101.5t-34 154q0 89 34 154.5t95.5 101t140.5 35.5q76 0 135.5 -31.5t93.5 -91.5t34 -143v-58h-418q4 -75 46 -122t111 -47q51 0 88.5 25.5t52.5 70.5h114q-18 -83 -87.5 -134t-168.5 -51q-81 0 -142 35.5zM450 326q0 68 -40 109.5t-109 41.5
q-70 0 -109.5 -41.5t-47.5 -109.5h306zM255 765h78l106 -152h-93l-51 65h-2l-51 -65h-93z" />
    <glyph glyph-name="edieresis" unicode="&#xeb;" horiz-adv-x="587" 
d="M157 19.5q-61 35.5 -95 101.5t-34 154q0 89 34 154.5t95.5 101t140.5 35.5q76 0 135.5 -31.5t93.5 -91.5t34 -143v-58h-418q4 -75 46 -122t111 -47q51 0 88.5 25.5t52.5 70.5h114q-18 -83 -87.5 -134t-168.5 -51q-81 0 -142 35.5zM450 326q0 68 -40 109.5t-109 41.5
q-70 0 -109.5 -41.5t-47.5 -109.5h306zM159 752h108v-107h-108v107zM321 752h108v-107h-108v107z" />
    <glyph glyph-name="igrave" unicode="&#xec;" horiz-adv-x="245" 
d="M68 550h108v-550h-108v550zM-31 765h121l80 -152h-96z" />
    <glyph glyph-name="iacute" unicode="&#xed;" horiz-adv-x="245" 
d="M68 550h108v-550h-108v550zM152 765h121l-100 -152h-101z" />
    <glyph glyph-name="icircumflex" unicode="&#xee;" horiz-adv-x="245" 
d="M68 550h108v-550h-108v550zM83 765h78l106 -152h-93l-51 65h-2l-51 -65h-93z" />
    <glyph glyph-name="idieresis" unicode="&#xef;" horiz-adv-x="245" 
d="M68 550h108v-550h-108v550zM-12 752h108v-107h-108v107zM150 752h108v-107h-108v107z" />
    <glyph glyph-name="eth" unicode="&#xf0;" horiz-adv-x="600" 
d="M162 19q-63 34 -98.5 99.5t-35.5 157.5q0 91 33 156t88.5 99t121.5 34q69 0 121 -36t72 -103h2q-14 123 -99 224l-137 -53v84l77 30q-51 45 -120 87v2h173q22 -16 53 -49l127 49v-84l-75 -29q50 -74 78.5 -166.5t28.5 -196.5q0 -164 -71 -251.5t-197 -87.5q-79 0 -142 34
zM187 125.5q45 -51.5 116 -51.5q68 0 111.5 52.5t43.5 150.5t-44 148.5t-114 50.5q-71 0 -114.5 -50t-43.5 -149q0 -100 45 -151.5z" />
    <glyph glyph-name="ntilde" unicode="&#xf1;" horiz-adv-x="604" 
d="M68 550h106v-94h2q26 52 71.5 81t104.5 29q87 0 136.5 -59.5t49.5 -169.5v-337h-108v326q0 77 -30.5 113t-83.5 36q-59 0 -99.5 -42t-40.5 -127v-306h-108v550zM329.5 622q-21.5 12 -47.5 35q-17 16 -29.5 23.5t-25.5 7.5q-18 0 -30 -16t-12 -46v-6h-77v16q0 62 32.5 98
t81.5 36q31 0 52.5 -12t47.5 -35q17 -16 29.5 -23.5t25.5 -7.5q18 0 30 16t12 46v6h77v-16q0 -62 -32.5 -98t-81.5 -36q-31 0 -52.5 12z" />
    <glyph glyph-name="ograve" unicode="&#xf2;" horiz-adv-x="608" 
d="M163.5 18.5q-62.5 34.5 -99 100t-36.5 156.5t36.5 156.5t99 100t140.5 34.5t140.5 -34.5t99 -100t36.5 -156.5t-36.5 -156.5t-99 -100t-140.5 -34.5t-140.5 34.5zM187 125.5q45 -52.5 117 -52.5t117 52.5t45 149.5t-45 149.5t-117 52.5t-117 -52.5t-45 -149.5t45 -149.5z
M151 765h121l80 -152h-96z" />
    <glyph glyph-name="oacute" unicode="&#xf3;" horiz-adv-x="608" 
d="M163.5 18.5q-62.5 34.5 -99 100t-36.5 156.5t36.5 156.5t99 100t140.5 34.5t140.5 -34.5t99 -100t36.5 -156.5t-36.5 -156.5t-99 -100t-140.5 -34.5t-140.5 34.5zM187 125.5q45 -52.5 117 -52.5t117 52.5t45 149.5t-45 149.5t-117 52.5t-117 -52.5t-45 -149.5t45 -149.5z
M333 765h121l-100 -152h-101z" />
    <glyph glyph-name="ocircumflex" unicode="&#xf4;" horiz-adv-x="608" 
d="M163.5 18.5q-62.5 34.5 -99 100t-36.5 156.5t36.5 156.5t99 100t140.5 34.5t140.5 -34.5t99 -100t36.5 -156.5t-36.5 -156.5t-99 -100t-140.5 -34.5t-140.5 34.5zM187 125.5q45 -52.5 117 -52.5t117 52.5t45 149.5t-45 149.5t-117 52.5t-117 -52.5t-45 -149.5t45 -149.5z
M265 765h78l106 -152h-93l-51 65h-2l-51 -65h-93z" />
    <glyph glyph-name="otilde" unicode="&#xf5;" horiz-adv-x="608" 
d="M163.5 18.5q-62.5 34.5 -99 100t-36.5 156.5t36.5 156.5t99 100t140.5 34.5t140.5 -34.5t99 -100t36.5 -156.5t-36.5 -156.5t-99 -100t-140.5 -34.5t-140.5 34.5zM187 125.5q45 -52.5 117 -52.5t117 52.5t45 149.5t-45 149.5t-117 52.5t-117 -52.5t-45 -149.5t45 -149.5z
M331.5 622q-21.5 12 -47.5 35q-17 16 -29.5 23.5t-25.5 7.5q-18 0 -30 -16t-12 -46v-6h-77v16q0 62 32.5 98t81.5 36q31 0 52.5 -12t47.5 -35q17 -16 29.5 -23.5t25.5 -7.5q18 0 30 16t12 46v6h77v-16q0 -62 -32.5 -98t-81.5 -36q-31 0 -52.5 12z" />
    <glyph glyph-name="odieresis" unicode="&#xf6;" horiz-adv-x="608" 
d="M163.5 18.5q-62.5 34.5 -99 100t-36.5 156.5t36.5 156.5t99 100t140.5 34.5t140.5 -34.5t99 -100t36.5 -156.5t-36.5 -156.5t-99 -100t-140.5 -34.5t-140.5 34.5zM187 125.5q45 -52.5 117 -52.5t117 52.5t45 149.5t-45 149.5t-117 52.5t-117 -52.5t-45 -149.5t45 -149.5z
M169 752h108v-107h-108v107zM331 752h108v-107h-108v107z" />
    <glyph glyph-name="divide" unicode="&#xf7;" horiz-adv-x="561" 
d="M52 328h458v-89h-458v89zM223 148h115v-112h-115v112zM223 531h115v-112h-115v112z" />
    <glyph glyph-name="oslash" unicode="&#xf8;" horiz-adv-x="609" 
d="M36 2l59 73q-66 79 -66 200q0 91 36.5 156.5t99 100t140.5 34.5q87 0 153 -42l21 26h93v-2l-58 -72q67 -78 67 -201q0 -91 -36.5 -156.5t-99 -100t-140.5 -34.5q-87 0 -155 42l-21 -26h-93v2zM165 162l232 286q-40 29 -92 29q-72 0 -117 -52.5t-45 -149.5q0 -66 22 -113z
M305 73q72 0 117 52.5t45 149.5q0 67 -23 115l-232 -287q39 -30 93 -30z" />
    <glyph glyph-name="ugrave" unicode="&#xf9;" horiz-adv-x="601" 
d="M113.5 43.5q-50.5 59.5 -50.5 169.5v337h108v-326q0 -149 114 -149q60 0 99.5 41.5t39.5 127.5v306h108v-550h-106v94h-2q-24 -54 -68.5 -82t-103.5 -28q-88 0 -138.5 59.5zM145 765h121l80 -152h-96z" />
    <glyph glyph-name="uacute" unicode="&#xfa;" horiz-adv-x="601" 
d="M113.5 43.5q-50.5 59.5 -50.5 169.5v337h108v-326q0 -149 114 -149q60 0 99.5 41.5t39.5 127.5v306h108v-550h-106v94h-2q-24 -54 -68.5 -82t-103.5 -28q-88 0 -138.5 59.5zM328 765h121l-100 -152h-101z" />
    <glyph glyph-name="ucircumflex" unicode="&#xfb;" horiz-adv-x="601" 
d="M113.5 43.5q-50.5 59.5 -50.5 169.5v337h108v-326q0 -149 114 -149q60 0 99.5 41.5t39.5 127.5v306h108v-550h-106v94h-2q-24 -54 -68.5 -82t-103.5 -28q-88 0 -138.5 59.5zM259 765h78l106 -152h-93l-51 65h-2l-51 -65h-93z" />
    <glyph glyph-name="udieresis" unicode="&#xfc;" horiz-adv-x="601" 
d="M113.5 43.5q-50.5 59.5 -50.5 169.5v337h108v-326q0 -149 114 -149q60 0 99.5 41.5t39.5 127.5v306h108v-550h-106v94h-2q-24 -54 -68.5 -82t-103.5 -28q-88 0 -138.5 59.5zM163 752h108v-107h-108v107zM325 752h108v-107h-108v107z" />
    <glyph glyph-name="yacute" unicode="&#xfd;" horiz-adv-x="550" 
d="M9 -109h151l59 139l-210 520h117l148 -390h2l148 390h116l-285 -708q-16 -42 -62 -42h-184v91zM304 765h121l-100 -152h-101z" />
    <glyph glyph-name="thorn" unicode="&#xfe;" horiz-adv-x="650" 
d="M68 781h108v-280q0 -37 -2 -58h2q25 58 77 90.5t118 32.5t123.5 -34t92.5 -99.5t35 -157.5t-35 -157.5t-92.5 -99.5t-123.5 -34t-118 32.5t-77 90.5h-2q2 -21 2 -60v-247h-108v981zM220.5 128.5q45.5 -55.5 120.5 -55.5q76 0 121.5 55.5t45.5 146.5t-45.5 146.5
t-121.5 55.5q-75 0 -120.5 -55.5t-45.5 -146.5t45.5 -146.5z" />
    <glyph glyph-name="ydieresis" unicode="&#xff;" horiz-adv-x="550" 
d="M9 -109h151l59 139l-210 520h117l148 -390h2l148 390h116l-285 -708q-16 -42 -62 -42h-184v91zM140 752h108v-107h-108v107zM302 752h108v-107h-108v107z" />
    <glyph glyph-name="Amacron" unicode="&#x100;" horiz-adv-x="671" 
d="M278 700h114l264 -700h-120l-61 175h-280l-62 -175h-118zM442 269l-41 116q-23 64 -53 155q-3 12 -6.5 22t-6.5 18h-1l-17 -51q-25 -77 -49 -146l-40 -114h214zM189 880h290v-90h-290v90z" />
    <glyph glyph-name="amacron" unicode="&#x101;" horiz-adv-x="595" 
d="M340 15q-50 -31 -116 -31q-83 0 -136 46t-53 129q0 88 59.5 130.5t149.5 42.5h88q81 0 81 63q0 40 -32 61t-82 21q-58 0 -93 -27.5t-39 -77.5h-111q6 91 66.5 142.5t175.5 51.5q114 0 168.5 -51t54.5 -138v-250q0 -19 8.5 -27.5t27.5 -8.5h23v-91h-72q-43 0 -66.5 22
t-23.5 60v26h-2q-26 -62 -76 -93zM174.5 98.5q25.5 -24.5 77.5 -24.5q68 0 114.5 44.5t46.5 130.5v57h-2q-14 -29 -40.5 -42.5t-72.5 -14.5l-43 -1q-54 -1 -80 -25t-26 -62t25.5 -62.5zM153 730h290v-90h-290v90z" />
    <glyph glyph-name="Abreve" unicode="&#x102;" horiz-adv-x="671" 
d="M278 700h114l264 -700h-120l-61 175h-280l-62 -175h-118zM442 269l-41 116q-23 64 -53 155q-3 12 -6.5 22t-6.5 18h-1l-17 -51q-25 -77 -49 -146l-40 -114h214zM235.5 804.5q-35.5 41.5 -35.5 110.5h85q0 -76 49 -76q50 0 50 76h85q0 -69 -35.5 -110.5t-99.5 -41.5
q-63 0 -98.5 41.5z" />
    <glyph glyph-name="abreve" unicode="&#x103;" horiz-adv-x="595" 
d="M340 15q-50 -31 -116 -31q-83 0 -136 46t-53 129q0 88 59.5 130.5t149.5 42.5h88q81 0 81 63q0 40 -32 61t-82 21q-58 0 -93 -27.5t-39 -77.5h-111q6 91 66.5 142.5t175.5 51.5q114 0 168.5 -51t54.5 -138v-250q0 -19 8.5 -27.5t27.5 -8.5h23v-91h-72q-43 0 -66.5 22
t-23.5 60v26h-2q-26 -62 -76 -93zM174.5 98.5q25.5 -24.5 77.5 -24.5q68 0 114.5 44.5t46.5 130.5v57h-2q-14 -29 -40.5 -42.5t-72.5 -14.5l-43 -1q-54 -1 -80 -25t-26 -62t25.5 -62.5zM199.5 654.5q-35.5 41.5 -35.5 110.5h85q0 -76 49 -76q50 0 50 76h85
q0 -69 -35.5 -110.5t-99.5 -41.5q-63 0 -98.5 41.5z" />
    <glyph glyph-name="Aogonek" unicode="&#x104;" horiz-adv-x="671" 
d="M278 700h114l264 -700h-2q-19 0 -33.5 -14.5t-14.5 -35.5q0 -26 20.5 -41.5t51.5 -15.5h11v-83h-20q-65 0 -100 27.5t-35 71.5q0 27 13.5 51t40.5 38v2h-52l-61 175h-280l-62 -175h-118zM442 269l-41 116q-23 64 -53 155q-3 12 -6.5 22t-6.5 18h-1l-17 -51
q-25 -77 -49 -146l-40 -114h214z" />
    <glyph glyph-name="aogonek" unicode="&#x105;" horiz-adv-x="595" 
d="M340 15q-50 -31 -116 -31q-83 0 -136 46t-53 129q0 88 59.5 130.5t149.5 42.5h88q81 0 81 63q0 40 -32 61t-82 21q-58 0 -93 -27.5t-39 -77.5h-111q6 91 66.5 142.5t175.5 51.5q114 0 168.5 -51t54.5 -138v-250q0 -19 8.5 -27.5t27.5 -8.5h23v-91h-6q-19 0 -33.5 -14.5
t-14.5 -35.5q0 -26 20.5 -41.5t51.5 -15.5h11v-83h-20q-65 0 -100 27.5t-35 71.5q0 27 13.5 51t40.5 38v2q-43 0 -66.5 22t-23.5 60v26h-2q-26 -62 -76 -93zM174.5 98.5q25.5 -24.5 77.5 -24.5q68 0 114.5 44.5t46.5 130.5v57h-2q-14 -29 -40.5 -42.5t-72.5 -14.5l-43 -1
q-54 -1 -80 -25t-26 -62t25.5 -62.5z" />
    <glyph glyph-name="Cacute" unicode="&#x106;" horiz-adv-x="743" 
d="M201.5 29.5q-78.5 45.5 -122 128.5t-43.5 193q0 111 41.5 193.5t119.5 127t185 44.5q97 0 168 -37.5t110.5 -101.5t46.5 -144h-117q-4 52 -29 94.5t-70.5 68t-108.5 25.5q-106 0 -166.5 -71t-60.5 -199q0 -84 29.5 -145.5t81 -94t116.5 -32.5q61 0 106 26t70.5 66.5
t31.5 84.5h117q-9 -75 -49.5 -136.5t-111 -98.5t-164.5 -37q-102 0 -180.5 45.5zM411 915h121l-100 -152h-101z" />
    <glyph glyph-name="cacute" unicode="&#x107;" horiz-adv-x="588" 
d="M159.5 20q-62.5 36 -97 102t-34.5 153q0 88 33 154t95.5 101.5t147.5 35.5q76 0 131.5 -29.5t87 -81t37.5 -115.5h-112q-4 59 -41.5 98t-102.5 39q-76 0 -119 -56t-43 -146q0 -61 20.5 -107t57.5 -70.5t84 -24.5q62 0 99.5 38.5t44.5 87.5h112q-8 -59 -40 -108t-87.5 -78
t-128.5 -29q-82 0 -144.5 36zM334 765h121l-100 -152h-101z" />
    <glyph glyph-name="Ccircumflex" unicode="&#x108;" horiz-adv-x="743" 
d="M201.5 29.5q-78.5 45.5 -122 128.5t-43.5 193q0 111 41.5 193.5t119.5 127t185 44.5q97 0 168 -37.5t110.5 -101.5t46.5 -144h-117q-4 52 -29 94.5t-70.5 68t-108.5 25.5q-106 0 -166.5 -71t-60.5 -199q0 -84 29.5 -145.5t81 -94t116.5 -32.5q61 0 106 26t70.5 66.5
t31.5 84.5h117q-9 -75 -49.5 -136.5t-111 -98.5t-164.5 -37q-102 0 -180.5 45.5zM343 915h78l106 -152h-93l-51 65h-2l-51 -65h-93z" />
    <glyph glyph-name="ccircumflex" unicode="&#x109;" horiz-adv-x="588" 
d="M159.5 20q-62.5 36 -97 102t-34.5 153q0 88 33 154t95.5 101.5t147.5 35.5q76 0 131.5 -29.5t87 -81t37.5 -115.5h-112q-4 59 -41.5 98t-102.5 39q-76 0 -119 -56t-43 -146q0 -61 20.5 -107t57.5 -70.5t84 -24.5q62 0 99.5 38.5t44.5 87.5h112q-8 -59 -40 -108t-87.5 -78
t-128.5 -29q-82 0 -144.5 36zM266 765h78l106 -152h-93l-51 65h-2l-51 -65h-93z" />
    <glyph glyph-name="Cdotaccent" unicode="&#x10a;" horiz-adv-x="743" 
d="M201.5 29.5q-78.5 45.5 -122 128.5t-43.5 193q0 111 41.5 193.5t119.5 127t185 44.5q97 0 168 -37.5t110.5 -101.5t46.5 -144h-117q-4 52 -29 94.5t-70.5 68t-108.5 25.5q-106 0 -166.5 -71t-60.5 -199q0 -84 29.5 -145.5t81 -94t116.5 -32.5q61 0 106 26t70.5 66.5
t31.5 84.5h117q-9 -75 -49.5 -136.5t-111 -98.5t-164.5 -37q-102 0 -180.5 45.5zM327 902h110v-107h-110v107z" />
    <glyph glyph-name="cdotaccent" unicode="&#x10b;" horiz-adv-x="588" 
d="M159.5 20q-62.5 36 -97 102t-34.5 153q0 88 33 154t95.5 101.5t147.5 35.5q76 0 131.5 -29.5t87 -81t37.5 -115.5h-112q-4 59 -41.5 98t-102.5 39q-76 0 -119 -56t-43 -146q0 -61 20.5 -107t57.5 -70.5t84 -24.5q62 0 99.5 38.5t44.5 87.5h112q-8 -59 -40 -108t-87.5 -78
t-128.5 -29q-82 0 -144.5 36zM250 752h110v-107h-110v107z" />
    <glyph glyph-name="Ccaron" unicode="&#x10c;" horiz-adv-x="743" 
d="M201.5 29.5q-78.5 45.5 -122 128.5t-43.5 193q0 111 41.5 193.5t119.5 127t185 44.5q97 0 168 -37.5t110.5 -101.5t46.5 -144h-117q-4 52 -29 94.5t-70.5 68t-108.5 25.5q-106 0 -166.5 -71t-60.5 -199q0 -84 29.5 -145.5t81 -94t116.5 -32.5q61 0 106 26t70.5 66.5
t31.5 84.5h117q-9 -75 -49.5 -136.5t-111 -98.5t-164.5 -37q-102 0 -180.5 45.5zM237 915h93l51 -61h2l51 61h93l-106 -152h-78z" />
    <glyph glyph-name="ccaron" unicode="&#x10d;" horiz-adv-x="588" 
d="M159.5 20q-62.5 36 -97 102t-34.5 153q0 88 33 154t95.5 101.5t147.5 35.5q76 0 131.5 -29.5t87 -81t37.5 -115.5h-112q-4 59 -41.5 98t-102.5 39q-76 0 -119 -56t-43 -146q0 -61 20.5 -107t57.5 -70.5t84 -24.5q62 0 99.5 38.5t44.5 87.5h112q-8 -59 -40 -108t-87.5 -78
t-128.5 -29q-82 0 -144.5 36zM160 765h93l51 -61h2l51 61h93l-106 -152h-78z" />
    <glyph glyph-name="Dcaron" unicode="&#x10e;" horiz-adv-x="714" 
d="M70 700h266q99 0 176.5 -41.5t121.5 -120.5t44 -188t-44 -188t-121.5 -120.5t-176.5 -41.5h-266v700zM330 95q104 0 166.5 66t62.5 189q0 124 -62.5 189.5t-166.5 65.5h-147v-510h147zM187 915h93l51 -61h2l51 61h93l-106 -152h-78z" />
    <glyph glyph-name="dcaron" unicode="&#x10f;" horiz-adv-x="772" 
d="M155.5 18q-57.5 34 -92.5 99.5t-35 157.5t35 157.5t92.5 99.5t123.5 34t118 -32.5t77 -90.5h2q-2 21 -2 58v280h108v-781h-107v47q0 39 1 60h-2q-25 -58 -77 -90.5t-118 -32.5t-123.5 34zM187.5 128.5q45.5 -55.5 121.5 -55.5q75 0 120.5 55.5t45.5 146.5t-45.5 146.5
t-120.5 55.5q-76 0 -121.5 -55.5t-45.5 -146.5t45.5 -146.5zM702 487.5q18 19.5 18 51.5v41h-64v120h114v-157q0 -58 -31.5 -92.5t-86.5 -34.5v52q32 0 50 19.5z" />
    <glyph glyph-name="Dcroat" unicode="&#x110;" horiz-adv-x="714" 
d="M183 301v-206h147q104 0 166.5 66t62.5 189q0 124 -62.5 189.5t-166.5 65.5h-147v-209h131v-95h-131zM10 396h60v304h266q99 0 176.5 -41.5t121.5 -120.5t44 -188t-44 -188t-121.5 -120.5t-176.5 -41.5h-266v301h-60v95z" />
    <glyph glyph-name="dcroat" unicode="&#x111;" horiz-adv-x="642" 
d="M349 706h125v75h108v-75h86v-90h-86v-616h-107v47q0 39 1 60h-2q-25 -58 -77 -90.5t-118 -32.5t-123.5 34t-92.5 99.5t-35 157.5t35 157.5t92.5 99.5t123.5 34t118 -32.5t77 -90.5h2q-2 21 -2 58v115h-125v90zM187.5 128.5q45.5 -55.5 121.5 -55.5q75 0 120.5 55.5
t45.5 146.5t-45.5 146.5t-120.5 55.5q-76 0 -121.5 -55.5t-45.5 -146.5t45.5 -146.5z" />
    <glyph glyph-name="Emacron" unicode="&#x112;" horiz-adv-x="581" 
d="M70 700h489v-93h-375v-209h336v-93h-336v-212h376v-93h-490v700zM175 880h290v-90h-290v90z" />
    <glyph glyph-name="emacron" unicode="&#x113;" horiz-adv-x="587" 
d="M157 19.5q-61 35.5 -95 101.5t-34 154q0 89 34 154.5t95.5 101t140.5 35.5q76 0 135.5 -31.5t93.5 -91.5t34 -143v-58h-418q4 -75 46 -122t111 -47q51 0 88.5 25.5t52.5 70.5h114q-18 -83 -87.5 -134t-168.5 -51q-81 0 -142 35.5zM450 326q0 68 -40 109.5t-109 41.5
q-70 0 -109.5 -41.5t-47.5 -109.5h306zM149 730h290v-90h-290v90z" />
    <glyph glyph-name="Ebreve" unicode="&#x114;" horiz-adv-x="581" 
d="M70 700h489v-93h-375v-209h336v-93h-336v-212h376v-93h-490v700zM221.5 804.5q-35.5 41.5 -35.5 110.5h85q0 -76 49 -76q50 0 50 76h85q0 -69 -35.5 -110.5t-99.5 -41.5q-63 0 -98.5 41.5z" />
    <glyph glyph-name="ebreve" unicode="&#x115;" horiz-adv-x="587" 
d="M157 19.5q-61 35.5 -95 101.5t-34 154q0 89 34 154.5t95.5 101t140.5 35.5q76 0 135.5 -31.5t93.5 -91.5t34 -143v-58h-418q4 -75 46 -122t111 -47q51 0 88.5 25.5t52.5 70.5h114q-18 -83 -87.5 -134t-168.5 -51q-81 0 -142 35.5zM450 326q0 68 -40 109.5t-109 41.5
q-70 0 -109.5 -41.5t-47.5 -109.5h306zM194.5 654.5q-35.5 41.5 -35.5 110.5h85q0 -76 49 -76q50 0 50 76h85q0 -69 -35.5 -110.5t-99.5 -41.5q-63 0 -98.5 41.5z" />
    <glyph glyph-name="Edotaccent" unicode="&#x116;" horiz-adv-x="581" 
d="M70 700h489v-93h-375v-209h336v-93h-336v-212h376v-93h-490v700zM265 902h110v-107h-110v107z" />
    <glyph glyph-name="edotaccent" unicode="&#x117;" horiz-adv-x="587" 
d="M157 19.5q-61 35.5 -95 101.5t-34 154q0 89 34 154.5t95.5 101t140.5 35.5q76 0 135.5 -31.5t93.5 -91.5t34 -143v-58h-418q4 -75 46 -122t111 -47q51 0 88.5 25.5t52.5 70.5h114q-18 -83 -87.5 -134t-168.5 -51q-81 0 -142 35.5zM450 326q0 68 -40 109.5t-109 41.5
q-70 0 -109.5 -41.5t-47.5 -109.5h306zM238 752h110v-107h-110v107z" />
    <glyph glyph-name="Eogonek" unicode="&#x118;" horiz-adv-x="581" 
d="M70 700h489v-93h-375v-209h336v-93h-336v-212h376v-93h-5q-19 0 -33.5 -14.5t-14.5 -35.5q0 -26 20.5 -41.5t51.5 -15.5h11v-83h-20q-65 0 -100 27.5t-35 71.5q0 27 13.5 51t40.5 38v2h-419v700z" />
    <glyph glyph-name="eogonek" unicode="&#x119;" horiz-adv-x="587" 
d="M407 -162.5q-37 27.5 -37 76.5q0 43 29 85v1q-48 -16 -100 -16q-81 0 -142 35.5t-95 101.5t-34 154q0 89 34 154.5t95.5 101t140.5 35.5q76 0 135.5 -31.5t93.5 -91.5t34 -143v-58h-418q4 -75 46 -122t111 -47q51 0 88.5 25.5t52.5 70.5h114q-18 -82 -86 -133
q-34 -34 -34 -77q0 -32 20.5 -49t53.5 -17h11v-83h-12q-64 0 -101 27.5zM450 326q0 68 -40 109.5t-109 41.5q-70 0 -109.5 -41.5t-47.5 -109.5h306z" />
    <glyph glyph-name="Ecaron" unicode="&#x11a;" horiz-adv-x="581" 
d="M70 700h489v-93h-375v-209h336v-93h-336v-212h376v-93h-490v700zM175 915h93l51 -61h2l51 61h93l-106 -152h-78z" />
    <glyph glyph-name="ecaron" unicode="&#x11b;" horiz-adv-x="587" 
d="M157 19.5q-61 35.5 -95 101.5t-34 154q0 89 34 154.5t95.5 101t140.5 35.5q76 0 135.5 -31.5t93.5 -91.5t34 -143v-58h-418q4 -75 46 -122t111 -47q51 0 88.5 25.5t52.5 70.5h114q-18 -83 -87.5 -134t-168.5 -51q-81 0 -142 35.5zM450 326q0 68 -40 109.5t-109 41.5
q-70 0 -109.5 -41.5t-47.5 -109.5h306zM149 765h93l51 -61h2l51 61h93l-106 -152h-78z" />
    <glyph glyph-name="Gcircumflex" unicode="&#x11c;" 
d="M196 29.5q-75 45.5 -117.5 128.5t-42.5 193q0 108 41.5 190.5t119 128.5t183.5 46q96 0 168 -38t111 -102.5t43 -143.5h-116q-2 53 -27.5 96t-72 68t-106.5 25q-69 0 -119.5 -33t-78 -94t-27.5 -143q0 -84 29.5 -145.5t81 -94t116.5 -32.5q60 0 106 26t73 66t34 83h-225
v93h279q26 0 40.5 -14t14.5 -39v-294h-104l19 138h-2q-33 -75 -96.5 -114.5t-153.5 -39.5q-96 0 -171 45.5zM338 915h78l106 -152h-93l-51 65h-2l-51 -65h-93z" />
    <glyph glyph-name="gcircumflex" unicode="&#x11d;" horiz-adv-x="567" 
d="M69 -166q-43 34 -43 90q0 42 24 72t70 42v2q-31 11 -49.5 35t-18.5 56q0 37 23.5 60.5t59.5 27.5l13 1v2q-48 20 -75.5 60.5t-27.5 95.5q0 58 29.5 100.5t80 65t111.5 22.5q60 0 109 -21.5t78 -61.5h3q2 32 20 49.5t49 17.5h23v-91h-38q-15 0 -22 -6t-9 -20q8 -27 8 -55
q0 -57 -29 -100t-79 -66t-111 -23h-68q-53 0 -53 -38q0 -19 13.5 -29t39.5 -10h176q83 0 130.5 -41.5t47.5 -113.5q0 -73 -47.5 -115t-130.5 -42h-183q-81 0 -124 34zM141 -99q21 -19 62 -19h162q38 0 60 18.5t22 52.5q0 33 -22 51.5t-60 18.5h-162q-40 0 -61.5 -19.5
t-21.5 -51.5t21 -51zM183 298q33 -26 83 -26t83.5 26t33.5 77q0 50 -33.5 76t-83.5 26t-83 -26t-33 -76q0 -51 33 -77zM227 765h78l106 -152h-93l-51 65h-2l-51 -65h-93z" />
    <glyph glyph-name="Gbreve" unicode="&#x11e;" 
d="M196 29.5q-75 45.5 -117.5 128.5t-42.5 193q0 108 41.5 190.5t119 128.5t183.5 46q96 0 168 -38t111 -102.5t43 -143.5h-116q-2 53 -27.5 96t-72 68t-106.5 25q-69 0 -119.5 -33t-78 -94t-27.5 -143q0 -84 29.5 -145.5t81 -94t116.5 -32.5q60 0 106 26t73 66t34 83h-225
v93h279q26 0 40.5 -14t14.5 -39v-294h-104l19 138h-2q-33 -75 -96.5 -114.5t-153.5 -39.5q-96 0 -171 45.5zM277.5 804.5q-35.5 41.5 -35.5 110.5h85q0 -76 49 -76q50 0 50 76h85q0 -69 -35.5 -110.5t-99.5 -41.5q-63 0 -98.5 41.5z" />
    <glyph glyph-name="gbreve" unicode="&#x11f;" horiz-adv-x="567" 
d="M69 -166q-43 34 -43 90q0 42 24 72t70 42v2q-31 11 -49.5 35t-18.5 56q0 37 23.5 60.5t59.5 27.5l13 1v2q-48 20 -75.5 60.5t-27.5 95.5q0 58 29.5 100.5t80 65t111.5 22.5q60 0 109 -21.5t78 -61.5h3q2 32 20 49.5t49 17.5h23v-91h-38q-15 0 -22 -6t-9 -20q8 -27 8 -55
q0 -57 -29 -100t-79 -66t-111 -23h-68q-53 0 -53 -38q0 -19 13.5 -29t39.5 -10h176q83 0 130.5 -41.5t47.5 -113.5q0 -73 -47.5 -115t-130.5 -42h-183q-81 0 -124 34zM141 -99q21 -19 62 -19h162q38 0 60 18.5t22 52.5q0 33 -22 51.5t-60 18.5h-162q-40 0 -61.5 -19.5
t-21.5 -51.5t21 -51zM183 298q33 -26 83 -26t83.5 26t33.5 77q0 50 -33.5 76t-83.5 26t-83 -26t-33 -76q0 -51 33 -77zM167.5 654.5q-35.5 41.5 -35.5 110.5h85q0 -76 49 -76q50 0 50 76h85q0 -69 -35.5 -110.5t-99.5 -41.5q-63 0 -98.5 41.5z" />
    <glyph glyph-name="Gdotaccent" unicode="&#x120;" 
d="M196 29.5q-75 45.5 -117.5 128.5t-42.5 193q0 108 41.5 190.5t119 128.5t183.5 46q96 0 168 -38t111 -102.5t43 -143.5h-116q-2 53 -27.5 96t-72 68t-106.5 25q-69 0 -119.5 -33t-78 -94t-27.5 -143q0 -84 29.5 -145.5t81 -94t116.5 -32.5q60 0 106 26t73 66t34 83h-225
v93h279q26 0 40.5 -14t14.5 -39v-294h-104l19 138h-2q-33 -75 -96.5 -114.5t-153.5 -39.5q-96 0 -171 45.5zM321 902h110v-107h-110v107z" />
    <glyph glyph-name="gdotaccent" unicode="&#x121;" horiz-adv-x="567" 
d="M69 -166q-43 34 -43 90q0 42 24 72t70 42v2q-31 11 -49.5 35t-18.5 56q0 37 23.5 60.5t59.5 27.5l13 1v2q-48 20 -75.5 60.5t-27.5 95.5q0 58 29.5 100.5t80 65t111.5 22.5q60 0 109 -21.5t78 -61.5h3q2 32 20 49.5t49 17.5h23v-91h-38q-15 0 -22 -6t-9 -20q8 -27 8 -55
q0 -57 -29 -100t-79 -66t-111 -23h-68q-53 0 -53 -38q0 -19 13.5 -29t39.5 -10h176q83 0 130.5 -41.5t47.5 -113.5q0 -73 -47.5 -115t-130.5 -42h-183q-81 0 -124 34zM141 -99q21 -19 62 -19h162q38 0 60 18.5t22 52.5q0 33 -22 51.5t-60 18.5h-162q-40 0 -61.5 -19.5
t-21.5 -51.5t21 -51zM183 298q33 -26 83 -26t83.5 26t33.5 77q0 50 -33.5 76t-83.5 26t-83 -26t-33 -76q0 -51 33 -77zM211 752h110v-107h-110v107z" />
    <glyph glyph-name="uni0122" unicode="&#x122;" 
d="M196 29.5q-75 45.5 -117.5 128.5t-42.5 193q0 108 41.5 190.5t119 128.5t183.5 46q96 0 168 -38t111 -102.5t43 -143.5h-116q-2 53 -27.5 96t-72 68t-106.5 25q-69 0 -119.5 -33t-78 -94t-27.5 -143q0 -84 29.5 -145.5t81 -94t116.5 -32.5q60 0 106 26t73 66t34 83h-225
v93h279q26 0 40.5 -14t14.5 -39v-294h-104l19 138h-2q-33 -75 -96.5 -114.5t-153.5 -39.5q-96 0 -171 45.5zM364 -182.5q14 10.5 14 28.5v7h-51v94h101v-100q0 -42 -28 -66t-73 -24v50q23 0 37 10.5z" />
    <glyph glyph-name="uni0123" unicode="&#x123;" horiz-adv-x="567" 
d="M69 -166q-43 34 -43 90q0 42 24 72t70 42v2q-31 11 -49.5 35t-18.5 56q0 37 23.5 60.5t59.5 27.5l13 1v2q-48 20 -75.5 60.5t-27.5 95.5q0 58 29.5 100.5t80 65t111.5 22.5q60 0 109 -21.5t78 -61.5h3q2 32 20 49.5t49 17.5h23v-91h-38q-15 0 -22 -6t-9 -20q8 -27 8 -55
q0 -57 -29 -100t-79 -66t-111 -23h-68q-53 0 -53 -38q0 -19 13.5 -29t39.5 -10h176q83 0 130.5 -41.5t47.5 -113.5q0 -73 -47.5 -115t-130.5 -42h-183q-81 0 -124 34zM141 -99q21 -19 62 -19h162q38 0 60 18.5t22 52.5q0 33 -22 51.5t-60 18.5h-162q-40 0 -61.5 -19.5
t-21.5 -51.5t21 -51zM183 298q33 -26 83 -26t83.5 26t33.5 77q0 50 -33.5 76t-83.5 26t-83 -26t-33 -76q0 -51 33 -77zM280.5 742.5q-13.5 -10.5 -13.5 -28.5v-6h50v-95h-101v100q0 42 28 66.5t73 24.5v-51q-23 0 -36.5 -10.5z" />
    <glyph glyph-name="Hcircumflex" unicode="&#x124;" horiz-adv-x="693" 
d="M70 700h113v-301h327v301h113v-700h-113v304h-327v-304h-113v700zM308 915h78l106 -152h-93l-51 65h-2l-51 -65h-93z" />
    <glyph glyph-name="hcircumflex" unicode="&#x125;" horiz-adv-x="604" 
d="M68 781h108v-235q0 -44 -2 -89h2q22 49 66 79t105 30q87 0 139 -58t52 -157v-351h-108v326q0 149 -114 149q-60 0 -100 -41.5t-40 -127.5v-306h-108v781zM83 996h78l106 -152h-93l-51 65h-2l-51 -65h-93z" />
    <glyph glyph-name="Hbar" unicode="&#x126;" horiz-adv-x="680" 
d="M1 594h72v106h113v-106h327v106h113v-106h53v-89h-53v-505h-113v304h-327v-304h-113v505h-72v89zM513 399v106h-327v-106h327z" />
    <glyph glyph-name="hbar" unicode="&#x127;" horiz-adv-x="604" 
d="M68 615h-93v90h93v76h108v-76h117v-90h-117v-69q0 -44 -2 -89h2q22 49 66 79t105 30q87 0 139 -58t52 -157v-351h-108v326q0 149 -114 149q-60 0 -100 -41.5t-40 -127.5v-306h-108v615z" />
    <glyph glyph-name="Itilde" unicode="&#x128;" horiz-adv-x="253" 
d="M70 700h113v-700h-113v700zM154.5 772q-21.5 12 -47.5 35q-17 16 -29.5 23.5t-25.5 7.5q-18 0 -30 -16t-12 -46v-6h-77v16q0 62 32.5 98t81.5 36q31 0 52.5 -12t47.5 -35q17 -16 29.5 -23.5t25.5 -7.5q18 0 30 16t12 46v6h77v-16q0 -62 -32.5 -98t-81.5 -36
q-31 0 -52.5 12z" />
    <glyph glyph-name="itilde" unicode="&#x129;" horiz-adv-x="245" 
d="M68 550h108v-550h-108v550zM149.5 622q-21.5 12 -47.5 35q-17 16 -29.5 23.5t-25.5 7.5q-18 0 -30 -16t-12 -46v-6h-77v16q0 62 32.5 98t81.5 36q31 0 52.5 -12t47.5 -35q17 -16 29.5 -23.5t25.5 -7.5q18 0 30 16t12 46v6h77v-16q0 -62 -32.5 -98t-81.5 -36
q-31 0 -52.5 12z" />
    <glyph glyph-name="Imacron" unicode="&#x12a;" horiz-adv-x="253" 
d="M70 700h113v-700h-113v700zM-18 880h290v-90h-290v90z" />
    <glyph glyph-name="imacron" unicode="&#x12b;" horiz-adv-x="245" 
d="M68 550h108v-550h-108v550zM-23 730h290v-90h-290v90z" />
    <glyph glyph-name="Ibreve" unicode="&#x12c;" horiz-adv-x="253" 
d="M70 700h113v-700h-113v700zM27.5 804.5q-35.5 41.5 -35.5 110.5h85q0 -76 49 -76q50 0 50 76h85q0 -69 -35.5 -110.5t-99.5 -41.5q-63 0 -98.5 41.5z" />
    <glyph glyph-name="ibreve" unicode="&#x12d;" horiz-adv-x="245" 
d="M68 550h108v-550h-108v550zM23.5 654.5q-35.5 41.5 -35.5 110.5h85q0 -76 49 -76q50 0 50 76h85q0 -69 -35.5 -110.5t-99.5 -41.5q-63 0 -98.5 41.5z" />
    <glyph glyph-name="Iogonek" unicode="&#x12e;" horiz-adv-x="253" 
d="M70 700h113v-700h-5q-19 0 -33.5 -14.5t-14.5 -35.5q0 -26 20.5 -41.5t51.5 -15.5h11v-83h-20q-65 0 -100 27.5t-35 71.5q0 27 13.5 51t40.5 38v2h-42v700z" />
    <glyph glyph-name="iogonek" unicode="&#x12f;" horiz-adv-x="245" 
d="M68 550h108v-550h-6q-19 0 -33.5 -14.5t-14.5 -35.5q0 -26 20.5 -41.5t51.5 -15.5h11v-83h-20q-65 0 -100 27.5t-35 71.5q0 27 13.5 51t40.5 38v2h-36v550zM67 752h110v-107h-110v107z" />
    <glyph glyph-name="Idotaccent" unicode="&#x130;" horiz-adv-x="253" 
d="M70 700h113v-700h-113v700zM72 902h110v-107h-110v107z" />
    <glyph glyph-name="dotlessi" unicode="&#x131;" horiz-adv-x="245" 
d="M68 550h108v-550h-108v550z" />
    <glyph glyph-name="IJ" unicode="&#x132;" horiz-adv-x="616" 
d="M185 13q-54 29 -84.5 86.5t-30.5 138.5h113q0 -80 33 -120.5t92 -40.5q58 0 91.5 40.5t33.5 120.5v462h112v-464q0 -81 -30.5 -137.5t-84 -85.5t-122.5 -29t-123 29zM70 700h113v-367h-113v367z" />
    <glyph glyph-name="ij" unicode="&#x133;" horiz-adv-x="451" 
d="M68 550h108v-550h-108v550zM67 752h110v-107h-110v107zM181 -110h38q27 0 41.5 16.5t14.5 46.5v597h108v-611q0 -60 -39 -99.5t-99 -39.5h-64v90zM273 752h110v-107h-110v107z" />
    <glyph glyph-name="Jcircumflex" unicode="&#x134;" horiz-adv-x="560" 
d="M80 50q-65 66 -65 188h112q0 -79 33.5 -119t91.5 -40q59 0 92 39.5t33 119.5v462h113v-464q0 -121 -65 -186.5t-173 -65.5q-107 0 -172 66zM393 915h78l106 -152h-93l-51 65h-2l-51 -65h-93z" />
    <glyph glyph-name="jcircumflex" unicode="&#x135;" horiz-adv-x="243" 
d="M-27 -110h38q27 0 41.5 16.5t14.5 46.5v597h108v-611q0 -60 -39 -99.5t-99 -39.5h-64v90zM82 765h78l106 -152h-93l-51 65h-2l-51 -65h-93z" />
    <glyph glyph-name="uni0136" unicode="&#x136;" horiz-adv-x="648" 
d="M70 700h113v-343h2l300 343h146l-273 -305l288 -395h-141l-220 311h-2l-100 -111v-200h-113v700zM308 -182.5q14 10.5 14 28.5v7h-51v94h101v-100q0 -42 -28 -66t-73 -24v50q23 0 37 10.5z" />
    <glyph glyph-name="uni0137" unicode="&#x137;" horiz-adv-x="546" 
d="M68 781h108v-484h2l216 253h136l-204 -234l222 -316h-135l-159 235h-2l-76 -87v-148h-108v781zM264 -182.5q14 10.5 14 28.5v7h-51v94h101v-100q0 -42 -28 -66t-73 -24v50q23 0 37 10.5z" />
    <glyph glyph-name="kgreenlandic" unicode="&#x138;" horiz-adv-x="546" 
d="M68 550h108v-253h2l216 253h136l-204 -234l222 -316h-135l-159 235h-2l-76 -87v-148h-108v550z" />
    <glyph glyph-name="Lacute" unicode="&#x139;" horiz-adv-x="505" 
d="M491 95v-95h-421v700h113v-605h308zM156 915h121l-100 -152h-101z" />
    <glyph glyph-name="lacute" unicode="&#x13a;" horiz-adv-x="245" 
d="M68 781h108v-781h-108v781zM152 1015h121l-100 -152h-101z" />
    <glyph glyph-name="uni013B" unicode="&#x13b;" horiz-adv-x="505" 
d="M491 95v-95h-421v700h113v-605h308zM266 -182.5q14 10.5 14 28.5v7h-51v94h101v-100q0 -42 -28 -66t-73 -24v50q23 0 37 10.5z" />
    <glyph glyph-name="uni013C" unicode="&#x13c;" horiz-adv-x="245" 
d="M68 781h108v-781h-108v781zM109 -182.5q14 10.5 14 28.5v7h-51v94h101v-100q0 -42 -28 -66t-73 -24v50q23 0 37 10.5z" />
    <glyph glyph-name="Lcaron" unicode="&#x13d;" horiz-adv-x="505" 
d="M491 95v-95h-421v700h113v-605h308zM356 487.5q18 19.5 18 51.5v41h-64v120h114v-157q0 -58 -31.5 -92.5t-86.5 -34.5v52q32 0 50 19.5z" />
    <glyph glyph-name="lcaron" unicode="&#x13e;" horiz-adv-x="367" 
d="M68 781h108v-781h-108v781zM277 487.5q18 19.5 18 51.5v41h-64v120h114v-157q0 -58 -31.5 -92.5t-86.5 -34.5v52q32 0 50 19.5z" />
    <glyph glyph-name="Ldot" unicode="&#x13f;" horiz-adv-x="505" 
d="M491 95v-95h-421v700h113v-605h308zM317 403h110v-107h-110v107z" />
    <glyph glyph-name="ldot" unicode="&#x140;" horiz-adv-x="355" 
d="M68 781h108v-781h-108v781zM239 403h110v-107h-110v107z" />
    <glyph glyph-name="Lslash" unicode="&#x141;" horiz-adv-x="501" 
d="M4 397l62 21v282h113v-244l130 43v-96l-130 -43v-265h308v-95h-421v322l-62 -21v96z" />
    <glyph glyph-name="lslash" unicode="&#x142;" horiz-adv-x="250" 
d="M179 399v-399h-108v357l-59 -23v96l59 23v328h108v-286l59 23v-96z" />
    <glyph glyph-name="Nacute" unicode="&#x143;" horiz-adv-x="736" 
d="M183 543h-2l1 -120v-423h-112v700h145l339 -541h2l-1 120v421h111v-700h-142zM399 915h121l-100 -152h-101z" />
    <glyph glyph-name="nacute" unicode="&#x144;" horiz-adv-x="604" 
d="M68 550h106v-94h2q26 52 71.5 81t104.5 29q87 0 136.5 -59.5t49.5 -169.5v-337h-108v326q0 77 -30.5 113t-83.5 36q-59 0 -99.5 -42t-40.5 -127v-306h-108v550zM331 765h121l-100 -152h-101z" />
    <glyph glyph-name="uni0145" unicode="&#x145;" horiz-adv-x="736" 
d="M183 543h-2l1 -120v-423h-112v700h145l339 -541h2l-1 120v421h111v-700h-142zM356 -182.5q14 10.5 14 28.5v7h-51v94h101v-100q0 -42 -28 -66t-73 -24v50q23 0 37 10.5z" />
    <glyph glyph-name="uni0146" unicode="&#x146;" horiz-adv-x="604" 
d="M68 550h106v-94h2q26 52 71.5 81t104.5 29q87 0 136.5 -59.5t49.5 -169.5v-337h-108v326q0 77 -30.5 113t-83.5 36q-59 0 -99.5 -42t-40.5 -127v-306h-108v550zM288 -182.5q14 10.5 14 28.5v7h-51v94h101v-100q0 -42 -28 -66t-73 -24v50q23 0 37 10.5z" />
    <glyph glyph-name="Ncaron" unicode="&#x147;" horiz-adv-x="736" 
d="M183 543h-2l1 -120v-423h-112v700h145l339 -541h2l-1 120v421h111v-700h-142zM225 915h93l51 -61h2l51 61h93l-106 -152h-78z" />
    <glyph glyph-name="ncaron" unicode="&#x148;" horiz-adv-x="604" 
d="M68 550h106v-94h2q26 52 71.5 81t104.5 29q87 0 136.5 -59.5t49.5 -169.5v-337h-108v326q0 77 -30.5 113t-83.5 36q-59 0 -99.5 -42t-40.5 -127v-306h-108v550zM157 765h93l51 -61h2l51 61h93l-106 -152h-78z" />
    <glyph glyph-name="napostrophe" unicode="&#x149;" horiz-adv-x="763" 
d="M62 487.5q18 19.5 18 51.5v41h-64v120h114v-157q0 -58 -31.5 -92.5t-86.5 -34.5v52q32 0 50 19.5zM226 550h106v-94h2q26 52 71.5 81t104.5 29q87 0 136.5 -59.5t49.5 -169.5v-337h-108v326q0 77 -30.5 113t-83.5 36q-59 0 -99.5 -42t-40.5 -127v-306h-108v550z" />
    <glyph glyph-name="Eng" unicode="&#x14a;" horiz-adv-x="736" 
d="M464 -110h38q27 0 41.5 16.5t14.5 46.5v48l-375 542h-2l1 -120v-423h-112v700h142l343 -504h2l-2 88v416h111v-753q0 -63 -41.5 -105t-104.5 -42h-56v90z" />
    <glyph glyph-name="eng" unicode="&#x14b;" horiz-adv-x="604" 
d="M336 -110h38q27 0 41.5 16.5t14.5 46.5v372q0 77 -30.5 113.5t-83.5 36.5q-59 0 -99.5 -42t-40.5 -127v-306h-108v550h106v-94h2q26 52 71 80.5t105 28.5q87 0 136.5 -59t49.5 -169v-398q0 -60 -39 -99.5t-99 -39.5h-64v90z" />
    <glyph glyph-name="Omacron" unicode="&#x14c;" 
d="M206.5 27q-78.5 43 -124.5 126t-46 197t46 197t124.5 126t173.5 43t173.5 -43t124.5 -126t46 -197t-46 -197t-124.5 -126t-173.5 -43t-173.5 43zM184.5 200q29.5 -61 80 -91t115.5 -30t116 30t80 91t29 150t-29 150t-80 91t-116 30t-115.5 -30t-80 -91t-29.5 -150
t29.5 -150zM235 880h290v-90h-290v90z" />
    <glyph glyph-name="omacron" unicode="&#x14d;" horiz-adv-x="608" 
d="M163.5 18.5q-62.5 34.5 -99 100t-36.5 156.5t36.5 156.5t99 100t140.5 34.5t140.5 -34.5t99 -100t36.5 -156.5t-36.5 -156.5t-99 -100t-140.5 -34.5t-140.5 34.5zM187 125.5q45 -52.5 117 -52.5t117 52.5t45 149.5t-45 149.5t-117 52.5t-117 -52.5t-45 -149.5t45 -149.5z
M159 730h290v-90h-290v90z" />
    <glyph glyph-name="Obreve" unicode="&#x14e;" 
d="M206.5 27q-78.5 43 -124.5 126t-46 197t46 197t124.5 126t173.5 43t173.5 -43t124.5 -126t46 -197t-46 -197t-124.5 -126t-173.5 -43t-173.5 43zM184.5 200q29.5 -61 80 -91t115.5 -30t116 30t80 91t29 150t-29 150t-80 91t-116 30t-115.5 -30t-80 -91t-29.5 -150
t29.5 -150zM281.5 804.5q-35.5 41.5 -35.5 110.5h85q0 -76 49 -76q50 0 50 76h85q0 -69 -35.5 -110.5t-99.5 -41.5q-63 0 -98.5 41.5z" />
    <glyph glyph-name="obreve" unicode="&#x14f;" horiz-adv-x="608" 
d="M163.5 18.5q-62.5 34.5 -99 100t-36.5 156.5t36.5 156.5t99 100t140.5 34.5t140.5 -34.5t99 -100t36.5 -156.5t-36.5 -156.5t-99 -100t-140.5 -34.5t-140.5 34.5zM187 125.5q45 -52.5 117 -52.5t117 52.5t45 149.5t-45 149.5t-117 52.5t-117 -52.5t-45 -149.5t45 -149.5z
M204.5 654.5q-35.5 41.5 -35.5 110.5h85q0 -76 49 -76q50 0 50 76h85q0 -69 -35.5 -110.5t-99.5 -41.5q-63 0 -98.5 41.5z" />
    <glyph glyph-name="Ohungarumlaut" unicode="&#x150;" 
d="M206.5 27q-78.5 43 -124.5 126t-46 197t46 197t124.5 126t173.5 43t173.5 -43t124.5 -126t46 -197t-46 -197t-124.5 -126t-173.5 -43t-173.5 43zM184.5 200q29.5 -61 80 -91t115.5 -30t116 30t80 91t29 150t-29 150t-80 91t-116 30t-115.5 -30t-80 -91t-29.5 -150
t29.5 -150zM495 915h121l-100 -152h-99zM322 915h121l-100 -152h-99z" />
    <glyph glyph-name="ohungarumlaut" unicode="&#x151;" horiz-adv-x="608" 
d="M163.5 18.5q-62.5 34.5 -99 100t-36.5 156.5t36.5 156.5t99 100t140.5 34.5t140.5 -34.5t99 -100t36.5 -156.5t-36.5 -156.5t-99 -100t-140.5 -34.5t-140.5 34.5zM187 125.5q45 -52.5 117 -52.5t117 52.5t45 149.5t-45 149.5t-117 52.5t-117 -52.5t-45 -149.5t45 -149.5z
M419 765h121l-100 -152h-99zM246 765h121l-100 -152h-99z" />
    <glyph glyph-name="OE" unicode="&#x152;" horiz-adv-x="1081" 
d="M200 28q-76 43 -120 125.5t-44 196.5t44 196.5t120 125.5t171 43q74 0 134 -29t98 -86h2v100h454v-93h-344v-209h305v-93h-305v-212h345v-93h-455v100h-2q-38 -57 -98 -86t-134 -29q-95 0 -171 43zM184 200.5q29 -61.5 79.5 -92t114.5 -30.5t115 30.5t80 92t29 149.5
q0 89 -29 150t-79.5 91t-115.5 30q-64 0 -114.5 -30t-79.5 -91t-29 -150q0 -88 29 -149.5z" />
    <glyph glyph-name="oe" unicode="&#x153;" horiz-adv-x="1019" 
d="M163.5 19q-62.5 34 -99 100t-36.5 156q0 91 36.5 156.5t99 99.5t140.5 34q70 0 126 -32.5t90 -96.5h2q32 64 86.5 96.5t126.5 32.5q74 0 132.5 -32t92 -89.5t33.5 -132.5v-69h-415q7 -79 49.5 -123.5t107.5 -44.5q50 0 87 26t52 69h114q-17 -82 -86.5 -133t-166.5 -51
q-71 0 -126 33t-87 97h-2q-34 -65 -90 -97.5t-126 -32.5q-78 0 -140.5 34zM187 126.5q45 -52.5 117 -52.5t117 52.5t45 148.5t-45 148.5t-117 52.5t-117 -52.5t-45 -148.5t45 -148.5zM884 329q-6 65 -46 106t-104 41q-65 0 -107 -41.5t-48 -105.5h305z" />
    <glyph glyph-name="Racute" unicode="&#x154;" horiz-adv-x="638" 
d="M70 700h282q118 0 184.5 -52t66.5 -139q0 -69 -41.5 -115.5t-118.5 -61.5v-2q59 -22 89.5 -66t51.5 -119l40 -145h-116l-32 122q-16 65 -36.5 98.5t-53.5 47t-91 13.5h-112v-281h-113v700zM304 375q90 0 136 30.5t46 89.5q0 52 -37 81t-108 29h-158v-230h121zM350 915
h121l-100 -152h-101z" />
    <glyph glyph-name="racute" unicode="&#x155;" horiz-adv-x="379" 
d="M68 550h106v-91h2q22 46 52.5 68.5t86.5 22.5h54v-91h-71q-63 0 -92.5 -36t-29.5 -110v-313h-108v550zM245 765h121l-100 -152h-101z" />
    <glyph glyph-name="uni0156" unicode="&#x156;" horiz-adv-x="638" 
d="M70 700h282q118 0 184.5 -52t66.5 -139q0 -69 -41.5 -115.5t-118.5 -61.5v-2q59 -22 89.5 -66t51.5 -119l40 -145h-116l-32 122q-16 65 -36.5 98.5t-53.5 47t-91 13.5h-112v-281h-113v700zM304 375q90 0 136 30.5t46 89.5q0 52 -37 81t-108 29h-158v-230h121zM311 -182.5
q14 10.5 14 28.5v7h-51v94h101v-100q0 -42 -28 -66t-73 -24v50q23 0 37 10.5z" />
    <glyph glyph-name="uni0157" unicode="&#x157;" horiz-adv-x="379" 
d="M68 550h106v-91h2q22 46 52.5 68.5t86.5 22.5h54v-91h-71q-63 0 -92.5 -36t-29.5 -110v-313h-108v550zM109 -182.5q14 10.5 14 28.5v7h-51v94h101v-100q0 -42 -28 -66t-73 -24v50q23 0 37 10.5z" />
    <glyph glyph-name="Rcaron" unicode="&#x158;" horiz-adv-x="638" 
d="M70 700h282q118 0 184.5 -52t66.5 -139q0 -69 -41.5 -115.5t-118.5 -61.5v-2q59 -22 89.5 -66t51.5 -119l40 -145h-116l-32 122q-16 65 -36.5 98.5t-53.5 47t-91 13.5h-112v-281h-113v700zM304 375q90 0 136 30.5t46 89.5q0 52 -37 81t-108 29h-158v-230h121zM176 915h93
l51 -61h2l51 61h93l-106 -152h-78z" />
    <glyph glyph-name="rcaron" unicode="&#x159;" horiz-adv-x="379" 
d="M68 550h106v-91h2q22 46 52.5 68.5t86.5 22.5h54v-91h-71q-63 0 -92.5 -36t-29.5 -110v-313h-108v550zM70 765h93l51 -61h2l51 61h93l-106 -152h-78z" />
    <glyph glyph-name="Sacute" unicode="&#x15a;" horiz-adv-x="647" 
d="M116.5 52.5q-74.5 68.5 -79.5 189.5h116q4 -79 49.5 -121t127.5 -42q76 0 120 35.5t44 95.5q0 100 -133 100h-90q-110 0 -167 52t-57 137q0 65 33.5 114t95.5 76t147 27q133 0 202.5 -65.5t74.5 -178.5h-115q-6 149 -164 149q-74 0 -116.5 -31.5t-42.5 -86.5
q0 -92 124 -92h90q124 0 179 -55.5t55 -141.5q0 -70 -34 -122t-97.5 -80t-150.5 -28q-137 0 -211.5 68.5zM352 915h121l-100 -152h-101z" />
    <glyph glyph-name="sacute" unicode="&#x15b;" horiz-adv-x="530" 
d="M98.5 37q-61.5 53 -65.5 145h112q2 -55 34.5 -82t88.5 -27q54 0 84.5 24.5t30.5 65.5q0 74 -100 74h-60q-84 0 -132 42t-48 112q0 51 26 90.5t75.5 62t117.5 22.5q105 0 163 -52.5t62 -141.5h-111q-2 51 -31 78t-82 27q-50 0 -78.5 -22t-28.5 -59q0 -34 22.5 -50.5
t64.5 -16.5h65q92 0 140.5 -45.5t48.5 -117.5q0 -53 -27 -94.5t-79 -64.5t-123 -23q-108 0 -169.5 53zM293 765h121l-100 -152h-101z" />
    <glyph glyph-name="Scircumflex" unicode="&#x15c;" horiz-adv-x="647" 
d="M116.5 52.5q-74.5 68.5 -79.5 189.5h116q4 -79 49.5 -121t127.5 -42q76 0 120 35.5t44 95.5q0 100 -133 100h-90q-110 0 -167 52t-57 137q0 65 33.5 114t95.5 76t147 27q133 0 202.5 -65.5t74.5 -178.5h-115q-6 149 -164 149q-74 0 -116.5 -31.5t-42.5 -86.5
q0 -92 124 -92h90q124 0 179 -55.5t55 -141.5q0 -70 -34 -122t-97.5 -80t-150.5 -28q-137 0 -211.5 68.5zM284 915h78l106 -152h-93l-51 65h-2l-51 -65h-93z" />
    <glyph glyph-name="scircumflex" unicode="&#x15d;" horiz-adv-x="530" 
d="M98.5 37q-61.5 53 -65.5 145h112q2 -55 34.5 -82t88.5 -27q54 0 84.5 24.5t30.5 65.5q0 74 -100 74h-60q-84 0 -132 42t-48 112q0 51 26 90.5t75.5 62t117.5 22.5q105 0 163 -52.5t62 -141.5h-111q-2 51 -31 78t-82 27q-50 0 -78.5 -22t-28.5 -59q0 -34 22.5 -50.5
t64.5 -16.5h65q92 0 140.5 -45.5t48.5 -117.5q0 -53 -27 -94.5t-79 -64.5t-123 -23q-108 0 -169.5 53zM225 765h78l106 -152h-93l-51 65h-2l-51 -65h-93z" />
    <glyph glyph-name="Scedilla" unicode="&#x15e;" horiz-adv-x="647" 
d="M242 -192v72h76q11 0 18 6t7 16t-7 16t-18 6h-29v62q-118 10 -182.5 77t-69.5 179h116q4 -79 49.5 -121t127.5 -42q76 0 120 35.5t44 95.5q0 100 -133 100h-90q-110 0 -167 52t-57 137q0 65 33.5 114t95.5 76t147 27q133 0 202.5 -65.5t74.5 -178.5h-115q-6 149 -164 149
q-74 0 -116.5 -31.5t-42.5 -86.5q0 -92 124 -92h90q124 0 179 -55.5t55 -141.5q0 -100 -68 -161t-187 -68v-22q37 -3 57 -22t20 -51q0 -36 -24.5 -59t-69.5 -23h-96z" />
    <glyph glyph-name="scedilla" unicode="&#x15f;" horiz-adv-x="530" 
d="M183 -192v72h76q11 0 18 6t7 16t-7 16t-18 6h-29v62q-91 9 -142 60.5t-55 135.5h112q2 -55 34.5 -82t88.5 -27q54 0 84.5 24.5t30.5 65.5q0 74 -100 74h-60q-84 0 -132 42t-48 112q0 51 26 90.5t75.5 62t117.5 22.5q105 0 163 -52.5t62 -141.5h-111q-2 51 -31 78t-82 27
q-50 0 -78.5 -22t-28.5 -59q0 -34 22.5 -50.5t64.5 -16.5h65q92 0 140.5 -45.5t48.5 -117.5q0 -76 -53.5 -125t-147.5 -56v-22q37 -3 57 -22t20 -51q0 -36 -24.5 -59t-69.5 -23h-96z" />
    <glyph glyph-name="Scaron" unicode="&#x160;" horiz-adv-x="647" 
d="M116.5 52.5q-74.5 68.5 -79.5 189.5h116q4 -79 49.5 -121t127.5 -42q76 0 120 35.5t44 95.5q0 100 -133 100h-90q-110 0 -167 52t-57 137q0 65 33.5 114t95.5 76t147 27q133 0 202.5 -65.5t74.5 -178.5h-115q-6 149 -164 149q-74 0 -116.5 -31.5t-42.5 -86.5
q0 -92 124 -92h90q124 0 179 -55.5t55 -141.5q0 -70 -34 -122t-97.5 -80t-150.5 -28q-137 0 -211.5 68.5zM178 915h93l51 -61h2l51 61h93l-106 -152h-78z" />
    <glyph glyph-name="scaron" unicode="&#x161;" horiz-adv-x="530" 
d="M98.5 37q-61.5 53 -65.5 145h112q2 -55 34.5 -82t88.5 -27q54 0 84.5 24.5t30.5 65.5q0 74 -100 74h-60q-84 0 -132 42t-48 112q0 51 26 90.5t75.5 62t117.5 22.5q105 0 163 -52.5t62 -141.5h-111q-2 51 -31 78t-82 27q-50 0 -78.5 -22t-28.5 -59q0 -34 22.5 -50.5
t64.5 -16.5h65q92 0 140.5 -45.5t48.5 -117.5q0 -53 -27 -94.5t-79 -64.5t-123 -23q-108 0 -169.5 53zM119 765h93l51 -61h2l51 61h93l-106 -152h-78z" />
    <glyph glyph-name="uni0162" unicode="&#x162;" horiz-adv-x="609" 
d="M248 605h-234v95h581v-95h-234v-605h-24v-37q37 -3 57 -22t20 -51q0 -36 -24.5 -59t-69.5 -23h-96v72h76q11 0 18 6t7 16t-7 16t-18 6h-29v76h-23v605z" />
    <glyph glyph-name="uni0163" unicode="&#x163;" horiz-adv-x="426" 
d="M17 550h108v150h108v-150h171v-91h-171v-303q0 -34 16.5 -49.5t49.5 -15.5h109v-91h-108v-37q37 -3 57 -22t20 -51q0 -36 -24.5 -59t-69.5 -23h-96v72h76q11 0 18 6t7 16t-7 16t-18 6h-29v79q-109 18 -109 144v312h-108v91z" />
    <glyph glyph-name="Tcaron" unicode="&#x164;" horiz-adv-x="609" 
d="M248 605h-234v95h581v-95h-234v-605h-113v605zM160 915h93l51 -61h2l51 61h93l-106 -152h-78z" />
    <glyph glyph-name="tcaron" unicode="&#x165;" horiz-adv-x="427" 
d="M319 652q18 15 18 40v2h-64v110h114v-108q0 -51 -31.5 -81t-86.5 -30v52q32 0 50 15zM17 550h108v150h108v-150h171v-91h-171v-303q0 -34 16.5 -49.5t49.5 -15.5h109v-91h-135q-73 0 -110.5 37t-37.5 110v312h-108v91z" />
    <glyph glyph-name="Tbar" unicode="&#x166;" horiz-adv-x="609" 
d="M98 379h150v226h-234v95h581v-95h-234v-226h143v-89h-143v-290h-113v290h-150v89z" />
    <glyph glyph-name="tbar" unicode="&#x167;" horiz-adv-x="426" 
d="M19 331h106v128h-108v91h108v150h108v-150h171v-91h-171v-128h152v-88h-152v-87q0 -34 16.5 -49.5t49.5 -15.5h109v-91h-135q-73 0 -110.5 37t-37.5 110v96h-106v88z" />
    <glyph glyph-name="Utilde" unicode="&#x168;" horiz-adv-x="700" 
d="M206.5 17q-63.5 33 -100 96.5t-36.5 151.5v435h113v-431q0 -91 46.5 -140.5t120.5 -49.5t121 49.5t47 140.5v431h112v-435q0 -88 -36.5 -151.5t-100 -96.5t-143.5 -33t-143.5 33zM377.5 772q-21.5 12 -47.5 35q-17 16 -29.5 23.5t-25.5 7.5q-18 0 -30 -16t-12 -46v-6h-77
v16q0 62 32.5 98t81.5 36q31 0 52.5 -12t47.5 -35q17 -16 29.5 -23.5t25.5 -7.5q18 0 30 16t12 46v6h77v-16q0 -62 -32.5 -98t-81.5 -36q-31 0 -52.5 12z" />
    <glyph glyph-name="utilde" unicode="&#x169;" horiz-adv-x="601" 
d="M113.5 43.5q-50.5 59.5 -50.5 169.5v337h108v-326q0 -149 114 -149q60 0 99.5 41.5t39.5 127.5v306h108v-550h-106v94h-2q-24 -54 -68.5 -82t-103.5 -28q-88 0 -138.5 59.5zM325.5 622q-21.5 12 -47.5 35q-17 16 -29.5 23.5t-25.5 7.5q-18 0 -30 -16t-12 -46v-6h-77v16
q0 62 32.5 98t81.5 36q31 0 52.5 -12t47.5 -35q17 -16 29.5 -23.5t25.5 -7.5q18 0 30 16t12 46v6h77v-16q0 -62 -32.5 -98t-81.5 -36q-31 0 -52.5 12z" />
    <glyph glyph-name="Umacron" unicode="&#x16a;" horiz-adv-x="700" 
d="M206.5 17q-63.5 33 -100 96.5t-36.5 151.5v435h113v-431q0 -91 46.5 -140.5t120.5 -49.5t121 49.5t47 140.5v431h112v-435q0 -88 -36.5 -151.5t-100 -96.5t-143.5 -33t-143.5 33zM205 880h290v-90h-290v90z" />
    <glyph glyph-name="umacron" unicode="&#x16b;" horiz-adv-x="601" 
d="M113.5 43.5q-50.5 59.5 -50.5 169.5v337h108v-326q0 -149 114 -149q60 0 99.5 41.5t39.5 127.5v306h108v-550h-106v94h-2q-24 -54 -68.5 -82t-103.5 -28q-88 0 -138.5 59.5zM153 730h290v-90h-290v90z" />
    <glyph glyph-name="Ubreve" unicode="&#x16c;" horiz-adv-x="700" 
d="M206.5 17q-63.5 33 -100 96.5t-36.5 151.5v435h113v-431q0 -91 46.5 -140.5t120.5 -49.5t121 49.5t47 140.5v431h112v-435q0 -88 -36.5 -151.5t-100 -96.5t-143.5 -33t-143.5 33zM251.5 804.5q-35.5 41.5 -35.5 110.5h85q0 -76 49 -76q50 0 50 76h85q0 -69 -35.5 -110.5
t-99.5 -41.5q-63 0 -98.5 41.5z" />
    <glyph glyph-name="ubreve" unicode="&#x16d;" horiz-adv-x="601" 
d="M113.5 43.5q-50.5 59.5 -50.5 169.5v337h108v-326q0 -149 114 -149q60 0 99.5 41.5t39.5 127.5v306h108v-550h-106v94h-2q-24 -54 -68.5 -82t-103.5 -28q-88 0 -138.5 59.5zM199.5 654.5q-35.5 41.5 -35.5 110.5h85q0 -76 49 -76q50 0 50 76h85q0 -69 -35.5 -110.5
t-99.5 -41.5q-63 0 -98.5 41.5z" />
    <glyph glyph-name="Uring" unicode="&#x16e;" horiz-adv-x="700" 
d="M206.5 17q-63.5 33 -100 96.5t-36.5 151.5v435h113v-431q0 -91 46.5 -140.5t120.5 -49.5t121 49.5t47 140.5v431h112v-435q0 -88 -36.5 -151.5t-100 -96.5t-143.5 -33t-143.5 33zM284.5 780.5q-26.5 26.5 -26.5 64.5t26.5 65t65.5 27q38 0 65 -27t27 -65t-27 -64.5
t-65 -26.5q-39 0 -65.5 26.5zM328 822q9 -9 22 -9t22 9t9 23t-9 23t-22 9t-22 -9t-9 -23t9 -23z" />
    <glyph glyph-name="uring" unicode="&#x16f;" horiz-adv-x="601" 
d="M113.5 43.5q-50.5 59.5 -50.5 169.5v337h108v-326q0 -149 114 -149q60 0 99.5 41.5t39.5 127.5v306h108v-550h-106v94h-2q-24 -54 -68.5 -82t-103.5 -28q-88 0 -138.5 59.5zM232.5 630.5q-26.5 26.5 -26.5 64.5t26.5 65t65.5 27q38 0 65 -27t27 -65t-27 -64.5t-65 -26.5
q-39 0 -65.5 26.5zM276 672q9 -9 22 -9t22 9t9 23t-9 23t-22 9t-22 -9t-9 -23t9 -23z" />
    <glyph glyph-name="Uhungarumlaut" unicode="&#x170;" horiz-adv-x="700" 
d="M206.5 17q-63.5 33 -100 96.5t-36.5 151.5v435h113v-431q0 -91 46.5 -140.5t120.5 -49.5t121 49.5t47 140.5v431h112v-435q0 -88 -36.5 -151.5t-100 -96.5t-143.5 -33t-143.5 33zM465 915h121l-100 -152h-99zM292 915h121l-100 -152h-99z" />
    <glyph glyph-name="uhungarumlaut" unicode="&#x171;" horiz-adv-x="601" 
d="M113.5 43.5q-50.5 59.5 -50.5 169.5v337h108v-326q0 -149 114 -149q60 0 99.5 41.5t39.5 127.5v306h108v-550h-106v94h-2q-24 -54 -68.5 -82t-103.5 -28q-88 0 -138.5 59.5zM414 765h121l-100 -152h-99zM241 765h121l-100 -152h-99z" />
    <glyph glyph-name="Uogonek" unicode="&#x172;" horiz-adv-x="700" 
d="M461 -163q-36 27 -36 77q0 45 28 85v1q-47 -16 -103 -16q-80 0 -143.5 33t-100 96.5t-36.5 151.5v435h113v-431q0 -91 46.5 -140.5t120.5 -49.5t121 49.5t47 140.5v431h112v-435q0 -77 -28 -135.5t-79 -94.5q-14 -15 -22.5 -34.5t-8.5 -40.5q0 -32 20 -49.5t53 -17.5h14
v-83h-18q-64 0 -100 27z" />
    <glyph glyph-name="uogonek" unicode="&#x173;" horiz-adv-x="601" 
d="M113.5 43.5q-50.5 59.5 -50.5 169.5v337h108v-326q0 -149 114 -149q60 0 99.5 41.5t39.5 127.5v306h108v-550h-1q-19 0 -33.5 -14.5t-14.5 -35.5q0 -26 20.5 -41.5t51.5 -15.5h11v-83h-20q-65 0 -100 27.5t-35 71.5q0 27 13.5 51t40.5 38v2h-39v94h-2q-24 -54 -68.5 -82
t-103.5 -28q-88 0 -138.5 59.5z" />
    <glyph glyph-name="Wcircumflex" unicode="&#x174;" horiz-adv-x="928" 
d="M10 700h116l139 -552h2l130 552h137l128 -552h2l138 552h116l-191 -700h-129l-133 565h-2l-133 -565h-129zM426 915h78l106 -152h-93l-51 65h-2l-51 -65h-93z" />
    <glyph glyph-name="wcircumflex" unicode="&#x175;" horiz-adv-x="757" 
d="M9 550h114l98 -414h2l94 414h123l94 -414h2l98 414h114l-153 -550h-118l-98 400h-2l-98 -400h-119zM339 765h78l106 -152h-93l-51 65h-2l-51 -65h-93z" />
    <glyph glyph-name="Ycircumflex" unicode="&#x176;" horiz-adv-x="619" 
d="M253 278l-243 422h128l170 -319h2l171 319h128l-244 -422v-278h-112v278zM270 915h78l106 -152h-93l-51 65h-2l-51 -65h-93z" />
    <glyph glyph-name="ycircumflex" unicode="&#x177;" horiz-adv-x="550" 
d="M9 -109h151l59 139l-210 520h117l148 -390h2l148 390h116l-285 -708q-16 -42 -62 -42h-184v91zM236 765h78l106 -152h-93l-51 65h-2l-51 -65h-93z" />
    <glyph glyph-name="Ydieresis" unicode="&#x178;" horiz-adv-x="619" 
d="M253 278l-243 422h128l170 -319h2l171 319h128l-244 -422v-278h-112v278zM174 902h108v-107h-108v107zM336 902h108v-107h-108v107z" />
    <glyph glyph-name="Zacute" unicode="&#x179;" horiz-adv-x="585" 
d="M18 93l389 509v2h-379v96h529v-86l-389 -509v-2h399v-103h-549v93zM327 915h121l-100 -152h-101z" />
    <glyph glyph-name="zacute" unicode="&#x17a;" horiz-adv-x="505" 
d="M18 82l302 377v1h-282v90h427v-81l-301 -377v-1h323v-91h-469v82zM282 765h121l-100 -152h-101z" />
    <glyph glyph-name="Zdotaccent" unicode="&#x17b;" horiz-adv-x="585" 
d="M18 93l389 509v2h-379v96h529v-86l-389 -509v-2h399v-103h-549v93zM243 902h110v-107h-110v107z" />
    <glyph glyph-name="zdotaccent" unicode="&#x17c;" horiz-adv-x="505" 
d="M18 82l302 377v1h-282v90h427v-81l-301 -377v-1h323v-91h-469v82zM198 752h110v-107h-110v107z" />
    <glyph glyph-name="Zcaron" unicode="&#x17d;" horiz-adv-x="585" 
d="M18 93l389 509v2h-379v96h529v-86l-389 -509v-2h399v-103h-549v93zM153 915h93l51 -61h2l51 61h93l-106 -152h-78z" />
    <glyph glyph-name="zcaron" unicode="&#x17e;" horiz-adv-x="505" 
d="M18 82l302 377v1h-282v90h427v-81l-301 -377v-1h323v-91h-469v82zM108 765h93l51 -61h2l51 61h93l-106 -152h-78z" />
    <glyph glyph-name="longs" unicode="&#x17f;" horiz-adv-x="335" 
d="M80 459h-76v91h76v56q0 84 44.5 129.5t131.5 45.5h78v-91h-62q-40 0 -62 -21.5t-22 -71.5v-597h-108v459z" />
    <glyph glyph-name="uni018F" unicode="&#x18f;" horiz-adv-x="744" 
d="M200 24.5q-76 39.5 -120 115t-44 179.5v69h553q-7 108 -63.5 170.5t-154.5 62.5q-76 0 -132 -37t-77 -100h-120q14 68 60 120.5t115.5 82t150.5 29.5q102 0 179 -45t119 -128t42 -192q0 -111 -42.5 -194t-119 -127.5t-176.5 -44.5q-94 0 -170 39.5zM178.5 182.5
q26.5 -48.5 75.5 -75.5t116 -27q98 0 153 56t65 158h-436q0 -63 26.5 -111.5z" />
    <glyph glyph-name="florin" unicode="&#x192;" horiz-adv-x="691" 
d="M28 -110h78q47 0 72.5 20t38.5 67l97 356h-146v91h171l30 109q25 91 71 129t130 38h93v-91h-76q-47 0 -72.5 -20t-38.5 -67l-27 -98h165v-91h-190l-100 -366q-25 -91 -71 -129t-130 -38h-95v90z" />
    <glyph glyph-name="uni019D" unicode="&#x19d;" horiz-adv-x="736" 
d="M-24 -110h38q27 0 41.5 16.5t14.5 46.5v747h145l339 -541h2l-1 120v421h111v-700h-142l-341 543h-2l1 -120v-484q0 -60 -39 -99.5t-99 -39.5h-68v90z" />
    <glyph glyph-name="uni01B7" unicode="&#x1b7;" horiz-adv-x="598" 
d="M108.5 45q-71.5 61 -72.5 172h115q1 -70 42 -107t107 -37q65 0 106 35t41 98q0 60 -38.5 95t-111.5 35h-100v89l196 182v2h-328v91h467v-91l-204 -185v-2q118 -7 176 -67.5t58 -148.5q0 -66 -32.5 -116.5t-92 -78t-138.5 -27.5q-119 0 -190.5 61z" />
    <glyph glyph-name="uni01CF" unicode="&#x1cf;" horiz-adv-x="253" 
d="M70 700h113v-700h-113v700zM-18 915h93l51 -61h2l51 61h93l-106 -152h-78z" />
    <glyph glyph-name="uni01D0" unicode="&#x1d0;" horiz-adv-x="245" 
d="M68 550h108v-550h-108v550zM-23 765h93l51 -61h2l51 61h93l-106 -152h-78z" />
    <glyph glyph-name="uni01D1" unicode="&#x1d1;" 
d="M206.5 27q-78.5 43 -124.5 126t-46 197t46 197t124.5 126t173.5 43t173.5 -43t124.5 -126t46 -197t-46 -197t-124.5 -126t-173.5 -43t-173.5 43zM184.5 200q29.5 -61 80 -91t115.5 -30t116 30t80 91t29 150t-29 150t-80 91t-116 30t-115.5 -30t-80 -91t-29.5 -150
t29.5 -150zM235 915h93l51 -61h2l51 61h93l-106 -152h-78z" />
    <glyph glyph-name="uni01D2" unicode="&#x1d2;" horiz-adv-x="608" 
d="M163.5 18.5q-62.5 34.5 -99 100t-36.5 156.5t36.5 156.5t99 100t140.5 34.5t140.5 -34.5t99 -100t36.5 -156.5t-36.5 -156.5t-99 -100t-140.5 -34.5t-140.5 34.5zM187 125.5q45 -52.5 117 -52.5t117 52.5t45 149.5t-45 149.5t-117 52.5t-117 -52.5t-45 -149.5t45 -149.5z
M159 765h93l51 -61h2l51 61h93l-106 -152h-78z" />
    <glyph glyph-name="uni01D3" unicode="&#x1d3;" horiz-adv-x="700" 
d="M206.5 17q-63.5 33 -100 96.5t-36.5 151.5v435h113v-431q0 -91 46.5 -140.5t120.5 -49.5t121 49.5t47 140.5v431h112v-435q0 -88 -36.5 -151.5t-100 -96.5t-143.5 -33t-143.5 33zM205 915h93l51 -61h2l51 61h93l-106 -152h-78z" />
    <glyph glyph-name="uni01D4" unicode="&#x1d4;" horiz-adv-x="601" 
d="M113.5 43.5q-50.5 59.5 -50.5 169.5v337h108v-326q0 -149 114 -149q60 0 99.5 41.5t39.5 127.5v306h108v-550h-106v94h-2q-24 -54 -68.5 -82t-103.5 -28q-88 0 -138.5 59.5zM153 765h93l51 -61h2l51 61h93l-106 -152h-78z" />
    <glyph glyph-name="uni01E4" unicode="&#x1e4;" horiz-adv-x="761" 
d="M195 29.5q-75 45.5 -117 128.5t-42 193q0 108 41.5 190.5t121 128.5t188.5 46q93 0 161.5 -32.5t107 -87.5t46.5 -124h-116q-9 65 -61.5 107t-137.5 42q-108 0 -170 -73t-62 -197q0 -85 30 -146.5t83 -93.5t122 -32q64 0 115 28t81 78h-214v81h243q4 20 4 48h-249v84h279
q26 0 40.5 -14t14.5 -39v-79h52v-81h-52v-185h-104l19 138h-2q-34 -75 -97 -114.5t-154 -39.5q-96 0 -171 45.5z" />
    <glyph glyph-name="uni01E5" unicode="&#x1e5;" horiz-adv-x="567" 
d="M69 -166q-43 34 -43 90q0 42 24 72t70 42v2q-31 11 -49.5 35t-18.5 56q0 37 23.5 60.5t59.5 27.5l13 1v2q-48 20 -75.5 60.5t-27.5 95.5q0 58 29.5 100.5t80 65t111.5 22.5q60 0 109 -21.5t78 -61.5h3q2 32 20 49.5t49 17.5h23v-81h-40q-17 0 -23.5 -7t-7.5 -24
q4 -9 7 -25h64v-78h-66q-15 -67 -74 -106.5t-140 -39.5h-68q-53 0 -53 -38q0 -19 13.5 -29t39.5 -10h176q83 0 130.5 -41.5t47.5 -113.5q0 -73 -47.5 -115t-130.5 -42h-183q-81 0 -124 34zM141 -99q21 -19 62 -19h162q38 0 60 18.5t22 52.5q0 33 -22 51.5t-60 18.5h-162
q-40 0 -61.5 -19.5t-21.5 -51.5t21 -51zM182.5 295q32.5 -27 83.5 -27q40 0 69.5 17t41.5 50h-111v78h111q-11 34 -40.5 51t-70.5 17q-50 0 -83 -27t-33 -79q0 -53 32.5 -80z" />
    <glyph glyph-name="Gcaron" unicode="&#x1e6;" 
d="M196 29.5q-75 45.5 -117.5 128.5t-42.5 193q0 108 41.5 190.5t119 128.5t183.5 46q96 0 168 -38t111 -102.5t43 -143.5h-116q-2 53 -27.5 96t-72 68t-106.5 25q-69 0 -119.5 -33t-78 -94t-27.5 -143q0 -84 29.5 -145.5t81 -94t116.5 -32.5q60 0 106 26t73 66t34 83h-225
v93h279q26 0 40.5 -14t14.5 -39v-294h-104l19 138h-2q-33 -75 -96.5 -114.5t-153.5 -39.5q-96 0 -171 45.5zM232 915h93l51 -61h2l51 61h93l-106 -152h-78z" />
    <glyph glyph-name="gcaron" unicode="&#x1e7;" horiz-adv-x="567" 
d="M69 -166q-43 34 -43 90q0 42 24 72t70 42v2q-31 11 -49.5 35t-18.5 56q0 37 23.5 60.5t59.5 27.5l13 1v2q-48 20 -75.5 60.5t-27.5 95.5q0 58 29.5 100.5t80 65t111.5 22.5q60 0 109 -21.5t78 -61.5h3q2 32 20 49.5t49 17.5h23v-91h-38q-15 0 -22 -6t-9 -20q8 -27 8 -55
q0 -57 -29 -100t-79 -66t-111 -23h-68q-53 0 -53 -38q0 -19 13.5 -29t39.5 -10h176q83 0 130.5 -41.5t47.5 -113.5q0 -73 -47.5 -115t-130.5 -42h-183q-81 0 -124 34zM141 -99q21 -19 62 -19h162q38 0 60 18.5t22 52.5q0 33 -22 51.5t-60 18.5h-162q-40 0 -61.5 -19.5
t-21.5 -51.5t21 -51zM183 298q33 -26 83 -26t83.5 26t33.5 77q0 50 -33.5 76t-83.5 26t-83 -26t-33 -76q0 -51 33 -77zM121 765h93l51 -61h2l51 61h93l-106 -152h-78z" />
    <glyph glyph-name="uni01EA" unicode="&#x1ea;" 
d="M509 -163q-36 27 -36 77q0 47 32 89v2q-58 -21 -125 -21q-95 0 -173.5 43t-124.5 126t-46 197t46 197t124.5 126t173.5 43t173.5 -43t124.5 -126t46 -197q0 -104 -38 -182t-106 -125q-18 -16 -29 -37.5t-11 -45.5q0 -32 20 -49.5t54 -17.5h13v-83h-18q-64 0 -100 27z
M184.5 200q29.5 -61 80 -91t115.5 -30t116 30t80 91t29 150t-29 150t-80 91t-116 30t-115.5 -30t-80 -91t-29.5 -150t29.5 -150z" />
    <glyph glyph-name="uni01EB" unicode="&#x1eb;" horiz-adv-x="608" 
d="M410.5 -162.5q-36.5 27.5 -36.5 76.5q0 46 29 85v1q-45 -16 -99 -16q-78 0 -140.5 34.5t-99 100t-36.5 156.5t36.5 156.5t99 100t140.5 34.5t140.5 -34.5t99 -100t36.5 -156.5q0 -77 -26.5 -136.5t-74.5 -96.5q-41 -38 -41 -83q0 -32 20.5 -49t54.5 -17h10v-83h-11
q-65 0 -101.5 27.5zM187 125.5q45 -52.5 117 -52.5t117 52.5t45 149.5t-45 149.5t-117 52.5t-117 -52.5t-45 -149.5t45 -149.5z" />
    <glyph glyph-name="AEacute" unicode="&#x1fc;" horiz-adv-x="925" 
d="M459 181h-252l-77 -181h-115l309 700h579v-93h-331v-209h292v-93h-292v-212h332v-93h-445v181zM459 274v333h-72l-141 -333h213zM547 915h121l-100 -152h-101z" />
    <glyph glyph-name="aeacute" unicode="&#x1fd;" horiz-adv-x="963" 
d="M136 3q-45 19 -73 59t-28 99q0 87 58 129t147 42h96q39 0 60 16.5t21 46.5q0 39 -32 60.5t-82 21.5q-58 0 -96 -28t-42 -77h-113q6 89 70 141.5t170 52.5q74 0 122 -28t68 -81h2q29 54 81.5 81.5t119.5 27.5q73 0 129.5 -31.5t88.5 -91.5t32 -143v-58h-410
q4 -75 45.5 -122t110.5 -47q51 0 85 25.5t50 70.5h114q-18 -82 -86 -133.5t-161 -51.5q-76 0 -139 37t-91 111h-2q-27 -70 -84.5 -109t-133.5 -39q-52 0 -97 19zM178 99q29 -25 80 -25q43 0 79 19.5t58 59t22 96.5v56h-2q-14 -28 -40.5 -41.5t-72.5 -14.5l-51 -1
q-50 -1 -76 -24.5t-26 -60.5q0 -39 29 -64zM824 326q-1 68 -38 109.5t-103 41.5q-67 0 -108 -42t-49 -109h298zM511 765h121l-100 -152h-101z" />
    <glyph glyph-name="Oslashacute" unicode="&#x1fe;" horiz-adv-x="763" 
d="M640 605q41 -47 63.5 -111.5t22.5 -143.5q0 -114 -46 -197t-124.5 -126t-173.5 -43q-58 0 -111 16.5t-96 47.5l-40 -48h-99v2l83 99q-81 97 -81 249q0 114 46 197t124.5 126t173.5 43q114 0 200 -59l36 43h100v-2zM192 189l324 389q-55 43 -134 43q-65 0 -115.5 -30
t-80 -91t-29.5 -150q0 -94 35 -161zM382 79q65 0 116 30t80 91t29 150q0 102 -39 168l-327 -391q59 -48 141 -48zM411 915h121l-100 -152h-101z" />
    <glyph glyph-name="oslashacute" unicode="&#x1ff;" horiz-adv-x="609" 
d="M36 2l59 73q-66 79 -66 200q0 91 36.5 156.5t99 100t140.5 34.5q87 0 153 -42l21 26h93v-2l-58 -72q67 -78 67 -201q0 -91 -36.5 -156.5t-99 -100t-140.5 -34.5q-87 0 -155 42l-21 -26h-93v2zM165 162l232 286q-40 29 -92 29q-72 0 -117 -52.5t-45 -149.5q0 -66 22 -113z
M305 73q72 0 117 52.5t45 149.5q0 67 -23 115l-232 -287q39 -30 93 -30zM334 765h121l-100 -152h-101z" />
    <glyph glyph-name="uni0218" unicode="&#x218;" horiz-adv-x="647" 
d="M116.5 52.5q-74.5 68.5 -79.5 189.5h116q4 -79 49.5 -121t127.5 -42q76 0 120 35.5t44 95.5q0 100 -133 100h-90q-110 0 -167 52t-57 137q0 65 33.5 114t95.5 76t147 27q133 0 202.5 -65.5t74.5 -178.5h-115q-6 149 -164 149q-74 0 -116.5 -31.5t-42.5 -86.5
q0 -92 124 -92h90q124 0 179 -55.5t55 -141.5q0 -70 -34 -122t-97.5 -80t-150.5 -28q-137 0 -211.5 68.5zM309 -182.5q14 10.5 14 28.5v7h-51v94h101v-100q0 -42 -28 -66t-73 -24v50q23 0 37 10.5z" />
    <glyph glyph-name="uni0219" unicode="&#x219;" horiz-adv-x="530" 
d="M98.5 37q-61.5 53 -65.5 145h112q2 -55 34.5 -82t88.5 -27q54 0 84.5 24.5t30.5 65.5q0 74 -100 74h-60q-84 0 -132 42t-48 112q0 51 26 90.5t75.5 62t117.5 22.5q105 0 163 -52.5t62 -141.5h-111q-2 51 -31 78t-82 27q-50 0 -78.5 -22t-28.5 -59q0 -34 22.5 -50.5
t64.5 -16.5h65q92 0 140.5 -45.5t48.5 -117.5q0 -53 -27 -94.5t-79 -64.5t-123 -23q-108 0 -169.5 53zM250 -182.5q14 10.5 14 28.5v7h-51v94h101v-100q0 -42 -28 -66t-73 -24v50q23 0 37 10.5z" />
    <glyph glyph-name="uni021A" unicode="&#x21a;" horiz-adv-x="609" 
d="M248 605h-234v95h581v-95h-234v-605h-113v605zM291 -182.5q14 10.5 14 28.5v7h-51v94h101v-100q0 -42 -28 -66t-73 -24v50q23 0 37 10.5z" />
    <glyph glyph-name="uni021B" unicode="&#x21b;" horiz-adv-x="426" 
d="M162.5 37q-37.5 37 -37.5 110v312h-108v91h108v150h108v-150h171v-91h-171v-303q0 -34 16.5 -49.5t49.5 -15.5h109v-91h-135q-73 0 -110.5 37zM254 -182.5q14 10.5 14 28.5v7h-51v94h101v-100q0 -42 -28 -66t-73 -24v50q23 0 37 10.5z" />
    <glyph glyph-name="uni0232" unicode="&#x232;" horiz-adv-x="619" 
d="M253 278l-243 422h128l170 -319h2l171 319h128l-244 -422v-278h-112v278zM164 880h290v-90h-290v90z" />
    <glyph glyph-name="uni0233" unicode="&#x233;" horiz-adv-x="550" 
d="M9 -109h151l59 139l-210 520h117l148 -390h2l148 390h116l-285 -708q-16 -42 -62 -42h-184v91zM130 730h290v-90h-290v90z" />
    <glyph glyph-name="uni0237" unicode="&#x237;" horiz-adv-x="243" 
d="M-27 -110h38q27 0 41.5 16.5t14.5 46.5v597h108v-611q0 -60 -39 -99.5t-99 -39.5h-64v90z" />
    <glyph glyph-name="uni0259" unicode="&#x259;" horiz-adv-x="589" 
d="M157 16.5q-60 31.5 -94.5 91.5t-34.5 142v58h418q-4 75 -45 121.5t-111 46.5q-51 0 -89.5 -25.5t-53.5 -69.5h-114q11 54 47 96t90.5 65t119.5 23q81 0 142.5 -36t95 -101.5t33.5 -152.5q0 -88 -33.5 -153.5t-94.5 -101t-141 -35.5q-75 0 -135 31.5zM179.5 115.5
q40.5 -41.5 110.5 -41.5q69 0 108 41.5t46 108.5h-305q0 -67 40.5 -108.5z" />
    <glyph glyph-name="uni0272" unicode="&#x272;" horiz-adv-x="604" 
d="M-26 -110h38q27 0 41.5 16.5t14.5 46.5v597h106v-94h2q26 52 71 80.5t105 28.5q87 0 136.5 -59t49.5 -169v-337h-108v325q0 77 -30.5 113.5t-83.5 36.5q-59 0 -99.5 -42t-40.5 -127v-367q0 -60 -38.5 -99.5t-98.5 -39.5h-65v90z" />
    <glyph glyph-name="uni0292" unicode="&#x292;" horiz-adv-x="597" 
d="M119.5 -152q-69.5 64 -70.5 179h113q1 -75 39.5 -114.5t100.5 -39.5q60 0 98.5 39.5t38.5 108.5q0 67 -36 106t-103 39h-102v89l201 202v2h-334v91h470v-91l-209 -205v-2q115 -8 171 -72.5t56 -158.5q0 -70 -31.5 -124t-88.5 -83.5t-132 -29.5q-112 0 -181.5 64z" />
    <glyph glyph-name="circumflex" unicode="&#x2c6;" horiz-adv-x="328" 
d="M125 765h78l106 -152h-93l-51 65h-2l-51 -65h-93z" />
    <glyph glyph-name="caron" unicode="&#x2c7;" horiz-adv-x="330" 
d="M19 765h93l51 -61h2l51 61h93l-106 -152h-78z" />
    <glyph glyph-name="breve" unicode="&#x2d8;" horiz-adv-x="307" 
d="M54.5 654.5q-35.5 41.5 -35.5 110.5h85q0 -76 49 -76q50 0 50 76h85q0 -69 -35.5 -110.5t-99.5 -41.5q-63 0 -98.5 41.5z" />
    <glyph glyph-name="dotaccent" unicode="&#x2d9;" horiz-adv-x="149" 
d="M21 752h110v-107h-110v107z" />
    <glyph glyph-name="ring" unicode="&#x2da;" horiz-adv-x="222" 
d="M45.5 630.5q-26.5 26.5 -26.5 64.5t26.5 65t65.5 27q38 0 65 -27t27 -65t-27 -64.5t-65 -26.5q-39 0 -65.5 26.5zM89 672q9 -9 22 -9t22 9t9 23t-9 23t-22 9t-22 -9t-9 -23t9 -23z" />
    <glyph glyph-name="ogonek" unicode="&#x2db;" horiz-adv-x="173" 
d="M172 -107v-83h-20q-65 0 -100 27.5t-35 71.5q0 27 13.5 51t40.5 38v11h27l40 -9h-1q-19 0 -33.5 -14.5t-14.5 -35.5q0 -26 20.5 -41.5t51.5 -15.5h11z" />
    <glyph glyph-name="tilde" unicode="&#x2dc;" horiz-adv-x="440" 
d="M241.5 622q-21.5 12 -47.5 35q-17 16 -29.5 23.5t-25.5 7.5q-18 0 -30 -16t-12 -46v-6h-77v16q0 62 32.5 98t81.5 36q31 0 52.5 -12t47.5 -35q17 -16 29.5 -23.5t25.5 -7.5q18 0 30 16t12 46v6h77v-16q0 -62 -32.5 -98t-81.5 -36q-31 0 -52.5 12z" />
    <glyph glyph-name="hungarumlaut" unicode="&#x2dd;" horiz-adv-x="414" 
d="M270 765h121l-100 -152h-99zM97 765h121l-100 -152h-99z" />
    <glyph glyph-name="gravecomb" unicode="&#x300;" horiz-adv-x="0" 
d="M11 765h121l80 -152h-96z" />
    <glyph glyph-name="acutecomb" unicode="&#x301;" horiz-adv-x="0" 
d="M91 765h121l-100 -152h-101z" />
    <glyph glyph-name="uni0302" unicode="&#x302;" horiz-adv-x="0" 
d="M125 765h78l106 -152h-93l-51 65h-2l-51 -65h-93z" />
    <glyph glyph-name="tildecomb" unicode="&#x303;" horiz-adv-x="0" 
d="M241.5 622q-21.5 12 -47.5 35q-17 16 -29.5 23.5t-25.5 7.5q-18 0 -30 -16t-12 -46v-6h-77v16q0 62 32.5 98t81.5 36q31 0 52.5 -12t47.5 -35q17 -16 29.5 -23.5t25.5 -7.5q18 0 30 16t12 46v6h77v-16q0 -62 -32.5 -98t-81.5 -36q-31 0 -52.5 12z" />
    <glyph glyph-name="uni0304" unicode="&#x304;" horiz-adv-x="0" 
d="M19 730h290v-90h-290v90z" />
    <glyph glyph-name="uni0306" unicode="&#x306;" horiz-adv-x="0" 
d="M54.5 654.5q-35.5 41.5 -35.5 110.5h85q0 -76 49 -76q50 0 50 76h85q0 -69 -35.5 -110.5t-99.5 -41.5q-63 0 -98.5 41.5z" />
    <glyph glyph-name="uni0307" unicode="&#x307;" horiz-adv-x="0" 
d="M21 752h110v-107h-110v107z" />
    <glyph glyph-name="uni0308" unicode="&#x308;" horiz-adv-x="0" 
d="M34 752h108v-107h-108v107zM196 752h108v-107h-108v107z" />
    <glyph glyph-name="uni030A" unicode="&#x30a;" horiz-adv-x="0" 
d="M45.5 630.5q-26.5 26.5 -26.5 64.5t26.5 65t65.5 27q38 0 65 -27t27 -65t-27 -64.5t-65 -26.5q-39 0 -65.5 26.5zM89 672q9 -9 22 -9t22 9t9 23t-9 23t-22 9t-22 -9t-9 -23t9 -23z" />
    <glyph glyph-name="uni030B" unicode="&#x30b;" horiz-adv-x="0" 
d="M270 765h121l-100 -152h-99zM97 765h121l-100 -152h-99z" />
    <glyph glyph-name="uni030C" unicode="&#x30c;" horiz-adv-x="0" 
d="M19 765h93l51 -61h2l51 61h93l-106 -152h-78z" />
    <glyph glyph-name="uni0312" unicode="&#x312;" horiz-adv-x="0" 
d="M116.5 742.5q-13.5 -10.5 -13.5 -28.5v-6h50v-95h-101v100q0 42 28 66.5t73 24.5v-51q-23 0 -36.5 -10.5z" />
    <glyph glyph-name="uni0326" unicode="&#x326;" horiz-adv-x="0" 
d="M80 -182.5q14 10.5 14 28.5v7h-51v94h101v-100q0 -42 -28 -66t-73 -24v50q23 0 37 10.5z" />
    <glyph glyph-name="uni0327" unicode="&#x327;" horiz-adv-x="0" 
d="M18 -192v72h76q11 0 18 6t7 16t-7 16t-18 6h-29v109h66v-70q37 -3 57 -22t20 -51q0 -36 -24.5 -59t-69.5 -23h-96z" />
    <glyph glyph-name="uni0328" unicode="&#x328;" horiz-adv-x="0" 
d="M172 -107v-83h-20q-65 0 -100 27.5t-35 71.5q0 27 13.5 51t40.5 38v11h27l40 -9h-1q-19 0 -33.5 -14.5t-14.5 -35.5q0 -26 20.5 -41.5t51.5 -15.5h11z" />
    <glyph glyph-name="uni0394" unicode="&#x394;" horiz-adv-x="648" 
d="M16 89l246 611h124l247 -611v-89h-617v89zM516 90v2l-192 492l-191 -492v-2h383z" />
    <glyph glyph-name="uni03A9" unicode="&#x3a9;" horiz-adv-x="746" 
d="M54 91h169v2q-93 49 -140 124.5t-47 167.5q0 94 41.5 169.5t118.5 118.5t177 43t177 -43t118.5 -118.5t41.5 -169.5q0 -92 -47 -167.5t-139 -124.5v-2h168v-91h-257v97q80 56 119 126.5t39 159.5q0 76 -28.5 130.5t-78.5 83t-113 27.5q-63 1 -113 -27.5t-78.5 -83
t-28.5 -130.5q0 -88 39 -159t119 -127v-97h-257v91z" />
    <glyph glyph-name="uni03BC" unicode="&#x3bc;" horiz-adv-x="611" 
d="M68 550h108v-361q0 -58 32 -86t78 -28q58 0 96.5 41.5t38.5 117.5v316h108v-423q0 -19 8.5 -27.5t27.5 -8.5h31v-91h-80q-43 0 -66.5 22t-23.5 60v18h-2q-18 -56 -56 -85t-87 -29q-35 0 -62.5 15t-42.5 44v-221h-108v726z" />
    <glyph glyph-name="pi" unicode="&#x3c0;" horiz-adv-x="569" 
d="M103 459h-89v91h541v-91h-89v-332q0 -20 8 -28t28 -8h31v-91h-81q-46 0 -71.5 25.5t-25.5 71.5v362h-142v-459h-110v459z" />
    <glyph glyph-name="uni1E20" unicode="&#x1e20;" 
d="M196 29.5q-75 45.5 -117.5 128.5t-42.5 193q0 108 41.5 190.5t119 128.5t183.5 46q96 0 168 -38t111 -102.5t43 -143.5h-116q-2 53 -27.5 96t-72 68t-106.5 25q-69 0 -119.5 -33t-78 -94t-27.5 -143q0 -84 29.5 -145.5t81 -94t116.5 -32.5q60 0 106 26t73 66t34 83h-225
v93h279q26 0 40.5 -14t14.5 -39v-294h-104l19 138h-2q-33 -75 -96.5 -114.5t-153.5 -39.5q-96 0 -171 45.5zM232 880h290v-90h-290v90z" />
    <glyph glyph-name="uni1E21" unicode="&#x1e21;" horiz-adv-x="567" 
d="M69 -166q-43 34 -43 90q0 42 24 72t70 42v2q-31 11 -49.5 35t-18.5 56q0 37 23.5 60.5t59.5 27.5l13 1v2q-48 20 -75.5 60.5t-27.5 95.5q0 58 29.5 100.5t80 65t111.5 22.5q60 0 109 -21.5t78 -61.5h3q2 32 20 49.5t49 17.5h23v-91h-38q-15 0 -22 -6t-9 -20q8 -27 8 -55
q0 -57 -29 -100t-79 -66t-111 -23h-68q-53 0 -53 -38q0 -19 13.5 -29t39.5 -10h176q83 0 130.5 -41.5t47.5 -113.5q0 -73 -47.5 -115t-130.5 -42h-183q-81 0 -124 34zM141 -99q21 -19 62 -19h162q38 0 60 18.5t22 52.5q0 33 -22 51.5t-60 18.5h-162q-40 0 -61.5 -19.5
t-21.5 -51.5t21 -51zM183 298q33 -26 83 -26t83.5 26t33.5 77q0 50 -33.5 76t-83.5 26t-83 -26t-33 -76q0 -51 33 -77zM121 730h290v-90h-290v90z" />
    <glyph glyph-name="Wgrave" unicode="&#x1e80;" horiz-adv-x="928" 
d="M10 700h116l139 -552h2l130 552h137l128 -552h2l138 552h116l-191 -700h-129l-133 565h-2l-133 -565h-129zM312 915h121l80 -152h-96z" />
    <glyph glyph-name="wgrave" unicode="&#x1e81;" horiz-adv-x="757" 
d="M9 550h114l98 -414h2l94 414h123l94 -414h2l98 414h114l-153 -550h-118l-98 400h-2l-98 -400h-119zM225 765h121l80 -152h-96z" />
    <glyph glyph-name="Wacute" unicode="&#x1e82;" horiz-adv-x="928" 
d="M10 700h116l139 -552h2l130 552h137l128 -552h2l138 552h116l-191 -700h-129l-133 565h-2l-133 -565h-129zM494 915h121l-100 -152h-101z" />
    <glyph glyph-name="wacute" unicode="&#x1e83;" horiz-adv-x="757" 
d="M9 550h114l98 -414h2l94 414h123l94 -414h2l98 414h114l-153 -550h-118l-98 400h-2l-98 -400h-119zM408 765h121l-100 -152h-101z" />
    <glyph glyph-name="Wdieresis" unicode="&#x1e84;" horiz-adv-x="928" 
d="M10 700h116l139 -552h2l130 552h137l128 -552h2l138 552h116l-191 -700h-129l-133 565h-2l-133 -565h-129zM330 902h108v-107h-108v107zM492 902h108v-107h-108v107z" />
    <glyph glyph-name="wdieresis" unicode="&#x1e85;" horiz-adv-x="757" 
d="M9 550h114l98 -414h2l94 414h123l94 -414h2l98 414h114l-153 -550h-118l-98 400h-2l-98 -400h-119zM243 752h108v-107h-108v107zM405 752h108v-107h-108v107z" />
    <glyph glyph-name="uni1E9E" unicode="&#x1e9e;" horiz-adv-x="871" 
d="M402 17q-66 33 -103 91.5t-39 133.5h115q4 -77 53 -120t131 -43q77 0 116.5 36t39.5 90q0 48 -32.5 78t-95.5 30h-78q-66 0 -113.5 22t-72 60t-24.5 86q0 76 55 122v2h-91q-80 0 -80 -84v-521h-113v533q0 78 44.5 122.5t128.5 44.5h530v-95h-242q-54 0 -84.5 -28
t-30.5 -72q0 -47 35 -72t96 -25h61q70 0 121 -25.5t78 -70.5t27 -101q0 -63 -34 -115t-97 -82t-148 -30q-87 0 -153 33z" />
    <glyph glyph-name="uni1EA0" unicode="&#x1ea0;" horiz-adv-x="671" 
d="M278 700h114l264 -700h-120l-61 175h-280l-62 -175h-118zM442 269l-41 116q-23 64 -53 155q-3 12 -6.5 22t-6.5 18h-1l-17 -51q-25 -77 -49 -146l-40 -114h214zM278 -55h112v-104h-112v104z" />
    <glyph glyph-name="uni1EA1" unicode="&#x1ea1;" horiz-adv-x="595" 
d="M340 15q-50 -31 -116 -31q-83 0 -136 46t-53 129q0 88 59.5 130.5t149.5 42.5h88q81 0 81 63q0 40 -32 61t-82 21q-58 0 -93 -27.5t-39 -77.5h-111q6 91 66.5 142.5t175.5 51.5q114 0 168.5 -51t54.5 -138v-250q0 -19 8.5 -27.5t27.5 -8.5h23v-91h-72q-43 0 -66.5 22
t-23.5 60v26h-2q-26 -62 -76 -93zM174.5 98.5q25.5 -24.5 77.5 -24.5q68 0 114.5 44.5t46.5 130.5v57h-2q-14 -29 -40.5 -42.5t-72.5 -14.5l-43 -1q-54 -1 -80 -25t-26 -62t25.5 -62.5zM243 -55h112v-104h-112v104z" />
    <glyph glyph-name="uni1EAC" unicode="&#x1eac;" horiz-adv-x="671" 
d="M278 700h114l264 -700h-120l-61 175h-280l-62 -175h-118zM295 915h78l106 -152h-93l-51 65h-2l-51 -65h-93zM442 269l-41 116q-23 64 -53 155q-3 12 -6.5 22t-6.5 18h-1l-17 -51q-25 -77 -49 -146l-40 -114h214zM278 -55h112v-104h-112v104z" />
    <glyph glyph-name="uni1EAD" unicode="&#x1ead;" horiz-adv-x="595" 
d="M340 15q-50 -31 -116 -31q-83 0 -136 46t-53 129q0 88 59.5 130.5t149.5 42.5h88q81 0 81 63q0 40 -32 61t-82 21q-58 0 -93 -27.5t-39 -77.5h-111q6 91 66.5 142.5t175.5 51.5q114 0 168.5 -51t54.5 -138v-250q0 -19 8.5 -27.5t27.5 -8.5h23v-91h-72q-43 0 -66.5 22
t-23.5 60v26h-2q-26 -62 -76 -93zM174.5 98.5q25.5 -24.5 77.5 -24.5q68 0 114.5 44.5t46.5 130.5v57h-2q-14 -29 -40.5 -42.5t-72.5 -14.5l-43 -1q-54 -1 -80 -25t-26 -62t25.5 -62.5zM259 765h78l106 -152h-93l-51 65h-2l-51 -65h-93zM243 -55h112v-104h-112v104z" />
    <glyph glyph-name="uni1EB8" unicode="&#x1eb8;" horiz-adv-x="581" 
d="M70 700h489v-93h-375v-209h336v-93h-336v-212h376v-93h-490v700zM264 -55h112v-104h-112v104z" />
    <glyph glyph-name="uni1EB9" unicode="&#x1eb9;" horiz-adv-x="587" 
d="M157 19.5q-61 35.5 -95 101.5t-34 154q0 89 34 154.5t95.5 101t140.5 35.5q76 0 135.5 -31.5t93.5 -91.5t34 -143v-58h-418q4 -75 46 -122t111 -47q51 0 88.5 25.5t52.5 70.5h114q-18 -83 -87.5 -134t-168.5 -51q-81 0 -142 35.5zM450 326q0 68 -40 109.5t-109 41.5
q-70 0 -109.5 -41.5t-47.5 -109.5h306zM238 -55h112v-104h-112v104z" />
    <glyph glyph-name="uni1EBC" unicode="&#x1ebc;" horiz-adv-x="581" 
d="M70 700h489v-93h-375v-209h336v-93h-336v-212h376v-93h-490v700zM347.5 772q-21.5 12 -47.5 35q-17 16 -29.5 23.5t-25.5 7.5q-18 0 -30 -16t-12 -46v-6h-77v16q0 62 32.5 98t81.5 36q31 0 52.5 -12t47.5 -35q17 -16 29.5 -23.5t25.5 -7.5q18 0 30 16t12 46v6h77v-16
q0 -62 -32.5 -98t-81.5 -36q-31 0 -52.5 12z" />
    <glyph glyph-name="uni1EBD" unicode="&#x1ebd;" horiz-adv-x="587" 
d="M157 19.5q-61 35.5 -95 101.5t-34 154q0 89 34 154.5t95.5 101t140.5 35.5q76 0 135.5 -31.5t93.5 -91.5t34 -143v-58h-418q4 -75 46 -122t111 -47q51 0 88.5 25.5t52.5 70.5h114q-18 -83 -87.5 -134t-168.5 -51q-81 0 -142 35.5zM450 326q0 68 -40 109.5t-109 41.5
q-70 0 -109.5 -41.5t-47.5 -109.5h306zM321.5 622q-21.5 12 -47.5 35q-17 16 -29.5 23.5t-25.5 7.5q-18 0 -30 -16t-12 -46v-6h-77v16q0 62 32.5 98t81.5 36q31 0 52.5 -12t47.5 -35q17 -16 29.5 -23.5t25.5 -7.5q18 0 30 16t12 46v6h77v-16q0 -62 -32.5 -98t-81.5 -36
q-31 0 -52.5 12z" />
    <glyph glyph-name="uni1ECA" unicode="&#x1eca;" horiz-adv-x="253" 
d="M70 700h113v-700h-113v700zM71 -55h112v-104h-112v104z" />
    <glyph glyph-name="uni1ECB" unicode="&#x1ecb;" horiz-adv-x="245" 
d="M68 550h108v-550h-108v550zM48 -55h112v-104h-112v104zM67 752h110v-107h-110v107z" />
    <glyph glyph-name="uni1ECC" unicode="&#x1ecc;" 
d="M206.5 27q-78.5 43 -124.5 126t-46 197t46 197t124.5 126t173.5 43t173.5 -43t124.5 -126t46 -197t-46 -197t-124.5 -126t-173.5 -43t-173.5 43zM184.5 200q29.5 -61 80 -91t115.5 -30t116 30t80 91t29 150t-29 150t-80 91t-116 30t-115.5 -30t-80 -91t-29.5 -150
t29.5 -150zM324 -55h112v-104h-112v104z" />
    <glyph glyph-name="uni1ECD" unicode="&#x1ecd;" horiz-adv-x="608" 
d="M163.5 18.5q-62.5 34.5 -99 100t-36.5 156.5t36.5 156.5t99 100t140.5 34.5t140.5 -34.5t99 -100t36.5 -156.5t-36.5 -156.5t-99 -100t-140.5 -34.5t-140.5 34.5zM187 125.5q45 -52.5 117 -52.5t117 52.5t45 149.5t-45 149.5t-117 52.5t-117 -52.5t-45 -149.5t45 -149.5z
M248 -55h112v-104h-112v104z" />
    <glyph glyph-name="uni1EE4" unicode="&#x1ee4;" horiz-adv-x="700" 
d="M206.5 17q-63.5 33 -100 96.5t-36.5 151.5v435h113v-431q0 -91 46.5 -140.5t120.5 -49.5t121 49.5t47 140.5v431h112v-435q0 -88 -36.5 -151.5t-100 -96.5t-143.5 -33t-143.5 33zM294 -55h112v-104h-112v104z" />
    <glyph glyph-name="uni1EE5" unicode="&#x1ee5;" horiz-adv-x="601" 
d="M113.5 43.5q-50.5 59.5 -50.5 169.5v337h108v-326q0 -149 114 -149q60 0 99.5 41.5t39.5 127.5v306h108v-550h-106v94h-2q-24 -54 -68.5 -82t-103.5 -28q-88 0 -138.5 59.5zM245 -55h112v-104h-112v104z" />
    <glyph glyph-name="Ygrave" unicode="&#x1ef2;" horiz-adv-x="619" 
d="M253 278l-243 422h128l170 -319h2l171 319h128l-244 -422v-278h-112v278zM156 915h121l80 -152h-96z" />
    <glyph glyph-name="ygrave" unicode="&#x1ef3;" horiz-adv-x="550" 
d="M9 -109h151l59 139l-210 520h117l148 -390h2l148 390h116l-285 -708q-16 -42 -62 -42h-184v91zM122 765h121l80 -152h-96z" />
    <glyph glyph-name="uni1EF8" unicode="&#x1ef8;" horiz-adv-x="619" 
d="M253 278l-243 422h128l170 -319h2l171 319h128l-244 -422v-278h-112v278zM336.5 772q-21.5 12 -47.5 35q-17 16 -29.5 23.5t-25.5 7.5q-18 0 -30 -16t-12 -46v-6h-77v16q0 62 32.5 98t81.5 36q31 0 52.5 -12t47.5 -35q17 -16 29.5 -23.5t25.5 -7.5q18 0 30 16t12 46v6h77
v-16q0 -62 -32.5 -98t-81.5 -36q-31 0 -52.5 12z" />
    <glyph glyph-name="uni1EF9" unicode="&#x1ef9;" horiz-adv-x="550" 
d="M9 -109h151l59 139l-210 520h117l148 -390h2l148 390h116l-285 -708q-16 -42 -62 -42h-184v91zM302.5 622q-21.5 12 -47.5 35q-17 16 -29.5 23.5t-25.5 7.5q-18 0 -30 -16t-12 -46v-6h-77v16q0 62 32.5 98t81.5 36q31 0 52.5 -12t47.5 -35q17 -16 29.5 -23.5t25.5 -7.5
q18 0 30 16t12 46v6h77v-16q0 -62 -32.5 -98t-81.5 -36q-31 0 -52.5 12z" />
    <glyph glyph-name="uni2000" unicode="&#x2000;" horiz-adv-x="500" 
 />
    <glyph glyph-name="uni2001" unicode="&#x2001;" horiz-adv-x="1000" 
 />
    <glyph glyph-name="uni2002" unicode="&#x2002;" horiz-adv-x="500" 
 />
    <glyph glyph-name="uni2003" unicode="&#x2003;" horiz-adv-x="1000" 
 />
    <glyph glyph-name="uni2004" unicode="&#x2004;" horiz-adv-x="333" 
 />
    <glyph glyph-name="uni2005" unicode="&#x2005;" horiz-adv-x="250" 
 />
    <glyph glyph-name="uni2006" unicode="&#x2006;" horiz-adv-x="166" 
 />
    <glyph glyph-name="uni2007" unicode="&#x2007;" horiz-adv-x="700" 
 />
    <glyph glyph-name="uni2008" unicode="&#x2008;" horiz-adv-x="239" 
 />
    <glyph glyph-name="uni2009" unicode="&#x2009;" horiz-adv-x="125" 
 />
    <glyph glyph-name="uni200A" unicode="&#x200a;" horiz-adv-x="70" 
 />
    <glyph glyph-name="uni200B" unicode="&#x200b;" horiz-adv-x="0" 
 />
    <glyph glyph-name="endash" unicode="&#x2013;" horiz-adv-x="700" 
d="M100 325h500v-88h-500v88z" />
    <glyph glyph-name="emdash" unicode="&#x2014;" horiz-adv-x="1180" 
d="M100 325h980v-88h-980v88z" />
    <glyph glyph-name="uni2015" unicode="&#x2015;" horiz-adv-x="1180" 
d="M100 325h980v-88h-980v88z" />
    <glyph glyph-name="quoteleft" unicode="&#x2018;" horiz-adv-x="240" 
d="M142 628.5q-20 -19.5 -20 -51.5v-41h64v-120h-115v151q0 61 34.5 97t92.5 36v-52q-36 0 -56 -19.5z" />
    <glyph glyph-name="quoteright" unicode="&#x2019;" horiz-adv-x="239" 
d="M106 487.5q20 19.5 20 51.5v41h-64v120h115v-151q0 -61 -34.5 -97t-92.5 -36v52q36 0 56 19.5z" />
    <glyph glyph-name="quotesinglbase" unicode="&#x201a;" horiz-adv-x="248" 
d="M106 -92.5q20 19.5 20 51.5v41h-64v120h115v-151q0 -61 -34.5 -97t-92.5 -36v52q36 0 56 19.5z" />
    <glyph glyph-name="quotedblleft" unicode="&#x201c;" horiz-adv-x="408" 
d="M302 628.5q-20 -19.5 -20 -51.5v-41h64v-120h-115v151q0 61 34.5 97t92.5 36v-52q-36 0 -56 -19.5zM71 567q0 61 34.5 97t92.5 36v-52q-36 0 -56 -19.5t-20 -51.5v-41h64v-120h-115v151z" />
    <glyph glyph-name="quotedblright" unicode="&#x201d;" horiz-adv-x="408" 
d="M106 487.5q20 19.5 20 51.5v41h-64v120h115v-151q0 -61 -34.5 -97t-92.5 -36v52q36 0 56 19.5zM266 487.5q20 19.5 20 51.5v41h-64v120h115v-151q0 -61 -34.5 -97t-92.5 -36v52q36 0 56 19.5z" />
    <glyph glyph-name="quotedblbase" unicode="&#x201e;" horiz-adv-x="408" 
d="M106 -92.5q20 19.5 20 51.5v41h-64v120h115v-151q0 -61 -34.5 -97t-92.5 -36v52q36 0 56 19.5zM266 -92.5q20 19.5 20 51.5v41h-64v120h115v-151q0 -61 -34.5 -97t-92.5 -36v52q36 0 56 19.5z" />
    <glyph glyph-name="dagger" unicode="&#x2020;" horiz-adv-x="445" 
d="M170 569h-126v98h126v133h105v-133h126v-98h-126v-341h-105v341z" />
    <glyph glyph-name="daggerdbl" unicode="&#x2021;" horiz-adv-x="445" 
d="M170 349h-126v98h126v124h-126v98h126v131h105v-131h126v-98h-126v-124h126v-98h-126v-131h-105v131z" />
    <glyph glyph-name="bullet" unicode="&#x2022;" horiz-adv-x="400" 
d="M124 130q-35 20 -55.5 55t-20.5 76t20.5 76t55.5 55t77 20q41 0 75.5 -20t55 -55t20.5 -76t-20.5 -76t-55 -55t-75.5 -20q-42 0 -77 20z" />
    <glyph glyph-name="ellipsis" unicode="&#x2026;" horiz-adv-x="626" 
d="M255 117h115v-117h-115v117zM449 117h115v-117h-115v117zM62 117h115v-117h-115v117z" />
    <glyph glyph-name="uni202F" unicode="&#x202f;" horiz-adv-x="45" 
 />
    <glyph glyph-name="perthousand" unicode="&#x2030;" horiz-adv-x="1281" 
d="M639 700h115l-489 -700h-115zM100.5 660.5q48.5 45.5 122.5 45.5t122.5 -45.5t48.5 -125.5q0 -79 -48.5 -124.5t-122.5 -45.5t-122.5 45.5t-48.5 124.5q0 80 48.5 125.5zM164 465.5q23 -24.5 59 -24.5t59 24.5t23 69.5q0 46 -23 70.5t-59 24.5t-59 -24.5t-23 -70.5
q0 -45 23 -69.5zM532.5 255q22.5 39 61.5 59.5t86 20.5q48 0 87 -20.5t61.5 -59.5t22.5 -91t-22.5 -90.5t-61.5 -59t-87 -20.5q-47 0 -86 20.5t-61.5 59t-22.5 90.5t22.5 91zM621 94.5q23 -24.5 59 -24.5q37 0 59.5 24t22.5 70t-23 70.5t-59 24.5t-59 -25t-23 -70t23 -69.5z
M925.5 255q22.5 39 61.5 59.5t86 20.5q48 0 87 -20.5t62 -59.5t23 -91t-23 -90.5t-62 -59t-87 -20.5q-47 0 -86 20.5t-61.5 59t-22.5 90.5t22.5 91zM1014 94.5q23 -24.5 59 -24.5q37 0 59.5 24t22.5 70t-23 70.5t-59 24.5t-59 -25t-23 -70t23 -69.5z" />
    <glyph glyph-name="minute" unicode="&#x2032;" horiz-adv-x="266" 
d="M222 700l-89 -257h-89l69 257h109z" />
    <glyph glyph-name="second" unicode="&#x2033;" horiz-adv-x="450" 
d="M238 700l-89 -257h-89l70 257h108zM298 700h108l-89 -257h-89z" />
    <glyph glyph-name="guilsinglleft" unicode="&#x2039;" horiz-adv-x="319" 
d="M131.5 190.5q-34.5 42.5 -87.5 46.5v85q53 4 87.5 46.5t39.5 106.5h104q-7 -69 -44 -122.5t-95 -72.5v-1q58 -19 95 -72.5t44 -122.5h-104q-5 64 -39.5 106.5z" />
    <glyph glyph-name="guilsinglright" unicode="&#x203a;" horiz-adv-x="319" 
d="M187.5 368.5q34.5 -42.5 87.5 -46.5v-85q-53 -4 -87.5 -46.5t-39.5 -106.5h-104q7 69 44 122.5t95 72.5v1q-58 19 -95 72.5t-44 122.5h104q5 -64 39.5 -106.5z" />
    <glyph glyph-name="uni203D" unicode="&#x203d;" horiz-adv-x="610" 
d="M216 430v106h116v-106l-6 -107h2q7 12 14.5 20t21.5 16l19 14q67 43 67 124q0 61 -38 95.5t-104 34.5q-69 0 -113 -37t-45 -104h-114q1 70 36 121.5t96.5 79.5t139.5 28q82 0 139.5 -29t87 -77.5t29.5 -107.5q0 -143 -172 -214l-32 -14q-24 -10 -31 -20.5t-9 -39.5
l-3 -38h-90zM215 117h119v-117h-119v117z" />
    <glyph glyph-name="fraction" unicode="&#x2044;" horiz-adv-x="274" 
d="M334 700h94l-488 -700h-94z" />
    <glyph glyph-name="uni2070" unicode="&#x2070;" horiz-adv-x="262" 
d="M47.5 451.5q-29.5 38.5 -29.5 108.5t29.5 108.5t83.5 38.5t83.5 -38.5t29.5 -108.5t-29.5 -108.5t-83.5 -38.5t-83.5 38.5zM131 460q55 0 55 100t-55 100t-55 -100t55 -100z" />
    <glyph glyph-name="uni2074" unicode="&#x2074;" horiz-adv-x="244" 
d="M14 519l119 181h65v-179h37v-48h-37v-53h-54v53h-130v46zM144 521v127h-1l-76 -126v-1h77z" />
    <glyph glyph-name="uni2075" unicode="&#x2075;" horiz-adv-x="247" 
d="M51.5 436.5q-27.5 23.5 -33.5 62.5h56q1 -18 15 -28.5t33 -10.5q22 0 35.5 14t13.5 37q0 22 -14 35.5t-37 13.5q-25 0 -45 -18h-56l23 158h168v-49h-123l-11 -74h1q23 28 62 28q37 0 63.5 -26t26.5 -67q0 -44 -30.5 -71.5t-77.5 -27.5q-42 0 -69.5 23.5z" />
    <glyph glyph-name="uni2076" unicode="&#x2076;" horiz-adv-x="253" 
d="M49.5 447.5q-31.5 35.5 -31.5 110.5q0 72 30 111t82 39q45 0 71.5 -26.5t26.5 -63.5h-56q0 19 -12 30.5t-30 11.5q-26 0 -41 -24.5t-14 -74.5h1q9 21 27 33t41 12q37 0 64 -27t27 -69q0 -44 -30 -71t-75 -27q-49 0 -80.5 35.5zM95.5 474q13.5 -14 33.5 -14q21 0 35 14
t14 36t-14 35.5t-35 13.5t-34 -13.5t-13 -35.5t13.5 -36z" />
    <glyph glyph-name="uni2077" unicode="&#x2077;" horiz-adv-x="205" 
d="M70 552q34 67 87 98v1h-148v49h191v-46q-51 -37 -78.5 -103.5t-27.5 -130.5h-58q0 65 34 132z" />
    <glyph glyph-name="uni2078" unicode="&#x2078;" horiz-adv-x="245" 
d="M48 436q-30 23 -30 62q0 27 15.5 45.5t45.5 25.5v1q-51 15 -51 60q0 35 27 56t68 21t67.5 -21t26.5 -56q0 -45 -50 -60v-1q31 -8 45.5 -26.5t14.5 -44.5q0 -39 -29.5 -62t-74.5 -23t-75 23zM88.5 471.5q13.5 -11.5 34.5 -11.5q20 0 33.5 11.5t13.5 32.5q0 20 -13.5 31.5
t-33.5 11.5t-34 -11.5t-14 -31.5q0 -21 13.5 -32.5zM95 600.5q11 -9.5 28 -9.5t27.5 9t10.5 25t-10.5 25.5t-27.5 9.5t-28 -9.5t-11 -25.5q0 -15 11 -24.5z" />
    <glyph glyph-name="uni2079" unicode="&#x2079;" horiz-adv-x="253" 
d="M203.5 672.5q31.5 -35.5 31.5 -110.5q0 -72 -30 -111t-82 -39q-45 0 -71.5 26.5t-26.5 63.5h56q0 -19 12 -30.5t30 -11.5q26 0 41 24.5t14 74.5h-1q-9 -21 -27 -33t-41 -12q-37 0 -64 27t-27 69q0 44 30 71t75 27q49 0 80.5 -35.5zM89 574.5q14 -13.5 35 -13.5t34 13.5
t13 35.5t-13.5 36t-33.5 14q-21 0 -35 -14t-14 -36t14 -35.5z" />
    <glyph glyph-name="uni207A" unicode="&#x207a;" horiz-adv-x="309" 
d="M130 537h-90v47h90v94h48v-94h91v-47h-91v-95h-48v95z" />
    <glyph glyph-name="uni207B" unicode="&#x207b;" horiz-adv-x="287" 
d="M40 584h207v-47h-207v47z" />
    <glyph glyph-name="uni207C" unicode="&#x207c;" horiz-adv-x="268" 
d="M39 634h190v-47h-190v47zM39 536h190v-47h-190v47z" />
    <glyph glyph-name="uni207D" unicode="&#x207d;" horiz-adv-x="149" 
d="M40 560q0 79 34 147h55q-34 -68 -34 -147t34 -147h-55q-34 68 -34 147z" />
    <glyph glyph-name="uni207E" unicode="&#x207e;" horiz-adv-x="149" 
d="M54 560q0 79 -34 147h55q34 -68 34 -147t-34 -147h-55q34 68 34 147z" />
    <glyph glyph-name="uni2080" unicode="&#x2080;" horiz-adv-x="262" 
d="M47.5 31.5q-29.5 38.5 -29.5 108.5t29.5 108.5t83.5 38.5t83.5 -38.5t29.5 -108.5t-29.5 -108.5t-83.5 -38.5t-83.5 38.5zM131 40q55 0 55 100t-55 100t-55 -100t55 -100z" />
    <glyph glyph-name="uni2081" unicode="&#x2081;" horiz-adv-x="168" 
d="M134 0h-55v201h-1q-4 -28 -39 -28h-24v52h24q40 0 40 36v19h55v-280z" />
    <glyph glyph-name="uni2082" unicode="&#x2082;" horiz-adv-x="245" 
d="M34 91.5q16 20.5 62 46.5l20 11q25 13 35 24.5t10 27.5q0 20 -11 29.5t-28 9.5q-19 0 -29.5 -12t-10.5 -34h-56q-1 45 25.5 69t71.5 24q43 0 69.5 -22.5t26.5 -61.5q0 -62 -79 -101l-22 -11q-26 -13 -33 -21t-7 -17h149v-53h-209v36q0 35 16 55.5z" />
    <glyph glyph-name="uni2083" unicode="&#x2083;" horiz-adv-x="252" 
d="M49 17.5q-30 24.5 -31 69.5h57q0 -22 15 -34.5t38 -12.5q22 0 36 11t14 31t-13.5 32t-37.5 12h-42v47h35q23 0 35.5 10t12.5 25q0 16 -12 24t-29 8t-28.5 -8.5t-11.5 -26.5h-57q0 36 26.5 59t70.5 23q43 0 70 -21.5t27 -52.5q0 -23 -14 -41t-42 -21v-1q35 -5 50.5 -24
t15.5 -46q0 -39 -29 -63t-78 -24q-48 0 -78 24.5z" />
    <glyph glyph-name="uni2084" unicode="&#x2084;" horiz-adv-x="244" 
d="M14 99l119 181h65v-179h37v-48h-37v-53h-54v53h-130v46zM144 101v127h-1l-76 -126v-1h77z" />
    <glyph glyph-name="uni2085" unicode="&#x2085;" horiz-adv-x="247" 
d="M51.5 16.5q-27.5 23.5 -33.5 62.5h56q1 -18 15 -28.5t33 -10.5q22 0 35.5 14t13.5 37q0 22 -14 35.5t-37 13.5q-25 0 -45 -18h-56l23 158h168v-49h-123l-11 -74h1q23 28 62 28q37 0 63.5 -26t26.5 -67q0 -44 -30.5 -71.5t-77.5 -27.5q-42 0 -69.5 23.5z" />
    <glyph glyph-name="uni2086" unicode="&#x2086;" horiz-adv-x="253" 
d="M49.5 27.5q-31.5 35.5 -31.5 110.5q0 72 30 111t82 39q45 0 71.5 -26.5t26.5 -63.5h-56q0 19 -12 30.5t-30 11.5q-26 0 -41 -24.5t-14 -74.5h1q9 21 27 33t41 12q37 0 64 -27t27 -69q0 -44 -30 -71t-75 -27q-49 0 -80.5 35.5zM95.5 54q13.5 -14 33.5 -14q21 0 35 14
t14 36t-14 35.5t-35 13.5t-34 -13.5t-13 -35.5t13.5 -36z" />
    <glyph glyph-name="uni2087" unicode="&#x2087;" horiz-adv-x="205" 
d="M70 132q34 67 87 98v1h-148v49h191v-46q-51 -37 -78.5 -103.5t-27.5 -130.5h-58q0 65 34 132z" />
    <glyph glyph-name="uni2088" unicode="&#x2088;" horiz-adv-x="245" 
d="M48 16q-30 23 -30 62q0 27 15.5 45.5t45.5 25.5v1q-51 15 -51 60q0 35 27 56t68 21t67.5 -21t26.5 -56q0 -45 -50 -60v-1q31 -8 45.5 -26.5t14.5 -44.5q0 -39 -29.5 -62t-74.5 -23t-75 23zM88.5 51.5q13.5 -11.5 34.5 -11.5q20 0 33.5 11.5t13.5 32.5q0 20 -13.5 31.5
t-33.5 11.5t-34 -11.5t-14 -31.5q0 -21 13.5 -32.5zM95 180.5q11 -9.5 28 -9.5t27.5 9t10.5 25t-10.5 25.5t-27.5 9.5t-28 -9.5t-11 -25.5q0 -15 11 -24.5z" />
    <glyph glyph-name="uni2089" unicode="&#x2089;" horiz-adv-x="253" 
d="M203.5 252.5q31.5 -35.5 31.5 -110.5q0 -72 -30 -111t-82 -39q-45 0 -71.5 26.5t-26.5 63.5h56q0 -19 12 -30.5t30 -11.5q26 0 41 24.5t14 74.5h-1q-9 -21 -27 -33t-41 -12q-37 0 -64 27t-27 69q0 44 30 71t75 27q49 0 80.5 -35.5zM89 154.5q14 -13.5 35 -13.5t34 13.5
t13 35.5t-13.5 36t-33.5 14q-21 0 -35 -14t-14 -36t14 -35.5z" />
    <glyph glyph-name="uni208A" unicode="&#x208a;" horiz-adv-x="309" 
d="M130 116h-90v47h90v94h48v-94h91v-47h-91v-95h-48v95z" />
    <glyph glyph-name="uni208B" unicode="&#x208b;" horiz-adv-x="287" 
d="M40 163h207v-47h-207v47z" />
    <glyph glyph-name="uni208C" unicode="&#x208c;" horiz-adv-x="268" 
d="M39 213h190v-47h-190v47zM39 115h190v-47h-190v47z" />
    <glyph glyph-name="uni208D" unicode="&#x208d;" horiz-adv-x="149" 
d="M40 140q0 79 34 147h55q-34 -68 -34 -147t34 -147h-55q-34 68 -34 147z" />
    <glyph glyph-name="uni208E" unicode="&#x208e;" horiz-adv-x="149" 
d="M54 140q0 79 -34 147h55q34 -68 34 -147t-34 -147h-55q34 68 34 147z" />
    <glyph glyph-name="Euro" unicode="&#x20ac;" horiz-adv-x="787" 
d="M240.5 51.5q-82.5 66.5 -111.5 183.5h-88l24 88h52q-1 9 -1 28t1 28h-75l23 88h64q28 115 109.5 181.5t203.5 66.5q92 0 159 -37.5t105 -101.5t45 -143h-118q-3 52 -26 95t-65 68.5t-100 25.5q-73 0 -123.5 -40.5t-72.5 -114.5h299l-23 -88h-291q-1 -9 -1 -28t1 -28h276
l-24 -88h-237q24 -75 75.5 -116t120.5 -41q56 0 97.5 26t65 67t28.5 85h118q-9 -74 -47.5 -135.5t-105.5 -98.5t-156 -37q-119 0 -201.5 66.5z" />
    <glyph glyph-name="uni20BF" unicode="&#x20bf;" horiz-adv-x="664" 
d="M252 800h96l-6 -100h26q63 0 111 -22t74.5 -61.5t26.5 -90.5q0 -61 -37.5 -100t-104.5 -46v-2q90 -3 141 -50t51 -123q0 -58 -29.5 -104.5t-85 -73.5t-128.5 -27h-45l6 -96h-96l6 96h-188v700h188zM369 95q71 0 107.5 30t36.5 83t-37 83t-107 30h-186v-226h186zM348 414
q56 0 86 26t30 70t-30 69.5t-86 25.5h-165v-191h165z" />
    <glyph glyph-name="trademark" unicode="&#x2122;" horiz-adv-x="777" 
d="M142 632h-99v68h274v-68h-100v-286h-75v286zM350 700h114l77 -258l77 258h114v-354h-74v264l-79 -264h-76l-79 264v-264h-74v354z" />
    <glyph glyph-name="estimated" unicode="&#x212e;" horiz-adv-x="743" 
d="M199.5 29.5q-77.5 44.5 -120.5 127.5t-43 193q0 111 43.5 194t120.5 127.5t176 44.5q94 0 169.5 -40t118.5 -116t43 -179v-67h-519v-155q65 -81 190 -81q80 0 139.5 37.5t83.5 100.5h98q-15 -67 -60 -119.5t-112.5 -82t-149.5 -29.5q-100 0 -177.5 44.5zM557 408v145
q-31 34 -77.5 52t-104.5 18q-63 0 -110 -20t-77 -57v-138h369z" />
    <glyph glyph-name="oneeighth" unicode="&#x215b;" horiz-adv-x="991" 
d="M219 210h-86v358h-1q-9 -51 -67 -51h-43v83h43q69 0 69 67v33h85v-490zM613 700h94l-488 -700h-94zM641 26.5q-51 39.5 -51 106.5q0 46 27 80.5t79 46.5v2q-41 11 -64.5 40t-23.5 70q0 60 46 95.5t118 35.5q71 0 118 -35.5t47 -95.5q0 -42 -24 -70t-65 -40v-2
q51 -12 78.5 -46t27.5 -81q0 -67 -51.5 -106.5t-130.5 -39.5q-80 0 -131 39.5zM705.5 83.5q25.5 -21.5 66.5 -21.5t66.5 21.5t25.5 60.5t-26 61t-66 22t-66 -22t-26 -61t25.5 -60.5zM717.5 313q21.5 -17 54.5 -17q34 0 55.5 17.5t21.5 48.5t-21.5 48.5t-55.5 17.5
q-33 0 -54.5 -17.5t-21.5 -48.5q0 -32 21.5 -49z" />
    <glyph glyph-name="threeeighths" unicode="&#x215c;" horiz-adv-x="1162" 
d="M91 240q-52 43 -54 122h90q2 -41 28 -65.5t71 -24.5q42 0 70 21t28 61q0 37 -24 58t-66 21h-79v76h69q37 0 58.5 18.5t21.5 48.5t-22 46t-55 16q-35 0 -57 -18t-23 -51h-90q2 65 48 104.5t123 39.5q74 0 119.5 -36.5t45.5 -92.5q0 -40 -24 -70t-65 -39v-2
q52 -10 80.5 -44t28.5 -83q0 -68 -53 -108.5t-135 -40.5t-134 43zM784 700h94l-488 -700h-94zM812 26.5q-51 39.5 -51 106.5q0 46 27 80.5t79 46.5v2q-41 11 -64.5 40t-23.5 70q0 60 46 95.5t118 35.5q71 0 118 -35.5t47 -95.5q0 -42 -24 -70t-65 -40v-2q51 -12 78.5 -46
t27.5 -81q0 -67 -51.5 -106.5t-130.5 -39.5q-80 0 -131 39.5zM876.5 83.5q25.5 -21.5 66.5 -21.5t66.5 21.5t25.5 60.5t-26 61t-66 22t-66 -22t-26 -61t25.5 -60.5zM888.5 313q21.5 -17 54.5 -17q34 0 55.5 17.5t21.5 48.5t-21.5 48.5t-55.5 17.5q-33 0 -54.5 -17.5
t-21.5 -48.5q0 -32 21.5 -49z" />
    <glyph glyph-name="fiveeighths" unicode="&#x215d;" horiz-adv-x="1152" 
d="M94 238q-48 41 -57 109h87q4 -34 29.5 -54.5t62.5 -20.5q42 0 69.5 27t27.5 70t-27.5 69t-70.5 26q-55 0 -88 -40h-88l41 276h291v-76h-220l-24 -146h1q21 25 51 40t67 15q42 0 78 -20t57.5 -57t21.5 -85q0 -51 -24.5 -91t-67 -61.5t-95.5 -21.5q-74 0 -122 41zM774 700
h94l-488 -700h-94zM802 26.5q-51 39.5 -51 106.5q0 46 27 80.5t79 46.5v2q-41 11 -64.5 40t-23.5 70q0 60 46 95.5t118 35.5q71 0 118 -35.5t47 -95.5q0 -42 -24 -70t-65 -40v-2q51 -12 78.5 -46t27.5 -81q0 -67 -51.5 -106.5t-130.5 -39.5q-80 0 -131 39.5zM866.5 83.5
q25.5 -21.5 66.5 -21.5t66.5 21.5t25.5 60.5t-26 61t-66 22t-66 -22t-26 -61t25.5 -60.5zM878.5 313q21.5 -17 54.5 -17q34 0 55.5 17.5t21.5 48.5t-21.5 48.5t-55.5 17.5q-33 0 -54.5 -17.5t-21.5 -48.5q0 -32 21.5 -49z" />
    <glyph glyph-name="seveneighths" unicode="&#x215e;" horiz-adv-x="1062" 
d="M89.5 363.5q25.5 80.5 72 149.5t106.5 109v1h-258v77h330v-72q-60 -46 -101.5 -117t-62 -149.5t-20.5 -151.5h-92q0 73 25.5 153.5zM684 700h94l-488 -700h-94zM712 26.5q-51 39.5 -51 106.5q0 46 27 80.5t79 46.5v2q-41 11 -64.5 40t-23.5 70q0 60 46 95.5t118 35.5
q71 0 118 -35.5t47 -95.5q0 -42 -24 -70t-65 -40v-2q51 -12 78.5 -46t27.5 -81q0 -67 -51.5 -106.5t-130.5 -39.5q-80 0 -131 39.5zM776.5 83.5q25.5 -21.5 66.5 -21.5t66.5 21.5t25.5 60.5t-26 61t-66 22t-66 -22t-26 -61t25.5 -60.5zM788.5 313q21.5 -17 54.5 -17
q34 0 55.5 17.5t21.5 48.5t-21.5 48.5t-55.5 17.5q-33 0 -54.5 -17.5t-21.5 -48.5q0 -32 21.5 -49z" />
    <glyph glyph-name="arrowleft" unicode="&#x2190;" horiz-adv-x="681" 
d="M267 178q-33 58 -91 92.5t-136 34.5v91q78 1 136 35t91 92t41 131h103q-10 -87 -52 -155t-121 -98v-2l403 1v-99l-403 1v-2q79 -30 121 -98t52 -155h-103q-8 73 -41 131z" />
    <glyph glyph-name="arrowup" unicode="&#x2191;" horiz-adv-x="687" 
d="M171 519q58 33 92.5 91t34.5 136h91q1 -78 35 -136t92 -91t131 -41v-103q-87 10 -155 52t-98 121h-2l1 -403h-99l1 403h-2q-30 -79 -98 -121t-155 -52v103q73 8 131 41z" />
    <glyph glyph-name="arrowright" unicode="&#x2192;" horiz-adv-x="681" 
d="M322 202q42 68 121 98v2l-403 -1v99l403 -1v2q-79 30 -121 98t-52 155h103q8 -73 41 -131t91 -92t136 -35v-91q-78 0 -136 -34.5t-91 -92.5t-41 -131h-103q10 87 52 155z" />
    <glyph glyph-name="arrowdown" unicode="&#x2193;" horiz-adv-x="687" 
d="M195 273q68 -42 98 -121h2l-1 403h99l-1 -403h2q30 79 98 121t155 52v-103q-73 -8 -131 -41t-92 -91t-35 -136h-91q0 78 -34.5 136t-92.5 91t-131 41v103q87 -10 155 -52z" />
    <glyph glyph-name="arrowboth" unicode="&#x2194;" horiz-adv-x="784" 
d="M139 265.5q-40 38.5 -109 45.5v84q69 7 109 46t40 96h109q-6 -46 -30.5 -83t-71.5 -52v-2h413v2q-47 15 -72 52t-30 83h108q0 -58 40 -96.5t109 -45.5v-84q-69 -7 -109 -45.5t-40 -96.5h-108q5 46 30 83t72 52v2h-413v-2q47 -15 71.5 -52t30.5 -83h-109q0 58 -40 96.5z
" />
    <glyph glyph-name="arrowupdn" unicode="&#x2195;" horiz-adv-x="455" 
d="M140 100.5q-38 38.5 -94 38.5v108q45 -6 81 -30t51 -70h2v405h-2q-15 -46 -51 -70t-81 -30v108q56 0 94 38.5t44 105.5h86q7 -67 45 -105.5t94 -38.5v-108q-45 6 -81 30t-51 70h-2v-405h2q15 46 51 70t81 30v-108q-56 0 -94 -38.5t-45 -105.5h-86q-6 67 -44 105.5z" />
    <glyph glyph-name="uni2196" unicode="&#x2196;" horiz-adv-x="578" 
d="M343 572q-51 0 -101 22l-2 -1l286 -285l-70 -70l-284 286l-2 -1q22 -47 22 -101q0 -100 -78 -201l-73 73q72 89 72 188q0 104 -79 184l64 65q80 -80 183 -80q49 0 97.5 19t91.5 54l73 -73q-100 -79 -200 -79z" />
    <glyph glyph-name="uni2197" unicode="&#x2197;" horiz-adv-x="578" 
d="M199.5 670q48.5 -19 97.5 -19q103 0 183 80l64 -65q-79 -80 -79 -184q0 -99 72 -188l-73 -73q-78 101 -78 201q0 54 22 101l-2 1l-284 -286l-70 70l286 285l-2 1q-50 -22 -101 -22q-100 0 -200 79l73 73q43 -35 91.5 -54z" />
    <glyph glyph-name="uni2198" unicode="&#x2198;" horiz-adv-x="578" 
d="M235 127q51 0 101 -22l2 1l-286 285l70 70l284 -286l2 1q-22 47 -22 101q0 100 78 201l73 -73q-72 -89 -72 -188q0 -104 79 -184l-64 -65q-80 80 -183 80q-49 0 -97.5 -19t-91.5 -54l-73 73q100 79 200 79z" />
    <glyph glyph-name="uni2199" unicode="&#x2199;" horiz-adv-x="578" 
d="M378.5 29q-48.5 19 -97.5 19q-103 0 -183 -80l-64 65q79 80 79 184q0 99 -72 188l73 73q78 -101 78 -201q0 -54 -22 -101l2 -1l284 286l70 -70l-286 -285l2 -1q50 22 101 22q100 0 200 -79l-73 -73q-43 35 -91.5 54z" />
    <glyph glyph-name="partialdiff" unicode="&#x2202;" horiz-adv-x="555" 
d="M134 17q-50 32 -78 87.5t-28 123.5q0 71 31.5 131.5t85.5 95.5t117 35q43 0 80 -17.5t61 -53.5h2q-14 87 -67 145.5t-155 100.5l42 94q155 -60 228.5 -164.5t73.5 -251.5q0 -109 -38.5 -190t-102.5 -124.5t-139 -43.5q-63 0 -113 32zM172 116q30 -44 81 -44q43 0 79.5 31
t58.5 87t22 128v18q-22 32 -53.5 49.5t-68.5 17.5q-65 0 -107 -46.5t-42 -127.5q0 -69 30 -113z" />
    <glyph glyph-name="uni2206" unicode="&#x2206;" horiz-adv-x="648" 
d="M16 89l246 611h124l247 -611v-89h-617v89zM516 90v2l-192 492l-191 -492v-2h383z" />
    <glyph glyph-name="product" unicode="&#x220f;" horiz-adv-x="598" 
d="M580 606h-93v-806h-108v806h-160v-806h-108v806h-93v94h562v-94z" />
    <glyph glyph-name="summation" unicode="&#x2211;" horiz-adv-x="493" 
d="M30 -107l211 377l-211 337v93h443v-91h-316v-1l209 -332v-2l-214 -382v-1h321v-91h-443v93z" />
    <glyph glyph-name="minus" unicode="&#x2212;" horiz-adv-x="550" 
d="M52 339h446v-88h-446v88z" />
    <glyph glyph-name="radical" unicode="&#x221a;" horiz-adv-x="654" 
d="M20 326h101l95 -420h2l186 794h230v-92h-151l-192 -808h-147z" />
    <glyph glyph-name="infinity" unicode="&#x221e;" horiz-adv-x="935" 
d="M575 114.5q-53 34.5 -107 95.5q-54 -61 -107 -95.5t-121 -34.5q-53 0 -97.5 23.5t-71.5 67.5t-27 104t27 104t71.5 67.5t97.5 23.5q68 0 121 -34.5t107 -95.5q54 61 107 95.5t120 34.5q53 0 97.5 -23.5t71.5 -67.5t27 -104t-27 -104t-71.5 -67.5t-97.5 -23.5
q-67 0 -120 34.5zM170 197q30 -29 75 -29q44 0 82 27.5t84 79.5q-46 52 -84 79.5t-82 27.5q-45 0 -75 -29t-30 -78t30 -78zM608 195.5q38 -27.5 82 -27.5q46 0 76 29t30 78t-30 78t-76 29q-44 0 -82 -27.5t-84 -79.5q46 -52 84 -79.5z" />
    <glyph glyph-name="integral" unicode="&#x222b;" horiz-adv-x="601" 
d="M580 800v-90h-92q-37 0 -58 -21t-28 -66l-96 -656q-25 -167 -176 -167h-108v90h92q37 0 58 21t28 66l95 656q25 167 176 167h109z" />
    <glyph glyph-name="approxequal" unicode="&#x2248;" horiz-adv-x="526" 
d="M290 327.5q-25 14.5 -54 41.5q-21 19 -34 27.5t-29 8.5q-19 0 -30.5 -15.5t-11.5 -47.5h-87q0 67 34.5 110t95.5 43q37 0 62 -14.5t54 -41.5q21 -19 34 -27.5t29 -8.5q19 0 30.5 15.5t11.5 47.5h87q0 -67 -34.5 -110t-95.5 -43q-37 0 -62 14.5zM78.5 248q34.5 43 95.5 43
q37 0 62 -14.5t54 -41.5q21 -19 34 -27.5t29 -8.5q19 0 30.5 15.5t11.5 47.5h87q0 -67 -34.5 -110t-95.5 -43q-37 0 -62 14.5t-54 41.5q-21 19 -34 27.5t-29 8.5q-19 0 -30.5 -15.5t-11.5 -47.5h-87q0 67 34.5 110z" />
    <glyph glyph-name="notequal" unicode="&#x2260;" horiz-adv-x="672" 
d="M212 140h-132v90h180l60 110h-240v90h288l53 99h92l-53 -99h132v-90h-180l-60 -110h240v-90h-288l-53 -99h-92z" />
    <glyph glyph-name="lessequal" unicode="&#x2264;" horiz-adv-x="620" 
d="M50 301v107l520 136v-95l-413 -94l413 -94v-95zM50 116h520v-91h-520v91z" />
    <glyph glyph-name="greaterequal" unicode="&#x2265;" horiz-adv-x="620" 
d="M50 261l413 94l-413 94v95l520 -136v-107l-520 -135v95zM50 116h520v-91h-520v91z" />
    <glyph glyph-name="uni24C5" unicode="&#x24c5;" horiz-adv-x="798" 
d="M217.5 34.5q-83.5 49.5 -132.5 133.5t-49 183t49 182.5t132.5 132.5t181.5 49t181.5 -49t132 -132.5t48.5 -182.5t-48.5 -183t-132 -133.5t-181.5 -49.5t-181.5 49.5zM148 203q39 -68 105.5 -108t145.5 -40t145 40t105 108t39 148q0 79 -39 146.5t-105 107.5t-145 40
t-145.5 -39.5t-105.5 -107t-39 -147.5t39 -148zM276 539h162q65 0 104.5 -33.5t39.5 -95.5q0 -61 -39.5 -94t-104.5 -33h-80v-120h-82v376zM428 353q33 0 51.5 15t18.5 42t-17.5 43t-46.5 16h-76v-116h70z" />
    <glyph glyph-name="lozenge" unicode="&#x25ca;" horiz-adv-x="541" 
d="M493 350l-169 -350h-107l-169 350l169 351h107zM271 110l110 240l-110 241l-111 -241z" />
    <glyph glyph-name="uni2E18" unicode="&#x2e18;" horiz-adv-x="621" 
d="M384 270v-106h-116v106l6 107h-2q-7 -12 -14.5 -20t-21.5 -16l-19 -14q-67 -43 -67 -124q0 -61 38 -95.5t104 -34.5q69 0 113 37t45 104h114q-1 -70 -36 -121.5t-96.5 -79.5t-139.5 -28q-82 0 -139.5 29t-87 77.5t-29.5 107.5q0 143 172 214l32 14q24 10 31 20.5t9 39.5
l3 38h90zM266 700h119v-117h-119v117z" />
    <glyph glyph-name="uniA78B" unicode="&#xa78b;" horiz-adv-x="218" 
d="M74 578l-14 222h96v-467h-79z" />
    <glyph glyph-name="uniA78C" unicode="&#xa78c;" horiz-adv-x="216" 
d="M74 468l-14 202h96v-387h-79z" />
    <glyph glyph-name="uni004A0301" horiz-adv-x="560" 
d="M80 50q-65 66 -65 188h112q0 -79 33.5 -119t91.5 -40q59 0 92 39.5t33 119.5v462h113v-464q0 -121 -65 -186.5t-173 -65.5q-107 0 -172 66zM461 915h121l-100 -152h-101z" />
    <glyph glyph-name="uni013B.loclMAH" horiz-adv-x="505" 
d="M491 95v-95h-421v700h113v-605h308zM199 -120h76q10 0 17.5 6t7.5 16t-7.5 16t-17.5 6h-29v42h49q45 0 69.5 -19.5t24.5 -55.5q0 -37 -24.5 -60t-69.5 -23h-96v72z" />
    <glyph glyph-name="uni0145.loclMAH" horiz-adv-x="736" 
d="M183 543h-2l1 -120v-423h-112v700h145l339 -541h2l-1 120v421h111v-700h-142zM289 -120h76q10 0 17.5 6t7.5 16t-7.5 16t-17.5 6h-29v42h49q45 0 69.5 -19.5t24.5 -55.5q0 -37 -24.5 -60t-69.5 -23h-96v72z" />
    <glyph glyph-name="Y.ss04" horiz-adv-x="544" 
d="M12 92h243v2l-245 606h122l139 -372h2l139 372h122l-205 -500l43 -115q6 -13 6 -27q0 -25 -17.5 -41.5t-44.5 -16.5h-304v92z" />
    <glyph glyph-name="Yacute.ss04" horiz-adv-x="544" 
d="M12 92h243v2l-245 606h122l139 -372h2l139 372h122l-205 -500l43 -115q6 -13 6 -27q0 -25 -17.5 -41.5t-44.5 -16.5h-304v92zM302 915h121l-100 -152h-101z" />
    <glyph glyph-name="Ycircumflex.ss04" horiz-adv-x="544" 
d="M12 92h243v2l-245 606h122l139 -372h2l139 372h122l-205 -500l43 -115q6 -13 6 -27q0 -25 -17.5 -41.5t-44.5 -16.5h-304v92zM233 915h78l106 -152h-93l-51 65h-2l-51 -65h-93z" />
    <glyph glyph-name="Ydieresis.ss04" horiz-adv-x="544" 
d="M12 92h243v2l-245 606h122l139 -372h2l139 372h122l-205 -500l43 -115q6 -13 6 -27q0 -25 -17.5 -41.5t-44.5 -16.5h-304v92zM137 902h108v-107h-108v107zM299 902h108v-107h-108v107z" />
    <glyph glyph-name="Ygrave.ss04" horiz-adv-x="544" 
d="M12 92h243v2l-245 606h122l139 -372h2l139 372h122l-205 -500l43 -115q6 -13 6 -27q0 -25 -17.5 -41.5t-44.5 -16.5h-304v92zM119 915h121l80 -152h-96z" />
    <glyph glyph-name="uni0232.ss04" horiz-adv-x="544" 
d="M12 92h243v2l-245 606h122l139 -372h2l139 372h122l-205 -500l43 -115q6 -13 6 -27q0 -25 -17.5 -41.5t-44.5 -16.5h-304v92zM127 880h290v-90h-290v90z" />
    <glyph glyph-name="uni1EF8.ss04" horiz-adv-x="544" 
d="M12 92h243v2l-245 606h122l139 -372h2l139 372h122l-205 -500l43 -115q6 -13 6 -27q0 -25 -17.5 -41.5t-44.5 -16.5h-304v92zM299.5 772q-21.5 12 -47.5 35q-17 16 -29.5 23.5t-25.5 7.5q-18 0 -30 -16t-12 -46v-6h-77v16q0 62 32.5 98t81.5 36q31 0 52.5 -12t47.5 -35
q17 -16 29.5 -23.5t25.5 -7.5q18 0 30 16t12 46v6h77v-16q0 -62 -32.5 -98t-81.5 -36q-31 0 -52.5 12z" />
    <glyph glyph-name="S.ss05" horiz-adv-x="607" 
d="M59 93h264q59 0 93.5 29t34.5 80q0 50 -34.5 79t-93.5 29h-69q-63 0 -112.5 24t-77 68.5t-27.5 103.5q0 91 62.5 142.5t163.5 51.5h277v-93h-277q-49 0 -78.5 -26.5t-29.5 -72.5q0 -45 29.5 -71.5t78.5 -26.5h72q69 0 122.5 -25.5t83 -72t29.5 -108.5q0 -63 -31.5 -109
t-86.5 -70.5t-126 -24.5h-267v93z" />
    <glyph glyph-name="Sacute.ss05" horiz-adv-x="607" 
d="M59 93h264q59 0 93.5 29t34.5 80q0 50 -34.5 79t-93.5 29h-69q-63 0 -112.5 24t-77 68.5t-27.5 103.5q0 91 62.5 142.5t163.5 51.5h277v-93h-277q-49 0 -78.5 -26.5t-29.5 -72.5q0 -45 29.5 -71.5t78.5 -26.5h72q69 0 122.5 -25.5t83 -72t29.5 -108.5q0 -63 -31.5 -109
t-86.5 -70.5t-126 -24.5h-267v93zM333 915h121l-100 -152h-101z" />
    <glyph glyph-name="Scaron.ss05" horiz-adv-x="607" 
d="M59 93h264q59 0 93.5 29t34.5 80q0 50 -34.5 79t-93.5 29h-69q-63 0 -112.5 24t-77 68.5t-27.5 103.5q0 91 62.5 142.5t163.5 51.5h277v-93h-277q-49 0 -78.5 -26.5t-29.5 -72.5q0 -45 29.5 -71.5t78.5 -26.5h72q69 0 122.5 -25.5t83 -72t29.5 -108.5q0 -63 -31.5 -109
t-86.5 -70.5t-126 -24.5h-267v93zM159 915h93l51 -61h2l51 61h93l-106 -152h-78z" />
    <glyph glyph-name="Scedilla.ss05" horiz-adv-x="607" 
d="M59 93h264q59 0 93.5 29t34.5 80q0 50 -34.5 79t-93.5 29h-69q-63 0 -112.5 24t-77 68.5t-27.5 103.5q0 91 62.5 142.5t163.5 51.5h277v-93h-277q-49 0 -78.5 -26.5t-29.5 -72.5q0 -45 29.5 -71.5t78.5 -26.5h72q69 0 122.5 -25.5t83 -72t29.5 -108.5q0 -92 -65 -146.5
t-169 -57.5v-37q37 -3 57 -22t20 -51q0 -36 -24.5 -59t-69.5 -23h-96v72h76q11 0 18 6t7 16t-7 16t-18 6h-29v76h-211v93z" />
    <glyph glyph-name="Scircumflex.ss05" horiz-adv-x="607" 
d="M59 93h264q59 0 93.5 29t34.5 80q0 50 -34.5 79t-93.5 29h-69q-63 0 -112.5 24t-77 68.5t-27.5 103.5q0 91 62.5 142.5t163.5 51.5h277v-93h-277q-49 0 -78.5 -26.5t-29.5 -72.5q0 -45 29.5 -71.5t78.5 -26.5h72q69 0 122.5 -25.5t83 -72t29.5 -108.5q0 -63 -31.5 -109
t-86.5 -70.5t-126 -24.5h-267v93zM265 915h78l106 -152h-93l-51 65h-2l-51 -65h-93z" />
    <glyph glyph-name="uni0218.ss05" horiz-adv-x="607" 
d="M59 93h264q59 0 93.5 29t34.5 80q0 50 -34.5 79t-93.5 29h-69q-63 0 -112.5 24t-77 68.5t-27.5 103.5q0 91 62.5 142.5t163.5 51.5h277v-93h-277q-49 0 -78.5 -26.5t-29.5 -72.5q0 -45 29.5 -71.5t78.5 -26.5h72q69 0 122.5 -25.5t83 -72t29.5 -108.5q0 -63 -31.5 -109
t-86.5 -70.5t-126 -24.5h-267v93zM290 -182.5q14 10.5 14 28.5v7h-51v94h101v-100q0 -42 -28 -66t-73 -24v50q23 0 37 10.5z" />
    <glyph glyph-name="S.ss06" horiz-adv-x="652" 
d="M174 17q-65 33 -99.5 91t-37.5 134h115q4 -79 51 -121t128 -42q77 0 122.5 35.5t45.5 91.5q0 47 -34.5 75.5t-98.5 28.5h-97q-66 0 -116.5 24.5t-78 68.5t-27.5 101q0 90 63.5 143t173.5 53h293v-95h-293q-60 0 -91 -26t-31 -70q0 -45 31.5 -71.5t87.5 -26.5h99
q116 0 175.5 -56t59.5 -143q0 -67 -34.5 -118.5t-99 -80.5t-152.5 -29q-90 0 -155 33z" />
    <glyph glyph-name="Sacute.ss06" horiz-adv-x="652" 
d="M174 17q-65 33 -99.5 91t-37.5 134h115q4 -79 51 -121t128 -42q77 0 122.5 35.5t45.5 91.5q0 47 -34.5 75.5t-98.5 28.5h-97q-66 0 -116.5 24.5t-78 68.5t-27.5 101q0 90 63.5 143t173.5 53h293v-95h-293q-60 0 -91 -26t-31 -70q0 -45 31.5 -71.5t87.5 -26.5h99
q116 0 175.5 -56t59.5 -143q0 -67 -34.5 -118.5t-99 -80.5t-152.5 -29q-90 0 -155 33zM361 915h121l-100 -152h-101z" />
    <glyph glyph-name="Scaron.ss06" horiz-adv-x="652" 
d="M174 17q-65 33 -99.5 91t-37.5 134h115q4 -79 51 -121t128 -42q77 0 122.5 35.5t45.5 91.5q0 47 -34.5 75.5t-98.5 28.5h-97q-66 0 -116.5 24.5t-78 68.5t-27.5 101q0 90 63.5 143t173.5 53h293v-95h-293q-60 0 -91 -26t-31 -70q0 -45 31.5 -71.5t87.5 -26.5h99
q116 0 175.5 -56t59.5 -143q0 -67 -34.5 -118.5t-99 -80.5t-152.5 -29q-90 0 -155 33zM186 915h93l51 -61h2l51 61h93l-106 -152h-78z" />
    <glyph glyph-name="Scedilla.ss06" horiz-adv-x="652" 
d="M251 -192v72h76q11 0 18 6t7 16t-7 16t-18 6h-29v61q-121 9 -188.5 78.5t-72.5 178.5h115q4 -79 51 -121t128 -42q77 0 122.5 35.5t45.5 91.5q0 47 -34.5 75.5t-98.5 28.5h-97q-66 0 -116.5 24.5t-78 68.5t-27.5 101q0 90 63.5 143t173.5 53h293v-95h-293q-60 0 -91 -26
t-31 -70q0 -45 31.5 -71.5t87.5 -26.5h99q116 0 175.5 -56t59.5 -143q0 -62 -30 -111.5t-86.5 -79.5t-134.5 -36v-22q37 -3 57 -22t20 -51q0 -36 -24.5 -59t-69.5 -23h-96z" />
    <glyph glyph-name="Scircumflex.ss06" horiz-adv-x="652" 
d="M174 17q-65 33 -99.5 91t-37.5 134h115q4 -79 51 -121t128 -42q77 0 122.5 35.5t45.5 91.5q0 47 -34.5 75.5t-98.5 28.5h-97q-66 0 -116.5 24.5t-78 68.5t-27.5 101q0 90 63.5 143t173.5 53h293v-95h-293q-60 0 -91 -26t-31 -70q0 -45 31.5 -71.5t87.5 -26.5h99
q116 0 175.5 -56t59.5 -143q0 -67 -34.5 -118.5t-99 -80.5t-152.5 -29q-90 0 -155 33zM292 915h78l106 -152h-93l-51 65h-2l-51 -65h-93z" />
    <glyph glyph-name="uni0218.ss06" horiz-adv-x="652" 
d="M174 17q-65 33 -99.5 91t-37.5 134h115q4 -79 51 -121t128 -42q77 0 122.5 35.5t45.5 91.5q0 47 -34.5 75.5t-98.5 28.5h-97q-66 0 -116.5 24.5t-78 68.5t-27.5 101q0 90 63.5 143t173.5 53h293v-95h-293q-60 0 -91 -26t-31 -70q0 -45 31.5 -71.5t87.5 -26.5h99
q116 0 175.5 -56t59.5 -143q0 -67 -34.5 -118.5t-99 -80.5t-152.5 -29q-90 0 -155 33zM318 -182.5q14 10.5 14 28.5v7h-51v94h101v-100q0 -42 -28 -66t-73 -24v50q23 0 37 10.5z" />
    <glyph glyph-name="G.ss07" 
d="M199 44.5q-77 44.5 -120 126.5t-43 190q0 104 41.5 184.5t119 125t183.5 44.5q97 0 167.5 -37.5t110 -102t46.5 -143.5h-116q-5 82 -60 135t-148 53q-69 0 -119.5 -31.5t-78 -90t-27.5 -137.5q0 -82 29.5 -142t81 -92t116.5 -32h201v155h-213v93h273q23 0 38 -15t15 -38
v-237q0 -22 -15 -37.5t-38 -15.5h-268q-99 0 -176 44.5z" />
    <glyph glyph-name="Gbreve.ss07" 
d="M199 44.5q-77 44.5 -120 126.5t-43 190q0 104 41.5 184.5t119 125t183.5 44.5q97 0 167.5 -37.5t110 -102t46.5 -143.5h-116q-5 82 -60 135t-148 53q-69 0 -119.5 -31.5t-78 -90t-27.5 -137.5q0 -82 29.5 -142t81 -92t116.5 -32h201v155h-213v93h273q23 0 38 -15t15 -38
v-237q0 -22 -15 -37.5t-38 -15.5h-268q-99 0 -176 44.5zM280.5 804.5q-35.5 41.5 -35.5 110.5h85q0 -76 49 -76q50 0 50 76h85q0 -69 -35.5 -110.5t-99.5 -41.5q-63 0 -98.5 41.5z" />
    <glyph glyph-name="Gcaron.ss07" 
d="M199 44.5q-77 44.5 -120 126.5t-43 190q0 104 41.5 184.5t119 125t183.5 44.5q97 0 167.5 -37.5t110 -102t46.5 -143.5h-116q-5 82 -60 135t-148 53q-69 0 -119.5 -31.5t-78 -90t-27.5 -137.5q0 -82 29.5 -142t81 -92t116.5 -32h201v155h-213v93h273q23 0 38 -15t15 -38
v-237q0 -22 -15 -37.5t-38 -15.5h-268q-99 0 -176 44.5zM234 915h93l51 -61h2l51 61h93l-106 -152h-78z" />
    <glyph glyph-name="Gcircumflex.ss07" 
d="M199 44.5q-77 44.5 -120 126.5t-43 190q0 104 41.5 184.5t119 125t183.5 44.5q97 0 167.5 -37.5t110 -102t46.5 -143.5h-116q-5 82 -60 135t-148 53q-69 0 -119.5 -31.5t-78 -90t-27.5 -137.5q0 -82 29.5 -142t81 -92t116.5 -32h201v155h-213v93h273q23 0 38 -15t15 -38
v-237q0 -22 -15 -37.5t-38 -15.5h-268q-99 0 -176 44.5zM340 915h78l106 -152h-93l-51 65h-2l-51 -65h-93z" />
    <glyph glyph-name="uni0122.ss07" 
d="M199 44.5q-77 44.5 -120 126.5t-43 190q0 104 41.5 184.5t119 125t183.5 44.5q97 0 167.5 -37.5t110 -102t46.5 -143.5h-116q-5 82 -60 135t-148 53q-69 0 -119.5 -31.5t-78 -90t-27.5 -137.5q0 -82 29.5 -142t81 -92t116.5 -32h201v155h-213v93h273q23 0 38 -15t15 -38
v-237q0 -22 -15 -37.5t-38 -15.5h-268q-99 0 -176 44.5zM375 -182.5q14 10.5 14 28.5v7h-51v94h101v-100q0 -42 -28 -66t-73 -24v50q23 0 37 10.5z" />
    <glyph glyph-name="Gdotaccent.ss07" 
d="M199 44.5q-77 44.5 -120 126.5t-43 190q0 104 41.5 184.5t119 125t183.5 44.5q97 0 167.5 -37.5t110 -102t46.5 -143.5h-116q-5 82 -60 135t-148 53q-69 0 -119.5 -31.5t-78 -90t-27.5 -137.5q0 -82 29.5 -142t81 -92t116.5 -32h201v155h-213v93h273q23 0 38 -15t15 -38
v-237q0 -22 -15 -37.5t-38 -15.5h-268q-99 0 -176 44.5zM324 902h110v-107h-110v107z" />
    <glyph glyph-name="uni1E20.ss07" 
d="M199 44.5q-77 44.5 -120 126.5t-43 190q0 104 41.5 184.5t119 125t183.5 44.5q97 0 167.5 -37.5t110 -102t46.5 -143.5h-116q-5 82 -60 135t-148 53q-69 0 -119.5 -31.5t-78 -90t-27.5 -137.5q0 -82 29.5 -142t81 -92t116.5 -32h201v155h-213v93h273q23 0 38 -15t15 -38
v-237q0 -22 -15 -37.5t-38 -15.5h-268q-99 0 -176 44.5zM234 880h290v-90h-290v90z" />
    <glyph glyph-name="uni01E4.ss07" horiz-adv-x="761" 
d="M199 44.5q-77 44.5 -120 126.5t-43 190q0 104 41.5 184.5t119.5 125t184 44.5q96 0 166.5 -32.5t110 -87.5t46.5 -123h-116q-4 41 -29 75t-71 53.5t-107 19.5q-105 0 -165.5 -70t-60.5 -189q0 -82 29.5 -142t81 -92t116.5 -32h205v69h-215v81h215v68h-217v84h273
q23 0 38 -15t15 -38v-99h52v-81h-52v-111q0 -22 -15 -37.5t-38 -15.5h-268q-99 0 -176 44.5z" />
    <glyph glyph-name="E.ss08" horiz-adv-x="600" 
d="M96.5 407q-33.5 42 -33.5 102q0 56 28 99t82 67.5t130 24.5h268v-93h-257q-66 0 -101 -27.5t-35 -77.5q0 -51 35 -78.5t101 -27.5h243v-92h-243q-66 0 -101 -27.5t-35 -78.5q0 -50 35 -77.5t101 -27.5h265v-93h-276q-76 0 -130 24.5t-82 67.5t-28 99q0 60 33.5 102
t106.5 56v2q-73 14 -106.5 56z" />
    <glyph glyph-name="Eacute.ss08" horiz-adv-x="600" 
d="M96.5 407q-33.5 42 -33.5 102q0 56 28 99t82 67.5t130 24.5h268v-93h-257q-66 0 -101 -27.5t-35 -77.5q0 -51 35 -78.5t101 -27.5h243v-92h-243q-66 0 -101 -27.5t-35 -78.5q0 -50 35 -77.5t101 -27.5h265v-93h-276q-76 0 -130 24.5t-82 67.5t-28 99q0 60 33.5 102
t106.5 56v2q-73 14 -106.5 56zM379 915h121l-100 -152h-101z" />
    <glyph glyph-name="Ebreve.ss08" horiz-adv-x="600" 
d="M96.5 407q-33.5 42 -33.5 102q0 56 28 99t82 67.5t130 24.5h268v-93h-257q-66 0 -101 -27.5t-35 -77.5q0 -51 35 -78.5t101 -27.5h243v-92h-243q-66 0 -101 -27.5t-35 -78.5q0 -50 35 -77.5t101 -27.5h265v-93h-276q-76 0 -130 24.5t-82 67.5t-28 99q0 60 33.5 102
t106.5 56v2q-73 14 -106.5 56zM250.5 804.5q-35.5 41.5 -35.5 110.5h85q0 -76 49 -76q50 0 50 76h85q0 -69 -35.5 -110.5t-99.5 -41.5q-63 0 -98.5 41.5z" />
    <glyph glyph-name="Ecaron.ss08" horiz-adv-x="600" 
d="M96.5 407q-33.5 42 -33.5 102q0 56 28 99t82 67.5t130 24.5h268v-93h-257q-66 0 -101 -27.5t-35 -77.5q0 -51 35 -78.5t101 -27.5h243v-92h-243q-66 0 -101 -27.5t-35 -78.5q0 -50 35 -77.5t101 -27.5h265v-93h-276q-76 0 -130 24.5t-82 67.5t-28 99q0 60 33.5 102
t106.5 56v2q-73 14 -106.5 56zM204 915h93l51 -61h2l51 61h93l-106 -152h-78z" />
    <glyph glyph-name="Ecircumflex.ss08" horiz-adv-x="600" 
d="M96.5 407q-33.5 42 -33.5 102q0 56 28 99t82 67.5t130 24.5h268v-93h-257q-66 0 -101 -27.5t-35 -77.5q0 -51 35 -78.5t101 -27.5h243v-92h-243q-66 0 -101 -27.5t-35 -78.5q0 -50 35 -77.5t101 -27.5h265v-93h-276q-76 0 -130 24.5t-82 67.5t-28 99q0 60 33.5 102
t106.5 56v2q-73 14 -106.5 56zM310 915h78l106 -152h-93l-51 65h-2l-51 -65h-93z" />
    <glyph glyph-name="Edieresis.ss08" horiz-adv-x="600" 
d="M96.5 407q-33.5 42 -33.5 102q0 56 28 99t82 67.5t130 24.5h268v-93h-257q-66 0 -101 -27.5t-35 -77.5q0 -51 35 -78.5t101 -27.5h243v-92h-243q-66 0 -101 -27.5t-35 -78.5q0 -50 35 -77.5t101 -27.5h265v-93h-276q-76 0 -130 24.5t-82 67.5t-28 99q0 60 33.5 102
t106.5 56v2q-73 14 -106.5 56zM215 902h108v-107h-108v107zM377 902h108v-107h-108v107z" />
    <glyph glyph-name="Edotaccent.ss08" horiz-adv-x="600" 
d="M96.5 407q-33.5 42 -33.5 102q0 56 28 99t82 67.5t130 24.5h268v-93h-257q-66 0 -101 -27.5t-35 -77.5q0 -51 35 -78.5t101 -27.5h243v-92h-243q-66 0 -101 -27.5t-35 -78.5q0 -50 35 -77.5t101 -27.5h265v-93h-276q-76 0 -130 24.5t-82 67.5t-28 99q0 60 33.5 102
t106.5 56v2q-73 14 -106.5 56zM294 902h110v-107h-110v107z" />
    <glyph glyph-name="uni1EB8.ss08" horiz-adv-x="600" 
d="M96.5 407q-33.5 42 -33.5 102q0 56 28 99t82 67.5t130 24.5h268v-93h-257q-66 0 -101 -27.5t-35 -77.5q0 -51 35 -78.5t101 -27.5h243v-92h-243q-66 0 -101 -27.5t-35 -78.5q0 -50 35 -77.5t101 -27.5h265v-93h-276q-76 0 -130 24.5t-82 67.5t-28 99q0 60 33.5 102
t106.5 56v2q-73 14 -106.5 56zM293 -55h112v-104h-112v104z" />
    <glyph glyph-name="Egrave.ss08" horiz-adv-x="600" 
d="M96.5 407q-33.5 42 -33.5 102q0 56 28 99t82 67.5t130 24.5h268v-93h-257q-66 0 -101 -27.5t-35 -77.5q0 -51 35 -78.5t101 -27.5h243v-92h-243q-66 0 -101 -27.5t-35 -78.5q0 -50 35 -77.5t101 -27.5h265v-93h-276q-76 0 -130 24.5t-82 67.5t-28 99q0 60 33.5 102
t106.5 56v2q-73 14 -106.5 56zM196 915h121l80 -152h-96z" />
    <glyph glyph-name="Emacron.ss08" horiz-adv-x="600" 
d="M96.5 407q-33.5 42 -33.5 102q0 56 28 99t82 67.5t130 24.5h268v-93h-257q-66 0 -101 -27.5t-35 -77.5q0 -51 35 -78.5t101 -27.5h243v-92h-243q-66 0 -101 -27.5t-35 -78.5q0 -50 35 -77.5t101 -27.5h265v-93h-276q-76 0 -130 24.5t-82 67.5t-28 99q0 60 33.5 102
t106.5 56v2q-73 14 -106.5 56zM204 880h290v-90h-290v90z" />
    <glyph glyph-name="Eogonek.ss08" horiz-adv-x="600" 
d="M96.5 407q-33.5 42 -33.5 102q0 56 28 99t82 67.5t130 24.5h268v-93h-257q-66 0 -101 -27.5t-35 -77.5q0 -51 35 -78.5t101 -27.5h243v-92h-243q-66 0 -101 -27.5t-35 -78.5q0 -50 35 -77.5t101 -27.5h265v-92l4 -1h-1q-19 0 -33.5 -14.5t-14.5 -35.5q0 -26 20.5 -41.5
t51.5 -15.5h11v-83h-20q-65 0 -100 27.5t-35 71.5q0 27 13.5 51t40.5 38v2h-213q-76 0 -130 24.5t-82 67.5t-28 99q0 60 33.5 102t106.5 56v2q-73 14 -106.5 56z" />
    <glyph glyph-name="uni1EBC.ss08" horiz-adv-x="600" 
d="M96.5 407q-33.5 42 -33.5 102q0 56 28 99t82 67.5t130 24.5h268v-93h-257q-66 0 -101 -27.5t-35 -77.5q0 -51 35 -78.5t101 -27.5h243v-92h-243q-66 0 -101 -27.5t-35 -78.5q0 -50 35 -77.5t101 -27.5h265v-93h-276q-76 0 -130 24.5t-82 67.5t-28 99q0 60 33.5 102
t106.5 56v2q-73 14 -106.5 56zM376.5 772q-21.5 12 -47.5 35q-17 16 -29.5 23.5t-25.5 7.5q-18 0 -30 -16t-12 -46v-6h-77v16q0 62 32.5 98t81.5 36q31 0 52.5 -12t47.5 -35q17 -16 29.5 -23.5t25.5 -7.5q18 0 30 16t12 46v6h77v-16q0 -62 -32.5 -98t-81.5 -36
q-31 0 -52.5 12z" />
    <glyph glyph-name="F.ss08" horiz-adv-x="575" 
d="M101.5 404.5q-35.5 41.5 -35.5 104.5q0 56 28 99t82 67.5t130 24.5h268v-93h-257q-66 0 -101 -27.5t-35 -77.5q0 -51 35 -78.5t101 -27.5h243v-92h-243q-62 0 -95 -29t-33 -85v-190h-114v187q0 66 31 106.5t100 54.5v2q-69 13 -104.5 54.5z" />
    <glyph glyph-name="Y.ss09" horiz-adv-x="649" 
d="M65 95h402v165h-347q-25 0 -40 14.5t-15 38.5v387h113v-345h289v345h112v-647q0 -22 -15 -37.5t-38 -15.5h-461v95z" />
    <glyph glyph-name="Yacute.ss09" horiz-adv-x="649" 
d="M65 95h402v165h-347q-25 0 -40 14.5t-15 38.5v387h113v-345h289v345h112v-647q0 -22 -15 -37.5t-38 -15.5h-461v95zM355 915h121l-100 -152h-101z" />
    <glyph glyph-name="Ycircumflex.ss09" horiz-adv-x="649" 
d="M65 95h402v165h-347q-25 0 -40 14.5t-15 38.5v387h113v-345h289v345h112v-647q0 -22 -15 -37.5t-38 -15.5h-461v95zM286 915h78l106 -152h-93l-51 65h-2l-51 -65h-93z" />
    <glyph glyph-name="Ydieresis.ss09" horiz-adv-x="649" 
d="M65 95h402v165h-347q-25 0 -40 14.5t-15 38.5v387h113v-345h289v345h112v-647q0 -22 -15 -37.5t-38 -15.5h-461v95zM190 902h108v-107h-108v107zM352 902h108v-107h-108v107z" />
    <glyph glyph-name="Ygrave.ss09" horiz-adv-x="649" 
d="M65 95h402v165h-347q-25 0 -40 14.5t-15 38.5v387h113v-345h289v345h112v-647q0 -22 -15 -37.5t-38 -15.5h-461v95zM172 915h121l80 -152h-96z" />
    <glyph glyph-name="uni0232.ss09" horiz-adv-x="649" 
d="M65 95h402v165h-347q-25 0 -40 14.5t-15 38.5v387h113v-345h289v345h112v-647q0 -22 -15 -37.5t-38 -15.5h-461v95zM180 880h290v-90h-290v90z" />
    <glyph glyph-name="uni1EF8.ss09" horiz-adv-x="649" 
d="M65 95h402v165h-347q-25 0 -40 14.5t-15 38.5v387h113v-345h289v345h112v-647q0 -22 -15 -37.5t-38 -15.5h-461v95zM352.5 772q-21.5 12 -47.5 35q-17 16 -29.5 23.5t-25.5 7.5q-18 0 -30 -16t-12 -46v-6h-77v16q0 62 32.5 98t81.5 36q31 0 52.5 -12t47.5 -35
q17 -16 29.5 -23.5t25.5 -7.5q18 0 30 16t12 46v6h77v-16q0 -62 -32.5 -98t-81.5 -36q-31 0 -52.5 12z" />
    <glyph glyph-name="Q.ss10" 
d="M274 -186q-17 14 -17 38q0 11 7 32l41 107q-78 15 -139 61.5t-95.5 122.5t-34.5 175q0 114 46 197t124.5 126t173.5 43t173.5 -43t124.5 -126t46 -197q0 -109 -41.5 -189t-113 -124.5t-160.5 -51.5l-35 -91h197v-94h-250q-30 0 -47 14zM184.5 200q29.5 -61 80 -91
t115.5 -30t116 30t80 91t29 150t-29 150t-80 91t-116 30t-115.5 -30t-80 -91t-29.5 -150t29.5 -150z" />
    <glyph glyph-name="Aacute.ss11" horiz-adv-x="671" 
d="M278 700h114l264 -700h-120l-61 175h-280l-62 -175h-118zM442 269l-41 116q-23 64 -53 155q-3 12 -6.5 22t-6.5 18h-1l-17 -51q-25 -77 -49 -146l-40 -114h214zM505 831v-25l-231 -38v10z" />
    <glyph glyph-name="Abreve.ss11" horiz-adv-x="671" 
d="M278 700h114l264 -700h-120l-61 175h-280l-62 -175h-118zM442 269l-41 116q-23 64 -53 155q-3 12 -6.5 22t-6.5 18h-1l-17 -51q-25 -77 -49 -146l-40 -114h214zM405 777.5q-29 -23.5 -71 -23.5t-71 23.5t-38 60.5h10q11 -28 37 -44t62 -16t62 16t37 44h10
q-9 -37 -38 -60.5z" />
    <glyph glyph-name="Acircumflex.ss11" horiz-adv-x="671" 
d="M278 700h114l264 -700h-120l-61 175h-280l-62 -175h-118zM442 269l-41 116q-23 64 -53 155q-3 12 -6.5 22t-6.5 18h-1l-17 -51q-25 -77 -49 -146l-40 -114h214zM216 771l115 61h5l115 -61v-10l-117 47h-1l-117 -47v10z" />
    <glyph glyph-name="uni1EAC.ss11" horiz-adv-x="671" 
d="M278 700h114l264 -700h-120l-61 175h-280l-62 -175h-118zM216 771l115 61h5l115 -61v-10l-117 47h-1l-117 -47v10zM442 269l-41 116q-23 64 -53 155q-3 12 -6.5 22t-6.5 18h-1l-17 -51q-25 -77 -49 -146l-40 -114h214zM316 -62h36v-46h-36v46z" />
    <glyph glyph-name="Adieresis.ss11" horiz-adv-x="671" 
d="M278 700h114l264 -700h-120l-61 175h-280l-62 -175h-118zM442 269l-41 116q-23 64 -53 155q-3 12 -6.5 22t-6.5 18h-1l-17 -51q-25 -77 -49 -146l-40 -114h214zM374 829h36v-36h-36v36zM258 829h36v-36h-36v36z" />
    <glyph glyph-name="uni1EA0.ss11" horiz-adv-x="671" 
d="M278 700h114l264 -700h-120l-61 175h-280l-62 -175h-118zM442 269l-41 116q-23 64 -53 155q-3 12 -6.5 22t-6.5 18h-1l-17 -51q-25 -77 -49 -146l-40 -114h214zM316 -62h36v-46h-36v46z" />
    <glyph glyph-name="Agrave.ss11" horiz-adv-x="671" 
d="M278 700h114l264 -700h-120l-61 175h-280l-62 -175h-118zM442 269l-41 116q-23 64 -53 155q-3 12 -6.5 22t-6.5 18h-1l-17 -51q-25 -77 -49 -146l-40 -114h214zM394 768l-231 38v25l231 -53v-10z" />
    <glyph glyph-name="Amacron.ss11" horiz-adv-x="671" 
d="M278 700h114l264 -700h-120l-61 175h-280l-62 -175h-118zM442 269l-41 116q-23 64 -53 155q-3 12 -6.5 22t-6.5 18h-1l-17 -51q-25 -77 -49 -146l-40 -114h214zM209 820h250v-24h-250v24z" />
    <glyph glyph-name="Aogonek.ss11" horiz-adv-x="671" 
d="M278 700h114l264 -700h-1l-16 -8q-19 -9 -30 -26t-11 -38q0 -30 24 -49t66 -19h13v-30h-18q-48 0 -77 23.5t-29 61.5q0 26 14 48t39 35v2h-94l-61 175h-280l-62 -175h-118zM442 269l-41 116q-23 64 -53 155q-3 12 -6.5 22t-6.5 18h-1l-17 -51q-25 -77 -49 -146l-40 -114
h214z" />
    <glyph glyph-name="Aring.ss11" horiz-adv-x="671" 
d="M278 700h114l264 -700h-120l-61 175h-280l-62 -175h-118zM442 269l-41 116q-23 64 -53 155q-3 12 -6.5 22t-6.5 18h-1l-17 -51q-25 -77 -49 -146l-40 -114h214zM286 763q-20 20 -20 48q0 29 20 49t48 20t48 -20t20 -49q0 -28 -19.5 -48t-48.5 -20q-28 0 -48 20zM298 768
q15 -15 36 -15t36 15t15 36t-15 36.5t-36 15.5t-36 -15.5t-15 -36.5t15 -36z" />
    <glyph glyph-name="Atilde.ss11" horiz-adv-x="671" 
d="M278 700h114l264 -700h-120l-61 175h-280l-62 -175h-118zM442 269l-41 116q-23 64 -53 155q-3 12 -6.5 22t-6.5 18h-1l-17 -51q-25 -77 -49 -146l-40 -114h214zM364.5 757.5q-16.5 11.5 -38.5 35.5q-18 21 -32.5 31.5t-34.5 10.5q-28 0 -47.5 -22t-19.5 -62h-10
q0 49 22 77t58 28q25 0 42 -12t37 -35q21 -22 34.5 -32t33.5 -10q28 0 47.5 22t19.5 62h10q0 -50 -21.5 -77.5t-58.5 -27.5q-25 0 -41.5 11.5z" />
    <glyph glyph-name="AEacute.ss11" horiz-adv-x="925" 
d="M459 181h-252l-77 -181h-115l309 700h579v-93h-331v-209h292v-93h-292v-212h332v-93h-445v181zM459 274v333h-72l-141 -333h213zM688 831v-25l-231 -38v10z" />
    <glyph glyph-name="Cacute.ss11" horiz-adv-x="743" 
d="M201.5 29.5q-78.5 45.5 -122 128.5t-43.5 193q0 111 41.5 193.5t119.5 127t185 44.5q97 0 168 -37.5t110.5 -101.5t46.5 -144h-117q-4 52 -29 94.5t-70.5 68t-108.5 25.5q-106 0 -166.5 -71t-60.5 -199q0 -84 29.5 -145.5t81 -94t116.5 -32.5q61 0 106 26t70.5 66.5
t31.5 84.5h117q-9 -75 -49.5 -136.5t-111 -98.5t-164.5 -37q-102 0 -180.5 45.5zM553 831v-25l-231 -38v10z" />
    <glyph glyph-name="Ccaron.ss11" horiz-adv-x="743" 
d="M201.5 29.5q-78.5 45.5 -122 128.5t-43.5 193q0 111 41.5 193.5t119.5 127t185 44.5q97 0 168 -37.5t110.5 -101.5t46.5 -144h-117q-4 52 -29 94.5t-70.5 68t-108.5 25.5q-106 0 -166.5 -71t-60.5 -199q0 -84 29.5 -145.5t81 -94t116.5 -32.5q61 0 106 26t70.5 66.5
t31.5 84.5h117q-9 -75 -49.5 -136.5t-111 -98.5t-164.5 -37q-102 0 -180.5 45.5zM264 822v10l117 -47h1l117 47v-10l-115 -61h-5z" />
    <glyph glyph-name="Ccedilla.ss11" horiz-adv-x="743" 
d="M317 -170v25h75q24 0 37.5 12t13.5 31t-13.5 30.5t-37.5 11.5h-22v44q-99 3 -174.5 49t-117.5 128t-42 190q0 111 41.5 193.5t119.5 127t185 44.5q97 0 168 -37.5t110.5 -101.5t46.5 -144h-117q-4 52 -29 94.5t-70.5 68t-108.5 25.5q-106 0 -166.5 -71t-60.5 -199
q0 -84 29.5 -145.5t81 -94t116.5 -32.5q61 0 106 26t70.5 66.5t31.5 84.5h117q-9 -73 -48 -134t-106.5 -98.5t-158.5 -39.5v-33h4q34 0 54 -15t20 -44q0 -30 -21 -46t-54 -16h-80z" />
    <glyph glyph-name="Ccircumflex.ss11" horiz-adv-x="743" 
d="M201.5 29.5q-78.5 45.5 -122 128.5t-43.5 193q0 111 41.5 193.5t119.5 127t185 44.5q97 0 168 -37.5t110.5 -101.5t46.5 -144h-117q-4 52 -29 94.5t-70.5 68t-108.5 25.5q-106 0 -166.5 -71t-60.5 -199q0 -84 29.5 -145.5t81 -94t116.5 -32.5q61 0 106 26t70.5 66.5
t31.5 84.5h117q-9 -75 -49.5 -136.5t-111 -98.5t-164.5 -37q-102 0 -180.5 45.5zM264 771l115 61h5l115 -61v-10l-117 47h-1l-117 -47v10z" />
    <glyph glyph-name="Cdotaccent.ss11" horiz-adv-x="743" 
d="M201.5 29.5q-78.5 45.5 -122 128.5t-43.5 193q0 111 41.5 193.5t119.5 127t185 44.5q97 0 168 -37.5t110.5 -101.5t46.5 -144h-117q-4 52 -29 94.5t-70.5 68t-108.5 25.5q-106 0 -166.5 -71t-60.5 -199q0 -84 29.5 -145.5t81 -94t116.5 -32.5q61 0 106 26t70.5 66.5
t31.5 84.5h117q-9 -75 -49.5 -136.5t-111 -98.5t-164.5 -37q-102 0 -180.5 45.5zM363 828h36v-36h-36v36z" />
    <glyph glyph-name="Eth.ss11" horiz-adv-x="714" 
d="M183 336v-241h147q104 0 166.5 66t62.5 189q0 124 -62.5 189.5t-166.5 65.5h-147v-243h76v-26h-76zM8 362h62v338h266q99 0 176.5 -41.5t121.5 -120.5t44 -188t-44 -188t-121.5 -120.5t-176.5 -41.5h-266v336h-62v26z" />
    <glyph glyph-name="Dcaron.ss11" horiz-adv-x="714" 
d="M70 700h266q99 0 176.5 -41.5t121.5 -120.5t44 -188t-44 -188t-121.5 -120.5t-176.5 -41.5h-266v700zM330 95q104 0 166.5 66t62.5 189q0 124 -62.5 189.5t-166.5 65.5h-147v-510h147zM214 822v10l117 -47h1l117 47v-10l-115 -61h-5z" />
    <glyph glyph-name="Dcroat.ss11" horiz-adv-x="714" 
d="M183 336v-241h147q104 0 166.5 66t62.5 189q0 124 -62.5 189.5t-166.5 65.5h-147v-243h76v-26h-76zM8 362h62v338h266q99 0 176.5 -41.5t121.5 -120.5t44 -188t-44 -188t-121.5 -120.5t-176.5 -41.5h-266v336h-62v26z" />
    <glyph glyph-name="Eacute.ss11" horiz-adv-x="581" 
d="M70 700h489v-93h-375v-209h336v-93h-336v-212h376v-93h-490v700zM491 831v-25l-231 -38v10z" />
    <glyph glyph-name="Ebreve.ss11" horiz-adv-x="581" 
d="M70 700h489v-93h-375v-209h336v-93h-336v-212h376v-93h-490v700zM391 777.5q-29 -23.5 -71 -23.5t-71 23.5t-38 60.5h10q11 -28 37 -44t62 -16t62 16t37 44h10q-9 -37 -38 -60.5z" />
    <glyph glyph-name="Ecaron.ss11" horiz-adv-x="581" 
d="M70 700h489v-93h-375v-209h336v-93h-336v-212h376v-93h-490v700zM202 822v10l117 -47h1l117 47v-10l-115 -61h-5z" />
    <glyph glyph-name="Ecircumflex.ss11" horiz-adv-x="581" 
d="M70 700h489v-93h-375v-209h336v-93h-336v-212h376v-93h-490v700zM202 771l115 61h5l115 -61v-10l-117 47h-1l-117 -47v10z" />
    <glyph glyph-name="Edieresis.ss11" horiz-adv-x="581" 
d="M70 700h489v-93h-375v-209h336v-93h-336v-212h376v-93h-490v700zM360 829h36v-36h-36v36zM244 829h36v-36h-36v36z" />
    <glyph glyph-name="Edotaccent.ss11" horiz-adv-x="581" 
d="M70 700h489v-93h-375v-209h336v-93h-336v-212h376v-93h-490v700zM301 828h36v-36h-36v36z" />
    <glyph glyph-name="uni1EB8.ss11" horiz-adv-x="581" 
d="M70 700h489v-93h-375v-209h336v-93h-336v-212h376v-93h-490v700zM302 -62h36v-46h-36v46z" />
    <glyph glyph-name="Egrave.ss11" horiz-adv-x="581" 
d="M70 700h489v-93h-375v-209h336v-93h-336v-212h376v-93h-490v700zM380 768l-231 38v25l231 -53v-10z" />
    <glyph glyph-name="Emacron.ss11" horiz-adv-x="581" 
d="M70 700h489v-93h-375v-209h336v-93h-336v-212h376v-93h-490v700zM195 820h250v-24h-250v24z" />
    <glyph glyph-name="Eogonek.ss11" horiz-adv-x="581" 
d="M70 700h489v-93h-375v-209h336v-93h-336v-212h376v-93h-4l-16 -8q-19 -9 -30 -26t-11 -38q0 -30 24 -49t66 -19h13v-30h-18q-48 0 -77 23.5t-29 61.5q0 26 14 48t39 35v2h-461v700z" />
    <glyph glyph-name="uni1EBC.ss11" horiz-adv-x="581" 
d="M70 700h489v-93h-375v-209h336v-93h-336v-212h376v-93h-490v700zM350.5 757.5q-16.5 11.5 -38.5 35.5q-18 21 -32.5 31.5t-34.5 10.5q-28 0 -47.5 -22t-19.5 -62h-10q0 49 22 77t58 28q25 0 42 -12t37 -35q21 -22 34.5 -32t33.5 -10q28 0 47.5 22t19.5 62h10
q0 -50 -21.5 -77.5t-58.5 -27.5q-25 0 -41.5 11.5z" />
    <glyph glyph-name="Gbreve.ss11" 
d="M196 29.5q-75 45.5 -117.5 128.5t-42.5 193q0 108 41.5 190.5t119 128.5t183.5 46q96 0 168 -38t111 -102.5t43 -143.5h-116q-2 53 -27.5 96t-72 68t-106.5 25q-69 0 -119.5 -33t-78 -94t-27.5 -143q0 -84 29.5 -145.5t81 -94t116.5 -32.5q60 0 106 26t73 66t34 83h-225
v93h279q26 0 40.5 -14t14.5 -39v-294h-104l19 138h-2q-33 -75 -96.5 -114.5t-153.5 -39.5q-96 0 -171 45.5zM448 777.5q-29 -23.5 -71 -23.5t-71 23.5t-38 60.5h10q11 -28 37 -44t62 -16t62 16t37 44h10q-9 -37 -38 -60.5z" />
    <glyph glyph-name="Gcaron.ss11" 
d="M196 29.5q-75 45.5 -117.5 128.5t-42.5 193q0 108 41.5 190.5t119 128.5t183.5 46q96 0 168 -38t111 -102.5t43 -143.5h-116q-2 53 -27.5 96t-72 68t-106.5 25q-69 0 -119.5 -33t-78 -94t-27.5 -143q0 -84 29.5 -145.5t81 -94t116.5 -32.5q60 0 106 26t73 66t34 83h-225
v93h279q26 0 40.5 -14t14.5 -39v-294h-104l19 138h-2q-33 -75 -96.5 -114.5t-153.5 -39.5q-96 0 -171 45.5zM259 822v10l117 -47h1l117 47v-10l-115 -61h-5z" />
    <glyph glyph-name="Gcircumflex.ss11" 
d="M196 29.5q-75 45.5 -117.5 128.5t-42.5 193q0 108 41.5 190.5t119 128.5t183.5 46q96 0 168 -38t111 -102.5t43 -143.5h-116q-2 53 -27.5 96t-72 68t-106.5 25q-69 0 -119.5 -33t-78 -94t-27.5 -143q0 -84 29.5 -145.5t81 -94t116.5 -32.5q60 0 106 26t73 66t34 83h-225
v93h279q26 0 40.5 -14t14.5 -39v-294h-104l19 138h-2q-33 -75 -96.5 -114.5t-153.5 -39.5q-96 0 -171 45.5zM259 771l115 61h5l115 -61v-10l-117 47h-1l-117 -47v10z" />
    <glyph glyph-name="uni0122.ss11" 
d="M377 -132v6h-31v55h45v-61q0 -26 -13.5 -42t-41.5 -16v14q41 0 41 44zM77.5 541.5q41.5 82.5 119 128.5t183.5 46q96 0 168 -38t111 -102.5t43 -143.5h-116q-2 53 -27.5 96t-72 68t-106.5 25q-69 0 -119.5 -33t-78 -94t-27.5 -143q0 -84 29.5 -145.5t81 -94t116.5 -32.5
q60 0 106 26t73 66t34 83h-225v93h279q26 0 40.5 -14t14.5 -39v-294h-104l19 138h-2q-33 -75 -96.5 -114.5t-153.5 -39.5q-96 0 -171 45.5t-117.5 128.5t-42.5 193q0 108 41.5 190.5z" />
    <glyph glyph-name="Gdotaccent.ss11" 
d="M196 29.5q-75 45.5 -117.5 128.5t-42.5 193q0 108 41.5 190.5t119 128.5t183.5 46q96 0 168 -38t111 -102.5t43 -143.5h-116q-2 53 -27.5 96t-72 68t-106.5 25q-69 0 -119.5 -33t-78 -94t-27.5 -143q0 -84 29.5 -145.5t81 -94t116.5 -32.5q60 0 106 26t73 66t34 83h-225
v93h279q26 0 40.5 -14t14.5 -39v-294h-104l19 138h-2q-33 -75 -96.5 -114.5t-153.5 -39.5q-96 0 -171 45.5zM358 828h36v-36h-36v36z" />
    <glyph glyph-name="uni1E20.ss11" 
d="M196 29.5q-75 45.5 -117.5 128.5t-42.5 193q0 108 41.5 190.5t119 128.5t183.5 46q96 0 168 -38t111 -102.5t43 -143.5h-116q-2 53 -27.5 96t-72 68t-106.5 25q-69 0 -119.5 -33t-78 -94t-27.5 -143q0 -84 29.5 -145.5t81 -94t116.5 -32.5q60 0 106 26t73 66t34 83h-225
v93h279q26 0 40.5 -14t14.5 -39v-294h-104l19 138h-2q-33 -75 -96.5 -114.5t-153.5 -39.5q-96 0 -171 45.5zM252 820h250v-24h-250v24z" />
    <glyph glyph-name="uni01E4.ss11" horiz-adv-x="761" 
d="M195 29.5q-75 45.5 -117 128.5t-42 193q0 108 41.5 190.5t121 128.5t188.5 46q93 0 161.5 -32.5t107 -87.5t46.5 -124h-116q-9 65 -61.5 107t-137.5 42q-108 0 -170 -73t-62 -197q0 -85 30 -146.5t83 -93.5t122 -32q68 0 121 30.5t82 84.5h-223v18h231q18 42 18 93h-249
v93h279q26 0 40.5 -14t14.5 -39v-133h52v-18h-52v-194h-104l19 138h-2q-34 -75 -97 -114.5t-154 -39.5q-96 0 -171 45.5z" />
    <glyph glyph-name="Hbar.ss11" horiz-adv-x="676" 
d="M13 561h57v139h113v-139h327v139h113v-139h41v-24h-41v-537h-113v304h-327v-304h-113v537h-57v24zM510 399v138h-327v-138h327z" />
    <glyph glyph-name="Hcircumflex.ss11" horiz-adv-x="693" 
d="M70 700h113v-301h327v301h113v-700h-113v304h-327v-304h-113v700zM229 771l115 61h5l115 -61v-10l-117 47h-1l-117 -47v10z" />
    <glyph glyph-name="Iacute.ss11" horiz-adv-x="253" 
d="M70 700h113v-700h-113v700zM298 831v-25l-231 -38v10z" />
    <glyph glyph-name="Ibreve.ss11" horiz-adv-x="253" 
d="M70 700h113v-700h-113v700zM198 777.5q-29 -23.5 -71 -23.5t-71 23.5t-38 60.5h10q11 -28 37 -44t62 -16t62 16t37 44h10q-9 -37 -38 -60.5z" />
    <glyph glyph-name="uni01CF.ss11" horiz-adv-x="253" 
d="M70 700h113v-700h-113v700zM9 822v10l117 -47h1l117 47v-10l-115 -61h-5z" />
    <glyph glyph-name="Icircumflex.ss11" horiz-adv-x="253" 
d="M70 700h113v-700h-113v700zM9 771l115 61h5l115 -61v-10l-117 47h-1l-117 -47v10z" />
    <glyph glyph-name="Idieresis.ss11" horiz-adv-x="253" 
d="M70 700h113v-700h-113v700zM167 829h36v-36h-36v36zM51 829h36v-36h-36v36z" />
    <glyph glyph-name="Idotaccent.ss11" horiz-adv-x="253" 
d="M70 700h113v-700h-113v700zM108 828h36v-36h-36v36z" />
    <glyph glyph-name="uni1ECA.ss11" horiz-adv-x="253" 
d="M70 700h113v-700h-113v700zM109 -62h36v-46h-36v46z" />
    <glyph glyph-name="Igrave.ss11" horiz-adv-x="253" 
d="M70 700h113v-700h-113v700zM187 768l-231 38v25l231 -53v-10z" />
    <glyph glyph-name="Imacron.ss11" horiz-adv-x="253" 
d="M70 700h113v-700h-113v700zM2 820h250v-24h-250v24z" />
    <glyph glyph-name="Iogonek.ss11" horiz-adv-x="253" 
d="M70 700h113v-700h-4l-16 -8q-19 -9 -30 -26t-11 -38q0 -30 24 -49t66 -19h13v-30h-18q-48 0 -77 23.5t-29 61.5q0 26 14 48t39 35v2h-84v700z" />
    <glyph glyph-name="Itilde.ss11" horiz-adv-x="253" 
d="M70 700h113v-700h-113v700zM157.5 757.5q-16.5 11.5 -38.5 35.5q-18 21 -32.5 31.5t-34.5 10.5q-28 0 -47.5 -22t-19.5 -62h-10q0 49 22 77t58 28q25 0 42 -12t37 -35q21 -22 34.5 -32t33.5 -10q28 0 47.5 22t19.5 62h10q0 -50 -21.5 -77.5t-58.5 -27.5q-25 0 -41.5 11.5
z" />
    <glyph glyph-name="uni004A0301.ss11" horiz-adv-x="560" 
d="M80 50q-65 66 -65 188h112q0 -79 33.5 -119t91.5 -40q59 0 92 39.5t33 119.5v462h113v-464q0 -121 -65 -186.5t-173 -65.5q-107 0 -172 66zM603 831v-25l-231 -38v10z" />
    <glyph glyph-name="Jcircumflex.ss11" horiz-adv-x="560" 
d="M80 50q-65 66 -65 188h112q0 -79 33.5 -119t91.5 -40q59 0 92 39.5t33 119.5v462h113v-464q0 -121 -65 -186.5t-173 -65.5q-107 0 -172 66zM314 771l115 61h5l115 -61v-10l-117 47h-1l-117 -47v10z" />
    <glyph glyph-name="uni0136.ss11" horiz-adv-x="648" 
d="M70 700h113v-343h2l300 343h146l-273 -305l288 -395h-141l-220 311h-2l-100 -111v-200h-113v700zM335 -122v6h-31v55h45v-61q0 -26 -13.5 -42t-41.5 -16v14q41 0 41 44z" />
    <glyph glyph-name="Lacute.ss11" horiz-adv-x="505" 
d="M491 95v-95h-421v700h113v-605h308zM297 831v-25l-231 -38v10z" />
    <glyph glyph-name="Lcaron.ss11" horiz-adv-x="505" 
d="M491 95v-95h-421v700h113v-605h308zM379.5 597q9.5 12 9.5 36v18h-25v49h39v-68q0 -61 -55 -61v14q22 0 31.5 12z" />
    <glyph glyph-name="uni013B.ss11" horiz-adv-x="505" 
d="M491 95v-95h-421v700h113v-605h308zM293 -122v6h-31v55h45v-61q0 -26 -13.5 -42t-41.5 -16v14q41 0 41 44z" />
    <glyph glyph-name="Ldot.ss11" horiz-adv-x="505" 
d="M295 359h36v-46h-36v46zM70 700h113v-605h308v-95h-421v700z" />
    <glyph glyph-name="Nacute.ss11" horiz-adv-x="736" 
d="M183 543h-2l1 -120v-423h-112v700h145l339 -541h2l-1 120v421h111v-700h-142zM541 831v-25l-231 -38v10z" />
    <glyph glyph-name="Ncaron.ss11" horiz-adv-x="736" 
d="M183 543h-2l1 -120v-423h-112v700h145l339 -541h2l-1 120v421h111v-700h-142zM252 822v10l117 -47h1l117 47v-10l-115 -61h-5z" />
    <glyph glyph-name="uni0145.ss11" horiz-adv-x="736" 
d="M183 543h-2l1 -120v-423h-112v700h145l339 -541h2l-1 120v421h111v-700h-142zM383 -122v6h-31v55h45v-61q0 -26 -13.5 -42t-41.5 -16v14q41 0 41 44z" />
    <glyph glyph-name="Ntilde.ss11" horiz-adv-x="736" 
d="M183 543h-2l1 -120v-423h-112v700h145l339 -541h2l-1 120v421h111v-700h-142zM400.5 757.5q-16.5 11.5 -38.5 35.5q-18 21 -32.5 31.5t-34.5 10.5q-28 0 -47.5 -22t-19.5 -62h-10q0 49 22 77t58 28q25 0 42 -12t37 -35q21 -22 34.5 -32t33.5 -10q28 0 47.5 22t19.5 62h10
q0 -50 -21.5 -77.5t-58.5 -27.5q-25 0 -41.5 11.5z" />
    <glyph glyph-name="Oacute.ss11" 
d="M206.5 27q-78.5 43 -124.5 126t-46 197t46 197t124.5 126t173.5 43t173.5 -43t124.5 -126t46 -197t-46 -197t-124.5 -126t-173.5 -43t-173.5 43zM184.5 200q29.5 -61 80 -91t115.5 -30t116 30t80 91t29 150t-29 150t-80 91t-116 30t-115.5 -30t-80 -91t-29.5 -150
t29.5 -150zM551 831v-25l-231 -38v10z" />
    <glyph glyph-name="Obreve.ss11" 
d="M206.5 27q-78.5 43 -124.5 126t-46 197t46 197t124.5 126t173.5 43t173.5 -43t124.5 -126t46 -197t-46 -197t-124.5 -126t-173.5 -43t-173.5 43zM184.5 200q29.5 -61 80 -91t115.5 -30t116 30t80 91t29 150t-29 150t-80 91t-116 30t-115.5 -30t-80 -91t-29.5 -150
t29.5 -150zM451 777.5q-29 -23.5 -71 -23.5t-71 23.5t-38 60.5h10q11 -28 37 -44t62 -16t62 16t37 44h10q-9 -37 -38 -60.5z" />
    <glyph glyph-name="uni01D1.ss11" 
d="M206.5 27q-78.5 43 -124.5 126t-46 197t46 197t124.5 126t173.5 43t173.5 -43t124.5 -126t46 -197t-46 -197t-124.5 -126t-173.5 -43t-173.5 43zM184.5 200q29.5 -61 80 -91t115.5 -30t116 30t80 91t29 150t-29 150t-80 91t-116 30t-115.5 -30t-80 -91t-29.5 -150
t29.5 -150zM262 822v10l117 -47h1l117 47v-10l-115 -61h-5z" />
    <glyph glyph-name="Ocircumflex.ss11" 
d="M206.5 27q-78.5 43 -124.5 126t-46 197t46 197t124.5 126t173.5 43t173.5 -43t124.5 -126t46 -197t-46 -197t-124.5 -126t-173.5 -43t-173.5 43zM184.5 200q29.5 -61 80 -91t115.5 -30t116 30t80 91t29 150t-29 150t-80 91t-116 30t-115.5 -30t-80 -91t-29.5 -150
t29.5 -150zM262 771l115 61h5l115 -61v-10l-117 47h-1l-117 -47v10z" />
    <glyph glyph-name="Odieresis.ss11" 
d="M206.5 27q-78.5 43 -124.5 126t-46 197t46 197t124.5 126t173.5 43t173.5 -43t124.5 -126t46 -197t-46 -197t-124.5 -126t-173.5 -43t-173.5 43zM184.5 200q29.5 -61 80 -91t115.5 -30t116 30t80 91t29 150t-29 150t-80 91t-116 30t-115.5 -30t-80 -91t-29.5 -150
t29.5 -150zM420 829h36v-36h-36v36zM304 829h36v-36h-36v36z" />
    <glyph glyph-name="uni1ECC.ss11" 
d="M206.5 27q-78.5 43 -124.5 126t-46 197t46 197t124.5 126t173.5 43t173.5 -43t124.5 -126t46 -197t-46 -197t-124.5 -126t-173.5 -43t-173.5 43zM184.5 200q29.5 -61 80 -91t115.5 -30t116 30t80 91t29 150t-29 150t-80 91t-116 30t-115.5 -30t-80 -91t-29.5 -150
t29.5 -150zM362 -62h36v-46h-36v46z" />
    <glyph glyph-name="Ograve.ss11" 
d="M206.5 27q-78.5 43 -124.5 126t-46 197t46 197t124.5 126t173.5 43t173.5 -43t124.5 -126t46 -197t-46 -197t-124.5 -126t-173.5 -43t-173.5 43zM184.5 200q29.5 -61 80 -91t115.5 -30t116 30t80 91t29 150t-29 150t-80 91t-116 30t-115.5 -30t-80 -91t-29.5 -150
t29.5 -150zM440 768l-231 38v25l231 -53v-10z" />
    <glyph glyph-name="Ohungarumlaut.ss11" 
d="M206.5 27q-78.5 43 -124.5 126t-46 197t46 197t124.5 126t173.5 43t173.5 -43t124.5 -126t46 -197t-46 -197t-124.5 -126t-173.5 -43t-173.5 43zM184.5 200q29.5 -61 80 -91t115.5 -30t116 30t80 91t29 150t-29 150t-80 91t-116 30t-115.5 -30t-80 -91t-29.5 -150
t29.5 -150zM382 778l141 53v-25l-141 -38v10zM241 778l141 53v-25l-141 -38v10z" />
    <glyph glyph-name="Omacron.ss11" 
d="M206.5 27q-78.5 43 -124.5 126t-46 197t46 197t124.5 126t173.5 43t173.5 -43t124.5 -126t46 -197t-46 -197t-124.5 -126t-173.5 -43t-173.5 43zM184.5 200q29.5 -61 80 -91t115.5 -30t116 30t80 91t29 150t-29 150t-80 91t-116 30t-115.5 -30t-80 -91t-29.5 -150
t29.5 -150zM255 820h250v-24h-250v24z" />
    <glyph glyph-name="uni01EA.ss11" 
d="M532.5 -145q-28.5 25 -28.5 67q0 28 13.5 55.5t37.5 49.5v1q-77 -44 -175 -44q-95 0 -173.5 43t-124.5 126t-46 197t46 197t124.5 126t173.5 43t173.5 -43t124.5 -126t46 -197q0 -98 -34.5 -173.5t-95.5 -122.5l-8 -8q-61 -57 -61 -114q0 -34 23.5 -53t66.5 -19h13v-30
h-18q-49 0 -77.5 25zM184.5 200q29.5 -61 80 -91t115.5 -30t116 30t80 91t29 150t-29 150t-80 91t-116 30t-115.5 -30t-80 -91t-29.5 -150t29.5 -150z" />
    <glyph glyph-name="Oslash.ss11" 
d="M618 626q50 -48 78 -118t28 -158q0 -114 -46 -197t-124.5 -126t-173.5 -43q-66 0 -125.5 21.5t-105.5 61.5l-61 -70l-10 8l-1 1l60 73q-48 48 -74.5 117t-26.5 154q0 114 46 197t124.5 126t173.5 43q65 0 122 -20t103 -58l57 65l10 -8l1 -1zM205 164l158 195l173 199
q-30 31 -70 47t-86 16q-65 0 -115.5 -30t-80 -91t-29.5 -150q0 -113 50 -186zM290 96.5q41 -17.5 90 -17.5q65 0 116 30t80 91t29 150q0 121 -55 192l-164 -202l-167 -192q30 -34 71 -51.5z" />
    <glyph glyph-name="Oslashacute.ss11" 
d="M618 626q50 -48 78 -118t28 -158q0 -114 -46 -197t-124.5 -126t-173.5 -43q-66 0 -125.5 21.5t-105.5 61.5l-61 -70l-10 8l-1 1l60 73q-48 48 -74.5 117t-26.5 154q0 114 46 197t124.5 126t173.5 43q65 0 122 -20t103 -58l57 65l10 -8l1 -1zM205 164l158 195l173 199
q-30 31 -70 47t-86 16q-65 0 -115.5 -30t-80 -91t-29.5 -150q0 -113 50 -186zM290 96.5q41 -17.5 90 -17.5q65 0 116 30t80 91t29 150q0 121 -55 192l-164 -202l-167 -192q30 -34 71 -51.5zM546 831v-25l-231 -38v10z" />
    <glyph glyph-name="Otilde.ss11" 
d="M206.5 27q-78.5 43 -124.5 126t-46 197t46 197t124.5 126t173.5 43t173.5 -43t124.5 -126t46 -197t-46 -197t-124.5 -126t-173.5 -43t-173.5 43zM184.5 200q29.5 -61 80 -91t115.5 -30t116 30t80 91t29 150t-29 150t-80 91t-116 30t-115.5 -30t-80 -91t-29.5 -150
t29.5 -150zM410.5 757.5q-16.5 11.5 -38.5 35.5q-18 21 -32.5 31.5t-34.5 10.5q-28 0 -47.5 -22t-19.5 -62h-10q0 49 22 77t58 28q25 0 42 -12t37 -35q21 -22 34.5 -32t33.5 -10q28 0 47.5 22t19.5 62h10q0 -50 -21.5 -77.5t-58.5 -27.5q-25 0 -41.5 11.5z" />
    <glyph glyph-name="Racute.ss11" horiz-adv-x="638" 
d="M70 700h282q118 0 184.5 -52t66.5 -139q0 -69 -41.5 -115.5t-118.5 -61.5v-2q59 -22 89.5 -66t51.5 -119l40 -145h-116l-32 122q-16 65 -36.5 98.5t-53.5 47t-91 13.5h-112v-281h-113v700zM304 375q90 0 136 30.5t46 89.5q0 52 -37 81t-108 29h-158v-230h121zM492 831
v-25l-231 -38v10z" />
    <glyph glyph-name="Rcaron.ss11" horiz-adv-x="638" 
d="M70 700h282q118 0 184.5 -52t66.5 -139q0 -69 -41.5 -115.5t-118.5 -61.5v-2q59 -22 89.5 -66t51.5 -119l40 -145h-116l-32 122q-16 65 -36.5 98.5t-53.5 47t-91 13.5h-112v-281h-113v700zM304 375q90 0 136 30.5t46 89.5q0 52 -37 81t-108 29h-158v-230h121zM203 822v10
l117 -47h1l117 47v-10l-115 -61h-5z" />
    <glyph glyph-name="uni0156.ss11" horiz-adv-x="638" 
d="M70 700h282q118 0 184.5 -52t66.5 -139q0 -69 -41.5 -115.5t-118.5 -61.5v-2q59 -22 89.5 -66t51.5 -119l40 -145h-116l-32 122q-16 65 -36.5 98.5t-53.5 47t-91 13.5h-112v-281h-113v700zM304 375q90 0 136 30.5t46 89.5q0 52 -37 81t-108 29h-158v-230h121zM337 -122v6
h-31v55h45v-61q0 -26 -13.5 -42t-41.5 -16v14q41 0 41 44z" />
    <glyph glyph-name="Sacute.ss11" horiz-adv-x="647" 
d="M116.5 52.5q-74.5 68.5 -79.5 189.5h116q4 -79 49.5 -121t127.5 -42q76 0 120 35.5t44 95.5q0 100 -133 100h-90q-110 0 -167 52t-57 137q0 65 33.5 114t95.5 76t147 27q133 0 202.5 -65.5t74.5 -178.5h-115q-6 149 -164 149q-74 0 -116.5 -31.5t-42.5 -86.5
q0 -92 124 -92h90q124 0 179 -55.5t55 -141.5q0 -70 -34 -122t-97.5 -80t-150.5 -28q-137 0 -211.5 68.5zM494 831v-25l-231 -38v10z" />
    <glyph glyph-name="uniA78B.ss11" horiz-adv-x="195" 
d="M98 578l-18 222h35v-467h-10z" />
    <glyph glyph-name="Scaron.ss11" horiz-adv-x="647" 
d="M116.5 52.5q-74.5 68.5 -79.5 189.5h116q4 -79 49.5 -121t127.5 -42q76 0 120 35.5t44 95.5q0 100 -133 100h-90q-110 0 -167 52t-57 137q0 65 33.5 114t95.5 76t147 27q133 0 202.5 -65.5t74.5 -178.5h-115q-6 149 -164 149q-74 0 -116.5 -31.5t-42.5 -86.5
q0 -92 124 -92h90q124 0 179 -55.5t55 -141.5q0 -70 -34 -122t-97.5 -80t-150.5 -28q-137 0 -211.5 68.5zM205 822v10l117 -47h1l117 47v-10l-115 -61h-5z" />
    <glyph glyph-name="Scedilla.ss11" horiz-adv-x="647" 
d="M258 -170v25h75q24 0 37.5 12t13.5 31t-13.5 30.5t-37.5 11.5h-22v44q-129 4 -199 72.5t-75 185.5h116q4 -79 49.5 -121t127.5 -42q76 0 120 35.5t44 95.5q0 100 -133 100h-90q-110 0 -167 52t-57 137q0 65 33.5 114t95.5 76t147 27q133 0 202.5 -65.5t74.5 -178.5h-115
q-6 149 -164 149q-74 0 -116.5 -31.5t-42.5 -86.5q0 -92 124 -92h90q124 0 179 -55.5t55 -141.5q0 -69 -33 -120.5t-95 -80t-147 -29.5v-33h4q34 0 54 -15t20 -44q0 -30 -21 -46t-54 -16h-80z" />
    <glyph glyph-name="Scircumflex.ss11" horiz-adv-x="647" 
d="M116.5 52.5q-74.5 68.5 -79.5 189.5h116q4 -79 49.5 -121t127.5 -42q76 0 120 35.5t44 95.5q0 100 -133 100h-90q-110 0 -167 52t-57 137q0 65 33.5 114t95.5 76t147 27q133 0 202.5 -65.5t74.5 -178.5h-115q-6 149 -164 149q-74 0 -116.5 -31.5t-42.5 -86.5
q0 -92 124 -92h90q124 0 179 -55.5t55 -141.5q0 -70 -34 -122t-97.5 -80t-150.5 -28q-137 0 -211.5 68.5zM205 771l115 61h5l115 -61v-10l-117 47h-1l-117 -47v10z" />
    <glyph glyph-name="uni0218.ss11" horiz-adv-x="647" 
d="M116.5 52.5q-74.5 68.5 -79.5 189.5h116q4 -79 49.5 -121t127.5 -42q76 0 120 35.5t44 95.5q0 100 -133 100h-90q-110 0 -167 52t-57 137q0 65 33.5 114t95.5 76t147 27q133 0 202.5 -65.5t74.5 -178.5h-115q-6 149 -164 149q-74 0 -116.5 -31.5t-42.5 -86.5
q0 -92 124 -92h90q124 0 179 -55.5t55 -141.5q0 -70 -34 -122t-97.5 -80t-150.5 -28q-137 0 -211.5 68.5zM336 -122v6h-31v55h45v-61q0 -26 -13.5 -42t-41.5 -16v14q41 0 41 44z" />
    <glyph glyph-name="Tbar.ss11" horiz-adv-x="609" 
d="M102 345h146v260h-234v95h581v-95h-234v-260h136v-26h-136v-319h-113v319h-146v26z" />
    <glyph glyph-name="Tcaron.ss11" horiz-adv-x="609" 
d="M248 605h-234v95h581v-95h-234v-605h-113v605zM187 822v10l117 -47h1l117 47v-10l-115 -61h-5z" />
    <glyph glyph-name="uni0162.ss11" horiz-adv-x="609" 
d="M248 605h-234v95h581v-95h-234v-605h-113v605zM240 -170v25h75q24 0 37.5 12t13.5 31t-13.5 30.5t-37.5 11.5h-22v60h24v-49h4q34 0 54 -15t20 -44q0 -30 -21 -46t-54 -16h-80z" />
    <glyph glyph-name="uni021A.ss11" horiz-adv-x="609" 
d="M248 605h-234v95h581v-95h-234v-605h-113v605zM318 -122v6h-31v55h45v-61q0 -26 -13.5 -42t-41.5 -16v14q41 0 41 44z" />
    <glyph glyph-name="Uacute.ss11" horiz-adv-x="700" 
d="M206.5 17q-63.5 33 -100 96.5t-36.5 151.5v435h113v-431q0 -91 46.5 -140.5t120.5 -49.5t121 49.5t47 140.5v431h112v-435q0 -88 -36.5 -151.5t-100 -96.5t-143.5 -33t-143.5 33zM521 831v-25l-231 -38v10z" />
    <glyph glyph-name="Ubreve.ss11" horiz-adv-x="700" 
d="M206.5 17q-63.5 33 -100 96.5t-36.5 151.5v435h113v-431q0 -91 46.5 -140.5t120.5 -49.5t121 49.5t47 140.5v431h112v-435q0 -88 -36.5 -151.5t-100 -96.5t-143.5 -33t-143.5 33zM421 777.5q-29 -23.5 -71 -23.5t-71 23.5t-38 60.5h10q11 -28 37 -44t62 -16t62 16t37 44
h10q-9 -37 -38 -60.5z" />
    <glyph glyph-name="uni01D3.ss11" horiz-adv-x="700" 
d="M206.5 17q-63.5 33 -100 96.5t-36.5 151.5v435h113v-431q0 -91 46.5 -140.5t120.5 -49.5t121 49.5t47 140.5v431h112v-435q0 -88 -36.5 -151.5t-100 -96.5t-143.5 -33t-143.5 33zM232 822v10l117 -47h1l117 47v-10l-115 -61h-5z" />
    <glyph glyph-name="Ucircumflex.ss11" horiz-adv-x="700" 
d="M206.5 17q-63.5 33 -100 96.5t-36.5 151.5v435h113v-431q0 -91 46.5 -140.5t120.5 -49.5t121 49.5t47 140.5v431h112v-435q0 -88 -36.5 -151.5t-100 -96.5t-143.5 -33t-143.5 33zM232 771l115 61h5l115 -61v-10l-117 47h-1l-117 -47v10z" />
    <glyph glyph-name="Udieresis.ss11" horiz-adv-x="700" 
d="M206.5 17q-63.5 33 -100 96.5t-36.5 151.5v435h113v-431q0 -91 46.5 -140.5t120.5 -49.5t121 49.5t47 140.5v431h112v-435q0 -88 -36.5 -151.5t-100 -96.5t-143.5 -33t-143.5 33zM390 829h36v-36h-36v36zM274 829h36v-36h-36v36z" />
    <glyph glyph-name="uni1EE4.ss11" horiz-adv-x="700" 
d="M206.5 17q-63.5 33 -100 96.5t-36.5 151.5v435h113v-431q0 -91 46.5 -140.5t120.5 -49.5t121 49.5t47 140.5v431h112v-435q0 -88 -36.5 -151.5t-100 -96.5t-143.5 -33t-143.5 33zM332 -62h36v-46h-36v46z" />
    <glyph glyph-name="Ugrave.ss11" horiz-adv-x="700" 
d="M206.5 17q-63.5 33 -100 96.5t-36.5 151.5v435h113v-431q0 -91 46.5 -140.5t120.5 -49.5t121 49.5t47 140.5v431h112v-435q0 -88 -36.5 -151.5t-100 -96.5t-143.5 -33t-143.5 33zM410 768l-231 38v25l231 -53v-10z" />
    <glyph glyph-name="Uhungarumlaut.ss11" horiz-adv-x="700" 
d="M206.5 17q-63.5 33 -100 96.5t-36.5 151.5v435h113v-431q0 -91 46.5 -140.5t120.5 -49.5t121 49.5t47 140.5v431h112v-435q0 -88 -36.5 -151.5t-100 -96.5t-143.5 -33t-143.5 33zM352 778l141 53v-25l-141 -38v10zM211 778l141 53v-25l-141 -38v10z" />
    <glyph glyph-name="Umacron.ss11" horiz-adv-x="700" 
d="M206.5 17q-63.5 33 -100 96.5t-36.5 151.5v435h113v-431q0 -91 46.5 -140.5t120.5 -49.5t121 49.5t47 140.5v431h112v-435q0 -88 -36.5 -151.5t-100 -96.5t-143.5 -33t-143.5 33zM225 820h250v-24h-250v24z" />
    <glyph glyph-name="Uogonek.ss11" horiz-adv-x="688" 
d="M473.5 -145q-28.5 25 -28.5 67q0 48 36 89q-57 -27 -131 -27q-80 0 -143.5 33t-100 96.5t-36.5 151.5v435h113v-431q0 -91 46.5 -140.5t120.5 -49.5t121 49.5t47 140.5v431h112v-435q0 -83 -33 -144.5t-91 -96.5q-40 -47 -40 -92q0 -34 23.5 -53t66.5 -19h13v-30h-18
q-49 0 -77.5 25z" />
    <glyph glyph-name="Uring.ss11" horiz-adv-x="700" 
d="M206.5 17q-63.5 33 -100 96.5t-36.5 151.5v435h113v-431q0 -91 46.5 -140.5t120.5 -49.5t121 49.5t47 140.5v431h112v-435q0 -88 -36.5 -151.5t-100 -96.5t-143.5 -33t-143.5 33zM302 763q-20 20 -20 48q0 29 20 49t48 20t48 -20t20 -49q0 -28 -19.5 -48t-48.5 -20
q-28 0 -48 20zM314 768q15 -15 36 -15t36 15t15 36t-15 36.5t-36 15.5t-36 -15.5t-15 -36.5t15 -36z" />
    <glyph glyph-name="Utilde.ss11" horiz-adv-x="700" 
d="M206.5 17q-63.5 33 -100 96.5t-36.5 151.5v435h113v-431q0 -91 46.5 -140.5t120.5 -49.5t121 49.5t47 140.5v431h112v-435q0 -88 -36.5 -151.5t-100 -96.5t-143.5 -33t-143.5 33zM380.5 757.5q-16.5 11.5 -38.5 35.5q-18 21 -32.5 31.5t-34.5 10.5q-28 0 -47.5 -22
t-19.5 -62h-10q0 49 22 77t58 28q25 0 42 -12t37 -35q21 -22 34.5 -32t33.5 -10q28 0 47.5 22t19.5 62h10q0 -50 -21.5 -77.5t-58.5 -27.5q-25 0 -41.5 11.5z" />
    <glyph glyph-name="Wacute.ss11" horiz-adv-x="928" 
d="M10 700h116l139 -552h2l130 552h137l128 -552h2l138 552h116l-191 -700h-129l-133 565h-2l-133 -565h-129zM636 831v-25l-231 -38v10z" />
    <glyph glyph-name="Wcircumflex.ss11" horiz-adv-x="928" 
d="M10 700h116l139 -552h2l130 552h137l128 -552h2l138 552h116l-191 -700h-129l-133 565h-2l-133 -565h-129zM347 771l115 61h5l115 -61v-10l-117 47h-1l-117 -47v10z" />
    <glyph glyph-name="Wdieresis.ss11" horiz-adv-x="928" 
d="M10 700h116l139 -552h2l130 552h137l128 -552h2l138 552h116l-191 -700h-129l-133 565h-2l-133 -565h-129zM505 829h36v-36h-36v36zM389 829h36v-36h-36v36z" />
    <glyph glyph-name="Wgrave.ss11" horiz-adv-x="928" 
d="M10 700h116l139 -552h2l130 552h137l128 -552h2l138 552h116l-191 -700h-129l-133 565h-2l-133 -565h-129zM525 768l-231 38v25l231 -53v-10z" />
    <glyph glyph-name="Yacute.ss11" horiz-adv-x="619" 
d="M253 278l-243 422h128l170 -319h2l171 319h128l-244 -422v-278h-112v278zM480 831v-25l-231 -38v10z" />
    <glyph glyph-name="Ycircumflex.ss11" horiz-adv-x="619" 
d="M253 278l-243 422h128l170 -319h2l171 319h128l-244 -422v-278h-112v278zM191 771l115 61h5l115 -61v-10l-117 47h-1l-117 -47v10z" />
    <glyph glyph-name="Ydieresis.ss11" horiz-adv-x="619" 
d="M253 278l-243 422h128l170 -319h2l171 319h128l-244 -422v-278h-112v278zM349 829h36v-36h-36v36zM233 829h36v-36h-36v36z" />
    <glyph glyph-name="Ygrave.ss11" horiz-adv-x="619" 
d="M253 278l-243 422h128l170 -319h2l171 319h128l-244 -422v-278h-112v278zM369 768l-231 38v25l231 -53v-10z" />
    <glyph glyph-name="uni0232.ss11" horiz-adv-x="619" 
d="M253 278l-243 422h128l170 -319h2l171 319h128l-244 -422v-278h-112v278zM184 820h250v-24h-250v24z" />
    <glyph glyph-name="uni1EF8.ss11" horiz-adv-x="619" 
d="M253 278l-243 422h128l170 -319h2l171 319h128l-244 -422v-278h-112v278zM339.5 757.5q-16.5 11.5 -38.5 35.5q-18 21 -32.5 31.5t-34.5 10.5q-28 0 -47.5 -22t-19.5 -62h-10q0 49 22 77t58 28q25 0 42 -12t37 -35q21 -22 34.5 -32t33.5 -10q28 0 47.5 22t19.5 62h10
q0 -50 -21.5 -77.5t-58.5 -27.5q-25 0 -41.5 11.5z" />
    <glyph glyph-name="Zacute.ss11" horiz-adv-x="585" 
d="M18 93l389 509v2h-379v96h529v-86l-389 -509v-2h399v-103h-549v93zM469 831v-25l-231 -38v10z" />
    <glyph glyph-name="Zcaron.ss11" horiz-adv-x="585" 
d="M18 93l389 509v2h-379v96h529v-86l-389 -509v-2h399v-103h-549v93zM180 822v10l117 -47h1l117 47v-10l-115 -61h-5z" />
    <glyph glyph-name="Zdotaccent.ss11" horiz-adv-x="585" 
d="M18 93l389 509v2h-379v96h529v-86l-389 -509v-2h399v-103h-549v93zM279 828h36v-36h-36v36z" />
    <glyph glyph-name="uni013B.loclMAH.ss11" horiz-adv-x="505" 
d="M491 95v-95h-421v700h113v-605h308zM215 -145h75q24 0 37.5 12t13.5 31t-13.5 30.5t-37.5 11.5h-22v11h22q38 0 59 -15t21 -44q0 -30 -21 -46t-54 -16h-80v25z" />
    <glyph glyph-name="uni0145.loclMAH.ss11" horiz-adv-x="736" 
d="M183 543h-2l1 -120v-423h-112v700h145l339 -541h2l-1 120v421h111v-700h-142zM383 -122v6h-31v55h45v-61q0 -26 -13.5 -42t-41.5 -16v14q41 0 41 44z" />
    <glyph glyph-name="Yacute.ss04.ss11" horiz-adv-x="544" 
d="M12 92h243v2l-245 606h122l139 -372h2l139 372h122l-205 -500l43 -115q6 -13 6 -27q0 -25 -17.5 -41.5t-44.5 -16.5h-304v92zM443 831v-25l-231 -38v10z" />
    <glyph glyph-name="Ycircumflex.ss04.ss11" horiz-adv-x="544" 
d="M12 92h243v2l-245 606h122l139 -372h2l139 372h122l-205 -500l43 -115q6 -13 6 -27q0 -25 -17.5 -41.5t-44.5 -16.5h-304v92zM154 771l115 61h5l115 -61v-10l-117 47h-1l-117 -47v10z" />
    <glyph glyph-name="Ydieresis.ss04.ss11" horiz-adv-x="544" 
d="M12 92h243v2l-245 606h122l139 -372h2l139 372h122l-205 -500l43 -115q6 -13 6 -27q0 -25 -17.5 -41.5t-44.5 -16.5h-304v92zM312 829h36v-36h-36v36zM196 829h36v-36h-36v36z" />
    <glyph glyph-name="Ygrave.ss04.ss11" horiz-adv-x="544" 
d="M12 92h243v2l-245 606h122l139 -372h2l139 372h122l-205 -500l43 -115q6 -13 6 -27q0 -25 -17.5 -41.5t-44.5 -16.5h-304v92zM332 768l-231 38v25l231 -53v-10z" />
    <glyph glyph-name="uni0232.ss04.ss11" horiz-adv-x="544" 
d="M12 92h243v2l-245 606h122l139 -372h2l139 372h122l-205 -500l43 -115q6 -13 6 -27q0 -25 -17.5 -41.5t-44.5 -16.5h-304v92zM147 820h250v-24h-250v24z" />
    <glyph glyph-name="uni1EF8.ss04.ss11" horiz-adv-x="544" 
d="M12 92h243v2l-245 606h122l139 -372h2l139 372h122l-205 -500l43 -115q6 -13 6 -27q0 -25 -17.5 -41.5t-44.5 -16.5h-304v92zM302.5 757.5q-16.5 11.5 -38.5 35.5q-18 21 -32.5 31.5t-34.5 10.5q-28 0 -47.5 -22t-19.5 -62h-10q0 49 22 77t58 28q25 0 42 -12t37 -35
q21 -22 34.5 -32t33.5 -10q28 0 47.5 22t19.5 62h10q0 -50 -21.5 -77.5t-58.5 -27.5q-25 0 -41.5 11.5z" />
    <glyph glyph-name="Sacute.ss05.ss11" horiz-adv-x="607" 
d="M59 93h264q59 0 93.5 29t34.5 80q0 50 -34.5 79t-93.5 29h-69q-63 0 -112.5 24t-77 68.5t-27.5 103.5q0 91 62.5 142.5t163.5 51.5h277v-93h-277q-49 0 -78.5 -26.5t-29.5 -72.5q0 -45 29.5 -71.5t78.5 -26.5h72q69 0 122.5 -25.5t83 -72t29.5 -108.5q0 -63 -31.5 -109
t-86.5 -70.5t-126 -24.5h-267v93zM475 831v-25l-231 -38v10z" />
    <glyph glyph-name="Scaron.ss05.ss11" horiz-adv-x="607" 
d="M59 93h264q59 0 93.5 29t34.5 80q0 50 -34.5 79t-93.5 29h-69q-63 0 -112.5 24t-77 68.5t-27.5 103.5q0 91 62.5 142.5t163.5 51.5h277v-93h-277q-49 0 -78.5 -26.5t-29.5 -72.5q0 -45 29.5 -71.5t78.5 -26.5h72q69 0 122.5 -25.5t83 -72t29.5 -108.5q0 -63 -31.5 -109
t-86.5 -70.5t-126 -24.5h-267v93zM186 822v10l117 -47h1l117 47v-10l-115 -61h-5z" />
    <glyph glyph-name="Scedilla.ss05.ss11" horiz-adv-x="607" 
d="M59 93h264q59 0 93.5 29t34.5 80q0 50 -34.5 79t-93.5 29h-69q-63 0 -112.5 24t-77 68.5t-27.5 103.5q0 91 62.5 142.5t163.5 51.5h277v-93h-277q-49 0 -78.5 -26.5t-29.5 -72.5q0 -45 29.5 -71.5t78.5 -26.5h72q69 0 122.5 -25.5t83 -72t29.5 -108.5q0 -63 -31.5 -109
t-86.5 -70.5t-126 -24.5h-267v93zM239 -170v25h75q24 0 37.5 12t13.5 31t-13.5 30.5t-37.5 11.5h-22v60h24v-49h4q34 0 54 -15t20 -44q0 -30 -21 -46t-54 -16h-80z" />
    <glyph glyph-name="Scircumflex.ss05.ss11" horiz-adv-x="607" 
d="M59 93h264q59 0 93.5 29t34.5 80q0 50 -34.5 79t-93.5 29h-69q-63 0 -112.5 24t-77 68.5t-27.5 103.5q0 91 62.5 142.5t163.5 51.5h277v-93h-277q-49 0 -78.5 -26.5t-29.5 -72.5q0 -45 29.5 -71.5t78.5 -26.5h72q69 0 122.5 -25.5t83 -72t29.5 -108.5q0 -63 -31.5 -109
t-86.5 -70.5t-126 -24.5h-267v93zM186 771l115 61h5l115 -61v-10l-117 47h-1l-117 -47v10z" />
    <glyph glyph-name="uni0218.ss05.ss11" horiz-adv-x="607" 
d="M59 93h264q59 0 93.5 29t34.5 80q0 50 -34.5 79t-93.5 29h-69q-63 0 -112.5 24t-77 68.5t-27.5 103.5q0 91 62.5 142.5t163.5 51.5h277v-93h-277q-49 0 -78.5 -26.5t-29.5 -72.5q0 -45 29.5 -71.5t78.5 -26.5h72q69 0 122.5 -25.5t83 -72t29.5 -108.5q0 -63 -31.5 -109
t-86.5 -70.5t-126 -24.5h-267v93zM317 -122v6h-31v55h45v-61q0 -26 -13.5 -42t-41.5 -16v14q41 0 41 44z" />
    <glyph glyph-name="Sacute.ss06.ss11" horiz-adv-x="652" 
d="M174 17q-65 33 -99.5 91t-37.5 134h115q4 -79 51 -121t128 -42q77 0 122.5 35.5t45.5 91.5q0 47 -34.5 75.5t-98.5 28.5h-97q-66 0 -116.5 24.5t-78 68.5t-27.5 101q0 90 63.5 143t173.5 53h293v-95h-293q-60 0 -91 -26t-31 -70q0 -45 31.5 -71.5t87.5 -26.5h99
q116 0 175.5 -56t59.5 -143q0 -67 -34.5 -118.5t-99 -80.5t-152.5 -29q-90 0 -155 33zM502 831v-25l-231 -38v10z" />
    <glyph glyph-name="Scaron.ss06.ss11" horiz-adv-x="652" 
d="M174 17q-65 33 -99.5 91t-37.5 134h115q4 -79 51 -121t128 -42q77 0 122.5 35.5t45.5 91.5q0 47 -34.5 75.5t-98.5 28.5h-97q-66 0 -116.5 24.5t-78 68.5t-27.5 101q0 90 63.5 143t173.5 53h293v-95h-293q-60 0 -91 -26t-31 -70q0 -45 31.5 -71.5t87.5 -26.5h99
q116 0 175.5 -56t59.5 -143q0 -67 -34.5 -118.5t-99 -80.5t-152.5 -29q-90 0 -155 33zM213 822v10l117 -47h1l117 47v-10l-115 -61h-5z" />
    <glyph glyph-name="Scedilla.ss06.ss11" horiz-adv-x="652" 
d="M266 -170v25h75q24 0 37.5 12t13.5 31t-13.5 30.5t-37.5 11.5h-22v44q-87 2 -149.5 35t-96 91t-36.5 132h115q4 -79 51 -121t128 -42q77 0 122.5 35.5t45.5 91.5q0 47 -34.5 75.5t-98.5 28.5h-97q-66 0 -116.5 24.5t-78 68.5t-27.5 101q0 90 63.5 143t173.5 53h293v-95
h-293q-60 0 -91 -26t-31 -70q0 -45 31.5 -71.5t87.5 -26.5h99q116 0 175.5 -56t59.5 -143q0 -65 -32.5 -115.5t-94 -80.5t-145.5 -32v-33h4q34 0 54 -15t20 -44q0 -30 -21 -46t-54 -16h-80z" />
    <glyph glyph-name="Scircumflex.ss06.ss11" horiz-adv-x="652" 
d="M174 17q-65 33 -99.5 91t-37.5 134h115q4 -79 51 -121t128 -42q77 0 122.5 35.5t45.5 91.5q0 47 -34.5 75.5t-98.5 28.5h-97q-66 0 -116.5 24.5t-78 68.5t-27.5 101q0 90 63.5 143t173.5 53h293v-95h-293q-60 0 -91 -26t-31 -70q0 -45 31.5 -71.5t87.5 -26.5h99
q116 0 175.5 -56t59.5 -143q0 -67 -34.5 -118.5t-99 -80.5t-152.5 -29q-90 0 -155 33zM213 771l115 61h5l115 -61v-10l-117 47h-1l-117 -47v10z" />
    <glyph glyph-name="uni0218.ss06.ss11" horiz-adv-x="652" 
d="M174 17q-65 33 -99.5 91t-37.5 134h115q4 -79 51 -121t128 -42q77 0 122.5 35.5t45.5 91.5q0 47 -34.5 75.5t-98.5 28.5h-97q-66 0 -116.5 24.5t-78 68.5t-27.5 101q0 90 63.5 143t173.5 53h293v-95h-293q-60 0 -91 -26t-31 -70q0 -45 31.5 -71.5t87.5 -26.5h99
q116 0 175.5 -56t59.5 -143q0 -67 -34.5 -118.5t-99 -80.5t-152.5 -29q-90 0 -155 33zM344 -122v6h-31v55h45v-61q0 -26 -13.5 -42t-41.5 -16v14q41 0 41 44z" />
    <glyph glyph-name="Gbreve.ss07.ss11" 
d="M199 44.5q-77 44.5 -120 126.5t-43 190q0 104 41.5 184.5t119 125t183.5 44.5q97 0 167.5 -37.5t110 -102t46.5 -143.5h-116q-5 82 -60 135t-148 53q-69 0 -119.5 -31.5t-78 -90t-27.5 -137.5q0 -82 29.5 -142t81 -92t116.5 -32h201v155h-213v93h273q23 0 38 -15t15 -38
v-237q0 -22 -15 -37.5t-38 -15.5h-268q-99 0 -176 44.5zM450 777.5q-29 -23.5 -71 -23.5t-71 23.5t-38 60.5h10q11 -28 37 -44t62 -16t62 16t37 44h10q-9 -37 -38 -60.5z" />
    <glyph glyph-name="Gcaron.ss07.ss11" 
d="M199 44.5q-77 44.5 -120 126.5t-43 190q0 104 41.5 184.5t119 125t183.5 44.5q97 0 167.5 -37.5t110 -102t46.5 -143.5h-116q-5 82 -60 135t-148 53q-69 0 -119.5 -31.5t-78 -90t-27.5 -137.5q0 -82 29.5 -142t81 -92t116.5 -32h201v155h-213v93h273q23 0 38 -15t15 -38
v-237q0 -22 -15 -37.5t-38 -15.5h-268q-99 0 -176 44.5zM261 822v10l117 -47h1l117 47v-10l-115 -61h-5z" />
    <glyph glyph-name="Gcircumflex.ss07.ss11" 
d="M199 44.5q-77 44.5 -120 126.5t-43 190q0 104 41.5 184.5t119 125t183.5 44.5q97 0 167.5 -37.5t110 -102t46.5 -143.5h-116q-5 82 -60 135t-148 53q-69 0 -119.5 -31.5t-78 -90t-27.5 -137.5q0 -82 29.5 -142t81 -92t116.5 -32h201v155h-213v93h273q23 0 38 -15t15 -38
v-237q0 -22 -15 -37.5t-38 -15.5h-268q-99 0 -176 44.5zM261 771l115 61h5l115 -61v-10l-117 47h-1l-117 -47v10z" />
    <glyph glyph-name="uni0122.ss07.ss11" 
d="M199 44.5q-77 44.5 -120 126.5t-43 190q0 104 41.5 184.5t119 125t183.5 44.5q97 0 167.5 -37.5t110 -102t46.5 -143.5h-116q-5 82 -60 135t-148 53q-69 0 -119.5 -31.5t-78 -90t-27.5 -137.5q0 -82 29.5 -142t81 -92t116.5 -32h201v155h-213v93h273q23 0 38 -15t15 -38
v-237q0 -22 -15 -37.5t-38 -15.5h-268q-99 0 -176 44.5zM402 -122v6h-31v55h45v-61q0 -26 -13.5 -42t-41.5 -16v14q41 0 41 44z" />
    </font>
</defs>
</svg>
