<?xml version="1.0" standalone="no"?>
<!DOCTYPE svg PUBLIC "-//W3C//DTD SVG 1.1//EN" "http://www.w3.org/Graphics/SVG/1.1/DTD/svg11.dtd" >
<svg xmlns="http://www.w3.org/2000/svg" xmlns:xlink="http://www.w3.org/1999/xlink" version="1.1">
<metadata>
Created by FontForge 20201107 at Wed Nov 30 21:20:23 2022
 By 
Copyright (c) 2019 by Folch Studio. All rights reserved.
</metadata>
<defs>
<font id="FFFAcidGrotesk-Bold" horiz-adv-x="596" >
  <font-face 
    font-family="FFF Acid Grotesk"
    font-weight="700"
    font-stretch="normal"
    units-per-em="1000"
    panose-1="0 0 0 0 0 0 0 0 0 0"
    ascent="800"
    descent="-200"
    x-height="550"
    cap-height="700"
    bbox="-152 -307 2177 1025"
    underline-thickness="80"
    underline-position="-220"
    unicode-range="U+0020-FB02"
  />
<missing-glyph horiz-adv-x="680" 
d="M580 700v-700h-480v700h480zM433 118v464h-186v-464h186z" />
    <glyph glyph-name="fi" unicode="fi" horiz-adv-x="579" 
d="M116 736.5q44 44.5 128 44.5h282v-117h-234q-71 0 -71 -78v-36h247q23 0 38 -15t15 -38v-497h-149v433h-151v-433h-149v433h-70v117h70v59q0 83 44 127.5z" />
    <glyph glyph-name="fl" unicode="fl" horiz-adv-x="620" 
d="M115 736.5q43 44.5 125 44.5h327v-781h-149v664h-130q-67 0 -67 -78v-36h120v-117h-120v-433h-149v433h-70v117h70v59q0 83 43 127.5z" />
    <glyph glyph-name="f_f.liga" unicode="ff" horiz-adv-x="720" 
d="M450.5 736.5q42.5 44.5 125.5 44.5h140v-117h-92q-68 0 -68 -78v-36h120v-117h-120v-433h-148v433h-187v-433h-149v433h-70v117h70v59q0 83 43 127.5t125 44.5h141v-117h-93q-67 0 -67 -78v-36h187v59q0 83 42.5 127.5z" />
    <glyph glyph-name="f_f_i.liga" unicode="ffi" horiz-adv-x="915" 
d="M708 433h-152v-433h-148v433h-187v-433h-149v433h-70v117h70v59q0 83 43 127.5t125 44.5h141v-117h-93q-67 0 -67 -78v-36h187v59q0 83 44 127.5t128 44.5h281v-117h-234q-71 0 -71 -78v-36h248q23 0 38 -15t15 -38v-497h-149v433z" />
    <glyph glyph-name="f_f_l.liga" unicode="ffl" horiz-adv-x="956" 
d="M450.5 736.5q42.5 44.5 125.5 44.5h326v-781h-148v664h-130q-68 0 -68 -78v-36h120v-117h-120v-433h-148v433h-187v-433h-149v433h-70v117h70v59q0 83 43 127.5t125 44.5h141v-117h-93q-67 0 -67 -78v-36h187v59q0 83 42.5 127.5z" />
    <glyph glyph-name=".notdef" horiz-adv-x="680" 
d="M580 700v-700h-480v700h480zM433 118v464h-186v-464h186z" />
    <glyph glyph-name=".null" horiz-adv-x="0" 
 />
    <glyph glyph-name="nonmarkingreturn" horiz-adv-x="333" 
 />
    <glyph glyph-name="space" unicode=" " horiz-adv-x="198" 
 />
    <glyph glyph-name="exclam" unicode="!" horiz-adv-x="252" 
d="M50 550v150h152v-150l-15 -340h-122zM45 156h162v-156h-162v156z" />
    <glyph glyph-name="quotedbl" unicode="&#x22;" horiz-adv-x="424" 
d="M51 700h142l-5 -257h-132zM373 700l-5 -257h-132l-5 257h142z" />
    <glyph glyph-name="numbersign" unicode="#" horiz-adv-x="692" 
d="M384 173h-115l-45 -173h-141l45 173h-104v110h133l35 135h-100v110h129l45 172h141l-45 -172h115l45 172h142l-45 -172h104v-110h-133l-35 -135h100v-110h-129l-45 -173h-142zM413 283l35 135h-115l-35 -135h115z" />
    <glyph glyph-name="dollar" unicode="$" horiz-adv-x="670" 
d="M273 -14q-116 15 -178 81.5t-64 174.5h166q1 -69 38.5 -104t104.5 -35q62 0 98 29t36 78q0 41 -28 64.5t-86 23.5h-88q-114 0 -172.5 52.5t-58.5 142.5q0 92 60 150.5t172 71.5l-5 86h141l-5 -87q110 -15 167 -78t59 -164h-162q-1 63 -35 94t-100 31q-62 0 -96 -25
t-34 -69q0 -37 26 -58.5t81 -21.5h88q123 0 182.5 -56t59.5 -147q0 -95 -62 -157t-174 -77l5 -82h-141z" />
    <glyph glyph-name="percent" unicode="%" horiz-adv-x="905" 
d="M622 700h151l-490 -700h-150zM59 630.5q24 40.5 64.5 62t90.5 21.5t90.5 -21.5t64.5 -62t24 -95.5t-24 -95t-64.5 -61.5t-90.5 -21.5t-90.5 21.5t-64.5 61.5t-24 95t24 95.5zM170.5 475q16.5 -20 43.5 -20t43 20t16 60t-16 60.5t-43 20.5t-43.5 -20.5t-16.5 -60.5
t16.5 -60zM536.5 259.5q23.5 40.5 64 62t90.5 21.5t91 -21.5t64.5 -62t23.5 -95.5t-23.5 -95.5t-64.5 -61.5t-91 -21t-90.5 21t-64 61.5t-23.5 95.5t23.5 95.5zM648.5 104.5q16.5 -20.5 42.5 -20.5q28 0 44 19.5t16 60.5q0 40 -16.5 60.5t-43.5 20.5q-26 0 -42.5 -20.5
t-16.5 -60.5q0 -39 16.5 -59.5z" />
    <glyph glyph-name="ampersand" unicode="&#x26;" horiz-adv-x="719" 
d="M88 30.5q-70 48.5 -70 144.5q0 66 38 114t112 82l4 2q-43 44 -61.5 82.5t-18.5 79.5q0 53 27.5 94.5t78.5 65t119 23.5q103 0 159.5 -47.5t56.5 -122.5q0 -118 -153 -191l-8 -4l104 -110q24 61 27 126h159q-1 -63 -22.5 -123.5t-60.5 -111.5l126 -134h-185l-41 43
q-96 -61 -216 -61q-105 0 -175 48.5zM207 123q30 -26 81 -26q58 0 107 36l-147 158l-5 -2q-31 -15 -48.5 -39.5t-17.5 -56.5q0 -44 30 -70zM253 490.5q12 -23.5 41 -54.5l4 -5l10 5q84 37 84 99q0 30 -19.5 49t-53.5 19q-35 0 -56.5 -19t-21.5 -50q0 -20 12 -43.5z" />
    <glyph glyph-name="quotesingle" unicode="'" horiz-adv-x="250" 
d="M54 700h142l-5 -257h-132z" />
    <glyph glyph-name="parenleft" unicode="(" horiz-adv-x="367" 
d="M120 81.5q-28 119.5 -28 246.5q0 252 109 472h146q-110 -225 -110 -472q0 -126 28.5 -245t81.5 -227h-146q-53 106 -81 225.5z" />
    <glyph glyph-name="parenright" unicode=")" horiz-adv-x="367" 
d="M247 574.5q28 -119.5 28 -246.5q0 -252 -109 -472h-146q110 225 110 472q0 126 -28.5 245t-81.5 227h146q53 -106 81 -225.5z" />
    <glyph glyph-name="asterisk" unicode="*" horiz-adv-x="430" 
d="M52 434l104 96l-141 18l39 121l124 -69l-27 140h128l-27 -140l124 69l40 -121l-141 -17l103 -97l-102 -75l-60 129l-61 -129z" />
    <glyph glyph-name="plus" unicode="+" horiz-adv-x="603" 
d="M56 352h184v192h123v-192h184v-114h-184v-194h-123v194h-184v114z" />
    <glyph glyph-name="comma" unicode="," horiz-adv-x="287" 
d="M124 -56q26 21 26 53v3h-90v160h161v-159q0 -71 -45.5 -111.5t-119.5 -40.5v74q42 0 68 21z" />
    <glyph glyph-name="hyphen" unicode="-" horiz-adv-x="520" 
d="M100 337h320v-112h-320v112z" />
    <glyph glyph-name="period" unicode="." horiz-adv-x="271" 
d="M56 156h160v-156h-160v156z" />
    <glyph glyph-name="slash" unicode="/" horiz-adv-x="407" 
d="M152 -100h-142l245 900h142z" />
    <glyph glyph-name="zero" unicode="0" horiz-adv-x="619" 
d="M103 78q-73 96 -73 272t73 272t206 96q134 0 207 -96t73 -272t-73 -272t-207 -96q-133 0 -206 96zM219 157.5q29 -62.5 90 -62.5t90.5 62.5t29.5 192.5q0 131 -29.5 193t-90.5 62t-90 -62t-29 -193q0 -130 29 -192.5z" />
    <glyph glyph-name="one" unicode="1" horiz-adv-x="389" 
d="M318 0h-149v496h-2q-21 -68 -105 -68h-52v122h58q53 0 77.5 25.5t24.5 77.5v47h148v-700z" />
    <glyph glyph-name="two" unicode="2" horiz-adv-x="557" 
d="M35.5 188q17.5 44 59.5 80.5t118 75.5l54 28q57 29 81 60t24 75q0 46 -23.5 70t-64.5 24q-46 0 -71 -28t-25 -86h-159q0 110 68 168.5t187 58.5q116 0 182 -54t66 -153q0 -81 -49 -136t-159 -111l-65 -34q-54 -28 -71.5 -50t-17.5 -56h370v-120h-522v81q0 63 17.5 107z
" />
    <glyph glyph-name="three" unicode="3" horiz-adv-x="619" 
d="M106 42.5q-75 60.5 -76 174.5h159q1 -57 33 -89.5t89 -32.5q54 0 86.5 30t32.5 81t-33 78t-95 27h-89v113h74q57 0 88 25t31 69q0 42 -26 64.5t-67 22.5q-43 0 -71 -24.5t-29 -67.5h-159q1 98 70.5 151.5t190.5 53.5q78 0 134.5 -23t86.5 -64t30 -93q0 -61 -39.5 -105
t-113.5 -53v-2q83 -10 129.5 -60t46.5 -125q0 -63 -33.5 -110.5t-96 -74t-147.5 -26.5q-131 0 -206 60.5z" />
    <glyph glyph-name="four" unicode="4" 
d="M347 144h-329v108l284 448h194v-439h90v-117h-90v-144h-149v144zM347 261v297h-2l-184 -295v-2h186z" />
    <glyph glyph-name="five" unicode="5" horiz-adv-x="591" 
d="M163 8q-60 26 -95 74.5t-37 113.5h158q4 -46 34 -73.5t76 -27.5q49 0 78.5 33t29.5 97q0 63 -29.5 95t-79.5 32q-32 0 -57.5 -12.5t-39.5 -34.5h-166l57 395h433v-117h-307l-36 -187h2q60 68 156 68q60 0 111.5 -26t83.5 -79t32 -130q0 -79 -34 -134.5t-95 -84
t-139 -28.5q-76 0 -136 26z" />
    <glyph glyph-name="six" unicode="6" horiz-adv-x="606" 
d="M106.5 76q-76.5 94 -76.5 271q0 181 75.5 276t207.5 95q72 0 128 -30t87 -81t31 -112h-158q0 49 -24 79.5t-68 30.5q-53 0 -86 -53t-33 -165v-23h2q21 47 64 73.5t100 26.5q59 0 109.5 -29.5t80.5 -84t30 -124.5q0 -74 -33.5 -129t-93 -85t-134.5 -30q-132 0 -208.5 94z
M234 130.5q29 -35.5 76 -35.5t77 35.5t30 96.5q0 60 -29 93.5t-77 33.5t-77 -33.5t-29 -93.5q0 -61 29 -96.5z" />
    <glyph glyph-name="seven" unicode="7" horiz-adv-x="505" 
d="M125.5 214.5q34.5 112.5 97.5 210t143 156.5v2h-356v117h485v-110q-81 -69 -137.5 -168.5t-84.5 -209.5t-28 -212h-154q0 102 34.5 214.5z" />
    <glyph glyph-name="eight" unicode="8" horiz-adv-x="597" 
d="M102.5 37q-72.5 55 -72.5 150q0 73 43 122.5t118 61.5v2q-64 13 -100 53.5t-36 104.5q0 89 68 138t175 49q108 0 176 -49t68 -138q0 -64 -36 -104.5t-100 -53.5v-2q75 -12 118 -61.5t43 -122.5q0 -95 -72.5 -150t-196.5 -55q-123 0 -195.5 55zM219 123q29 -28 79 -28
q51 0 80 28t29 84t-29 84t-80 28q-50 0 -79 -28t-29 -84t29 -84zM232 448q24 -23 66 -23q43 0 66.5 23t23.5 67q0 43 -24 66.5t-66 23.5t-66 -23.5t-24 -66.5q0 -44 24 -67z" />
    <glyph glyph-name="nine" unicode="9" horiz-adv-x="606" 
d="M499.5 624q76.5 -94 76.5 -271q0 -181 -75.5 -276t-207.5 -95q-72 0 -128 30t-87 81t-31 112h158q0 -49 24 -79.5t68 -30.5q53 0 86 53t33 165v23h-2q-21 -47 -64 -73.5t-100 -26.5q-59 0 -109.5 29.5t-80.5 84t-30 124.5q0 74 33.5 129t93 85t134.5 30q132 0 208.5 -94z
M218 379.5q29 -33.5 77 -33.5t77 33.5t29 93.5q0 61 -29 96.5t-76 35.5t-77 -35.5t-30 -96.5q0 -60 29 -93.5z" />
    <glyph glyph-name="colon" unicode=":" horiz-adv-x="271" 
d="M56 536h160v-156h-160v156zM56 156h160v-156h-160v156z" />
    <glyph glyph-name="semicolon" unicode=";" horiz-adv-x="287" 
d="M124 -56q26 21 26 53v3h-90v160h161v-159q0 -71 -45.5 -111.5t-119.5 -40.5v74q42 0 68 21zM56 536h160v-156h-160v156z" />
    <glyph glyph-name="less" unicode="&#x3c;" horiz-adv-x="605" 
d="M562 412l-389 -127l389 -128v-133l-512 177v167l512 177v-133z" />
    <glyph glyph-name="equal" unicode="=" horiz-adv-x="572" 
d="M80 462h412v-113h-412v113zM80 262h412v-113h-412v113z" />
    <glyph glyph-name="greater" unicode="&#x3e;" horiz-adv-x="605" 
d="M50 157l389 128l-389 127v133l512 -177v-167l-512 -177v133z" />
    <glyph glyph-name="question" unicode="?" horiz-adv-x="589" 
d="M204.5 333q19.5 28 65.5 44l40 13q82 29 82 113q0 50 -26.5 76t-69.5 26q-47 0 -77.5 -29t-31.5 -90h-159q0 72 34 124.5t95.5 80t140.5 27.5q80 0 137 -27t86.5 -74t29.5 -106q0 -71 -41 -125t-111 -79l-24 -9q-24 -9 -32.5 -22.5t-8.5 -40.5v-25h-149v45q0 50 19.5 78z
M179 156h162v-156h-162v156z" />
    <glyph glyph-name="at" unicode="@" horiz-adv-x="1065" 
d="M267.5 -135q-112.5 54 -171.5 155.5t-59 242.5t59 242.5t171.5 155t270.5 53.5q157 0 268.5 -53t170 -151.5t58.5 -233.5v-234h-339q-36 0 -56.5 15t-20.5 40v1q0 5 2 15h-2q-17 -41 -53.5 -65t-86.5 -24q-53 0 -97 27t-70 79.5t-26 125.5t26 125t70 79t97 27
q48 0 83.5 -22t54.5 -65h2q-2 15 -2 45v25h149v-280q0 -18 8.5 -26t27.5 -8h84v120q0 171 -87.5 247t-260.5 76q-169 0 -260 -86t-91 -250q0 -163 91 -248t260 -85h497v-119h-497q-158 0 -270.5 54zM468 169.5q21 -31.5 61 -31.5q42 0 66 32t24 86q0 53 -23.5 85.5
t-64.5 32.5t-62.5 -31.5t-21.5 -86.5t21 -86.5z" />
    <glyph glyph-name="A" unicode="A" horiz-adv-x="715" 
d="M279 700h157l264 -700h-167l-50 148h-254l-51 -148h-163zM441 269l-24 71q-39 113 -61 201h-1q-22 -86 -63 -208l-22 -64h171z" />
    <glyph glyph-name="B" unicode="B" horiz-adv-x="672" 
d="M55 700h332q63 0 111 -22t74.5 -61.5t26.5 -91.5q0 -63 -37.5 -102.5t-104.5 -46.5v-2q89 -3 139.5 -49.5t50.5 -121.5q0 -57 -29.5 -103.5t-85 -73t-128.5 -26.5h-349v700zM371 121q56 0 85.5 24.5t29.5 67.5q0 44 -29.5 68.5t-85.5 24.5h-160v-185h160zM348 421
q44 0 67.5 21t23.5 58t-23.5 58t-67.5 21h-137v-158h137z" />
    <glyph glyph-name="C" unicode="C" horiz-adv-x="735" 
d="M195 27.5q-79 45.5 -123 129t-44 194.5q0 112 42 195t121 127.5t187 44.5q99 0 170.5 -37.5t111.5 -101t47 -143.5h-164q-6 71 -47 116t-118 45q-87 0 -135 -62t-48 -184q0 -121 49.5 -184.5t133.5 -63.5q75 0 116.5 45t48.5 111h164q-10 -77 -50.5 -139.5t-111 -100
t-167.5 -37.5q-104 0 -183 45.5z" />
    <glyph glyph-name="D" unicode="D" horiz-adv-x="708" 
d="M55 700h283q99 0 176.5 -41.5t121.5 -120.5t44 -188t-44 -188t-121.5 -120.5t-176.5 -41.5h-283v700zM320 121q93 0 143 58t50 171t-50 171t-143 58h-109v-458h109z" />
    <glyph glyph-name="E" unicode="E" horiz-adv-x="585" 
d="M55 700h506v-115h-349v-173h310v-115h-310v-182h350v-115h-507v700z" />
    <glyph glyph-name="F" unicode="F" horiz-adv-x="568" 
d="M55 700h501v-115h-350v-173h311v-115h-311v-297h-151v700z" />
    <glyph glyph-name="G" unicode="G" horiz-adv-x="743" 
d="M185.5 28q-73.5 46 -115.5 129.5t-42 193.5q0 108 41.5 191.5t119 129.5t183.5 46q96 0 168 -38t111 -103t43 -145h-159q-2 46 -22.5 83.5t-57 59.5t-83.5 22q-84 0 -130.5 -63t-46.5 -183q0 -121 49.5 -184.5t131.5 -63.5q68 0 112.5 40t54.5 98h-181v114h279
q26 0 40.5 -14t14.5 -39v-302h-134l16 117h-2q-30 -66 -88 -100.5t-137 -34.5q-92 0 -165.5 46z" />
    <glyph glyph-name="H" unicode="H" horiz-adv-x="688" 
d="M55 700h156v-287h266v287h156v-700h-156v292h-266v-292h-156v700z" />
    <glyph glyph-name="I" unicode="I" horiz-adv-x="267" 
d="M55 700h156v-700h-156v700z" />
    <glyph glyph-name="J" unicode="J" horiz-adv-x="597" 
d="M86.5 52q-71.5 70 -71.5 201h156q0 -74 27.5 -112t79.5 -38t79.5 38t27.5 112v447h156v-452q0 -128 -71 -197t-192 -69q-120 0 -191.5 70z" />
    <glyph glyph-name="K" unicode="K" horiz-adv-x="681" 
d="M55 700h156v-296h2l261 296h194l-264 -291l275 -409h-191l-188 294h-2l-87 -95v-199h-156v700z" />
    <glyph glyph-name="L" unicode="L" horiz-adv-x="506" 
d="M494 121v-121h-439v700h156v-579h283z" />
    <glyph glyph-name="M" unicode="M" horiz-adv-x="861" 
d="M55 700h245l131 -505h2l131 505h242v-700h-154v297q0 136 2 226h-2l-145 -523h-152l-146 523h-2q2 -90 2 -226v-297h-154v700z" />
    <glyph glyph-name="N" unicode="N" horiz-adv-x="719" 
d="M209 472h-2l1 -120v-352h-153v700h190l265 -466h2l-1 120v346h153v-700h-184z" />
    <glyph glyph-name="O" unicode="O" horiz-adv-x="752" 
d="M196.5 24.5q-78.5 42.5 -123.5 125.5t-45 200t45 200t123.5 125.5t179.5 42.5q100 0 179 -42.5t124 -125.5t45 -200t-45 -200t-124 -125.5t-179 -42.5q-101 0 -179.5 42.5zM243.5 164.5q48.5 -61.5 132.5 -61.5t132.5 61.5t48.5 185.5t-48.5 185.5t-132.5 61.5
t-132.5 -61.5t-48.5 -185.5t48.5 -185.5z" />
    <glyph glyph-name="P" unicode="P" horiz-adv-x="650" 
d="M55 700h326q70 0 125 -26.5t85.5 -77t30.5 -120.5q0 -69 -30.5 -119.5t-85.5 -76.5t-125 -26h-170v-254h-156v700zM342 375q55 0 87 27t32 74t-32 75t-87 28h-131v-204h131z" />
    <glyph glyph-name="Q" unicode="Q" horiz-adv-x="773" 
d="M632.5 17q-17.5 17 -17.5 49h-1q-47 -41 -107.5 -62.5t-130.5 -21.5q-101 0 -179.5 42.5t-123.5 125.5t-45 200t45 200t123.5 125.5t179.5 42.5q100 0 179 -42.5t124 -125.5t45 -200q0 -127 -55 -217q0 -7 3 -9.5t11 -2.5h62v-121h-59q-36 0 -53.5 17zM243.5 164.5
q48.5 -61.5 132.5 -61.5q75 0 121 49q0 8 -3 11t-11 3h-80v114h56q71 0 71 -66h5q22 57 22 136q0 124 -48.5 185.5t-132.5 61.5t-132.5 -61.5t-48.5 -185.5t48.5 -185.5z" />
    <glyph glyph-name="R" unicode="R" horiz-adv-x="650" 
d="M55 700h311q119 0 185 -51t66 -139q0 -69 -42.5 -116t-121.5 -62v-2q59 -21 91 -65t54 -120l40 -145h-163l-27 122q-13 57 -30 86.5t-45.5 41.5t-77.5 12h-84v-262h-156v700zM314 383q71 0 106.5 26t35.5 74q0 46 -31 71t-94 25h-120v-196h103z" />
    <glyph glyph-name="S" unicode="S" horiz-adv-x="670" 
d="M112.5 50.5q-79.5 68.5 -81.5 191.5h166q1 -69 38.5 -104t104.5 -35q62 0 98 29t36 78q0 41 -28 64.5t-86 23.5h-88q-114 0 -172.5 52.5t-58.5 142.5q0 104 76.5 164.5t217.5 60.5q144 0 218.5 -65t76.5 -181h-162q-1 63 -35 94t-100 31q-62 0 -96 -25t-34 -69
q0 -37 26 -58.5t81 -21.5h88q123 0 182.5 -56t59.5 -147q0 -72 -36 -125.5t-104 -83t-162 -29.5q-146 0 -225.5 68.5z" />
    <glyph glyph-name="T" unicode="T" horiz-adv-x="623" 
d="M233 579h-221v121h599v-121h-222v-579h-156v579z" />
    <glyph glyph-name="U" unicode="U" horiz-adv-x="687" 
d="M195.5 14q-65.5 32 -103 94t-37.5 148v444h156v-437q0 -77 36 -118.5t97 -41.5t96.5 41.5t35.5 118.5v437h156v-444q0 -86 -37.5 -148t-103 -94t-147.5 -32q-83 0 -148.5 32z" />
    <glyph glyph-name="V" unicode="V" horiz-adv-x="704" 
d="M10 700h167l109 -310q46 -136 65 -211h2q27 99 66 211l108 310h167l-262 -700h-160z" />
    <glyph glyph-name="W" unicode="W" horiz-adv-x="942" 
d="M10 700h161l111 -466h2l105 466h166l104 -466h2l110 466h161l-182 -700h-173l-106 503h-2l-105 -503h-173z" />
    <glyph glyph-name="X" unicode="X" horiz-adv-x="695" 
d="M499 0l-150 235h-3l-149 -235h-190l242 353l-237 347h190l144 -229h3l144 229h190l-238 -347l243 -353h-189z" />
    <glyph glyph-name="Y" unicode="Y" horiz-adv-x="670" 
d="M257 278l-247 422h180l144 -273h2l144 273h180l-247 -422v-278h-156v278z" />
    <glyph glyph-name="Z" unicode="Z" horiz-adv-x="589" 
d="M14 118l347 456v2h-337v124h541v-114l-347 -456v-2h357v-128h-561v118z" />
    <glyph glyph-name="bracketleft" unicode="[" horiz-adv-x="338" 
d="M50 800h278v-114h-135v-716h135v-114h-278v944z" />
    <glyph glyph-name="backslash" unicode="\" horiz-adv-x="407" 
d="M10 800h142l245 -900h-142z" />
    <glyph glyph-name="bracketright" unicode="]" horiz-adv-x="338" 
d="M288 -144h-278v114h135v716h-135v114h278v-944z" />
    <glyph glyph-name="asciicircum" unicode="^" horiz-adv-x="426" 
d="M155 700h116l130 -307h-117l-71 193l-71 -193h-117z" />
    <glyph glyph-name="underscore" unicode="_" horiz-adv-x="600" 
d="M50 0h500v-113h-500v113z" />
    <glyph glyph-name="grave" unicode="`" horiz-adv-x="276" 
d="M13 775h169l80 -162h-147z" />
    <glyph glyph-name="a" unicode="a" horiz-adv-x="616" 
d="M329 10.5q-49 -28.5 -113 -28.5q-84 0 -137.5 46.5t-53.5 130.5q0 89 59.5 132.5t149.5 43.5h90q76 0 76 55q0 32 -25 48.5t-66 16.5q-49 0 -76 -22t-29 -61h-158q6 93 69.5 144.5t188.5 51.5q127 0 186 -52t59 -142v-219q0 -21 8.5 -29.5t29.5 -8.5h19v-117h-102
q-49 0 -74 21t-25 61v13h-2q-25 -56 -74 -84.5zM205 118q21 -19 62 -19q56 0 94.5 35t38.5 108v45h-2q-11 -23 -34 -35t-62 -15l-37 -3q-40 -2 -60.5 -19.5t-20.5 -47.5t21 -49z" />
    <glyph glyph-name="b" unicode="b" horiz-adv-x="634" 
d="M270.5 8.5q-44.5 26.5 -68.5 74.5h-2q1 -20 1 -59v-24h-148v781h149v-261q0 -34 -2 -53h2q24 48 68.5 74.5t102.5 26.5q65 0 119 -34t86 -100t32 -159t-32 -159t-86 -100t-119 -34q-58 0 -102.5 26.5zM233.5 143q32.5 -48 92.5 -48t92.5 48t32.5 132t-32.5 132t-92.5 48
t-92.5 -48t-32.5 -132t32.5 -132z" />
    <glyph glyph-name="c" unicode="c" horiz-adv-x="590" 
d="M159 18q-64 36 -99.5 102.5t-35.5 154.5q0 89 34 155t97.5 102t150.5 36q116 0 183.5 -63t76.5 -165h-151q-3 51 -29.5 83t-79.5 32q-62 0 -92.5 -48.5t-30.5 -131.5q0 -84 32 -132t91 -48q49 0 76.5 31t32.5 73h151q-8 -61 -40.5 -110.5t-88.5 -78t-131 -28.5
q-83 0 -147 36z" />
    <glyph glyph-name="d" unicode="d" horiz-adv-x="634" 
d="M142 16q-54 34 -86 100t-32 159t32 159t86 100t119 34q58 0 102.5 -26.5t68.5 -74.5h2q-2 19 -2 53v261h149v-781h-148v24q0 39 1 59h-2q-24 -48 -68.5 -74.5t-102.5 -26.5q-65 0 -119 34zM215.5 143q32.5 -48 92.5 -48t92.5 48t32.5 132t-32.5 132t-92.5 48t-92.5 -48
t-32.5 -132t32.5 -132z" />
    <glyph glyph-name="e" unicode="e" horiz-adv-x="586" 
d="M154 16.5q-62 34.5 -96 100.5t-34 158t34.5 158t96.5 100.5t142 34.5q78 0 138.5 -31t95 -93t34.5 -152v-57h-383q2 -65 34 -102.5t85 -37.5q39 0 65.5 19.5t37.5 54.5h152q-18 -85 -87 -136t-171 -51q-82 0 -144 34.5zM416 336q0 53 -29.5 86t-84.5 33t-85.5 -33
t-33.5 -86h233z" />
    <glyph glyph-name="f" unicode="f" horiz-adv-x="402" 
d="M134.5 735.5q44.5 45.5 131.5 45.5h133v-117h-84q-36 0 -56 -18.5t-20 -63.5v-32h120v-117h-120v-433h-149v433h-88v117h88v56q0 84 44.5 129.5z" />
    <glyph glyph-name="g" unicode="g" horiz-adv-x="574" 
d="M57 -169q-39 31 -39 83q0 39 23 66.5t68 36.5v2q-31 14 -48 39t-17 60q0 39 23.5 65.5t59.5 32.5l13 2v2q-48 21 -75.5 61.5t-27.5 95.5q0 60 31 103t83.5 65.5t115.5 22.5q62 0 113 -22.5t82 -62.5h3q2 32 19 49.5t47 17.5h29v-117h-40q-13 0 -18.5 -5t-7.5 -17
q3 -16 3 -34q0 -58 -29 -101t-80 -66t-115 -23h-55q-45 0 -45 -31q0 -32 45 -32h160q89 0 138 -43t49 -118q0 -76 -49.5 -119.5t-137.5 -43.5h-205q-77 0 -116 31zM158.5 -88q17.5 -15 52.5 -15h139q33 0 51 15t18 42t-18 42t-51 15h-139q-34 0 -52 -15.5t-18 -42.5
q0 -26 17.5 -41zM201.5 306q25.5 -22 65.5 -22t66 22t26 64q0 41 -26 63t-66 22t-65.5 -22t-25.5 -63q0 -42 25.5 -64z" />
    <glyph glyph-name="h" unicode="h" horiz-adv-x="601" 
d="M53 781h149v-211q0 -44 -2 -92h2q23 43 64 66.5t95 23.5q84 0 136.5 -54.5t52.5 -152.5v-361h-149v336q0 60 -24.5 89t-68.5 29q-45 0 -75.5 -31.5t-30.5 -97.5v-325h-149v781z" />
    <glyph glyph-name="i" unicode="i" horiz-adv-x="255" 
d="M53 550h149v-550h-149v550zM52 767h152v-140h-152v140z" />
    <glyph glyph-name="j" unicode="j" horiz-adv-x="255" 
d="M-41 -86h38q27 0 41.5 16.5t14.5 46.5v573h148v-607q0 -62 -40 -102.5t-102 -40.5h-100v114zM50 767h152v-140h-152v140z" />
    <glyph glyph-name="k" unicode="k" horiz-adv-x="572" 
d="M53 781h149v-454h2l191 223h174l-195 -215l217 -335h-184l-134 225h-2l-69 -77v-148h-149v781z" />
    <glyph glyph-name="l" unicode="l" horiz-adv-x="255" 
d="M53 781h149v-781h-149v781z" />
    <glyph glyph-name="m" unicode="m" horiz-adv-x="918" 
d="M53 550h147v-70h2q23 41 62 64.5t91 23.5q55 0 96.5 -26.5t62.5 -75.5h2q26 50 69.5 76t100.5 26q82 0 131.5 -54.5t49.5 -152.5v-361h-149v346q0 54 -22.5 81t-62.5 27q-43 0 -71 -30t-28 -90v-334h-148v346q0 54 -22.5 81t-63.5 27q-42 0 -70 -30t-28 -91v-333h-149
v550z" />
    <glyph glyph-name="n" unicode="n" horiz-adv-x="601" 
d="M53 550h147v-73h2q25 45 66.5 68t94.5 23q85 0 136 -55.5t51 -158.5v-354h-149v336q0 59 -24.5 88.5t-68.5 29.5q-45 0 -75.5 -31.5t-30.5 -97.5v-325h-149v550z" />
    <glyph glyph-name="o" unicode="o" horiz-adv-x="612" 
d="M162 16q-64 34 -101 100.5t-37 158.5t37 158.5t101 100.5t144 34t144 -34t101 -100.5t37 -158.5t-37 -158.5t-101 -100.5t-144 -34t-144 34zM215 141q32 -46 91 -46t91 46t32 134t-32 134t-91 46t-91 -46t-32 -134t32 -134z" />
    <glyph glyph-name="p" unicode="p" horiz-adv-x="634" 
d="M53 550h149v-30q0 -34 -2 -53h2q24 48 68.5 74.5t102.5 26.5q65 0 119 -34t86 -100t32 -159t-32 -159t-86 -100t-119 -34q-58 0 -102.5 26.5t-68.5 74.5h-2q2 -20 2 -59v-224h-149v750zM233.5 143q32.5 -48 92.5 -48t92.5 48t32.5 132t-32.5 132t-92.5 48t-92.5 -48
t-32.5 -132t32.5 -132z" />
    <glyph glyph-name="q" unicode="q" horiz-adv-x="634" 
d="M434 83h-2q-24 -48 -68.5 -74.5t-102.5 -26.5q-65 0 -119 34t-86 100t-32 159t32 159t86 100t119 34q58 0 102.5 -26.5t68.5 -74.5h2q-2 19 -2 53v30h149v-750h-148v224q0 39 1 59zM215.5 143q32.5 -48 92.5 -48t92.5 48t32.5 132t-32.5 132t-92.5 48t-92.5 -48
t-32.5 -132t32.5 -132z" />
    <glyph glyph-name="r" unicode="r" horiz-adv-x="394" 
d="M53 550h147v-81h2q21 42 51 61.5t77 19.5h54v-117h-84q-51 0 -74.5 -26.5t-23.5 -85.5v-321h-149v550z" />
    <glyph glyph-name="s" unicode="s" horiz-adv-x="556" 
d="M93 35.5q-65 53.5 -67 146.5h154q1 -44 26.5 -65.5t71.5 -21.5q45 0 68.5 19t23.5 52q0 30 -21.5 46.5t-66.5 16.5h-60q-88 0 -137 43t-49 115q0 54 29 95t83.5 63.5t127.5 22.5q115 0 178 -53t65 -143h-150q-1 41 -24 62t-67 21q-40 0 -62.5 -16.5t-22.5 -45.5
q0 -28 19.5 -42t56.5 -14h66q98 0 146 -46t48 -120q0 -86 -65 -137.5t-185 -51.5q-121 0 -186 53.5z" />
    <glyph glyph-name="t" unicode="t" horiz-adv-x="441" 
d="M115 151v282h-104v117h104v150h148v-150h162v-117h-162v-251q0 -34 16.5 -49.5t49.5 -15.5h98v-117h-160q-152 0 -152 151z" />
    <glyph glyph-name="u" unicode="u" 
d="M99 37.5q-51 55.5 -51 158.5v354h149v-336q0 -60 24 -89t67 -29q45 0 75 31.5t30 97.5v325h149v-550h-147v73h-2q-24 -46 -64.5 -68.5t-93.5 -22.5q-85 0 -136 55.5z" />
    <glyph glyph-name="v" unicode="v" horiz-adv-x="578" 
d="M7 550h160l121 -355h2l122 355h160l-206 -550h-153z" />
    <glyph glyph-name="w" unicode="w" horiz-adv-x="795" 
d="M7 550h155l84 -356h2l75 356h149l75 -356h2l84 356h155l-158 -550h-156l-77 324h-2l-77 -324h-159z" />
    <glyph glyph-name="x" unicode="x" horiz-adv-x="611" 
d="M213 279l-192 271h180l104 -165h2l103 165h181l-193 -271l202 -279h-181l-112 173h-2l-113 -173h-181z" />
    <glyph glyph-name="y" unicode="y" horiz-adv-x="589" 
d="M7 -83h161l49 113l-210 520h161l127 -335h2l126 335h159l-285 -708q-16 -42 -62 -42h-228v117z" />
    <glyph glyph-name="z" unicode="z" horiz-adv-x="505" 
d="M14 108l258 327v1h-238v114h435v-105l-258 -327v-1h280v-117h-477v108z" />
    <glyph glyph-name="braceleft" unicode="{" horiz-adv-x="432" 
d="M189 -100.5q-45 43.5 -45 111.5v178q0 39 -22 59.5t-58 20.5h-34v118h34q36 0 58 20.5t22 59.5v178q0 68 45 111.5t115 43.5h118v-114h-55q-35 0 -57.5 -23.5t-22.5 -61.5v-157q0 -49 -25 -81.5t-62 -32.5v-4q37 0 62 -32.5t25 -81.5v-157q0 -38 22.5 -61.5t57.5 -23.5
h55v-114h-118q-70 0 -115 43.5z" />
    <glyph glyph-name="bar" unicode="|" horiz-adv-x="286" 
d="M70 800h146v-944h-146v944z" />
    <glyph glyph-name="braceright" unicode="}" horiz-adv-x="432" 
d="M243 756.5q45 -43.5 45 -111.5v-178q0 -39 22 -59.5t58 -20.5h34v-118h-34q-36 0 -58 -20.5t-22 -59.5v-178q0 -68 -45 -111.5t-115 -43.5h-118v114h55q35 0 57.5 23.5t22.5 61.5v157q0 49 25 81.5t62 32.5v4q-37 0 -62 32.5t-25 81.5v157q0 38 -22.5 61.5t-57.5 23.5
h-55v114h118q70 0 115 -43.5z" />
    <glyph glyph-name="asciitilde" unicode="~" horiz-adv-x="600" 
d="M62 320.5q43 50.5 122 50.5q42 0 71 -13.5t66 -39.5q23 -18 39.5 -26.5t34.5 -8.5q25 0 39.5 16.5t14.5 42.5h118q0 -79 -43 -129.5t-122 -50.5q-42 0 -71 13.5t-66 39.5q-23 18 -39.5 26.5t-34.5 8.5q-25 0 -39.5 -16.5t-14.5 -42.5h-118q0 79 43 129.5z" />
    <glyph glyph-name="uni00A0" unicode="&#xa0;" horiz-adv-x="198" 
 />
    <glyph glyph-name="exclamdown" unicode="&#xa1;" horiz-adv-x="252" 
d="M50 0l15 340h122l15 -340v-150h-152v150zM45 550h162v-156h-162v156z" />
    <glyph glyph-name="cent" unicode="&#xa2;" horiz-adv-x="582" 
d="M237 83q-98 19 -155.5 90t-57.5 177q0 107 56 178t157 89l-5 83h141l-5 -83q85 -15 134 -69.5t57 -132.5h-152q-3 41 -28.5 67.5t-76.5 26.5q-60 0 -89.5 -43t-29.5 -116q0 -74 31 -116.5t88 -42.5q48 0 74.5 25t30.5 58h152q-11 -72 -60.5 -123.5t-130.5 -67.5l5 -83
h-141z" />
    <glyph glyph-name="sterling" unicode="&#xa3;" horiz-adv-x="603" 
d="M111.5 154.5q33.5 37.5 33.5 89.5q0 18 -5 38h-117v110h61q-17 30 -26 58t-9 61q0 60 32.5 107.5t91.5 73.5t136 26q116 0 185 -58.5t69 -159.5h-159q0 40 -26 65t-72 25q-45 0 -71 -25t-26 -66q0 -21 6.5 -41.5t14 -40t10.5 -25.5h194v-110h-164v-10q0 -96 -78 -153v-2
h376v-117h-549v117q59 0 92.5 37.5z" />
    <glyph glyph-name="currency" unicode="&#xa4;" horiz-adv-x="594" 
d="M189 114l-65 -71l-100 99l71 64q-27 51 -27 108q0 59 28 110l-72 65l100 100l66 -73q49 26 106 26q58 0 107 -27l67 73l100 -99l-74 -67q27 -51 27 -107q0 -55 -26 -107l73 -66l-100 -99l-66 72q-52 -27 -109 -27t-106 26zM221.5 241.5q30.5 -30.5 74.5 -30.5q43 0 73 30
t31 74q0 44 -30 74t-74 30t-74.5 -30.5t-29.5 -73.5q-1 -43 29.5 -73.5z" />
    <glyph glyph-name="yen" unicode="&#xa5;" horiz-adv-x="684" 
d="M261 131h-193v113h193v58h-193v113h133v2l-187 283h181l143 -236h2l144 236h181l-188 -283v-2h133v-113h-193v-58h193v-113h-193v-131h-156v131z" />
    <glyph glyph-name="brokenbar" unicode="&#xa6;" horiz-adv-x="280" 
d="M67 800h146v-360h-146v360zM67 216h146v-360h-146v360z" />
    <glyph glyph-name="section" unicode="&#xa7;" horiz-adv-x="581" 
d="M156 -183.5q-56 24.5 -85 67.5t-30 98h149q2 -33 29.5 -54.5t70.5 -21.5q46 0 73.5 22t27.5 59t-28.5 59.5t-78.5 22.5h-30q-95 0 -146.5 39t-51.5 108q0 54 31.5 91.5t90.5 49.5v2q-65 15 -101 57.5t-36 105.5q0 55 28.5 99.5t84.5 70.5t136 26q77 0 133 -25t86 -68
t31 -97h-149q-2 35 -29.5 55.5t-71.5 20.5q-46 0 -73 -21.5t-27 -58.5q0 -38 28.5 -60.5t78.5 -22.5h30q95 0 146.5 -39t51.5 -108q0 -52 -31 -88t-91 -53v-2q64 -13 100.5 -56.5t36.5 -106.5q0 -55 -28 -99.5t-84 -70.5t-138 -26q-78 0 -134 24.5zM223 198q23 -22 67 -22h1
q44 0 67 21.5t23 57.5q0 35 -22.5 57t-68.5 22h-1q-43 0 -66 -22t-23 -57t23 -57z" />
    <glyph glyph-name="dieresis" unicode="&#xa8;" horiz-adv-x="385" 
d="M23 767h142v-140h-142v140zM217 767h142v-140h-142v140z" />
    <glyph glyph-name="copyright" unicode="&#xa9;" horiz-adv-x="786" 
d="M210 32q-84 50 -133 134.5t-49 184.5q0 99 49 183.5t133 134t183 49.5t183 -49.5t133 -134t49 -183.5q0 -100 -49 -184.5t-133 -134.5t-183 -50t-183 50zM146.5 205q38.5 -67 104 -106.5t142.5 -39.5t142.5 39.5t104 106.5t38.5 146q0 78 -38.5 145t-104 106t-142.5 39
t-142.5 -39t-104 -106t-38.5 -145q0 -79 38.5 -146zM249.5 498.5q52.5 55.5 147.5 55.5q83 0 132 -45t56 -114h-112q-1 30 -21 50t-55 20q-42 0 -65.5 -31.5t-23.5 -83.5t24 -83.5t65 -31.5q33 0 53 18.5t23 43.5h112q-9 -64 -58.5 -107.5t-129.5 -43.5q-94 0 -147 55.5
t-53 148.5t52.5 148.5z" />
    <glyph glyph-name="ordfeminine" unicode="&#xaa;" horiz-adv-x="383" 
d="M57 402.5q-32 27.5 -32 76.5q0 50 34 76.5t87 26.5h51q41 0 41 28q0 15 -13 22.5t-35 7.5q-51 0 -53 -39h-99q8 114 152 114q145 0 145 -118v-114q0 -23 22 -23h9v-75h-57q-63 0 -63 51v4h-2q-13 -32 -41.5 -48.5t-65.5 -16.5q-48 0 -80 27.5zM134 459q11 -9 33 -9
q31 0 53 18.5t22 56.5v22h-1q-9 -26 -55 -29l-19 -2q-44 -3 -44 -33q0 -15 11 -24z" />
    <glyph glyph-name="guillemotleft" unicode="&#xab;" horiz-adv-x="624" 
d="M399.5 181q-34.5 41 -90.5 43v111q56 2 90.5 43t36.5 101h143q-4 -72 -40 -127t-99 -72v-1q63 -17 99 -72t40 -127h-143q-2 60 -36.5 101zM129.5 181q-34.5 41 -90.5 43v111q56 2 90.5 43t36.5 101h143q-4 -72 -40 -127t-99 -72v-1q63 -17 99 -72t40 -127h-143
q-2 60 -36.5 101z" />
    <glyph glyph-name="logicalnot" unicode="&#xac;" horiz-adv-x="540" 
d="M496 357v-244h-107v132h-339v112h446z" />
    <glyph glyph-name="uni00AD" unicode="&#xad;" horiz-adv-x="520" 
d="M100 337h320v-112h-320v112z" />
    <glyph glyph-name="registered" unicode="&#xae;" horiz-adv-x="786" 
d="M210 32q-84 50 -133 134.5t-49 184.5q0 99 49 183.5t133 134t183 49.5t183 -49.5t133 -134t49 -183.5q0 -100 -49 -184.5t-133 -134.5t-183 -50t-183 50zM146 205q38 -67 103.5 -106.5t143.5 -39.5t143.5 39.5t103.5 106.5t38 146q0 78 -38 145t-103.5 106t-143.5 39
t-143.5 -39t-103.5 -106t-38 -145q0 -79 38 -146zM239 539h193q66 0 103.5 -28.5t37.5 -80.5q0 -42 -24.5 -69t-64.5 -36v-1q23 -7 39 -24.5t26 -50.5l27 -86h-112l-15 72q-8 29 -20.5 39.5t-42.5 10.5h-40v-122h-107v376zM410 366q26 0 40.5 11t14.5 32q0 20 -13 31t-37 11
h-69v-85h64z" />
    <glyph glyph-name="macron" unicode="&#xaf;" horiz-adv-x="324" 
d="M17 742h290v-114h-290v114z" />
    <glyph glyph-name="degree" unicode="&#xb0;" horiz-adv-x="403" 
d="M117.5 408q-38.5 22 -60.5 60t-22 84t22 84t60.5 60t84.5 22t84 -22t60 -60t22 -84t-22 -84t-60 -60t-84 -22t-84.5 22zM159.5 510q17.5 -17 42.5 -17t42 17t17 42t-17 42t-42 17t-42.5 -17t-17.5 -42t17.5 -42z" />
    <glyph glyph-name="plusminus" unicode="&#xb1;" horiz-adv-x="612" 
d="M50 433h194v128h124v-128h194v-114h-194v-129h-124v129h-194v114zM50 140h512v-114h-512v114z" />
    <glyph glyph-name="uni00B2" unicode="&#xb2;" horiz-adv-x="241" 
d="M28.5 519q14.5 22 54.5 43l25 13q25 12 33.5 22t8.5 23q0 16 -9 23.5t-23 7.5q-32 0 -32 -38h-64q-1 46 25.5 70t72.5 24q44 0 71.5 -22t27.5 -61q0 -28 -17.5 -53t-61.5 -46l-27 -14q-19 -10 -24 -16t-5 -15h143v-60h-213v42q0 35 14.5 57z" />
    <glyph glyph-name="uni00B3" unicode="&#xb3;" horiz-adv-x="246" 
d="M45 437.5q-29 24.5 -30 70.5h68q0 -18 11.5 -28.5t29.5 -10.5t29 9t11 27q0 17 -10.5 26t-29.5 9h-37v54h30q19 0 28.5 8.5t9.5 21.5q0 14 -9 20.5t-22 6.5q-14 0 -22.5 -6.5t-8.5 -20.5h-68q1 38 27.5 60.5t71.5 22.5t72 -21.5t27 -53.5q0 -23 -14.5 -40.5t-41.5 -21.5
v-1q32 -4 48 -23t16 -47q0 -39 -29 -62.5t-78 -23.5q-50 0 -79 24.5z" />
    <glyph glyph-name="acute" unicode="&#xb4;" horiz-adv-x="276" 
d="M93 775h169l-100 -162h-149z" />
    <glyph glyph-name="uni00B5" unicode="&#xb5;" horiz-adv-x="614" 
d="M53 550h149v-353q0 -50 25 -75.5t64 -25.5q44 0 74 31t30 93v330h148v-395q0 -21 9 -29.5t30 -8.5h22v-117h-106q-48 0 -73 21t-25 61v10h-2q-12 -53 -44.5 -79.5t-77.5 -26.5q-43 0 -74 25v-211h-149v750z" />
    <glyph glyph-name="paragraph" unicode="&#xb6;" horiz-adv-x="601" 
d="M179 304.5q-54 24.5 -85.5 72t-31.5 111.5t32 112.5t85.5 74t118.5 25.5h87v-900h-87v480q-65 0 -119 24.5zM452 700h87v-900h-87v900z" />
    <glyph glyph-name="periodcentered" unicode="&#xb7;" horiz-adv-x="290" 
d="M62 344h166v-166h-166v166z" />
    <glyph glyph-name="cedilla" unicode="&#xb8;" horiz-adv-x="245" 
d="M14 -196v89h79q9 0 15.5 5t6.5 14q0 10 -6 15t-16 5h-27v101h87v-70q36 -4 54.5 -23.5t18.5 -51.5q0 -37 -25 -60.5t-69 -23.5h-118z" />
    <glyph glyph-name="uni00B9" unicode="&#xb9;" horiz-adv-x="177" 
d="M146 420h-66v191h-1q-5 -28 -39 -28h-24v61h24q40 0 40 37v19h66v-280z" />
    <glyph glyph-name="ordmasculine" unicode="&#xba;" horiz-adv-x="356" 
d="M62 422.5q-46 43.5 -46 124.5t46 124t116 43t116 -43.5t46 -123.5q0 -81 -46 -124.5t-116 -43.5t-116 43.5zM132.5 474q16.5 -24 45.5 -24q29 1 45.5 25t16.5 72q0 49 -16.5 72.5t-45.5 23.5t-45.5 -23.5t-16.5 -72.5t16.5 -73z" />
    <glyph glyph-name="guillemotright" unicode="&#xbb;" horiz-adv-x="624" 
d="M221.5 378q34.5 -41 90.5 -43v-111q-56 -2 -90.5 -43t-36.5 -101h-143q4 72 40 127t99 72v1q-63 17 -99 72t-40 127h143q2 -60 36.5 -101zM352 207q36 55 99 72v1q-63 17 -99 72t-40 127h143q2 -60 36.5 -101t90.5 -43v-111q-56 -2 -90.5 -43t-36.5 -101h-143
q4 72 40 127z" />
    <glyph glyph-name="onequarter" unicode="&#xbc;" horiz-adv-x="1055" 
d="M248 210h-112v337h-1q-9 -49 -67 -49h-43v102h43q69 0 69 67v33h111v-490zM639 700h129l-488 -700h-129zM639 188l208 302h131v-297h63v-97h-63v-96h-113v96h-226v92zM865 193v178h-1l-114 -177v-1h115z" />
    <glyph glyph-name="onehalf" unicode="&#xbd;" horiz-adv-x="1026" 
d="M248 210h-112v337h-1q-9 -49 -67 -49h-43v102h43q69 0 69 67v33h111v-490zM639 700h129l-488 -700h-129zM662 170q27 40 99 77l44 23q45 23 61 41t16 42q0 29 -16 43.5t-43 14.5q-30 0 -46.5 -17.5t-15.5 -52.5h-108q-1 78 46.5 122t126.5 44q77 0 125 -39t48 -108
q0 -49 -30.5 -90t-110.5 -83l-46 -25q-35 -18 -46.5 -31.5t-11.5 -29.5h253v-101h-372v68q0 62 27 102z" />
    <glyph glyph-name="threequarters" unicode="&#xbe;" horiz-adv-x="1192" 
d="M81.5 236.5q-51.5 43.5 -53.5 125.5h116q2 -33 22 -53t55 -20q32 0 53.5 17.5t21.5 50.5q0 31 -18.5 47.5t-53.5 16.5h-68v94h57q32 0 48.5 15.5t16.5 40.5t-16.5 37.5t-40.5 12.5q-26 0 -42 -13.5t-17 -38.5h-116q2 67 48.5 107.5t127.5 40.5q79 0 125.5 -37.5
t46.5 -95.5q0 -42 -25 -73t-70 -39v-2q54 -7 83.5 -40.5t29.5 -84.5q0 -70 -53 -111t-139 -41q-87 0 -138.5 43.5zM776 700h129l-488 -700h-129zM776 188l208 302h131v-297h63v-97h-63v-96h-113v96h-226v92zM1002 193v178h-1l-114 -177v-1h115z" />
    <glyph glyph-name="questiondown" unicode="&#xbf;" horiz-adv-x="600" 
d="M374.5 211q-19.5 -28 -65.5 -44l-40 -13q-82 -29 -82 -113q0 -50 26.5 -76t69.5 -26q47 0 77.5 29t31.5 90h159q0 -72 -34 -124.5t-95.5 -80t-140.5 -27.5q-80 0 -137 27t-86.5 74t-29.5 106q0 71 41 125t111 79l24 9q24 9 32.5 22.5t8.5 40.5v25h149v-45
q0 -50 -19.5 -78zM238 544h162v-156h-162v156z" />
    <glyph glyph-name="Agrave" unicode="&#xc0;" horiz-adv-x="715" 
d="M279 700h157l264 -700h-167l-50 148h-254l-51 -148h-163zM441 269l-24 71q-39 113 -61 201h-1q-22 -86 -63 -208l-22 -64h171zM179 925h169l80 -162h-147z" />
    <glyph glyph-name="Aacute" unicode="&#xc1;" horiz-adv-x="715" 
d="M279 700h157l264 -700h-167l-50 148h-254l-51 -148h-163zM441 269l-24 71q-39 113 -61 201h-1q-22 -86 -63 -208l-22 -64h171zM361 925h169l-100 -162h-149z" />
    <glyph glyph-name="Acircumflex" unicode="&#xc2;" horiz-adv-x="715" 
d="M279 700h157l264 -700h-167l-50 148h-254l-51 -148h-163zM441 269l-24 71q-39 113 -61 201h-1q-22 -86 -63 -208l-22 -64h171zM288 925h134l107 -162h-136l-37 71h-2l-37 -71h-136z" />
    <glyph glyph-name="Atilde" unicode="&#xc3;" horiz-adv-x="715" 
d="M279 700h157l264 -700h-167l-50 148h-254l-51 -148h-163zM441 269l-24 71q-39 113 -61 201h-1q-22 -86 -63 -208l-22 -64h171zM382.5 768.5q-21.5 10.5 -44.5 28.5q-15 12 -25.5 18t-22.5 6q-16 0 -25.5 -12t-9.5 -34v-7h-92v28q0 67 31.5 100.5t81.5 33.5q30 0 50.5 -10
t44.5 -29q15 -13 26 -19t23 -6q16 0 25.5 12t9.5 35v7h92v-28q0 -67 -32 -100.5t-81 -33.5q-30 0 -51.5 10.5z" />
    <glyph glyph-name="Adieresis" unicode="&#xc4;" horiz-adv-x="715" 
d="M279 700h157l264 -700h-167l-50 148h-254l-51 -148h-163zM441 269l-24 71q-39 113 -61 201h-1q-22 -86 -63 -208l-22 -64h171zM187 917h142v-140h-142v140zM381 917h142v-140h-142v140z" />
    <glyph glyph-name="Aring" unicode="&#xc5;" horiz-adv-x="715" 
d="M273 685q-20 26 -20 61q0 43 29 72t73 29q45 0 74 -29t29 -72q0 -33 -18 -57l260 -689h-167l-50 148h-254l-51 -148h-163zM441 269l-24 71q-39 113 -61 201h-1q-22 -86 -63 -208l-22 -64h171zM335 724.5q7 -8.5 20 -8.5t20.5 8.5t7.5 22.5t-7.5 22.5t-20.5 8.5t-20 -8.5
t-7 -22.5t7 -22.5z" />
    <glyph glyph-name="AE" unicode="&#xc6;" horiz-adv-x="975" 
d="M476 168h-237l-70 -168h-154l303 700h633v-115h-318v-173h279v-115h-279v-182h319v-115h-476v168zM476 283v302h-65l-125 -302h190z" />
    <glyph glyph-name="Ccedilla" unicode="&#xc7;" horiz-adv-x="735" 
d="M280 -196v89h79q9 0 15.5 5t6.5 14q0 10 -6 15t-16 5h-27v52q-91 10 -160 57.5t-106.5 127t-37.5 182.5q0 112 42 195t121 127.5t187 44.5q99 0 170.5 -37.5t111.5 -101t47 -143.5h-164q-6 71 -47 116t-118 45q-87 0 -135 -62t-48 -184q0 -121 49.5 -184.5t133.5 -63.5
q75 0 116.5 45t48.5 111h164q-9 -71 -44.5 -130.5t-97.5 -98t-146 -46.5v-21q36 -4 54.5 -23.5t18.5 -51.5q0 -37 -25 -60.5t-69 -23.5h-118z" />
    <glyph glyph-name="Egrave" unicode="&#xc8;" horiz-adv-x="585" 
d="M55 700h506v-115h-349v-173h310v-115h-310v-182h350v-115h-507v700zM135 925h169l80 -162h-147z" />
    <glyph glyph-name="Eacute" unicode="&#xc9;" horiz-adv-x="585" 
d="M55 700h506v-115h-349v-173h310v-115h-310v-182h350v-115h-507v700zM316 925h169l-100 -162h-149z" />
    <glyph glyph-name="Ecircumflex" unicode="&#xca;" horiz-adv-x="585" 
d="M55 700h506v-115h-349v-173h310v-115h-310v-182h350v-115h-507v700zM244 925h134l107 -162h-136l-37 71h-2l-37 -71h-136z" />
    <glyph glyph-name="Edieresis" unicode="&#xcb;" horiz-adv-x="585" 
d="M55 700h506v-115h-349v-173h310v-115h-310v-182h350v-115h-507v700zM143 917h142v-140h-142v140zM337 917h142v-140h-142v140z" />
    <glyph glyph-name="Igrave" unicode="&#xcc;" horiz-adv-x="267" 
d="M55 700h156v-700h-156v700zM-43 925h169l80 -162h-147z" />
    <glyph glyph-name="Iacute" unicode="&#xcd;" horiz-adv-x="267" 
d="M55 700h156v-700h-156v700zM139 925h169l-100 -162h-149z" />
    <glyph glyph-name="Icircumflex" unicode="&#xce;" horiz-adv-x="267" 
d="M55 700h156v-700h-156v700zM66 925h134l107 -162h-136l-37 71h-2l-37 -71h-136z" />
    <glyph glyph-name="Idieresis" unicode="&#xcf;" horiz-adv-x="267" 
d="M55 700h156v-700h-156v700zM-35 917h142v-140h-142v140zM159 917h142v-140h-142v140z" />
    <glyph glyph-name="Eth" unicode="&#xd0;" horiz-adv-x="708" 
d="M211 288v-167h109q93 0 143 58t50 171t-50 171t-143 58h-109v-170h116v-121h-116zM10 409h45v291h283q99 0 176.5 -41.5t121.5 -120.5t44 -188t-44 -188t-121.5 -120.5t-176.5 -41.5h-283v288h-45v121z" />
    <glyph glyph-name="Ntilde" unicode="&#xd1;" horiz-adv-x="719" 
d="M209 472h-2l1 -120v-352h-153v700h190l265 -466h2l-1 120v346h153v-700h-184zM389.5 768.5q-21.5 10.5 -44.5 28.5q-15 12 -25.5 18t-22.5 6q-16 0 -25.5 -12t-9.5 -34v-7h-92v28q0 67 31.5 100.5t81.5 33.5q30 0 50.5 -10t44.5 -29q15 -13 26 -19t23 -6q16 0 25.5 12
t9.5 35v7h92v-28q0 -67 -32 -100.5t-81 -33.5q-30 0 -51.5 10.5z" />
    <glyph glyph-name="Ograve" unicode="&#xd2;" horiz-adv-x="752" 
d="M196.5 24.5q-78.5 42.5 -123.5 125.5t-45 200t45 200t123.5 125.5t179.5 42.5q100 0 179 -42.5t124 -125.5t45 -200t-45 -200t-124 -125.5t-179 -42.5q-101 0 -179.5 42.5zM243.5 164.5q48.5 -61.5 132.5 -61.5t132.5 61.5t48.5 185.5t-48.5 185.5t-132.5 61.5
t-132.5 -61.5t-48.5 -185.5t48.5 -185.5zM200 925h169l80 -162h-147z" />
    <glyph glyph-name="Oacute" unicode="&#xd3;" horiz-adv-x="752" 
d="M196.5 24.5q-78.5 42.5 -123.5 125.5t-45 200t45 200t123.5 125.5t179.5 42.5q100 0 179 -42.5t124 -125.5t45 -200t-45 -200t-124 -125.5t-179 -42.5q-101 0 -179.5 42.5zM243.5 164.5q48.5 -61.5 132.5 -61.5t132.5 61.5t48.5 185.5t-48.5 185.5t-132.5 61.5
t-132.5 -61.5t-48.5 -185.5t48.5 -185.5zM381 925h169l-100 -162h-149z" />
    <glyph glyph-name="Ocircumflex" unicode="&#xd4;" horiz-adv-x="752" 
d="M196.5 24.5q-78.5 42.5 -123.5 125.5t-45 200t45 200t123.5 125.5t179.5 42.5q100 0 179 -42.5t124 -125.5t45 -200t-45 -200t-124 -125.5t-179 -42.5q-101 0 -179.5 42.5zM243.5 164.5q48.5 -61.5 132.5 -61.5t132.5 61.5t48.5 185.5t-48.5 185.5t-132.5 61.5
t-132.5 -61.5t-48.5 -185.5t48.5 -185.5zM309 925h134l107 -162h-136l-37 71h-2l-37 -71h-136z" />
    <glyph glyph-name="Otilde" unicode="&#xd5;" horiz-adv-x="752" 
d="M196.5 24.5q-78.5 42.5 -123.5 125.5t-45 200t45 200t123.5 125.5t179.5 42.5q100 0 179 -42.5t124 -125.5t45 -200t-45 -200t-124 -125.5t-179 -42.5q-101 0 -179.5 42.5zM243.5 164.5q48.5 -61.5 132.5 -61.5t132.5 61.5t48.5 185.5t-48.5 185.5t-132.5 61.5
t-132.5 -61.5t-48.5 -185.5t48.5 -185.5zM403.5 768.5q-21.5 10.5 -44.5 28.5q-15 12 -25.5 18t-22.5 6q-16 0 -25.5 -12t-9.5 -34v-7h-92v28q0 67 31.5 100.5t81.5 33.5q30 0 50.5 -10t44.5 -29q15 -13 26 -19t23 -6q16 0 25.5 12t9.5 35v7h92v-28q0 -67 -32 -100.5
t-81 -33.5q-30 0 -51.5 10.5z" />
    <glyph glyph-name="Odieresis" unicode="&#xd6;" horiz-adv-x="752" 
d="M196.5 24.5q-78.5 42.5 -123.5 125.5t-45 200t45 200t123.5 125.5t179.5 42.5q100 0 179 -42.5t124 -125.5t45 -200t-45 -200t-124 -125.5t-179 -42.5q-101 0 -179.5 42.5zM243.5 164.5q48.5 -61.5 132.5 -61.5t132.5 61.5t48.5 185.5t-48.5 185.5t-132.5 61.5
t-132.5 -61.5t-48.5 -185.5t48.5 -185.5zM208 917h142v-140h-142v140zM402 917h142v-140h-142v140z" />
    <glyph glyph-name="multiply" unicode="&#xd7;" horiz-adv-x="578" 
d="M67 150l140 140l-140 140l82 82l140 -140l140 140l82 -82l-140 -140l140 -140l-82 -82l-140 140l-140 -140z" />
    <glyph glyph-name="Oslash" unicode="&#xd8;" horiz-adv-x="753" 
d="M644 604q81 -97 81 -254q0 -117 -45 -200t-124 -125.5t-179 -42.5q-115 0 -201 55l-31 -37h-117v2l80 97q-79 96 -79 251q0 117 45 200t123.5 125.5t179.5 42.5q114 0 197 -53l29 35h118v-2zM213 227l274 332q-44 38 -110 38q-84 0 -132.5 -61.5t-48.5 -185.5
q0 -72 17 -123zM377 103q84 0 132.5 61.5t48.5 185.5q0 73 -19 128l-275 -334q44 -41 113 -41z" />
    <glyph glyph-name="Ugrave" unicode="&#xd9;" horiz-adv-x="687" 
d="M195.5 14q-65.5 32 -103 94t-37.5 148v444h156v-437q0 -77 36 -118.5t97 -41.5t96.5 41.5t35.5 118.5v437h156v-444q0 -86 -37.5 -148t-103 -94t-147.5 -32q-83 0 -148.5 32zM168 925h169l80 -162h-147z" />
    <glyph glyph-name="Uacute" unicode="&#xda;" horiz-adv-x="687" 
d="M195.5 14q-65.5 32 -103 94t-37.5 148v444h156v-437q0 -77 36 -118.5t97 -41.5t96.5 41.5t35.5 118.5v437h156v-444q0 -86 -37.5 -148t-103 -94t-147.5 -32q-83 0 -148.5 32zM349 925h169l-100 -162h-149z" />
    <glyph glyph-name="Ucircumflex" unicode="&#xdb;" horiz-adv-x="687" 
d="M195.5 14q-65.5 32 -103 94t-37.5 148v444h156v-437q0 -77 36 -118.5t97 -41.5t96.5 41.5t35.5 118.5v437h156v-444q0 -86 -37.5 -148t-103 -94t-147.5 -32q-83 0 -148.5 32zM277 925h134l107 -162h-136l-37 71h-2l-37 -71h-136z" />
    <glyph glyph-name="Udieresis" unicode="&#xdc;" horiz-adv-x="687" 
d="M195.5 14q-65.5 32 -103 94t-37.5 148v444h156v-437q0 -77 36 -118.5t97 -41.5t96.5 41.5t35.5 118.5v437h156v-444q0 -86 -37.5 -148t-103 -94t-147.5 -32q-83 0 -148.5 32zM176 917h142v-140h-142v140zM370 917h142v-140h-142v140z" />
    <glyph glyph-name="Yacute" unicode="&#xdd;" horiz-adv-x="670" 
d="M257 278l-247 422h180l144 -273h2l144 273h180l-247 -422v-278h-156v278zM340 925h169l-100 -162h-149z" />
    <glyph glyph-name="Thorn" unicode="&#xde;" horiz-adv-x="631" 
d="M55 700h156v-131h157q106 0 170.5 -58.5t64.5 -161.5t-64.5 -160.5t-170.5 -57.5h-157v-131h-156v700zM329 252q53 0 83 26t30 71t-30 72t-83 27h-118v-196h118z" />
    <glyph glyph-name="germandbls" unicode="&#xdf;" horiz-adv-x="631" 
d="M562.5 322.5q42.5 -47.5 42.5 -115.5q0 -58 -30 -104.5t-92 -74.5t-155 -28h-56v115h49q58 0 91 25t33 73t-33 73.5t-91 25.5h-39v114h42q40 0 65.5 23.5t25.5 62.5q0 40 -28 63.5t-75 23.5q-49 0 -78.5 -27.5t-29.5 -79.5v-492h-149v485q0 108 69 168.5t198 60.5
q85 0 142 -24t84 -64.5t27 -90.5q0 -59 -37 -99.5t-104 -47.5v-2q86 -16 128.5 -63.5z" />
    <glyph glyph-name="agrave" unicode="&#xe0;" horiz-adv-x="616" 
d="M329 10.5q-49 -28.5 -113 -28.5q-84 0 -137.5 46.5t-53.5 130.5q0 89 59.5 132.5t149.5 43.5h90q76 0 76 55q0 32 -25 48.5t-66 16.5q-49 0 -76 -22t-29 -61h-158q6 93 69.5 144.5t188.5 51.5q127 0 186 -52t59 -142v-219q0 -21 8.5 -29.5t29.5 -8.5h19v-117h-102
q-49 0 -74 21t-25 61v13h-2q-25 -56 -74 -84.5zM205 118q21 -19 62 -19q56 0 94.5 35t38.5 108v45h-2q-11 -23 -34 -35t-62 -15l-37 -3q-40 -2 -60.5 -19.5t-20.5 -47.5t21 -49zM130 775h169l80 -162h-147z" />
    <glyph glyph-name="aacute" unicode="&#xe1;" horiz-adv-x="616" 
d="M329 10.5q-49 -28.5 -113 -28.5q-84 0 -137.5 46.5t-53.5 130.5q0 89 59.5 132.5t149.5 43.5h90q76 0 76 55q0 32 -25 48.5t-66 16.5q-49 0 -76 -22t-29 -61h-158q6 93 69.5 144.5t188.5 51.5q127 0 186 -52t59 -142v-219q0 -21 8.5 -29.5t29.5 -8.5h19v-117h-102
q-49 0 -74 21t-25 61v13h-2q-25 -56 -74 -84.5zM205 118q21 -19 62 -19q56 0 94.5 35t38.5 108v45h-2q-11 -23 -34 -35t-62 -15l-37 -3q-40 -2 -60.5 -19.5t-20.5 -47.5t21 -49zM311 775h169l-100 -162h-149z" />
    <glyph glyph-name="acircumflex" unicode="&#xe2;" horiz-adv-x="616" 
d="M329 10.5q-49 -28.5 -113 -28.5q-84 0 -137.5 46.5t-53.5 130.5q0 89 59.5 132.5t149.5 43.5h90q76 0 76 55q0 32 -25 48.5t-66 16.5q-49 0 -76 -22t-29 -61h-158q6 93 69.5 144.5t188.5 51.5q127 0 186 -52t59 -142v-219q0 -21 8.5 -29.5t29.5 -8.5h19v-117h-102
q-49 0 -74 21t-25 61v13h-2q-25 -56 -74 -84.5zM205 118q21 -19 62 -19q56 0 94.5 35t38.5 108v45h-2q-11 -23 -34 -35t-62 -15l-37 -3q-40 -2 -60.5 -19.5t-20.5 -47.5t21 -49zM239 775h134l107 -162h-136l-37 71h-2l-37 -71h-136z" />
    <glyph glyph-name="atilde" unicode="&#xe3;" horiz-adv-x="616" 
d="M329 10.5q-49 -28.5 -113 -28.5q-84 0 -137.5 46.5t-53.5 130.5q0 89 59.5 132.5t149.5 43.5h90q76 0 76 55q0 32 -25 48.5t-66 16.5q-49 0 -76 -22t-29 -61h-158q6 93 69.5 144.5t188.5 51.5q127 0 186 -52t59 -142v-219q0 -21 8.5 -29.5t29.5 -8.5h19v-117h-102
q-49 0 -74 21t-25 61v13h-2q-25 -56 -74 -84.5zM205 118q21 -19 62 -19q56 0 94.5 35t38.5 108v45h-2q-11 -23 -34 -35t-62 -15l-37 -3q-40 -2 -60.5 -19.5t-20.5 -47.5t21 -49zM333.5 618.5q-21.5 10.5 -44.5 28.5q-15 12 -25.5 18t-22.5 6q-16 0 -25.5 -12t-9.5 -34v-7
h-92v28q0 67 31.5 100.5t81.5 33.5q30 0 50.5 -10t44.5 -29q15 -13 26 -19t23 -6q16 0 25.5 12t9.5 35v7h92v-28q0 -67 -32 -100.5t-81 -33.5q-30 0 -51.5 10.5z" />
    <glyph glyph-name="adieresis" unicode="&#xe4;" horiz-adv-x="616" 
d="M329 10.5q-49 -28.5 -113 -28.5q-84 0 -137.5 46.5t-53.5 130.5q0 89 59.5 132.5t149.5 43.5h90q76 0 76 55q0 32 -25 48.5t-66 16.5q-49 0 -76 -22t-29 -61h-158q6 93 69.5 144.5t188.5 51.5q127 0 186 -52t59 -142v-219q0 -21 8.5 -29.5t29.5 -8.5h19v-117h-102
q-49 0 -74 21t-25 61v13h-2q-25 -56 -74 -84.5zM205 118q21 -19 62 -19q56 0 94.5 35t38.5 108v45h-2q-11 -23 -34 -35t-62 -15l-37 -3q-40 -2 -60.5 -19.5t-20.5 -47.5t21 -49zM137 767h142v-140h-142v140zM331 767h142v-140h-142v140z" />
    <glyph glyph-name="aring" unicode="&#xe5;" horiz-adv-x="616" 
d="M329 10.5q-49 -28.5 -113 -28.5q-84 0 -137.5 46.5t-53.5 130.5q0 89 59.5 132.5t149.5 43.5h90q76 0 76 55q0 32 -25 48.5t-66 16.5q-49 0 -76 -22t-29 -61h-158q6 93 69.5 144.5t188.5 51.5q127 0 186 -52t59 -142v-219q0 -21 8.5 -29.5t29.5 -8.5h19v-117h-102
q-49 0 -74 21t-25 61v13h-2q-25 -56 -74 -84.5zM205 118q21 -19 62 -19q56 0 94.5 35t38.5 108v45h-2q-11 -23 -34 -35t-62 -15l-37 -3q-40 -2 -60.5 -19.5t-20.5 -47.5t21 -49zM232 632.5q-29 28.5 -29 70.5q0 43 29 72t73 29q45 0 74 -29t29 -72q0 -42 -29 -70.5
t-74 -28.5q-44 0 -73 28.5zM285 681.5q7 -8.5 20 -8.5t20.5 8.5t7.5 22.5t-7.5 22.5t-20.5 8.5t-20 -8.5t-7 -22.5t7 -22.5z" />
    <glyph glyph-name="ae" unicode="&#xe6;" horiz-adv-x="953" 
d="M81 27.5q-56 45.5 -56 132.5q0 88 59 131.5t148 43.5h94q76 0 76 55q0 32 -25.5 48.5t-65.5 16.5q-49 0 -78 -22t-31 -61h-158q6 92 69.5 144t179.5 52q73 0 118 -21.5t70 -64.5h2q32 43 81 64.5t109 21.5q75 0 133 -31t91 -93t33 -152v-57h-379q1 -65 33.5 -102.5
t86.5 -37.5q39 0 64.5 19.5t37.5 54.5h152q-18 -85 -87.5 -136t-165.5 -51q-78 0 -139.5 35t-92.5 102h-2q-28 -66 -85.5 -101.5t-130.5 -35.5q-85 0 -141 45.5zM206.5 118q22.5 -19 63.5 -19q55 0 93.5 35.5t38.5 107.5v44h-2q-11 -23 -34 -34.5t-62 -14.5l-41 -3
q-38 -2 -58.5 -19.5t-20.5 -46.5q0 -31 22.5 -50zM781 336q0 54 -28.5 86.5t-81.5 32.5q-54 0 -85 -33t-34 -86h229z" />
    <glyph glyph-name="ccedilla" unicode="&#xe7;" horiz-adv-x="590" 
d="M206 -196v89h79q9 0 15.5 5t6.5 14q0 10 -6 15t-16 5h-27v53q-70 10 -123 48.5t-82 100.5t-29 141q0 89 34 155t97.5 102t150.5 36q116 0 183.5 -63t76.5 -165h-151q-3 51 -29.5 83t-79.5 32q-62 0 -92.5 -48.5t-30.5 -131.5q0 -84 32 -132t91 -48q49 0 76.5 31t32.5 73
h151q-11 -86 -68.5 -145t-152.5 -70v-21q36 -4 54.5 -23.5t18.5 -51.5q0 -37 -25 -60.5t-69 -23.5h-118z" />
    <glyph glyph-name="egrave" unicode="&#xe8;" horiz-adv-x="586" 
d="M154 16.5q-62 34.5 -96 100.5t-34 158t34.5 158t96.5 100.5t142 34.5q78 0 138.5 -31t95 -93t34.5 -152v-57h-383q2 -65 34 -102.5t85 -37.5q39 0 65.5 19.5t37.5 54.5h152q-18 -85 -87 -136t-171 -51q-82 0 -144 34.5zM416 336q0 53 -29.5 86t-84.5 33t-85.5 -33
t-33.5 -86h233zM120 775h169l80 -162h-147z" />
    <glyph glyph-name="eacute" unicode="&#xe9;" horiz-adv-x="586" 
d="M154 16.5q-62 34.5 -96 100.5t-34 158t34.5 158t96.5 100.5t142 34.5q78 0 138.5 -31t95 -93t34.5 -152v-57h-383q2 -65 34 -102.5t85 -37.5q39 0 65.5 19.5t37.5 54.5h152q-18 -85 -87 -136t-171 -51q-82 0 -144 34.5zM416 336q0 53 -29.5 86t-84.5 33t-85.5 -33
t-33.5 -86h233zM301 775h169l-100 -162h-149z" />
    <glyph glyph-name="ecircumflex" unicode="&#xea;" horiz-adv-x="586" 
d="M154 16.5q-62 34.5 -96 100.5t-34 158t34.5 158t96.5 100.5t142 34.5q78 0 138.5 -31t95 -93t34.5 -152v-57h-383q2 -65 34 -102.5t85 -37.5q39 0 65.5 19.5t37.5 54.5h152q-18 -85 -87 -136t-171 -51q-82 0 -144 34.5zM416 336q0 53 -29.5 86t-84.5 33t-85.5 -33
t-33.5 -86h233zM228 775h134l107 -162h-136l-37 71h-2l-37 -71h-136z" />
    <glyph glyph-name="edieresis" unicode="&#xeb;" horiz-adv-x="586" 
d="M154 16.5q-62 34.5 -96 100.5t-34 158t34.5 158t96.5 100.5t142 34.5q78 0 138.5 -31t95 -93t34.5 -152v-57h-383q2 -65 34 -102.5t85 -37.5q39 0 65.5 19.5t37.5 54.5h152q-18 -85 -87 -136t-171 -51q-82 0 -144 34.5zM416 336q0 53 -29.5 86t-84.5 33t-85.5 -33
t-33.5 -86h233zM127 767h142v-140h-142v140zM321 767h142v-140h-142v140z" />
    <glyph glyph-name="igrave" unicode="&#xec;" horiz-adv-x="255" 
d="M53 550h149v-550h-149v550zM-48 775h169l80 -162h-147z" />
    <glyph glyph-name="iacute" unicode="&#xed;" horiz-adv-x="255" 
d="M53 550h149v-550h-149v550zM133 775h169l-100 -162h-149z" />
    <glyph glyph-name="icircumflex" unicode="&#xee;" horiz-adv-x="255" 
d="M53 550h149v-550h-149v550zM61 775h134l107 -162h-136l-37 71h-2l-37 -71h-136z" />
    <glyph glyph-name="idieresis" unicode="&#xef;" horiz-adv-x="255" 
d="M53 550h149v-550h-149v550zM-40 767h142v-140h-142v140zM154 767h142v-140h-142v140z" />
    <glyph glyph-name="eth" unicode="&#xf0;" horiz-adv-x="608" 
d="M160 16.5q-64 34.5 -100 100.5t-36 159q0 91 31.5 157t84 100.5t114.5 34.5q61 0 108 -32t65 -91h2q-11 103 -74 190l-121 -46v102l53 20q-47 44 -113 87v2h217q24 -22 36 -35l117 45v-102l-57 -22q46 -74 72 -166.5t26 -195.5q0 -165 -73 -253.5t-204 -88.5
q-84 0 -148 34.5zM217 140.5q34 -44.5 90 -44.5q54 0 86 45t32 136t-32.5 134t-88.5 43t-88.5 -42.5t-32.5 -134.5t34 -136.5z" />
    <glyph glyph-name="ntilde" unicode="&#xf1;" horiz-adv-x="601" 
d="M53 550h147v-73h2q25 45 66.5 68t94.5 23q85 0 136 -55.5t51 -158.5v-354h-149v336q0 59 -24.5 88.5t-68.5 29.5q-45 0 -75.5 -31.5t-30.5 -97.5v-325h-149v550zM327.5 618.5q-21.5 10.5 -44.5 28.5q-15 12 -25.5 18t-22.5 6q-16 0 -25.5 -12t-9.5 -34v-7h-92v28
q0 67 31.5 100.5t81.5 33.5q30 0 50.5 -10t44.5 -29q15 -13 26 -19t23 -6q16 0 25.5 12t9.5 35v7h92v-28q0 -67 -32 -100.5t-81 -33.5q-30 0 -51.5 10.5z" />
    <glyph glyph-name="ograve" unicode="&#xf2;" horiz-adv-x="612" 
d="M162 16q-64 34 -101 100.5t-37 158.5t37 158.5t101 100.5t144 34t144 -34t101 -100.5t37 -158.5t-37 -158.5t-101 -100.5t-144 -34t-144 34zM215 141q32 -46 91 -46t91 46t32 134t-32 134t-91 46t-91 -46t-32 -134t32 -134zM130 775h169l80 -162h-147z" />
    <glyph glyph-name="oacute" unicode="&#xf3;" horiz-adv-x="612" 
d="M162 16q-64 34 -101 100.5t-37 158.5t37 158.5t101 100.5t144 34t144 -34t101 -100.5t37 -158.5t-37 -158.5t-101 -100.5t-144 -34t-144 34zM215 141q32 -46 91 -46t91 46t32 134t-32 134t-91 46t-91 -46t-32 -134t32 -134zM311 775h169l-100 -162h-149z" />
    <glyph glyph-name="ocircumflex" unicode="&#xf4;" horiz-adv-x="612" 
d="M162 16q-64 34 -101 100.5t-37 158.5t37 158.5t101 100.5t144 34t144 -34t101 -100.5t37 -158.5t-37 -158.5t-101 -100.5t-144 -34t-144 34zM215 141q32 -46 91 -46t91 46t32 134t-32 134t-91 46t-91 -46t-32 -134t32 -134zM239 775h134l107 -162h-136l-37 71h-2l-37 -71
h-136z" />
    <glyph glyph-name="otilde" unicode="&#xf5;" horiz-adv-x="612" 
d="M162 16q-64 34 -101 100.5t-37 158.5t37 158.5t101 100.5t144 34t144 -34t101 -100.5t37 -158.5t-37 -158.5t-101 -100.5t-144 -34t-144 34zM215 141q32 -46 91 -46t91 46t32 134t-32 134t-91 46t-91 -46t-32 -134t32 -134zM333.5 618.5q-21.5 10.5 -44.5 28.5
q-15 12 -25.5 18t-22.5 6q-16 0 -25.5 -12t-9.5 -34v-7h-92v28q0 67 31.5 100.5t81.5 33.5q30 0 50.5 -10t44.5 -29q15 -13 26 -19t23 -6q16 0 25.5 12t9.5 35v7h92v-28q0 -67 -32 -100.5t-81 -33.5q-30 0 -51.5 10.5z" />
    <glyph glyph-name="odieresis" unicode="&#xf6;" horiz-adv-x="612" 
d="M162 16q-64 34 -101 100.5t-37 158.5t37 158.5t101 100.5t144 34t144 -34t101 -100.5t37 -158.5t-37 -158.5t-101 -100.5t-144 -34t-144 34zM215 141q32 -46 91 -46t91 46t32 134t-32 134t-91 46t-91 -46t-32 -134t32 -134zM138 767h142v-140h-142v140zM332 767h142v-140
h-142v140z" />
    <glyph glyph-name="divide" unicode="&#xf7;" horiz-adv-x="587" 
d="M56 346h475v-113h-475v113zM219 166h149v-138h-149v138zM219 552h149v-139h-149v139z" />
    <glyph glyph-name="oslash" unicode="&#xf8;" horiz-adv-x="615" 
d="M28 2l62 76q-63 78 -63 197q0 92 37 158.5t101 100.5t144 34q87 0 153 -39l17 21h106v-2l-60 -73q32 -37 49 -87.5t17 -112.5q0 -92 -37 -158.5t-101 -100.5t-144 -34q-89 0 -157 42l-19 -24h-105v2zM193 202l188 228q-28 25 -72 25q-59 0 -91 -46t-32 -134q0 -42 7 -73z
M309 95q59 0 91 46t32 134q0 41 -8 78l-190 -231q30 -27 75 -27z" />
    <glyph glyph-name="ugrave" unicode="&#xf9;" 
d="M99 37.5q-51 55.5 -51 158.5v354h149v-336q0 -60 24 -89t67 -29q45 0 75 31.5t30 97.5v325h149v-550h-147v73h-2q-24 -46 -64.5 -68.5t-93.5 -22.5q-85 0 -136 55.5zM121 775h169l80 -162h-147z" />
    <glyph glyph-name="uacute" unicode="&#xfa;" 
d="M99 37.5q-51 55.5 -51 158.5v354h149v-336q0 -60 24 -89t67 -29q45 0 75 31.5t30 97.5v325h149v-550h-147v73h-2q-24 -46 -64.5 -68.5t-93.5 -22.5q-85 0 -136 55.5zM302 775h169l-100 -162h-149z" />
    <glyph glyph-name="ucircumflex" unicode="&#xfb;" 
d="M99 37.5q-51 55.5 -51 158.5v354h149v-336q0 -60 24 -89t67 -29q45 0 75 31.5t30 97.5v325h149v-550h-147v73h-2q-24 -46 -64.5 -68.5t-93.5 -22.5q-85 0 -136 55.5zM230 775h134l107 -162h-136l-37 71h-2l-37 -71h-136z" />
    <glyph glyph-name="udieresis" unicode="&#xfc;" 
d="M99 37.5q-51 55.5 -51 158.5v354h149v-336q0 -60 24 -89t67 -29q45 0 75 31.5t30 97.5v325h149v-550h-147v73h-2q-24 -46 -64.5 -68.5t-93.5 -22.5q-85 0 -136 55.5zM129 767h142v-140h-142v140zM323 767h142v-140h-142v140z" />
    <glyph glyph-name="yacute" unicode="&#xfd;" horiz-adv-x="589" 
d="M7 -83h161l49 113l-210 520h161l127 -335h2l126 335h159l-285 -708q-16 -42 -62 -42h-228v117zM300 775h169l-100 -162h-149z" />
    <glyph glyph-name="thorn" unicode="&#xfe;" horiz-adv-x="634" 
d="M53 781h149v-261q0 -34 -2 -53h2q24 48 68.5 74.5t102.5 26.5q65 0 119 -34t86 -100t32 -159t-32 -159t-86 -100t-119 -34q-58 0 -102.5 26.5t-68.5 74.5h-2q2 -20 2 -59v-224h-149v981zM233.5 143q32.5 -48 92.5 -48t92.5 48t32.5 132t-32.5 132t-92.5 48t-92.5 -48
t-32.5 -132t32.5 -132z" />
    <glyph glyph-name="ydieresis" unicode="&#xff;" horiz-adv-x="589" 
d="M7 -83h161l49 113l-210 520h161l127 -335h2l126 335h159l-285 -708q-16 -42 -62 -42h-228v117zM127 767h142v-140h-142v140zM321 767h142v-140h-142v140z" />
    <glyph glyph-name="Amacron" unicode="&#x100;" horiz-adv-x="715" 
d="M279 700h157l264 -700h-167l-50 148h-254l-51 -148h-163zM441 269l-24 71q-39 113 -61 201h-1q-22 -86 -63 -208l-22 -64h171zM210 892h290v-114h-290v114z" />
    <glyph glyph-name="amacron" unicode="&#x101;" horiz-adv-x="616" 
d="M329 10.5q-49 -28.5 -113 -28.5q-84 0 -137.5 46.5t-53.5 130.5q0 89 59.5 132.5t149.5 43.5h90q76 0 76 55q0 32 -25 48.5t-66 16.5q-49 0 -76 -22t-29 -61h-158q6 93 69.5 144.5t188.5 51.5q127 0 186 -52t59 -142v-219q0 -21 8.5 -29.5t29.5 -8.5h19v-117h-102
q-49 0 -74 21t-25 61v13h-2q-25 -56 -74 -84.5zM205 118q21 -19 62 -19q56 0 94.5 35t38.5 108v45h-2q-11 -23 -34 -35t-62 -15l-37 -3q-40 -2 -60.5 -19.5t-20.5 -47.5t21 -49zM161 742h290v-114h-290v114z" />
    <glyph glyph-name="Abreve" unicode="&#x102;" horiz-adv-x="715" 
d="M279 700h157l264 -700h-167l-50 148h-254l-51 -148h-163zM441 269l-24 71q-39 113 -61 201h-1q-22 -86 -63 -208l-22 -64h171zM236 806.5q-41 43.5 -41 118.5h119q0 -60 41 -60t41 60h119q0 -75 -41 -118.5t-119 -43.5t-119 43.5z" />
    <glyph glyph-name="abreve" unicode="&#x103;" horiz-adv-x="616" 
d="M329 10.5q-49 -28.5 -113 -28.5q-84 0 -137.5 46.5t-53.5 130.5q0 89 59.5 132.5t149.5 43.5h90q76 0 76 55q0 32 -25 48.5t-66 16.5q-49 0 -76 -22t-29 -61h-158q6 93 69.5 144.5t188.5 51.5q127 0 186 -52t59 -142v-219q0 -21 8.5 -29.5t29.5 -8.5h19v-117h-102
q-49 0 -74 21t-25 61v13h-2q-25 -56 -74 -84.5zM205 118q21 -19 62 -19q56 0 94.5 35t38.5 108v45h-2q-11 -23 -34 -35t-62 -15l-37 -3q-40 -2 -60.5 -19.5t-20.5 -47.5t21 -49zM186 656.5q-41 43.5 -41 118.5h119q0 -60 41 -60t41 60h119q0 -75 -41 -118.5t-119 -43.5
t-119 43.5z" />
    <glyph glyph-name="Aogonek" unicode="&#x104;" horiz-adv-x="715" 
d="M279 700h157l264 -700h-1q-16 0 -27.5 -11.5t-11.5 -28.5q0 -20 16.5 -32.5t42.5 -12.5h15v-105h-42q-66 0 -100.5 27.5t-34.5 70.5q0 30 15.5 54t43.5 36v2h-83l-50 148h-254l-51 -148h-163zM441 269l-24 71q-39 113 -61 201h-1q-22 -86 -63 -208l-22 -64h171z" />
    <glyph glyph-name="aogonek" unicode="&#x105;" horiz-adv-x="616" 
d="M329 10.5q-49 -28.5 -113 -28.5q-84 0 -137.5 46.5t-53.5 130.5q0 89 59.5 132.5t149.5 43.5h90q76 0 76 55q0 32 -25 48.5t-66 16.5q-49 0 -76 -22t-29 -61h-158q6 93 69.5 144.5t188.5 51.5q127 0 186 -52t59 -142v-219q0 -21 8.5 -29.5t29.5 -8.5h19v-117h-15
q-16 0 -27.5 -11.5t-11.5 -28.5q0 -20 16.5 -32.5t42.5 -12.5h15v-105h-42q-66 0 -100.5 27.5t-34.5 70.5q0 30 15.5 54t43.5 36v2h-4q-49 0 -74 21t-25 61v13h-2q-25 -56 -74 -84.5zM205 118q21 -19 62 -19q56 0 94.5 35t38.5 108v45h-2q-11 -23 -34 -35t-62 -15l-37 -3
q-40 -2 -60.5 -19.5t-20.5 -47.5t21 -49z" />
    <glyph glyph-name="Cacute" unicode="&#x106;" horiz-adv-x="735" 
d="M195 27.5q-79 45.5 -123 129t-44 194.5q0 112 42 195t121 127.5t187 44.5q99 0 170.5 -37.5t111.5 -101t47 -143.5h-164q-6 71 -47 116t-118 45q-87 0 -135 -62t-48 -184q0 -121 49.5 -184.5t133.5 -63.5q75 0 116.5 45t48.5 111h164q-10 -77 -50.5 -139.5t-111 -100
t-167.5 -37.5q-104 0 -183 45.5zM383 925h169l-100 -162h-149z" />
    <glyph glyph-name="cacute" unicode="&#x107;" horiz-adv-x="590" 
d="M159 18q-64 36 -99.5 102.5t-35.5 154.5q0 89 34 155t97.5 102t150.5 36q116 0 183.5 -63t76.5 -165h-151q-3 51 -29.5 83t-79.5 32q-62 0 -92.5 -48.5t-30.5 -131.5q0 -84 32 -132t91 -48q49 0 76.5 31t32.5 73h151q-8 -61 -40.5 -110.5t-88.5 -78t-131 -28.5
q-83 0 -147 36zM314 775h169l-100 -162h-149z" />
    <glyph glyph-name="Ccircumflex" unicode="&#x108;" horiz-adv-x="735" 
d="M195 27.5q-79 45.5 -123 129t-44 194.5q0 112 42 195t121 127.5t187 44.5q99 0 170.5 -37.5t111.5 -101t47 -143.5h-164q-6 71 -47 116t-118 45q-87 0 -135 -62t-48 -184q0 -121 49.5 -184.5t133.5 -63.5q75 0 116.5 45t48.5 111h164q-10 -77 -50.5 -139.5t-111 -100
t-167.5 -37.5q-104 0 -183 45.5zM311 925h134l107 -162h-136l-37 71h-2l-37 -71h-136z" />
    <glyph glyph-name="ccircumflex" unicode="&#x109;" horiz-adv-x="590" 
d="M159 18q-64 36 -99.5 102.5t-35.5 154.5q0 89 34 155t97.5 102t150.5 36q116 0 183.5 -63t76.5 -165h-151q-3 51 -29.5 83t-79.5 32q-62 0 -92.5 -48.5t-30.5 -131.5q0 -84 32 -132t91 -48q49 0 76.5 31t32.5 73h151q-8 -61 -40.5 -110.5t-88.5 -78t-131 -28.5
q-83 0 -147 36zM242 775h134l107 -162h-136l-37 71h-2l-37 -71h-136z" />
    <glyph glyph-name="Cdotaccent" unicode="&#x10a;" horiz-adv-x="735" 
d="M195 27.5q-79 45.5 -123 129t-44 194.5q0 112 42 195t121 127.5t187 44.5q99 0 170.5 -37.5t111.5 -101t47 -143.5h-164q-6 71 -47 116t-118 45q-87 0 -135 -62t-48 -184q0 -121 49.5 -184.5t133.5 -63.5q75 0 116.5 45t48.5 111h164q-10 -77 -50.5 -139.5t-111 -100
t-167.5 -37.5q-104 0 -183 45.5zM301 917h152v-140h-152v140z" />
    <glyph glyph-name="cdotaccent" unicode="&#x10b;" horiz-adv-x="590" 
d="M159 18q-64 36 -99.5 102.5t-35.5 154.5q0 89 34 155t97.5 102t150.5 36q116 0 183.5 -63t76.5 -165h-151q-3 51 -29.5 83t-79.5 32q-62 0 -92.5 -48.5t-30.5 -131.5q0 -84 32 -132t91 -48q49 0 76.5 31t32.5 73h151q-8 -61 -40.5 -110.5t-88.5 -78t-131 -28.5
q-83 0 -147 36zM233 767h152v-140h-152v140z" />
    <glyph glyph-name="Ccaron" unicode="&#x10c;" horiz-adv-x="735" 
d="M195 27.5q-79 45.5 -123 129t-44 194.5q0 112 42 195t121 127.5t187 44.5q99 0 170.5 -37.5t111.5 -101t47 -143.5h-164q-6 71 -47 116t-118 45q-87 0 -135 -62t-48 -184q0 -121 49.5 -184.5t133.5 -63.5q75 0 116.5 45t48.5 111h164q-10 -77 -50.5 -139.5t-111 -100
t-167.5 -37.5q-104 0 -183 45.5zM204 925h136l37 -54h2l37 54h136l-107 -162h-134z" />
    <glyph glyph-name="ccaron" unicode="&#x10d;" horiz-adv-x="590" 
d="M159 18q-64 36 -99.5 102.5t-35.5 154.5q0 89 34 155t97.5 102t150.5 36q116 0 183.5 -63t76.5 -165h-151q-3 51 -29.5 83t-79.5 32q-62 0 -92.5 -48.5t-30.5 -131.5q0 -84 32 -132t91 -48q49 0 76.5 31t32.5 73h151q-8 -61 -40.5 -110.5t-88.5 -78t-131 -28.5
q-83 0 -147 36zM135 775h136l37 -54h2l37 54h136l-107 -162h-134z" />
    <glyph glyph-name="Dcaron" unicode="&#x10e;" horiz-adv-x="708" 
d="M55 700h283q99 0 176.5 -41.5t121.5 -120.5t44 -188t-44 -188t-121.5 -120.5t-176.5 -41.5h-283v700zM320 121q93 0 143 58t50 171t-50 171t-143 58h-109v-458h109zM143 925h136l37 -54h2l37 54h136l-107 -162h-134z" />
    <glyph glyph-name="dcaron" unicode="&#x10f;" horiz-adv-x="808" 
d="M142 16q-54 34 -86 100t-32 159t32 159t86 100t119 34q58 0 102.5 -26.5t68.5 -74.5h2q-2 19 -2 53v261h149v-781h-148v24q0 39 1 59h-2q-24 -48 -68.5 -74.5t-102.5 -26.5q-65 0 -119 34zM215.5 143q32.5 -48 92.5 -48t92.5 48t32.5 132t-32.5 132t-92.5 48t-92.5 -48
t-32.5 -132t32.5 -132zM730 504v39h-88v157h160v-192q0 -72 -41.5 -112t-120.5 -40v75q90 0 90 73z" />
    <glyph glyph-name="Dcroat" unicode="&#x110;" horiz-adv-x="708" 
d="M211 288v-167h109q93 0 143 58t50 171t-50 171t-143 58h-109v-170h116v-121h-116zM10 409h45v291h283q99 0 176.5 -41.5t121.5 -120.5t44 -188t-44 -188t-121.5 -120.5t-176.5 -41.5h-283v288h-45v121z" />
    <glyph glyph-name="dcroat" unicode="&#x111;" horiz-adv-x="630" 
d="M339 718h93v63h149v-63h77v-114h-77v-604h-148v24q0 39 1 59h-2q-24 -48 -68.5 -74.5t-102.5 -26.5q-65 0 -119 34t-86 100t-32 159t32 159t86 100t119 34q58 0 102.5 -26.5t68.5 -74.5h2q-2 19 -2 53v84h-93v114zM215.5 143q32.5 -48 92.5 -48t92.5 48t32.5 132
t-32.5 132t-92.5 48t-92.5 -48t-32.5 -132t32.5 -132z" />
    <glyph glyph-name="Emacron" unicode="&#x112;" horiz-adv-x="585" 
d="M55 700h506v-115h-349v-173h310v-115h-310v-182h350v-115h-507v700zM166 892h290v-114h-290v114z" />
    <glyph glyph-name="emacron" unicode="&#x113;" horiz-adv-x="586" 
d="M154 16.5q-62 34.5 -96 100.5t-34 158t34.5 158t96.5 100.5t142 34.5q78 0 138.5 -31t95 -93t34.5 -152v-57h-383q2 -65 34 -102.5t85 -37.5q39 0 65.5 19.5t37.5 54.5h152q-18 -85 -87 -136t-171 -51q-82 0 -144 34.5zM416 336q0 53 -29.5 86t-84.5 33t-85.5 -33
t-33.5 -86h233zM151 742h290v-114h-290v114z" />
    <glyph glyph-name="Ebreve" unicode="&#x114;" horiz-adv-x="585" 
d="M55 700h506v-115h-349v-173h310v-115h-310v-182h350v-115h-507v700zM192 806.5q-41 43.5 -41 118.5h119q0 -60 41 -60t41 60h119q0 -75 -41 -118.5t-119 -43.5t-119 43.5z" />
    <glyph glyph-name="ebreve" unicode="&#x115;" horiz-adv-x="586" 
d="M154 16.5q-62 34.5 -96 100.5t-34 158t34.5 158t96.5 100.5t142 34.5q78 0 138.5 -31t95 -93t34.5 -152v-57h-383q2 -65 34 -102.5t85 -37.5q39 0 65.5 19.5t37.5 54.5h152q-18 -85 -87 -136t-171 -51q-82 0 -144 34.5zM416 336q0 53 -29.5 86t-84.5 33t-85.5 -33
t-33.5 -86h233zM176 656.5q-41 43.5 -41 118.5h119q0 -60 41 -60t41 60h119q0 -75 -41 -118.5t-119 -43.5t-119 43.5z" />
    <glyph glyph-name="Edotaccent" unicode="&#x116;" horiz-adv-x="585" 
d="M55 700h506v-115h-349v-173h310v-115h-310v-182h350v-115h-507v700zM235 917h152v-140h-152v140z" />
    <glyph glyph-name="edotaccent" unicode="&#x117;" horiz-adv-x="586" 
d="M154 16.5q-62 34.5 -96 100.5t-34 158t34.5 158t96.5 100.5t142 34.5q78 0 138.5 -31t95 -93t34.5 -152v-57h-383q2 -65 34 -102.5t85 -37.5q39 0 65.5 19.5t37.5 54.5h152q-18 -85 -87 -136t-171 -51q-82 0 -144 34.5zM416 336q0 53 -29.5 86t-84.5 33t-85.5 -33
t-33.5 -86h233zM219 767h152v-140h-152v140z" />
    <glyph glyph-name="Eogonek" unicode="&#x118;" horiz-adv-x="585" 
d="M55 700h506v-115h-349v-173h310v-115h-310v-182h350v-115h-12q-16 0 -27.5 -11.5t-11.5 -28.5q0 -20 16.5 -32.5t42.5 -12.5h15v-105h-42q-66 0 -100.5 27.5t-34.5 70.5q0 30 15.5 54t43.5 36v2h-412v700z" />
    <glyph glyph-name="eogonek" unicode="&#x119;" horiz-adv-x="586" 
d="M404 -163q-38 27 -38 76q0 47 33 83v1q-45 -15 -101 -15q-82 0 -144 34.5t-96 100.5t-34 158t34.5 158t96.5 100.5t142 34.5q78 0 138.5 -31t95 -93t34.5 -152v-57h-383q2 -65 34 -102.5t85 -37.5q39 0 65.5 19.5t37.5 54.5h152q-18 -86 -89 -137q-24 -29 -24 -60
q0 -28 18 -42.5t48 -14.5h15v-105h-16q-66 0 -104 27zM416 336q0 53 -29.5 86t-84.5 33t-85.5 -33t-33.5 -86h233z" />
    <glyph glyph-name="Ecaron" unicode="&#x11a;" horiz-adv-x="585" 
d="M55 700h506v-115h-349v-173h310v-115h-310v-182h350v-115h-507v700zM137 925h136l37 -54h2l37 54h136l-107 -162h-134z" />
    <glyph glyph-name="ecaron" unicode="&#x11b;" horiz-adv-x="586" 
d="M154 16.5q-62 34.5 -96 100.5t-34 158t34.5 158t96.5 100.5t142 34.5q78 0 138.5 -31t95 -93t34.5 -152v-57h-383q2 -65 34 -102.5t85 -37.5q39 0 65.5 19.5t37.5 54.5h152q-18 -85 -87 -136t-171 -51q-82 0 -144 34.5zM416 336q0 53 -29.5 86t-84.5 33t-85.5 -33
t-33.5 -86h233zM121 775h136l37 -54h2l37 54h136l-107 -162h-134z" />
    <glyph glyph-name="Gcircumflex" unicode="&#x11c;" horiz-adv-x="743" 
d="M185.5 28q-73.5 46 -115.5 129.5t-42 193.5q0 108 41.5 191.5t119 129.5t183.5 46q96 0 168 -38t111 -103t43 -145h-159q-2 46 -22.5 83.5t-57 59.5t-83.5 22q-84 0 -130.5 -63t-46.5 -183q0 -121 49.5 -184.5t131.5 -63.5q68 0 112.5 40t54.5 98h-181v114h279
q26 0 40.5 -14t14.5 -39v-302h-134l16 117h-2q-30 -66 -88 -100.5t-137 -34.5q-92 0 -165.5 46zM305 925h134l107 -162h-136l-37 71h-2l-37 -71h-136z" />
    <glyph glyph-name="gcircumflex" unicode="&#x11d;" horiz-adv-x="574" 
d="M57 -169q-39 31 -39 83q0 39 23 66.5t68 36.5v2q-31 14 -48 39t-17 60q0 39 23.5 65.5t59.5 32.5l13 2v2q-48 21 -75.5 61.5t-27.5 95.5q0 60 31 103t83.5 65.5t115.5 22.5q62 0 113 -22.5t82 -62.5h3q2 32 19 49.5t47 17.5h29v-117h-40q-13 0 -18.5 -5t-7.5 -17
q3 -16 3 -34q0 -58 -29 -101t-80 -66t-115 -23h-55q-45 0 -45 -31q0 -32 45 -32h160q89 0 138 -43t49 -118q0 -76 -49.5 -119.5t-137.5 -43.5h-205q-77 0 -116 31zM158.5 -88q17.5 -15 52.5 -15h139q33 0 51 15t18 42t-18 42t-51 15h-139q-34 0 -52 -15.5t-18 -42.5
q0 -26 17.5 -41zM201.5 306q25.5 -22 65.5 -22t66 22t26 64q0 41 -26 63t-66 22t-65.5 -22t-25.5 -63q0 -42 25.5 -64zM200 775h134l107 -162h-136l-37 71h-2l-37 -71h-136z" />
    <glyph glyph-name="Gbreve" unicode="&#x11e;" horiz-adv-x="743" 
d="M185.5 28q-73.5 46 -115.5 129.5t-42 193.5q0 108 41.5 191.5t119 129.5t183.5 46q96 0 168 -38t111 -103t43 -145h-159q-2 46 -22.5 83.5t-57 59.5t-83.5 22q-84 0 -130.5 -63t-46.5 -183q0 -121 49.5 -184.5t131.5 -63.5q68 0 112.5 40t54.5 98h-181v114h279
q26 0 40.5 -14t14.5 -39v-302h-134l16 117h-2q-30 -66 -88 -100.5t-137 -34.5q-92 0 -165.5 46zM253 806.5q-41 43.5 -41 118.5h119q0 -60 41 -60t41 60h119q0 -75 -41 -118.5t-119 -43.5t-119 43.5z" />
    <glyph glyph-name="gbreve" unicode="&#x11f;" horiz-adv-x="574" 
d="M57 -169q-39 31 -39 83q0 39 23 66.5t68 36.5v2q-31 14 -48 39t-17 60q0 39 23.5 65.5t59.5 32.5l13 2v2q-48 21 -75.5 61.5t-27.5 95.5q0 60 31 103t83.5 65.5t115.5 22.5q62 0 113 -22.5t82 -62.5h3q2 32 19 49.5t47 17.5h29v-117h-40q-13 0 -18.5 -5t-7.5 -17
q3 -16 3 -34q0 -58 -29 -101t-80 -66t-115 -23h-55q-45 0 -45 -31q0 -32 45 -32h160q89 0 138 -43t49 -118q0 -76 -49.5 -119.5t-137.5 -43.5h-205q-77 0 -116 31zM158.5 -88q17.5 -15 52.5 -15h139q33 0 51 15t18 42t-18 42t-51 15h-139q-34 0 -52 -15.5t-18 -42.5
q0 -26 17.5 -41zM201.5 306q25.5 -22 65.5 -22t66 22t26 64q0 41 -26 63t-66 22t-65.5 -22t-25.5 -63q0 -42 25.5 -64zM148 656.5q-41 43.5 -41 118.5h119q0 -60 41 -60t41 60h119q0 -75 -41 -118.5t-119 -43.5t-119 43.5z" />
    <glyph glyph-name="Gdotaccent" unicode="&#x120;" horiz-adv-x="743" 
d="M185.5 28q-73.5 46 -115.5 129.5t-42 193.5q0 108 41.5 191.5t119 129.5t183.5 46q96 0 168 -38t111 -103t43 -145h-159q-2 46 -22.5 83.5t-57 59.5t-83.5 22q-84 0 -130.5 -63t-46.5 -183q0 -121 49.5 -184.5t131.5 -63.5q68 0 112.5 40t54.5 98h-181v114h279
q26 0 40.5 -14t14.5 -39v-302h-134l16 117h-2q-30 -66 -88 -100.5t-137 -34.5q-92 0 -165.5 46zM295 917h152v-140h-152v140z" />
    <glyph glyph-name="gdotaccent" unicode="&#x121;" horiz-adv-x="574" 
d="M57 -169q-39 31 -39 83q0 39 23 66.5t68 36.5v2q-31 14 -48 39t-17 60q0 39 23.5 65.5t59.5 32.5l13 2v2q-48 21 -75.5 61.5t-27.5 95.5q0 60 31 103t83.5 65.5t115.5 22.5q62 0 113 -22.5t82 -62.5h3q2 32 19 49.5t47 17.5h29v-117h-40q-13 0 -18.5 -5t-7.5 -17
q3 -16 3 -34q0 -58 -29 -101t-80 -66t-115 -23h-55q-45 0 -45 -31q0 -32 45 -32h160q89 0 138 -43t49 -118q0 -76 -49.5 -119.5t-137.5 -43.5h-205q-77 0 -116 31zM158.5 -88q17.5 -15 52.5 -15h139q33 0 51 15t18 42t-18 42t-51 15h-139q-34 0 -52 -15.5t-18 -42.5
q0 -26 17.5 -41zM201.5 306q25.5 -22 65.5 -22t66 22t26 64q0 41 -26 63t-66 22t-65.5 -22t-25.5 -63q0 -42 25.5 -64zM191 767h152v-140h-152v140z" />
    <glyph glyph-name="uni0122" unicode="&#x122;" horiz-adv-x="743" 
d="M185.5 28q-73.5 46 -115.5 129.5t-42 193.5q0 108 41.5 191.5t119 129.5t183.5 46q96 0 168 -38t111 -103t43 -145h-159q-2 46 -22.5 83.5t-57 59.5t-83.5 22q-84 0 -130.5 -63t-46.5 -183q0 -121 49.5 -184.5t131.5 -63.5q68 0 112.5 40t54.5 98h-181v114h279
q26 0 40.5 -14t14.5 -39v-302h-134l16 117h-2q-30 -66 -88 -100.5t-137 -34.5q-92 0 -165.5 46zM354 -220q20 15 20 40v5h-76v127h148v-130q0 -60 -41 -94.5t-107 -34.5v72q36 0 56 15z" />
    <glyph glyph-name="uni0123" unicode="&#x123;" horiz-adv-x="574" 
d="M57 -169q-39 31 -39 83q0 39 23 66.5t68 36.5v2q-31 14 -48 39t-17 60q0 39 23.5 65.5t59.5 32.5l13 2v2q-48 21 -75.5 61.5t-27.5 95.5q0 60 31 103t83.5 65.5t115.5 22.5q62 0 113 -22.5t82 -62.5h3q2 32 19 49.5t47 17.5h29v-117h-40q-13 0 -18.5 -5t-7.5 -17
q3 -16 3 -34q0 -58 -29 -101t-80 -66t-115 -23h-55q-45 0 -45 -31q0 -32 45 -32h160q89 0 138 -43t49 -118q0 -76 -49.5 -119.5t-137.5 -43.5h-205q-77 0 -116 31zM158.5 -88q17.5 -15 52.5 -15h139q33 0 51 15t18 42t-18 42t-51 15h-139q-34 0 -52 -15.5t-18 -42.5
q0 -26 17.5 -41zM201.5 306q25.5 -22 65.5 -22t66 22t26 64q0 41 -26 63t-66 22t-65.5 -22t-25.5 -63q0 -42 25.5 -64zM285 786q-20 -15 -20 -41v-4h76v-128h-148v130q0 60 41 95t107 35v-72q-36 0 -56 -15z" />
    <glyph glyph-name="Hcircumflex" unicode="&#x124;" horiz-adv-x="688" 
d="M55 700h156v-287h266v287h156v-700h-156v292h-266v-292h-156v700zM277 925h134l107 -162h-136l-37 71h-2l-37 -71h-136z" />
    <glyph glyph-name="hcircumflex" unicode="&#x125;" horiz-adv-x="601" 
d="M53 781h149v-211q0 -44 -2 -92h2q23 43 64 66.5t95 23.5q84 0 136.5 -54.5t52.5 -152.5v-361h-149v336q0 60 -24.5 89t-68.5 29q-45 0 -75.5 -31.5t-30.5 -97.5v-325h-149v781zM61 1006h134l107 -162h-136l-37 71h-2l-37 -71h-136z" />
    <glyph glyph-name="Hbar" unicode="&#x126;" horiz-adv-x="690" 
d="M0 611h64v89h156v-89h266v89h156v-89h48v-108h-48v-503h-156v292h-266v-292h-156v503h-64v108zM486 413v90h-266v-90h266z" />
    <glyph glyph-name="hbar" unicode="&#x127;" horiz-adv-x="601" 
d="M53 602h-79v114h79v65h149v-65h91v-114h-91v-32q0 -44 -2 -92h2q23 43 64 66.5t95 23.5q84 0 136.5 -54.5t52.5 -152.5v-361h-149v336q0 60 -24.5 89t-68.5 29q-45 0 -75.5 -31.5t-30.5 -97.5v-325h-149v602z" />
    <glyph glyph-name="Itilde" unicode="&#x128;" horiz-adv-x="267" 
d="M55 700h156v-700h-156v700zM160.5 768.5q-21.5 10.5 -44.5 28.5q-15 12 -25.5 18t-22.5 6q-16 0 -25.5 -12t-9.5 -34v-7h-92v28q0 67 31.5 100.5t81.5 33.5q30 0 50.5 -10t44.5 -29q15 -13 26 -19t23 -6q16 0 25.5 12t9.5 35v7h92v-28q0 -67 -32 -100.5t-81 -33.5
q-30 0 -51.5 10.5z" />
    <glyph glyph-name="itilde" unicode="&#x129;" horiz-adv-x="255" 
d="M53 550h149v-550h-149v550zM155.5 618.5q-21.5 10.5 -44.5 28.5q-15 12 -25.5 18t-22.5 6q-16 0 -25.5 -12t-9.5 -34v-7h-92v28q0 67 31.5 100.5t81.5 33.5q30 0 50.5 -10t44.5 -29q15 -13 26 -19t23 -6q16 0 25.5 12t9.5 35v7h92v-28q0 -67 -32 -100.5t-81 -33.5
q-30 0 -51.5 10.5z" />
    <glyph glyph-name="Imacron" unicode="&#x12a;" horiz-adv-x="267" 
d="M55 700h156v-700h-156v700zM-12 892h290v-114h-290v114z" />
    <glyph glyph-name="imacron" unicode="&#x12b;" horiz-adv-x="255" 
d="M53 550h149v-550h-149v550zM-17 742h290v-114h-290v114z" />
    <glyph glyph-name="Ibreve" unicode="&#x12c;" horiz-adv-x="267" 
d="M55 700h156v-700h-156v700zM14 806.5q-41 43.5 -41 118.5h119q0 -60 41 -60t41 60h119q0 -75 -41 -118.5t-119 -43.5t-119 43.5z" />
    <glyph glyph-name="ibreve" unicode="&#x12d;" horiz-adv-x="255" 
d="M53 550h149v-550h-149v550zM9 656.5q-41 43.5 -41 118.5h119q0 -60 41 -60t41 60h119q0 -75 -41 -118.5t-119 -43.5t-119 43.5z" />
    <glyph glyph-name="Iogonek" unicode="&#x12e;" horiz-adv-x="267" 
d="M55 700h156v-700h-13q-16 0 -27.5 -11.5t-11.5 -28.5q0 -20 16.5 -32.5t42.5 -12.5h15v-105h-42q-66 0 -100.5 27.5t-34.5 70.5q0 30 15.5 54t43.5 36v2h-60v700z" />
    <glyph glyph-name="iogonek" unicode="&#x12f;" horiz-adv-x="255" 
d="M53 550h149v-550h-19q-16 0 -27.5 -11.5t-11.5 -28.5q0 -20 16.5 -32.5t42.5 -12.5h15v-105h-42q-66 0 -100.5 27.5t-34.5 70.5q0 30 15.5 54t43.5 36v2h-47v550zM52 767h152v-140h-152v140z" />
    <glyph glyph-name="Idotaccent" unicode="&#x130;" horiz-adv-x="267" 
d="M55 700h156v-700h-156v700zM57 917h152v-140h-152v140z" />
    <glyph glyph-name="dotlessi" unicode="&#x131;" horiz-adv-x="255" 
d="M53 550h149v-550h-149v550z" />
    <glyph glyph-name="IJ" unicode="&#x132;" horiz-adv-x="637" 
d="M126.5 52q-71.5 70 -71.5 201h156q0 -75 27.5 -112.5t79.5 -37.5q107 0 107 150v447h157v-452q0 -128 -72 -197t-192 -69t-191.5 70zM55 700h156v-367h-156v367z" />
    <glyph glyph-name="ij" unicode="&#x133;" horiz-adv-x="487" 
d="M53 550h149v-550h-149v550zM52 767h152v-140h-152v140zM191 -86h38q27 0 41.5 16.5t14.5 46.5v573h148v-607q0 -62 -40 -102.5t-102 -40.5h-100v114zM282 767h152v-140h-152v140z" />
    <glyph glyph-name="Jcircumflex" unicode="&#x134;" horiz-adv-x="597" 
d="M86.5 52q-71.5 70 -71.5 201h156q0 -74 27.5 -112t79.5 -38t79.5 38t27.5 112v447h156v-452q0 -128 -71 -197t-192 -69q-120 0 -191.5 70zM396 925h134l107 -162h-136l-37 71h-2l-37 -71h-136z" />
    <glyph glyph-name="jcircumflex" unicode="&#x135;" horiz-adv-x="255" 
d="M-41 -86h38q27 0 41.5 16.5t14.5 46.5v573h148v-607q0 -62 -40 -102.5t-102 -40.5h-100v114zM60 775h134l107 -162h-136l-37 71h-2l-37 -71h-136z" />
    <glyph glyph-name="uni0136" unicode="&#x136;" horiz-adv-x="681" 
d="M55 700h156v-296h2l261 296h194l-264 -291l275 -409h-191l-188 294h-2l-87 -95v-199h-156v700zM311 -220q20 15 20 40v5h-76v127h148v-130q0 -60 -41 -94.5t-107 -34.5v72q36 0 56 15z" />
    <glyph glyph-name="uni0137" unicode="&#x137;" horiz-adv-x="572" 
d="M53 781h149v-454h2l191 223h174l-195 -215l217 -335h-184l-134 225h-2l-69 -77v-148h-149v781zM270 -220q20 15 20 40v5h-76v127h148v-130q0 -60 -41 -94.5t-107 -34.5v72q36 0 56 15z" />
    <glyph glyph-name="kgreenlandic" unicode="&#x138;" horiz-adv-x="572" 
d="M53 550h149v-223h2l191 223h174l-195 -215l217 -335h-184l-134 225h-2l-69 -77v-148h-149v550z" />
    <glyph glyph-name="Lacute" unicode="&#x139;" horiz-adv-x="506" 
d="M494 121v-121h-439v700h156v-579h283zM139 925h169l-100 -162h-149z" />
    <glyph glyph-name="lacute" unicode="&#x13a;" horiz-adv-x="255" 
d="M53 781h149v-781h-149v781zM133 1025h169l-100 -162h-149z" />
    <glyph glyph-name="uni013B" unicode="&#x13b;" horiz-adv-x="506" 
d="M494 121v-121h-439v700h156v-579h283zM249 -220q20 15 20 40v5h-76v127h148v-130q0 -60 -41 -94.5t-107 -34.5v72q36 0 56 15z" />
    <glyph glyph-name="uni013C" unicode="&#x13c;" horiz-adv-x="255" 
d="M53 781h149v-781h-149v781zM110 -220q20 15 20 40v5h-76v127h148v-130q0 -60 -41 -94.5t-107 -34.5v72q36 0 56 15z" />
    <glyph glyph-name="Lcaron" unicode="&#x13d;" horiz-adv-x="506" 
d="M494 121v-121h-439v700h156v-579h283zM396 504v39h-88v157h160v-192q0 -72 -41.5 -112t-120.5 -40v75q90 0 90 73z" />
    <glyph glyph-name="lcaron" unicode="&#x13e;" horiz-adv-x="429" 
d="M53 781h149v-781h-149v781zM331 504v39h-88v157h160v-192q0 -72 -41.5 -112t-120.5 -40v75q90 0 90 73z" />
    <glyph glyph-name="Ldot" unicode="&#x13f;" horiz-adv-x="506" 
d="M494 121v-121h-439v700h156v-579h283zM308 418h152v-140h-152v140z" />
    <glyph glyph-name="ldot" unicode="&#x140;" horiz-adv-x="408" 
d="M53 781h149v-781h-149v781zM258 418h152v-140h-152v140z" />
    <glyph glyph-name="Lslash" unicode="&#x141;" horiz-adv-x="504" 
d="M2 414l51 17v269h156v-218l114 38v-127l-114 -37v-235h283v-121h-439v305l-51 -17v126z" />
    <glyph glyph-name="lslash" unicode="&#x142;" horiz-adv-x="274" 
d="M211 382v-382h-149v322l-56 -23v131l56 22v329h149v-269l57 23v-130z" />
    <glyph glyph-name="Nacute" unicode="&#x143;" horiz-adv-x="719" 
d="M209 472h-2l1 -120v-352h-153v700h190l265 -466h2l-1 120v346h153v-700h-184zM367 925h169l-100 -162h-149z" />
    <glyph glyph-name="nacute" unicode="&#x144;" horiz-adv-x="601" 
d="M53 550h147v-73h2q25 45 66.5 68t94.5 23q85 0 136 -55.5t51 -158.5v-354h-149v336q0 59 -24.5 88.5t-68.5 29.5q-45 0 -75.5 -31.5t-30.5 -97.5v-325h-149v550zM305 775h169l-100 -162h-149z" />
    <glyph glyph-name="uni0145" unicode="&#x145;" horiz-adv-x="719" 
d="M209 472h-2l1 -120v-352h-153v700h190l265 -466h2l-1 120v346h153v-700h-184zM343 -220q20 15 20 40v5h-76v127h148v-130q0 -60 -41 -94.5t-107 -34.5v72q36 0 56 15z" />
    <glyph glyph-name="uni0146" unicode="&#x146;" horiz-adv-x="601" 
d="M53 550h147v-73h2q25 45 66.5 68t94.5 23q85 0 136 -55.5t51 -158.5v-354h-149v336q0 59 -24.5 88.5t-68.5 29.5q-45 0 -75.5 -31.5t-30.5 -97.5v-325h-149v550zM282 -220q20 15 20 40v5h-76v127h148v-130q0 -60 -41 -94.5t-107 -34.5v72q36 0 56 15z" />
    <glyph glyph-name="Ncaron" unicode="&#x147;" horiz-adv-x="719" 
d="M209 472h-2l1 -120v-352h-153v700h190l265 -466h2l-1 120v346h153v-700h-184zM188 925h136l37 -54h2l37 54h136l-107 -162h-134z" />
    <glyph glyph-name="ncaron" unicode="&#x148;" horiz-adv-x="601" 
d="M53 550h147v-73h2q25 45 66.5 68t94.5 23q85 0 136 -55.5t51 -158.5v-354h-149v336q0 59 -24.5 88.5t-68.5 29.5q-45 0 -75.5 -31.5t-30.5 -97.5v-325h-149v550zM126 775h136l37 -54h2l37 54h136l-107 -162h-134z" />
    <glyph glyph-name="napostrophe" unicode="&#x149;" horiz-adv-x="803" 
d="M106 504v39h-88v157h160v-192q0 -72 -41.5 -112t-120.5 -40v75q90 0 90 73zM255 550h147v-73h2q25 45 66.5 68t94.5 23q85 0 136 -55.5t51 -158.5v-354h-149v336q0 59 -24.5 88.5t-68.5 29.5q-45 0 -75.5 -31.5t-30.5 -97.5v-325h-149v550z" />
    <glyph glyph-name="Eng" unicode="&#x14a;" horiz-adv-x="719" 
d="M421 -86h38q27 0 41.5 16.5t14.5 46.5v23l-306 472h-2l1 -120v-352h-153v700h189l267 -437h2l-2 105v332h153v-753q0 -63 -41.5 -105t-104.5 -42h-97v114z" />
    <glyph glyph-name="eng" unicode="&#x14b;" horiz-adv-x="601" 
d="M307 -86h38q27 0 41.5 16.5t14.5 46.5v358q0 60 -24.5 89.5t-68.5 29.5q-45 0 -75.5 -31.5t-30.5 -97.5v-325h-149v550h147v-73h2q25 45 66.5 68t94.5 23q85 0 136 -55.5t51 -158.5v-411q0 -62 -40.5 -102.5t-101.5 -40.5h-101v114z" />
    <glyph glyph-name="Omacron" unicode="&#x14c;" horiz-adv-x="752" 
d="M196.5 24.5q-78.5 42.5 -123.5 125.5t-45 200t45 200t123.5 125.5t179.5 42.5q100 0 179 -42.5t124 -125.5t45 -200t-45 -200t-124 -125.5t-179 -42.5q-101 0 -179.5 42.5zM243.5 164.5q48.5 -61.5 132.5 -61.5t132.5 61.5t48.5 185.5t-48.5 185.5t-132.5 61.5
t-132.5 -61.5t-48.5 -185.5t48.5 -185.5zM231 892h290v-114h-290v114z" />
    <glyph glyph-name="omacron" unicode="&#x14d;" horiz-adv-x="612" 
d="M162 16q-64 34 -101 100.5t-37 158.5t37 158.5t101 100.5t144 34t144 -34t101 -100.5t37 -158.5t-37 -158.5t-101 -100.5t-144 -34t-144 34zM215 141q32 -46 91 -46t91 46t32 134t-32 134t-91 46t-91 -46t-32 -134t32 -134zM161 742h290v-114h-290v114z" />
    <glyph glyph-name="Obreve" unicode="&#x14e;" horiz-adv-x="752" 
d="M196.5 24.5q-78.5 42.5 -123.5 125.5t-45 200t45 200t123.5 125.5t179.5 42.5q100 0 179 -42.5t124 -125.5t45 -200t-45 -200t-124 -125.5t-179 -42.5q-101 0 -179.5 42.5zM243.5 164.5q48.5 -61.5 132.5 -61.5t132.5 61.5t48.5 185.5t-48.5 185.5t-132.5 61.5
t-132.5 -61.5t-48.5 -185.5t48.5 -185.5zM257 806.5q-41 43.5 -41 118.5h119q0 -60 41 -60t41 60h119q0 -75 -41 -118.5t-119 -43.5t-119 43.5z" />
    <glyph glyph-name="obreve" unicode="&#x14f;" horiz-adv-x="612" 
d="M162 16q-64 34 -101 100.5t-37 158.5t37 158.5t101 100.5t144 34t144 -34t101 -100.5t37 -158.5t-37 -158.5t-101 -100.5t-144 -34t-144 34zM215 141q32 -46 91 -46t91 46t32 134t-32 134t-91 46t-91 -46t-32 -134t32 -134zM187 656.5q-41 43.5 -41 118.5h119
q0 -60 41 -60t41 60h119q0 -75 -41 -118.5t-119 -43.5t-119 43.5z" />
    <glyph glyph-name="Ohungarumlaut" unicode="&#x150;" horiz-adv-x="752" 
d="M196.5 24.5q-78.5 42.5 -123.5 125.5t-45 200t45 200t123.5 125.5t179.5 42.5q100 0 179 -42.5t124 -125.5t45 -200t-45 -200t-124 -125.5t-179 -42.5q-101 0 -179.5 42.5zM243.5 164.5q48.5 -61.5 132.5 -61.5t132.5 61.5t48.5 185.5t-48.5 185.5t-132.5 61.5
t-132.5 -61.5t-48.5 -185.5t48.5 -185.5zM484 925h170l-100 -162h-144zM272 925h169l-100 -162h-143z" />
    <glyph glyph-name="ohungarumlaut" unicode="&#x151;" horiz-adv-x="612" 
d="M162 16q-64 34 -101 100.5t-37 158.5t37 158.5t101 100.5t144 34t144 -34t101 -100.5t37 -158.5t-37 -158.5t-101 -100.5t-144 -34t-144 34zM215 141q32 -46 91 -46t91 46t32 134t-32 134t-91 46t-91 -46t-32 -134t32 -134zM414 775h170l-100 -162h-144zM202 775h169
l-100 -162h-143z" />
    <glyph glyph-name="OE" unicode="&#x152;" horiz-adv-x="1049" 
d="M187.5 25.5q-73.5 43.5 -116.5 127t-43 197.5t43 197.5t116.5 127t163.5 43.5q66 0 118 -24.5t86 -72.5h2v79h468v-115h-313v-173h274v-115h-274v-182h314v-115h-469v79h-2q-34 -48 -86 -72.5t-118 -24.5q-90 0 -163.5 43.5zM244 165q49 -62 131 -62q83 0 132 62t49 185
q0 124 -49 185.5t-132 61.5q-82 0 -131 -61.5t-49 -185.5q0 -123 49 -185z" />
    <glyph glyph-name="oe" unicode="&#x153;" horiz-adv-x="982" 
d="M162 16q-64 34 -101 100.5t-37 158.5t37 158.5t101 100.5t144 34q61 0 112 -26t85 -77h2q33 51 83 77t112 26q75 0 134 -31.5t93 -92.5t34 -147v-62h-382q4 -67 36.5 -103t84.5 -36q38 0 65.5 19.5t38.5 53.5h152q-17 -84 -87.5 -135.5t-168.5 -51.5q-63 0 -113 26
t-82 77h-2q-35 -51 -85.5 -77t-111.5 -26q-80 0 -144 34zM215 142.5q32 -46.5 91 -46.5t91 46.5t32 132.5t-32 132.5t-91 46.5t-91 -46.5t-32 -132.5t32 -132.5zM813 337q-3 52 -33 84.5t-82 32.5t-83.5 -33t-34.5 -84h233z" />
    <glyph glyph-name="Racute" unicode="&#x154;" horiz-adv-x="650" 
d="M55 700h311q119 0 185 -51t66 -139q0 -69 -42.5 -116t-121.5 -62v-2q59 -21 91 -65t54 -120l40 -145h-163l-27 122q-13 57 -30 86.5t-45.5 41.5t-77.5 12h-84v-262h-156v700zM314 383q71 0 106.5 26t35.5 74q0 46 -31 71t-94 25h-120v-196h103zM325 925h169l-100 -162
h-149z" />
    <glyph glyph-name="racute" unicode="&#x155;" horiz-adv-x="394" 
d="M53 550h147v-81h2q21 42 51 61.5t77 19.5h54v-117h-84q-51 0 -74.5 -26.5t-23.5 -85.5v-321h-149v550zM208 775h169l-100 -162h-149z" />
    <glyph glyph-name="uni0156" unicode="&#x156;" horiz-adv-x="650" 
d="M55 700h311q119 0 185 -51t66 -139q0 -69 -42.5 -116t-121.5 -62v-2q59 -21 91 -65t54 -120l40 -145h-163l-27 122q-13 57 -30 86.5t-45.5 41.5t-77.5 12h-84v-262h-156v700zM314 383q71 0 106.5 26t35.5 74q0 46 -31 71t-94 25h-120v-196h103zM314 -220q20 15 20 40v5
h-76v127h148v-130q0 -60 -41 -94.5t-107 -34.5v72q36 0 56 15z" />
    <glyph glyph-name="uni0157" unicode="&#x157;" horiz-adv-x="394" 
d="M53 550h147v-81h2q21 42 51 61.5t77 19.5h54v-117h-84q-51 0 -74.5 -26.5t-23.5 -85.5v-321h-149v550zM110 -220q20 15 20 40v5h-76v127h148v-130q0 -60 -41 -94.5t-107 -34.5v72q36 0 56 15z" />
    <glyph glyph-name="Rcaron" unicode="&#x158;" horiz-adv-x="650" 
d="M55 700h311q119 0 185 -51t66 -139q0 -69 -42.5 -116t-121.5 -62v-2q59 -21 91 -65t54 -120l40 -145h-163l-27 122q-13 57 -30 86.5t-45.5 41.5t-77.5 12h-84v-262h-156v700zM314 383q71 0 106.5 26t35.5 74q0 46 -31 71t-94 25h-120v-196h103zM146 925h136l37 -54h2
l37 54h136l-107 -162h-134z" />
    <glyph glyph-name="rcaron" unicode="&#x159;" horiz-adv-x="394" 
d="M53 550h147v-81h2q21 42 51 61.5t77 19.5h54v-117h-84q-51 0 -74.5 -26.5t-23.5 -85.5v-321h-149v550zM28 775h136l37 -54h2l37 54h136l-107 -162h-134z" />
    <glyph glyph-name="Sacute" unicode="&#x15a;" horiz-adv-x="670" 
d="M112.5 50.5q-79.5 68.5 -81.5 191.5h166q1 -69 38.5 -104t104.5 -35q62 0 98 29t36 78q0 41 -28 64.5t-86 23.5h-88q-114 0 -172.5 52.5t-58.5 142.5q0 104 76.5 164.5t217.5 60.5q144 0 218.5 -65t76.5 -181h-162q-1 63 -35 94t-100 31q-62 0 -96 -25t-34 -69
q0 -37 26 -58.5t81 -21.5h88q123 0 182.5 -56t59.5 -147q0 -72 -36 -125.5t-104 -83t-162 -29.5q-146 0 -225.5 68.5zM340 925h169l-100 -162h-149z" />
    <glyph glyph-name="sacute" unicode="&#x15b;" horiz-adv-x="556" 
d="M93 35.5q-65 53.5 -67 146.5h154q1 -44 26.5 -65.5t71.5 -21.5q45 0 68.5 19t23.5 52q0 30 -21.5 46.5t-66.5 16.5h-60q-88 0 -137 43t-49 115q0 54 29 95t83.5 63.5t127.5 22.5q115 0 178 -53t65 -143h-150q-1 41 -24 62t-67 21q-40 0 -62.5 -16.5t-22.5 -45.5
q0 -28 19.5 -42t56.5 -14h66q98 0 146 -46t48 -120q0 -86 -65 -137.5t-185 -51.5q-121 0 -186 53.5zM282 775h169l-100 -162h-149z" />
    <glyph glyph-name="Scircumflex" unicode="&#x15c;" horiz-adv-x="670" 
d="M112.5 50.5q-79.5 68.5 -81.5 191.5h166q1 -69 38.5 -104t104.5 -35q62 0 98 29t36 78q0 41 -28 64.5t-86 23.5h-88q-114 0 -172.5 52.5t-58.5 142.5q0 104 76.5 164.5t217.5 60.5q144 0 218.5 -65t76.5 -181h-162q-1 63 -35 94t-100 31q-62 0 -96 -25t-34 -69
q0 -37 26 -58.5t81 -21.5h88q123 0 182.5 -56t59.5 -147q0 -72 -36 -125.5t-104 -83t-162 -29.5q-146 0 -225.5 68.5zM268 925h134l107 -162h-136l-37 71h-2l-37 -71h-136z" />
    <glyph glyph-name="scircumflex" unicode="&#x15d;" horiz-adv-x="556" 
d="M93 35.5q-65 53.5 -67 146.5h154q1 -44 26.5 -65.5t71.5 -21.5q45 0 68.5 19t23.5 52q0 30 -21.5 46.5t-66.5 16.5h-60q-88 0 -137 43t-49 115q0 54 29 95t83.5 63.5t127.5 22.5q115 0 178 -53t65 -143h-150q-1 41 -24 62t-67 21q-40 0 -62.5 -16.5t-22.5 -45.5
q0 -28 19.5 -42t56.5 -14h66q98 0 146 -46t48 -120q0 -86 -65 -137.5t-185 -51.5q-121 0 -186 53.5zM210 775h134l107 -162h-136l-37 71h-2l-37 -71h-136z" />
    <glyph glyph-name="Scedilla" unicode="&#x15e;" horiz-adv-x="670" 
d="M237 -196v89h79q9 0 15.5 5t6.5 14q0 10 -6 15t-16 5h-27v52q-123 11 -189.5 78.5t-68.5 179.5h166q1 -69 38.5 -104t104.5 -35q62 0 98 29t36 78q0 41 -28 64.5t-86 23.5h-88q-114 0 -172.5 52.5t-58.5 142.5q0 104 76.5 164.5t217.5 60.5q144 0 218.5 -65t76.5 -181
h-162q-1 63 -35 94t-100 31q-62 0 -96 -25t-34 -69q0 -37 26 -58.5t81 -21.5h88q123 0 182.5 -56t59.5 -147q0 -101 -69.5 -164.5t-194.5 -72.5v-20q36 -4 54.5 -23.5t18.5 -51.5q0 -37 -25 -60.5t-69 -23.5h-118z" />
    <glyph glyph-name="scedilla" unicode="&#x15f;" horiz-adv-x="556" 
d="M180 -196v89h79q9 0 15.5 5t6.5 14q0 10 -6 15t-16 5h-27v52q-99 10 -151.5 62t-54.5 136h154q1 -44 26.5 -65.5t71.5 -21.5q45 0 68.5 19t23.5 52q0 30 -21.5 46.5t-66.5 16.5h-60q-88 0 -137 43t-49 115q0 54 29 95t83.5 63.5t127.5 22.5q115 0 178 -53t65 -143h-150
q-1 41 -24 62t-67 21q-40 0 -62.5 -16.5t-22.5 -45.5q0 -28 19.5 -42t56.5 -14h66q98 0 146 -46t48 -120q0 -79 -54 -129t-156 -58v-21q36 -4 54.5 -23.5t18.5 -51.5q0 -37 -25 -60.5t-69 -23.5h-118z" />
    <glyph glyph-name="Scaron" unicode="&#x160;" horiz-adv-x="670" 
d="M112.5 50.5q-79.5 68.5 -81.5 191.5h166q1 -69 38.5 -104t104.5 -35q62 0 98 29t36 78q0 41 -28 64.5t-86 23.5h-88q-114 0 -172.5 52.5t-58.5 142.5q0 104 76.5 164.5t217.5 60.5q144 0 218.5 -65t76.5 -181h-162q-1 63 -35 94t-100 31q-62 0 -96 -25t-34 -69
q0 -37 26 -58.5t81 -21.5h88q123 0 182.5 -56t59.5 -147q0 -72 -36 -125.5t-104 -83t-162 -29.5q-146 0 -225.5 68.5zM161 925h136l37 -54h2l37 54h136l-107 -162h-134z" />
    <glyph glyph-name="scaron" unicode="&#x161;" horiz-adv-x="556" 
d="M93 35.5q-65 53.5 -67 146.5h154q1 -44 26.5 -65.5t71.5 -21.5q45 0 68.5 19t23.5 52q0 30 -21.5 46.5t-66.5 16.5h-60q-88 0 -137 43t-49 115q0 54 29 95t83.5 63.5t127.5 22.5q115 0 178 -53t65 -143h-150q-1 41 -24 62t-67 21q-40 0 -62.5 -16.5t-22.5 -45.5
q0 -28 19.5 -42t56.5 -14h66q98 0 146 -46t48 -120q0 -86 -65 -137.5t-185 -51.5q-121 0 -186 53.5zM103 775h136l37 -54h2l37 54h136l-107 -162h-134z" />
    <glyph glyph-name="uni0162" unicode="&#x162;" horiz-adv-x="623" 
d="M233 579h-221v121h599v-121h-222v-579h-36v-37q36 -4 54.5 -23.5t18.5 -51.5q0 -37 -25 -60.5t-69 -23.5h-118v89h79q9 0 15.5 5t6.5 14q0 10 -6 15t-16 5h-27v68h-33v579z" />
    <glyph glyph-name="uni0163" unicode="&#x163;" horiz-adv-x="441" 
d="M11 550h104v150h148v-150h162v-117h-162v-251q0 -34 16.5 -49.5t49.5 -15.5h98v-117h-115v-37q36 -4 54.5 -23.5t18.5 -51.5q0 -37 -25 -60.5t-69 -23.5h-118v89h79q9 0 15.5 5t6.5 14q0 10 -6 15t-16 5h-27v71q-110 20 -110 148v282h-104v117z" />
    <glyph glyph-name="Tcaron" unicode="&#x164;" horiz-adv-x="623" 
d="M233 579h-221v121h599v-121h-222v-579h-156v579zM138 925h136l37 -54h2l37 54h136l-107 -162h-134z" />
    <glyph glyph-name="tcaron" unicode="&#x165;" horiz-adv-x="490" 
d="M394 729v4h-89v124h160v-124q0 -69 -41 -107t-120 -38v75q90 0 90 66zM11 550h104v150h148v-150h162v-117h-162v-251q0 -34 16.5 -49.5t49.5 -15.5h98v-117h-160q-152 0 -152 151v282h-104v117z" />
    <glyph glyph-name="Tbar" unicode="&#x166;" horiz-adv-x="623" 
d="M102 384h131v195h-221v121h599v-121h-222v-195h129v-113h-129v-271h-156v271h-131v113z" />
    <glyph glyph-name="tbar" unicode="&#x167;" horiz-adv-x="441" 
d="M17 343h98v90h-104v117h104v150h148v-150h162v-117h-162v-90h148v-112h-148v-49q0 -34 16.5 -49.5t49.5 -15.5h98v-117h-160q-152 0 -152 151v80h-98v112z" />
    <glyph glyph-name="Utilde" unicode="&#x168;" horiz-adv-x="687" 
d="M195.5 14q-65.5 32 -103 94t-37.5 148v444h156v-437q0 -77 36 -118.5t97 -41.5t96.5 41.5t35.5 118.5v437h156v-444q0 -86 -37.5 -148t-103 -94t-147.5 -32q-83 0 -148.5 32zM371.5 768.5q-21.5 10.5 -44.5 28.5q-15 12 -25.5 18t-22.5 6q-16 0 -25.5 -12t-9.5 -34v-7
h-92v28q0 67 31.5 100.5t81.5 33.5q30 0 50.5 -10t44.5 -29q15 -13 26 -19t23 -6q16 0 25.5 12t9.5 35v7h92v-28q0 -67 -32 -100.5t-81 -33.5q-30 0 -51.5 10.5z" />
    <glyph glyph-name="utilde" unicode="&#x169;" 
d="M99 37.5q-51 55.5 -51 158.5v354h149v-336q0 -60 24 -89t67 -29q45 0 75 31.5t30 97.5v325h149v-550h-147v73h-2q-24 -46 -64.5 -68.5t-93.5 -22.5q-85 0 -136 55.5zM324.5 618.5q-21.5 10.5 -44.5 28.5q-15 12 -25.5 18t-22.5 6q-16 0 -25.5 -12t-9.5 -34v-7h-92v28
q0 67 31.5 100.5t81.5 33.5q30 0 50.5 -10t44.5 -29q15 -13 26 -19t23 -6q16 0 25.5 12t9.5 35v7h92v-28q0 -67 -32 -100.5t-81 -33.5q-30 0 -51.5 10.5z" />
    <glyph glyph-name="Umacron" unicode="&#x16a;" horiz-adv-x="687" 
d="M195.5 14q-65.5 32 -103 94t-37.5 148v444h156v-437q0 -77 36 -118.5t97 -41.5t96.5 41.5t35.5 118.5v437h156v-444q0 -86 -37.5 -148t-103 -94t-147.5 -32q-83 0 -148.5 32zM199 892h290v-114h-290v114z" />
    <glyph glyph-name="umacron" unicode="&#x16b;" 
d="M99 37.5q-51 55.5 -51 158.5v354h149v-336q0 -60 24 -89t67 -29q45 0 75 31.5t30 97.5v325h149v-550h-147v73h-2q-24 -46 -64.5 -68.5t-93.5 -22.5q-85 0 -136 55.5zM152 742h290v-114h-290v114z" />
    <glyph glyph-name="Ubreve" unicode="&#x16c;" horiz-adv-x="687" 
d="M195.5 14q-65.5 32 -103 94t-37.5 148v444h156v-437q0 -77 36 -118.5t97 -41.5t96.5 41.5t35.5 118.5v437h156v-444q0 -86 -37.5 -148t-103 -94t-147.5 -32q-83 0 -148.5 32zM225 806.5q-41 43.5 -41 118.5h119q0 -60 41 -60t41 60h119q0 -75 -41 -118.5t-119 -43.5
t-119 43.5z" />
    <glyph glyph-name="ubreve" unicode="&#x16d;" 
d="M99 37.5q-51 55.5 -51 158.5v354h149v-336q0 -60 24 -89t67 -29q45 0 75 31.5t30 97.5v325h149v-550h-147v73h-2q-24 -46 -64.5 -68.5t-93.5 -22.5q-85 0 -136 55.5zM178 656.5q-41 43.5 -41 118.5h119q0 -60 41 -60t41 60h119q0 -75 -41 -118.5t-119 -43.5t-119 43.5z
" />
    <glyph glyph-name="Uring" unicode="&#x16e;" horiz-adv-x="687" 
d="M195.5 14q-65.5 32 -103 94t-37.5 148v444h156v-437q0 -77 36 -118.5t97 -41.5t96.5 41.5t35.5 118.5v437h156v-444q0 -86 -37.5 -148t-103 -94t-147.5 -32q-83 0 -148.5 32zM270 782.5q-29 28.5 -29 70.5q0 43 29 72t73 29q45 0 74 -29t29 -72q0 -42 -29 -70.5
t-74 -28.5q-44 0 -73 28.5zM323 831.5q7 -8.5 20 -8.5t20.5 8.5t7.5 22.5t-7.5 22.5t-20.5 8.5t-20 -8.5t-7 -22.5t7 -22.5z" />
    <glyph glyph-name="uring" unicode="&#x16f;" 
d="M99 37.5q-51 55.5 -51 158.5v354h149v-336q0 -60 24 -89t67 -29q45 0 75 31.5t30 97.5v325h149v-550h-147v73h-2q-24 -46 -64.5 -68.5t-93.5 -22.5q-85 0 -136 55.5zM223 632.5q-29 28.5 -29 70.5q0 43 29 72t73 29q45 0 74 -29t29 -72q0 -42 -29 -70.5t-74 -28.5
q-44 0 -73 28.5zM276 681.5q7 -8.5 20 -8.5t20.5 8.5t7.5 22.5t-7.5 22.5t-20.5 8.5t-20 -8.5t-7 -22.5t7 -22.5z" />
    <glyph glyph-name="Uhungarumlaut" unicode="&#x170;" horiz-adv-x="687" 
d="M195.5 14q-65.5 32 -103 94t-37.5 148v444h156v-437q0 -77 36 -118.5t97 -41.5t96.5 41.5t35.5 118.5v437h156v-444q0 -86 -37.5 -148t-103 -94t-147.5 -32q-83 0 -148.5 32zM452 925h170l-100 -162h-144zM240 925h169l-100 -162h-143z" />
    <glyph glyph-name="uhungarumlaut" unicode="&#x171;" 
d="M99 37.5q-51 55.5 -51 158.5v354h149v-336q0 -60 24 -89t67 -29q45 0 75 31.5t30 97.5v325h149v-550h-147v73h-2q-24 -46 -64.5 -68.5t-93.5 -22.5q-85 0 -136 55.5zM405 775h170l-100 -162h-144zM193 775h169l-100 -162h-143z" />
    <glyph glyph-name="Uogonek" unicode="&#x172;" horiz-adv-x="687" 
d="M453 -163.5q-36 26.5 -36 76.5q0 46 32 84q-48 -15 -105 -15q-83 0 -148.5 32t-103 94t-37.5 148v444h156v-437q0 -77 36 -118.5t97 -41.5t96.5 41.5t35.5 118.5v437h156v-444q0 -75 -28.5 -132t-80.5 -92q-21 -26 -21 -56q0 -28 17.5 -44.5t46.5 -16.5h25v-105h-38
q-64 0 -100 26.5z" />
    <glyph glyph-name="uogonek" unicode="&#x173;" 
d="M99 37.5q-51 55.5 -51 158.5v354h149v-336q0 -60 24 -89t67 -29q45 0 75 31.5t30 97.5v325h149v-550h1h-1q-16 0 -27.5 -11.5t-11.5 -28.5q0 -20 16.5 -32.5t42.5 -12.5h15v-105h-42q-66 0 -100.5 27.5t-34.5 70.5q0 30 15.5 54t43.5 36v2h-64v73h-2q-24 -46 -64.5 -68.5
t-93.5 -22.5q-85 0 -136 55.5z" />
    <glyph glyph-name="Wcircumflex" unicode="&#x174;" horiz-adv-x="942" 
d="M10 700h161l111 -466h2l105 466h166l104 -466h2l110 466h161l-182 -700h-173l-106 503h-2l-105 -503h-173zM404 925h134l107 -162h-136l-37 71h-2l-37 -71h-136z" />
    <glyph glyph-name="wcircumflex" unicode="&#x175;" horiz-adv-x="795" 
d="M7 550h155l84 -356h2l75 356h149l75 -356h2l84 356h155l-158 -550h-156l-77 324h-2l-77 -324h-159zM330 775h134l107 -162h-136l-37 71h-2l-37 -71h-136z" />
    <glyph glyph-name="Ycircumflex" unicode="&#x176;" horiz-adv-x="670" 
d="M257 278l-247 422h180l144 -273h2l144 273h180l-247 -422v-278h-156v278zM268 925h134l107 -162h-136l-37 71h-2l-37 -71h-136z" />
    <glyph glyph-name="ycircumflex" unicode="&#x177;" horiz-adv-x="589" 
d="M7 -83h161l49 113l-210 520h161l127 -335h2l126 335h159l-285 -708q-16 -42 -62 -42h-228v117zM228 775h134l107 -162h-136l-37 71h-2l-37 -71h-136z" />
    <glyph glyph-name="Ydieresis" unicode="&#x178;" horiz-adv-x="670" 
d="M257 278l-247 422h180l144 -273h2l144 273h180l-247 -422v-278h-156v278zM167 917h142v-140h-142v140zM361 917h142v-140h-142v140z" />
    <glyph glyph-name="Zacute" unicode="&#x179;" horiz-adv-x="589" 
d="M14 118l347 456v2h-337v124h541v-114l-347 -456v-2h357v-128h-561v118zM303 925h169l-100 -162h-149z" />
    <glyph glyph-name="zacute" unicode="&#x17a;" horiz-adv-x="505" 
d="M14 108l258 327v1h-238v114h435v-105l-258 -327v-1h280v-117h-477v108zM258 775h169l-100 -162h-149z" />
    <glyph glyph-name="Zdotaccent" unicode="&#x17b;" horiz-adv-x="589" 
d="M14 118l347 456v2h-337v124h541v-114l-347 -456v-2h357v-128h-561v118zM221 917h152v-140h-152v140z" />
    <glyph glyph-name="zdotaccent" unicode="&#x17c;" horiz-adv-x="505" 
d="M14 108l258 327v1h-238v114h435v-105l-258 -327v-1h280v-117h-477v108zM177 767h152v-140h-152v140z" />
    <glyph glyph-name="Zcaron" unicode="&#x17d;" horiz-adv-x="589" 
d="M14 118l347 456v2h-337v124h541v-114l-347 -456v-2h357v-128h-561v118zM123 925h136l37 -54h2l37 54h136l-107 -162h-134z" />
    <glyph glyph-name="zcaron" unicode="&#x17e;" horiz-adv-x="505" 
d="M14 108l258 327v1h-238v114h435v-105l-258 -327v-1h280v-117h-477v108zM79 775h136l37 -54h2l37 54h136l-107 -162h-134z" />
    <glyph glyph-name="longs" unicode="&#x17f;" horiz-adv-x="379" 
d="M90 433h-88v117h88v56q0 84 44.5 129.5t131.5 45.5h110v-117h-61q-36 0 -56 -18.5t-20 -63.5v-582h-149v433z" />
    <glyph glyph-name="uni018F" unicode="&#x18f;" horiz-adv-x="735" 
d="M190 21q-75 39 -118.5 117.5t-43.5 190.5v69h513q-3 95 -50.5 147t-129.5 52q-63 0 -106.5 -30.5t-61.5 -83.5h-159q14 70 59.5 123.5t114.5 82.5t152 29q104 0 182.5 -45t121.5 -128t43 -195t-43.5 -195.5t-122 -128t-181.5 -44.5q-95 0 -170 39zM229 152
q46 -48 131 -48q84 0 129.5 46.5t50.5 127.5h-357q0 -78 46 -126z" />
    <glyph glyph-name="florin" unicode="&#x192;" horiz-adv-x="706" 
d="M24 -89h75q47 0 72.5 20t38.5 67l84 309h-130v117h162l30 109q25 91 71 129t130 38h125v-117h-71q-47 0 -72.5 -20t-38.5 -67l-20 -72h156v-117h-188l-93 -340q-25 -91 -71 -129t-130 -38h-130v111z" />
    <glyph glyph-name="uni019D" unicode="&#x19d;" horiz-adv-x="719" 
d="M-39 -86h38q27 0 41.5 16.5t14.5 46.5v723h190l265 -466h2l-1 120v346h153v-700h-184l-271 472h-2l1 -120v-409q0 -62 -40 -102.5t-102 -40.5h-105v114z" />
    <glyph glyph-name="uni01B7" unicode="&#x1b7;" horiz-adv-x="622" 
d="M106 42.5q-75 60.5 -76 174.5h165q1 -58 33 -90t85 -32q52 0 82.5 30t30.5 82q0 51 -31 79.5t-91 28.5h-94v113l170 153v2h-310v117h492v-115l-181 -162v-2q102 -12 156.5 -70t54.5 -144q0 -67 -33.5 -118t-96.5 -79t-149 -28q-132 0 -207 60.5z" />
    <glyph glyph-name="uni01CF" unicode="&#x1cf;" horiz-adv-x="267" 
d="M55 700h156v-700h-156v700zM-41 925h136l37 -54h2l37 54h136l-107 -162h-134z" />
    <glyph glyph-name="uni01D0" unicode="&#x1d0;" horiz-adv-x="255" 
d="M53 550h149v-550h-149v550zM-46 775h136l37 -54h2l37 54h136l-107 -162h-134z" />
    <glyph glyph-name="uni01D1" unicode="&#x1d1;" horiz-adv-x="752" 
d="M196.5 24.5q-78.5 42.5 -123.5 125.5t-45 200t45 200t123.5 125.5t179.5 42.5q100 0 179 -42.5t124 -125.5t45 -200t-45 -200t-124 -125.5t-179 -42.5q-101 0 -179.5 42.5zM243.5 164.5q48.5 -61.5 132.5 -61.5t132.5 61.5t48.5 185.5t-48.5 185.5t-132.5 61.5
t-132.5 -61.5t-48.5 -185.5t48.5 -185.5zM202 925h136l37 -54h2l37 54h136l-107 -162h-134z" />
    <glyph glyph-name="uni01D2" unicode="&#x1d2;" horiz-adv-x="612" 
d="M162 16q-64 34 -101 100.5t-37 158.5t37 158.5t101 100.5t144 34t144 -34t101 -100.5t37 -158.5t-37 -158.5t-101 -100.5t-144 -34t-144 34zM215 141q32 -46 91 -46t91 46t32 134t-32 134t-91 46t-91 -46t-32 -134t32 -134zM132 775h136l37 -54h2l37 54h136l-107 -162
h-134z" />
    <glyph glyph-name="uni01D3" unicode="&#x1d3;" horiz-adv-x="687" 
d="M195.5 14q-65.5 32 -103 94t-37.5 148v444h156v-437q0 -77 36 -118.5t97 -41.5t96.5 41.5t35.5 118.5v437h156v-444q0 -86 -37.5 -148t-103 -94t-147.5 -32q-83 0 -148.5 32zM170 925h136l37 -54h2l37 54h136l-107 -162h-134z" />
    <glyph glyph-name="uni01D4" unicode="&#x1d4;" 
d="M99 37.5q-51 55.5 -51 158.5v354h149v-336q0 -60 24 -89t67 -29q45 0 75 31.5t30 97.5v325h149v-550h-147v73h-2q-24 -46 -64.5 -68.5t-93.5 -22.5q-85 0 -136 55.5zM123 775h136l37 -54h2l37 54h136l-107 -162h-134z" />
    <glyph glyph-name="uni01E4" unicode="&#x1e4;" horiz-adv-x="744" 
d="M182 27.5q-73 45.5 -113.5 129.5t-40.5 194q0 109 41 192t120.5 129t189.5 46q94 0 163 -32.5t107.5 -88.5t44.5 -125h-159q-6 54 -47.5 89.5t-108.5 35.5q-86 0 -135 -63t-49 -183q0 -123 51 -185.5t141 -62.5q52 0 94 22t67 66h-180v83h207q3 24 3 50h-216v84h279
q26 0 40.5 -14t14.5 -39v-81h45v-83h-45v-191h-134l16 117h-2q-30 -66 -88 -100.5t-139 -34.5q-94 0 -167 45.5z" />
    <glyph glyph-name="uni01E5" unicode="&#x1e5;" horiz-adv-x="574" 
d="M57 -169q-39 31 -39 83q0 39 23 66.5t68 36.5v2q-31 14 -48 39t-17 60q0 39 23.5 65.5t59.5 32.5l13 2v2q-48 21 -75.5 61.5t-27.5 95.5q0 60 31 103t83.5 65.5t115.5 22.5q62 0 113 -22.5t82 -62.5h3q2 32 19 49.5t47 17.5h29v-83h-46q-15 0 -20.5 -6.5t-6.5 -23.5
q3 -9 7 -27h66v-81h-69q-16 -67 -75.5 -104.5t-142.5 -37.5h-55q-45 0 -45 -31q0 -32 45 -32h160q89 0 138 -43t49 -118q0 -76 -49.5 -119.5t-137.5 -43.5h-205q-77 0 -116 31zM158.5 -88q17.5 -15 52.5 -15h139q33 0 51 15t18 42t-18 42t-51 15h-139q-34 0 -52 -15.5
t-18 -42.5q0 -26 17.5 -41zM199.5 296.5q23.5 -24.5 67.5 -24.5q33 0 55.5 14.5t30.5 42.5h-86v81h87q-18 57 -87 57q-43 0 -67 -24.5t-24 -72.5q0 -49 23.5 -73.5z" />
    <glyph glyph-name="Gcaron" unicode="&#x1e6;" horiz-adv-x="743" 
d="M185.5 28q-73.5 46 -115.5 129.5t-42 193.5q0 108 41.5 191.5t119 129.5t183.5 46q96 0 168 -38t111 -103t43 -145h-159q-2 46 -22.5 83.5t-57 59.5t-83.5 22q-84 0 -130.5 -63t-46.5 -183q0 -121 49.5 -184.5t131.5 -63.5q68 0 112.5 40t54.5 98h-181v114h279
q26 0 40.5 -14t14.5 -39v-302h-134l16 117h-2q-30 -66 -88 -100.5t-137 -34.5q-92 0 -165.5 46zM198 925h136l37 -54h2l37 54h136l-107 -162h-134z" />
    <glyph glyph-name="gcaron" unicode="&#x1e7;" horiz-adv-x="574" 
d="M57 -169q-39 31 -39 83q0 39 23 66.5t68 36.5v2q-31 14 -48 39t-17 60q0 39 23.5 65.5t59.5 32.5l13 2v2q-48 21 -75.5 61.5t-27.5 95.5q0 60 31 103t83.5 65.5t115.5 22.5q62 0 113 -22.5t82 -62.5h3q2 32 19 49.5t47 17.5h29v-117h-40q-13 0 -18.5 -5t-7.5 -17
q3 -16 3 -34q0 -58 -29 -101t-80 -66t-115 -23h-55q-45 0 -45 -31q0 -32 45 -32h160q89 0 138 -43t49 -118q0 -76 -49.5 -119.5t-137.5 -43.5h-205q-77 0 -116 31zM158.5 -88q17.5 -15 52.5 -15h139q33 0 51 15t18 42t-18 42t-51 15h-139q-34 0 -52 -15.5t-18 -42.5
q0 -26 17.5 -41zM201.5 306q25.5 -22 65.5 -22t66 22t26 64q0 41 -26 63t-66 22t-65.5 -22t-25.5 -63q0 -42 25.5 -64zM93 775h136l37 -54h2l37 54h136l-107 -162h-134z" />
    <glyph glyph-name="uni01EA" unicode="&#x1ea;" horiz-adv-x="752" 
d="M504 -163.5q-36 26.5 -36 76.5q0 47 35 87v2q-60 -20 -127 -20q-101 0 -179.5 42.5t-123.5 125.5t-45 200t45 200t123.5 125.5t179.5 42.5q100 0 179 -42.5t124 -125.5t45 -200q0 -102 -34.5 -178.5t-97.5 -123.5q-38 -29 -38 -72q0 -29 17 -45t47 -16h24v-105h-38
q-64 0 -100 26.5zM243.5 164.5q48.5 -61.5 132.5 -61.5t132.5 61.5t48.5 185.5t-48.5 185.5t-132.5 61.5t-132.5 -61.5t-48.5 -185.5t48.5 -185.5z" />
    <glyph glyph-name="uni01EB" unicode="&#x1eb;" horiz-adv-x="612" 
d="M411 -163q-38 27 -38 76q0 47 33 83v1q-46 -15 -100 -15q-80 0 -144 34t-101 100.5t-37 158.5t37 158.5t101 100.5t144 34t144 -34t101 -100.5t37 -158.5q0 -79 -27.5 -138.5t-76.5 -97.5q-34 -32 -34 -67q0 -28 18 -42.5t48 -14.5h15v-105h-16q-66 0 -104 27zM215 141
q32 -46 91 -46t91 46t32 134t-32 134t-91 46t-91 -46t-32 -134t32 -134z" />
    <glyph glyph-name="AEacute" unicode="&#x1fc;" horiz-adv-x="975" 
d="M476 168h-237l-70 -168h-154l303 700h633v-115h-318v-173h279v-115h-279v-182h319v-115h-476v168zM476 283v302h-65l-125 -302h190zM566 925h169l-100 -162h-149z" />
    <glyph glyph-name="aeacute" unicode="&#x1fd;" horiz-adv-x="953" 
d="M81 27.5q-56 45.5 -56 132.5q0 88 59 131.5t148 43.5h94q76 0 76 55q0 32 -25.5 48.5t-65.5 16.5q-49 0 -78 -22t-31 -61h-158q6 92 69.5 144t179.5 52q73 0 118 -21.5t70 -64.5h2q32 43 81 64.5t109 21.5q75 0 133 -31t91 -93t33 -152v-57h-379q1 -65 33.5 -102.5
t86.5 -37.5q39 0 64.5 19.5t37.5 54.5h152q-18 -85 -87.5 -136t-165.5 -51q-78 0 -139.5 35t-92.5 102h-2q-28 -66 -85.5 -101.5t-130.5 -35.5q-85 0 -141 45.5zM206.5 118q22.5 -19 63.5 -19q55 0 93.5 35.5t38.5 107.5v44h-2q-11 -23 -34 -34.5t-62 -14.5l-41 -3
q-38 -2 -58.5 -19.5t-20.5 -46.5q0 -31 22.5 -50zM781 336q0 54 -28.5 86.5t-81.5 32.5q-54 0 -85 -33t-34 -86h229zM482 775h169l-100 -162h-149z" />
    <glyph glyph-name="Oslashacute" unicode="&#x1fe;" horiz-adv-x="753" 
d="M644 604q81 -97 81 -254q0 -117 -45 -200t-124 -125.5t-179 -42.5q-115 0 -201 55l-31 -37h-117v2l80 97q-79 96 -79 251q0 117 45 200t123.5 125.5t179.5 42.5q114 0 197 -53l29 35h118v-2zM213 227l274 332q-44 38 -110 38q-84 0 -132.5 -61.5t-48.5 -185.5
q0 -72 17 -123zM377 103q84 0 132.5 61.5t48.5 185.5q0 73 -19 128l-275 -334q44 -41 113 -41zM382 925h169l-100 -162h-149z" />
    <glyph glyph-name="oslashacute" unicode="&#x1ff;" horiz-adv-x="615" 
d="M28 2l62 76q-63 78 -63 197q0 92 37 158.5t101 100.5t144 34q87 0 153 -39l17 21h106v-2l-60 -73q32 -37 49 -87.5t17 -112.5q0 -92 -37 -158.5t-101 -100.5t-144 -34q-89 0 -157 42l-19 -24h-105v2zM193 202l188 228q-28 25 -72 25q-59 0 -91 -46t-32 -134q0 -42 7 -73z
M309 95q59 0 91 46t32 134q0 41 -8 78l-190 -231q30 -27 75 -27zM314 775h169l-100 -162h-149z" />
    <glyph glyph-name="uni0218" unicode="&#x218;" horiz-adv-x="670" 
d="M112.5 50.5q-79.5 68.5 -81.5 191.5h166q1 -69 38.5 -104t104.5 -35q62 0 98 29t36 78q0 41 -28 64.5t-86 23.5h-88q-114 0 -172.5 52.5t-58.5 142.5q0 104 76.5 164.5t217.5 60.5q144 0 218.5 -65t76.5 -181h-162q-1 63 -35 94t-100 31q-62 0 -96 -25t-34 -69
q0 -37 26 -58.5t81 -21.5h88q123 0 182.5 -56t59.5 -147q0 -72 -36 -125.5t-104 -83t-162 -29.5q-146 0 -225.5 68.5zM317 -220q20 15 20 40v5h-76v127h148v-130q0 -60 -41 -94.5t-107 -34.5v72q36 0 56 15z" />
    <glyph glyph-name="uni0219" unicode="&#x219;" horiz-adv-x="556" 
d="M93 35.5q-65 53.5 -67 146.5h154q1 -44 26.5 -65.5t71.5 -21.5q45 0 68.5 19t23.5 52q0 30 -21.5 46.5t-66.5 16.5h-60q-88 0 -137 43t-49 115q0 54 29 95t83.5 63.5t127.5 22.5q115 0 178 -53t65 -143h-150q-1 41 -24 62t-67 21q-40 0 -62.5 -16.5t-22.5 -45.5
q0 -28 19.5 -42t56.5 -14h66q98 0 146 -46t48 -120q0 -86 -65 -137.5t-185 -51.5q-121 0 -186 53.5zM259 -220q20 15 20 40v5h-76v127h148v-130q0 -60 -41 -94.5t-107 -34.5v72q36 0 56 15z" />
    <glyph glyph-name="uni021A" unicode="&#x21a;" horiz-adv-x="623" 
d="M233 579h-221v121h599v-121h-222v-579h-156v579zM294 -220q20 15 20 40v5h-76v127h148v-130q0 -60 -41 -94.5t-107 -34.5v72q36 0 56 15z" />
    <glyph glyph-name="uni021B" unicode="&#x21b;" horiz-adv-x="441" 
d="M115 151v282h-104v117h104v150h148v-150h162v-117h-162v-251q0 -34 16.5 -49.5t49.5 -15.5h98v-117h-160q-152 0 -152 151zM253 -220q20 15 20 40v5h-76v127h148v-130q0 -60 -41 -94.5t-107 -34.5v72q36 0 56 15z" />
    <glyph glyph-name="uni0232" unicode="&#x232;" horiz-adv-x="670" 
d="M257 278l-247 422h180l144 -273h2l144 273h180l-247 -422v-278h-156v278zM190 892h290v-114h-290v114z" />
    <glyph glyph-name="uni0233" unicode="&#x233;" horiz-adv-x="589" 
d="M7 -83h161l49 113l-210 520h161l127 -335h2l126 335h159l-285 -708q-16 -42 -62 -42h-228v117zM150 742h290v-114h-290v114z" />
    <glyph glyph-name="uni0237" unicode="&#x237;" horiz-adv-x="255" 
d="M-41 -86h38q27 0 41.5 16.5t14.5 46.5v573h148v-607q0 -62 -40 -102.5t-102 -40.5h-100v114z" />
    <glyph glyph-name="uni0259" unicode="&#x259;" horiz-adv-x="588" 
d="M151.5 13q-59.5 31 -93.5 93t-34 152v57h382q-1 65 -33.5 102t-86.5 37q-39 0 -67 -19.5t-39 -53.5h-151q17 85 88 136t169 51q84 0 147 -35.5t97.5 -102t34.5 -155.5q0 -90 -35 -156t-98 -101.5t-145 -35.5q-76 0 -135.5 31zM202.5 129q30.5 -33 84.5 -33
q55 0 84.5 32.5t32.5 85.5h-232q0 -52 30.5 -85z" />
    <glyph glyph-name="uni0272" unicode="&#x272;" horiz-adv-x="601" 
d="M-41 -86h38q27 0 41.5 16.5t14.5 46.5v573h147v-73h2q25 45 66.5 68t94.5 23q85 0 136 -55.5t51 -158.5v-354h-149v335q0 60 -24.5 89.5t-68.5 29.5q-45 0 -75.5 -31.5t-30.5 -97.5v-382q0 -62 -40 -102.5t-102 -40.5h-101v114z" />
    <glyph glyph-name="uni0292" unicode="&#x292;" horiz-adv-x="589" 
d="M101.5 -154.5q-72.5 63.5 -73.5 181.5h160q0 -63 29.5 -97.5t78.5 -34.5q48 0 77 34t29 93q0 58 -28.5 90.5t-83.5 32.5h-99v113l186 173v2h-331v117h502v-117l-197 -180v-2q104 -12 157 -74t53 -155q0 -72 -32 -126t-91.5 -84t-141.5 -30q-122 0 -194.5 63.5z" />
    <glyph glyph-name="circumflex" unicode="&#x2c6;" horiz-adv-x="382" 
d="M124 775h134l107 -162h-136l-37 71h-2l-37 -71h-136z" />
    <glyph glyph-name="caron" unicode="&#x2c7;" horiz-adv-x="383" 
d="M17 775h136l37 -54h2l37 54h136l-107 -162h-134z" />
    <glyph glyph-name="breve" unicode="&#x2d8;" horiz-adv-x="354" 
d="M58 656.5q-41 43.5 -41 118.5h119q0 -60 41 -60t41 60h119q0 -75 -41 -118.5t-119 -43.5t-119 43.5z" />
    <glyph glyph-name="dotaccent" unicode="&#x2d9;" horiz-adv-x="186" 
d="M23 767h152v-140h-152v140z" />
    <glyph glyph-name="ring" unicode="&#x2da;" horiz-adv-x="239" 
d="M46 632.5q-29 28.5 -29 70.5q0 43 29 72t73 29q45 0 74 -29t29 -72q0 -42 -29 -70.5t-74 -28.5q-44 0 -73 28.5zM99 681.5q7 -8.5 20 -8.5t20.5 8.5t7.5 22.5t-7.5 22.5t-20.5 8.5t-20 -8.5t-7 -22.5t7 -22.5z" />
    <glyph glyph-name="ogonek" unicode="&#x2db;" horiz-adv-x="201" 
d="M193 -85v-105h-42q-66 0 -100.5 27.5t-34.5 70.5q0 30 15.5 54t43.5 36v11h44l40 -9h-1q-16 0 -27.5 -11.5t-11.5 -28.5q0 -20 16.5 -32.5t42.5 -12.5h15z" />
    <glyph glyph-name="tilde" unicode="&#x2dc;" horiz-adv-x="461" 
d="M239.5 618.5q-21.5 10.5 -44.5 28.5q-15 12 -25.5 18t-22.5 6q-16 0 -25.5 -12t-9.5 -34v-7h-92v28q0 67 31.5 100.5t81.5 33.5q30 0 50.5 -10t44.5 -29q15 -13 26 -19t23 -6q16 0 25.5 12t9.5 35v7h92v-28q0 -67 -32 -100.5t-81 -33.5q-30 0 -51.5 10.5z" />
    <glyph glyph-name="hungarumlaut" unicode="&#x2dd;" horiz-adv-x="491" 
d="M303 775h170l-100 -162h-144zM91 775h169l-100 -162h-143z" />
    <glyph glyph-name="gravecomb" unicode="&#x300;" horiz-adv-x="0" 
d="M13 775h169l80 -162h-147z" />
    <glyph glyph-name="acutecomb" unicode="&#x301;" horiz-adv-x="0" 
d="M93 775h169l-100 -162h-149z" />
    <glyph glyph-name="uni0302" unicode="&#x302;" horiz-adv-x="0" 
d="M124 775h134l107 -162h-136l-37 71h-2l-37 -71h-136z" />
    <glyph glyph-name="tildecomb" unicode="&#x303;" horiz-adv-x="0" 
d="M239.5 618.5q-21.5 10.5 -44.5 28.5q-15 12 -25.5 18t-22.5 6q-16 0 -25.5 -12t-9.5 -34v-7h-92v28q0 67 31.5 100.5t81.5 33.5q30 0 50.5 -10t44.5 -29q15 -13 26 -19t23 -6q16 0 25.5 12t9.5 35v7h92v-28q0 -67 -32 -100.5t-81 -33.5q-30 0 -51.5 10.5z" />
    <glyph glyph-name="uni0304" unicode="&#x304;" horiz-adv-x="0" 
d="M17 742h290v-114h-290v114z" />
    <glyph glyph-name="uni0306" unicode="&#x306;" horiz-adv-x="0" 
d="M58 656.5q-41 43.5 -41 118.5h119q0 -60 41 -60t41 60h119q0 -75 -41 -118.5t-119 -43.5t-119 43.5z" />
    <glyph glyph-name="uni0307" unicode="&#x307;" horiz-adv-x="0" 
d="M23 767h152v-140h-152v140z" />
    <glyph glyph-name="uni0308" unicode="&#x308;" horiz-adv-x="0" 
d="M21 767h142v-140h-142v140zM215 767h142v-140h-142v140z" />
    <glyph glyph-name="uni030A" unicode="&#x30a;" horiz-adv-x="0" 
d="M46 632.5q-29 28.5 -29 70.5q0 43 29 72t73 29q45 0 74 -29t29 -72q0 -42 -29 -70.5t-74 -28.5q-44 0 -73 28.5zM99 681.5q7 -8.5 20 -8.5t20.5 8.5t7.5 22.5t-7.5 22.5t-20.5 8.5t-20 -8.5t-7 -22.5t7 -22.5z" />
    <glyph glyph-name="uni030B" unicode="&#x30b;" horiz-adv-x="0" 
d="M303 775h170l-100 -162h-144zM91 775h169l-100 -162h-143z" />
    <glyph glyph-name="uni030C" unicode="&#x30c;" horiz-adv-x="0" 
d="M17 775h136l37 -54h2l37 54h136l-107 -162h-134z" />
    <glyph glyph-name="uni0312" unicode="&#x312;" horiz-adv-x="0" 
d="M127 786q-20 -15 -20 -41v-4h76v-128h-148v130q0 60 41 95t107 35v-72q-36 0 -56 -15z" />
    <glyph glyph-name="uni0326" unicode="&#x326;" horiz-adv-x="0" 
d="M84 -220q20 15 20 40v5h-76v127h148v-130q0 -60 -41 -94.5t-107 -34.5v72q36 0 56 15z" />
    <glyph glyph-name="uni0327" unicode="&#x327;" horiz-adv-x="0" 
d="M14 -196v89h79q9 0 15.5 5t6.5 14q0 10 -6 15t-16 5h-27v101h87v-70q36 -4 54.5 -23.5t18.5 -51.5q0 -37 -25 -60.5t-69 -23.5h-118z" />
    <glyph glyph-name="uni0328" unicode="&#x328;" horiz-adv-x="0" 
d="M193 -85v-105h-42q-66 0 -100.5 27.5t-34.5 70.5q0 30 15.5 54t43.5 36v11h44l40 -9h-1q-16 0 -27.5 -11.5t-11.5 -28.5q0 -20 16.5 -32.5t42.5 -12.5h15z" />
    <glyph glyph-name="uni0394" unicode="&#x394;" horiz-adv-x="681" 
d="M18 113l229 587h187l229 -587v-113h-645v113zM503 114v2l-163 434l-163 -434v-2h326z" />
    <glyph glyph-name="uni03A9" unicode="&#x3a9;" horiz-adv-x="738" 
d="M46 117h147v2q-80 44 -122.5 116.5t-42.5 161.5q0 91 42 164t119.5 115t179.5 42t179.5 -42t119.5 -115t42 -164q0 -89 -42.5 -161.5t-122.5 -116.5v-2h147v-117h-278v118q67 38 101 105t34 155q0 71 -23 122t-64 77.5t-93 25.5q-52 1 -93 -25.5t-64.5 -77.5t-23.5 -122
q0 -88 34.5 -155t101.5 -105v-118h-278v117z" />
    <glyph glyph-name="uni03BC" unicode="&#x3bc;" horiz-adv-x="614" 
d="M53 550h149v-353q0 -50 25 -75.5t64 -25.5q44 0 74 31t30 93v330h148v-395q0 -21 9 -29.5t30 -8.5h22v-117h-106q-48 0 -73 21t-25 61v10h-2q-14 -52 -47.5 -79t-77.5 -27q-42 0 -71 23v-198h-149v739z" />
    <glyph glyph-name="pi" unicode="&#x3c0;" horiz-adv-x="582" 
d="M87 433h-75v117h558v-117h-76v-278q0 -21 9 -29.5t30 -8.5h24v-117h-113q-99 0 -99 97v336h-108v-433h-150v433z" />
    <glyph glyph-name="uni1E20" unicode="&#x1e20;" horiz-adv-x="743" 
d="M185.5 28q-73.5 46 -115.5 129.5t-42 193.5q0 108 41.5 191.5t119 129.5t183.5 46q96 0 168 -38t111 -103t43 -145h-159q-2 46 -22.5 83.5t-57 59.5t-83.5 22q-84 0 -130.5 -63t-46.5 -183q0 -121 49.5 -184.5t131.5 -63.5q68 0 112.5 40t54.5 98h-181v114h279
q26 0 40.5 -14t14.5 -39v-302h-134l16 117h-2q-30 -66 -88 -100.5t-137 -34.5q-92 0 -165.5 46zM227 892h290v-114h-290v114z" />
    <glyph glyph-name="uni1E21" unicode="&#x1e21;" horiz-adv-x="574" 
d="M57 -169q-39 31 -39 83q0 39 23 66.5t68 36.5v2q-31 14 -48 39t-17 60q0 39 23.5 65.5t59.5 32.5l13 2v2q-48 21 -75.5 61.5t-27.5 95.5q0 60 31 103t83.5 65.5t115.5 22.5q62 0 113 -22.5t82 -62.5h3q2 32 19 49.5t47 17.5h29v-117h-40q-13 0 -18.5 -5t-7.5 -17
q3 -16 3 -34q0 -58 -29 -101t-80 -66t-115 -23h-55q-45 0 -45 -31q0 -32 45 -32h160q89 0 138 -43t49 -118q0 -76 -49.5 -119.5t-137.5 -43.5h-205q-77 0 -116 31zM158.5 -88q17.5 -15 52.5 -15h139q33 0 51 15t18 42t-18 42t-51 15h-139q-34 0 -52 -15.5t-18 -42.5
q0 -26 17.5 -41zM201.5 306q25.5 -22 65.5 -22t66 22t26 64q0 41 -26 63t-66 22t-65.5 -22t-25.5 -63q0 -42 25.5 -64zM122 742h290v-114h-290v114z" />
    <glyph glyph-name="Wgrave" unicode="&#x1e80;" horiz-adv-x="942" 
d="M10 700h161l111 -466h2l105 466h166l104 -466h2l110 466h161l-182 -700h-173l-106 503h-2l-105 -503h-173zM295 925h169l80 -162h-147z" />
    <glyph glyph-name="wgrave" unicode="&#x1e81;" horiz-adv-x="795" 
d="M7 550h155l84 -356h2l75 356h149l75 -356h2l84 356h155l-158 -550h-156l-77 324h-2l-77 -324h-159zM221 775h169l80 -162h-147z" />
    <glyph glyph-name="Wacute" unicode="&#x1e82;" horiz-adv-x="942" 
d="M10 700h161l111 -466h2l105 466h166l104 -466h2l110 466h161l-182 -700h-173l-106 503h-2l-105 -503h-173zM477 925h169l-100 -162h-149z" />
    <glyph glyph-name="wacute" unicode="&#x1e83;" horiz-adv-x="795" 
d="M7 550h155l84 -356h2l75 356h149l75 -356h2l84 356h155l-158 -550h-156l-77 324h-2l-77 -324h-159zM402 775h169l-100 -162h-149z" />
    <glyph glyph-name="Wdieresis" unicode="&#x1e84;" horiz-adv-x="942" 
d="M10 700h161l111 -466h2l105 466h166l104 -466h2l110 466h161l-182 -700h-173l-106 503h-2l-105 -503h-173zM303 917h142v-140h-142v140zM497 917h142v-140h-142v140z" />
    <glyph glyph-name="wdieresis" unicode="&#x1e85;" horiz-adv-x="795" 
d="M7 550h155l84 -356h2l75 356h149l75 -356h2l84 356h155l-158 -550h-156l-77 324h-2l-77 -324h-159zM229 767h142v-140h-142v140zM423 767h142v-140h-142v140z" />
    <glyph glyph-name="uni1E9E" unicode="&#x1e9e;" horiz-adv-x="932" 
d="M438 14q-69 32 -108 90.5t-42 137.5h163q1 -69 42 -104t108 -35q65 0 99 29.5t34 76.5q0 41 -28 65.5t-84 24.5h-89q-107 0 -164 45.5t-57 119.5q0 67 46 113v2h-67q-80 0 -80 -84v-495h-156v533q0 78 44.5 122.5t128.5 44.5h618v-121h-274q-46 0 -71.5 -22t-25.5 -58
q0 -37 28 -57.5t77 -20.5h83q76 0 129.5 -26.5t81 -72.5t27.5 -103q0 -68 -37.5 -122t-106 -84.5t-158.5 -30.5q-92 0 -161 32z" />
    <glyph glyph-name="uni1EA0" unicode="&#x1ea0;" horiz-adv-x="715" 
d="M279 700h157l264 -700h-167l-50 148h-254l-51 -148h-163zM441 269l-24 71q-39 113 -61 201h-1q-22 -86 -63 -208l-22 -64h171zM278 -59h155v-132h-155v132z" />
    <glyph glyph-name="uni1EA1" unicode="&#x1ea1;" horiz-adv-x="616" 
d="M329 10.5q-49 -28.5 -113 -28.5q-84 0 -137.5 46.5t-53.5 130.5q0 89 59.5 132.5t149.5 43.5h90q76 0 76 55q0 32 -25 48.5t-66 16.5q-49 0 -76 -22t-29 -61h-158q6 93 69.5 144.5t188.5 51.5q127 0 186 -52t59 -142v-219q0 -21 8.5 -29.5t29.5 -8.5h19v-117h-102
q-49 0 -74 21t-25 61v13h-2q-25 -56 -74 -84.5zM205 118q21 -19 62 -19q56 0 94.5 35t38.5 108v45h-2q-11 -23 -34 -35t-62 -15l-37 -3q-40 -2 -60.5 -19.5t-20.5 -47.5t21 -49zM231 -59h155v-132h-155v132z" />
    <glyph glyph-name="uni1EAC" unicode="&#x1eac;" horiz-adv-x="715" 
d="M279 700h157l264 -700h-167l-50 148h-254l-51 -148h-163zM288 925h134l107 -162h-136l-37 71h-2l-37 -71h-136zM441 269l-24 71q-39 113 -61 201h-1q-22 -86 -63 -208l-22 -64h171zM278 -59h155v-132h-155v132z" />
    <glyph glyph-name="uni1EAD" unicode="&#x1ead;" horiz-adv-x="616" 
d="M329 10.5q-49 -28.5 -113 -28.5q-84 0 -137.5 46.5t-53.5 130.5q0 89 59.5 132.5t149.5 43.5h90q76 0 76 55q0 32 -25 48.5t-66 16.5q-49 0 -76 -22t-29 -61h-158q6 93 69.5 144.5t188.5 51.5q127 0 186 -52t59 -142v-219q0 -21 8.5 -29.5t29.5 -8.5h19v-117h-102
q-49 0 -74 21t-25 61v13h-2q-25 -56 -74 -84.5zM239 775h134l107 -162h-136l-37 71h-2l-37 -71h-136zM205 118q21 -19 62 -19q56 0 94.5 35t38.5 108v45h-2q-11 -23 -34 -35t-62 -15l-37 -3q-40 -2 -60.5 -19.5t-20.5 -47.5t21 -49zM231 -59h155v-132h-155v132z" />
    <glyph glyph-name="uni1EB8" unicode="&#x1eb8;" horiz-adv-x="585" 
d="M55 700h506v-115h-349v-173h310v-115h-310v-182h350v-115h-507v700zM233 -59h155v-132h-155v132z" />
    <glyph glyph-name="uni1EB9" unicode="&#x1eb9;" horiz-adv-x="586" 
d="M154 16.5q-62 34.5 -96 100.5t-34 158t34.5 158t96.5 100.5t142 34.5q78 0 138.5 -31t95 -93t34.5 -152v-57h-383q2 -65 34 -102.5t85 -37.5q39 0 65.5 19.5t37.5 54.5h152q-18 -85 -87 -136t-171 -51q-82 0 -144 34.5zM416 336q0 53 -29.5 86t-84.5 33t-85.5 -33
t-33.5 -86h233zM218 -59h155v-132h-155v132z" />
    <glyph glyph-name="uni1EBC" unicode="&#x1ebc;" horiz-adv-x="585" 
d="M55 700h506v-115h-349v-173h310v-115h-310v-182h350v-115h-507v700zM338.5 768.5q-21.5 10.5 -44.5 28.5q-15 12 -25.5 18t-22.5 6q-16 0 -25.5 -12t-9.5 -34v-7h-92v28q0 67 31.5 100.5t81.5 33.5q30 0 50.5 -10t44.5 -29q15 -13 26 -19t23 -6q16 0 25.5 12t9.5 35v7h92
v-28q0 -67 -32 -100.5t-81 -33.5q-30 0 -51.5 10.5z" />
    <glyph glyph-name="uni1EBD" unicode="&#x1ebd;" horiz-adv-x="586" 
d="M154 16.5q-62 34.5 -96 100.5t-34 158t34.5 158t96.5 100.5t142 34.5q78 0 138.5 -31t95 -93t34.5 -152v-57h-383q2 -65 34 -102.5t85 -37.5q39 0 65.5 19.5t37.5 54.5h152q-18 -85 -87 -136t-171 -51q-82 0 -144 34.5zM416 336q0 53 -29.5 86t-84.5 33t-85.5 -33
t-33.5 -86h233zM323.5 618.5q-21.5 10.5 -44.5 28.5q-15 12 -25.5 18t-22.5 6q-16 0 -25.5 -12t-9.5 -34v-7h-92v28q0 67 31.5 100.5t81.5 33.5q30 0 50.5 -10t44.5 -29q15 -13 26 -19t23 -6q16 0 25.5 12t9.5 35v7h92v-28q0 -67 -32 -100.5t-81 -33.5q-30 0 -51.5 10.5z
" />
    <glyph glyph-name="uni1ECA" unicode="&#x1eca;" horiz-adv-x="267" 
d="M55 700h156v-700h-156v700zM56 -59h155v-132h-155v132z" />
    <glyph glyph-name="uni1ECB" unicode="&#x1ecb;" horiz-adv-x="255" 
d="M53 550h149v-550h-149v550zM37 -59h155v-132h-155v132zM52 767h152v-140h-152v140z" />
    <glyph glyph-name="uni1ECC" unicode="&#x1ecc;" horiz-adv-x="752" 
d="M196.5 24.5q-78.5 42.5 -123.5 125.5t-45 200t45 200t123.5 125.5t179.5 42.5q100 0 179 -42.5t124 -125.5t45 -200t-45 -200t-124 -125.5t-179 -42.5q-101 0 -179.5 42.5zM243.5 164.5q48.5 -61.5 132.5 -61.5t132.5 61.5t48.5 185.5t-48.5 185.5t-132.5 61.5
t-132.5 -61.5t-48.5 -185.5t48.5 -185.5zM298 -59h155v-132h-155v132z" />
    <glyph glyph-name="uni1ECD" unicode="&#x1ecd;" horiz-adv-x="612" 
d="M162 16q-64 34 -101 100.5t-37 158.5t37 158.5t101 100.5t144 34t144 -34t101 -100.5t37 -158.5t-37 -158.5t-101 -100.5t-144 -34t-144 34zM215 141q32 -46 91 -46t91 46t32 134t-32 134t-91 46t-91 -46t-32 -134t32 -134zM228 -59h155v-132h-155v132z" />
    <glyph glyph-name="uni1EE4" unicode="&#x1ee4;" horiz-adv-x="687" 
d="M195.5 14q-65.5 32 -103 94t-37.5 148v444h156v-437q0 -77 36 -118.5t97 -41.5t96.5 41.5t35.5 118.5v437h156v-444q0 -86 -37.5 -148t-103 -94t-147.5 -32q-83 0 -148.5 32zM266 -59h155v-132h-155v132z" />
    <glyph glyph-name="uni1EE5" unicode="&#x1ee5;" 
d="M99 37.5q-51 55.5 -51 158.5v354h149v-336q0 -60 24 -89t67 -29q45 0 75 31.5t30 97.5v325h149v-550h-147v73h-2q-24 -46 -64.5 -68.5t-93.5 -22.5q-85 0 -136 55.5zM221 -59h155v-132h-155v132z" />
    <glyph glyph-name="Ygrave" unicode="&#x1ef2;" horiz-adv-x="670" 
d="M257 278l-247 422h180l144 -273h2l144 273h180l-247 -422v-278h-156v278zM159 925h169l80 -162h-147z" />
    <glyph glyph-name="ygrave" unicode="&#x1ef3;" horiz-adv-x="589" 
d="M7 -83h161l49 113l-210 520h161l127 -335h2l126 335h159l-285 -708q-16 -42 -62 -42h-228v117zM119 775h169l80 -162h-147z" />
    <glyph glyph-name="uni1EF8" unicode="&#x1ef8;" horiz-adv-x="670" 
d="M257 278l-247 422h180l144 -273h2l144 273h180l-247 -422v-278h-156v278zM362.5 768.5q-21.5 10.5 -44.5 28.5q-15 12 -25.5 18t-22.5 6q-16 0 -25.5 -12t-9.5 -34v-7h-92v28q0 67 31.5 100.5t81.5 33.5q30 0 50.5 -10t44.5 -29q15 -13 26 -19t23 -6q16 0 25.5 12t9.5 35
v7h92v-28q0 -67 -32 -100.5t-81 -33.5q-30 0 -51.5 10.5z" />
    <glyph glyph-name="uni1EF9" unicode="&#x1ef9;" horiz-adv-x="589" 
d="M7 -83h161l49 113l-210 520h161l127 -335h2l126 335h159l-285 -708q-16 -42 -62 -42h-228v117zM322.5 618.5q-21.5 10.5 -44.5 28.5q-15 12 -25.5 18t-22.5 6q-16 0 -25.5 -12t-9.5 -34v-7h-92v28q0 67 31.5 100.5t81.5 33.5q30 0 50.5 -10t44.5 -29q15 -13 26 -19t23 -6
q16 0 25.5 12t9.5 35v7h92v-28q0 -67 -32 -100.5t-81 -33.5q-30 0 -51.5 10.5z" />
    <glyph glyph-name="uni2000" unicode="&#x2000;" horiz-adv-x="500" 
 />
    <glyph glyph-name="uni2001" unicode="&#x2001;" horiz-adv-x="1000" 
 />
    <glyph glyph-name="uni2002" unicode="&#x2002;" horiz-adv-x="500" 
 />
    <glyph glyph-name="uni2003" unicode="&#x2003;" horiz-adv-x="1000" 
 />
    <glyph glyph-name="uni2004" unicode="&#x2004;" horiz-adv-x="333" 
 />
    <glyph glyph-name="uni2005" unicode="&#x2005;" horiz-adv-x="250" 
 />
    <glyph glyph-name="uni2006" unicode="&#x2006;" horiz-adv-x="166" 
 />
    <glyph glyph-name="uni2007" unicode="&#x2007;" horiz-adv-x="700" 
 />
    <glyph glyph-name="uni2008" unicode="&#x2008;" horiz-adv-x="271" 
 />
    <glyph glyph-name="uni2009" unicode="&#x2009;" horiz-adv-x="125" 
 />
    <glyph glyph-name="uni200A" unicode="&#x200a;" horiz-adv-x="70" 
 />
    <glyph glyph-name="uni200B" unicode="&#x200b;" horiz-adv-x="0" 
 />
    <glyph glyph-name="endash" unicode="&#x2013;" horiz-adv-x="700" 
d="M100 337h500v-112h-500v112z" />
    <glyph glyph-name="emdash" unicode="&#x2014;" horiz-adv-x="1180" 
d="M100 337h980v-112h-980v112z" />
    <glyph glyph-name="uni2015" unicode="&#x2015;" horiz-adv-x="1180" 
d="M100 337h980v-112h-980v112z" />
    <glyph glyph-name="quoteleft" unicode="&#x2018;" horiz-adv-x="261" 
d="M131 552v-39h89v-157h-160v189q0 73 42.5 114t122.5 41v-75q-94 0 -94 -73z" />
    <glyph glyph-name="quoteright" unicode="&#x2019;" horiz-adv-x="261" 
d="M134 504v39h-89v157h160v-189q0 -73 -42.5 -114t-122.5 -41v75q94 0 94 73z" />
    <glyph glyph-name="quotesinglbase" unicode="&#x201a;" horiz-adv-x="265" 
d="M134 -39v39h-89v157h160v-189q0 -73 -42.5 -114t-122.5 -41v75q94 0 94 73z" />
    <glyph glyph-name="quotedblleft" unicode="&#x201c;" horiz-adv-x="470" 
d="M336 552v-39h89v-157h-160v189q0 73 42.5 114t122.5 41v-75q-94 0 -94 -73zM60 545q0 73 42.5 114t122.5 41v-75q-94 0 -94 -73v-39h89v-157h-160v189z" />
    <glyph glyph-name="quotedblright" unicode="&#x201d;" horiz-adv-x="470" 
d="M134 504v39h-89v157h160v-189q0 -73 -42.5 -114t-122.5 -41v75q94 0 94 73zM339 504v39h-89v157h160v-189q0 -73 -42.5 -114t-122.5 -41v75q94 0 94 73z" />
    <glyph glyph-name="quotedblbase" unicode="&#x201e;" horiz-adv-x="470" 
d="M134 -39v39h-89v157h160v-189q0 -73 -42.5 -114t-122.5 -41v75q94 0 94 73zM339 -39v39h-89v157h160v-189q0 -73 -42.5 -114t-122.5 -41v75q94 0 94 73z" />
    <glyph glyph-name="dagger" unicode="&#x2020;" horiz-adv-x="486" 
d="M170 537h-118v138h118v125h146v-125h117v-138h-117v-313h-146v313z" />
    <glyph glyph-name="daggerdbl" unicode="&#x2021;" horiz-adv-x="486" 
d="M170 308h-118v139h118v96h-118v139h118v118h146v-118h117v-139h-117v-96h117v-139h-117v-118h-146v118z" />
    <glyph glyph-name="bullet" unicode="&#x2022;" horiz-adv-x="443" 
d="M133 108q-41 24 -65 64.5t-24 88.5t24 88.5t65 64.5t89 24t88.5 -24t64.5 -64.5t24 -88.5t-24 -88.5t-64.5 -64.5t-88.5 -24t-89 24z" />
    <glyph glyph-name="ellipsis" unicode="&#x2026;" horiz-adv-x="718" 
d="M279 156h160v-156h-160v156zM503 156h160v-156h-160v156zM56 156h160v-156h-160v156z" />
    <glyph glyph-name="uni202F" unicode="&#x202f;" horiz-adv-x="40" 
 />
    <glyph glyph-name="perthousand" unicode="&#x2030;" horiz-adv-x="1294" 
d="M618 700h155l-490 -700h-154zM59 628.5q24 39.5 64.5 60.5t90.5 21t90.5 -21t64.5 -60.5t24 -93.5t-24 -93.5t-64.5 -60t-90.5 -20.5t-90.5 20.5t-64.5 60t-24 93.5t24 93.5zM170.5 478q16.5 -19 43.5 -19t43 19t16 57t-16 57.5t-43 19.5t-43.5 -19.5t-16.5 -57.5
t16.5 -57zM533 257q24 40 65 61t90 21t89.5 -21t64.5 -61t24 -93t-24 -92.5t-64.5 -60.5t-89.5 -21q-50 0 -90.5 21t-64.5 60.5t-24 92.5t24 93zM644.5 107q16.5 -19 43.5 -19t43 19t16 57t-16.5 57.5t-42.5 19.5q-27 0 -43.5 -19.5t-16.5 -57.5t16.5 -57zM933 257
q24 40 65 61t90 21t90 -21t65 -61t24 -93t-24 -92.5t-64.5 -60.5t-90.5 -21t-90.5 21t-64.5 60.5t-24 92.5t24 93zM1044.5 107q16.5 -19 43.5 -19t43 19t16 57t-16 57.5t-43 19.5t-43.5 -19.5t-16.5 -57.5t16.5 -57z" />
    <glyph glyph-name="minute" unicode="&#x2032;" horiz-adv-x="313" 
d="M271 700l-97 -257h-132l72 257h157z" />
    <glyph glyph-name="second" unicode="&#x2033;" horiz-adv-x="543" 
d="M279 700l-98 -257h-131l72 257h157zM344 700h157l-98 -257h-131z" />
    <glyph glyph-name="guilsinglleft" unicode="&#x2039;" horiz-adv-x="354" 
d="M132.5 181q-34.5 41 -90.5 43v111q56 2 90.5 43t36.5 101h143q-4 -72 -40 -127t-99 -72v-1q63 -17 99 -72t40 -127h-143q-2 60 -36.5 101z" />
    <glyph glyph-name="guilsinglright" unicode="&#x203a;" horiz-adv-x="354" 
d="M221.5 378q34.5 -41 90.5 -43v-111q-56 -2 -90.5 -43t-36.5 -101h-143q4 72 40 127t99 72v1q-63 17 -99 72t-40 127h143q2 -60 36.5 -101z" />
    <glyph glyph-name="uni203D" unicode="&#x203d;" horiz-adv-x="658" 
d="M233 465v52h152v-52l-7 -110h2q8 19 23 32l15 16q42 40 42 95q0 54 -33.5 80.5t-95.5 26.5q-63 0 -103 -29t-41 -90h-159q0 110 82 171t222 61q90 0 155 -26t99 -73t34 -109q0 -138 -171 -206l-34 -14q-24 -10 -33 -20.5t-10 -35.5l-2 -24h-124zM228 156h162v-156h-162
v156z" />
    <glyph glyph-name="fraction" unicode="&#x2044;" horiz-adv-x="313" 
d="M336 700h129l-488 -700h-129z" />
    <glyph glyph-name="uni2070" unicode="&#x2070;" horiz-adv-x="262" 
d="M45 452q-30 38 -30 108t30 108.5t86 38.5t86.5 -38.5t30.5 -108.5t-30.5 -108t-86.5 -38t-86 38zM97 491.5q11 -21.5 34 -21.5t34 21.5t11 68.5t-11 69t-34 22t-34 -22t-11 -69t11 -68.5z" />
    <glyph glyph-name="uni2074" unicode="&#x2074;" horiz-adv-x="252" 
d="M13 529l118 171h77v-169h36v-57h-36v-54h-67v54h-128v55zM141 531v101h-1l-63 -100v-1h64z" />
    <glyph glyph-name="uni2075" unicode="&#x2075;" horiz-adv-x="242" 
d="M49 437q-28 24 -34 63h68q1 -14 11 -22.5t25 -8.5q18 0 29 12t11 31q0 21 -11.5 32.5t-29.5 11.5t-33 -13h-69l23 157h170v-57h-114l-11 -63h1q23 23 55 23q35 0 61.5 -25.5t26.5 -66.5q0 -43 -31 -70.5t-78 -27.5q-42 0 -70 24z" />
    <glyph glyph-name="uni2076" unicode="&#x2076;" horiz-adv-x="241" 
d="M45 449.5q-30 36.5 -30 109.5q0 71 29 110t79 39q44 0 70.5 -26.5t26.5 -64.5h-67q0 17 -8.5 26t-22.5 9q-21 0 -31.5 -22t-9.5 -59h1q8 16 23 25t35 9q36 0 61.5 -26t25.5 -68q0 -44 -29.5 -71t-73.5 -27q-49 0 -79 36.5zM97.5 480q9.5 -11 25.5 -11q17 0 26.5 11.5
t9.5 30.5t-9.5 30t-26.5 11t-26 -11t-9 -30q0 -20 9.5 -31z" />
    <glyph glyph-name="uni2077" unicode="&#x2077;" horiz-adv-x="207" 
d="M63.5 545q32.5 64 83.5 95v1h-139v59h193v-56q-49 -36 -75 -99.5t-26 -124.5h-69q0 61 32.5 125z" />
    <glyph glyph-name="uni2078" unicode="&#x2078;" horiz-adv-x="241" 
d="M44.5 435.5q-29.5 22.5 -29.5 61.5q0 28 15.5 46.5t47.5 24.5v1q-26 6 -39.5 22t-13.5 40q0 34 26.5 55t70.5 21q42 0 69 -21t27 -55q0 -24 -14 -40t-40 -22v-1q32 -6 47.5 -25t15.5 -46q0 -39 -29 -61.5t-76 -22.5q-48 0 -77.5 22.5zM94 479q11 -10 28 -10q16 0 27 10
t11 28q0 19 -10.5 29t-27.5 10t-28 -10t-11 -29q0 -18 11 -28zM98.5 600q9.5 -8 23.5 -8q13 0 22 8t9 21q0 14 -9 22t-22 8q-14 0 -23.5 -8t-9.5 -22q0 -13 9.5 -21z" />
    <glyph glyph-name="uni2079" unicode="&#x2079;" horiz-adv-x="241" 
d="M196 670.5q30 -36.5 30 -109.5q0 -71 -29 -110t-79 -39q-44 0 -70.5 26.5t-26.5 64.5h67q0 -17 8.5 -26t22.5 -9q21 0 31.5 22t9.5 59h-1q-8 -16 -23 -25t-35 -9q-36 0 -61.5 26t-25.5 68q0 44 29.5 71t73.5 27q49 0 79 -36.5zM91.5 579q9.5 -11 26.5 -11t26 11t9 30
q0 20 -9.5 31t-25.5 11q-17 0 -26.5 -11.5t-9.5 -30.5t9.5 -30z" />
    <glyph glyph-name="uni207A" unicode="&#x207a;" horiz-adv-x="312" 
d="M126 532h-85v56h85v90h60v-90h86v-56h-86v-90h-60v90z" />
    <glyph glyph-name="uni207B" unicode="&#x207b;" horiz-adv-x="287" 
d="M40 589h207v-56h-207v56z" />
    <glyph glyph-name="uni207C" unicode="&#x207c;" horiz-adv-x="263" 
d="M37 637h189v-56h-189v56zM37 541h189v-56h-189v56z" />
    <glyph glyph-name="uni207D" unicode="&#x207d;" horiz-adv-x="161" 
d="M40 560q0 79 34 147h67q-34 -68 -34 -147t34 -147h-67q-34 68 -34 147z" />
    <glyph glyph-name="uni207E" unicode="&#x207e;" horiz-adv-x="161" 
d="M54 560q0 79 -34 147h67q34 -68 34 -147t-34 -147h-67q34 68 34 147z" />
    <glyph glyph-name="uni2080" unicode="&#x2080;" horiz-adv-x="262" 
d="M45 32q-30 38 -30 108t30 108.5t86 38.5t86.5 -38.5t30.5 -108.5t-30.5 -108t-86.5 -38t-86 38zM97 71.5q11 -21.5 34 -21.5t34 21.5t11 68.5t-11 69t-34 22t-34 -22t-11 -69t11 -68.5z" />
    <glyph glyph-name="uni2081" unicode="&#x2081;" horiz-adv-x="177" 
d="M146 0h-66v191h-1q-5 -28 -39 -28h-24v61h24q40 0 40 37v19h66v-280z" />
    <glyph glyph-name="uni2082" unicode="&#x2082;" horiz-adv-x="241" 
d="M28.5 99q14.5 22 54.5 43l25 13q25 12 33.5 22t8.5 23q0 16 -9 23.5t-23 7.5q-32 0 -32 -38h-64q-1 46 25.5 70t72.5 24q44 0 71.5 -22t27.5 -61q0 -28 -17.5 -53t-61.5 -46l-27 -14q-19 -10 -24 -16t-5 -15h143v-60h-213v42q0 35 14.5 57z" />
    <glyph glyph-name="uni2083" unicode="&#x2083;" horiz-adv-x="246" 
d="M45 17.5q-29 24.5 -30 70.5h68q0 -18 11.5 -28.5t29.5 -10.5t29 9t11 27q0 17 -10.5 26t-29.5 9h-37v54h30q19 0 28.5 8.5t9.5 21.5q0 14 -9 20.5t-22 6.5q-14 0 -22.5 -6.5t-8.5 -20.5h-68q1 38 27.5 60.5t71.5 22.5t72 -21.5t27 -53.5q0 -23 -14.5 -40.5t-41.5 -21.5
v-1q32 -4 48 -23t16 -47q0 -39 -29 -62.5t-78 -23.5q-50 0 -79 24.5z" />
    <glyph glyph-name="uni2084" unicode="&#x2084;" horiz-adv-x="252" 
d="M13 109l118 171h77v-169h36v-57h-36v-54h-67v54h-128v55zM141 111v101h-1l-63 -100v-1h64z" />
    <glyph glyph-name="uni2085" unicode="&#x2085;" horiz-adv-x="242" 
d="M49 17q-28 24 -34 63h68q1 -14 11 -22.5t25 -8.5q18 0 29 12t11 31q0 21 -11.5 32.5t-29.5 11.5t-33 -13h-69l23 157h170v-57h-114l-11 -63h1q23 23 55 23q35 0 61.5 -25.5t26.5 -66.5q0 -43 -31 -70.5t-78 -27.5q-42 0 -70 24z" />
    <glyph glyph-name="uni2086" unicode="&#x2086;" horiz-adv-x="241" 
d="M45 29.5q-30 36.5 -30 109.5q0 71 29 110t79 39q44 0 70.5 -26.5t26.5 -64.5h-67q0 17 -8.5 26t-22.5 9q-21 0 -31.5 -22t-9.5 -59h1q8 16 23 25t35 9q36 0 61.5 -26t25.5 -68q0 -44 -29.5 -71t-73.5 -27q-49 0 -79 36.5zM97.5 60q9.5 -11 25.5 -11q17 0 26.5 11.5
t9.5 30.5t-9.5 30t-26.5 11t-26 -11t-9 -30q0 -20 9.5 -31z" />
    <glyph glyph-name="uni2087" unicode="&#x2087;" horiz-adv-x="207" 
d="M63.5 125q32.5 64 83.5 95v1h-139v59h193v-56q-49 -36 -75 -99.5t-26 -124.5h-69q0 61 32.5 125z" />
    <glyph glyph-name="uni2088" unicode="&#x2088;" horiz-adv-x="241" 
d="M44.5 15.5q-29.5 22.5 -29.5 61.5q0 28 15.5 46.5t47.5 24.5v1q-26 6 -39.5 22t-13.5 40q0 34 26.5 55t70.5 21q42 0 69 -21t27 -55q0 -24 -14 -40t-40 -22v-1q32 -6 47.5 -25t15.5 -46q0 -39 -29 -61.5t-76 -22.5q-48 0 -77.5 22.5zM94 59q11 -10 28 -10q16 0 27 10
t11 28q0 19 -10.5 29t-27.5 10t-28 -10t-11 -29q0 -18 11 -28zM98.5 180q9.5 -8 23.5 -8q13 0 22 8t9 21q0 14 -9 22t-22 8q-14 0 -23.5 -8t-9.5 -22q0 -13 9.5 -21z" />
    <glyph glyph-name="uni2089" unicode="&#x2089;" horiz-adv-x="241" 
d="M196 250.5q30 -36.5 30 -109.5q0 -71 -29 -110t-79 -39q-44 0 -70.5 26.5t-26.5 64.5h67q0 -17 8.5 -26t22.5 -9q21 0 31.5 22t9.5 59h-1q-8 -16 -23 -25t-35 -9q-36 0 -61.5 26t-25.5 68q0 44 29.5 71t73.5 27q49 0 79 -36.5zM91.5 159q9.5 -11 26.5 -11t26 11t9 30
q0 20 -9.5 31t-25.5 11q-17 0 -26.5 -11.5t-9.5 -30.5t9.5 -30z" />
    <glyph glyph-name="uni208A" unicode="&#x208a;" horiz-adv-x="312" 
d="M126 111h-85v56h85v90h60v-90h86v-56h-86v-90h-60v90z" />
    <glyph glyph-name="uni208B" unicode="&#x208b;" horiz-adv-x="287" 
d="M40 168h207v-56h-207v56z" />
    <glyph glyph-name="uni208C" unicode="&#x208c;" horiz-adv-x="263" 
d="M37 216h189v-56h-189v56zM37 120h189v-56h-189v56z" />
    <glyph glyph-name="uni208D" unicode="&#x208d;" horiz-adv-x="161" 
d="M40 140q0 79 34 147h67q-34 -68 -34 -147t34 -147h-67q-34 68 -34 147z" />
    <glyph glyph-name="uni208E" unicode="&#x208e;" horiz-adv-x="161" 
d="M54 140q0 79 -34 147h67q34 -68 34 -147t-34 -147h-67q34 68 34 147z" />
    <glyph glyph-name="Euro" unicode="&#x20ac;" horiz-adv-x="808" 
d="M261 44.5q-82 62.5 -114 173.5h-106l30 109h59q-1 8 -1 24v24h-86l30 109h73q30 110 111.5 172t201.5 62q96 0 166 -37.5t109.5 -101.5t46.5 -143h-165q-5 70 -44.5 115.5t-112.5 45.5q-56 0 -95.5 -29t-60.5 -84h250l-30 -109h-239q-1 -8 -1 -24t1 -24h227l-30 -109
h-177q21 -57 61 -86t94 -29q72 0 111 45t46 111h165q-10 -77 -49.5 -139.5t-108.5 -100t-164 -37.5q-116 0 -198 62.5z" />
    <glyph glyph-name="uni20BF" unicode="&#x20bf;" horiz-adv-x="672" 
d="M239 800h135l-6 -100h19q63 0 111 -22t74.5 -61.5t26.5 -91.5q0 -63 -37.5 -102.5t-104.5 -46.5v-2q89 -3 139.5 -49.5t50.5 -121.5q0 -57 -29.5 -103.5t-85 -73t-128.5 -26.5h-36l6 -96h-135l6 96h-190v700h190zM371 121q56 0 85.5 24.5t29.5 67.5q0 44 -29.5 68.5
t-85.5 24.5h-160v-185h160zM348 421q44 0 67.5 21t23.5 58t-23.5 58t-67.5 21h-137v-158h137z" />
    <glyph glyph-name="trademark" unicode="&#x2122;" horiz-adv-x="777" 
d="M123 619h-95v81h283v-81h-96v-273h-92v273zM340 700h145l56 -235l56 235h145v-354h-91v258l-62 -258h-96l-62 258v-258h-91v354z" />
    <glyph glyph-name="estimated" unicode="&#x212e;" horiz-adv-x="734" 
d="M194.5 25.5q-77.5 43.5 -122 127t-44.5 197.5t44.5 197.5t122.5 127t176 43.5q95 0 171.5 -41.5t120 -120t43.5 -185.5v-72h-500v-132q61 -70 167 -70q69 0 121.5 32t72.5 88h129q-15 -69 -60.5 -122.5t-114 -83t-150.5 -29.5q-99 0 -176.5 43.5zM534 418v123
q-27 29 -69 45.5t-95 16.5t-95 -17t-69 -48v-120h328z" />
    <glyph glyph-name="oneeighth" unicode="&#x215b;" horiz-adv-x="1048" 
d="M248 210h-112v337h-1q-9 -49 -67 -49h-43v102h43q69 0 69 67v33h111v-490zM639 700h129l-488 -700h-129zM696 23.5q-52 40.5 -52 107.5q0 46 27.5 81t84.5 48v2q-45 10 -69.5 39.5t-24.5 71.5q0 60 47.5 97t122.5 37t123.5 -37t48.5 -97q0 -42 -25 -71.5t-71 -39.5v-2
q56 -12 84.5 -47.5t28.5 -81.5q0 -67 -52 -107.5t-137 -40.5q-84 0 -136 40.5zM780 97.5q20 -18.5 52 -18.5t52 18.5t20 52.5t-20 53t-52 19q-31 0 -51.5 -19t-20.5 -53t20 -52.5zM789 314.5q17 -14.5 43 -14.5t43.5 15t17.5 41q0 25 -17.5 40t-43.5 15t-43 -15t-17 -40
q0 -27 17 -41.5z" />
    <glyph glyph-name="threeeighths" unicode="&#x215c;" horiz-adv-x="1185" 
d="M81.5 236.5q-51.5 43.5 -53.5 125.5h116q2 -33 22 -53t55 -20q32 0 53.5 17.5t21.5 50.5q0 31 -18.5 47.5t-53.5 16.5h-68v94h57q32 0 48.5 15.5t16.5 40.5t-16.5 37.5t-40.5 12.5q-26 0 -42 -13.5t-17 -38.5h-116q2 67 48.5 107.5t127.5 40.5q79 0 125.5 -37.5
t46.5 -95.5q0 -42 -25 -73t-70 -39v-2q54 -7 83.5 -40.5t29.5 -84.5q0 -70 -53 -111t-139 -41q-87 0 -138.5 43.5zM776 700h129l-488 -700h-129zM833 23.5q-52 40.5 -52 107.5q0 46 27.5 81t84.5 48v2q-45 10 -69.5 39.5t-24.5 71.5q0 60 47.5 97t122.5 37t123.5 -37
t48.5 -97q0 -42 -25 -71.5t-71 -39.5v-2q56 -12 84.5 -47.5t28.5 -81.5q0 -67 -52 -107.5t-137 -40.5q-84 0 -136 40.5zM917 97.5q20 -18.5 52 -18.5t52 18.5t20 52.5t-20 53t-52 19q-31 0 -51.5 -19t-20.5 -53t20 -52.5zM926 314.5q17 -14.5 43 -14.5t43.5 15t17.5 41
q0 25 -17.5 40t-43.5 15t-43 -15t-17 -40q0 -27 17 -41.5z" />
    <glyph glyph-name="fiveeighths" unicode="&#x215d;" horiz-adv-x="1175" 
d="M87 235q-49 42 -59 112h115q2 -27 21 -42.5t47 -15.5q33 0 54 22.5t21 59.5q0 36 -20.5 58t-54.5 22q-19 0 -36 -7.5t-28 -19.5h-117l41 276h299v-97h-205l-19 -117h1q41 43 100 43q41 0 76.5 -20t57 -56.5t21.5 -84.5q0 -51 -25 -91t-68.5 -62t-97.5 -22q-75 0 -124 42z
M766 700h129l-488 -700h-129zM823 23.5q-52 40.5 -52 107.5q0 46 27.5 81t84.5 48v2q-45 10 -69.5 39.5t-24.5 71.5q0 60 47.5 97t122.5 37t123.5 -37t48.5 -97q0 -42 -25 -71.5t-71 -39.5v-2q56 -12 84.5 -47.5t28.5 -81.5q0 -67 -52 -107.5t-137 -40.5q-84 0 -136 40.5z
M907 97.5q20 -18.5 52 -18.5t52 18.5t20 52.5t-20 53t-52 19q-31 0 -51.5 -19t-20.5 -53t20 -52.5zM916 314.5q17 -14.5 43 -14.5t43.5 15t17.5 41q0 25 -17.5 40t-43.5 15t-43 -15t-17 -40q0 -27 17 -41.5z" />
    <glyph glyph-name="seveneighths" unicode="&#x215e;" horiz-adv-x="1103" 
d="M80.5 355q24.5 76 69.5 142t104 104v1h-244v98h338v-93q-58 -44 -98 -111.5t-60 -142t-20 -143.5h-114q0 69 24.5 145zM694 700h129l-488 -700h-129zM751 23.5q-52 40.5 -52 107.5q0 46 27.5 81t84.5 48v2q-45 10 -69.5 39.5t-24.5 71.5q0 60 47.5 97t122.5 37t123.5 -37
t48.5 -97q0 -42 -25 -71.5t-71 -39.5v-2q56 -12 84.5 -47.5t28.5 -81.5q0 -67 -52 -107.5t-137 -40.5q-84 0 -136 40.5zM835 97.5q20 -18.5 52 -18.5t52 18.5t20 52.5t-20 53t-52 19q-31 0 -51.5 -19t-20.5 -53t20 -52.5zM844 314.5q17 -14.5 43 -14.5t43.5 15t17.5 41
q0 25 -17.5 40t-43.5 15t-43 -15t-17 -40q0 -27 17 -41.5z" />
    <glyph glyph-name="arrowleft" unicode="&#x2190;" horiz-adv-x="681" 
d="M255 168.5q-29 53.5 -84 85.5t-131 32v130q77 0 131.5 31.5t83.5 85t33 121.5h140q-5 -79 -40.5 -142.5t-102.5 -91.5v-2l356 1v-137l-356 1v-2q67 -28 102.5 -91.5t40.5 -142.5h-140q-4 68 -33 121.5z" />
    <glyph glyph-name="arrowup" unicode="&#x2191;" horiz-adv-x="687" 
d="M161.5 531q53.5 29 85.5 84t32 131h130q0 -77 31.5 -131.5t85 -83.5t121.5 -33v-140q-79 5 -142.5 40.5t-91.5 102.5h-2l1 -356h-137l1 356h-2q-28 -67 -91.5 -102.5t-142.5 -40.5v140q68 4 121.5 33z" />
    <glyph glyph-name="arrowright" unicode="&#x2192;" horiz-adv-x="681" 
d="M293.5 189.5q35.5 63.5 102.5 91.5v2l-356 -1v137l356 -1v2q-67 28 -102.5 91.5t-40.5 142.5h140q4 -68 33 -121.5t83.5 -85t131.5 -31.5v-130q-76 0 -131 -32t-84 -85.5t-33 -121.5h-140q5 79 40.5 142.5z" />
    <glyph glyph-name="arrowdown" unicode="&#x2193;" horiz-adv-x="687" 
d="M182.5 301.5q63.5 -35.5 91.5 -102.5h2l-1 356h137l-1 -356h2q28 67 91.5 102.5t142.5 40.5v-140q-68 -4 -121.5 -33t-85 -83.5t-31.5 -131.5h-130q0 76 -32 131t-85.5 84t-121.5 33v140q79 -5 142.5 -40.5z" />
    <glyph glyph-name="arrowboth" unicode="&#x2194;" horiz-adv-x="814" 
d="M144.5 244.5q-40.5 40.5 -114.5 43.5v128q73 3 114 44t41 103h142q-2 -48 -25 -86.5t-68 -55.5v-2h346v2q-44 16 -67.5 55t-25.5 87h142q0 -63 40.5 -103.5t114.5 -43.5v-128q-73 -3 -114 -44t-41 -103h-142q2 48 25 86.5t68 54.5v3h-346v-2q44 -16 67.5 -55t25.5 -87
h-142q0 63 -40.5 103.5z" />
    <glyph glyph-name="arrowupdn" unicode="&#x2195;" horiz-adv-x="472" 
d="M131.5 95.5q-37.5 35.5 -93.5 35.5v142q43 -2 78 -23.5t50 -62.5h3v323h-2q-15 -41 -50 -62.5t-79 -23.5v141q57 0 94 36t40 101h128q4 -65 41 -101t94 -36v-141q-44 2 -79 23t-50 63h-3v-323h2q16 41 51 62.5t79 23.5v-142q-57 0 -94 -35.5t-41 -100.5h-128
q-3 65 -40.5 100.5z" />
    <glyph glyph-name="uni2196" unicode="&#x2196;" horiz-adv-x="578" 
d="M367 558q-41 0 -79 16l-1 -1l252 -251l-97 -97l-251 252l-1 -1q16 -38 16 -79q0 -50 -21.5 -98t-58.5 -90l-99 99q71 80 71 171q0 94 -78 173l92 92q79 -78 173 -78q45 0 89 18.5t82 53.5l99 -99q-93 -81 -188 -81z" />
    <glyph glyph-name="uni2197" unicode="&#x2197;" horiz-adv-x="578" 
d="M204 684.5q44 -18.5 89 -18.5q94 0 173 78l92 -92q-78 -79 -78 -173q0 -91 71 -171l-99 -99q-37 42 -58.5 90t-21.5 98q0 41 16 79l-1 1l-251 -252l-97 97l252 251l-1 1q-38 -16 -79 -16q-95 0 -188 81l99 99q38 -35 82 -53.5z" />
    <glyph glyph-name="uni2198" unicode="&#x2198;" horiz-adv-x="578" 
d="M211 141q41 0 79 -16l1 1l-252 251l97 97l251 -252l1 1q-16 38 -16 79q0 50 21.5 98t58.5 90l99 -99q-71 -80 -71 -171q0 -94 78 -173l-92 -92q-79 78 -173 78q-45 0 -89 -18.5t-82 -53.5l-99 99q93 81 188 81z" />
    <glyph glyph-name="uni2199" unicode="&#x2199;" horiz-adv-x="578" 
d="M374 14.5q-44 18.5 -89 18.5q-94 0 -173 -78l-92 92q78 79 78 173q0 91 -71 171l99 99q37 -42 58.5 -90t21.5 -98q0 -41 -16 -79l1 -1l251 252l97 -97l-252 -251l1 -1q38 16 79 16q95 0 188 -81l-99 -99q-38 35 -82 53.5z" />
    <glyph glyph-name="partialdiff" unicode="&#x2202;" horiz-adv-x="570" 
d="M135 14.5q-53 32.5 -82 90.5t-29 131q0 69 28 128t77.5 94t111.5 35q39 0 73 -15t57 -46h2q-14 68 -63 113t-144 76l63 138q317 -110 317 -418q0 -111 -38.5 -192.5t-105 -124t-147.5 -42.5q-67 0 -120 32.5zM207 126q24 -37 64 -37q32 0 58.5 23t42 67.5t15.5 108.5v18
q-31 80 -98 80q-46 0 -76 -36.5t-30 -114.5q0 -72 24 -109z" />
    <glyph glyph-name="uni2206" unicode="&#x2206;" horiz-adv-x="681" 
d="M18 113l229 587h187l229 -587v-113h-645v113zM503 114v2l-163 434l-163 -434v-2h326z" />
    <glyph glyph-name="product" unicode="&#x220f;" horiz-adv-x="653" 
d="M640 582h-93v-782h-149v782h-142v-782h-149v782h-93v118h626v-118z" />
    <glyph glyph-name="summation" unicode="&#x2211;" horiz-adv-x="514" 
d="M30 -79l190 348l-190 310v121h464v-114h-293v-1l190 -309v-2l-197 -359v-1h300v-114h-464v121z" />
    <glyph glyph-name="minus" unicode="&#x2212;" horiz-adv-x="550" 
d="M56 351h438v-112h-438v112z" />
    <glyph glyph-name="radical" unicode="&#x221a;" horiz-adv-x="716" 
d="M20 326h145l81 -388h2l175 762h273v-123h-160l-183 -777h-209z" />
    <glyph glyph-name="infinity" unicode="&#x221e;" horiz-adv-x="940" 
d="M573.5 97.5q-53.5 32.5 -103.5 90.5q-50 -57 -104 -90t-124 -33q-58 0 -106 25t-76.5 73t-28.5 112t28.5 112t76.5 73t106 25q70 0 124 -33t104 -90q50 58 103.5 90.5t123.5 32.5q58 0 106 -25t76.5 -73t28.5 -112t-28.5 -112t-76.5 -73t-106 -25q-70 0 -123.5 32.5z
M188 204.5q27 -26.5 67 -26.5q38 0 71 25t72 72q-39 47 -72 72t-71 25q-40 0 -67 -26.5t-27 -70.5t27 -70.5zM614 202.5q33 -24.5 71 -24.5q40 0 67 26.5t27 70.5t-27 70.5t-67 26.5q-38 0 -71 -24.5t-73 -72.5q40 -48 73 -72.5z" />
    <glyph glyph-name="integral" unicode="&#x222b;" horiz-adv-x="634" 
d="M608 800v-114h-87q-37 0 -58 -21t-28 -66l-92 -632q-25 -167 -176 -167h-141v114h87q37 0 58 21t28 66l92 632q25 167 176 167h141z" />
    <glyph glyph-name="approxequal" unicode="&#x2248;" horiz-adv-x="526" 
d="M290.5 325.5q-25.5 12.5 -54.5 35.5q-22 17 -34.5 24t-28.5 7q-18 0 -29 -12t-11 -38h-102q0 71 38 116t105 45q36 0 61.5 -12.5t54.5 -35.5q22 -17 34.5 -24t28.5 -7q18 0 29 12t11 38h102q0 -70 -38.5 -115.5t-104.5 -45.5q-36 0 -61.5 12.5zM69.5 245.5
q38.5 45.5 104.5 45.5q36 0 61.5 -12.5t54.5 -35.5q22 -17 34.5 -24t28.5 -7q18 0 29 12t11 38h102q0 -71 -38 -116t-105 -45q-36 0 -61.5 12.5t-54.5 35.5q-22 17 -34.5 24t-28.5 7q-18 0 -29 -12t-11 -38h-102q0 70 38.5 115.5z" />
    <glyph glyph-name="notequal" unicode="&#x2260;" horiz-adv-x="672" 
d="M196 134h-116v113h174l46 87h-220v113h278l50 96h118l-50 -96h116v-113h-174l-46 -87h220v-113h-278l-50 -96h-118z" />
    <glyph glyph-name="lessequal" unicode="&#x2264;" horiz-adv-x="637" 
d="M50 293v161l537 114v-122l-414 -72l414 -73v-122zM50 142h537v-117h-537v117z" />
    <glyph glyph-name="greaterequal" unicode="&#x2265;" horiz-adv-x="637" 
d="M50 301l414 73l-414 72v122l537 -114v-161l-537 -114v122zM50 142h537v-117h-537v117z" />
    <glyph glyph-name="uni24C5" unicode="&#x24c5;" horiz-adv-x="786" 
d="M210 32q-84 50 -133 134.5t-49 184.5q0 99 49 183.5t133 134t183 49.5t183 -49.5t133 -134t49 -183.5q0 -100 -49 -184.5t-133 -134.5t-183 -50t-183 50zM146 205q38 -67 103.5 -106.5t143.5 -39.5t143.5 39.5t103.5 106.5t38 146q0 78 -38 145t-103.5 106t-143.5 39
t-143.5 -39t-103.5 -106t-38 -145q0 -79 38 -146zM257 538h184q69 0 107 -36.5t38 -97.5q0 -60 -38 -96t-107 -36h-77v-110h-107v376zM423 359q26 0 40.5 11.5t14.5 33.5t-14 34t-38 12h-62v-91h59z" />
    <glyph glyph-name="lozenge" unicode="&#x25ca;" horiz-adv-x="576" 
d="M532 350l-169 -350h-150l-169 350l169 351h150zM288 148l93 202l-93 203l-93 -203z" />
    <glyph glyph-name="uni2E18" unicode="&#x2e18;" horiz-adv-x="669" 
d="M415 235v-52h-152v52l7 110h-2q-8 -19 -23 -32l-15 -16q-42 -40 -42 -95q0 -54 33.5 -80.5t95.5 -26.5q63 0 103 29t41 90h159q0 -110 -82 -171t-222 -61q-90 0 -155 26t-99 73t-34 109q0 138 171 206l34 14q24 10 33 20.5t10 35.5l2 24h124zM258 700h162v-156h-162v156z
" />
    <glyph glyph-name="uniA78B" unicode="&#xa78b;" horiz-adv-x="260" 
d="M74 578l-14 222h139v-467h-122z" />
    <glyph glyph-name="uniA78C" unicode="&#xa78c;" horiz-adv-x="258" 
d="M74 468l-14 202h138v-387h-121z" />
    <glyph glyph-name="uni004A0301" horiz-adv-x="597" 
d="M86.5 52q-71.5 70 -71.5 201h156q0 -74 27.5 -112t79.5 -38t79.5 38t27.5 112v447h156v-452q0 -128 -71 -197t-192 -69q-120 0 -191.5 70zM468 925h169l-100 -162h-149z" />
    <glyph glyph-name="uni013B.loclMAH" horiz-adv-x="506" 
d="M494 121v-121h-439v700h156v-579h283zM171 -107h78q9 0 16 5t7 14q0 10 -6.5 15t-16.5 5h-27v38h66q45 0 69.5 -21.5t24.5 -58.5q0 -39 -24.5 -62.5t-69.5 -23.5h-117v89z" />
    <glyph glyph-name="uni0145.loclMAH" horiz-adv-x="719" 
d="M209 472h-2l1 -120v-352h-153v700h190l265 -466h2l-1 120v346h153v-700h-184zM265 -107h78q9 0 16 5t7 14q0 10 -6.5 15t-16.5 5h-27v38h66q45 0 69.5 -21.5t24.5 -58.5q0 -39 -24.5 -62.5t-69.5 -23.5h-117v89z" />
    <glyph glyph-name="Y.ss04" horiz-adv-x="590" 
d="M16 120h229v2l-235 578h168l116 -319h2l116 319h168l-205 -500l43 -112q6 -15 6 -29q0 -26 -17.5 -42.5t-44.5 -16.5h-346v120z" />
    <glyph glyph-name="Yacute.ss04" horiz-adv-x="590" 
d="M16 120h229v2l-235 578h168l116 -319h2l116 319h168l-205 -500l43 -112q6 -15 6 -29q0 -26 -17.5 -42.5t-44.5 -16.5h-346v120zM301 925h169l-100 -162h-149z" />
    <glyph glyph-name="Ycircumflex.ss04" horiz-adv-x="590" 
d="M16 120h229v2l-235 578h168l116 -319h2l116 319h168l-205 -500l43 -112q6 -15 6 -29q0 -26 -17.5 -42.5t-44.5 -16.5h-346v120zM228 925h134l107 -162h-136l-37 71h-2l-37 -71h-136z" />
    <glyph glyph-name="Ydieresis.ss04" horiz-adv-x="590" 
d="M16 120h229v2l-235 578h168l116 -319h2l116 319h168l-205 -500l43 -112q6 -15 6 -29q0 -26 -17.5 -42.5t-44.5 -16.5h-346v120zM127 917h142v-140h-142v140zM321 917h142v-140h-142v140z" />
    <glyph glyph-name="Ygrave.ss04" horiz-adv-x="590" 
d="M16 120h229v2l-235 578h168l116 -319h2l116 319h168l-205 -500l43 -112q6 -15 6 -29q0 -26 -17.5 -42.5t-44.5 -16.5h-346v120zM120 925h169l80 -162h-147z" />
    <glyph glyph-name="uni0232.ss04" horiz-adv-x="590" 
d="M16 120h229v2l-235 578h168l116 -319h2l116 319h168l-205 -500l43 -112q6 -15 6 -29q0 -26 -17.5 -42.5t-44.5 -16.5h-346v120zM151 892h290v-114h-290v114z" />
    <glyph glyph-name="uni1EF8.ss04" horiz-adv-x="590" 
d="M16 120h229v2l-235 578h168l116 -319h2l116 319h168l-205 -500l43 -112q6 -15 6 -29q0 -26 -17.5 -42.5t-44.5 -16.5h-346v120zM323.5 768.5q-21.5 10.5 -44.5 28.5q-15 12 -25.5 18t-22.5 6q-16 0 -25.5 -12t-9.5 -34v-7h-92v28q0 67 31.5 100.5t81.5 33.5
q30 0 50.5 -10t44.5 -29q15 -13 26 -19t23 -6q16 0 25.5 12t9.5 35v7h92v-28q0 -67 -32 -100.5t-81 -33.5q-30 0 -51.5 10.5z" />
    <glyph glyph-name="S.ss05" horiz-adv-x="639" 
d="M57 121h269q56 0 85.5 23.5t29.5 65.5q0 41 -30 64.5t-85 23.5h-67q-69 0 -121 25t-79.5 70t-27.5 103q0 96 69 150t187 54h291v-121h-290q-44 0 -69 -21t-25 -58q0 -36 25.5 -57t68.5 -21h78q75 0 130 -26.5t83.5 -73.5t28.5 -106q0 -67 -34 -116t-95 -74.5t-141 -25.5
h-281v121z" />
    <glyph glyph-name="Sacute.ss05" horiz-adv-x="639" 
d="M57 121h269q56 0 85.5 23.5t29.5 65.5q0 41 -30 64.5t-85 23.5h-67q-69 0 -121 25t-79.5 70t-27.5 103q0 96 69 150t187 54h291v-121h-290q-44 0 -69 -21t-25 -58q0 -36 25.5 -57t68.5 -21h78q75 0 130 -26.5t83.5 -73.5t28.5 -106q0 -67 -34 -116t-95 -74.5t-141 -25.5
h-281v121zM325 925h169l-100 -162h-149z" />
    <glyph glyph-name="Scaron.ss05" horiz-adv-x="639" 
d="M57 121h269q56 0 85.5 23.5t29.5 65.5q0 41 -30 64.5t-85 23.5h-67q-69 0 -121 25t-79.5 70t-27.5 103q0 96 69 150t187 54h291v-121h-290q-44 0 -69 -21t-25 -58q0 -36 25.5 -57t68.5 -21h78q75 0 130 -26.5t83.5 -73.5t28.5 -106q0 -67 -34 -116t-95 -74.5t-141 -25.5
h-281v121zM146 925h136l37 -54h2l37 54h136l-107 -162h-134z" />
    <glyph glyph-name="Scedilla.ss05" horiz-adv-x="639" 
d="M57 121h269q56 0 85.5 23.5t29.5 65.5q0 41 -30 64.5t-85 23.5h-67q-69 0 -121 25t-79.5 70t-27.5 103q0 96 69 150t187 54h291v-121h-290q-44 0 -69 -21t-25 -58q0 -36 25.5 -57t68.5 -21h78q75 0 130 -26.5t83.5 -73.5t28.5 -106q0 -96 -67.5 -153t-179.5 -62v-38
q36 -4 54.5 -23.5t18.5 -51.5q0 -37 -25 -60.5t-69 -23.5h-118v89h79q9 0 15.5 5t6.5 14q0 10 -6 15t-16 5h-27v68h-217v121z" />
    <glyph glyph-name="Scircumflex.ss05" horiz-adv-x="639" 
d="M57 121h269q56 0 85.5 23.5t29.5 65.5q0 41 -30 64.5t-85 23.5h-67q-69 0 -121 25t-79.5 70t-27.5 103q0 96 69 150t187 54h291v-121h-290q-44 0 -69 -21t-25 -58q0 -36 25.5 -57t68.5 -21h78q75 0 130 -26.5t83.5 -73.5t28.5 -106q0 -67 -34 -116t-95 -74.5t-141 -25.5
h-281v121zM253 925h134l107 -162h-136l-37 71h-2l-37 -71h-136z" />
    <glyph glyph-name="uni0218.ss05" horiz-adv-x="639" 
d="M57 121h269q56 0 85.5 23.5t29.5 65.5q0 41 -30 64.5t-85 23.5h-67q-69 0 -121 25t-79.5 70t-27.5 103q0 96 69 150t187 54h291v-121h-290q-44 0 -69 -21t-25 -58q0 -36 25.5 -57t68.5 -21h78q75 0 130 -26.5t83.5 -73.5t28.5 -106q0 -67 -34 -116t-95 -74.5t-141 -25.5
h-281v121zM302 -220q20 15 20 40v5h-76v127h148v-130q0 -60 -41 -94.5t-107 -34.5v72q36 0 56 15z" />
    <glyph glyph-name="S.ss06" horiz-adv-x="687" 
d="M180 14q-69 32 -107 90.5t-42 137.5h162q1 -70 42 -104.5t111 -34.5q68 0 106 29.5t38 76.5q0 40 -29.5 64.5t-84.5 24.5h-105q-71 0 -123 25t-79.5 69.5t-27.5 101.5q0 96 69.5 151t191.5 55h320v-121h-319q-48 0 -74 -21t-26 -57t26 -57t73 -21h111q80 0 134.5 -27
t81.5 -73t27 -103q0 -70 -38.5 -124t-109 -84t-164.5 -30q-95 0 -164 32z" />
    <glyph glyph-name="Sacute.ss06" horiz-adv-x="687" 
d="M180 14q-69 32 -107 90.5t-42 137.5h162q1 -70 42 -104.5t111 -34.5q68 0 106 29.5t38 76.5q0 40 -29.5 64.5t-84.5 24.5h-105q-71 0 -123 25t-79.5 69.5t-27.5 101.5q0 96 69.5 151t191.5 55h320v-121h-319q-48 0 -74 -21t-26 -57t26 -57t73 -21h111q80 0 134.5 -27
t81.5 -73t27 -103q0 -70 -38.5 -124t-109 -84t-164.5 -30q-95 0 -164 32zM351 925h169l-100 -162h-149z" />
    <glyph glyph-name="Scaron.ss06" horiz-adv-x="687" 
d="M180 14q-69 32 -107 90.5t-42 137.5h162q1 -70 42 -104.5t111 -34.5q68 0 106 29.5t38 76.5q0 40 -29.5 64.5t-84.5 24.5h-105q-71 0 -123 25t-79.5 69.5t-27.5 101.5q0 96 69.5 151t191.5 55h320v-121h-319q-48 0 -74 -21t-26 -57t26 -57t73 -21h111q80 0 134.5 -27
t81.5 -73t27 -103q0 -70 -38.5 -124t-109 -84t-164.5 -30q-95 0 -164 32zM172 925h136l37 -54h2l37 54h136l-107 -162h-134z" />
    <glyph glyph-name="Scedilla.ss06" horiz-adv-x="687" 
d="M248 -196v89h79q9 0 15.5 5t6.5 14q0 10 -6 15t-16 5h-27v52q-123 10 -193.5 79t-75.5 179h162q1 -70 42 -104.5t111 -34.5q68 0 106 29.5t38 76.5q0 40 -29.5 64.5t-84.5 24.5h-105q-71 0 -123 25t-79.5 69.5t-27.5 101.5q0 96 69.5 151t191.5 55h320v-121h-319
q-48 0 -74 -21t-26 -57t26 -57t73 -21h111q80 0 134.5 -27t81.5 -73t27 -103q0 -65 -33 -116t-93.5 -82.5t-142.5 -37.5v-21q36 -4 54.5 -23.5t18.5 -51.5q0 -37 -25 -60.5t-69 -23.5h-118z" />
    <glyph glyph-name="Scircumflex.ss06" horiz-adv-x="687" 
d="M180 14q-69 32 -107 90.5t-42 137.5h162q1 -70 42 -104.5t111 -34.5q68 0 106 29.5t38 76.5q0 40 -29.5 64.5t-84.5 24.5h-105q-71 0 -123 25t-79.5 69.5t-27.5 101.5q0 96 69.5 151t191.5 55h320v-121h-319q-48 0 -74 -21t-26 -57t26 -57t73 -21h111q80 0 134.5 -27
t81.5 -73t27 -103q0 -70 -38.5 -124t-109 -84t-164.5 -30q-95 0 -164 32zM279 925h134l107 -162h-136l-37 71h-2l-37 -71h-136z" />
    <glyph glyph-name="uni0218.ss06" horiz-adv-x="687" 
d="M180 14q-69 32 -107 90.5t-42 137.5h162q1 -70 42 -104.5t111 -34.5q68 0 106 29.5t38 76.5q0 40 -29.5 64.5t-84.5 24.5h-105q-71 0 -123 25t-79.5 69.5t-27.5 101.5q0 96 69.5 151t191.5 55h320v-121h-319q-48 0 -74 -21t-26 -57t26 -57t73 -21h111q80 0 134.5 -27
t81.5 -73t27 -103q0 -70 -38.5 -124t-109 -84t-164.5 -30q-95 0 -164 32zM328 -220q20 15 20 40v5h-76v127h148v-130q0 -60 -41 -94.5t-107 -34.5v72q36 0 56 15z" />
    <glyph glyph-name="G.ss07" horiz-adv-x="743" 
d="M186.5 45q-74.5 45 -116.5 127t-42 189q0 105 41.5 186t119 126t183.5 45q97 0 168 -38t110 -103t44 -145h-159q-3 74 -46 119t-117 45q-84 0 -130.5 -59.5t-46.5 -175.5q0 -117 49.5 -178.5t131.5 -61.5h157v117h-171v115h277q23 0 38 -15t15 -38v-247q0 -22 -15 -37.5
t-38 -15.5h-284q-94 0 -168.5 45z" />
    <glyph glyph-name="Gbreve.ss07" horiz-adv-x="743" 
d="M186.5 45q-74.5 45 -116.5 127t-42 189q0 105 41.5 186t119 126t183.5 45q97 0 168 -38t110 -103t44 -145h-159q-3 74 -46 119t-117 45q-84 0 -130.5 -59.5t-46.5 -175.5q0 -117 49.5 -178.5t131.5 -61.5h157v117h-171v115h277q23 0 38 -15t15 -38v-247q0 -22 -15 -37.5
t-38 -15.5h-284q-94 0 -168.5 45zM252 806.5q-41 43.5 -41 118.5h119q0 -60 41 -60t41 60h119q0 -75 -41 -118.5t-119 -43.5t-119 43.5z" />
    <glyph glyph-name="Gcaron.ss07" horiz-adv-x="743" 
d="M186.5 45q-74.5 45 -116.5 127t-42 189q0 105 41.5 186t119 126t183.5 45q97 0 168 -38t110 -103t44 -145h-159q-3 74 -46 119t-117 45q-84 0 -130.5 -59.5t-46.5 -175.5q0 -117 49.5 -178.5t131.5 -61.5h157v117h-171v115h277q23 0 38 -15t15 -38v-247q0 -22 -15 -37.5
t-38 -15.5h-284q-94 0 -168.5 45zM197 925h136l37 -54h2l37 54h136l-107 -162h-134z" />
    <glyph glyph-name="Gcircumflex.ss07" horiz-adv-x="743" 
d="M186.5 45q-74.5 45 -116.5 127t-42 189q0 105 41.5 186t119 126t183.5 45q97 0 168 -38t110 -103t44 -145h-159q-3 74 -46 119t-117 45q-84 0 -130.5 -59.5t-46.5 -175.5q0 -117 49.5 -178.5t131.5 -61.5h157v117h-171v115h277q23 0 38 -15t15 -38v-247q0 -22 -15 -37.5
t-38 -15.5h-284q-94 0 -168.5 45zM304 925h134l107 -162h-136l-37 71h-2l-37 -71h-136z" />
    <glyph glyph-name="uni0122.ss07" horiz-adv-x="743" 
d="M186.5 45q-74.5 45 -116.5 127t-42 189q0 105 41.5 186t119 126t183.5 45q97 0 168 -38t110 -103t44 -145h-159q-3 74 -46 119t-117 45q-84 0 -130.5 -59.5t-46.5 -175.5q0 -117 49.5 -178.5t131.5 -61.5h157v117h-171v115h277q23 0 38 -15t15 -38v-247q0 -22 -15 -37.5
t-38 -15.5h-284q-94 0 -168.5 45zM362 -220q20 15 20 40v5h-76v127h148v-130q0 -60 -41 -94.5t-107 -34.5v72q36 0 56 15z" />
    <glyph glyph-name="Gdotaccent.ss07" horiz-adv-x="743" 
d="M186.5 45q-74.5 45 -116.5 127t-42 189q0 105 41.5 186t119 126t183.5 45q97 0 168 -38t110 -103t44 -145h-159q-3 74 -46 119t-117 45q-84 0 -130.5 -59.5t-46.5 -175.5q0 -117 49.5 -178.5t131.5 -61.5h157v117h-171v115h277q23 0 38 -15t15 -38v-247q0 -22 -15 -37.5
t-38 -15.5h-284q-94 0 -168.5 45zM294 917h152v-140h-152v140z" />
    <glyph glyph-name="uni1E20.ss07" horiz-adv-x="743" 
d="M186.5 45q-74.5 45 -116.5 127t-42 189q0 105 41.5 186t119 126t183.5 45q97 0 168 -38t110 -103t44 -145h-159q-3 74 -46 119t-117 45q-84 0 -130.5 -59.5t-46.5 -175.5q0 -117 49.5 -178.5t131.5 -61.5h157v117h-171v115h277q23 0 38 -15t15 -38v-247q0 -22 -15 -37.5
t-38 -15.5h-284q-94 0 -168.5 45zM226 892h290v-114h-290v114z" />
    <glyph glyph-name="uni01E4.ss07" horiz-adv-x="744" 
d="M186.5 45q-74.5 45 -116.5 127t-42 189q0 105 41.5 186t120 126t185.5 45q95 0 165.5 -33t109.5 -89t44 -124h-159q-3 56 -45.5 90t-114.5 34q-86 0 -133 -59.5t-47 -175.5q0 -117 49.5 -178.5t131.5 -61.5h169v60h-177v83h177v59h-183v84h277q23 0 38 -15t15 -38v-90h46
v-83h-46v-128q0 -22 -15 -37.5t-38 -15.5h-284q-94 0 -168.5 45z" />
    <glyph glyph-name="E.ss08" 
d="M81.5 407q-33.5 42 -33.5 102q0 56 28 99t82 67.5t130 24.5h277v-115h-242q-55 0 -85 -23t-30 -65q0 -43 30 -66t85 -23h228v-114h-228q-55 0 -85 -23.5t-30 -66.5t30 -66t85 -23h250v-115h-285q-76 0 -130 24.5t-82 67.5t-28 99q0 60 33.5 102t106.5 56v2
q-73 14 -106.5 56z" />
    <glyph glyph-name="Eacute.ss08" 
d="M81.5 407q-33.5 42 -33.5 102q0 56 28 99t82 67.5t130 24.5h277v-115h-242q-55 0 -85 -23t-30 -65q0 -43 30 -66t85 -23h228v-114h-228q-55 0 -85 -23.5t-30 -66.5t30 -66t85 -23h250v-115h-285q-76 0 -130 24.5t-82 67.5t-28 99q0 60 33.5 102t106.5 56v2
q-73 14 -106.5 56zM342 925h169l-100 -162h-149z" />
    <glyph glyph-name="Ebreve.ss08" 
d="M81.5 407q-33.5 42 -33.5 102q0 56 28 99t82 67.5t130 24.5h277v-115h-242q-55 0 -85 -23t-30 -65q0 -43 30 -66t85 -23h228v-114h-228q-55 0 -85 -23.5t-30 -66.5t30 -66t85 -23h250v-115h-285q-76 0 -130 24.5t-82 67.5t-28 99q0 60 33.5 102t106.5 56v2
q-73 14 -106.5 56zM218 806.5q-41 43.5 -41 118.5h119q0 -60 41 -60t41 60h119q0 -75 -41 -118.5t-119 -43.5t-119 43.5z" />
    <glyph glyph-name="Ecaron.ss08" 
d="M81.5 407q-33.5 42 -33.5 102q0 56 28 99t82 67.5t130 24.5h277v-115h-242q-55 0 -85 -23t-30 -65q0 -43 30 -66t85 -23h228v-114h-228q-55 0 -85 -23.5t-30 -66.5t30 -66t85 -23h250v-115h-285q-76 0 -130 24.5t-82 67.5t-28 99q0 60 33.5 102t106.5 56v2
q-73 14 -106.5 56zM163 925h136l37 -54h2l37 54h136l-107 -162h-134z" />
    <glyph glyph-name="Ecircumflex.ss08" 
d="M81.5 407q-33.5 42 -33.5 102q0 56 28 99t82 67.5t130 24.5h277v-115h-242q-55 0 -85 -23t-30 -65q0 -43 30 -66t85 -23h228v-114h-228q-55 0 -85 -23.5t-30 -66.5t30 -66t85 -23h250v-115h-285q-76 0 -130 24.5t-82 67.5t-28 99q0 60 33.5 102t106.5 56v2
q-73 14 -106.5 56zM270 925h134l107 -162h-136l-37 71h-2l-37 -71h-136z" />
    <glyph glyph-name="Edieresis.ss08" 
d="M81.5 407q-33.5 42 -33.5 102q0 56 28 99t82 67.5t130 24.5h277v-115h-242q-55 0 -85 -23t-30 -65q0 -43 30 -66t85 -23h228v-114h-228q-55 0 -85 -23.5t-30 -66.5t30 -66t85 -23h250v-115h-285q-76 0 -130 24.5t-82 67.5t-28 99q0 60 33.5 102t106.5 56v2
q-73 14 -106.5 56zM169 917h142v-140h-142v140zM363 917h142v-140h-142v140z" />
    <glyph glyph-name="Edotaccent.ss08" 
d="M81.5 407q-33.5 42 -33.5 102q0 56 28 99t82 67.5t130 24.5h277v-115h-242q-55 0 -85 -23t-30 -65q0 -43 30 -66t85 -23h228v-114h-228q-55 0 -85 -23.5t-30 -66.5t30 -66t85 -23h250v-115h-285q-76 0 -130 24.5t-82 67.5t-28 99q0 60 33.5 102t106.5 56v2
q-73 14 -106.5 56zM261 917h152v-140h-152v140z" />
    <glyph glyph-name="uni1EB8.ss08" 
d="M81.5 407q-33.5 42 -33.5 102q0 56 28 99t82 67.5t130 24.5h277v-115h-242q-55 0 -85 -23t-30 -65q0 -43 30 -66t85 -23h228v-114h-228q-55 0 -85 -23.5t-30 -66.5t30 -66t85 -23h250v-115h-285q-76 0 -130 24.5t-82 67.5t-28 99q0 60 33.5 102t106.5 56v2
q-73 14 -106.5 56zM259 -59h155v-132h-155v132z" />
    <glyph glyph-name="Egrave.ss08" 
d="M81.5 407q-33.5 42 -33.5 102q0 56 28 99t82 67.5t130 24.5h277v-115h-242q-55 0 -85 -23t-30 -65q0 -43 30 -66t85 -23h228v-114h-228q-55 0 -85 -23.5t-30 -66.5t30 -66t85 -23h250v-115h-285q-76 0 -130 24.5t-82 67.5t-28 99q0 60 33.5 102t106.5 56v2
q-73 14 -106.5 56zM161 925h169l80 -162h-147z" />
    <glyph glyph-name="Emacron.ss08" 
d="M81.5 407q-33.5 42 -33.5 102q0 56 28 99t82 67.5t130 24.5h277v-115h-242q-55 0 -85 -23t-30 -65q0 -43 30 -66t85 -23h228v-114h-228q-55 0 -85 -23.5t-30 -66.5t30 -66t85 -23h250v-115h-285q-76 0 -130 24.5t-82 67.5t-28 99q0 60 33.5 102t106.5 56v2
q-73 14 -106.5 56zM192 892h290v-114h-290v114z" />
    <glyph glyph-name="Eogonek.ss08" 
d="M81.5 407q-33.5 42 -33.5 102q0 56 28 99t82 67.5t130 24.5h277v-115h-242q-55 0 -85 -23t-30 -65q0 -43 30 -66t85 -23h228v-114h-228q-55 0 -85 -23.5t-30 -66.5t30 -66t85 -23h250v-114l3 -1h-1q-16 0 -27.5 -11.5t-11.5 -28.5q0 -20 16.5 -32.5t42.5 -12.5h15v-105
h-42q-66 0 -100.5 27.5t-34.5 70.5q0 30 15.5 54t43.5 36v2h-204q-76 0 -130 24.5t-82 67.5t-28 99q0 60 33.5 102t106.5 56v2q-73 14 -106.5 56z" />
    <glyph glyph-name="uni1EBC.ss08" 
d="M81.5 407q-33.5 42 -33.5 102q0 56 28 99t82 67.5t130 24.5h277v-115h-242q-55 0 -85 -23t-30 -65q0 -43 30 -66t85 -23h228v-114h-228q-55 0 -85 -23.5t-30 -66.5t30 -66t85 -23h250v-115h-285q-76 0 -130 24.5t-82 67.5t-28 99q0 60 33.5 102t106.5 56v2
q-73 14 -106.5 56zM364.5 768.5q-21.5 10.5 -44.5 28.5q-15 12 -25.5 18t-22.5 6q-16 0 -25.5 -12t-9.5 -34v-7h-92v28q0 67 31.5 100.5t81.5 33.5q30 0 50.5 -10t44.5 -29q15 -13 26 -19t23 -6q16 0 25.5 12t9.5 35v7h92v-28q0 -67 -32 -100.5t-81 -33.5q-30 0 -51.5 10.5z
" />
    <glyph glyph-name="F.ss08" horiz-adv-x="571" 
d="M85.5 406q-34.5 42 -34.5 103q0 56 28 99t82 67.5t130 24.5h277v-115h-242q-55 0 -85 -23t-30 -65q0 -43 30 -66t85 -23h228v-114h-228q-54 0 -82.5 -24t-28.5 -70v-200h-157v189q0 133 133 160v2q-71 13 -105.5 55z" />
    <glyph glyph-name="Y.ss09" horiz-adv-x="636" 
d="M50 121h375v139h-320q-25 0 -40 14.5t-15 38.5v387h156v-319h219v319h156v-647q0 -22 -15 -37.5t-38 -15.5h-478v121z" />
    <glyph glyph-name="Yacute.ss09" horiz-adv-x="636" 
d="M50 121h375v139h-320q-25 0 -40 14.5t-15 38.5v387h156v-319h219v319h156v-647q0 -22 -15 -37.5t-38 -15.5h-478v121zM324 925h169l-100 -162h-149z" />
    <glyph glyph-name="Ycircumflex.ss09" horiz-adv-x="636" 
d="M50 121h375v139h-320q-25 0 -40 14.5t-15 38.5v387h156v-319h219v319h156v-647q0 -22 -15 -37.5t-38 -15.5h-478v121zM252 925h134l107 -162h-136l-37 71h-2l-37 -71h-136z" />
    <glyph glyph-name="Ydieresis.ss09" horiz-adv-x="636" 
d="M50 121h375v139h-320q-25 0 -40 14.5t-15 38.5v387h156v-319h219v319h156v-647q0 -22 -15 -37.5t-38 -15.5h-478v121zM151 917h142v-140h-142v140zM345 917h142v-140h-142v140z" />
    <glyph glyph-name="Ygrave.ss09" horiz-adv-x="636" 
d="M50 121h375v139h-320q-25 0 -40 14.5t-15 38.5v387h156v-319h219v319h156v-647q0 -22 -15 -37.5t-38 -15.5h-478v121zM143 925h169l80 -162h-147z" />
    <glyph glyph-name="uni0232.ss09" horiz-adv-x="636" 
d="M50 121h375v139h-320q-25 0 -40 14.5t-15 38.5v387h156v-319h219v319h156v-647q0 -22 -15 -37.5t-38 -15.5h-478v121zM174 892h290v-114h-290v114z" />
    <glyph glyph-name="uni1EF8.ss09" horiz-adv-x="636" 
d="M50 121h375v139h-320q-25 0 -40 14.5t-15 38.5v387h156v-319h219v319h156v-647q0 -22 -15 -37.5t-38 -15.5h-478v121zM346.5 768.5q-21.5 10.5 -44.5 28.5q-15 12 -25.5 18t-22.5 6q-16 0 -25.5 -12t-9.5 -34v-7h-92v28q0 67 31.5 100.5t81.5 33.5q30 0 50.5 -10
t44.5 -29q15 -13 26 -19t23 -6q16 0 25.5 12t9.5 35v7h92v-28q0 -67 -32 -100.5t-81 -33.5q-30 0 -51.5 10.5z" />
    <glyph glyph-name="Q.ss10" horiz-adv-x="752" 
d="M265 -186q-17 14 -17 38q0 11 7 32l40 106q-122 23 -194.5 116.5t-72.5 243.5q0 117 45 200t123.5 125.5t179.5 42.5q100 0 179 -42.5t124 -125.5t45 -200q0 -105 -36.5 -183t-102 -123.5t-150.5 -57.5l-27 -70h154v-116h-250q-30 0 -47 14zM243.5 164.5
q48.5 -61.5 132.5 -61.5t132.5 61.5t48.5 185.5t-48.5 185.5t-132.5 61.5t-132.5 -61.5t-48.5 -185.5t48.5 -185.5z" />
    <glyph glyph-name="Aacute.ss11" horiz-adv-x="715" 
d="M279 700h157l264 -700h-167l-50 148h-254l-51 -148h-163zM441 269l-24 71q-39 113 -61 201h-1q-22 -86 -63 -208l-22 -64h171zM526 831v-25l-231 -38v10z" />
    <glyph glyph-name="Abreve.ss11" horiz-adv-x="715" 
d="M279 700h157l264 -700h-167l-50 148h-254l-51 -148h-163zM441 269l-24 71q-39 113 -61 201h-1q-22 -86 -63 -208l-22 -64h171zM426 777.5q-29 -23.5 -71 -23.5t-71 23.5t-38 60.5h10q11 -28 37 -44t62 -16t62 16t37 44h10q-9 -37 -38 -60.5z" />
    <glyph glyph-name="Acircumflex.ss11" horiz-adv-x="715" 
d="M279 700h157l264 -700h-167l-50 148h-254l-51 -148h-163zM441 269l-24 71q-39 113 -61 201h-1q-22 -86 -63 -208l-22 -64h171zM237 771l115 61h5l115 -61v-10l-117 47h-1l-117 -47v10z" />
    <glyph glyph-name="uni1EAC.ss11" horiz-adv-x="715" 
d="M279 700h157l264 -700h-167l-50 148h-254l-51 -148h-163zM237 771l115 61h5l115 -61v-10l-117 47h-1l-117 -47v10zM441 269l-24 71q-39 113 -61 201h-1q-22 -86 -63 -208l-22 -64h171zM337 -62h36v-46h-36v46z" />
    <glyph glyph-name="Adieresis.ss11" horiz-adv-x="715" 
d="M279 700h157l264 -700h-167l-50 148h-254l-51 -148h-163zM441 269l-24 71q-39 113 -61 201h-1q-22 -86 -63 -208l-22 -64h171zM395 829h36v-36h-36v36zM279 829h36v-36h-36v36z" />
    <glyph glyph-name="uni1EA0.ss11" horiz-adv-x="715" 
d="M279 700h157l264 -700h-167l-50 148h-254l-51 -148h-163zM441 269l-24 71q-39 113 -61 201h-1q-22 -86 -63 -208l-22 -64h171zM337 -62h36v-46h-36v46z" />
    <glyph glyph-name="Agrave.ss11" horiz-adv-x="715" 
d="M279 700h157l264 -700h-167l-50 148h-254l-51 -148h-163zM441 269l-24 71q-39 113 -61 201h-1q-22 -86 -63 -208l-22 -64h171zM415 768l-231 38v25l231 -53v-10z" />
    <glyph glyph-name="Amacron.ss11" horiz-adv-x="715" 
d="M279 700h157l264 -700h-167l-50 148h-254l-51 -148h-163zM441 269l-24 71q-39 113 -61 201h-1q-22 -86 -63 -208l-22 -64h171zM230 820h250v-24h-250v24z" />
    <glyph glyph-name="Aogonek.ss11" horiz-adv-x="715" 
d="M279 700h157l264 -700h-3l-16 -8q-19 -9 -30 -26t-11 -38q0 -30 24 -49t66 -19h13v-30h-18q-48 0 -77 23.5t-29 61.5q0 26 14 48t39 35v2h-139l-50 148h-254l-51 -148h-163zM441 269l-24 71q-39 113 -61 201h-1q-22 -86 -63 -208l-22 -64h171z" />
    <glyph glyph-name="Aring.ss11" horiz-adv-x="715" 
d="M279 700h157l264 -700h-167l-50 148h-254l-51 -148h-163zM441 269l-24 71q-39 113 -61 201h-1q-22 -86 -63 -208l-22 -64h171zM307 763q-20 20 -20 48q0 29 20 49t48 20t48 -20t20 -49q0 -28 -19.5 -48t-48.5 -20q-28 0 -48 20zM319 768q15 -15 36 -15t36 15t15 36
t-15 36.5t-36 15.5t-36 -15.5t-15 -36.5t15 -36z" />
    <glyph glyph-name="Atilde.ss11" horiz-adv-x="715" 
d="M279 700h157l264 -700h-167l-50 148h-254l-51 -148h-163zM441 269l-24 71q-39 113 -61 201h-1q-22 -86 -63 -208l-22 -64h171zM385.5 757.5q-16.5 11.5 -38.5 35.5q-18 21 -32.5 31.5t-34.5 10.5q-28 0 -47.5 -22t-19.5 -62h-10q0 49 22 77t58 28q25 0 42 -12t37 -35
q21 -22 34.5 -32t33.5 -10q28 0 47.5 22t19.5 62h10q0 -50 -21.5 -77.5t-58.5 -27.5q-25 0 -41.5 11.5z" />
    <glyph glyph-name="AEacute.ss11" horiz-adv-x="975" 
d="M476 168h-237l-70 -168h-154l303 700h633v-115h-318v-173h279v-115h-279v-182h319v-115h-476v168zM476 283v302h-65l-125 -302h190zM732 831v-25l-231 -38v10z" />
    <glyph glyph-name="Cacute.ss11" horiz-adv-x="735" 
d="M195 27.5q-79 45.5 -123 129t-44 194.5q0 112 42 195t121 127.5t187 44.5q99 0 170.5 -37.5t111.5 -101t47 -143.5h-164q-6 71 -47 116t-118 45q-87 0 -135 -62t-48 -184q0 -121 49.5 -184.5t133.5 -63.5q75 0 116.5 45t48.5 111h164q-10 -77 -50.5 -139.5t-111 -100
t-167.5 -37.5q-104 0 -183 45.5zM549 831v-25l-231 -38v10z" />
    <glyph glyph-name="Ccaron.ss11" horiz-adv-x="735" 
d="M195 27.5q-79 45.5 -123 129t-44 194.5q0 112 42 195t121 127.5t187 44.5q99 0 170.5 -37.5t111.5 -101t47 -143.5h-164q-6 71 -47 116t-118 45q-87 0 -135 -62t-48 -184q0 -121 49.5 -184.5t133.5 -63.5q75 0 116.5 45t48.5 111h164q-10 -77 -50.5 -139.5t-111 -100
t-167.5 -37.5q-104 0 -183 45.5zM260 822v10l117 -47h1l117 47v-10l-115 -61h-5z" />
    <glyph glyph-name="Ccedilla.ss11" horiz-adv-x="735" 
d="M313 -170v25h75q24 0 37.5 12t13.5 31t-13.5 30.5t-37.5 11.5h-22v42q-101 3 -177.5 49t-118.5 128.5t-42 191.5q0 112 42 195t121 127.5t187 44.5q99 0 170.5 -37.5t111.5 -101t47 -143.5h-164q-6 71 -47 116t-118 45q-87 0 -135 -62t-48 -184q0 -121 49.5 -184.5
t133.5 -63.5q75 0 116.5 45t48.5 111h164q-10 -75 -49 -137t-107 -100t-161 -40v-31h4q34 0 54 -15t20 -44q0 -30 -21 -46t-54 -16h-80z" />
    <glyph glyph-name="Ccircumflex.ss11" horiz-adv-x="735" 
d="M195 27.5q-79 45.5 -123 129t-44 194.5q0 112 42 195t121 127.5t187 44.5q99 0 170.5 -37.5t111.5 -101t47 -143.5h-164q-6 71 -47 116t-118 45q-87 0 -135 -62t-48 -184q0 -121 49.5 -184.5t133.5 -63.5q75 0 116.5 45t48.5 111h164q-10 -77 -50.5 -139.5t-111 -100
t-167.5 -37.5q-104 0 -183 45.5zM260 771l115 61h5l115 -61v-10l-117 47h-1l-117 -47v10z" />
    <glyph glyph-name="Cdotaccent.ss11" horiz-adv-x="735" 
d="M195 27.5q-79 45.5 -123 129t-44 194.5q0 112 42 195t121 127.5t187 44.5q99 0 170.5 -37.5t111.5 -101t47 -143.5h-164q-6 71 -47 116t-118 45q-87 0 -135 -62t-48 -184q0 -121 49.5 -184.5t133.5 -63.5q75 0 116.5 45t48.5 111h164q-10 -77 -50.5 -139.5t-111 -100
t-167.5 -37.5q-104 0 -183 45.5zM359 828h36v-36h-36v36z" />
    <glyph glyph-name="Eth.ss11" horiz-adv-x="708" 
d="M211 336v-215h109q93 0 143 58t50 171t-50 171t-143 58h-109v-217h74v-26h-74zM4 362h51v338h283q99 0 176.5 -41.5t121.5 -120.5t44 -188t-44 -188t-121.5 -120.5t-176.5 -41.5h-283v336h-51v26z" />
    <glyph glyph-name="Dcaron.ss11" horiz-adv-x="708" 
d="M55 700h283q99 0 176.5 -41.5t121.5 -120.5t44 -188t-44 -188t-121.5 -120.5t-176.5 -41.5h-283v700zM320 121q93 0 143 58t50 171t-50 171t-143 58h-109v-458h109zM199 822v10l117 -47h1l117 47v-10l-115 -61h-5z" />
    <glyph glyph-name="Dcroat.ss11" horiz-adv-x="708" 
d="M211 336v-215h109q93 0 143 58t50 171t-50 171t-143 58h-109v-217h74v-26h-74zM4 362h51v338h283q99 0 176.5 -41.5t121.5 -120.5t44 -188t-44 -188t-121.5 -120.5t-176.5 -41.5h-283v336h-51v26z" />
    <glyph glyph-name="Eacute.ss11" horiz-adv-x="585" 
d="M55 700h506v-115h-349v-173h310v-115h-310v-182h350v-115h-507v700zM482 831v-25l-231 -38v10z" />
    <glyph glyph-name="Ebreve.ss11" horiz-adv-x="585" 
d="M55 700h506v-115h-349v-173h310v-115h-310v-182h350v-115h-507v700zM382 777.5q-29 -23.5 -71 -23.5t-71 23.5t-38 60.5h10q11 -28 37 -44t62 -16t62 16t37 44h10q-9 -37 -38 -60.5z" />
    <glyph glyph-name="Ecaron.ss11" horiz-adv-x="585" 
d="M55 700h506v-115h-349v-173h310v-115h-310v-182h350v-115h-507v700zM193 822v10l117 -47h1l117 47v-10l-115 -61h-5z" />
    <glyph glyph-name="Ecircumflex.ss11" horiz-adv-x="585" 
d="M55 700h506v-115h-349v-173h310v-115h-310v-182h350v-115h-507v700zM193 771l115 61h5l115 -61v-10l-117 47h-1l-117 -47v10z" />
    <glyph glyph-name="Edieresis.ss11" horiz-adv-x="585" 
d="M55 700h506v-115h-349v-173h310v-115h-310v-182h350v-115h-507v700zM351 829h36v-36h-36v36zM235 829h36v-36h-36v36z" />
    <glyph glyph-name="Edotaccent.ss11" horiz-adv-x="585" 
d="M55 700h506v-115h-349v-173h310v-115h-310v-182h350v-115h-507v700zM292 828h36v-36h-36v36z" />
    <glyph glyph-name="uni1EB8.ss11" horiz-adv-x="585" 
d="M55 700h506v-115h-349v-173h310v-115h-310v-182h350v-115h-507v700zM293 -62h36v-46h-36v46z" />
    <glyph glyph-name="Egrave.ss11" horiz-adv-x="585" 
d="M55 700h506v-115h-349v-173h310v-115h-310v-182h350v-115h-507v700zM371 768l-231 38v25l231 -53v-10z" />
    <glyph glyph-name="Emacron.ss11" horiz-adv-x="585" 
d="M55 700h506v-115h-349v-173h310v-115h-310v-182h350v-115h-507v700zM186 820h250v-24h-250v24z" />
    <glyph glyph-name="Eogonek.ss11" horiz-adv-x="585" 
d="M55 700h506v-115h-349v-173h310v-115h-310v-182h350v-115h-14l-16 -8q-19 -9 -30 -26t-11 -38q0 -30 24 -49t66 -19h13v-30h-18q-48 0 -77 23.5t-29 61.5q0 26 14 48t39 35v2h-468v700z" />
    <glyph glyph-name="uni1EBC.ss11" horiz-adv-x="585" 
d="M55 700h506v-115h-349v-173h310v-115h-310v-182h350v-115h-507v700zM341.5 757.5q-16.5 11.5 -38.5 35.5q-18 21 -32.5 31.5t-34.5 10.5q-28 0 -47.5 -22t-19.5 -62h-10q0 49 22 77t58 28q25 0 42 -12t37 -35q21 -22 34.5 -32t33.5 -10q28 0 47.5 22t19.5 62h10
q0 -50 -21.5 -77.5t-58.5 -27.5q-25 0 -41.5 11.5z" />
    <glyph glyph-name="Gbreve.ss11" horiz-adv-x="743" 
d="M185.5 28q-73.5 46 -115.5 129.5t-42 193.5q0 108 41.5 191.5t119 129.5t183.5 46q96 0 168 -38t111 -103t43 -145h-159q-2 46 -22.5 83.5t-57 59.5t-83.5 22q-84 0 -130.5 -63t-46.5 -183q0 -121 49.5 -184.5t131.5 -63.5q68 0 112.5 40t54.5 98h-181v114h279
q26 0 40.5 -14t14.5 -39v-302h-134l16 117h-2q-30 -66 -88 -100.5t-137 -34.5q-92 0 -165.5 46zM443 777.5q-29 -23.5 -71 -23.5t-71 23.5t-38 60.5h10q11 -28 37 -44t62 -16t62 16t37 44h10q-9 -37 -38 -60.5z" />
    <glyph glyph-name="Gcaron.ss11" horiz-adv-x="743" 
d="M185.5 28q-73.5 46 -115.5 129.5t-42 193.5q0 108 41.5 191.5t119 129.5t183.5 46q96 0 168 -38t111 -103t43 -145h-159q-2 46 -22.5 83.5t-57 59.5t-83.5 22q-84 0 -130.5 -63t-46.5 -183q0 -121 49.5 -184.5t131.5 -63.5q68 0 112.5 40t54.5 98h-181v114h279
q26 0 40.5 -14t14.5 -39v-302h-134l16 117h-2q-30 -66 -88 -100.5t-137 -34.5q-92 0 -165.5 46zM254 822v10l117 -47h1l117 47v-10l-115 -61h-5z" />
    <glyph glyph-name="Gcircumflex.ss11" horiz-adv-x="743" 
d="M185.5 28q-73.5 46 -115.5 129.5t-42 193.5q0 108 41.5 191.5t119 129.5t183.5 46q96 0 168 -38t111 -103t43 -145h-159q-2 46 -22.5 83.5t-57 59.5t-83.5 22q-84 0 -130.5 -63t-46.5 -183q0 -121 49.5 -184.5t131.5 -63.5q68 0 112.5 40t54.5 98h-181v114h279
q26 0 40.5 -14t14.5 -39v-302h-134l16 117h-2q-30 -66 -88 -100.5t-137 -34.5q-92 0 -165.5 46zM254 771l115 61h5l115 -61v-10l-117 47h-1l-117 -47v10z" />
    <glyph glyph-name="uni0122.ss11" horiz-adv-x="743" 
d="M377 -132v6h-31v55h45v-61q0 -26 -13.5 -42t-41.5 -16v14q41 0 41 44zM69.5 542.5q41.5 83.5 119 129.5t183.5 46q96 0 168 -38t111 -103t43 -145h-159q-2 46 -22.5 83.5t-57 59.5t-83.5 22q-84 0 -130.5 -63t-46.5 -183q0 -121 49.5 -184.5t131.5 -63.5q68 0 112.5 40
t54.5 98h-181v114h279q26 0 40.5 -14t14.5 -39v-302h-134l16 117h-2q-30 -66 -88 -100.5t-137 -34.5q-92 0 -165.5 46t-115.5 129.5t-42 193.5q0 108 41.5 191.5z" />
    <glyph glyph-name="Gdotaccent.ss11" horiz-adv-x="743" 
d="M185.5 28q-73.5 46 -115.5 129.5t-42 193.5q0 108 41.5 191.5t119 129.5t183.5 46q96 0 168 -38t111 -103t43 -145h-159q-2 46 -22.5 83.5t-57 59.5t-83.5 22q-84 0 -130.5 -63t-46.5 -183q0 -121 49.5 -184.5t131.5 -63.5q68 0 112.5 40t54.5 98h-181v114h279
q26 0 40.5 -14t14.5 -39v-302h-134l16 117h-2q-30 -66 -88 -100.5t-137 -34.5q-92 0 -165.5 46zM353 828h36v-36h-36v36z" />
    <glyph glyph-name="uni1E20.ss11" horiz-adv-x="743" 
d="M185.5 28q-73.5 46 -115.5 129.5t-42 193.5q0 108 41.5 191.5t119 129.5t183.5 46q96 0 168 -38t111 -103t43 -145h-159q-2 46 -22.5 83.5t-57 59.5t-83.5 22q-84 0 -130.5 -63t-46.5 -183q0 -121 49.5 -184.5t131.5 -63.5q68 0 112.5 40t54.5 98h-181v114h279
q26 0 40.5 -14t14.5 -39v-302h-134l16 117h-2q-30 -66 -88 -100.5t-137 -34.5q-92 0 -165.5 46zM247 820h250v-24h-250v24z" />
    <glyph glyph-name="uni01E4.ss11" horiz-adv-x="744" 
d="M182 27.5q-73 45.5 -113.5 129.5t-40.5 194q0 109 41 192t120.5 129t189.5 46q94 0 163 -32.5t107.5 -88.5t44.5 -125h-159q-6 54 -47.5 89.5t-108.5 35.5q-86 0 -135 -63t-49 -183q0 -123 51 -185.5t141 -62.5q55 0 100.5 24.5t69.5 70.5h-195v18h203q13 37 13 78h-216
v114h279q26 0 40.5 -14t14.5 -39v-139h45v-18h-45v-198h-134l16 117h-2q-30 -66 -88 -100.5t-139 -34.5q-94 0 -167 45.5z" />
    <glyph glyph-name="Hbar.ss11" horiz-adv-x="673" 
d="M6 561h49v139h156v-139h266v139h156v-139h34v-24h-34v-537h-156v292h-266v-292h-156v537h-49v24zM477 413v124h-266v-124h266z" />
    <glyph glyph-name="Hcircumflex.ss11" horiz-adv-x="688" 
d="M55 700h156v-287h266v287h156v-700h-156v292h-266v-292h-156v700zM226 771l115 61h5l115 -61v-10l-117 47h-1l-117 -47v10z" />
    <glyph glyph-name="Iacute.ss11" horiz-adv-x="267" 
d="M55 700h156v-700h-156v700zM304 831v-25l-231 -38v10z" />
    <glyph glyph-name="Ibreve.ss11" horiz-adv-x="267" 
d="M55 700h156v-700h-156v700zM204 777.5q-29 -23.5 -71 -23.5t-71 23.5t-38 60.5h10q11 -28 37 -44t62 -16t62 16t37 44h10q-9 -37 -38 -60.5z" />
    <glyph glyph-name="uni01CF.ss11" horiz-adv-x="267" 
d="M55 700h156v-700h-156v700zM15 822v10l117 -47h1l117 47v-10l-115 -61h-5z" />
    <glyph glyph-name="Icircumflex.ss11" horiz-adv-x="267" 
d="M55 700h156v-700h-156v700zM15 771l115 61h5l115 -61v-10l-117 47h-1l-117 -47v10z" />
    <glyph glyph-name="Idieresis.ss11" horiz-adv-x="267" 
d="M55 700h156v-700h-156v700zM173 829h36v-36h-36v36zM57 829h36v-36h-36v36z" />
    <glyph glyph-name="Idotaccent.ss11" horiz-adv-x="267" 
d="M55 700h156v-700h-156v700zM114 828h36v-36h-36v36z" />
    <glyph glyph-name="uni1ECA.ss11" horiz-adv-x="267" 
d="M55 700h156v-700h-156v700zM115 -62h36v-46h-36v46z" />
    <glyph glyph-name="Igrave.ss11" horiz-adv-x="267" 
d="M55 700h156v-700h-156v700zM193 768l-231 38v25l231 -53v-10z" />
    <glyph glyph-name="Imacron.ss11" horiz-adv-x="267" 
d="M55 700h156v-700h-156v700zM8 820h250v-24h-250v24z" />
    <glyph glyph-name="Iogonek.ss11" horiz-adv-x="267" 
d="M55 700h156v-700h-15l-16 -8q-19 -9 -30 -26t-11 -38q0 -30 24 -49t66 -19h13v-30h-18q-48 0 -77 23.5t-29 61.5q0 26 14 48t39 35v2h-116v700z" />
    <glyph glyph-name="Itilde.ss11" horiz-adv-x="267" 
d="M55 700h156v-700h-156v700zM163.5 757.5q-16.5 11.5 -38.5 35.5q-18 21 -32.5 31.5t-34.5 10.5q-28 0 -47.5 -22t-19.5 -62h-10q0 49 22 77t58 28q25 0 42 -12t37 -35q21 -22 34.5 -32t33.5 -10q28 0 47.5 22t19.5 62h10q0 -50 -21.5 -77.5t-58.5 -27.5q-25 0 -41.5 11.5
z" />
    <glyph glyph-name="uni004A0301.ss11" horiz-adv-x="597" 
d="M86.5 52q-71.5 70 -71.5 201h156q0 -74 27.5 -112t79.5 -38t79.5 38t27.5 112v447h156v-452q0 -128 -71 -197t-192 -69q-120 0 -191.5 70zM634 831v-25l-231 -38v10z" />
    <glyph glyph-name="Jcircumflex.ss11" horiz-adv-x="597" 
d="M86.5 52q-71.5 70 -71.5 201h156q0 -74 27.5 -112t79.5 -38t79.5 38t27.5 112v447h156v-452q0 -128 -71 -197t-192 -69q-120 0 -191.5 70zM345 771l115 61h5l115 -61v-10l-117 47h-1l-117 -47v10z" />
    <glyph glyph-name="uni0136.ss11" horiz-adv-x="681" 
d="M55 700h156v-296h2l261 296h194l-264 -291l275 -409h-191l-188 294h-2l-87 -95v-199h-156v700zM342 -122v6h-31v55h45v-61q0 -26 -13.5 -42t-41.5 -16v14q41 0 41 44z" />
    <glyph glyph-name="Lacute.ss11" horiz-adv-x="506" 
d="M494 121v-121h-439v700h156v-579h283zM305 831v-25l-231 -38v10z" />
    <glyph glyph-name="Lcaron.ss11" horiz-adv-x="506" 
d="M494 121v-121h-439v700h156v-579h283zM380.5 596.5q9.5 11.5 9.5 35.5v19h-25v49h39v-68q0 -61 -55 -61v14q22 0 31.5 11.5z" />
    <glyph glyph-name="uni013B.ss11" horiz-adv-x="506" 
d="M494 121v-121h-439v700h156v-579h283zM281 -122v6h-31v55h45v-61q0 -26 -13.5 -42t-41.5 -16v14q41 0 41 44z" />
    <glyph glyph-name="Ldot.ss11" horiz-adv-x="506" 
d="M308 359h36v-46h-36v46zM55 700h156v-579h283v-121h-439v700z" />
    <glyph glyph-name="Nacute.ss11" horiz-adv-x="719" 
d="M209 472h-2l1 -120v-352h-153v700h190l265 -466h2l-1 120v346h153v-700h-184zM533 831v-25l-231 -38v10z" />
    <glyph glyph-name="Ncaron.ss11" horiz-adv-x="719" 
d="M209 472h-2l1 -120v-352h-153v700h190l265 -466h2l-1 120v346h153v-700h-184zM244 822v10l117 -47h1l117 47v-10l-115 -61h-5z" />
    <glyph glyph-name="uni0145.ss11" horiz-adv-x="719" 
d="M209 472h-2l1 -120v-352h-153v700h190l265 -466h2l-1 120v346h153v-700h-184zM375 -122v6h-31v55h45v-61q0 -26 -13.5 -42t-41.5 -16v14q41 0 41 44z" />
    <glyph glyph-name="Ntilde.ss11" horiz-adv-x="719" 
d="M209 472h-2l1 -120v-352h-153v700h190l265 -466h2l-1 120v346h153v-700h-184zM392.5 757.5q-16.5 11.5 -38.5 35.5q-18 21 -32.5 31.5t-34.5 10.5q-28 0 -47.5 -22t-19.5 -62h-10q0 49 22 77t58 28q25 0 42 -12t37 -35q21 -22 34.5 -32t33.5 -10q28 0 47.5 22t19.5 62h10
q0 -50 -21.5 -77.5t-58.5 -27.5q-25 0 -41.5 11.5z" />
    <glyph glyph-name="Oacute.ss11" horiz-adv-x="752" 
d="M196.5 24.5q-78.5 42.5 -123.5 125.5t-45 200t45 200t123.5 125.5t179.5 42.5q100 0 179 -42.5t124 -125.5t45 -200t-45 -200t-124 -125.5t-179 -42.5q-101 0 -179.5 42.5zM243.5 164.5q48.5 -61.5 132.5 -61.5t132.5 61.5t48.5 185.5t-48.5 185.5t-132.5 61.5
t-132.5 -61.5t-48.5 -185.5t48.5 -185.5zM547 831v-25l-231 -38v10z" />
    <glyph glyph-name="Obreve.ss11" horiz-adv-x="752" 
d="M196.5 24.5q-78.5 42.5 -123.5 125.5t-45 200t45 200t123.5 125.5t179.5 42.5q100 0 179 -42.5t124 -125.5t45 -200t-45 -200t-124 -125.5t-179 -42.5q-101 0 -179.5 42.5zM243.5 164.5q48.5 -61.5 132.5 -61.5t132.5 61.5t48.5 185.5t-48.5 185.5t-132.5 61.5
t-132.5 -61.5t-48.5 -185.5t48.5 -185.5zM447 777.5q-29 -23.5 -71 -23.5t-71 23.5t-38 60.5h10q11 -28 37 -44t62 -16t62 16t37 44h10q-9 -37 -38 -60.5z" />
    <glyph glyph-name="uni01D1.ss11" horiz-adv-x="752" 
d="M196.5 24.5q-78.5 42.5 -123.5 125.5t-45 200t45 200t123.5 125.5t179.5 42.5q100 0 179 -42.5t124 -125.5t45 -200t-45 -200t-124 -125.5t-179 -42.5q-101 0 -179.5 42.5zM243.5 164.5q48.5 -61.5 132.5 -61.5t132.5 61.5t48.5 185.5t-48.5 185.5t-132.5 61.5
t-132.5 -61.5t-48.5 -185.5t48.5 -185.5zM258 822v10l117 -47h1l117 47v-10l-115 -61h-5z" />
    <glyph glyph-name="Ocircumflex.ss11" horiz-adv-x="752" 
d="M196.5 24.5q-78.5 42.5 -123.5 125.5t-45 200t45 200t123.5 125.5t179.5 42.5q100 0 179 -42.5t124 -125.5t45 -200t-45 -200t-124 -125.5t-179 -42.5q-101 0 -179.5 42.5zM243.5 164.5q48.5 -61.5 132.5 -61.5t132.5 61.5t48.5 185.5t-48.5 185.5t-132.5 61.5
t-132.5 -61.5t-48.5 -185.5t48.5 -185.5zM258 771l115 61h5l115 -61v-10l-117 47h-1l-117 -47v10z" />
    <glyph glyph-name="Odieresis.ss11" horiz-adv-x="752" 
d="M196.5 24.5q-78.5 42.5 -123.5 125.5t-45 200t45 200t123.5 125.5t179.5 42.5q100 0 179 -42.5t124 -125.5t45 -200t-45 -200t-124 -125.5t-179 -42.5q-101 0 -179.5 42.5zM243.5 164.5q48.5 -61.5 132.5 -61.5t132.5 61.5t48.5 185.5t-48.5 185.5t-132.5 61.5
t-132.5 -61.5t-48.5 -185.5t48.5 -185.5zM416 829h36v-36h-36v36zM300 829h36v-36h-36v36z" />
    <glyph glyph-name="uni1ECC.ss11" horiz-adv-x="752" 
d="M196.5 24.5q-78.5 42.5 -123.5 125.5t-45 200t45 200t123.5 125.5t179.5 42.5q100 0 179 -42.5t124 -125.5t45 -200t-45 -200t-124 -125.5t-179 -42.5q-101 0 -179.5 42.5zM243.5 164.5q48.5 -61.5 132.5 -61.5t132.5 61.5t48.5 185.5t-48.5 185.5t-132.5 61.5
t-132.5 -61.5t-48.5 -185.5t48.5 -185.5zM358 -62h36v-46h-36v46z" />
    <glyph glyph-name="Ograve.ss11" horiz-adv-x="752" 
d="M196.5 24.5q-78.5 42.5 -123.5 125.5t-45 200t45 200t123.5 125.5t179.5 42.5q100 0 179 -42.5t124 -125.5t45 -200t-45 -200t-124 -125.5t-179 -42.5q-101 0 -179.5 42.5zM243.5 164.5q48.5 -61.5 132.5 -61.5t132.5 61.5t48.5 185.5t-48.5 185.5t-132.5 61.5
t-132.5 -61.5t-48.5 -185.5t48.5 -185.5zM436 768l-231 38v25l231 -53v-10z" />
    <glyph glyph-name="Ohungarumlaut.ss11" horiz-adv-x="752" 
d="M196.5 24.5q-78.5 42.5 -123.5 125.5t-45 200t45 200t123.5 125.5t179.5 42.5q100 0 179 -42.5t124 -125.5t45 -200t-45 -200t-124 -125.5t-179 -42.5q-101 0 -179.5 42.5zM243.5 164.5q48.5 -61.5 132.5 -61.5t132.5 61.5t48.5 185.5t-48.5 185.5t-132.5 61.5
t-132.5 -61.5t-48.5 -185.5t48.5 -185.5zM378 778l141 53v-25l-141 -38v10zM237 778l141 53v-25l-141 -38v10z" />
    <glyph glyph-name="Omacron.ss11" horiz-adv-x="752" 
d="M196.5 24.5q-78.5 42.5 -123.5 125.5t-45 200t45 200t123.5 125.5t179.5 42.5q100 0 179 -42.5t124 -125.5t45 -200t-45 -200t-124 -125.5t-179 -42.5q-101 0 -179.5 42.5zM243.5 164.5q48.5 -61.5 132.5 -61.5t132.5 61.5t48.5 185.5t-48.5 185.5t-132.5 61.5
t-132.5 -61.5t-48.5 -185.5t48.5 -185.5zM251 820h250v-24h-250v24z" />
    <glyph glyph-name="uni01EA.ss11" horiz-adv-x="752" 
d="M537.5 -145q-28.5 25 -28.5 67q0 29 13.5 55.5t37.5 48.5v1q-79 -45 -184 -45q-101 0 -179.5 42.5t-123.5 125.5t-45 200t45 200t123.5 125.5t179.5 42.5q100 0 179 -42.5t124 -125.5t45 -200q0 -99 -32.5 -174t-91.5 -122l-9 -8q-61 -57 -61 -114q0 -34 23.5 -53
t66.5 -19h13v-30h-18q-49 0 -77.5 25zM243.5 164.5q48.5 -61.5 132.5 -61.5t132.5 61.5t48.5 185.5t-48.5 185.5t-132.5 61.5t-132.5 -61.5t-48.5 -185.5t48.5 -185.5z" />
    <glyph glyph-name="Oslash.ss11" horiz-adv-x="752" 
d="M620 628q50 -48 77 -118t27 -160q0 -117 -45 -200t-124 -125.5t-179 -42.5q-69 0 -128 20t-104 59l-56 -64l-10 8l-1 1l54 67q-49 48 -76 118t-27 159q0 117 45 200t123.5 125.5t179.5 42.5q68 0 126.5 -20t104.5 -58l55 63l10 -8l1 -1zM227 191l136 168l149 171
q-47 67 -136 67q-84 0 -132.5 -61.5t-48.5 -185.5q0 -100 32 -159zM376 103q84 0 132.5 61.5t48.5 185.5q0 98 -33 161l-138 -171l-147 -169q47 -68 137 -68z" />
    <glyph glyph-name="Oslashacute.ss11" horiz-adv-x="752" 
d="M620 628q50 -48 77 -118t27 -160q0 -117 -45 -200t-124 -125.5t-179 -42.5q-69 0 -128 20t-104 59l-56 -64l-10 8l-1 1l54 67q-49 48 -76 118t-27 159q0 117 45 200t123.5 125.5t179.5 42.5q68 0 126.5 -20t104.5 -58l55 63l10 -8l1 -1zM227 191l136 168l149 171
q-47 67 -136 67q-84 0 -132.5 -61.5t-48.5 -185.5q0 -100 32 -159zM376 103q84 0 132.5 61.5t48.5 185.5q0 98 -33 161l-138 -171l-147 -169q47 -68 137 -68zM546 831v-25l-231 -38v10z" />
    <glyph glyph-name="Otilde.ss11" horiz-adv-x="752" 
d="M196.5 24.5q-78.5 42.5 -123.5 125.5t-45 200t45 200t123.5 125.5t179.5 42.5q100 0 179 -42.5t124 -125.5t45 -200t-45 -200t-124 -125.5t-179 -42.5q-101 0 -179.5 42.5zM243.5 164.5q48.5 -61.5 132.5 -61.5t132.5 61.5t48.5 185.5t-48.5 185.5t-132.5 61.5
t-132.5 -61.5t-48.5 -185.5t48.5 -185.5zM406.5 757.5q-16.5 11.5 -38.5 35.5q-18 21 -32.5 31.5t-34.5 10.5q-28 0 -47.5 -22t-19.5 -62h-10q0 49 22 77t58 28q25 0 42 -12t37 -35q21 -22 34.5 -32t33.5 -10q28 0 47.5 22t19.5 62h10q0 -50 -21.5 -77.5t-58.5 -27.5
q-25 0 -41.5 11.5z" />
    <glyph glyph-name="Racute.ss11" horiz-adv-x="650" 
d="M55 700h311q119 0 185 -51t66 -139q0 -69 -42.5 -116t-121.5 -62v-2q59 -21 91 -65t54 -120l40 -145h-163l-27 122q-13 57 -30 86.5t-45.5 41.5t-77.5 12h-84v-262h-156v700zM314 383q71 0 106.5 26t35.5 74q0 46 -31 71t-94 25h-120v-196h103zM491 831v-25l-231 -38v10z
" />
    <glyph glyph-name="Rcaron.ss11" horiz-adv-x="650" 
d="M55 700h311q119 0 185 -51t66 -139q0 -69 -42.5 -116t-121.5 -62v-2q59 -21 91 -65t54 -120l40 -145h-163l-27 122q-13 57 -30 86.5t-45.5 41.5t-77.5 12h-84v-262h-156v700zM314 383q71 0 106.5 26t35.5 74q0 46 -31 71t-94 25h-120v-196h103zM202 822v10l117 -47h1
l117 47v-10l-115 -61h-5z" />
    <glyph glyph-name="uni0156.ss11" horiz-adv-x="650" 
d="M55 700h311q119 0 185 -51t66 -139q0 -69 -42.5 -116t-121.5 -62v-2q59 -21 91 -65t54 -120l40 -145h-163l-27 122q-13 57 -30 86.5t-45.5 41.5t-77.5 12h-84v-262h-156v700zM314 383q71 0 106.5 26t35.5 74q0 46 -31 71t-94 25h-120v-196h103zM345 -122v6h-31v55h45v-61
q0 -26 -13.5 -42t-41.5 -16v14q41 0 41 44z" />
    <glyph glyph-name="Sacute.ss11" horiz-adv-x="670" 
d="M112.5 50.5q-79.5 68.5 -81.5 191.5h166q1 -69 38.5 -104t104.5 -35q62 0 98 29t36 78q0 41 -28 64.5t-86 23.5h-88q-114 0 -172.5 52.5t-58.5 142.5q0 104 76.5 164.5t217.5 60.5q144 0 218.5 -65t76.5 -181h-162q-1 63 -35 94t-100 31q-62 0 -96 -25t-34 -69
q0 -37 26 -58.5t81 -21.5h88q123 0 182.5 -56t59.5 -147q0 -72 -36 -125.5t-104 -83t-162 -29.5q-146 0 -225.5 68.5zM506 831v-25l-231 -38v10z" />
    <glyph glyph-name="uniA78B.ss11" horiz-adv-x="195" 
d="M98 578l-18 222h35v-467h-10z" />
    <glyph glyph-name="Scaron.ss11" horiz-adv-x="670" 
d="M112.5 50.5q-79.5 68.5 -81.5 191.5h166q1 -69 38.5 -104t104.5 -35q62 0 98 29t36 78q0 41 -28 64.5t-86 23.5h-88q-114 0 -172.5 52.5t-58.5 142.5q0 104 76.5 164.5t217.5 60.5q144 0 218.5 -65t76.5 -181h-162q-1 63 -35 94t-100 31q-62 0 -96 -25t-34 -69
q0 -37 26 -58.5t81 -21.5h88q123 0 182.5 -56t59.5 -147q0 -72 -36 -125.5t-104 -83t-162 -29.5q-146 0 -225.5 68.5zM217 822v10l117 -47h1l117 47v-10l-115 -61h-5z" />
    <glyph glyph-name="Scedilla.ss11" horiz-adv-x="670" 
d="M270 -170v25h75q24 0 37.5 12t13.5 31t-13.5 30.5t-37.5 11.5h-22v42q-139 4 -214.5 72.5t-77.5 187.5h166q1 -69 38.5 -104t104.5 -35q62 0 98 29t36 78q0 41 -28 64.5t-86 23.5h-88q-114 0 -172.5 52.5t-58.5 142.5q0 104 76.5 164.5t217.5 60.5q144 0 218.5 -65
t76.5 -181h-162q-1 63 -35 94t-100 31q-62 0 -96 -25t-34 -69q0 -37 26 -58.5t81 -21.5h88q123 0 182.5 -56t59.5 -147q0 -70 -35 -123.5t-101 -83.5t-157 -31v-31h4q34 0 54 -15t20 -44q0 -30 -21 -46t-54 -16h-80z" />
    <glyph glyph-name="Scircumflex.ss11" horiz-adv-x="670" 
d="M112.5 50.5q-79.5 68.5 -81.5 191.5h166q1 -69 38.5 -104t104.5 -35q62 0 98 29t36 78q0 41 -28 64.5t-86 23.5h-88q-114 0 -172.5 52.5t-58.5 142.5q0 104 76.5 164.5t217.5 60.5q144 0 218.5 -65t76.5 -181h-162q-1 63 -35 94t-100 31q-62 0 -96 -25t-34 -69
q0 -37 26 -58.5t81 -21.5h88q123 0 182.5 -56t59.5 -147q0 -72 -36 -125.5t-104 -83t-162 -29.5q-146 0 -225.5 68.5zM217 771l115 61h5l115 -61v-10l-117 47h-1l-117 -47v10z" />
    <glyph glyph-name="uni0218.ss11" horiz-adv-x="670" 
d="M112.5 50.5q-79.5 68.5 -81.5 191.5h166q1 -69 38.5 -104t104.5 -35q62 0 98 29t36 78q0 41 -28 64.5t-86 23.5h-88q-114 0 -172.5 52.5t-58.5 142.5q0 104 76.5 164.5t217.5 60.5q144 0 218.5 -65t76.5 -181h-162q-1 63 -35 94t-100 31q-62 0 -96 -25t-34 -69
q0 -37 26 -58.5t81 -21.5h88q123 0 182.5 -56t59.5 -147q0 -72 -36 -125.5t-104 -83t-162 -29.5q-146 0 -225.5 68.5zM348 -122v6h-31v55h45v-61q0 -26 -13.5 -42t-41.5 -16v14q41 0 41 44z" />
    <glyph glyph-name="Tbar.ss11" horiz-adv-x="623" 
d="M104 340h129v239h-221v121h599v-121h-222v-239h125v-26h-125v-314h-156v314h-129v26z" />
    <glyph glyph-name="Tcaron.ss11" horiz-adv-x="623" 
d="M233 579h-221v121h599v-121h-222v-579h-156v579zM194 822v10l117 -47h1l117 47v-10l-115 -61h-5z" />
    <glyph glyph-name="uni0162.ss11" horiz-adv-x="623" 
d="M233 579h-221v121h599v-121h-222v-579h-156v579zM247 -170v25h75q24 0 37.5 12t13.5 31t-13.5 30.5t-37.5 11.5h-22v60h24v-49h4q34 0 54 -15t20 -44q0 -30 -21 -46t-54 -16h-80z" />
    <glyph glyph-name="uni021A.ss11" horiz-adv-x="623" 
d="M233 579h-221v121h599v-121h-222v-579h-156v579zM325 -122v6h-31v55h45v-61q0 -26 -13.5 -42t-41.5 -16v14q41 0 41 44z" />
    <glyph glyph-name="Uacute.ss11" horiz-adv-x="687" 
d="M195.5 14q-65.5 32 -103 94t-37.5 148v444h156v-437q0 -77 36 -118.5t97 -41.5t96.5 41.5t35.5 118.5v437h156v-444q0 -86 -37.5 -148t-103 -94t-147.5 -32q-83 0 -148.5 32zM515 831v-25l-231 -38v10z" />
    <glyph glyph-name="Ubreve.ss11" horiz-adv-x="687" 
d="M195.5 14q-65.5 32 -103 94t-37.5 148v444h156v-437q0 -77 36 -118.5t97 -41.5t96.5 41.5t35.5 118.5v437h156v-444q0 -86 -37.5 -148t-103 -94t-147.5 -32q-83 0 -148.5 32zM415 777.5q-29 -23.5 -71 -23.5t-71 23.5t-38 60.5h10q11 -28 37 -44t62 -16t62 16t37 44h10
q-9 -37 -38 -60.5z" />
    <glyph glyph-name="uni01D3.ss11" horiz-adv-x="687" 
d="M195.5 14q-65.5 32 -103 94t-37.5 148v444h156v-437q0 -77 36 -118.5t97 -41.5t96.5 41.5t35.5 118.5v437h156v-444q0 -86 -37.5 -148t-103 -94t-147.5 -32q-83 0 -148.5 32zM226 822v10l117 -47h1l117 47v-10l-115 -61h-5z" />
    <glyph glyph-name="Ucircumflex.ss11" horiz-adv-x="687" 
d="M195.5 14q-65.5 32 -103 94t-37.5 148v444h156v-437q0 -77 36 -118.5t97 -41.5t96.5 41.5t35.5 118.5v437h156v-444q0 -86 -37.5 -148t-103 -94t-147.5 -32q-83 0 -148.5 32zM226 771l115 61h5l115 -61v-10l-117 47h-1l-117 -47v10z" />
    <glyph glyph-name="Udieresis.ss11" horiz-adv-x="687" 
d="M195.5 14q-65.5 32 -103 94t-37.5 148v444h156v-437q0 -77 36 -118.5t97 -41.5t96.5 41.5t35.5 118.5v437h156v-444q0 -86 -37.5 -148t-103 -94t-147.5 -32q-83 0 -148.5 32zM384 829h36v-36h-36v36zM268 829h36v-36h-36v36z" />
    <glyph glyph-name="uni1EE4.ss11" horiz-adv-x="687" 
d="M195.5 14q-65.5 32 -103 94t-37.5 148v444h156v-437q0 -77 36 -118.5t97 -41.5t96.5 41.5t35.5 118.5v437h156v-444q0 -86 -37.5 -148t-103 -94t-147.5 -32q-83 0 -148.5 32zM326 -62h36v-46h-36v46z" />
    <glyph glyph-name="Ugrave.ss11" horiz-adv-x="687" 
d="M195.5 14q-65.5 32 -103 94t-37.5 148v444h156v-437q0 -77 36 -118.5t97 -41.5t96.5 41.5t35.5 118.5v437h156v-444q0 -86 -37.5 -148t-103 -94t-147.5 -32q-83 0 -148.5 32zM404 768l-231 38v25l231 -53v-10z" />
    <glyph glyph-name="Uhungarumlaut.ss11" horiz-adv-x="687" 
d="M195.5 14q-65.5 32 -103 94t-37.5 148v444h156v-437q0 -77 36 -118.5t97 -41.5t96.5 41.5t35.5 118.5v437h156v-444q0 -86 -37.5 -148t-103 -94t-147.5 -32q-83 0 -148.5 32zM346 778l141 53v-25l-141 -38v10zM205 778l141 53v-25l-141 -38v10z" />
    <glyph glyph-name="Umacron.ss11" horiz-adv-x="687" 
d="M195.5 14q-65.5 32 -103 94t-37.5 148v444h156v-437q0 -77 36 -118.5t97 -41.5t96.5 41.5t35.5 118.5v437h156v-444q0 -86 -37.5 -148t-103 -94t-147.5 -32q-83 0 -148.5 32zM219 820h250v-24h-250v24z" />
    <glyph glyph-name="Uogonek.ss11" horiz-adv-x="688" 
d="M473.5 -145q-28.5 25 -28.5 67q0 47 34 86q-61 -26 -135 -26q-83 0 -148.5 32t-103 94t-37.5 148v444h156v-437q0 -77 36 -118.5t97 -41.5t96.5 41.5t35.5 118.5v437h156v-444q0 -82 -34.5 -142.5t-95.5 -94.5q-36 -43 -36 -87q0 -34 23.5 -53t66.5 -19h13v-30h-18
q-49 0 -77.5 25z" />
    <glyph glyph-name="Uring.ss11" horiz-adv-x="687" 
d="M195.5 14q-65.5 32 -103 94t-37.5 148v444h156v-437q0 -77 36 -118.5t97 -41.5t96.5 41.5t35.5 118.5v437h156v-444q0 -86 -37.5 -148t-103 -94t-147.5 -32q-83 0 -148.5 32zM296 763q-20 20 -20 48q0 29 20 49t48 20t48 -20t20 -49q0 -28 -19.5 -48t-48.5 -20
q-28 0 -48 20zM308 768q15 -15 36 -15t36 15t15 36t-15 36.5t-36 15.5t-36 -15.5t-15 -36.5t15 -36z" />
    <glyph glyph-name="Utilde.ss11" horiz-adv-x="687" 
d="M195.5 14q-65.5 32 -103 94t-37.5 148v444h156v-437q0 -77 36 -118.5t97 -41.5t96.5 41.5t35.5 118.5v437h156v-444q0 -86 -37.5 -148t-103 -94t-147.5 -32q-83 0 -148.5 32zM374.5 757.5q-16.5 11.5 -38.5 35.5q-18 21 -32.5 31.5t-34.5 10.5q-28 0 -47.5 -22t-19.5 -62
h-10q0 49 22 77t58 28q25 0 42 -12t37 -35q21 -22 34.5 -32t33.5 -10q28 0 47.5 22t19.5 62h10q0 -50 -21.5 -77.5t-58.5 -27.5q-25 0 -41.5 11.5z" />
    <glyph glyph-name="Wacute.ss11" horiz-adv-x="942" 
d="M10 700h161l111 -466h2l105 466h166l104 -466h2l110 466h161l-182 -700h-173l-106 503h-2l-105 -503h-173zM642 831v-25l-231 -38v10z" />
    <glyph glyph-name="Wcircumflex.ss11" horiz-adv-x="942" 
d="M10 700h161l111 -466h2l105 466h166l104 -466h2l110 466h161l-182 -700h-173l-106 503h-2l-105 -503h-173zM353 771l115 61h5l115 -61v-10l-117 47h-1l-117 -47v10z" />
    <glyph glyph-name="Wdieresis.ss11" horiz-adv-x="942" 
d="M10 700h161l111 -466h2l105 466h166l104 -466h2l110 466h161l-182 -700h-173l-106 503h-2l-105 -503h-173zM511 829h36v-36h-36v36zM395 829h36v-36h-36v36z" />
    <glyph glyph-name="Wgrave.ss11" horiz-adv-x="942" 
d="M10 700h161l111 -466h2l105 466h166l104 -466h2l110 466h161l-182 -700h-173l-106 503h-2l-105 -503h-173zM531 768l-231 38v25l231 -53v-10z" />
    <glyph glyph-name="Yacute.ss11" horiz-adv-x="670" 
d="M257 278l-247 422h180l144 -273h2l144 273h180l-247 -422v-278h-156v278zM506 831v-25l-231 -38v10z" />
    <glyph glyph-name="Ycircumflex.ss11" horiz-adv-x="670" 
d="M257 278l-247 422h180l144 -273h2l144 273h180l-247 -422v-278h-156v278zM217 771l115 61h5l115 -61v-10l-117 47h-1l-117 -47v10z" />
    <glyph glyph-name="Ydieresis.ss11" horiz-adv-x="670" 
d="M257 278l-247 422h180l144 -273h2l144 273h180l-247 -422v-278h-156v278zM375 829h36v-36h-36v36zM259 829h36v-36h-36v36z" />
    <glyph glyph-name="Ygrave.ss11" horiz-adv-x="670" 
d="M257 278l-247 422h180l144 -273h2l144 273h180l-247 -422v-278h-156v278zM395 768l-231 38v25l231 -53v-10z" />
    <glyph glyph-name="uni0232.ss11" horiz-adv-x="670" 
d="M257 278l-247 422h180l144 -273h2l144 273h180l-247 -422v-278h-156v278zM210 820h250v-24h-250v24z" />
    <glyph glyph-name="uni1EF8.ss11" horiz-adv-x="670" 
d="M257 278l-247 422h180l144 -273h2l144 273h180l-247 -422v-278h-156v278zM365.5 757.5q-16.5 11.5 -38.5 35.5q-18 21 -32.5 31.5t-34.5 10.5q-28 0 -47.5 -22t-19.5 -62h-10q0 49 22 77t58 28q25 0 42 -12t37 -35q21 -22 34.5 -32t33.5 -10q28 0 47.5 22t19.5 62h10
q0 -50 -21.5 -77.5t-58.5 -27.5q-25 0 -41.5 11.5z" />
    <glyph glyph-name="Zacute.ss11" horiz-adv-x="589" 
d="M14 118l347 456v2h-337v124h541v-114l-347 -456v-2h357v-128h-561v118zM468 831v-25l-231 -38v10z" />
    <glyph glyph-name="Zcaron.ss11" horiz-adv-x="589" 
d="M14 118l347 456v2h-337v124h541v-114l-347 -456v-2h357v-128h-561v118zM179 822v10l117 -47h1l117 47v-10l-115 -61h-5z" />
    <glyph glyph-name="Zdotaccent.ss11" horiz-adv-x="589" 
d="M14 118l347 456v2h-337v124h541v-114l-347 -456v-2h357v-128h-561v118zM278 828h36v-36h-36v36z" />
    <glyph glyph-name="uni013B.loclMAH.ss11" horiz-adv-x="506" 
d="M494 121v-121h-439v700h156v-579h283zM203 -145h75q24 0 37.5 12t13.5 31t-13.5 30.5t-37.5 11.5h-22v11h22q38 0 59 -15t21 -44q0 -30 -21 -46t-54 -16h-80v25z" />
    <glyph glyph-name="uni0145.loclMAH.ss11" horiz-adv-x="719" 
d="M209 472h-2l1 -120v-352h-153v700h190l265 -466h2l-1 120v346h153v-700h-184zM375 -122v6h-31v55h45v-61q0 -26 -13.5 -42t-41.5 -16v14q41 0 41 44z" />
    <glyph glyph-name="Yacute.ss04.ss11" horiz-adv-x="590" 
d="M16 120h229v2l-235 578h168l116 -319h2l116 319h168l-205 -500l43 -112q6 -15 6 -29q0 -26 -17.5 -42.5t-44.5 -16.5h-346v120zM466 831v-25l-231 -38v10z" />
    <glyph glyph-name="Ycircumflex.ss04.ss11" horiz-adv-x="590" 
d="M16 120h229v2l-235 578h168l116 -319h2l116 319h168l-205 -500l43 -112q6 -15 6 -29q0 -26 -17.5 -42.5t-44.5 -16.5h-346v120zM177 771l115 61h5l115 -61v-10l-117 47h-1l-117 -47v10z" />
    <glyph glyph-name="Ydieresis.ss04.ss11" horiz-adv-x="590" 
d="M16 120h229v2l-235 578h168l116 -319h2l116 319h168l-205 -500l43 -112q6 -15 6 -29q0 -26 -17.5 -42.5t-44.5 -16.5h-346v120zM335 829h36v-36h-36v36zM219 829h36v-36h-36v36z" />
    <glyph glyph-name="Ygrave.ss04.ss11" horiz-adv-x="590" 
d="M16 120h229v2l-235 578h168l116 -319h2l116 319h168l-205 -500l43 -112q6 -15 6 -29q0 -26 -17.5 -42.5t-44.5 -16.5h-346v120zM355 768l-231 38v25l231 -53v-10z" />
    <glyph glyph-name="uni0232.ss04.ss11" horiz-adv-x="590" 
d="M16 120h229v2l-235 578h168l116 -319h2l116 319h168l-205 -500l43 -112q6 -15 6 -29q0 -26 -17.5 -42.5t-44.5 -16.5h-346v120zM170 820h250v-24h-250v24z" />
    <glyph glyph-name="uni1EF8.ss04.ss11" horiz-adv-x="590" 
d="M16 120h229v2l-235 578h168l116 -319h2l116 319h168l-205 -500l43 -112q6 -15 6 -29q0 -26 -17.5 -42.5t-44.5 -16.5h-346v120zM325.5 757.5q-16.5 11.5 -38.5 35.5q-18 21 -32.5 31.5t-34.5 10.5q-28 0 -47.5 -22t-19.5 -62h-10q0 49 22 77t58 28q25 0 42 -12t37 -35
q21 -22 34.5 -32t33.5 -10q28 0 47.5 22t19.5 62h10q0 -50 -21.5 -77.5t-58.5 -27.5q-25 0 -41.5 11.5z" />
    <glyph glyph-name="Sacute.ss05.ss11" horiz-adv-x="639" 
d="M57 121h269q56 0 85.5 23.5t29.5 65.5q0 41 -30 64.5t-85 23.5h-67q-69 0 -121 25t-79.5 70t-27.5 103q0 96 69 150t187 54h291v-121h-290q-44 0 -69 -21t-25 -58q0 -36 25.5 -57t68.5 -21h78q75 0 130 -26.5t83.5 -73.5t28.5 -106q0 -67 -34 -116t-95 -74.5t-141 -25.5
h-281v121zM491 831v-25l-231 -38v10z" />
    <glyph glyph-name="Scaron.ss05.ss11" horiz-adv-x="639" 
d="M57 121h269q56 0 85.5 23.5t29.5 65.5q0 41 -30 64.5t-85 23.5h-67q-69 0 -121 25t-79.5 70t-27.5 103q0 96 69 150t187 54h291v-121h-290q-44 0 -69 -21t-25 -58q0 -36 25.5 -57t68.5 -21h78q75 0 130 -26.5t83.5 -73.5t28.5 -106q0 -67 -34 -116t-95 -74.5t-141 -25.5
h-281v121zM202 822v10l117 -47h1l117 47v-10l-115 -61h-5z" />
    <glyph glyph-name="Scedilla.ss05.ss11" horiz-adv-x="639" 
d="M57 121h269q56 0 85.5 23.5t29.5 65.5q0 41 -30 64.5t-85 23.5h-67q-69 0 -121 25t-79.5 70t-27.5 103q0 96 69 150t187 54h291v-121h-290q-44 0 -69 -21t-25 -58q0 -36 25.5 -57t68.5 -21h78q75 0 130 -26.5t83.5 -73.5t28.5 -106q0 -67 -34 -116t-95 -74.5t-141 -25.5
h-281v121zM255 -170v25h75q24 0 37.5 12t13.5 31t-13.5 30.5t-37.5 11.5h-22v60h24v-49h4q34 0 54 -15t20 -44q0 -30 -21 -46t-54 -16h-80z" />
    <glyph glyph-name="Scircumflex.ss05.ss11" horiz-adv-x="639" 
d="M57 121h269q56 0 85.5 23.5t29.5 65.5q0 41 -30 64.5t-85 23.5h-67q-69 0 -121 25t-79.5 70t-27.5 103q0 96 69 150t187 54h291v-121h-290q-44 0 -69 -21t-25 -58q0 -36 25.5 -57t68.5 -21h78q75 0 130 -26.5t83.5 -73.5t28.5 -106q0 -67 -34 -116t-95 -74.5t-141 -25.5
h-281v121zM202 771l115 61h5l115 -61v-10l-117 47h-1l-117 -47v10z" />
    <glyph glyph-name="uni0218.ss05.ss11" horiz-adv-x="639" 
d="M57 121h269q56 0 85.5 23.5t29.5 65.5q0 41 -30 64.5t-85 23.5h-67q-69 0 -121 25t-79.5 70t-27.5 103q0 96 69 150t187 54h291v-121h-290q-44 0 -69 -21t-25 -58q0 -36 25.5 -57t68.5 -21h78q75 0 130 -26.5t83.5 -73.5t28.5 -106q0 -67 -34 -116t-95 -74.5t-141 -25.5
h-281v121zM333 -122v6h-31v55h45v-61q0 -26 -13.5 -42t-41.5 -16v14q41 0 41 44z" />
    <glyph glyph-name="Sacute.ss06.ss11" horiz-adv-x="687" 
d="M180 14q-69 32 -107 90.5t-42 137.5h162q1 -70 42 -104.5t111 -34.5q68 0 106 29.5t38 76.5q0 40 -29.5 64.5t-84.5 24.5h-105q-71 0 -123 25t-79.5 69.5t-27.5 101.5q0 96 69.5 151t191.5 55h320v-121h-319q-48 0 -74 -21t-26 -57t26 -57t73 -21h111q80 0 134.5 -27
t81.5 -73t27 -103q0 -70 -38.5 -124t-109 -84t-164.5 -30q-95 0 -164 32zM517 831v-25l-231 -38v10z" />
    <glyph glyph-name="Scaron.ss06.ss11" horiz-adv-x="687" 
d="M180 14q-69 32 -107 90.5t-42 137.5h162q1 -70 42 -104.5t111 -34.5q68 0 106 29.5t38 76.5q0 40 -29.5 64.5t-84.5 24.5h-105q-71 0 -123 25t-79.5 69.5t-27.5 101.5q0 96 69.5 151t191.5 55h320v-121h-319q-48 0 -74 -21t-26 -57t26 -57t73 -21h111q80 0 134.5 -27
t81.5 -73t27 -103q0 -70 -38.5 -124t-109 -84t-164.5 -30q-95 0 -164 32zM228 822v10l117 -47h1l117 47v-10l-115 -61h-5z" />
    <glyph glyph-name="Scedilla.ss06.ss11" horiz-adv-x="687" 
d="M281 -170v25h75q24 0 37.5 12t13.5 31t-13.5 30.5t-37.5 11.5h-22v42q-138 3 -218 72.5t-85 187.5h162q1 -70 42 -104.5t111 -34.5q68 0 106 29.5t38 76.5q0 40 -29.5 64.5t-84.5 24.5h-105q-71 0 -123 25t-79.5 69.5t-27.5 101.5q0 96 69.5 151t191.5 55h320v-121h-319
q-48 0 -74 -21t-26 -57t26 -57t73 -21h111q80 0 134.5 -27t81.5 -73t27 -103q0 -69 -36.5 -122t-104 -83.5t-157.5 -32.5v-31h4q34 0 54 -15t20 -44q0 -30 -21 -46t-54 -16h-80z" />
    <glyph glyph-name="Scircumflex.ss06.ss11" horiz-adv-x="687" 
d="M180 14q-69 32 -107 90.5t-42 137.5h162q1 -70 42 -104.5t111 -34.5q68 0 106 29.5t38 76.5q0 40 -29.5 64.5t-84.5 24.5h-105q-71 0 -123 25t-79.5 69.5t-27.5 101.5q0 96 69.5 151t191.5 55h320v-121h-319q-48 0 -74 -21t-26 -57t26 -57t73 -21h111q80 0 134.5 -27
t81.5 -73t27 -103q0 -70 -38.5 -124t-109 -84t-164.5 -30q-95 0 -164 32zM228 771l115 61h5l115 -61v-10l-117 47h-1l-117 -47v10z" />
    <glyph glyph-name="uni0218.ss06.ss11" horiz-adv-x="687" 
d="M180 14q-69 32 -107 90.5t-42 137.5h162q1 -70 42 -104.5t111 -34.5q68 0 106 29.5t38 76.5q0 40 -29.5 64.5t-84.5 24.5h-105q-71 0 -123 25t-79.5 69.5t-27.5 101.5q0 96 69.5 151t191.5 55h320v-121h-319q-48 0 -74 -21t-26 -57t26 -57t73 -21h111q80 0 134.5 -27
t81.5 -73t27 -103q0 -70 -38.5 -124t-109 -84t-164.5 -30q-95 0 -164 32zM359 -122v6h-31v55h45v-61q0 -26 -13.5 -42t-41.5 -16v14q41 0 41 44z" />
    <glyph glyph-name="Gbreve.ss07.ss11" horiz-adv-x="743" 
d="M186.5 45q-74.5 45 -116.5 127t-42 189q0 105 41.5 186t119 126t183.5 45q97 0 168 -38t110 -103t44 -145h-159q-3 74 -46 119t-117 45q-84 0 -130.5 -59.5t-46.5 -175.5q0 -117 49.5 -178.5t131.5 -61.5h157v117h-171v115h277q23 0 38 -15t15 -38v-247q0 -22 -15 -37.5
t-38 -15.5h-284q-94 0 -168.5 45zM442 777.5q-29 -23.5 -71 -23.5t-71 23.5t-38 60.5h10q11 -28 37 -44t62 -16t62 16t37 44h10q-9 -37 -38 -60.5z" />
    <glyph glyph-name="Gcaron.ss07.ss11" horiz-adv-x="743" 
d="M186.5 45q-74.5 45 -116.5 127t-42 189q0 105 41.5 186t119 126t183.5 45q97 0 168 -38t110 -103t44 -145h-159q-3 74 -46 119t-117 45q-84 0 -130.5 -59.5t-46.5 -175.5q0 -117 49.5 -178.5t131.5 -61.5h157v117h-171v115h277q23 0 38 -15t15 -38v-247q0 -22 -15 -37.5
t-38 -15.5h-284q-94 0 -168.5 45zM253 822v10l117 -47h1l117 47v-10l-115 -61h-5z" />
    <glyph glyph-name="Gcircumflex.ss07.ss11" horiz-adv-x="743" 
d="M186.5 45q-74.5 45 -116.5 127t-42 189q0 105 41.5 186t119 126t183.5 45q97 0 168 -38t110 -103t44 -145h-159q-3 74 -46 119t-117 45q-84 0 -130.5 -59.5t-46.5 -175.5q0 -117 49.5 -178.5t131.5 -61.5h157v117h-171v115h277q23 0 38 -15t15 -38v-247q0 -22 -15 -37.5
t-38 -15.5h-284q-94 0 -168.5 45zM253 771l115 61h5l115 -61v-10l-117 47h-1l-117 -47v10z" />
    <glyph glyph-name="uni0122.ss07.ss11" horiz-adv-x="743" 
d="M186.5 45q-74.5 45 -116.5 127t-42 189q0 105 41.5 186t119 126t183.5 45q97 0 168 -38t110 -103t44 -145h-159q-3 74 -46 119t-117 45q-84 0 -130.5 -59.5t-46.5 -175.5q0 -117 49.5 -178.5t131.5 -61.5h157v117h-171v115h277q23 0 38 -15t15 -38v-247q0 -22 -15 -37.5
t-38 -15.5h-284q-94 0 -168.5 45zM394 -122v6h-31v55h45v-61q0 -26 -13.5 -42t-41.5 -16v14q41 0 41 44z" />
    <glyph glyph-name="Gdotaccent.ss07.ss11" horiz-adv-x="743" 
d="M186.5 45q-74.5 45 -116.5 127t-42 189q0 105 41.5 186t119 126t183.5 45q97 0 168 -38t110 -103t44 -145h-159q-3 74 -46 119t-117 45q-84 0 -130.5 -59.5t-46.5 -175.5q0 -117 49.5 -178.5t131.5 -61.5h157v117h-171v115h277q23 0 38 -15t15 -38v-247q0 -22 -15 -37.5
t-38 -15.5h-284q-94 0 -168.5 45zM352 828h36v-36h-36v36z" />
    <glyph glyph-name="uni1E20.ss07.ss11" horiz-adv-x="743" 
d="M186.5 45q-74.5 45 -116.5 127t-42 189q0 105 41.5 186t119 126t183.5 45q97 0 168 -38t110 -103t44 -145h-159q-3 74 -46 119t-117 45q-84 0 -130.5 -59.5t-46.5 -175.5q0 -117 49.5 -178.5t131.5 -61.5h157v117h-171v115h277q23 0 38 -15t15 -38v-247q0 -22 -15 -37.5
t-38 -15.5h-284q-94 0 -168.5 45zM246 820h250v-24h-250v24z" />
    <glyph glyph-name="uni01E4.ss07.ss11" horiz-adv-x="745" 
d="M186.5 45q-74.5 45 -116.5 127t-42 189q0 105 41.5 186t120 126t185.5 45q95 0 165.5 -33t109.5 -89t44 -124h-159q-3 56 -45.5 90t-114.5 34q-86 0 -133 -59.5t-47 -175.5q0 -117 49.5 -178.5t131.5 -61.5h169v73h-182v28h182v72h-183v113h277q23 0 38 -15t15 -38v-132
h46v-28h-46v-141q0 -22 -15 -37.5t-38 -15.5h-284q-94 0 -168.5 45z" />
    <glyph glyph-name="Eacute.ss08.ss11" 
d="M81.5 407q-33.5 42 -33.5 102q0 56 28 99t82 67.5t130 24.5h277v-115h-242q-55 0 -85 -23t-30 -65q0 -43 30 -66t85 -23h228v-114h-228q-55 0 -85 -23.5t-30 -66.5t30 -66t85 -23h250v-115h-285q-76 0 -130 24.5t-82 67.5t-28 99q0 60 33.5 102t106.5 56v2
q-73 14 -106.5 56zM508 831v-25l-231 -38v10z" />
    <glyph glyph-name="Ebreve.ss08.ss11" 
d="M81.5 407q-33.5 42 -33.5 102q0 56 28 99t82 67.5t130 24.5h277v-115h-242q-55 0 -85 -23t-30 -65q0 -43 30 -66t85 -23h228v-114h-228q-55 0 -85 -23.5t-30 -66.5t30 -66t85 -23h250v-115h-285q-76 0 -130 24.5t-82 67.5t-28 99q0 60 33.5 102t106.5 56v2
q-73 14 -106.5 56zM408 777.5q-29 -23.5 -71 -23.5t-71 23.5t-38 60.5h10q11 -28 37 -44t62 -16t62 16t37 44h10q-9 -37 -38 -60.5z" />
    <glyph glyph-name="Ecaron.ss08.ss11" 
d="M81.5 407q-33.5 42 -33.5 102q0 56 28 99t82 67.5t130 24.5h277v-115h-242q-55 0 -85 -23t-30 -65q0 -43 30 -66t85 -23h228v-114h-228q-55 0 -85 -23.5t-30 -66.5t30 -66t85 -23h250v-115h-285q-76 0 -130 24.5t-82 67.5t-28 99q0 60 33.5 102t106.5 56v2
q-73 14 -106.5 56zM219 822v10l117 -47h1l117 47v-10l-115 -61h-5z" />
    <glyph glyph-name="Ecircumflex.ss08.ss11" 
d="M81.5 407q-33.5 42 -33.5 102q0 56 28 99t82 67.5t130 24.5h277v-115h-242q-55 0 -85 -23t-30 -65q0 -43 30 -66t85 -23h228v-114h-228q-55 0 -85 -23.5t-30 -66.5t30 -66t85 -23h250v-115h-285q-76 0 -130 24.5t-82 67.5t-28 99q0 60 33.5 102t106.5 56v2
q-73 14 -106.5 56zM219 771l115 61h5l115 -61v-10l-117 47h-1l-117 -47v10z" />
    <glyph glyph-name="Edieresis.ss08.ss11" 
d="M81.5 407q-33.5 42 -33.5 102q0 56 28 99t82 67.5t130 24.5h277v-115h-242q-55 0 -85 -23t-30 -65q0 -43 30 -66t85 -23h228v-114h-228q-55 0 -85 -23.5t-30 -66.5t30 -66t85 -23h250v-115h-285q-76 0 -130 24.5t-82 67.5t-28 99q0 60 33.5 102t106.5 56v2
q-73 14 -106.5 56zM377 829h36v-36h-36v36zM261 829h36v-36h-36v36z" />
    </font>
</defs>
</svg>
