<?xml version="1.0" standalone="no"?>
<!DOCTYPE svg PUBLIC "-//W3C//DTD SVG 1.1//EN" "http://www.w3.org/Graphics/SVG/1.1/DTD/svg11.dtd" >
<svg xmlns="http://www.w3.org/2000/svg" xmlns:xlink="http://www.w3.org/1999/xlink" version="1.1">
<metadata>
Created by FontForge 20201107 at Wed Nov 30 21:20:21 2022
 By 
Copyright (c) 2019 by Folch Studio. All rights reserved.
</metadata>
<defs>
<font id="FFFAcidGrotesk-Light" horiz-adv-x="227" >
  <font-face 
    font-family="FFF Acid Grotesk Light"
    font-weight="300"
    font-stretch="normal"
    units-per-em="1000"
    panose-1="0 0 0 0 0 0 0 0 0 0"
    ascent="800"
    descent="-200"
    x-height="550"
    cap-height="700"
    bbox="-150 -216 2022 1005"
    underline-thickness="80"
    underline-position="-220"
    unicode-range="U+0020-FB02"
  />
<missing-glyph horiz-adv-x="687" 
d="M583 700v-700h-480v700h480zM513 64v572h-340v-572h340z" />
    <glyph glyph-name="fi" unicode="fi" horiz-adv-x="508" 
d="M128.5 737.5q41.5 43.5 117.5 43.5h183v-62h-181q-91 0 -91 -107v-62h223q19 0 31 -12t12 -31v-507h-70v488h-196v-488h-70v488h-77v62h77v64q0 80 41.5 123.5z" />
    <glyph glyph-name="fl" unicode="fl" horiz-adv-x="543" 
d="M125.5 738q38.5 43 113.5 43h226v-781h-70v719h-154q-84 0 -84 -107v-62h133v-62h-133v-488h-70v488h-77v62h77v64q0 81 38.5 124z" />
    <glyph glyph-name="f_f.liga" unicode="ff" horiz-adv-x="607" 
d="M395.5 738q38.5 43 113.5 43h91v-62h-89q-84 0 -84 -107v-62h133v-62h-133v-488h-70v488h-200v-488h-70v488h-77v62h77v64q0 81 38.5 124t113.5 43h91v-62h-89q-84 0 -84 -107v-62h200v64q0 81 38.5 124z" />
    <glyph glyph-name="f_f_i.liga" unicode="ffi" horiz-adv-x="778" 
d="M623 488h-196v-488h-70v488h-200v-488h-70v488h-77v62h77v64q0 81 38.5 124t113.5 43h91v-62h-89q-84 0 -84 -107v-62h200v64q0 80 41.5 123.5t117.5 43.5h183v-62h-181q-91 0 -91 -107v-62h223q19 0 31 -12t12 -31v-507h-70v488z" />
    <glyph glyph-name="f_f_l.liga" unicode="ffl" horiz-adv-x="813" 
d="M395.5 738q38.5 43 113.5 43h226v-781h-70v719h-154q-84 0 -84 -107v-62h133v-62h-133v-488h-70v488h-200v-488h-70v488h-77v62h77v64q0 81 38.5 124t113.5 43h91v-62h-89q-84 0 -84 -107v-62h200v64q0 81 38.5 124z" />
    <glyph glyph-name=".notdef" horiz-adv-x="687" 
d="M583 700v-700h-480v700h480zM513 64v572h-340v-572h340z" />
    <glyph glyph-name=".null" horiz-adv-x="0" 
 />
    <glyph glyph-name="nonmarkingreturn" horiz-adv-x="333" 
 />
    <glyph glyph-name="space" unicode=" " horiz-adv-x="237" 
 />
    <glyph glyph-name="exclam" unicode="!" horiz-adv-x="247" 
d="M85 550v150h77v-150l-12 -403h-53zM83 80h80v-80h-80v80z" />
    <glyph glyph-name="quotedbl" unicode="&#x22;" horiz-adv-x="330" 
d="M72 700h63l-6 -247h-51zM252 700l-6 -247h-52l-6 247h64z" />
    <glyph glyph-name="numbersign" unicode="#" horiz-adv-x="699" 
d="M402 192h-189l-50 -192h-64l50 192h-116v54h130l55 209h-117v54h131l50 191h64l-50 -191h189l50 191h65l-50 -191h115v-54h-129l-55 -209h116v-54h-130l-50 -192h-65zM416 246l55 209h-189l-55 -209h189z" />
    <glyph glyph-name="dollar" unicode="$" horiz-adv-x="630" 
d="M286 -11q-113 10 -175.5 77t-66.5 176h74q4 -89 57.5 -139.5t147.5 -50.5q87 0 138.5 43t51.5 112q0 53 -36.5 86t-120.5 33h-91q-102 0 -156.5 48t-54.5 129q0 88 62.5 144.5t169.5 63.5l-5 89h62l-4 -89q111 -7 171.5 -71.5t65.5 -167.5h-74q-5 84 -52.5 130t-138.5 46
q-85 0 -134 -38.5t-49 -104.5q0 -108 142 -108h91q117 0 171.5 -53t54.5 -135q0 -63 -30 -111.5t-86 -77.5t-132 -32l4 -84h-62z" />
    <glyph glyph-name="percent" unicode="%" horiz-adv-x="903" 
d="M661 700h69l-488 -700h-69zM113 664.5q46 47.5 117 47.5q72 0 118.5 -47.5t46.5 -131.5q0 -55 -21.5 -95.5t-59.5 -61.5t-84 -21t-83 21t-58.5 61.5t-21.5 95.5q0 84 46 131.5zM156 440q29 -33 74 -33t74.5 33t29.5 93q0 59 -29.5 92.5t-74.5 33.5t-74 -33.5t-29 -92.5
q0 -60 29 -93zM554 297.5q46 47.5 117 47.5q72 0 118.5 -47.5t46.5 -131.5q0 -55 -21.5 -95.5t-59.5 -61.5t-84 -21t-83 21t-58.5 61.5t-21.5 95.5q0 84 46 131.5zM597 74q29 -33 74 -33q47 0 75.5 31.5t28.5 93.5q0 61 -29 94t-75 33q-45 0 -74 -33.5t-29 -93.5
q0 -59 29 -92z" />
    <glyph glyph-name="ampersand" unicode="&#x26;" horiz-adv-x="672" 
d="M140.5 10q-49.5 23 -77.5 65t-28 96q0 66 42.5 114.5t120.5 79.5q-46 53 -65.5 95t-19.5 82q0 47 22.5 86t65.5 62t101 23q84 0 129.5 -44.5t45.5 -113.5q0 -129 -169 -197l-5 -2l168 -176q46 77 52 189h72q-3 -68 -22.5 -128.5t-53.5 -109.5l125 -131h-98l-73 77
q-45 -43 -101 -66.5t-119 -23.5t-112.5 23zM147 86q39 -34 108 -34q49 0 93.5 18.5t79.5 53.5l-195 204l-3 -1q-122 -49 -122 -149q0 -58 39 -92zM204 475.5q19 -34.5 64 -82.5l8 3q132 52 132 147q0 47 -29.5 76t-79.5 29q-53 0 -83.5 -30t-30.5 -76q0 -32 19 -66.5z" />
    <glyph glyph-name="quotesingle" unicode="'" horiz-adv-x="193" 
d="M65 700h63l-6 -247h-51z" />
    <glyph glyph-name="parenleft" unicode="(" horiz-adv-x="295" 
d="M125.5 73q-30.5 119 -30.5 255t30.5 255t87.5 217h65q-115 -206 -115 -472q0 -135 29.5 -254t85.5 -218h-65q-57 98 -87.5 217z" />
    <glyph glyph-name="parenright" unicode=")" horiz-adv-x="295" 
d="M169.5 583q30.5 -119 30.5 -255t-30.5 -255t-87.5 -217h-65q115 206 115 472q0 135 -29.5 254t-85.5 218h65q57 -98 87.5 -217z" />
    <glyph glyph-name="asterisk" unicode="*" horiz-adv-x="437" 
d="M76 418l110 121l-160 35l23 70l150 -66l-17 162h73l-17 -164l150 68l23 -71l-160 -34l109 -121l-60 -44l-82 142l-82 -142z" />
    <glyph glyph-name="plus" unicode="+" horiz-adv-x="599" 
d="M57 326h211v221h62v-221h212v-62h-212v-223h-62v223h-211v62z" />
    <glyph glyph-name="comma" unicode="," horiz-adv-x="233" 
d="M107 -56q18 19 18 49v7h-50v92h82v-95q0 -48 -26.5 -76t-72.5 -28v32q31 0 49 19z" />
    <glyph glyph-name="hyphen" unicode="-" horiz-adv-x="527" 
d="M103 311h320v-60h-320v60z" />
    <glyph glyph-name="period" unicode="." horiz-adv-x="222" 
d="M72 83h78v-83h-78v83z" />
    <glyph glyph-name="slash" unicode="/" horiz-adv-x="342" 
d="M80 -100h-63l245 900h63z" />
    <glyph glyph-name="zero" unicode="0" horiz-adv-x="627" 
d="M114.5 82q-69.5 94 -69.5 268t69.5 268t198.5 94t199 -94t70 -268t-70 -268t-199 -94t-198.5 94zM169 125.5q51 -77.5 144 -77.5t144 77t51 225q0 149 -50.5 225.5t-144.5 76.5q-93 0 -144 -76.5t-51 -225.5q0 -147 51 -224.5z" />
    <glyph glyph-name="one" unicode="1" horiz-adv-x="344" 
d="M247 0h-70v547h-2q-6 -36 -32 -55.5t-70 -19.5h-55v69h55q54 0 79.5 27t25.5 85v47h69v-700z" />
    <glyph glyph-name="two" unicode="2" horiz-adv-x="551" 
d="M51 145q18 44 63 84.5t128 81.5l32 16q85 42 120 84.5t35 97.5q0 64 -38.5 103t-107.5 39q-70 0 -112.5 -42.5t-43.5 -121.5h-73q1 69 30.5 120t81 78t117.5 27q65 0 115 -25t78 -70.5t28 -105.5q0 -71 -46.5 -131t-156.5 -115l-34 -17q-66 -33 -100 -61.5t-46 -56.5
t-12 -65h409v-65h-485v43q0 58 18 102z" />
    <glyph glyph-name="three" unicode="3" horiz-adv-x="598" 
d="M115.5 48.5q-69.5 60.5 -70.5 168.5h72q2 -76 51 -122.5t130 -46.5q80 0 131 41t51 110q0 70 -51.5 107.5t-137.5 37.5h-85v61h70q79 0 126.5 34t47.5 94q0 56 -41.5 87.5t-105.5 31.5q-68 0 -111.5 -37t-44.5 -102h-72q2 91 64 145t164 54q66 0 116 -22.5t77 -61.5
t27 -88q0 -60 -41 -103t-117 -52v-2q93 -9 140.5 -61t47.5 -126q0 -62 -32.5 -109t-90.5 -73t-132 -26q-113 0 -182.5 60.5z" />
    <glyph glyph-name="four" unicode="4" horiz-adv-x="544" 
d="M368 155h-347v56l331 489h86v-483h90v-62h-90v-155h-70v155zM368 217v404h-2l-266 -402v-2h268z" />
    <glyph glyph-name="five" unicode="5" horiz-adv-x="590" 
d="M127 44.5q-68 57.5 -79 151.5h70q7 -67 57.5 -107.5t124.5 -40.5q51 0 92 23t64 64t23 93t-24 92t-64.5 62t-90.5 22q-64 0 -110 -27.5t-69 -71.5h-68l56 395h405v-62h-343l-47 -274h2q30 48 79 74t113 26t117.5 -29.5t85 -83t31.5 -122.5q0 -71 -33.5 -126t-91.5 -85.5
t-128 -30.5q-104 0 -172 57.5z" />
    <glyph glyph-name="six" unicode="6" horiz-adv-x="617" 
d="M118 80q-73 93 -73 268q0 178 72.5 271.5t200.5 93.5q69 0 123 -29t84 -78.5t30 -110.5h-70q0 69 -47 113t-120 44q-58 0 -103 -33.5t-71 -101t-26 -167.5q0 -16 2 -50h2q18 76 75.5 120t136.5 44q64 0 118.5 -30t87 -84t32.5 -124q0 -72 -33 -126t-90.5 -83.5
t-129.5 -29.5q-128 0 -201 93zM161 134q24 -41 65 -63.5t91 -22.5t91.5 22.5t65.5 63.5t24 93q0 53 -23.5 93t-64.5 61.5t-91 21.5q-51 0 -92.5 -21.5t-65.5 -61.5t-24 -93q0 -52 24 -93z" />
    <glyph glyph-name="seven" unicode="7" horiz-adv-x="473" 
d="M156.5 234q35.5 122 99.5 229t146 173v2h-392v62h453v-55q-87 -78 -146.5 -187t-89.5 -228t-30 -230h-76q0 112 35.5 234z" />
    <glyph glyph-name="eight" unicode="8" horiz-adv-x="589" 
d="M167 12q-57 24 -89.5 69.5t-32.5 109.5q0 69 40.5 115.5t117.5 63.5v2q-63 15 -98 57t-35 102q0 55 29.5 96.5t80.5 63t114 21.5t114.5 -22t81 -63t29.5 -96q0 -60 -35 -102t-98 -57v-2q77 -17 117.5 -63.5t40.5 -115.5q0 -64 -33 -109.5t-90 -69.5t-127 -24t-127 24z
M167.5 86.5q49.5 -38.5 126.5 -38.5t126.5 38.5t49.5 107.5q0 70 -49.5 108.5t-126.5 38.5t-126.5 -38.5t-49.5 -108.5q0 -69 49.5 -107.5zM185.5 434.5q42.5 -33.5 108.5 -33.5t108.5 33t42.5 93q0 59 -42.5 92t-108.5 33t-108.5 -33t-42.5 -92t42.5 -92.5z" />
    <glyph glyph-name="nine" unicode="9" horiz-adv-x="617" 
d="M499 620q73 -93 73 -268q0 -178 -72.5 -271.5t-200.5 -93.5q-69 0 -123 29t-84 78.5t-30 110.5h70q0 -69 47 -113t120 -44q58 0 103 33.5t71 101t26 167.5q0 16 -2 50h-2q-18 -76 -75.5 -120t-136.5 -44q-64 0 -118.5 30t-87 84t-32.5 124q0 72 33 126t90.5 83.5
t129.5 29.5q128 0 201 -93zM142.5 380q23.5 -40 64.5 -61.5t91 -21.5q51 0 92.5 21.5t65.5 61.5t24 93q0 52 -24 93t-65 63.5t-91 22.5t-91.5 -22.5t-65.5 -63.5t-24 -93q0 -53 23.5 -93z" />
    <glyph glyph-name="colon" unicode=":" horiz-adv-x="222" 
d="M72 505h78v-83h-78v83zM72 83h78v-83h-78v83z" />
    <glyph glyph-name="semicolon" unicode=";" horiz-adv-x="233" 
d="M107 -56q18 19 18 49v7h-50v92h82v-95q0 -48 -26.5 -76t-72.5 -28v32q31 0 49 19zM69 505h78v-83h-78v83z" />
    <glyph glyph-name="less" unicode="&#x3c;" horiz-adv-x="619" 
d="M565 472l-447 -187l447 -188v-68l-512 219v73l512 219v-68z" />
    <glyph glyph-name="equal" unicode="=" horiz-adv-x="585" 
d="M87 441h412v-62h-412v62zM87 240h412v-62h-412v62z" />
    <glyph glyph-name="greater" unicode="&#x3e;" horiz-adv-x="619" 
d="M53 97l447 188l-447 187v68l512 -219v-73l-512 -219v68z" />
    <glyph glyph-name="question" unicode="?" horiz-adv-x="589" 
d="M230.5 254.5q6.5 20.5 24.5 37t54 31.5l28 12q125 54 125 165q0 69 -43.5 110.5t-118.5 41.5q-80 0 -130.5 -45.5t-53.5 -122.5h-73q2 68 35.5 120t91 80t130.5 28q74 0 127.5 -28.5t81 -76.5t27.5 -105q0 -75 -47 -129.5t-127 -89.5l-14 -6q-35 -15 -44.5 -32.5
t-9.5 -52.5v-48h-70v57q0 33 6.5 53.5zM219 80h80v-80h-80v80z" />
    <glyph glyph-name="at" unicode="@" horiz-adv-x="975" 
d="M260 -114.5q-101 55.5 -157 156.5t-56 234t56 231.5t156.5 151.5t231.5 53t230.5 -53t153.5 -151.5t54 -231.5v-232h-211q-44 0 -68.5 19t-24.5 51v1v30h-1q-15 -51 -56 -81.5t-103 -30.5q-56 0 -102 26.5t-73.5 78t-27.5 122.5q0 70 27 121t73.5 77.5t101.5 26.5
q58 0 99.5 -29t56.5 -79h1v62v35h70v-335q0 -33 37 -33h131v170q0 125 -46.5 209t-129.5 125t-192 41q-107 0 -191 -44t-132 -129t-48 -202t48 -204t132.5 -133.5t190.5 -46.5h438v-62h-438q-130 0 -231 55.5zM377 138.5q40 -45.5 104 -45.5q63 1 103 47t40 120t-40 119
t-103 46q-64 0 -104 -45t-40 -120q0 -76 40 -121.5z" />
    <glyph glyph-name="A" unicode="A" horiz-adv-x="636" 
d="M280 700h76l264 -700h-77l-71 196h-308l-71 -196h-76zM449 260l-62 171l-68 189h-2l-67 -189l-62 -171h261z" />
    <glyph glyph-name="B" unicode="B" horiz-adv-x="653" 
d="M81 700h272q94 0 151 -47t57 -126q0 -61 -38 -100t-107 -47v-2q93 -4 144.5 -52t51.5 -125q0 -58 -29.5 -104t-84.5 -71.5t-128 -25.5h-289v700zM360 65q86 0 131 36t45 100t-46 100t-129 36h-208v-272h207zM341 402q68 0 106.5 31t38.5 85q0 53 -36.5 85t-105.5 32h-191
v-233h188z" />
    <glyph glyph-name="C" unicode="C" horiz-adv-x="739" 
d="M203.5 33q-76.5 45 -118.5 127t-42 191t40.5 190.5t116.5 126t180 44.5q94 0 163 -37t107.5 -100.5t45.5 -142.5h-75q-4 59 -33.5 108t-82.5 78.5t-125 29.5q-80 0 -139 -36.5t-90.5 -103.5t-31.5 -157t34 -158t93.5 -104.5t133.5 -36.5q68 0 120.5 30.5t83 77t37.5 95.5
h75q-9 -73 -49 -134t-108 -97t-159 -36q-100 0 -176.5 45z" />
    <glyph glyph-name="D" unicode="D" horiz-adv-x="710" 
d="M81 700h248q100 0 176 -41t119 -120t43 -189t-43 -189t-119 -120t-176 -41h-248v700zM329 65q77 0 136 32.5t92.5 96.5t33.5 156t-33.5 156.5t-92.5 96.5t-136 32h-176v-570h176z" />
    <glyph glyph-name="E" unicode="E" horiz-adv-x="586" 
d="M81 700h474v-65h-401v-249h362v-64h-362v-257h402v-65h-475v700z" />
    <glyph glyph-name="F" unicode="F" horiz-adv-x="574" 
d="M81 700h473v-65h-400v-252h361v-65h-361v-318h-73v700z" />
    <glyph glyph-name="G" unicode="G" horiz-adv-x="763" 
d="M202 33q-75 45 -117 127.5t-42 190.5q0 106 41 188t117.5 127.5t179.5 45.5q94 0 164.5 -37.5t109.5 -101t44 -141.5h-76q-3 59 -33.5 108.5t-84.5 78.5t-124 29q-80 0 -139.5 -38t-91 -105t-31.5 -154q0 -90 34.5 -158t94 -104.5t133.5 -36.5q72 0 126.5 32.5t86.5 83
t39 103.5h-263v65h287q21 0 32 -11t11 -31v-294h-71l16 172h-2q-33 -86 -102 -135t-169 -49q-95 0 -170 45z" />
    <glyph glyph-name="H" unicode="H" horiz-adv-x="688" 
d="M81 700h72v-315h382v315h72v-700h-72v320h-382v-320h-72v700z" />
    <glyph glyph-name="I" unicode="I" horiz-adv-x="234" 
d="M81 700h72v-700h-72v700z" />
    <glyph glyph-name="J" unicode="J" horiz-adv-x="543" 
d="M128 16q-50 28 -78 82.5t-28 132.5h72q0 -88 41 -133.5t107 -45.5t106.5 45.5t40.5 133.5v469h73v-469q0 -78 -28 -132.5t-78 -82.5t-114 -28t-114 28z" />
    <glyph glyph-name="K" unicode="K" horiz-adv-x="625" 
d="M81 700h73v-404h2l347 404h97l-273 -310l290 -390h-93l-243 335h-2l-125 -143v-192h-73v700z" />
    <glyph glyph-name="L" unicode="L" horiz-adv-x="502" 
d="M480 65v-65h-399v700h72v-635h327z" />
    <glyph glyph-name="M" unicode="M" horiz-adv-x="841" 
d="M81 700h105l234 -621h1l234 621h105v-700h-71v495l1 100h-2l-226 -595h-83l-226 595h-2l1 -100v-495h-71v700z" />
    <glyph glyph-name="N" unicode="N" horiz-adv-x="742" 
d="M154 602h-2l1 -100v-502h-72v700h97l410 -601h2l-1 100v501h72v-700h-96z" />
    <glyph glyph-name="O" unicode="O" horiz-adv-x="761" 
d="M211 30.5q-77 42.5 -122.5 124.5t-45.5 195t45.5 195t122.5 124.5t170 42.5t170 -42.5t122.5 -124.5t45.5 -195t-45.5 -195t-122.5 -124.5t-170 -42.5t-170 42.5zM153.5 187.5q34.5 -67.5 94 -101.5t133.5 -34q74 1 133 35t93.5 101t34.5 162t-34.5 162t-93.5 101
t-133 35q-74 0 -133.5 -34t-94 -101.5t-34.5 -162.5t34.5 -162.5z" />
    <glyph glyph-name="P" unicode="P" horiz-adv-x="652" 
d="M81 700h292q107 0 171.5 -55.5t64.5 -151.5t-64.5 -150t-171.5 -54h-220v-289h-72v700zM364 354q81 0 125 36.5t44 102.5t-44.5 104t-124.5 38h-211v-281h211z" />
    <glyph glyph-name="Q" unicode="Q" horiz-adv-x="780" 
d="M624 19q-19 19 -19 48h-2q-45 -39 -102 -59t-120 -20q-93 0 -170 42.5t-122.5 124.5t-45.5 195t45.5 195t122.5 124.5t170 42.5t170 -42.5t122.5 -124.5t45.5 -195q0 -76 -21.5 -139t-60.5 -109q1 -22 10.5 -30.5t29.5 -8.5h60v-63h-59q-35 0 -54 19zM153.5 187.5
q34.5 -67.5 94 -101.5t133.5 -34q48 0 91 15t76 44q0 21 -9.5 30t-30.5 9h-61v63h59q35 0 54 -19t19 -48h2q61 79 61 204q0 95 -34.5 162t-93.5 101t-133 35q-74 0 -133.5 -34t-94 -101.5t-34.5 -162.5t34.5 -162.5z" />
    <glyph glyph-name="R" unicode="R" horiz-adv-x="628" 
d="M81 700h250q124 0 187.5 -51.5t63.5 -136.5q0 -69 -43 -116t-124 -61v-2q60 -20 94 -65t55 -123l40 -145h-75l-33 122q-19 70 -42 108.5t-60 55t-98 16.5h-143v-302h-72v700zM300 366q98 0 152 35.5t54 103.5q0 62 -45 96t-131 34h-177v-269h147z" />
    <glyph glyph-name="S" unicode="S" horiz-adv-x="630" 
d="M120 56.5q-72 68.5 -76 185.5h74q4 -89 57.5 -139.5t147.5 -50.5q87 0 138.5 43t51.5 112q0 53 -36.5 86t-120.5 33h-91q-102 0 -156.5 48t-54.5 129q0 61 31.5 108.5t90 74t136.5 26.5q124 0 191.5 -65.5t72.5 -174.5h-74q-5 84 -52.5 130t-138.5 46q-85 0 -134 -38.5
t-49 -104.5q0 -108 142 -108h91q117 0 171.5 -53t54.5 -135q0 -65 -32.5 -115t-92.5 -78t-141 -28q-129 0 -201 68.5z" />
    <glyph glyph-name="T" unicode="T" horiz-adv-x="597" 
d="M262 635h-245v65h563v-65h-245v-635h-73v635z" />
    <glyph glyph-name="U" unicode="U" horiz-adv-x="701" 
d="M212 21q-61 33 -96 97t-35 154v428h73v-426q0 -71 26 -121t70.5 -75.5t99.5 -25.5q56 1 100.5 26.5t70.5 75t26 120.5v426h73v-428q0 -90 -35 -154t-96.5 -97t-138.5 -33t-138 33z" />
    <glyph glyph-name="V" unicode="V" horiz-adv-x="621" 
d="M13 700h78l152 -429l67 -189h1l67 189l152 429h78l-260 -700h-75z" />
    <glyph glyph-name="W" unicode="W" horiz-adv-x="922" 
d="M13 700h76l169 -611h2l155 611h94l153 -611h2l169 611h76l-205 -700h-84l-158 612h-2l-158 -612h-84z" />
    <glyph glyph-name="X" unicode="X" horiz-adv-x="623" 
d="M520 0l-207 296h-2l-208 -296h-86l249 353l-244 347h86l203 -289h2l202 289h87l-245 -347l250 -353h-87z" />
    <glyph glyph-name="Y" unicode="Y" horiz-adv-x="589" 
d="M258 285l-245 415h83l198 -351h2l197 351h83l-245 -415v-285h-73v285z" />
    <glyph glyph-name="Z" unicode="Z" horiz-adv-x="586" 
d="M22 61l434 572v2h-424v65h523v-55l-434 -572v-2h444v-71h-543v61z" />
    <glyph glyph-name="bracketleft" unicode="[" horiz-adv-x="294" 
d="M63 800h217v-61h-150v-822h150v-61h-217v944z" />
    <glyph glyph-name="backslash" unicode="\" horiz-adv-x="342" 
d="M17 800h63l245 -900h-63z" />
    <glyph glyph-name="bracketright" unicode="]" horiz-adv-x="293" 
d="M230 -144h-217v61h150v822h-150v61h217v-944z" />
    <glyph glyph-name="asciicircum" unicode="^" horiz-adv-x="433" 
d="M189 700h54l133 -307h-63l-97 245l-96 -245h-63z" />
    <glyph glyph-name="underscore" unicode="_" horiz-adv-x="607" 
d="M53 0h500v-61h-500v61z" />
    <glyph glyph-name="grave" unicode="`" horiz-adv-x="180" 
d="M17 755h77l70 -142h-56z" />
    <glyph glyph-name="a" unicode="a" horiz-adv-x="580" 
d="M353 24.5q-54 -36.5 -126 -36.5q-81 0 -132.5 45t-51.5 125q0 81 56 125t148 44h86q96 0 96 72q0 48 -38.5 75.5t-98.5 27.5q-67 0 -109.5 -34t-47.5 -96h-71q7 90 66 140t162 50q102 0 154.5 -48.5t52.5 -129.5v-284q0 -20 8.5 -29t27.5 -9h26v-62h-50q-37 0 -58 20.5
t-21 56.5v54h-2q-23 -70 -77 -106.5zM147.5 79q30.5 -31 92.5 -31q50 0 93 22.5t69.5 68.5t26.5 114v74h-2q-13 -30 -42.5 -45t-78.5 -15h-57q-68 0 -100 -30.5t-32 -78.5t30.5 -79z" />
    <glyph glyph-name="b" unicode="b" horiz-adv-x="653" 
d="M230 27.5q-57 40.5 -82 111.5h-2q1 -25 1 -62v-77h-69v781h70v-308q0 -37 -2 -62h2q25 71 82 111.5t132 40.5q68 0 126 -34t93.5 -99t35.5 -155t-35.5 -155t-93.5 -99t-126 -34q-75 0 -132 40.5zM172.5 156.5q25.5 -51.5 71 -80t101.5 -28.5q57 0 102 28.5t70.5 80
t25.5 118.5t-25.5 118.5t-70.5 80t-102 28.5q-56 0 -101.5 -28t-71 -79.5t-25.5 -119.5q0 -67 25.5 -118.5z" />
    <glyph glyph-name="c" unicode="c" horiz-adv-x="593" 
d="M165 23.5q-61 35.5 -94.5 100.5t-33.5 151t32 151t93 100.5t144 35.5q74 0 128.5 -29.5t85.5 -79.5t37 -113h-74q-5 69 -52 115.5t-125 46.5q-59 0 -103.5 -29t-68.5 -80.5t-24 -117.5q0 -68 26 -119.5t70.5 -79.5t99.5 -28q51 0 89 22.5t60.5 57.5t27.5 71h74
q-8 -57 -39.5 -105t-85.5 -77t-126 -29q-80 0 -141 35.5z" />
    <glyph glyph-name="d" unicode="d" horiz-adv-x="653" 
d="M166 21q-58 34 -93.5 99t-35.5 155t35.5 155t93.5 99t125 34q75 0 132 -40.5t82 -111.5h2q-2 25 -2 62v308h70v-781h-69v77q0 37 1 62h-2q-25 -71 -82 -111.5t-132 -40.5q-67 0 -125 34zM135.5 156.5q25.5 -51.5 70.5 -80t102 -28.5t102 28.5t70.5 80t25.5 118.5
q0 68 -25.5 119.5t-70.5 79.5t-102 28t-102 -28.5t-70.5 -80t-25.5 -118.5t25.5 -118.5z" />
    <glyph glyph-name="e" unicode="e" horiz-adv-x="592" 
d="M163.5 23.5q-60.5 35.5 -93.5 100.5t-33 151q0 87 33.5 152t93 100t137.5 35q75 0 133.5 -32.5t91 -92t32.5 -137.5v-46h-446q3 -92 55 -149t136 -57q63 0 110 32.5t64 88.5h76q-17 -80 -85.5 -130.5t-164.5 -50.5q-79 0 -139.5 35.5zM484 314q-1 83 -49.5 135.5
t-131.5 52.5t-133.5 -53t-56.5 -135h371z" />
    <glyph glyph-name="f" unicode="f" horiz-adv-x="337" 
d="M128.5 736.5q41.5 44.5 124.5 44.5h77v-62h-74q-50 0 -74.5 -26.5t-24.5 -86.5v-56h133v-62h-133v-488h-70v488h-77v62h77v59q0 83 41.5 127.5z" />
    <glyph glyph-name="g" unicode="g" horiz-adv-x="567" 
d="M78.5 -163.5q-43.5 36.5 -43.5 94.5q0 44 25 76t71 43v2q-34 10 -53 32.5t-19 53.5q0 35 24 56.5t64 22.5h19v2q-54 19 -83.5 60.5t-29.5 98.5t28 98.5t77 63.5t110 22q56 0 102 -19t75 -53q4 29 20.5 44.5t43.5 15.5h31v-62h-42q-28 0 -36 -24q22 -38 22 -86
q0 -56 -28.5 -98t-77.5 -65t-110 -23h-86q-28 0 -44 -11.5t-16 -33.5t17 -35.5t48 -13.5h191q78 0 123.5 -40.5t45.5 -107.5q0 -68 -45.5 -109t-124.5 -41h-173q-82 0 -125.5 36.5zM125.5 -117q26.5 -24 77.5 -24h170q47 0 75 24t28 65t-27.5 65.5t-74.5 24.5h-172
q-50 0 -76.5 -24.5t-26.5 -65.5t26.5 -65zM164.5 284q41.5 -32 103.5 -32q63 0 104.5 32.5t41.5 92.5t-41.5 92.5t-104.5 32.5q-62 0 -103.5 -32.5t-41.5 -92.5q0 -61 41.5 -93z" />
    <glyph glyph-name="h" unicode="h" horiz-adv-x="599" 
d="M78 781h70v-262q0 -44 -2 -90h2q21 58 69 95.5t118 37.5q87 0 137.5 -58t50.5 -157v-347h-70v327q0 88 -36 130.5t-99 42.5q-46 0 -84.5 -21.5t-62 -66t-23.5 -110.5v-302h-70v781z" />
    <glyph glyph-name="i" unicode="i" 
d="M78 550h70v-550h-70v550zM76 733h74v-77h-74v77z" />
    <glyph glyph-name="j" unicode="j" horiz-adv-x="226" 
d="M-24 -139h39q30 0 46 19t16 53v617h70v-622q0 -56 -34.5 -92t-89.5 -36h-47v61zM75 733h74v-77h-74v77z" />
    <glyph glyph-name="k" unicode="k" horiz-adv-x="516" 
d="M78 781h70v-528h2l246 297h93l-204 -240l224 -310h-88l-180 257h-2l-91 -108v-149h-70v781z" />
    <glyph glyph-name="l" unicode="l" 
d="M78 781h70v-781h-70v781z" />
    <glyph glyph-name="m" unicode="m" horiz-adv-x="919" 
d="M78 550h69v-115h2q21 55 64 91t109 36q65 0 107.5 -37t57.5 -102h2q19 63 65 101t113 38q83 0 129.5 -58t46.5 -156v-348h-70v339q0 81 -34 121t-91 40q-65 0 -108.5 -49.5t-43.5 -138.5v-312h-70v339q0 81 -33.5 121.5t-90.5 40.5q-42 0 -77.5 -22t-56 -65t-20.5 -103
v-311h-70v550z" />
    <glyph glyph-name="n" unicode="n" horiz-adv-x="599" 
d="M78 550h69v-121h2q24 63 74 98t116 35q87 0 135.5 -59t48.5 -167v-336h-70v327q0 90 -37 131.5t-98 41.5q-45 0 -83.5 -21.5t-62.5 -66.5t-24 -110v-302h-70v550z" />
    <glyph glyph-name="o" unicode="o" horiz-adv-x="613" 
d="M169.5 22q-61.5 34 -97 99t-35.5 154t35.5 154t97 99t136.5 34q76 0 137.5 -34t97 -99t35.5 -154t-35.5 -154t-97 -99t-137.5 -34q-75 0 -136.5 34zM135.5 152.5q25.5 -51.5 70 -78t100.5 -26.5t100.5 26.5t70 78t25.5 122.5t-25.5 122.5t-70 78t-100.5 26.5
t-100.5 -26.5t-70 -78t-25.5 -122.5t25.5 -122.5z" />
    <glyph glyph-name="p" unicode="p" horiz-adv-x="653" 
d="M78 550h69v-77q0 -37 -1 -62h2q25 71 82 111.5t132 40.5q68 0 126 -34t93.5 -99t35.5 -155t-35.5 -155t-93.5 -99t-126 -34q-75 0 -132 40.5t-82 111.5h-2q2 -25 2 -62v-277h-70v750zM172.5 156.5q25.5 -51.5 71 -80t101.5 -28.5q57 0 102 28.5t70.5 80t25.5 118.5
t-25.5 118.5t-70.5 80t-102 28.5q-56 0 -101.5 -28t-71 -79.5t-25.5 -119.5q0 -67 25.5 -118.5z" />
    <glyph glyph-name="q" unicode="q" horiz-adv-x="653" 
d="M507 139h-2q-25 -71 -82 -111.5t-132 -40.5q-67 0 -125 34t-93.5 99t-35.5 155t35.5 155t93.5 99t125 34q75 0 132 -40.5t82 -111.5h2q-1 25 -1 62v77h69v-750h-70v277q0 37 2 62zM135.5 156.5q25.5 -51.5 70.5 -80t102 -28.5t102 28.5t70.5 80.5t25.5 120
q0 67 -25.5 118t-71 79t-101.5 28q-57 0 -102 -28.5t-70.5 -80t-25.5 -118.5t25.5 -118.5z" />
    <glyph glyph-name="r" unicode="r" horiz-adv-x="362" 
d="M78 550h69v-106h2q20 53 53.5 79.5t96.5 26.5h50v-62h-62q-69 0 -104 -42.5t-35 -125.5v-320h-70v550z" />
    <glyph glyph-name="s" unicode="s" horiz-adv-x="516" 
d="M104 41q-60 53 -63 141h73q2 -65 43 -99.5t107 -34.5q63 0 100.5 30t37.5 80q0 44 -30 68.5t-87 24.5h-63q-79 0 -124.5 39t-45.5 106q0 48 24.5 85.5t70.5 59t109 21.5q98 0 153 -51t58 -139h-74q-2 63 -37 96.5t-100 33.5q-60 0 -95.5 -28.5t-35.5 -74.5q0 -40 27 -61
t76 -21h67q84 0 132.5 -43.5t48.5 -113.5q0 -50 -26 -89t-74 -61t-112 -22q-100 0 -160 53z" />
    <glyph glyph-name="t" unicode="t" horiz-adv-x="409" 
d="M169.5 33q-32.5 33 -32.5 96v359h-117v62h117v150h70v-150h177v-62h-177v-356q0 -70 69 -70h113v-62h-123q-64 0 -96.5 33z" />
    <glyph glyph-name="u" unicode="u" horiz-adv-x="595" 
d="M122 47q-49 59 -49 167v336h70v-327q0 -91 37 -132t98 -41q45 0 83.5 21.5t61.5 66t23 110.5v302h70v-550h-68v121h-2q-24 -65 -72.5 -99t-114.5 -34q-88 0 -137 59z" />
    <glyph glyph-name="v" unicode="v" horiz-adv-x="523" 
d="M13 550h77l171 -465h1l170 465h77l-211 -550h-73z" />
    <glyph glyph-name="w" unicode="w" horiz-adv-x="731" 
d="M13 550h74l120 -463h2l114 463h85l114 -463h2l120 463h74l-155 -550h-79l-117 458h-2l-117 -458h-79z" />
    <glyph glyph-name="x" unicode="x" horiz-adv-x="566" 
d="M241 282l-208 268h90l159 -214h2l161 214h90l-210 -268l214 -282h-89l-166 227h-2l-168 -227h-89z" />
    <glyph glyph-name="y" unicode="y" horiz-adv-x="517" 
d="M13 -138h141l69 168l-210 520h77l168 -439h2l168 439h76l-287 -716q-12 -34 -51 -34h-153v62z" />
    <glyph glyph-name="z" unicode="z" horiz-adv-x="498" 
d="M22 53l340 434v1h-320v62h414v-53l-339 -434v-1h359v-62h-454v53z" />
    <glyph glyph-name="braceleft" unicode="{" horiz-adv-x="377" 
d="M192.5 -99.5q-45.5 44.5 -45.5 113.5v194q0 40 -21 64.5t-59 24.5h-34v62h34q38 0 59 24.5t21 64.5v194q0 69 45.5 113.5t114.5 44.5h57v-61h-51q-45 0 -72 -29.5t-27 -76.5v-198q0 -46 -22.5 -75.5t-56.5 -29.5v-4q34 0 56.5 -29.5t22.5 -75.5v-198q0 -47 27 -76.5
t72 -29.5h51v-61h-57q-69 0 -114.5 44.5z" />
    <glyph glyph-name="bar" unicode="|" horiz-adv-x="208" 
d="M70 800h68v-944h-68v944z" />
    <glyph glyph-name="braceright" unicode="}" horiz-adv-x="377" 
d="M184.5 755.5q45.5 -44.5 45.5 -113.5v-194q0 -40 21 -64.5t59 -24.5h34v-62h-34q-38 0 -59 -24.5t-21 -64.5v-194q0 -69 -45.5 -113.5t-114.5 -44.5h-57v61h51q45 0 72 29.5t27 76.5v198q0 46 22.5 75.5t56.5 29.5v4q-34 0 -56.5 29.5t-22.5 75.5v198q0 47 -27 76.5
t-72 29.5h-51v61h57q69 0 114.5 -44.5z" />
    <glyph glyph-name="asciitilde" unicode="~" horiz-adv-x="602" 
d="M89.5 329q36.5 42 96.5 42q40 0 68.5 -17t62.5 -49q27 -26 46 -38.5t43 -12.5q32 0 51 24t19 64h63q0 -66 -36 -107.5t-97 -41.5q-40 0 -67.5 16.5t-63.5 49.5q-27 26 -46 38.5t-43 12.5q-31 0 -50 -24.5t-19 -63.5h-64q0 65 36.5 107z" />
    <glyph glyph-name="uni00A0" unicode="&#xa0;" horiz-adv-x="237" 
 />
    <glyph glyph-name="exclamdown" unicode="&#xa1;" horiz-adv-x="247" 
d="M85 0l12 403h53l12 -403v-150h-77v150zM83 550h80v-80h-80v80z" />
    <glyph glyph-name="cent" unicode="&#xa2;" horiz-adv-x="574" 
d="M270 82q-70 5 -122.5 40t-81.5 94t-29 135q0 113 62 186t171 81l-5 82h62l-4 -82q94 -7 149.5 -63.5t64.5 -139.5h-74q-5 60 -49 101.5t-118 41.5q-85 0 -135.5 -57.5t-50.5 -149.5q0 -63 24.5 -110.5t67 -73t94.5 -25.5q48 0 84.5 19.5t57 50t25.5 62.5h74
q-10 -75 -66.5 -129.5t-147.5 -62.5l4 -82h-62z" />
    <glyph glyph-name="sterling" unicode="&#xa3;" horiz-adv-x="610" 
d="M129.5 81.5q35.5 19.5 55 52t19.5 70.5q0 29 -10.5 55t-29.5 57h-108v62h70q-16 31 -25.5 61.5t-9.5 64.5q0 60 28.5 108t79.5 75t117 27q64 0 115.5 -26t80.5 -75t29 -115h-74q0 69 -42.5 112t-109.5 43t-109 -42.5t-42 -106.5q0 -31 10 -60.5t28 -65.5h223v-62h-193
q27 -59 27 -104q0 -49 -26 -89t-77 -59v-2h390v-62h-498v62q46 0 81.5 19.5z" />
    <glyph glyph-name="currency" unicode="&#xa4;" horiz-adv-x="569" 
d="M155 145l-72 -74l-44 43l74 72q-43 57 -43 129q0 73 44 130l-75 72l44 43l73 -74q55 41 125 41q72 0 129 -44l76 77l44 -43l-79 -76q42 -54 42 -126q0 -70 -41 -125l78 -76l-44 -43l-75 76q-59 -44 -130 -44q-69 0 -126 42zM153 241q20 -34 54 -54t74 -20q41 0 75 20
t54 54t20 74t-20 74t-54 54t-75 20q-40 0 -74 -20t-54 -54t-20 -74t20 -74z" />
    <glyph glyph-name="yen" unicode="&#xa5;" horiz-adv-x="602" 
d="M260 164h-208v61h208v71h-208v60h185v2l-225 342h84l199 -319h2l200 319h84l-225 -342v-2h182v-60h-206v-71h206v-61h-206v-164h-72v164z" />
    <glyph glyph-name="brokenbar" unicode="&#xa6;" horiz-adv-x="208" 
d="M70 800h68v-360h-68v360zM70 216h68v-360h-68v360z" />
    <glyph glyph-name="section" unicode="&#xa7;" horiz-adv-x="560" 
d="M169.5 -178q-49.5 24 -79 65.5t-32.5 94.5h74q5 -54 46 -88.5t102 -34.5q67 0 107.5 35t40.5 86q0 49 -38.5 82.5t-109.5 33.5h-10q-92 0 -145 37.5t-53 103.5q0 46 28 80t83 48v2q-60 17 -92.5 58.5t-32.5 97.5q0 50 26 93t76 69.5t120 26.5q61 0 110.5 -24t79 -65.5
t32.5 -94.5h-74q-5 54 -46 88.5t-102 34.5q-45 0 -78.5 -16.5t-51.5 -44t-18 -60.5q0 -49 39 -82.5t109 -33.5h10q92 0 145 -37.5t53 -103.5q0 -46 -28 -80t-83 -48v-2q61 -17 93 -58.5t32 -97.5q0 -50 -26 -93t-76 -69.5t-120 -26.5q-61 0 -110.5 24zM176.5 182.5
q34.5 -27.5 103.5 -27.5h4q65 0 99.5 28t34.5 73t-34 72t-104 27h-4q-64 0 -99 -28t-35 -73q0 -44 34.5 -71.5z" />
    <glyph glyph-name="dieresis" unicode="&#xa8;" horiz-adv-x="276" 
d="M37 733h73v-77h-73v77zM166 733h73v-77h-73v77z" />
    <glyph glyph-name="copyright" unicode="&#xa9;" horiz-adv-x="808" 
d="M223 35q-83 49 -131.5 133t-48.5 183q0 98 48.5 181.5t131.5 132.5t181 49t181 -49t131.5 -132.5t48.5 -181.5q0 -99 -48.5 -183t-131.5 -133t-181 -49t-181 49zM140 194.5q41 -71.5 111 -113.5t153 -42t152.5 42t110.5 113.5t41 156.5q0 83 -41 154.5t-111 113.5
t-152 42q-83 0 -153 -42t-111 -113t-41 -155q0 -85 41 -156.5zM270.5 495q50.5 55 137.5 55q78 0 123.5 -44t51.5 -111h-59q-4 44 -34.5 74t-81.5 30q-59 0 -94 -41t-35 -107q0 -68 37 -109t92 -41q48 0 78.5 29.5t37.5 66.5h59q-8 -62 -54.5 -104.5t-120.5 -42.5
q-84 0 -136 55t-52 146q0 89 50.5 144z" />
    <glyph glyph-name="ordfeminine" unicode="&#xaa;" horiz-adv-x="355" 
d="M67 396.5q-32 26.5 -32 76.5q0 47 30.5 72t84.5 25h43q61 0 61 41q0 25 -19.5 37.5t-53.5 12.5q-76 0 -82 -67h-50q3 51 36 81.5t96 30.5q64 0 94 -30t30 -81v-152q0 -19 17 -19h17v-45h-23q-27 0 -41.5 13.5t-14.5 37.5v19h-2q-12 -38 -42 -58.5t-71 -20.5
q-46 0 -78 26.5zM102.5 431.5q17.5 -16.5 50.5 -16.5q44 0 73.5 28t29.5 81v39h-2q-5 -18 -25.5 -28t-54.5 -10h-23q-32 0 -49 -14.5t-17 -37.5q0 -25 17.5 -41.5z" />
    <glyph glyph-name="guillemotleft" unicode="&#xab;" horiz-adv-x="515" 
d="M352.5 202q-39.5 46 -98.5 52v51q59 6 98.5 52t46.5 116h67q-9 -70 -49.5 -123t-100.5 -70v-1q60 -17 100.5 -70t49.5 -123h-67q-7 70 -46.5 116zM148.5 202q-39.5 46 -98.5 52v51q59 6 98.5 52t46.5 116h67q-9 -70 -49.5 -123t-100.5 -70v-1q60 -17 100.5 -70t49.5 -123
h-67q-7 70 -46.5 116z" />
    <glyph glyph-name="logicalnot" unicode="&#xac;" horiz-adv-x="540" 
d="M487 347v-238h-55v178h-379v60h434z" />
    <glyph glyph-name="uni00AD" unicode="&#xad;" horiz-adv-x="527" 
d="M103 311h320v-60h-320v60z" />
    <glyph glyph-name="registered" unicode="&#xae;" horiz-adv-x="808" 
d="M223 35q-83 49 -131.5 133t-48.5 183q0 98 48.5 181.5t131.5 132.5t181 49t181 -49t131.5 -132.5t48.5 -181.5q0 -99 -48.5 -183t-131.5 -133t-181 -49t-181 49zM140 194.5q41 -71.5 111 -113.5t153 -42t152.5 42t110.5 113.5t41 156.5q0 83 -41 154.5t-111 113.5
t-152 42q-83 0 -153 -42t-111 -113t-41 -155q0 -85 41 -156.5zM269 539h161q62 0 99 -29t37 -79q0 -40 -24 -66.5t-65 -34.5v-1q25 -10 40.5 -31.5t29.5 -62.5l23 -72h-61l-23 72q-10 31 -20 45.5t-25 20t-43 5.5h-72v-143h-57v376zM420 356q42 0 64 18t22 49
q0 32 -19.5 49.5t-57.5 17.5h-103v-134h94z" />
    <glyph glyph-name="macron" unicode="&#xaf;" horiz-adv-x="323" 
d="M23 717h277v-62h-277v62z" />
    <glyph glyph-name="degree" unicode="&#xb0;" horiz-adv-x="410" 
d="M135.5 453.5q-31.5 18.5 -50 50.5t-18.5 69t18.5 69t50 50.5t69.5 18.5q37 0 69 -18.5t50.5 -50.5t18.5 -69t-18.5 -69t-50.5 -50.5t-69 -18.5q-38 0 -69.5 18.5zM146.5 514.5q24.5 -24.5 58.5 -24.5t58.5 24.5t24.5 58.5t-24.5 58.5t-58.5 24.5t-58.5 -24.5t-24.5 -58.5
t24.5 -58.5z" />
    <glyph glyph-name="plusminus" unicode="&#xb1;" horiz-adv-x="619" 
d="M53 359h225v155h63v-155h224v-62h-224v-158h-63v158h-225v62zM53 87h512v-62h-512v62z" />
    <glyph glyph-name="uni00B2" unicode="&#xb2;" horiz-adv-x="250" 
d="M40 504q17 22 66 48l16 8q29 16 40.5 29.5t11.5 33.5q0 23 -13.5 35t-34.5 12q-24 0 -37.5 -14.5t-13.5 -40.5h-44q0 43 26 67t69 24q41 0 66.5 -22t25.5 -60q0 -63 -79 -101l-18 -9q-31 -15 -41.5 -26.5t-10.5 -25.5h157v-42h-203v28q0 34 17 56z" />
    <glyph glyph-name="uni00B3" unicode="&#xb3;" horiz-adv-x="262" 
d="M55.5 438.5q-29.5 24.5 -29.5 68.5h43q0 -26 18 -41.5t45 -15.5t44 13.5t17 36.5q0 24 -17 38t-46 14h-40v36h34q27 0 43 11.5t16 31.5q0 18 -15 28.5t-36 10.5t-36 -11.5t-15 -33.5h-43q0 36 25.5 58.5t68.5 22.5q41 0 67.5 -20.5t26.5 -51.5q0 -23 -14.5 -40.5
t-42.5 -21.5v-1q34 -6 50.5 -25.5t16.5 -46.5q0 -38 -28.5 -61.5t-75.5 -23.5t-76.5 24.5z" />
    <glyph glyph-name="acute" unicode="&#xb4;" horiz-adv-x="180" 
d="M86 755h78l-87 -142h-60z" />
    <glyph glyph-name="uni00B5" unicode="&#xb5;" horiz-adv-x="601" 
d="M78 550h70v-363q0 -70 39.5 -103.5t93.5 -33.5q44 0 81 22.5t59 66t22 103.5v308h70v-450q0 -20 8.5 -29t27.5 -9h32v-62h-56q-37 0 -57.5 20.5t-20.5 56.5v47h-2q-14 -66 -57 -101t-101 -35q-50 0 -86.5 26t-50.5 72h-2v-286h-70v750z" />
    <glyph glyph-name="paragraph" unicode="&#xb6;" horiz-adv-x="508" 
d="M164 304.5q-54 24.5 -85.5 72t-31.5 111.5t32 112.5t85.5 74t118.5 25.5h57v-900h-57v480q-65 0 -119 24.5zM403 700h58v-900h-58v900z" />
    <glyph glyph-name="periodcentered" unicode="&#xb7;" 
d="M70 304h87v-86h-87v86z" />
    <glyph glyph-name="cedilla" unicode="&#xb8;" horiz-adv-x="218" 
d="M23 -183v51h75q16 0 25.5 8t9.5 21q0 14 -9.5 22t-25.5 8h-27v95h45v-62q38 -2 58.5 -20t20.5 -49q0 -33 -23.5 -53.5t-64.5 -20.5h-84z" />
    <glyph glyph-name="uni00B9" unicode="&#xb9;" horiz-adv-x="166" 
d="M126 420h-42v211h-1q-2 -15 -13 -22.5t-28 -7.5h-22v41h22q42 0 42 39v19h42v-280z" />
    <glyph glyph-name="ordmasculine" unicode="&#xba;" horiz-adv-x="359" 
d="M73.5 418.5q-41.5 44.5 -41.5 121.5t41.5 121t106.5 44q64 0 105.5 -44t41.5 -121t-41.5 -121.5t-105.5 -44.5q-65 0 -106.5 44.5zM110.5 451q26.5 -32 67.5 -32q43 0 70.5 31.5t27.5 89.5t-27.5 89t-70.5 31q-41 0 -67.5 -31.5t-26.5 -88.5t26.5 -89z" />
    <glyph glyph-name="guillemotright" unicode="&#xbb;" horiz-adv-x="515" 
d="M163.5 357q39.5 -46 98.5 -52v-51q-59 -6 -98.5 -52t-46.5 -116h-67q9 70 49.5 123t100.5 70v1q-60 17 -100.5 70t-49.5 123h67q7 -70 46.5 -116zM302.5 209q40.5 53 100.5 70v1q-60 17 -100.5 70t-49.5 123h67q7 -70 46.5 -116t98.5 -52v-51q-59 -6 -98.5 -52
t-46.5 -116h-67q9 70 49.5 123z" />
    <glyph glyph-name="onequarter" unicode="&#xbc;" horiz-adv-x="935" 
d="M193 210h-59v377h-1q-8 -52 -70 -52h-40v58h40q37 0 54.5 18.5t17.5 55.5v33h58v-490zM608 700h63l-488 -700h-63zM550 152l225 338h72v-333h63v-52h-63v-105h-58v105h-239v47zM789 157v272h-1l-174 -271v-1h175z" />
    <glyph glyph-name="onehalf" unicode="&#xbd;" horiz-adv-x="930" 
d="M193 210h-59v377h-1q-8 -52 -70 -52h-40v58h40q37 0 54.5 18.5t17.5 55.5v33h58v-490zM608 700h63l-488 -700h-63zM565 106q12 31 43.5 59.5t89.5 57.5l25 13q56 28 79 55.5t23 64.5q0 43 -26 67.5t-70 24.5q-47 0 -73.5 -27.5t-27.5 -79.5h-60q0 73 45 115.5t116 42.5
q70 0 114 -39t44 -103q0 -49 -31.5 -91.5t-110.5 -82.5l-25 -13q-59 -30 -81.5 -56.5t-22.5 -56.5h283v-57h-346v34q0 41 12 72z" />
    <glyph glyph-name="threequarters" unicode="&#xbe;" horiz-adv-x="1116" 
d="M96.5 243.5q-50.5 42.5 -51.5 118.5h60q1 -50 34 -80.5t87 -30.5q52 0 86 26.5t34 73.5q0 45 -31.5 70.5t-82.5 25.5h-74v51h65q45 0 73.5 22.5t28.5 59.5t-27.5 58t-69.5 21q-45 0 -73 -24t-29 -66h-60q2 64 45.5 102t116.5 38q70 0 113.5 -35t43.5 -89
q0 -41 -25.5 -70.5t-68.5 -38.5v-2q55 -10 85 -45t30 -83q0 -66 -51.5 -105.5t-129.5 -39.5t-128.5 42.5zM789 700h63l-488 -700h-63zM731 152l225 338h72v-333h63v-52h-63v-105h-58v105h-239v47zM970 157v272h-1l-174 -271v-1h175z" />
    <glyph glyph-name="questiondown" unicode="&#xbf;" horiz-adv-x="596" 
d="M355.5 289.5q-6.5 -20.5 -24.5 -37t-54 -31.5l-28 -12q-125 -54 -125 -165q0 -69 43.5 -110.5t118.5 -41.5q80 0 130.5 45.5t53.5 122.5h73q-2 -68 -35.5 -120t-91 -80t-130.5 -28q-74 0 -127.5 28.5t-81 76.5t-27.5 105q0 75 47 129.5t127 89.5l14 6q35 15 44.5 32.5
t9.5 52.5v48h70v-57q0 -33 -6.5 -53.5zM287 544h80v-80h-80v80z" />
    <glyph glyph-name="Agrave" unicode="&#xc0;" horiz-adv-x="636" 
d="M280 700h76l264 -700h-77l-71 196h-308l-71 -196h-76zM449 260l-62 171l-68 189h-2l-67 -189l-62 -171h261zM199 905h77l70 -142h-56z" />
    <glyph glyph-name="Aacute" unicode="&#xc1;" horiz-adv-x="636" 
d="M280 700h76l264 -700h-77l-71 196h-308l-71 -196h-76zM449 260l-62 171l-68 189h-2l-67 -189l-62 -171h261zM357 905h78l-87 -142h-60z" />
    <glyph glyph-name="Acircumflex" unicode="&#xc2;" horiz-adv-x="636" 
d="M280 700h76l264 -700h-77l-71 196h-308l-71 -196h-76zM449 260l-62 171l-68 189h-2l-67 -189l-62 -171h261zM297 905h42l103 -142h-58l-65 74h-2l-66 -74h-57z" />
    <glyph glyph-name="Atilde" unicode="&#xc3;" horiz-adv-x="636" 
d="M280 700h76l264 -700h-77l-71 196h-308l-71 -196h-76zM449 260l-62 171l-68 189h-2l-67 -189l-62 -171h261zM346.5 778.5q-20.5 12.5 -46.5 37.5q-18 18 -31.5 27t-28.5 9q-22 0 -37.5 -19t-15.5 -55v-4h-54v8q0 56 30.5 90t76.5 34q29 0 49.5 -12.5t46.5 -37.5
q18 -18 31.5 -27t28.5 -9q22 0 37.5 19t15.5 55v4h54v-8q0 -56 -30.5 -90t-76.5 -34q-29 0 -49.5 12.5z" />
    <glyph glyph-name="Adieresis" unicode="&#xc4;" horiz-adv-x="636" 
d="M280 700h76l264 -700h-77l-71 196h-308l-71 -196h-76zM449 260l-62 171l-68 189h-2l-67 -189l-62 -171h261zM217 883h73v-77h-73v77zM346 883h73v-77h-73v77z" />
    <glyph glyph-name="Aring" unicode="&#xc5;" horiz-adv-x="636" 
d="M269 671q-17 11 -26.5 28.5t-9.5 38.5q0 33 23.5 57t57.5 24t58 -24t24 -57q0 -39 -31 -63l255 -675h-77l-71 196h-308l-71 -196h-76zM449 260l-62 171l-68 189h-2l-67 -189l-62 -171h261zM287.5 711q10.5 -11 26.5 -11t27 11t11 27t-11 27t-27 11t-26.5 -11t-10.5 -27
t10.5 -27z" />
    <glyph glyph-name="AE" unicode="&#xc6;" horiz-adv-x="896" 
d="M447 196h-268l-86 -196h-76l318 700h530v-65h-344v-252h305v-65h-305v-253h345v-65h-419v196zM447 261v374h-75l-164 -374h239z" />
    <glyph glyph-name="Ccedilla" unicode="&#xc7;" horiz-adv-x="739" 
d="M309 -183v51h75q16 0 25.5 8t9.5 21q0 14 -9.5 22t-25.5 8h-27v62q-93 5 -164.5 51t-110.5 126t-39 185q0 109 40.5 190.5t116.5 126t180 44.5q94 0 163 -37t107.5 -100.5t45.5 -142.5h-75q-4 59 -33.5 108t-82.5 78.5t-125 29.5q-80 0 -139 -36.5t-90.5 -103.5
t-31.5 -157t34 -158t93.5 -104.5t133.5 -36.5q68 0 120.5 30.5t83 77t37.5 95.5h75q-9 -70 -46 -129t-100.5 -96t-147.5 -41v-29q38 -2 58.5 -20t20.5 -49q0 -33 -23.5 -53.5t-64.5 -20.5h-84z" />
    <glyph glyph-name="Egrave" unicode="&#xc8;" horiz-adv-x="586" 
d="M81 700h474v-65h-401v-249h362v-64h-362v-257h402v-65h-475v700zM203 905h77l70 -142h-56z" />
    <glyph glyph-name="Eacute" unicode="&#xc9;" horiz-adv-x="586" 
d="M81 700h474v-65h-401v-249h362v-64h-362v-257h402v-65h-475v700zM361 905h78l-87 -142h-60z" />
    <glyph glyph-name="Ecircumflex" unicode="&#xca;" horiz-adv-x="586" 
d="M81 700h474v-65h-401v-249h362v-64h-362v-257h402v-65h-475v700zM301 905h42l103 -142h-58l-65 74h-2l-66 -74h-57z" />
    <glyph glyph-name="Edieresis" unicode="&#xcb;" horiz-adv-x="586" 
d="M81 700h474v-65h-401v-249h362v-64h-362v-257h402v-65h-475v700zM221 883h73v-77h-73v77zM350 883h73v-77h-73v77z" />
    <glyph glyph-name="Igrave" unicode="&#xcc;" horiz-adv-x="234" 
d="M81 700h72v-700h-72v700zM-1 905h77l70 -142h-56z" />
    <glyph glyph-name="Iacute" unicode="&#xcd;" horiz-adv-x="234" 
d="M81 700h72v-700h-72v700zM157 905h78l-87 -142h-60z" />
    <glyph glyph-name="Icircumflex" unicode="&#xce;" horiz-adv-x="234" 
d="M81 700h72v-700h-72v700zM97 905h42l103 -142h-58l-65 74h-2l-66 -74h-57z" />
    <glyph glyph-name="Idieresis" unicode="&#xcf;" horiz-adv-x="234" 
d="M81 700h72v-700h-72v700zM16 883h73v-77h-73v77zM145 883h73v-77h-73v77z" />
    <glyph glyph-name="Eth" unicode="&#xd0;" horiz-adv-x="710" 
d="M153 316v-251h176q77 0 136 32.5t92.5 96.5t33.5 156t-33.5 156.5t-92.5 96.5t-136 32h-176v-254h138v-65h-138zM13 381h68v319h248q100 0 176 -41t119 -120t43 -189t-43 -189t-119 -120t-176 -41h-248v316h-68v65z" />
    <glyph glyph-name="Ntilde" unicode="&#xd1;" horiz-adv-x="742" 
d="M154 602h-2l1 -100v-502h-72v700h97l410 -601h2l-1 100v501h72v-700h-96zM400.5 778.5q-20.5 12.5 -46.5 37.5q-18 18 -31.5 27t-28.5 9q-22 0 -37.5 -19t-15.5 -55v-4h-54v8q0 56 30.5 90t76.5 34q29 0 49.5 -12.5t46.5 -37.5q18 -18 31.5 -27t28.5 -9q22 0 37.5 19
t15.5 55v4h54v-8q0 -56 -30.5 -90t-76.5 -34q-29 0 -49.5 12.5z" />
    <glyph glyph-name="Ograve" unicode="&#xd2;" horiz-adv-x="761" 
d="M211 30.5q-77 42.5 -122.5 124.5t-45.5 195t45.5 195t122.5 124.5t170 42.5t170 -42.5t122.5 -124.5t45.5 -195t-45.5 -195t-122.5 -124.5t-170 -42.5t-170 42.5zM153.5 187.5q34.5 -67.5 94 -101.5t133.5 -34q74 1 133 35t93.5 101t34.5 162t-34.5 162t-93.5 101
t-133 35q-74 0 -133.5 -34t-94 -101.5t-34.5 -162.5t34.5 -162.5zM262 905h77l70 -142h-56z" />
    <glyph glyph-name="Oacute" unicode="&#xd3;" horiz-adv-x="761" 
d="M211 30.5q-77 42.5 -122.5 124.5t-45.5 195t45.5 195t122.5 124.5t170 42.5t170 -42.5t122.5 -124.5t45.5 -195t-45.5 -195t-122.5 -124.5t-170 -42.5t-170 42.5zM153.5 187.5q34.5 -67.5 94 -101.5t133.5 -34q74 1 133 35t93.5 101t34.5 162t-34.5 162t-93.5 101
t-133 35q-74 0 -133.5 -34t-94 -101.5t-34.5 -162.5t34.5 -162.5zM420 905h78l-87 -142h-60z" />
    <glyph glyph-name="Ocircumflex" unicode="&#xd4;" horiz-adv-x="761" 
d="M211 30.5q-77 42.5 -122.5 124.5t-45.5 195t45.5 195t122.5 124.5t170 42.5t170 -42.5t122.5 -124.5t45.5 -195t-45.5 -195t-122.5 -124.5t-170 -42.5t-170 42.5zM153.5 187.5q34.5 -67.5 94 -101.5t133.5 -34q74 1 133 35t93.5 101t34.5 162t-34.5 162t-93.5 101
t-133 35q-74 0 -133.5 -34t-94 -101.5t-34.5 -162.5t34.5 -162.5zM360 905h42l103 -142h-58l-65 74h-2l-66 -74h-57z" />
    <glyph glyph-name="Otilde" unicode="&#xd5;" horiz-adv-x="761" 
d="M211 30.5q-77 42.5 -122.5 124.5t-45.5 195t45.5 195t122.5 124.5t170 42.5t170 -42.5t122.5 -124.5t45.5 -195t-45.5 -195t-122.5 -124.5t-170 -42.5t-170 42.5zM153.5 187.5q34.5 -67.5 94 -101.5t133.5 -34q74 1 133 35t93.5 101t34.5 162t-34.5 162t-93.5 101
t-133 35q-74 0 -133.5 -34t-94 -101.5t-34.5 -162.5t34.5 -162.5zM409.5 778.5q-20.5 12.5 -46.5 37.5q-18 18 -31.5 27t-28.5 9q-22 0 -37.5 -19t-15.5 -55v-4h-54v8q0 56 30.5 90t76.5 34q29 0 49.5 -12.5t46.5 -37.5q18 -18 31.5 -27t28.5 -9q22 0 37.5 19t15.5 55v4h54
v-8q0 -56 -30.5 -90t-76.5 -34q-29 0 -49.5 12.5z" />
    <glyph glyph-name="Odieresis" unicode="&#xd6;" horiz-adv-x="761" 
d="M211 30.5q-77 42.5 -122.5 124.5t-45.5 195t45.5 195t122.5 124.5t170 42.5t170 -42.5t122.5 -124.5t45.5 -195t-45.5 -195t-122.5 -124.5t-170 -42.5t-170 42.5zM153.5 187.5q34.5 -67.5 94 -101.5t133.5 -34q74 1 133 35t93.5 101t34.5 162t-34.5 162t-93.5 101
t-133 35q-74 0 -133.5 -34t-94 -101.5t-34.5 -162.5t34.5 -162.5zM280 883h73v-77h-73v77zM409 883h73v-77h-73v77z" />
    <glyph glyph-name="multiply" unicode="&#xd7;" horiz-adv-x="565" 
d="M80 121l160 160l-160 159l43 43l160 -159l160 160l42 -43l-160 -160l160 -160l-43 -43l-160 160l-159 -159z" />
    <glyph glyph-name="Oslash" unicode="&#xd8;" horiz-adv-x="763" 
d="M632 607q42 -47 65.5 -112t23.5 -145q0 -113 -45.5 -195t-122.5 -124.5t-170 -42.5q-60 0 -114 18t-97 52l-49 -58h-73v2l80 96q-41 46 -63 110t-22 142q0 113 45.5 195t122.5 124.5t170 42.5q58 0 110.5 -17t95.5 -49l46 54h72l1 -2zM177 153l368 440q-33 27 -74.5 41
t-87.5 14q-74 0 -133.5 -34t-94 -101.5t-34.5 -162.5q0 -119 56 -197zM292.5 67q42.5 -15 90.5 -15q74 1 133 35t93.5 101t34.5 162q0 124 -59 202l-369 -442q34 -28 76.5 -43z" />
    <glyph glyph-name="Ugrave" unicode="&#xd9;" horiz-adv-x="701" 
d="M212 21q-61 33 -96 97t-35 154v428h73v-426q0 -71 26 -121t70.5 -75.5t99.5 -25.5q56 1 100.5 26.5t70.5 75t26 120.5v426h73v-428q0 -90 -35 -154t-96.5 -97t-138.5 -33t-138 33zM232 905h77l70 -142h-56z" />
    <glyph glyph-name="Uacute" unicode="&#xda;" horiz-adv-x="701" 
d="M212 21q-61 33 -96 97t-35 154v428h73v-426q0 -71 26 -121t70.5 -75.5t99.5 -25.5q56 1 100.5 26.5t70.5 75t26 120.5v426h73v-428q0 -90 -35 -154t-96.5 -97t-138.5 -33t-138 33zM390 905h78l-87 -142h-60z" />
    <glyph glyph-name="Ucircumflex" unicode="&#xdb;" horiz-adv-x="701" 
d="M212 21q-61 33 -96 97t-35 154v428h73v-426q0 -71 26 -121t70.5 -75.5t99.5 -25.5q56 1 100.5 26.5t70.5 75t26 120.5v426h73v-428q0 -90 -35 -154t-96.5 -97t-138.5 -33t-138 33zM330 905h42l103 -142h-58l-65 74h-2l-66 -74h-57z" />
    <glyph glyph-name="Udieresis" unicode="&#xdc;" horiz-adv-x="701" 
d="M212 21q-61 33 -96 97t-35 154v428h73v-426q0 -71 26 -121t70.5 -75.5t99.5 -25.5q56 1 100.5 26.5t70.5 75t26 120.5v426h73v-428q0 -90 -35 -154t-96.5 -97t-138.5 -33t-138 33zM249 883h73v-77h-73v77zM378 883h73v-77h-73v77z" />
    <glyph glyph-name="Yacute" unicode="&#xdd;" horiz-adv-x="589" 
d="M258 285l-245 415h83l198 -351h2l197 351h83l-245 -415v-285h-73v285zM334 905h78l-87 -142h-60z" />
    <glyph glyph-name="Thorn" unicode="&#xde;" horiz-adv-x="598" 
d="M81 700h72v-150h180q100 0 161.5 -52.5t61.5 -144.5q0 -91 -61 -142t-162 -51h-180v-160h-72v700zM324 225q73 0 114 34t41 94q0 61 -41 96.5t-114 35.5h-171v-260h171z" />
    <glyph glyph-name="germandbls" unicode="&#xdf;" horiz-adv-x="558" 
d="M474 320q43 -48 43 -120q0 -55 -26.5 -100.5t-77 -72.5t-119.5 -27h-60v64h53q74 0 115.5 38t41.5 99q0 62 -42 99.5t-116 37.5h-42v64h49q53 0 87 33.5t34 86.5q0 54 -36 90t-95 36q-61 0 -96.5 -39.5t-35.5 -104.5v-504h-70v504q0 94 52.5 151t148.5 57
q63 0 109.5 -23.5t71 -64t24.5 -90.5q0 -58 -34.5 -99.5t-96.5 -50.5v-2q75 -14 118 -62z" />
    <glyph glyph-name="agrave" unicode="&#xe0;" horiz-adv-x="580" 
d="M353 24.5q-54 -36.5 -126 -36.5q-81 0 -132.5 45t-51.5 125q0 81 56 125t148 44h86q96 0 96 72q0 48 -38.5 75.5t-98.5 27.5q-67 0 -109.5 -34t-47.5 -96h-71q7 90 66 140t162 50q102 0 154.5 -48.5t52.5 -129.5v-284q0 -20 8.5 -29t27.5 -9h26v-62h-50q-37 0 -58 20.5
t-21 56.5v54h-2q-23 -70 -77 -106.5zM147.5 79q30.5 -31 92.5 -31q50 0 93 22.5t69.5 68.5t26.5 114v74h-2q-13 -30 -42.5 -45t-78.5 -15h-57q-68 0 -100 -30.5t-32 -78.5t30.5 -79zM173 755h77l70 -142h-56z" />
    <glyph glyph-name="aacute" unicode="&#xe1;" horiz-adv-x="580" 
d="M353 24.5q-54 -36.5 -126 -36.5q-81 0 -132.5 45t-51.5 125q0 81 56 125t148 44h86q96 0 96 72q0 48 -38.5 75.5t-98.5 27.5q-67 0 -109.5 -34t-47.5 -96h-71q7 90 66 140t162 50q102 0 154.5 -48.5t52.5 -129.5v-284q0 -20 8.5 -29t27.5 -9h26v-62h-50q-37 0 -58 20.5
t-21 56.5v54h-2q-23 -70 -77 -106.5zM147.5 79q30.5 -31 92.5 -31q50 0 93 22.5t69.5 68.5t26.5 114v74h-2q-13 -30 -42.5 -45t-78.5 -15h-57q-68 0 -100 -30.5t-32 -78.5t30.5 -79zM331 755h78l-87 -142h-60z" />
    <glyph glyph-name="acircumflex" unicode="&#xe2;" horiz-adv-x="580" 
d="M353 24.5q-54 -36.5 -126 -36.5q-81 0 -132.5 45t-51.5 125q0 81 56 125t148 44h86q96 0 96 72q0 48 -38.5 75.5t-98.5 27.5q-67 0 -109.5 -34t-47.5 -96h-71q7 90 66 140t162 50q102 0 154.5 -48.5t52.5 -129.5v-284q0 -20 8.5 -29t27.5 -9h26v-62h-50q-37 0 -58 20.5
t-21 56.5v54h-2q-23 -70 -77 -106.5zM147.5 79q30.5 -31 92.5 -31q50 0 93 22.5t69.5 68.5t26.5 114v74h-2q-13 -30 -42.5 -45t-78.5 -15h-57q-68 0 -100 -30.5t-32 -78.5t30.5 -79zM271 755h42l103 -142h-58l-65 74h-2l-66 -74h-57z" />
    <glyph glyph-name="atilde" unicode="&#xe3;" horiz-adv-x="580" 
d="M353 24.5q-54 -36.5 -126 -36.5q-81 0 -132.5 45t-51.5 125q0 81 56 125t148 44h86q96 0 96 72q0 48 -38.5 75.5t-98.5 27.5q-67 0 -109.5 -34t-47.5 -96h-71q7 90 66 140t162 50q102 0 154.5 -48.5t52.5 -129.5v-284q0 -20 8.5 -29t27.5 -9h26v-62h-50q-37 0 -58 20.5
t-21 56.5v54h-2q-23 -70 -77 -106.5zM147.5 79q30.5 -31 92.5 -31q50 0 93 22.5t69.5 68.5t26.5 114v74h-2q-13 -30 -42.5 -45t-78.5 -15h-57q-68 0 -100 -30.5t-32 -78.5t30.5 -79zM320.5 628.5q-20.5 12.5 -46.5 37.5q-18 18 -31.5 27t-28.5 9q-22 0 -37.5 -19t-15.5 -55
v-4h-54v8q0 56 30.5 90t76.5 34q29 0 49.5 -12.5t46.5 -37.5q18 -18 31.5 -27t28.5 -9q22 0 37.5 19t15.5 55v4h54v-8q0 -56 -30.5 -90t-76.5 -34q-29 0 -49.5 12.5z" />
    <glyph glyph-name="adieresis" unicode="&#xe4;" horiz-adv-x="580" 
d="M353 24.5q-54 -36.5 -126 -36.5q-81 0 -132.5 45t-51.5 125q0 81 56 125t148 44h86q96 0 96 72q0 48 -38.5 75.5t-98.5 27.5q-67 0 -109.5 -34t-47.5 -96h-71q7 90 66 140t162 50q102 0 154.5 -48.5t52.5 -129.5v-284q0 -20 8.5 -29t27.5 -9h26v-62h-50q-37 0 -58 20.5
t-21 56.5v54h-2q-23 -70 -77 -106.5zM147.5 79q30.5 -31 92.5 -31q50 0 93 22.5t69.5 68.5t26.5 114v74h-2q-13 -30 -42.5 -45t-78.5 -15h-57q-68 0 -100 -30.5t-32 -78.5t30.5 -79zM191 733h73v-77h-73v77zM320 733h73v-77h-73v77z" />
    <glyph glyph-name="aring" unicode="&#xe5;" horiz-adv-x="580" 
d="M353 24.5q-54 -36.5 -126 -36.5q-81 0 -132.5 45t-51.5 125q0 81 56 125t148 44h86q96 0 96 72q0 48 -38.5 75.5t-98.5 27.5q-67 0 -109.5 -34t-47.5 -96h-71q7 90 66 140t162 50q102 0 154.5 -48.5t52.5 -129.5v-284q0 -20 8.5 -29t27.5 -9h26v-62h-50q-37 0 -58 20.5
t-21 56.5v54h-2q-23 -70 -77 -106.5zM147.5 79q30.5 -31 92.5 -31q50 0 93 22.5t69.5 68.5t26.5 114v74h-2q-13 -30 -42.5 -45t-78.5 -15h-57q-68 0 -100 -30.5t-32 -78.5t30.5 -79zM233.5 629.5q-23.5 23.5 -23.5 57.5q0 33 23.5 57t57.5 24t58 -24t24 -57q0 -34 -24 -57.5
t-58 -23.5t-57.5 23.5zM264.5 660q10.5 -11 26.5 -11t27 11t11 27t-11 27t-27 11t-26.5 -11t-10.5 -27t10.5 -27z" />
    <glyph glyph-name="ae" unicode="&#xe6;" horiz-adv-x="973" 
d="M99.5 32q-56.5 44 -56.5 127q0 81 54.5 124.5t145.5 43.5h96q97 0 97 71q0 48 -40.5 76t-100.5 28q-67 0 -112 -34.5t-50 -95.5h-72q7 88 69 139t160 51q77 0 128 -32.5t65 -96.5h2q28 64 83 96.5t125 32.5q71 0 126 -32.5t86 -92t31 -137.5v-46h-431q4 -92 54 -149
t133 -57q61 0 103 32.5t61 88.5h75q-18 -80 -83 -130.5t-155 -50.5q-81 0 -144.5 45t-86.5 129h-2q-22 -82 -81.5 -128t-141.5 -46q-81 0 -137.5 44zM151 79q34 -31 95 -31q50 0 93.5 23t70 70.5t26.5 118.5v66h-2q-14 -29 -43 -44t-79 -15h-67q-64 0 -96 -30.5t-32 -77.5
q0 -49 34 -80zM862 314q-1 84 -46 136t-123 52q-80 0 -130.5 -53.5t-56.5 -134.5h356z" />
    <glyph glyph-name="ccedilla" unicode="&#xe7;" horiz-adv-x="593" 
d="M236 -183v51h75q16 0 25.5 8t9.5 21q0 14 -9.5 22t-25.5 8h-27v62q-74 5 -130 41.5t-86.5 99.5t-30.5 145q0 86 32 151t93 100.5t144 35.5q74 0 128.5 -29.5t85.5 -79.5t37 -113h-74q-5 69 -52 115.5t-125 46.5q-59 0 -103.5 -29t-68.5 -80.5t-24 -117.5q0 -68 26 -119.5
t70.5 -79.5t99.5 -28q51 0 89 22.5t60.5 57.5t27.5 71h74q-7 -54 -36 -100t-78 -75.5t-114 -34.5v-29q38 -2 58.5 -20t20.5 -49q0 -33 -23.5 -53.5t-64.5 -20.5h-84z" />
    <glyph glyph-name="egrave" unicode="&#xe8;" horiz-adv-x="592" 
d="M163.5 23.5q-60.5 35.5 -93.5 100.5t-33 151q0 87 33.5 152t93 100t137.5 35q75 0 133.5 -32.5t91 -92t32.5 -137.5v-46h-446q3 -92 55 -149t136 -57q63 0 110 32.5t64 88.5h76q-17 -80 -85.5 -130.5t-164.5 -50.5q-79 0 -139.5 35.5zM484 314q-1 83 -49.5 135.5
t-131.5 52.5t-133.5 -53t-56.5 -135h371zM178 755h77l70 -142h-56z" />
    <glyph glyph-name="eacute" unicode="&#xe9;" horiz-adv-x="592" 
d="M163.5 23.5q-60.5 35.5 -93.5 100.5t-33 151q0 87 33.5 152t93 100t137.5 35q75 0 133.5 -32.5t91 -92t32.5 -137.5v-46h-446q3 -92 55 -149t136 -57q63 0 110 32.5t64 88.5h76q-17 -80 -85.5 -130.5t-164.5 -50.5q-79 0 -139.5 35.5zM484 314q-1 83 -49.5 135.5
t-131.5 52.5t-133.5 -53t-56.5 -135h371zM336 755h78l-87 -142h-60z" />
    <glyph glyph-name="ecircumflex" unicode="&#xea;" horiz-adv-x="592" 
d="M163.5 23.5q-60.5 35.5 -93.5 100.5t-33 151q0 87 33.5 152t93 100t137.5 35q75 0 133.5 -32.5t91 -92t32.5 -137.5v-46h-446q3 -92 55 -149t136 -57q63 0 110 32.5t64 88.5h76q-17 -80 -85.5 -130.5t-164.5 -50.5q-79 0 -139.5 35.5zM484 314q-1 83 -49.5 135.5
t-131.5 52.5t-133.5 -53t-56.5 -135h371zM276 755h42l103 -142h-58l-65 74h-2l-66 -74h-57z" />
    <glyph glyph-name="edieresis" unicode="&#xeb;" horiz-adv-x="592" 
d="M163.5 23.5q-60.5 35.5 -93.5 100.5t-33 151q0 87 33.5 152t93 100t137.5 35q75 0 133.5 -32.5t91 -92t32.5 -137.5v-46h-446q3 -92 55 -149t136 -57q63 0 110 32.5t64 88.5h76q-17 -80 -85.5 -130.5t-164.5 -50.5q-79 0 -139.5 35.5zM484 314q-1 83 -49.5 135.5
t-131.5 52.5t-133.5 -53t-56.5 -135h371zM195 733h73v-77h-73v77zM324 733h73v-77h-73v77z" />
    <glyph glyph-name="igrave" unicode="&#xec;" 
d="M78 550h70v-550h-70v550zM-5 755h77l70 -142h-56z" />
    <glyph glyph-name="iacute" unicode="&#xed;" 
d="M78 550h70v-550h-70v550zM153 755h78l-87 -142h-60z" />
    <glyph glyph-name="icircumflex" unicode="&#xee;" 
d="M78 550h70v-550h-70v550zM93 755h42l103 -142h-58l-65 74h-2l-66 -74h-57z" />
    <glyph glyph-name="idieresis" unicode="&#xef;" 
d="M78 550h70v-550h-70v550zM12 733h73v-77h-73v77zM141 733h73v-77h-73v77z" />
    <glyph glyph-name="eth" unicode="&#xf0;" horiz-adv-x="605" 
d="M169 22.5q-61 34.5 -96.5 100t-35.5 153.5t34 152.5t92 98.5t127 34q75 0 130.5 -39t78.5 -114h2q-19 146 -122 257l-147 -56v59l104 40q-55 48 -127 90v2h121q45 -32 77 -65l135 52v-59l-97 -37q59 -75 91.5 -171.5t32.5 -202.5t-33 -180t-92.5 -111.5t-138.5 -37.5
q-75 0 -136 34.5zM136 153.5q26 -51.5 70.5 -78t98.5 -26.5q53 0 96.5 27t68.5 78.5t25 122.5q0 72 -25 122.5t-68.5 76t-98.5 25.5q-85 0 -139 -58t-54 -166q0 -72 26 -123.5z" />
    <glyph glyph-name="ntilde" unicode="&#xf1;" horiz-adv-x="599" 
d="M78 550h69v-121h2q24 63 74 98t116 35q87 0 135.5 -59t48.5 -167v-336h-70v327q0 90 -37 131.5t-98 41.5q-45 0 -83.5 -21.5t-62.5 -66.5t-24 -110v-302h-70v550zM327.5 628.5q-20.5 12.5 -46.5 37.5q-18 18 -31.5 27t-28.5 9q-22 0 -37.5 -19t-15.5 -55v-4h-54v8
q0 56 30.5 90t76.5 34q29 0 49.5 -12.5t46.5 -37.5q18 -18 31.5 -27t28.5 -9q22 0 37.5 19t15.5 55v4h54v-8q0 -56 -30.5 -90t-76.5 -34q-29 0 -49.5 12.5z" />
    <glyph glyph-name="ograve" unicode="&#xf2;" horiz-adv-x="613" 
d="M169.5 22q-61.5 34 -97 99t-35.5 154t35.5 154t97 99t136.5 34q76 0 137.5 -34t97 -99t35.5 -154t-35.5 -154t-97 -99t-137.5 -34q-75 0 -136.5 34zM135.5 152.5q25.5 -51.5 70 -78t100.5 -26.5t100.5 26.5t70 78t25.5 122.5t-25.5 122.5t-70 78t-100.5 26.5
t-100.5 -26.5t-70 -78t-25.5 -122.5t25.5 -122.5zM188 755h77l70 -142h-56z" />
    <glyph glyph-name="oacute" unicode="&#xf3;" horiz-adv-x="613" 
d="M169.5 22q-61.5 34 -97 99t-35.5 154t35.5 154t97 99t136.5 34q76 0 137.5 -34t97 -99t35.5 -154t-35.5 -154t-97 -99t-137.5 -34q-75 0 -136.5 34zM135.5 152.5q25.5 -51.5 70 -78t100.5 -26.5t100.5 26.5t70 78t25.5 122.5t-25.5 122.5t-70 78t-100.5 26.5
t-100.5 -26.5t-70 -78t-25.5 -122.5t25.5 -122.5zM346 755h78l-87 -142h-60z" />
    <glyph glyph-name="ocircumflex" unicode="&#xf4;" horiz-adv-x="613" 
d="M169.5 22q-61.5 34 -97 99t-35.5 154t35.5 154t97 99t136.5 34q76 0 137.5 -34t97 -99t35.5 -154t-35.5 -154t-97 -99t-137.5 -34q-75 0 -136.5 34zM135.5 152.5q25.5 -51.5 70 -78t100.5 -26.5t100.5 26.5t70 78t25.5 122.5t-25.5 122.5t-70 78t-100.5 26.5
t-100.5 -26.5t-70 -78t-25.5 -122.5t25.5 -122.5zM286 755h42l103 -142h-58l-65 74h-2l-66 -74h-57z" />
    <glyph glyph-name="otilde" unicode="&#xf5;" horiz-adv-x="613" 
d="M169.5 22q-61.5 34 -97 99t-35.5 154t35.5 154t97 99t136.5 34q76 0 137.5 -34t97 -99t35.5 -154t-35.5 -154t-97 -99t-137.5 -34q-75 0 -136.5 34zM135.5 152.5q25.5 -51.5 70 -78t100.5 -26.5t100.5 26.5t70 78t25.5 122.5t-25.5 122.5t-70 78t-100.5 26.5
t-100.5 -26.5t-70 -78t-25.5 -122.5t25.5 -122.5zM334.5 628.5q-20.5 12.5 -46.5 37.5q-18 18 -31.5 27t-28.5 9q-22 0 -37.5 -19t-15.5 -55v-4h-54v8q0 56 30.5 90t76.5 34q29 0 49.5 -12.5t46.5 -37.5q18 -18 31.5 -27t28.5 -9q22 0 37.5 19t15.5 55v4h54v-8
q0 -56 -30.5 -90t-76.5 -34q-29 0 -49.5 12.5z" />
    <glyph glyph-name="odieresis" unicode="&#xf6;" horiz-adv-x="613" 
d="M169.5 22q-61.5 34 -97 99t-35.5 154t35.5 154t97 99t136.5 34q76 0 137.5 -34t97 -99t35.5 -154t-35.5 -154t-97 -99t-137.5 -34q-75 0 -136.5 34zM135.5 152.5q25.5 -51.5 70 -78t100.5 -26.5t100.5 26.5t70 78t25.5 122.5t-25.5 122.5t-70 78t-100.5 26.5
t-100.5 -26.5t-70 -78t-25.5 -122.5t25.5 -122.5zM205 733h73v-77h-73v77zM334 733h73v-77h-73v77z" />
    <glyph glyph-name="divide" unicode="&#xf7;" horiz-adv-x="563" 
d="M57 311h450v-60h-450v60zM242 137h80v-80h-80v80zM242 505h80v-80h-80v80z" />
    <glyph glyph-name="oslash" unicode="&#xf8;" horiz-adv-x="613" 
d="M59 2l51 66q-35 38 -54 90.5t-19 116.5q0 89 35.5 154t97 99t136.5 34q88 0 153 -44l25 32h70v-2l-52 -66q35 -38 54.5 -90.5t19.5 -116.5q0 -89 -35.5 -154t-97 -99t-137.5 -34q-88 0 -153 44l-25 -32h-69v2zM153 123l266 344q-47 35 -113 35q-56 0 -100.5 -26.5
t-70 -78t-25.5 -122.5q0 -91 43 -152zM306 48q56 0 100.5 26.5t70 78t25.5 122.5q0 92 -43 151l-266 -343q49 -35 113 -35z" />
    <glyph glyph-name="ugrave" unicode="&#xf9;" horiz-adv-x="595" 
d="M122 47q-49 59 -49 167v336h70v-327q0 -91 37 -132t98 -41q45 0 83.5 21.5t61.5 66t23 110.5v302h70v-550h-68v121h-2q-24 -65 -72.5 -99t-114.5 -34q-88 0 -137 59zM176 755h77l70 -142h-56z" />
    <glyph glyph-name="uacute" unicode="&#xfa;" horiz-adv-x="595" 
d="M122 47q-49 59 -49 167v336h70v-327q0 -91 37 -132t98 -41q45 0 83.5 21.5t61.5 66t23 110.5v302h70v-550h-68v121h-2q-24 -65 -72.5 -99t-114.5 -34q-88 0 -137 59zM334 755h78l-87 -142h-60z" />
    <glyph glyph-name="ucircumflex" unicode="&#xfb;" horiz-adv-x="595" 
d="M122 47q-49 59 -49 167v336h70v-327q0 -91 37 -132t98 -41q45 0 83.5 21.5t61.5 66t23 110.5v302h70v-550h-68v121h-2q-24 -65 -72.5 -99t-114.5 -34q-88 0 -137 59zM274 755h42l103 -142h-58l-65 74h-2l-66 -74h-57z" />
    <glyph glyph-name="udieresis" unicode="&#xfc;" horiz-adv-x="595" 
d="M122 47q-49 59 -49 167v336h70v-327q0 -91 37 -132t98 -41q45 0 83.5 21.5t61.5 66t23 110.5v302h70v-550h-68v121h-2q-24 -65 -72.5 -99t-114.5 -34q-88 0 -137 59zM194 733h73v-77h-73v77zM323 733h73v-77h-73v77z" />
    <glyph glyph-name="yacute" unicode="&#xfd;" horiz-adv-x="517" 
d="M13 -138h141l69 168l-210 520h77l168 -439h2l168 439h76l-287 -716q-12 -34 -51 -34h-153v62zM298 755h78l-87 -142h-60z" />
    <glyph glyph-name="thorn" unicode="&#xfe;" horiz-adv-x="653" 
d="M78 781h70v-308q0 -37 -2 -62h2q25 71 82 111.5t132 40.5q68 0 126 -34t93.5 -99t35.5 -155t-35.5 -155t-93.5 -99t-126 -34q-75 0 -132 40.5t-82 111.5h-2q2 -25 2 -62v-277h-70v981zM172.5 156.5q25.5 -51.5 71 -80t101.5 -28.5q57 0 102 28.5t70.5 80t25.5 118.5
t-25.5 118.5t-70.5 80t-102 28.5q-56 0 -101.5 -28t-71 -79.5t-25.5 -119.5q0 -67 25.5 -118.5z" />
    <glyph glyph-name="ydieresis" unicode="&#xff;" horiz-adv-x="517" 
d="M13 -138h141l69 168l-210 520h77l168 -439h2l168 439h76l-287 -716q-12 -34 -51 -34h-153v62zM157 733h73v-77h-73v77zM286 733h73v-77h-73v77z" />
    <glyph glyph-name="Amacron" unicode="&#x100;" horiz-adv-x="636" 
d="M280 700h76l264 -700h-77l-71 196h-308l-71 -196h-76zM449 260l-62 171l-68 189h-2l-67 -189l-62 -171h261zM179 867h277v-62h-277v62z" />
    <glyph glyph-name="amacron" unicode="&#x101;" horiz-adv-x="580" 
d="M353 24.5q-54 -36.5 -126 -36.5q-81 0 -132.5 45t-51.5 125q0 81 56 125t148 44h86q96 0 96 72q0 48 -38.5 75.5t-98.5 27.5q-67 0 -109.5 -34t-47.5 -96h-71q7 90 66 140t162 50q102 0 154.5 -48.5t52.5 -129.5v-284q0 -20 8.5 -29t27.5 -9h26v-62h-50q-37 0 -58 20.5
t-21 56.5v54h-2q-23 -70 -77 -106.5zM147.5 79q30.5 -31 92.5 -31q50 0 93 22.5t69.5 68.5t26.5 114v74h-2q-13 -30 -42.5 -45t-78.5 -15h-57q-68 0 -100 -30.5t-32 -78.5t30.5 -79zM153 717h277v-62h-277v62z" />
    <glyph glyph-name="Abreve" unicode="&#x102;" horiz-adv-x="636" 
d="M280 700h76l264 -700h-77l-71 196h-308l-71 -196h-76zM449 260l-62 171l-68 189h-2l-67 -189l-62 -171h261zM230 802q-32 39 -32 103h54q0 -45 17.5 -68.5t48.5 -23.5t48.5 23.5t17.5 68.5h54q0 -64 -32 -103t-88 -39t-88 39z" />
    <glyph glyph-name="abreve" unicode="&#x103;" horiz-adv-x="580" 
d="M353 24.5q-54 -36.5 -126 -36.5q-81 0 -132.5 45t-51.5 125q0 81 56 125t148 44h86q96 0 96 72q0 48 -38.5 75.5t-98.5 27.5q-67 0 -109.5 -34t-47.5 -96h-71q7 90 66 140t162 50q102 0 154.5 -48.5t52.5 -129.5v-284q0 -20 8.5 -29t27.5 -9h26v-62h-50q-37 0 -58 20.5
t-21 56.5v54h-2q-23 -70 -77 -106.5zM147.5 79q30.5 -31 92.5 -31q50 0 93 22.5t69.5 68.5t26.5 114v74h-2q-13 -30 -42.5 -45t-78.5 -15h-57q-68 0 -100 -30.5t-32 -78.5t30.5 -79zM204 652q-32 39 -32 103h54q0 -45 17.5 -68.5t48.5 -23.5t48.5 23.5t17.5 68.5h54
q0 -64 -32 -103t-88 -39t-88 39z" />
    <glyph glyph-name="Aogonek" unicode="&#x104;" horiz-adv-x="636" 
d="M280 700h76l264 -700h-1l-6 -3q-21 -3 -34.5 -19t-13.5 -39q0 -29 22.5 -46.5t59.5 -17.5h10v-58h-12q-60 0 -93 26t-33 68q0 26 13 49t39 38v2h-28l-71 196h-308l-71 -196h-76zM449 260l-62 171l-68 189h-2l-67 -189l-62 -171h261z" />
    <glyph glyph-name="aogonek" unicode="&#x105;" horiz-adv-x="580" 
d="M353 24.5q-54 -36.5 -126 -36.5q-81 0 -132.5 45t-51.5 125q0 81 56 125t148 44h86q96 0 96 72q0 48 -38.5 75.5t-98.5 27.5q-67 0 -109.5 -34t-47.5 -96h-71q7 90 66 140t162 50q102 0 154.5 -48.5t52.5 -129.5v-284q0 -20 8.5 -29t27.5 -9h26v-62h-1l-6 -3
q-21 -3 -34.5 -19t-13.5 -39q0 -29 22.5 -46.5t59.5 -17.5h10v-58h-12q-60 0 -93 26t-33 68q0 26 13 49t39 38v2h-1q-37 0 -58 20.5t-21 56.5v54h-2q-23 -70 -77 -106.5zM147.5 79q30.5 -31 92.5 -31q50 0 93 22.5t69.5 68.5t26.5 114v74h-2q-13 -30 -42.5 -45t-78.5 -15
h-57q-68 0 -100 -30.5t-32 -78.5t30.5 -79z" />
    <glyph glyph-name="Cacute" unicode="&#x106;" horiz-adv-x="739" 
d="M203.5 33q-76.5 45 -118.5 127t-42 191t40.5 190.5t116.5 126t180 44.5q94 0 163 -37t107.5 -100.5t45.5 -142.5h-75q-4 59 -33.5 108t-82.5 78.5t-125 29.5q-80 0 -139 -36.5t-90.5 -103.5t-31.5 -157t34 -158t93.5 -104.5t133.5 -36.5q68 0 120.5 30.5t83 77t37.5 95.5
h75q-9 -73 -49 -134t-108 -97t-159 -36q-100 0 -176.5 45zM419 905h78l-87 -142h-60z" />
    <glyph glyph-name="cacute" unicode="&#x107;" horiz-adv-x="593" 
d="M165 23.5q-61 35.5 -94.5 100.5t-33.5 151t32 151t93 100.5t144 35.5q74 0 128.5 -29.5t85.5 -79.5t37 -113h-74q-5 69 -52 115.5t-125 46.5q-59 0 -103.5 -29t-68.5 -80.5t-24 -117.5q0 -68 26 -119.5t70.5 -79.5t99.5 -28q51 0 89 22.5t60.5 57.5t27.5 71h74
q-8 -57 -39.5 -105t-85.5 -77t-126 -29q-80 0 -141 35.5zM346 755h78l-87 -142h-60z" />
    <glyph glyph-name="Ccircumflex" unicode="&#x108;" horiz-adv-x="739" 
d="M203.5 33q-76.5 45 -118.5 127t-42 191t40.5 190.5t116.5 126t180 44.5q94 0 163 -37t107.5 -100.5t45.5 -142.5h-75q-4 59 -33.5 108t-82.5 78.5t-125 29.5q-80 0 -139 -36.5t-90.5 -103.5t-31.5 -157t34 -158t93.5 -104.5t133.5 -36.5q68 0 120.5 30.5t83 77t37.5 95.5
h75q-9 -73 -49 -134t-108 -97t-159 -36q-100 0 -176.5 45zM359 905h42l103 -142h-58l-65 74h-2l-66 -74h-57z" />
    <glyph glyph-name="ccircumflex" unicode="&#x109;" horiz-adv-x="593" 
d="M165 23.5q-61 35.5 -94.5 100.5t-33.5 151t32 151t93 100.5t144 35.5q74 0 128.5 -29.5t85.5 -79.5t37 -113h-74q-5 69 -52 115.5t-125 46.5q-59 0 -103.5 -29t-68.5 -80.5t-24 -117.5q0 -68 26 -119.5t70.5 -79.5t99.5 -28q51 0 89 22.5t60.5 57.5t27.5 71h74
q-8 -57 -39.5 -105t-85.5 -77t-126 -29q-80 0 -141 35.5zM286 755h42l103 -142h-58l-65 74h-2l-66 -74h-57z" />
    <glyph glyph-name="Cdotaccent" unicode="&#x10a;" horiz-adv-x="739" 
d="M203.5 33q-76.5 45 -118.5 127t-42 191t40.5 190.5t116.5 126t180 44.5q94 0 163 -37t107.5 -100.5t45.5 -142.5h-75q-4 59 -33.5 108t-82.5 78.5t-125 29.5q-80 0 -139 -36.5t-90.5 -103.5t-31.5 -157t34 -158t93.5 -104.5t133.5 -36.5q68 0 120.5 30.5t83 77t37.5 95.5
h75q-9 -73 -49 -134t-108 -97t-159 -36q-100 0 -176.5 45zM343 883h74v-77h-74v77z" />
    <glyph glyph-name="cdotaccent" unicode="&#x10b;" horiz-adv-x="593" 
d="M165 23.5q-61 35.5 -94.5 100.5t-33.5 151t32 151t93 100.5t144 35.5q74 0 128.5 -29.5t85.5 -79.5t37 -113h-74q-5 69 -52 115.5t-125 46.5q-59 0 -103.5 -29t-68.5 -80.5t-24 -117.5q0 -68 26 -119.5t70.5 -79.5t99.5 -28q51 0 89 22.5t60.5 57.5t27.5 71h74
q-8 -57 -39.5 -105t-85.5 -77t-126 -29q-80 0 -141 35.5zM269 733h74v-77h-74v77z" />
    <glyph glyph-name="Ccaron" unicode="&#x10c;" horiz-adv-x="739" 
d="M203.5 33q-76.5 45 -118.5 127t-42 191t40.5 190.5t116.5 126t180 44.5q94 0 163 -37t107.5 -100.5t45.5 -142.5h-75q-4 59 -33.5 108t-82.5 78.5t-125 29.5q-80 0 -139 -36.5t-90.5 -103.5t-31.5 -157t34 -158t93.5 -104.5t133.5 -36.5q68 0 120.5 30.5t83 77t37.5 95.5
h75q-9 -73 -49 -134t-108 -97t-159 -36q-100 0 -176.5 45zM256 905h57l66 -75h2l65 75h58l-103 -142h-42z" />
    <glyph glyph-name="ccaron" unicode="&#x10d;" horiz-adv-x="593" 
d="M165 23.5q-61 35.5 -94.5 100.5t-33.5 151t32 151t93 100.5t144 35.5q74 0 128.5 -29.5t85.5 -79.5t37 -113h-74q-5 69 -52 115.5t-125 46.5q-59 0 -103.5 -29t-68.5 -80.5t-24 -117.5q0 -68 26 -119.5t70.5 -79.5t99.5 -28q51 0 89 22.5t60.5 57.5t27.5 71h74
q-8 -57 -39.5 -105t-85.5 -77t-126 -29q-80 0 -141 35.5zM183 755h57l66 -75h2l65 75h58l-103 -142h-42z" />
    <glyph glyph-name="Dcaron" unicode="&#x10e;" horiz-adv-x="710" 
d="M81 700h248q100 0 176 -41t119 -120t43 -189t-43 -189t-119 -120t-176 -41h-248v700zM329 65q77 0 136 32.5t92.5 96.5t33.5 156t-33.5 156.5t-92.5 96.5t-136 32h-176v-570h176zM211 905h57l66 -75h2l65 75h58l-103 -142h-42z" />
    <glyph glyph-name="dcaron" unicode="&#x10f;" horiz-adv-x="736" 
d="M166 21q-58 34 -93.5 99t-35.5 155t35.5 155t93.5 99t125 34q75 0 132 -40.5t82 -111.5h2q-2 25 -2 62v308h70v-781h-69v77q0 37 1 62h-2q-25 -71 -82 -111.5t-132 -40.5q-67 0 -125 34zM135.5 156.5q25.5 -51.5 70.5 -80t102 -28.5t102 28.5t70.5 80t25.5 118.5
q0 68 -25.5 119.5t-70.5 79.5t-102 28t-102 -28.5t-70.5 -80t-25.5 -118.5t25.5 -118.5zM693.5 520.5q13.5 16.5 13.5 42.5v51h-44v86h76v-133q0 -43 -22 -69t-59 -26v32q22 0 35.5 16.5z" />
    <glyph glyph-name="Dcroat" unicode="&#x110;" horiz-adv-x="710" 
d="M153 316v-251h176q77 0 136 32.5t92.5 96.5t33.5 156t-33.5 156.5t-92.5 96.5t-136 32h-176v-254h138v-65h-138zM13 381h68v319h248q100 0 176 -41t119 -120t43 -189t-43 -189t-119 -120t-176 -41h-248v316h-68v65z" />
    <glyph glyph-name="dcroat" unicode="&#x111;" horiz-adv-x="647" 
d="M360 693h145v88h70v-88h89v-62h-89v-631h-69v77q0 37 1 62h-2q-25 -71 -82 -111.5t-132 -40.5q-67 0 -125 34t-93.5 99t-35.5 155t35.5 155t93.5 99t125 34q75 0 132 -40.5t82 -111.5h2q-2 25 -2 62v158h-145v62zM135.5 156.5q25.5 -51.5 70.5 -80t102 -28.5t102 28.5
t70.5 80t25.5 118.5q0 68 -25.5 119.5t-70.5 79.5t-102 28t-102 -28.5t-70.5 -80t-25.5 -118.5t25.5 -118.5z" />
    <glyph glyph-name="Emacron" unicode="&#x112;" horiz-adv-x="586" 
d="M81 700h474v-65h-401v-249h362v-64h-362v-257h402v-65h-475v700zM183 867h277v-62h-277v62z" />
    <glyph glyph-name="emacron" unicode="&#x113;" horiz-adv-x="592" 
d="M163.5 23.5q-60.5 35.5 -93.5 100.5t-33 151q0 87 33.5 152t93 100t137.5 35q75 0 133.5 -32.5t91 -92t32.5 -137.5v-46h-446q3 -92 55 -149t136 -57q63 0 110 32.5t64 88.5h76q-17 -80 -85.5 -130.5t-164.5 -50.5q-79 0 -139.5 35.5zM484 314q-1 83 -49.5 135.5
t-131.5 52.5t-133.5 -53t-56.5 -135h371zM158 717h277v-62h-277v62z" />
    <glyph glyph-name="Ebreve" unicode="&#x114;" horiz-adv-x="586" 
d="M81 700h474v-65h-401v-249h362v-64h-362v-257h402v-65h-475v700zM234 802q-32 39 -32 103h54q0 -45 17.5 -68.5t48.5 -23.5t48.5 23.5t17.5 68.5h54q0 -64 -32 -103t-88 -39t-88 39z" />
    <glyph glyph-name="ebreve" unicode="&#x115;" horiz-adv-x="592" 
d="M163.5 23.5q-60.5 35.5 -93.5 100.5t-33 151q0 87 33.5 152t93 100t137.5 35q75 0 133.5 -32.5t91 -92t32.5 -137.5v-46h-446q3 -92 55 -149t136 -57q63 0 110 32.5t64 88.5h76q-17 -80 -85.5 -130.5t-164.5 -50.5q-79 0 -139.5 35.5zM484 314q-1 83 -49.5 135.5
t-131.5 52.5t-133.5 -53t-56.5 -135h371zM208 652q-32 39 -32 103h54q0 -45 17.5 -68.5t48.5 -23.5t48.5 23.5t17.5 68.5h54q0 -64 -32 -103t-88 -39t-88 39z" />
    <glyph glyph-name="Edotaccent" unicode="&#x116;" horiz-adv-x="586" 
d="M81 700h474v-65h-401v-249h362v-64h-362v-257h402v-65h-475v700zM285 883h74v-77h-74v77z" />
    <glyph glyph-name="edotaccent" unicode="&#x117;" horiz-adv-x="592" 
d="M163.5 23.5q-60.5 35.5 -93.5 100.5t-33 151q0 87 33.5 152t93 100t137.5 35q75 0 133.5 -32.5t91 -92t32.5 -137.5v-46h-446q3 -92 55 -149t136 -57q63 0 110 32.5t64 88.5h76q-17 -80 -85.5 -130.5t-164.5 -50.5q-79 0 -139.5 35.5zM484 314q-1 83 -49.5 135.5
t-131.5 52.5t-133.5 -53t-56.5 -135h371zM259 733h74v-77h-74v77z" />
    <glyph glyph-name="Eogonek" unicode="&#x118;" horiz-adv-x="586" 
d="M81 700h474v-65h-401v-249h362v-64h-362v-257h402v-65l-6 -3q-21 -3 -34.5 -19t-13.5 -39q0 -29 22.5 -46.5t59.5 -17.5h10v-58h-12q-60 0 -93 26t-33 68q0 26 13 49t39 38v2h-427v700z" />
    <glyph glyph-name="eogonek" unicode="&#x119;" horiz-adv-x="592" 
d="M412 -156.5q-34 26.5 -34 73.5t33 89v2q-49 -20 -108 -20q-79 0 -139.5 35.5t-93.5 100.5t-33 151q0 87 33.5 152t93 100t137.5 35q75 0 133.5 -32.5t91 -92t32.5 -137.5v-46h-446q3 -92 55 -149t136 -57q63 0 110 32.5t64 88.5h76q-16 -76 -80 -126q-23 -21 -35.5 -46.5
t-12.5 -50.5q0 -34 22 -52.5t60 -18.5h10v-58h-13q-58 0 -92 26.5zM484 314q-1 83 -49.5 135.5t-131.5 52.5t-133.5 -53t-56.5 -135h371z" />
    <glyph glyph-name="Ecaron" unicode="&#x11a;" horiz-adv-x="586" 
d="M81 700h474v-65h-401v-249h362v-64h-362v-257h402v-65h-475v700zM198 905h57l66 -75h2l65 75h58l-103 -142h-42z" />
    <glyph glyph-name="ecaron" unicode="&#x11b;" horiz-adv-x="592" 
d="M163.5 23.5q-60.5 35.5 -93.5 100.5t-33 151q0 87 33.5 152t93 100t137.5 35q75 0 133.5 -32.5t91 -92t32.5 -137.5v-46h-446q3 -92 55 -149t136 -57q63 0 110 32.5t64 88.5h76q-17 -80 -85.5 -130.5t-164.5 -50.5q-79 0 -139.5 35.5zM484 314q-1 83 -49.5 135.5
t-131.5 52.5t-133.5 -53t-56.5 -135h371zM173 755h57l66 -75h2l65 75h58l-103 -142h-42z" />
    <glyph glyph-name="Gcircumflex" unicode="&#x11c;" horiz-adv-x="763" 
d="M202 33q-75 45 -117 127.5t-42 190.5q0 106 41 188t117.5 127.5t179.5 45.5q94 0 164.5 -37.5t109.5 -101t44 -141.5h-76q-3 59 -33.5 108.5t-84.5 78.5t-124 29q-80 0 -139.5 -38t-91 -105t-31.5 -154q0 -90 34.5 -158t94 -104.5t133.5 -36.5q72 0 126.5 32.5t86.5 83
t39 103.5h-263v65h287q21 0 32 -11t11 -31v-294h-71l16 172h-2q-33 -86 -102 -135t-169 -49q-95 0 -170 45zM356 905h42l103 -142h-58l-65 74h-2l-66 -74h-57z" />
    <glyph glyph-name="gcircumflex" unicode="&#x11d;" horiz-adv-x="567" 
d="M78.5 -163.5q-43.5 36.5 -43.5 94.5q0 44 25 76t71 43v2q-34 10 -53 32.5t-19 53.5q0 35 24 56.5t64 22.5h19v2q-54 19 -83.5 60.5t-29.5 98.5t28 98.5t77 63.5t110 22q56 0 102 -19t75 -53q4 29 20.5 44.5t43.5 15.5h31v-62h-42q-28 0 -36 -24q22 -38 22 -86
q0 -56 -28.5 -98t-77.5 -65t-110 -23h-86q-28 0 -44 -11.5t-16 -33.5t17 -35.5t48 -13.5h191q78 0 123.5 -40.5t45.5 -107.5q0 -68 -45.5 -109t-124.5 -41h-173q-82 0 -125.5 36.5zM125.5 -117q26.5 -24 77.5 -24h170q47 0 75 24t28 65t-27.5 65.5t-74.5 24.5h-172
q-50 0 -76.5 -24.5t-26.5 -65.5t26.5 -65zM164.5 284q41.5 -32 103.5 -32q63 0 104.5 32.5t41.5 92.5t-41.5 92.5t-104.5 32.5q-62 0 -103.5 -32.5t-41.5 -92.5q0 -61 41.5 -93zM248 755h42l103 -142h-58l-65 74h-2l-66 -74h-57z" />
    <glyph glyph-name="Gbreve" unicode="&#x11e;" horiz-adv-x="763" 
d="M202 33q-75 45 -117 127.5t-42 190.5q0 106 41 188t117.5 127.5t179.5 45.5q94 0 164.5 -37.5t109.5 -101t44 -141.5h-76q-3 59 -33.5 108.5t-84.5 78.5t-124 29q-80 0 -139.5 -38t-91 -105t-31.5 -154q0 -90 34.5 -158t94 -104.5t133.5 -36.5q72 0 126.5 32.5t86.5 83
t39 103.5h-263v65h287q21 0 32 -11t11 -31v-294h-71l16 172h-2q-33 -86 -102 -135t-169 -49q-95 0 -170 45zM289 802q-32 39 -32 103h54q0 -45 17.5 -68.5t48.5 -23.5t48.5 23.5t17.5 68.5h54q0 -64 -32 -103t-88 -39t-88 39z" />
    <glyph glyph-name="gbreve" unicode="&#x11f;" horiz-adv-x="567" 
d="M78.5 -163.5q-43.5 36.5 -43.5 94.5q0 44 25 76t71 43v2q-34 10 -53 32.5t-19 53.5q0 35 24 56.5t64 22.5h19v2q-54 19 -83.5 60.5t-29.5 98.5t28 98.5t77 63.5t110 22q56 0 102 -19t75 -53q4 29 20.5 44.5t43.5 15.5h31v-62h-42q-28 0 -36 -24q22 -38 22 -86
q0 -56 -28.5 -98t-77.5 -65t-110 -23h-86q-28 0 -44 -11.5t-16 -33.5t17 -35.5t48 -13.5h191q78 0 123.5 -40.5t45.5 -107.5q0 -68 -45.5 -109t-124.5 -41h-173q-82 0 -125.5 36.5zM125.5 -117q26.5 -24 77.5 -24h170q47 0 75 24t28 65t-27.5 65.5t-74.5 24.5h-172
q-50 0 -76.5 -24.5t-26.5 -65.5t26.5 -65zM164.5 284q41.5 -32 103.5 -32q63 0 104.5 32.5t41.5 92.5t-41.5 92.5t-104.5 32.5q-62 0 -103.5 -32.5t-41.5 -92.5q0 -61 41.5 -93zM180 652q-32 39 -32 103h54q0 -45 17.5 -68.5t48.5 -23.5t48.5 23.5t17.5 68.5h54
q0 -64 -32 -103t-88 -39t-88 39z" />
    <glyph glyph-name="Gdotaccent" unicode="&#x120;" horiz-adv-x="763" 
d="M202 33q-75 45 -117 127.5t-42 190.5q0 106 41 188t117.5 127.5t179.5 45.5q94 0 164.5 -37.5t109.5 -101t44 -141.5h-76q-3 59 -33.5 108.5t-84.5 78.5t-124 29q-80 0 -139.5 -38t-91 -105t-31.5 -154q0 -90 34.5 -158t94 -104.5t133.5 -36.5q72 0 126.5 32.5t86.5 83
t39 103.5h-263v65h287q21 0 32 -11t11 -31v-294h-71l16 172h-2q-33 -86 -102 -135t-169 -49q-95 0 -170 45zM340 883h74v-77h-74v77z" />
    <glyph glyph-name="gdotaccent" unicode="&#x121;" horiz-adv-x="567" 
d="M78.5 -163.5q-43.5 36.5 -43.5 94.5q0 44 25 76t71 43v2q-34 10 -53 32.5t-19 53.5q0 35 24 56.5t64 22.5h19v2q-54 19 -83.5 60.5t-29.5 98.5t28 98.5t77 63.5t110 22q56 0 102 -19t75 -53q4 29 20.5 44.5t43.5 15.5h31v-62h-42q-28 0 -36 -24q22 -38 22 -86
q0 -56 -28.5 -98t-77.5 -65t-110 -23h-86q-28 0 -44 -11.5t-16 -33.5t17 -35.5t48 -13.5h191q78 0 123.5 -40.5t45.5 -107.5q0 -68 -45.5 -109t-124.5 -41h-173q-82 0 -125.5 36.5zM125.5 -117q26.5 -24 77.5 -24h170q47 0 75 24t28 65t-27.5 65.5t-74.5 24.5h-172
q-50 0 -76.5 -24.5t-26.5 -65.5t26.5 -65zM164.5 284q41.5 -32 103.5 -32q63 0 104.5 32.5t41.5 92.5t-41.5 92.5t-104.5 32.5q-62 0 -103.5 -32.5t-41.5 -92.5q0 -61 41.5 -93zM231 733h74v-77h-74v77z" />
    <glyph glyph-name="uni0122" unicode="&#x122;" horiz-adv-x="763" 
d="M202 33q-75 45 -117 127.5t-42 190.5q0 106 41 188t117.5 127.5t179.5 45.5q94 0 164.5 -37.5t109.5 -101t44 -141.5h-76q-3 59 -33.5 108.5t-84.5 78.5t-124 29q-80 0 -139.5 -38t-91 -105t-31.5 -154q0 -90 34.5 -158t94 -104.5t133.5 -36.5q72 0 126.5 32.5t86.5 83
t39 103.5h-263v65h287q21 0 32 -11t11 -31v-294h-71l16 172h-2q-33 -86 -102 -135t-169 -49q-95 0 -170 45zM368.5 -161.5q10.5 9.5 10.5 26.5v6h-36v72h68v-78q0 -32 -19 -50t-53 -18v32q19 0 29.5 9.5z" />
    <glyph glyph-name="uni0123" unicode="&#x123;" horiz-adv-x="567" 
d="M78.5 -163.5q-43.5 36.5 -43.5 94.5q0 44 25 76t71 43v2q-34 10 -53 32.5t-19 53.5q0 35 24 56.5t64 22.5h19v2q-54 19 -83.5 60.5t-29.5 98.5t28 98.5t77 63.5t110 22q56 0 102 -19t75 -53q4 29 20.5 44.5t43.5 15.5h31v-62h-42q-28 0 -36 -24q22 -38 22 -86
q0 -56 -28.5 -98t-77.5 -65t-110 -23h-86q-28 0 -44 -11.5t-16 -33.5t17 -35.5t48 -13.5h191q78 0 123.5 -40.5t45.5 -107.5q0 -68 -45.5 -109t-124.5 -41h-173q-82 0 -125.5 36.5zM125.5 -117q26.5 -24 77.5 -24h170q47 0 75 24t28 65t-27.5 65.5t-74.5 24.5h-172
q-50 0 -76.5 -24.5t-26.5 -65.5t26.5 -65zM164.5 284q41.5 -32 103.5 -32q63 0 104.5 32.5t41.5 92.5t-41.5 92.5t-104.5 32.5q-62 0 -103.5 -32.5t-41.5 -92.5q0 -61 41.5 -93zM276.5 717.5q-10.5 -9.5 -10.5 -26.5v-7h37v-72h-69v79q0 31 19.5 49.5t52.5 18.5v-32
q-19 0 -29.5 -9.5z" />
    <glyph glyph-name="Hcircumflex" unicode="&#x124;" horiz-adv-x="688" 
d="M81 700h72v-315h382v315h72v-700h-72v320h-382v-320h-72v700zM324 905h42l103 -142h-58l-65 74h-2l-66 -74h-57z" />
    <glyph glyph-name="hcircumflex" unicode="&#x125;" horiz-adv-x="599" 
d="M78 781h70v-262q0 -44 -2 -90h2q21 58 69 95.5t118 37.5q87 0 137.5 -58t50.5 -157v-347h-70v327q0 88 -36 130.5t-99 42.5q-46 0 -84.5 -21.5t-62 -66t-23.5 -110.5v-302h-70v781zM93 986h42l103 -142h-58l-65 74h-2l-66 -74h-57z" />
    <glyph glyph-name="Hbar" unicode="&#x126;" horiz-adv-x="675" 
d="M5 573h76v127h72v-127h382v127h72v-127h63v-61h-63v-512h-72v320h-382v-320h-72v512h-76v61zM535 385v127h-382v-127h382z" />
    <glyph glyph-name="hbar" unicode="&#x127;" horiz-adv-x="599" 
d="M78 630h-95v62h95v89h70v-89h139v-62h-139v-111q0 -44 -2 -90h2q21 58 69 95.5t118 37.5q87 0 137.5 -58t50.5 -157v-347h-70v327q0 88 -36 130.5t-99 42.5q-46 0 -84.5 -21.5t-62 -66t-23.5 -110.5v-302h-70v630z" />
    <glyph glyph-name="Itilde" unicode="&#x128;" horiz-adv-x="234" 
d="M81 700h72v-700h-72v700zM145.5 778.5q-20.5 12.5 -46.5 37.5q-18 18 -31.5 27t-28.5 9q-22 0 -37.5 -19t-15.5 -55v-4h-54v8q0 56 30.5 90t76.5 34q29 0 49.5 -12.5t46.5 -37.5q18 -18 31.5 -27t28.5 -9q22 0 37.5 19t15.5 55v4h54v-8q0 -56 -30.5 -90t-76.5 -34
q-29 0 -49.5 12.5z" />
    <glyph glyph-name="itilde" unicode="&#x129;" 
d="M78 550h70v-550h-70v550zM141.5 628.5q-20.5 12.5 -46.5 37.5q-18 18 -31.5 27t-28.5 9q-22 0 -37.5 -19t-15.5 -55v-4h-54v8q0 56 30.5 90t76.5 34q29 0 49.5 -12.5t46.5 -37.5q18 -18 31.5 -27t28.5 -9q22 0 37.5 19t15.5 55v4h54v-8q0 -56 -30.5 -90t-76.5 -34
q-29 0 -49.5 12.5z" />
    <glyph glyph-name="Imacron" unicode="&#x12a;" horiz-adv-x="234" 
d="M81 700h72v-700h-72v700zM-21 867h277v-62h-277v62z" />
    <glyph glyph-name="imacron" unicode="&#x12b;" 
d="M78 550h70v-550h-70v550zM-25 717h277v-62h-277v62z" />
    <glyph glyph-name="Ibreve" unicode="&#x12c;" horiz-adv-x="234" 
d="M81 700h72v-700h-72v700zM29 802q-32 39 -32 103h54q0 -45 17.5 -68.5t48.5 -23.5t48.5 23.5t17.5 68.5h54q0 -64 -32 -103t-88 -39t-88 39z" />
    <glyph glyph-name="ibreve" unicode="&#x12d;" 
d="M78 550h70v-550h-70v550zM25 652q-32 39 -32 103h54q0 -45 17.5 -68.5t48.5 -23.5t48.5 23.5t17.5 68.5h54q0 -64 -32 -103t-88 -39t-88 39z" />
    <glyph glyph-name="Iogonek" unicode="&#x12e;" horiz-adv-x="234" 
d="M81 700h72v-700l-6 -3q-21 -3 -34.5 -19t-13.5 -39q0 -29 22.5 -46.5t59.5 -17.5h10v-58h-12q-60 0 -93 26t-33 68q0 26 13 49t39 38v2h-24v700z" />
    <glyph glyph-name="iogonek" unicode="&#x12f;" 
d="M78 550h70v-550l-6 -3q-21 -3 -34.5 -19t-13.5 -39q0 -29 22.5 -46.5t59.5 -17.5h10v-58h-12q-60 0 -93 26t-33 68q0 26 13 49t39 38v2h-22v550zM76 733h74v-77h-74v77z" />
    <glyph glyph-name="Idotaccent" unicode="&#x130;" horiz-adv-x="234" 
d="M81 700h72v-700h-72v700zM80 883h74v-77h-74v77z" />
    <glyph glyph-name="dotlessi" unicode="&#x131;" 
d="M78 550h70v-550h-70v550z" />
    <glyph glyph-name="IJ" unicode="&#x132;" horiz-adv-x="602" 
d="M188 16q-50 28 -78.5 83t-28.5 132h72q0 -88 41 -134t107 -46t106.5 46t40.5 134v469h73v-469q0 -77 -28.5 -132t-78.5 -83t-113 -28t-113 28zM81 700h72v-364h-72v364z" />
    <glyph glyph-name="ij" unicode="&#x133;" horiz-adv-x="407" 
d="M78 550h70v-550h-70v550zM76 733h74v-77h-74v77zM157 -139h39q30 0 46 19t16 53v617h70v-622q0 -56 -34.5 -92t-89.5 -36h-47v61zM256 733h74v-77h-74v77z" />
    <glyph glyph-name="Jcircumflex" unicode="&#x134;" horiz-adv-x="543" 
d="M128 16q-50 28 -78 82.5t-28 132.5h72q0 -88 41 -133.5t107 -45.5t106.5 45.5t40.5 133.5v469h73v-469q0 -78 -28 -132.5t-78 -82.5t-114 -28t-114 28zM403 905h42l103 -142h-58l-65 74h-2l-66 -74h-57z" />
    <glyph glyph-name="jcircumflex" unicode="&#x135;" horiz-adv-x="225" 
d="M-24 -139h39q30 0 46 19t16 53v617h70v-622q0 -56 -34.5 -92t-89.5 -36h-47v61zM91 755h42l103 -142h-58l-65 74h-2l-66 -74h-57z" />
    <glyph glyph-name="uni0136" unicode="&#x136;" horiz-adv-x="625" 
d="M81 700h73v-404h2l347 404h97l-273 -310l290 -390h-93l-243 335h-2l-125 -143v-192h-73v700zM305.5 -161.5q10.5 9.5 10.5 26.5v6h-36v72h68v-78q0 -32 -19 -50t-53 -18v32q19 0 29.5 9.5z" />
    <glyph glyph-name="uni0137" unicode="&#x137;" horiz-adv-x="516" 
d="M78 781h70v-528h2l246 297h93l-204 -240l224 -310h-88l-180 257h-2l-91 -108v-149h-70v781zM256.5 -161.5q10.5 9.5 10.5 26.5v6h-36v72h68v-78q0 -32 -19 -50t-53 -18v32q19 0 29.5 9.5z" />
    <glyph glyph-name="kgreenlandic" unicode="&#x138;" horiz-adv-x="516" 
d="M78 550h70v-297h2l246 297h93l-204 -240l224 -310h-88l-180 257h-2l-91 -108v-149h-70v550z" />
    <glyph glyph-name="Lacute" unicode="&#x139;" horiz-adv-x="502" 
d="M480 65v-65h-399v700h72v-635h327zM156 905h78l-87 -142h-60z" />
    <glyph glyph-name="lacute" unicode="&#x13a;" 
d="M78 781h70v-781h-70v781zM153 1005h78l-87 -142h-60z" />
    <glyph glyph-name="uni013B" unicode="&#x13b;" horiz-adv-x="502" 
d="M480 65v-65h-399v700h72v-635h327zM272.5 -161.5q10.5 9.5 10.5 26.5v6h-36v72h68v-78q0 -32 -19 -50t-53 -18v32q19 0 29.5 9.5z" />
    <glyph glyph-name="uni013C" unicode="&#x13c;" 
d="M78 781h70v-781h-70v781zM104.5 -161.5q10.5 9.5 10.5 26.5v6h-36v72h68v-78q0 -32 -19 -50t-53 -18v32q19 0 29.5 9.5z" />
    <glyph glyph-name="Lcaron" unicode="&#x13d;" horiz-adv-x="502" 
d="M480 65v-65h-399v700h72v-635h327zM335.5 520.5q13.5 16.5 13.5 42.5v51h-44v86h76v-133q0 -43 -22 -69t-59 -26v32q22 0 35.5 16.5z" />
    <glyph glyph-name="lcaron" unicode="&#x13e;" horiz-adv-x="309" 
d="M78 781h70v-781h-70v781zM236.5 520.5q13.5 16.5 13.5 42.5v51h-44v86h76v-133q0 -43 -22 -69t-59 -26v32q22 0 35.5 16.5z" />
    <glyph glyph-name="Ldot" unicode="&#x13f;" horiz-adv-x="502" 
d="M480 65v-65h-399v700h72v-635h327zM313 384h74v-77h-74v77z" />
    <glyph glyph-name="ldot" unicode="&#x140;" horiz-adv-x="300" 
d="M78 781h70v-781h-70v781zM216 384h74v-77h-74v77z" />
    <glyph glyph-name="Lslash" unicode="&#x141;" horiz-adv-x="501" 
d="M10 373l71 24v303h72v-279l125 42v-65l-125 -42v-291h327v-65h-399v333l-71 -24v64z" />
    <glyph glyph-name="lslash" unicode="&#x142;" 
d="M148 411v-411h-70v385l-62 -23v63l62 23v333h70v-307l63 24v-63z" />
    <glyph glyph-name="Nacute" unicode="&#x143;" horiz-adv-x="742" 
d="M154 602h-2l1 -100v-502h-72v700h97l410 -601h2l-1 100v501h72v-700h-96zM411 905h78l-87 -142h-60z" />
    <glyph glyph-name="nacute" unicode="&#x144;" horiz-adv-x="599" 
d="M78 550h69v-121h2q24 63 74 98t116 35q87 0 135.5 -59t48.5 -167v-336h-70v327q0 90 -37 131.5t-98 41.5q-45 0 -83.5 -21.5t-62.5 -66.5t-24 -110v-302h-70v550zM339 755h78l-87 -142h-60z" />
    <glyph glyph-name="uni0145" unicode="&#x145;" horiz-adv-x="742" 
d="M154 602h-2l1 -100v-502h-72v700h97l410 -601h2l-1 100v501h72v-700h-96zM363.5 -161.5q10.5 9.5 10.5 26.5v6h-36v72h68v-78q0 -32 -19 -50t-53 -18v32q19 0 29.5 9.5z" />
    <glyph glyph-name="uni0146" unicode="&#x146;" horiz-adv-x="599" 
d="M78 550h69v-121h2q24 63 74 98t116 35q87 0 135.5 -59t48.5 -167v-336h-70v327q0 90 -37 131.5t-98 41.5q-45 0 -83.5 -21.5t-62.5 -66.5t-24 -110v-302h-70v550zM290.5 -161.5q10.5 9.5 10.5 26.5v6h-36v72h68v-78q0 -32 -19 -50t-53 -18v32q19 0 29.5 9.5z" />
    <glyph glyph-name="Ncaron" unicode="&#x147;" horiz-adv-x="742" 
d="M154 602h-2l1 -100v-502h-72v700h97l410 -601h2l-1 100v501h72v-700h-96zM248 905h57l66 -75h2l65 75h58l-103 -142h-42z" />
    <glyph glyph-name="ncaron" unicode="&#x148;" horiz-adv-x="599" 
d="M78 550h69v-121h2q24 63 74 98t116 35q87 0 135.5 -59t48.5 -167v-336h-70v327q0 90 -37 131.5t-98 41.5q-45 0 -83.5 -21.5t-62.5 -66.5t-24 -110v-302h-70v550zM176 755h57l66 -75h2l65 75h58l-103 -142h-42z" />
    <glyph glyph-name="napostrophe" unicode="&#x149;" horiz-adv-x="742" 
d="M58.5 520.5q13.5 16.5 13.5 42.5v51h-44v86h76v-133q0 -43 -22 -69t-59 -26v32q22 0 35.5 16.5zM220 550h69v-121h2q24 63 74 98t116 35q87 0 135.5 -59t48.5 -167v-336h-70v327q0 90 -37 131.5t-98 41.5q-45 0 -83.5 -21.5t-62.5 -66.5t-24 -110v-302h-70v550z" />
    <glyph glyph-name="Eng" unicode="&#x14a;" horiz-adv-x="742" 
d="M490 -139h38q29 0 46 19t17 53v68l-437 601h-2l1 -100v-502h-72v700h94l414 -571h2l-2 70v501h72v-763q0 -61 -37 -99t-96 -38h-38v61z" />
    <glyph glyph-name="eng" unicode="&#x14b;" horiz-adv-x="599" 
d="M352 -139h38q29 0 46 19t17 53v393q0 91 -37 132.5t-98 41.5q-45 0 -83.5 -22t-62.5 -67t-24 -110v-301h-70v550h69v-122h2q24 64 74 99t116 35q87 0 135.5 -59.5t48.5 -167.5v-405q0 -57 -35.5 -93.5t-90.5 -36.5h-45v61z" />
    <glyph glyph-name="Omacron" unicode="&#x14c;" horiz-adv-x="761" 
d="M211 30.5q-77 42.5 -122.5 124.5t-45.5 195t45.5 195t122.5 124.5t170 42.5t170 -42.5t122.5 -124.5t45.5 -195t-45.5 -195t-122.5 -124.5t-170 -42.5t-170 42.5zM153.5 187.5q34.5 -67.5 94 -101.5t133.5 -34q74 1 133 35t93.5 101t34.5 162t-34.5 162t-93.5 101
t-133 35q-74 0 -133.5 -34t-94 -101.5t-34.5 -162.5t34.5 -162.5zM242 867h277v-62h-277v62z" />
    <glyph glyph-name="omacron" unicode="&#x14d;" horiz-adv-x="613" 
d="M169.5 22q-61.5 34 -97 99t-35.5 154t35.5 154t97 99t136.5 34q76 0 137.5 -34t97 -99t35.5 -154t-35.5 -154t-97 -99t-137.5 -34q-75 0 -136.5 34zM135.5 152.5q25.5 -51.5 70 -78t100.5 -26.5t100.5 26.5t70 78t25.5 122.5t-25.5 122.5t-70 78t-100.5 26.5
t-100.5 -26.5t-70 -78t-25.5 -122.5t25.5 -122.5zM168 717h277v-62h-277v62z" />
    <glyph glyph-name="Obreve" unicode="&#x14e;" horiz-adv-x="761" 
d="M211 30.5q-77 42.5 -122.5 124.5t-45.5 195t45.5 195t122.5 124.5t170 42.5t170 -42.5t122.5 -124.5t45.5 -195t-45.5 -195t-122.5 -124.5t-170 -42.5t-170 42.5zM153.5 187.5q34.5 -67.5 94 -101.5t133.5 -34q74 1 133 35t93.5 101t34.5 162t-34.5 162t-93.5 101
t-133 35q-74 0 -133.5 -34t-94 -101.5t-34.5 -162.5t34.5 -162.5zM293 802q-32 39 -32 103h54q0 -45 17.5 -68.5t48.5 -23.5t48.5 23.5t17.5 68.5h54q0 -64 -32 -103t-88 -39t-88 39z" />
    <glyph glyph-name="obreve" unicode="&#x14f;" horiz-adv-x="613" 
d="M169.5 22q-61.5 34 -97 99t-35.5 154t35.5 154t97 99t136.5 34q76 0 137.5 -34t97 -99t35.5 -154t-35.5 -154t-97 -99t-137.5 -34q-75 0 -136.5 34zM135.5 152.5q25.5 -51.5 70 -78t100.5 -26.5t100.5 26.5t70 78t25.5 122.5t-25.5 122.5t-70 78t-100.5 26.5
t-100.5 -26.5t-70 -78t-25.5 -122.5t25.5 -122.5zM218 652q-32 39 -32 103h54q0 -45 17.5 -68.5t48.5 -23.5t48.5 23.5t17.5 68.5h54q0 -64 -32 -103t-88 -39t-88 39z" />
    <glyph glyph-name="Ohungarumlaut" unicode="&#x150;" horiz-adv-x="761" 
d="M211 30.5q-77 42.5 -122.5 124.5t-45.5 195t45.5 195t122.5 124.5t170 42.5t170 -42.5t122.5 -124.5t45.5 -195t-45.5 -195t-122.5 -124.5t-170 -42.5t-170 42.5zM153.5 187.5q34.5 -67.5 94 -101.5t133.5 -34q74 1 133 35t93.5 101t34.5 162t-34.5 162t-93.5 101
t-133 35q-74 0 -133.5 -34t-94 -101.5t-34.5 -162.5t34.5 -162.5zM484 905h78l-87 -142h-60zM357 905h77l-87 -142h-60z" />
    <glyph glyph-name="ohungarumlaut" unicode="&#x151;" horiz-adv-x="613" 
d="M169.5 22q-61.5 34 -97 99t-35.5 154t35.5 154t97 99t136.5 34q76 0 137.5 -34t97 -99t35.5 -154t-35.5 -154t-97 -99t-137.5 -34q-75 0 -136.5 34zM135.5 152.5q25.5 -51.5 70 -78t100.5 -26.5t100.5 26.5t70 78t25.5 122.5t-25.5 122.5t-70 78t-100.5 26.5
t-100.5 -26.5t-70 -78t-25.5 -122.5t25.5 -122.5zM409 755h78l-87 -142h-60zM282 755h77l-87 -142h-60z" />
    <glyph glyph-name="OE" unicode="&#x152;" horiz-adv-x="1115" 
d="M206.5 29q-76.5 43 -120 125.5t-43.5 195.5t43.5 195.5t120 125.5t172.5 43q86 0 154.5 -39t106.5 -113h2v138h442v-65h-371v-252h332v-65h-332v-253h372v-65h-443v138h-2q-38 -74 -106.5 -113t-154.5 -39q-96 0 -172.5 43zM153.5 186q34.5 -68 93.5 -102.5t132 -34.5
t132.5 34.5t94 102.5t34.5 164q0 97 -34.5 164.5t-93.5 101.5t-133 34q-73 0 -132 -34t-93.5 -101.5t-34.5 -164.5q0 -96 34.5 -164z" />
    <glyph glyph-name="oe" unicode="&#x153;" horiz-adv-x="1055" 
d="M169 22q-61 34 -96.5 99t-35.5 154t35.5 154t96.5 99t137 34q80 0 141 -40.5t90 -118.5h2q29 78 88 118.5t140 40.5q72 0 130 -33t91 -91t33 -129v-55h-444q5 -95 57 -150t133 -55q62 0 109 32.5t66 87.5h74q-18 -80 -86 -130.5t-163 -50.5q-80 0 -139.5 41.5
t-87.5 118.5h-2q-30 -78 -91 -119t-141 -41q-76 0 -137 34zM135.5 153q25.5 -51 70 -77.5t100.5 -26.5t100.5 26.5t70 77.5t25.5 122t-25.5 122t-70 77.5t-100.5 26.5t-100.5 -26.5t-70 -77.5t-25.5 -122t25.5 -122zM950 316q-6 82 -56 133.5t-127 51.5q-53 0 -95 -24.5
t-66 -67t-28 -93.5h372z" />
    <glyph glyph-name="Racute" unicode="&#x154;" horiz-adv-x="628" 
d="M81 700h250q124 0 187.5 -51.5t63.5 -136.5q0 -69 -43 -116t-124 -61v-2q60 -20 94 -65t55 -123l40 -145h-75l-33 122q-19 70 -42 108.5t-60 55t-98 16.5h-143v-302h-72v700zM300 366q98 0 152 35.5t54 103.5q0 62 -45 96t-131 34h-177v-269h147zM355 905h78l-87 -142
h-60z" />
    <glyph glyph-name="racute" unicode="&#x155;" horiz-adv-x="362" 
d="M78 550h69v-106h2q20 53 53.5 79.5t96.5 26.5h50v-62h-62q-69 0 -104 -42.5t-35 -125.5v-320h-70v550zM244 755h78l-87 -142h-60z" />
    <glyph glyph-name="uni0156" unicode="&#x156;" horiz-adv-x="628" 
d="M81 700h250q124 0 187.5 -51.5t63.5 -136.5q0 -69 -43 -116t-124 -61v-2q60 -20 94 -65t55 -123l40 -145h-75l-33 122q-19 70 -42 108.5t-60 55t-98 16.5h-143v-302h-72v700zM300 366q98 0 152 35.5t54 103.5q0 62 -45 96t-131 34h-177v-269h147zM306.5 -161.5
q10.5 9.5 10.5 26.5v6h-36v72h68v-78q0 -32 -19 -50t-53 -18v32q19 0 29.5 9.5z" />
    <glyph glyph-name="uni0157" unicode="&#x157;" horiz-adv-x="362" 
d="M78 550h69v-106h2q20 53 53.5 79.5t96.5 26.5h50v-62h-62q-69 0 -104 -42.5t-35 -125.5v-320h-70v550zM104.5 -161.5q10.5 9.5 10.5 26.5v6h-36v72h68v-78q0 -32 -19 -50t-53 -18v32q19 0 29.5 9.5z" />
    <glyph glyph-name="Rcaron" unicode="&#x158;" horiz-adv-x="628" 
d="M81 700h250q124 0 187.5 -51.5t63.5 -136.5q0 -69 -43 -116t-124 -61v-2q60 -20 94 -65t55 -123l40 -145h-75l-33 122q-19 70 -42 108.5t-60 55t-98 16.5h-143v-302h-72v700zM300 366q98 0 152 35.5t54 103.5q0 62 -45 96t-131 34h-177v-269h147zM192 905h57l66 -75h2
l65 75h58l-103 -142h-42z" />
    <glyph glyph-name="rcaron" unicode="&#x159;" horiz-adv-x="362" 
d="M78 550h69v-106h2q20 53 53.5 79.5t96.5 26.5h50v-62h-62q-69 0 -104 -42.5t-35 -125.5v-320h-70v550zM81 755h57l66 -75h2l65 75h58l-103 -142h-42z" />
    <glyph glyph-name="Sacute" unicode="&#x15a;" horiz-adv-x="630" 
d="M120 56.5q-72 68.5 -76 185.5h74q4 -89 57.5 -139.5t147.5 -50.5q87 0 138.5 43t51.5 112q0 53 -36.5 86t-120.5 33h-91q-102 0 -156.5 48t-54.5 129q0 61 31.5 108.5t90 74t136.5 26.5q124 0 191.5 -65.5t72.5 -174.5h-74q-5 84 -52.5 130t-138.5 46q-85 0 -134 -38.5
t-49 -104.5q0 -108 142 -108h91q117 0 171.5 -53t54.5 -135q0 -65 -32.5 -115t-92.5 -78t-141 -28q-129 0 -201 68.5zM353 905h78l-87 -142h-60z" />
    <glyph glyph-name="sacute" unicode="&#x15b;" horiz-adv-x="516" 
d="M104 41q-60 53 -63 141h73q2 -65 43 -99.5t107 -34.5q63 0 100.5 30t37.5 80q0 44 -30 68.5t-87 24.5h-63q-79 0 -124.5 39t-45.5 106q0 48 24.5 85.5t70.5 59t109 21.5q98 0 153 -51t58 -139h-74q-2 63 -37 96.5t-100 33.5q-60 0 -95.5 -28.5t-35.5 -74.5q0 -40 27 -61
t76 -21h67q84 0 132.5 -43.5t48.5 -113.5q0 -50 -26 -89t-74 -61t-112 -22q-100 0 -160 53zM297 755h78l-87 -142h-60z" />
    <glyph glyph-name="Scircumflex" unicode="&#x15c;" horiz-adv-x="630" 
d="M120 56.5q-72 68.5 -76 185.5h74q4 -89 57.5 -139.5t147.5 -50.5q87 0 138.5 43t51.5 112q0 53 -36.5 86t-120.5 33h-91q-102 0 -156.5 48t-54.5 129q0 61 31.5 108.5t90 74t136.5 26.5q124 0 191.5 -65.5t72.5 -174.5h-74q-5 84 -52.5 130t-138.5 46q-85 0 -134 -38.5
t-49 -104.5q0 -108 142 -108h91q117 0 171.5 -53t54.5 -135q0 -65 -32.5 -115t-92.5 -78t-141 -28q-129 0 -201 68.5zM293 905h42l103 -142h-58l-65 74h-2l-66 -74h-57z" />
    <glyph glyph-name="scircumflex" unicode="&#x15d;" horiz-adv-x="516" 
d="M104 41q-60 53 -63 141h73q2 -65 43 -99.5t107 -34.5q63 0 100.5 30t37.5 80q0 44 -30 68.5t-87 24.5h-63q-79 0 -124.5 39t-45.5 106q0 48 24.5 85.5t70.5 59t109 21.5q98 0 153 -51t58 -139h-74q-2 63 -37 96.5t-100 33.5q-60 0 -95.5 -28.5t-35.5 -74.5q0 -40 27 -61
t76 -21h67q84 0 132.5 -43.5t48.5 -113.5q0 -50 -26 -89t-74 -61t-112 -22q-100 0 -160 53zM237 755h42l103 -142h-58l-65 74h-2l-66 -74h-57z" />
    <glyph glyph-name="Scedilla" unicode="&#x15e;" horiz-adv-x="630" 
d="M243 -183v51h75q16 0 25.5 8t9.5 21q0 14 -9.5 22t-25.5 8h-27v62q-115 8 -179 75.5t-68 177.5h74q4 -89 57.5 -139.5t147.5 -50.5q87 0 138.5 43t51.5 112q0 53 -36.5 86t-120.5 33h-91q-102 0 -156.5 48t-54.5 129q0 61 31.5 108.5t90 74t136.5 26.5q124 0 191.5 -65.5
t72.5 -174.5h-74q-5 84 -52.5 130t-138.5 46q-85 0 -134 -38.5t-49 -104.5q0 -108 142 -108h91q117 0 171.5 -53t54.5 -135q0 -63 -30.5 -112t-87 -77.5t-133.5 -31.5v-28q38 -2 58.5 -20t20.5 -49q0 -33 -23.5 -53.5t-64.5 -20.5h-84z" />
    <glyph glyph-name="scedilla" unicode="&#x15f;" horiz-adv-x="516" 
d="M187 -183v51h75q16 0 25.5 8t9.5 21q0 14 -9.5 22t-25.5 8h-27v62q-88 8 -139.5 60t-54.5 133h73q2 -65 43 -99.5t107 -34.5q63 0 100.5 30t37.5 80q0 44 -30 68.5t-87 24.5h-63q-79 0 -124.5 39t-45.5 106q0 48 24.5 85.5t70.5 59t109 21.5q98 0 153 -51t58 -139h-74
q-2 63 -37 96.5t-100 33.5q-60 0 -95.5 -28.5t-35.5 -74.5q0 -40 27 -61t76 -21h67q84 0 132.5 -43.5t48.5 -113.5q0 -73 -53 -120.5t-143 -51.5v-28q38 -2 58.5 -20t20.5 -49q0 -33 -23.5 -53.5t-64.5 -20.5h-84z" />
    <glyph glyph-name="Scaron" unicode="&#x160;" horiz-adv-x="630" 
d="M120 56.5q-72 68.5 -76 185.5h74q4 -89 57.5 -139.5t147.5 -50.5q87 0 138.5 43t51.5 112q0 53 -36.5 86t-120.5 33h-91q-102 0 -156.5 48t-54.5 129q0 61 31.5 108.5t90 74t136.5 26.5q124 0 191.5 -65.5t72.5 -174.5h-74q-5 84 -52.5 130t-138.5 46q-85 0 -134 -38.5
t-49 -104.5q0 -108 142 -108h91q117 0 171.5 -53t54.5 -135q0 -65 -32.5 -115t-92.5 -78t-141 -28q-129 0 -201 68.5zM190 905h57l66 -75h2l65 75h58l-103 -142h-42z" />
    <glyph glyph-name="scaron" unicode="&#x161;" horiz-adv-x="516" 
d="M104 41q-60 53 -63 141h73q2 -65 43 -99.5t107 -34.5q63 0 100.5 30t37.5 80q0 44 -30 68.5t-87 24.5h-63q-79 0 -124.5 39t-45.5 106q0 48 24.5 85.5t70.5 59t109 21.5q98 0 153 -51t58 -139h-74q-2 63 -37 96.5t-100 33.5q-60 0 -95.5 -28.5t-35.5 -74.5q0 -40 27 -61
t76 -21h67q84 0 132.5 -43.5t48.5 -113.5q0 -50 -26 -89t-74 -61t-112 -22q-100 0 -160 53zM134 755h57l66 -75h2l65 75h58l-103 -142h-42z" />
    <glyph glyph-name="uni0162" unicode="&#x162;" horiz-adv-x="597" 
d="M262 635h-245v65h563v-65h-245v-635h-14v-40q38 -2 58.5 -20t20.5 -49q0 -33 -23.5 -53.5t-64.5 -20.5h-84v51h75q16 0 25.5 8t9.5 21q0 14 -9.5 22t-25.5 8h-27v73h-14v635z" />
    <glyph glyph-name="uni0163" unicode="&#x163;" horiz-adv-x="409" 
d="M20 550h117v150h70v-150h177v-62h-177v-356q0 -70 69 -70h113v-62h-107v-40q38 -2 58.5 -20t20.5 -49q0 -33 -23.5 -53.5t-64.5 -20.5h-84v51h75q16 0 25.5 8t9.5 21q0 14 -9.5 22t-25.5 8h-27v75q-49 7 -74.5 39t-25.5 88v359h-117v62z" />
    <glyph glyph-name="Tcaron" unicode="&#x164;" horiz-adv-x="597" 
d="M262 635h-245v65h563v-65h-245v-635h-73v635zM175 905h57l66 -75h2l65 75h58l-103 -142h-42z" />
    <glyph glyph-name="tcaron" unicode="&#x165;" horiz-adv-x="394" 
d="M293 647.5q13 12.5 13 33.5v14h-43v86h75v-97q0 -37 -21.5 -59t-58.5 -22v32q22 0 35 12.5zM20 550h117v150h70v-150h177v-62h-177v-356q0 -70 69 -70h113v-62h-123q-64 0 -96.5 33t-32.5 96v359h-117v62z" />
    <glyph glyph-name="Tbar" unicode="&#x166;" horiz-adv-x="597" 
d="M100 371h162v264h-245v65h563v-65h-245v-264h156v-60h-156v-311h-73v311h-162v60z" />
    <glyph glyph-name="tbar" unicode="&#x167;" horiz-adv-x="409" 
d="M22 317h115v171h-117v62h117v150h70v-150h177v-62h-177v-171h155v-60h-155v-125q0 -70 69 -70h113v-62h-123q-64 0 -96.5 33t-32.5 96v128h-115v60z" />
    <glyph glyph-name="Utilde" unicode="&#x168;" horiz-adv-x="701" 
d="M212 21q-61 33 -96 97t-35 154v428h73v-426q0 -71 26 -121t70.5 -75.5t99.5 -25.5q56 1 100.5 26.5t70.5 75t26 120.5v426h73v-428q0 -90 -35 -154t-96.5 -97t-138.5 -33t-138 33zM378.5 778.5q-20.5 12.5 -46.5 37.5q-18 18 -31.5 27t-28.5 9q-22 0 -37.5 -19t-15.5 -55
v-4h-54v8q0 56 30.5 90t76.5 34q29 0 49.5 -12.5t46.5 -37.5q18 -18 31.5 -27t28.5 -9q22 0 37.5 19t15.5 55v4h54v-8q0 -56 -30.5 -90t-76.5 -34q-29 0 -49.5 12.5z" />
    <glyph glyph-name="utilde" unicode="&#x169;" horiz-adv-x="595" 
d="M122 47q-49 59 -49 167v336h70v-327q0 -91 37 -132t98 -41q45 0 83.5 21.5t61.5 66t23 110.5v302h70v-550h-68v121h-2q-24 -65 -72.5 -99t-114.5 -34q-88 0 -137 59zM323.5 628.5q-20.5 12.5 -46.5 37.5q-18 18 -31.5 27t-28.5 9q-22 0 -37.5 -19t-15.5 -55v-4h-54v8
q0 56 30.5 90t76.5 34q29 0 49.5 -12.5t46.5 -37.5q18 -18 31.5 -27t28.5 -9q22 0 37.5 19t15.5 55v4h54v-8q0 -56 -30.5 -90t-76.5 -34q-29 0 -49.5 12.5z" />
    <glyph glyph-name="Umacron" unicode="&#x16a;" horiz-adv-x="701" 
d="M212 21q-61 33 -96 97t-35 154v428h73v-426q0 -71 26 -121t70.5 -75.5t99.5 -25.5q56 1 100.5 26.5t70.5 75t26 120.5v426h73v-428q0 -90 -35 -154t-96.5 -97t-138.5 -33t-138 33zM212 867h277v-62h-277v62z" />
    <glyph glyph-name="umacron" unicode="&#x16b;" horiz-adv-x="595" 
d="M122 47q-49 59 -49 167v336h70v-327q0 -91 37 -132t98 -41q45 0 83.5 21.5t61.5 66t23 110.5v302h70v-550h-68v121h-2q-24 -65 -72.5 -99t-114.5 -34q-88 0 -137 59zM156 717h277v-62h-277v62z" />
    <glyph glyph-name="Ubreve" unicode="&#x16c;" horiz-adv-x="701" 
d="M212 21q-61 33 -96 97t-35 154v428h73v-426q0 -71 26 -121t70.5 -75.5t99.5 -25.5q56 1 100.5 26.5t70.5 75t26 120.5v426h73v-428q0 -90 -35 -154t-96.5 -97t-138.5 -33t-138 33zM262 802q-32 39 -32 103h54q0 -45 17.5 -68.5t48.5 -23.5t48.5 23.5t17.5 68.5h54
q0 -64 -32 -103t-88 -39t-88 39z" />
    <glyph glyph-name="ubreve" unicode="&#x16d;" horiz-adv-x="595" 
d="M122 47q-49 59 -49 167v336h70v-327q0 -91 37 -132t98 -41q45 0 83.5 21.5t61.5 66t23 110.5v302h70v-550h-68v121h-2q-24 -65 -72.5 -99t-114.5 -34q-88 0 -137 59zM207 652q-32 39 -32 103h54q0 -45 17.5 -68.5t48.5 -23.5t48.5 23.5t17.5 68.5h54q0 -64 -32 -103
t-88 -39t-88 39z" />
    <glyph glyph-name="Uring" unicode="&#x16e;" horiz-adv-x="701" 
d="M212 21q-61 33 -96 97t-35 154v428h73v-426q0 -71 26 -121t70.5 -75.5t99.5 -25.5q56 1 100.5 26.5t70.5 75t26 120.5v426h73v-428q0 -90 -35 -154t-96.5 -97t-138.5 -33t-138 33zM291.5 779.5q-23.5 23.5 -23.5 57.5q0 33 23.5 57t57.5 24t58 -24t24 -57
q0 -34 -24 -57.5t-58 -23.5t-57.5 23.5zM322.5 810q10.5 -11 26.5 -11t27 11t11 27t-11 27t-27 11t-26.5 -11t-10.5 -27t10.5 -27z" />
    <glyph glyph-name="uring" unicode="&#x16f;" horiz-adv-x="595" 
d="M122 47q-49 59 -49 167v336h70v-327q0 -91 37 -132t98 -41q45 0 83.5 21.5t61.5 66t23 110.5v302h70v-550h-68v121h-2q-24 -65 -72.5 -99t-114.5 -34q-88 0 -137 59zM236.5 629.5q-23.5 23.5 -23.5 57.5q0 33 23.5 57t57.5 24t58 -24t24 -57q0 -34 -24 -57.5t-58 -23.5
t-57.5 23.5zM267.5 660q10.5 -11 26.5 -11t27 11t11 27t-11 27t-27 11t-26.5 -11t-10.5 -27t10.5 -27z" />
    <glyph glyph-name="Uhungarumlaut" unicode="&#x170;" horiz-adv-x="701" 
d="M212 21q-61 33 -96 97t-35 154v428h73v-426q0 -71 26 -121t70.5 -75.5t99.5 -25.5q56 1 100.5 26.5t70.5 75t26 120.5v426h73v-428q0 -90 -35 -154t-96.5 -97t-138.5 -33t-138 33zM453 905h78l-87 -142h-60zM326 905h77l-87 -142h-60z" />
    <glyph glyph-name="uhungarumlaut" unicode="&#x171;" horiz-adv-x="595" 
d="M122 47q-49 59 -49 167v336h70v-327q0 -91 37 -132t98 -41q45 0 83.5 21.5t61.5 66t23 110.5v302h70v-550h-68v121h-2q-24 -65 -72.5 -99t-114.5 -34q-88 0 -137 59zM398 755h78l-87 -142h-60zM271 755h77l-87 -142h-60z" />
    <glyph glyph-name="Uogonek" unicode="&#x172;" horiz-adv-x="701" 
d="M460.5 -156.5q-33.5 26.5 -33.5 73.5q0 46 32 89v1q-52 -19 -109 -19q-77 0 -138 33t-96 97t-35 154v428h73v-426q0 -71 26 -121t70.5 -75.5t99.5 -25.5q56 1 100.5 26.5t70.5 75t26 120.5v426h73v-428q0 -75 -25 -132.5t-70 -93.5q-24 -22 -38 -48t-14 -52
q0 -34 22 -52.5t60 -18.5h11v-58h-13q-59 0 -92.5 26.5z" />
    <glyph glyph-name="uogonek" unicode="&#x173;" horiz-adv-x="595" 
d="M122 47q-49 59 -49 167v336h70v-327q0 -91 37 -132t98 -41q45 0 83.5 21.5t61.5 66t23 110.5v302h70v-550l-6 -3q-21 -3 -34.5 -19t-13.5 -39q0 -29 22.5 -46.5t59.5 -17.5h10v-58h-12q-60 0 -93 26t-33 68q0 26 13 49t39 38v2h-20v121h-2q-24 -65 -72.5 -99t-114.5 -34
q-88 0 -137 59z" />
    <glyph glyph-name="Wcircumflex" unicode="&#x174;" horiz-adv-x="922" 
d="M13 700h76l169 -611h2l155 611h94l153 -611h2l169 611h76l-205 -700h-84l-158 612h-2l-158 -612h-84zM441 905h42l103 -142h-58l-65 74h-2l-66 -74h-57z" />
    <glyph glyph-name="wcircumflex" unicode="&#x175;" horiz-adv-x="731" 
d="M13 550h74l120 -463h2l114 463h85l114 -463h2l120 463h74l-155 -550h-79l-117 458h-2l-117 -458h-79zM345 755h42l103 -142h-58l-65 74h-2l-66 -74h-57z" />
    <glyph glyph-name="Ycircumflex" unicode="&#x176;" horiz-adv-x="589" 
d="M258 285l-245 415h83l198 -351h2l197 351h83l-245 -415v-285h-73v285zM274 905h42l103 -142h-58l-65 74h-2l-66 -74h-57z" />
    <glyph glyph-name="ycircumflex" unicode="&#x177;" horiz-adv-x="517" 
d="M13 -138h141l69 168l-210 520h77l168 -439h2l168 439h76l-287 -716q-12 -34 -51 -34h-153v62zM238 755h42l103 -142h-58l-65 74h-2l-66 -74h-57z" />
    <glyph glyph-name="Ydieresis" unicode="&#x178;" horiz-adv-x="589" 
d="M258 285l-245 415h83l198 -351h2l197 351h83l-245 -415v-285h-73v285zM194 883h73v-77h-73v77zM323 883h73v-77h-73v77z" />
    <glyph glyph-name="Zacute" unicode="&#x179;" horiz-adv-x="586" 
d="M22 61l434 572v2h-424v65h523v-55l-434 -572v-2h444v-71h-543v61zM339 905h78l-87 -142h-60z" />
    <glyph glyph-name="zacute" unicode="&#x17a;" horiz-adv-x="498" 
d="M22 53l340 434v1h-320v62h414v-53l-339 -434v-1h359v-62h-454v53zM289 755h78l-87 -142h-60z" />
    <glyph glyph-name="Zdotaccent" unicode="&#x17b;" horiz-adv-x="586" 
d="M22 61l434 572v2h-424v65h523v-55l-434 -572v-2h444v-71h-543v61zM263 883h74v-77h-74v77z" />
    <glyph glyph-name="zdotaccent" unicode="&#x17c;" horiz-adv-x="498" 
d="M22 53l340 434v1h-320v62h414v-53l-339 -434v-1h359v-62h-454v53zM212 733h74v-77h-74v77z" />
    <glyph glyph-name="Zcaron" unicode="&#x17d;" horiz-adv-x="586" 
d="M22 61l434 572v2h-424v65h523v-55l-434 -572v-2h444v-71h-543v61zM176 905h57l66 -75h2l65 75h58l-103 -142h-42z" />
    <glyph glyph-name="zcaron" unicode="&#x17e;" horiz-adv-x="498" 
d="M22 53l340 434v1h-320v62h414v-53l-339 -434v-1h359v-62h-454v53zM126 755h57l66 -75h2l65 75h58l-103 -142h-42z" />
    <glyph glyph-name="longs" unicode="&#x17f;" horiz-adv-x="315" 
d="M85 488h-77v62h77v59q0 83 42 127.5t124 44.5h58v-62h-55q-50 0 -74.5 -26.5t-24.5 -86.5v-606h-70v488z" />
    <glyph glyph-name="uni018F" unicode="&#x18f;" horiz-adv-x="744" 
d="M201.5 29q-74.5 41 -116.5 116t-42 174v54h581q-6 127 -72.5 201t-179.5 74q-88 0 -154 -44.5t-89 -119.5h-80q14 66 59 118t113.5 81.5t148.5 29.5q99 0 174 -45t116 -127t41 -190q0 -110 -41 -192.5t-116 -126.5t-173 -44q-95 0 -169.5 41zM151 176.5
q31 -58.5 87.5 -91t132.5 -32.5q113 0 178.5 69t73.5 187h-503q0 -74 31 -132.5z" />
    <glyph glyph-name="florin" unicode="&#x192;" horiz-adv-x="688" 
d="M37 -138h80q48 0 75 24.5t41 80.5l103 385h-163v62h180l32 119q24 89 66.5 128t122.5 39h77v-62h-77q-49 0 -76 -24t-43 -81l-32 -119h177v-62h-193l-103 -385q-24 -88 -66 -127.5t-121 -39.5h-80v62z" />
    <glyph glyph-name="uni019D" unicode="&#x19d;" horiz-adv-x="742" 
d="M-20 -139h37q30 0 47 19t17 53v767h97l410 -601h2l-1 100v501h72v-700h-96l-411 602h-2l1 -100v-572q0 -57 -35.5 -93.5t-90.5 -36.5h-47v61z" />
    <glyph glyph-name="uni01B7" unicode="&#x1b7;" horiz-adv-x="588" 
d="M114.5 49q-68.5 61 -69.5 168h73q1 -80 49.5 -124.5t126.5 -44.5q77 0 126.5 43t49.5 116q0 71 -48 112.5t-132 41.5h-84v60l213 213v2h-351v64h446v-63l-217 -212v-2q81 -3 136 -32.5t82.5 -77t27.5 -106.5q0 -65 -31.5 -114.5t-88.5 -77t-130 -27.5q-110 0 -178.5 61z
" />
    <glyph glyph-name="uni01CF" unicode="&#x1cf;" horiz-adv-x="234" 
d="M81 700h72v-700h-72v700zM-6 905h57l66 -75h2l65 75h58l-103 -142h-42z" />
    <glyph glyph-name="uni01D0" unicode="&#x1d0;" 
d="M78 550h70v-550h-70v550zM-10 755h57l66 -75h2l65 75h58l-103 -142h-42z" />
    <glyph glyph-name="uni01D1" unicode="&#x1d1;" horiz-adv-x="761" 
d="M211 30.5q-77 42.5 -122.5 124.5t-45.5 195t45.5 195t122.5 124.5t170 42.5t170 -42.5t122.5 -124.5t45.5 -195t-45.5 -195t-122.5 -124.5t-170 -42.5t-170 42.5zM153.5 187.5q34.5 -67.5 94 -101.5t133.5 -34q74 1 133 35t93.5 101t34.5 162t-34.5 162t-93.5 101
t-133 35q-74 0 -133.5 -34t-94 -101.5t-34.5 -162.5t34.5 -162.5zM257 905h57l66 -75h2l65 75h58l-103 -142h-42z" />
    <glyph glyph-name="uni01D2" unicode="&#x1d2;" horiz-adv-x="613" 
d="M169.5 22q-61.5 34 -97 99t-35.5 154t35.5 154t97 99t136.5 34q76 0 137.5 -34t97 -99t35.5 -154t-35.5 -154t-97 -99t-137.5 -34q-75 0 -136.5 34zM135.5 152.5q25.5 -51.5 70 -78t100.5 -26.5t100.5 26.5t70 78t25.5 122.5t-25.5 122.5t-70 78t-100.5 26.5
t-100.5 -26.5t-70 -78t-25.5 -122.5t25.5 -122.5zM183 755h57l66 -75h2l65 75h58l-103 -142h-42z" />
    <glyph glyph-name="uni01D3" unicode="&#x1d3;" horiz-adv-x="701" 
d="M212 21q-61 33 -96 97t-35 154v428h73v-426q0 -71 26 -121t70.5 -75.5t99.5 -25.5q56 1 100.5 26.5t70.5 75t26 120.5v426h73v-428q0 -90 -35 -154t-96.5 -97t-138.5 -33t-138 33zM227 905h57l66 -75h2l65 75h58l-103 -142h-42z" />
    <glyph glyph-name="uni01D4" unicode="&#x1d4;" horiz-adv-x="595" 
d="M122 47q-49 59 -49 167v336h70v-327q0 -91 37 -132t98 -41q45 0 83.5 21.5t61.5 66t23 110.5v302h70v-550h-68v121h-2q-24 -65 -72.5 -99t-114.5 -34q-88 0 -137 59zM171 755h57l66 -75h2l65 75h58l-103 -142h-42z" />
    <glyph glyph-name="uni01E4" unicode="&#x1e4;" horiz-adv-x="763" 
d="M202 33q-75 45 -117 127.5t-42 190.5q0 107 41 188.5t118.5 127t183.5 45.5q90 0 157.5 -32.5t107 -87t48.5 -120.5h-76q-8 48 -38.5 88t-81.5 64t-117 24q-82 0 -142.5 -38t-92.5 -105t-32 -154q0 -91 34.5 -158.5t95.5 -104t137 -36.5q81 0 142 40.5t92 109.5h-250v63
h270q6 30 6 63h-276v65h287q21 0 32 -11t11 -31v-86h57v-63h-57v-202h-71l16 172h-2q-33 -86 -102 -135t-169 -49q-95 0 -170 45z" />
    <glyph glyph-name="uni01E5" unicode="&#x1e5;" horiz-adv-x="567" 
d="M78.5 -163.5q-43.5 36.5 -43.5 94.5q0 44 25 76t71 43v2q-34 10 -53 32.5t-19 53.5q0 35 24 56.5t64 22.5h19v2q-54 19 -83.5 60.5t-29.5 98.5t28 98.5t77 63.5t110 22q56 0 102 -19t75 -53q4 29 20.5 44.5t43.5 15.5h31v-62h-42q-28 0 -36 -24q15 -26 20 -58h58v-59h-58
q-12 -71 -71 -113t-143 -42h-86q-28 0 -44 -11.5t-16 -33.5t17 -35.5t48 -13.5h191q78 0 123.5 -40.5t45.5 -107.5q0 -68 -45.5 -109t-124.5 -41h-173q-82 0 -125.5 36.5zM125.5 -117q26.5 -24 77.5 -24h170q47 0 75 24t28 65t-27.5 65.5t-74.5 24.5h-172q-50 0 -76.5 -24.5
t-26.5 -65.5t26.5 -65zM164.5 284q41.5 -32 103.5 -32q54 0 93.5 24.5t49.5 70.5h-143v59h143q-10 46 -49.5 71t-93.5 25q-62 0 -103.5 -32.5t-41.5 -92.5q0 -61 41.5 -93z" />
    <glyph glyph-name="Gcaron" unicode="&#x1e6;" horiz-adv-x="763" 
d="M202 33q-75 45 -117 127.5t-42 190.5q0 106 41 188t117.5 127.5t179.5 45.5q94 0 164.5 -37.5t109.5 -101t44 -141.5h-76q-3 59 -33.5 108.5t-84.5 78.5t-124 29q-80 0 -139.5 -38t-91 -105t-31.5 -154q0 -90 34.5 -158t94 -104.5t133.5 -36.5q72 0 126.5 32.5t86.5 83
t39 103.5h-263v65h287q21 0 32 -11t11 -31v-294h-71l16 172h-2q-33 -86 -102 -135t-169 -49q-95 0 -170 45zM253 905h57l66 -75h2l65 75h58l-103 -142h-42z" />
    <glyph glyph-name="gcaron" unicode="&#x1e7;" horiz-adv-x="567" 
d="M78.5 -163.5q-43.5 36.5 -43.5 94.5q0 44 25 76t71 43v2q-34 10 -53 32.5t-19 53.5q0 35 24 56.5t64 22.5h19v2q-54 19 -83.5 60.5t-29.5 98.5t28 98.5t77 63.5t110 22q56 0 102 -19t75 -53q4 29 20.5 44.5t43.5 15.5h31v-62h-42q-28 0 -36 -24q22 -38 22 -86
q0 -56 -28.5 -98t-77.5 -65t-110 -23h-86q-28 0 -44 -11.5t-16 -33.5t17 -35.5t48 -13.5h191q78 0 123.5 -40.5t45.5 -107.5q0 -68 -45.5 -109t-124.5 -41h-173q-82 0 -125.5 36.5zM125.5 -117q26.5 -24 77.5 -24h170q47 0 75 24t28 65t-27.5 65.5t-74.5 24.5h-172
q-50 0 -76.5 -24.5t-26.5 -65.5t26.5 -65zM164.5 284q41.5 -32 103.5 -32q63 0 104.5 32.5t41.5 92.5t-41.5 92.5t-104.5 32.5q-62 0 -103.5 -32.5t-41.5 -92.5q0 -61 41.5 -93zM145 755h57l66 -75h2l65 75h58l-103 -142h-42z" />
    <glyph glyph-name="uni01EA" unicode="&#x1ea;" horiz-adv-x="761" 
d="M512.5 -156.5q-33.5 26.5 -33.5 73.5q0 51 37 96v1q-64 -26 -135 -26q-93 0 -170 42.5t-122.5 124.5t-45.5 195t45.5 195t122.5 124.5t170 42.5t170 -42.5t122.5 -124.5t45.5 -195q0 -102 -37.5 -178.5t-102.5 -123.5q-26 -22 -40 -48.5t-14 -53.5q0 -34 22 -52.5
t60 -18.5h10v-58h-12q-59 0 -92.5 26.5zM153.5 187.5q34.5 -67.5 94 -101.5t133.5 -34q74 1 133 35t93.5 101t34.5 162t-34.5 162t-93.5 101t-133 35q-74 0 -133.5 -34t-94 -101.5t-34.5 -162.5t34.5 -162.5z" />
    <glyph glyph-name="uni01EB" unicode="&#x1eb;" horiz-adv-x="613" 
d="M414.5 -156.5q-33.5 26.5 -33.5 73.5q0 49 33 90v1q-51 -20 -108 -20q-75 0 -136.5 34t-97 99t-35.5 154t35.5 154t97 99t136.5 34q76 0 137.5 -34t97 -99t35.5 -154q0 -74 -25 -131.5t-70 -95.5q-26 -22 -40 -48.5t-14 -53.5q0 -34 22 -52.5t60 -18.5h10v-58h-12
q-59 0 -92.5 26.5zM135.5 152.5q25.5 -51.5 70 -78t100.5 -26.5t100.5 26.5t70 78t25.5 122.5t-25.5 122.5t-70 78t-100.5 26.5t-100.5 -26.5t-70 -78t-25.5 -122.5t25.5 -122.5z" />
    <glyph glyph-name="AEacute" unicode="&#x1fc;" horiz-adv-x="896" 
d="M447 196h-268l-86 -196h-76l318 700h530v-65h-344v-252h305v-65h-305v-253h345v-65h-419v196zM447 261v374h-75l-164 -374h239zM523 905h78l-87 -142h-60z" />
    <glyph glyph-name="aeacute" unicode="&#x1fd;" horiz-adv-x="973" 
d="M99.5 32q-56.5 44 -56.5 127q0 81 54.5 124.5t145.5 43.5h96q97 0 97 71q0 48 -40.5 76t-100.5 28q-67 0 -112 -34.5t-50 -95.5h-72q7 88 69 139t160 51q77 0 128 -32.5t65 -96.5h2q28 64 83 96.5t125 32.5q71 0 126 -32.5t86 -92t31 -137.5v-46h-431q4 -92 54 -149
t133 -57q61 0 103 32.5t61 88.5h75q-18 -80 -83 -130.5t-155 -50.5q-81 0 -144.5 45t-86.5 129h-2q-22 -82 -81.5 -128t-141.5 -46q-81 0 -137.5 44zM151 79q34 -31 95 -31q50 0 93.5 23t70 70.5t26.5 118.5v66h-2q-14 -29 -43 -44t-79 -15h-67q-64 0 -96 -30.5t-32 -77.5
q0 -49 34 -80zM862 314q-1 84 -46 136t-123 52q-80 0 -130.5 -53.5t-56.5 -134.5h356zM526 755h78l-87 -142h-60z" />
    <glyph glyph-name="Oslashacute" unicode="&#x1fe;" horiz-adv-x="763" 
d="M632 607q42 -47 65.5 -112t23.5 -145q0 -113 -45.5 -195t-122.5 -124.5t-170 -42.5q-60 0 -114 18t-97 52l-49 -58h-73v2l80 96q-41 46 -63 110t-22 142q0 113 45.5 195t122.5 124.5t170 42.5q58 0 110.5 -17t95.5 -49l46 54h72l1 -2zM177 153l368 440q-33 27 -74.5 41
t-87.5 14q-74 0 -133.5 -34t-94 -101.5t-34.5 -162.5q0 -119 56 -197zM292.5 67q42.5 -15 90.5 -15q74 1 133 35t93.5 101t34.5 162q0 124 -59 202l-369 -442q34 -28 76.5 -43zM421 905h78l-87 -142h-60z" />
    <glyph glyph-name="oslashacute" unicode="&#x1ff;" horiz-adv-x="613" 
d="M59 2l51 66q-35 38 -54 90.5t-19 116.5q0 89 35.5 154t97 99t136.5 34q88 0 153 -44l25 32h70v-2l-52 -66q35 -38 54.5 -90.5t19.5 -116.5q0 -89 -35.5 -154t-97 -99t-137.5 -34q-88 0 -153 44l-25 -32h-69v2zM153 123l266 344q-47 35 -113 35q-56 0 -100.5 -26.5
t-70 -78t-25.5 -122.5q0 -91 43 -152zM306 48q56 0 100.5 26.5t70 78t25.5 122.5q0 92 -43 151l-266 -343q49 -35 113 -35zM346 755h78l-87 -142h-60z" />
    <glyph glyph-name="uni0218" unicode="&#x218;" horiz-adv-x="630" 
d="M120 56.5q-72 68.5 -76 185.5h74q4 -89 57.5 -139.5t147.5 -50.5q87 0 138.5 43t51.5 112q0 53 -36.5 86t-120.5 33h-91q-102 0 -156.5 48t-54.5 129q0 61 31.5 108.5t90 74t136.5 26.5q124 0 191.5 -65.5t72.5 -174.5h-74q-5 84 -52.5 130t-138.5 46q-85 0 -134 -38.5
t-49 -104.5q0 -108 142 -108h91q117 0 171.5 -53t54.5 -135q0 -65 -32.5 -115t-92.5 -78t-141 -28q-129 0 -201 68.5zM305.5 -161.5q10.5 9.5 10.5 26.5v6h-36v72h68v-78q0 -32 -19 -50t-53 -18v32q19 0 29.5 9.5z" />
    <glyph glyph-name="uni0219" unicode="&#x219;" horiz-adv-x="516" 
d="M104 41q-60 53 -63 141h73q2 -65 43 -99.5t107 -34.5q63 0 100.5 30t37.5 80q0 44 -30 68.5t-87 24.5h-63q-79 0 -124.5 39t-45.5 106q0 48 24.5 85.5t70.5 59t109 21.5q98 0 153 -51t58 -139h-74q-2 63 -37 96.5t-100 33.5q-60 0 -95.5 -28.5t-35.5 -74.5q0 -40 27 -61
t76 -21h67q84 0 132.5 -43.5t48.5 -113.5q0 -50 -26 -89t-74 -61t-112 -22q-100 0 -160 53zM249.5 -161.5q10.5 9.5 10.5 26.5v6h-36v72h68v-78q0 -32 -19 -50t-53 -18v32q19 0 29.5 9.5z" />
    <glyph glyph-name="uni021A" unicode="&#x21a;" horiz-adv-x="597" 
d="M262 635h-245v65h563v-65h-245v-635h-73v635zM290.5 -161.5q10.5 9.5 10.5 26.5v6h-36v72h68v-78q0 -32 -19 -50t-53 -18v32q19 0 29.5 9.5z" />
    <glyph glyph-name="uni021B" unicode="&#x21b;" horiz-adv-x="409" 
d="M169.5 33q-32.5 33 -32.5 96v359h-117v62h117v150h70v-150h177v-62h-177v-356q0 -70 69 -70h113v-62h-123q-64 0 -96.5 33zM250.5 -161.5q10.5 9.5 10.5 26.5v6h-36v72h68v-78q0 -32 -19 -50t-53 -18v32q19 0 29.5 9.5z" />
    <glyph glyph-name="uni0232" unicode="&#x232;" horiz-adv-x="589" 
d="M258 285l-245 415h83l198 -351h2l197 351h83l-245 -415v-285h-73v285zM156 867h277v-62h-277v62z" />
    <glyph glyph-name="uni0233" unicode="&#x233;" horiz-adv-x="517" 
d="M13 -138h141l69 168l-210 520h77l168 -439h2l168 439h76l-287 -716q-12 -34 -51 -34h-153v62zM120 717h277v-62h-277v62z" />
    <glyph glyph-name="uni0237" unicode="&#x237;" horiz-adv-x="225" 
d="M-24 -139h39q30 0 46 19t16 53v617h70v-622q0 -56 -34.5 -92t-89.5 -36h-47v61z" />
    <glyph glyph-name="uni0259" unicode="&#x259;" horiz-adv-x="594" 
d="M163 20.5q-59 32.5 -92.5 92t-33.5 137.5v46h446q-4 92 -54 148.5t-134 56.5q-64 0 -112.5 -32.5t-65.5 -87.5h-75q11 52 46.5 93.5t89.5 64.5t117 23q79 0 138.5 -35.5t92 -100.5t32.5 -151q0 -87 -32.5 -152t-91.5 -100t-137 -35q-75 0 -134 32.5zM161.5 101
q50.5 -52 133.5 -52t131.5 52.5t54.5 134.5h-370q0 -83 50.5 -135z" />
    <glyph glyph-name="uni0272" unicode="&#x272;" horiz-adv-x="599" 
d="M-22 -139h37q29 0 46 19t17 53v617h69v-122h2q24 64 74 99t116 35q87 0 135.5 -59.5t48.5 -167.5v-335h-70v326q0 91 -37 132.5t-98 41.5q-45 0 -83.5 -22t-62.5 -67t-24 -110v-371q0 -57 -35.5 -93.5t-90.5 -36.5h-44v61z" />
    <glyph glyph-name="uni0292" unicode="&#x292;" horiz-adv-x="600" 
d="M177.5 -183q-55.5 29 -86.5 83t-32 127h74q0 -55 22.5 -95.5t61.5 -62t87 -21.5t86.5 21t60.5 60.5t22 92.5q0 77 -46 123t-127 46h-84v60l213 233v2h-351v64h446v-63l-217 -232v-2q79 -3 133 -34.5t80.5 -82.5t26.5 -114q0 -70 -30.5 -123t-86 -82t-126.5 -29t-126.5 29
z" />
    <glyph glyph-name="circumflex" unicode="&#x2c6;" horiz-adv-x="301" 
d="M130 755h42l103 -142h-58l-65 74h-2l-66 -74h-57z" />
    <glyph glyph-name="caron" unicode="&#x2c7;" horiz-adv-x="303" 
d="M27 755h57l66 -75h2l65 75h58l-103 -142h-42z" />
    <glyph glyph-name="breve" unicode="&#x2d8;" horiz-adv-x="286" 
d="M55 652q-32 39 -32 103h54q0 -45 17.5 -68.5t48.5 -23.5t48.5 23.5t17.5 68.5h54q0 -64 -32 -103t-88 -39t-88 39z" />
    <glyph glyph-name="dotaccent" unicode="&#x2d9;" horiz-adv-x="120" 
d="M23 733h74v-77h-74v77z" />
    <glyph glyph-name="ring" unicode="&#x2da;" horiz-adv-x="209" 
d="M46.5 629.5q-23.5 23.5 -23.5 57.5q0 33 23.5 57t57.5 24t58 -24t24 -57q0 -34 -24 -57.5t-58 -23.5t-57.5 23.5zM77.5 660q10.5 -11 26.5 -11t27 11t11 27t-11 27t-27 11t-26.5 -11t-10.5 -27t10.5 -27z" />
    <glyph glyph-name="ogonek" unicode="&#x2db;" horiz-adv-x="163" 
d="M163 -125v-58h-12q-60 0 -93 26t-33 68q0 26 13 49t39 38v11h16l32 -9l-6 -3q-21 -3 -34.5 -19t-13.5 -39q0 -29 22.5 -46.5t59.5 -17.5h10z" />
    <glyph glyph-name="tilde" unicode="&#x2dc;" horiz-adv-x="427" 
d="M233.5 628.5q-20.5 12.5 -46.5 37.5q-18 18 -31.5 27t-28.5 9q-22 0 -37.5 -19t-15.5 -55v-4h-54v8q0 56 30.5 90t76.5 34q29 0 49.5 -12.5t46.5 -37.5q18 -18 31.5 -27t28.5 -9q22 0 37.5 19t15.5 55v4h54v-8q0 -56 -30.5 -90t-76.5 -34q-29 0 -49.5 12.5z" />
    <glyph glyph-name="hungarumlaut" unicode="&#x2dd;" horiz-adv-x="327" 
d="M220 755h78l-87 -142h-60zM93 755h77l-87 -142h-60z" />
    <glyph glyph-name="gravecomb" unicode="&#x300;" horiz-adv-x="0" 
d="M17 755h77l70 -142h-56z" />
    <glyph glyph-name="acutecomb" unicode="&#x301;" horiz-adv-x="0" 
d="M86 755h78l-87 -142h-60z" />
    <glyph glyph-name="uni0302" unicode="&#x302;" horiz-adv-x="0" 
d="M130 755h42l103 -142h-58l-65 74h-2l-66 -74h-57z" />
    <glyph glyph-name="tildecomb" unicode="&#x303;" horiz-adv-x="0" 
d="M233.5 628.5q-20.5 12.5 -46.5 37.5q-18 18 -31.5 27t-28.5 9q-22 0 -37.5 -19t-15.5 -55v-4h-54v8q0 56 30.5 90t76.5 34q29 0 49.5 -12.5t46.5 -37.5q18 -18 31.5 -27t28.5 -9q22 0 37.5 19t15.5 55v4h54v-8q0 -56 -30.5 -90t-76.5 -34q-29 0 -49.5 12.5z" />
    <glyph glyph-name="uni0304" unicode="&#x304;" horiz-adv-x="0" 
d="M23 717h277v-62h-277v62z" />
    <glyph glyph-name="uni0306" unicode="&#x306;" horiz-adv-x="0" 
d="M55 652q-32 39 -32 103h54q0 -45 17.5 -68.5t48.5 -23.5t48.5 23.5t17.5 68.5h54q0 -64 -32 -103t-88 -39t-88 39z" />
    <glyph glyph-name="uni0307" unicode="&#x307;" horiz-adv-x="0" 
d="M23 733h74v-77h-74v77z" />
    <glyph glyph-name="uni0308" unicode="&#x308;" horiz-adv-x="0" 
d="M37 733h73v-77h-73v77zM166 733h73v-77h-73v77z" />
    <glyph glyph-name="uni030A" unicode="&#x30a;" horiz-adv-x="0" 
d="M46.5 629.5q-23.5 23.5 -23.5 57.5q0 33 23.5 57t57.5 24t58 -24t24 -57q0 -34 -24 -57.5t-58 -23.5t-57.5 23.5zM77.5 660q10.5 -11 26.5 -11t27 11t11 27t-11 27t-27 11t-26.5 -11t-10.5 -27t10.5 -27z" />
    <glyph glyph-name="uni030B" unicode="&#x30b;" horiz-adv-x="0" 
d="M220 755h78l-87 -142h-60zM93 755h77l-87 -142h-60z" />
    <glyph glyph-name="uni030C" unicode="&#x30c;" horiz-adv-x="0" 
d="M27 755h57l66 -75h2l65 75h58l-103 -142h-42z" />
    <glyph glyph-name="uni0312" unicode="&#x312;" horiz-adv-x="0" 
d="M105.5 717.5q-10.5 -9.5 -10.5 -26.5v-7h37v-72h-69v79q0 31 19.5 49.5t52.5 18.5v-32q-19 0 -29.5 -9.5z" />
    <glyph glyph-name="uni0326" unicode="&#x326;" horiz-adv-x="0" 
d="M82.5 -161.5q10.5 9.5 10.5 26.5v6h-36v72h68v-78q0 -32 -19 -50t-53 -18v32q19 0 29.5 9.5z" />
    <glyph glyph-name="uni0327" unicode="&#x327;" horiz-adv-x="0" 
d="M23 -183v51h75q16 0 25.5 8t9.5 21q0 14 -9.5 22t-25.5 8h-27v95h45v-62q38 -2 58.5 -20t20.5 -49q0 -33 -23.5 -53.5t-64.5 -20.5h-84z" />
    <glyph glyph-name="uni0328" unicode="&#x328;" horiz-adv-x="0" 
d="M163 -125v-58h-12q-60 0 -93 26t-33 68q0 26 13 49t39 38v11h16l32 -9l-6 -3q-21 -3 -34.5 -19t-13.5 -39q0 -29 22.5 -46.5t59.5 -17.5h10z" />
    <glyph glyph-name="uni0394" unicode="&#x394;" horiz-adv-x="637" 
d="M23 59l257 644h78l256 -644v-59h-591v59zM538 62v2l-218 562h-2l-218 -562v-2h438z" />
    <glyph glyph-name="uni03A9" unicode="&#x3a9;" horiz-adv-x="753" 
d="M63 62h189v2q-103 56 -155 137t-52 180q0 94 41 169.5t116.5 118.5t174.5 43t174 -43t116 -118.5t41 -169.5q0 -99 -52.5 -180t-154.5 -137v-2h189v-62h-243v66q94 70 140 147t46 170q0 80 -32.5 141t-91 93.5t-132.5 31.5q-74 0 -132.5 -32.5t-91 -93t-32.5 -140.5
q0 -93 46 -170t140 -147v-66h-244v62z" />
    <glyph glyph-name="uni03BC" unicode="&#x3bc;" horiz-adv-x="609" 
d="M78 550h70v-363q0 -71 39 -104t94 -33q45 0 82 22t58.5 65.5t21.5 104.5v308h70v-450q0 -20 8.5 -29t27.5 -9h41v-62h-65q-36 0 -56.5 20.5t-20.5 56.5v49h-2q-18 -66 -62.5 -102t-102.5 -36q-48 0 -83.5 24.5t-47.5 70.5h-2v-253h-70v720z" />
    <glyph glyph-name="pi" unicode="&#x3c0;" horiz-adv-x="566" 
d="M120 488h-100v62h526v-62h-100v-388q0 -20 8.5 -29t27.5 -9h39v-62h-61q-41 0 -63.5 23t-22.5 64v401h-182v-488h-72v488z" />
    <glyph glyph-name="uni1E20" unicode="&#x1e20;" horiz-adv-x="763" 
d="M202 33q-75 45 -117 127.5t-42 190.5q0 106 41 188t117.5 127.5t179.5 45.5q94 0 164.5 -37.5t109.5 -101t44 -141.5h-76q-3 59 -33.5 108.5t-84.5 78.5t-124 29q-80 0 -139.5 -38t-91 -105t-31.5 -154q0 -90 34.5 -158t94 -104.5t133.5 -36.5q72 0 126.5 32.5t86.5 83
t39 103.5h-263v65h287q21 0 32 -11t11 -31v-294h-71l16 172h-2q-33 -86 -102 -135t-169 -49q-95 0 -170 45zM238 867h277v-62h-277v62z" />
    <glyph glyph-name="uni1E21" unicode="&#x1e21;" horiz-adv-x="567" 
d="M78.5 -163.5q-43.5 36.5 -43.5 94.5q0 44 25 76t71 43v2q-34 10 -53 32.5t-19 53.5q0 35 24 56.5t64 22.5h19v2q-54 19 -83.5 60.5t-29.5 98.5t28 98.5t77 63.5t110 22q56 0 102 -19t75 -53q4 29 20.5 44.5t43.5 15.5h31v-62h-42q-28 0 -36 -24q22 -38 22 -86
q0 -56 -28.5 -98t-77.5 -65t-110 -23h-86q-28 0 -44 -11.5t-16 -33.5t17 -35.5t48 -13.5h191q78 0 123.5 -40.5t45.5 -107.5q0 -68 -45.5 -109t-124.5 -41h-173q-82 0 -125.5 36.5zM125.5 -117q26.5 -24 77.5 -24h170q47 0 75 24t28 65t-27.5 65.5t-74.5 24.5h-172
q-50 0 -76.5 -24.5t-26.5 -65.5t26.5 -65zM164.5 284q41.5 -32 103.5 -32q63 0 104.5 32.5t41.5 92.5t-41.5 92.5t-104.5 32.5q-62 0 -103.5 -32.5t-41.5 -92.5q0 -61 41.5 -93zM130 717h277v-62h-277v62z" />
    <glyph glyph-name="Wgrave" unicode="&#x1e80;" horiz-adv-x="922" 
d="M13 700h76l169 -611h2l155 611h94l153 -611h2l169 611h76l-205 -700h-84l-158 612h-2l-158 -612h-84zM343 905h77l70 -142h-56z" />
    <glyph glyph-name="wgrave" unicode="&#x1e81;" horiz-adv-x="731" 
d="M13 550h74l120 -463h2l114 463h85l114 -463h2l120 463h74l-155 -550h-79l-117 458h-2l-117 -458h-79zM247 755h77l70 -142h-56z" />
    <glyph glyph-name="Wacute" unicode="&#x1e82;" horiz-adv-x="922" 
d="M13 700h76l169 -611h2l155 611h94l153 -611h2l169 611h76l-205 -700h-84l-158 612h-2l-158 -612h-84zM501 905h78l-87 -142h-60z" />
    <glyph glyph-name="wacute" unicode="&#x1e83;" horiz-adv-x="731" 
d="M13 550h74l120 -463h2l114 463h85l114 -463h2l120 463h74l-155 -550h-79l-117 458h-2l-117 -458h-79zM405 755h78l-87 -142h-60z" />
    <glyph glyph-name="Wdieresis" unicode="&#x1e84;" horiz-adv-x="922" 
d="M13 700h76l169 -611h2l155 611h94l153 -611h2l169 611h76l-205 -700h-84l-158 612h-2l-158 -612h-84zM361 883h73v-77h-73v77zM490 883h73v-77h-73v77z" />
    <glyph glyph-name="wdieresis" unicode="&#x1e85;" horiz-adv-x="731" 
d="M13 550h74l120 -463h2l114 463h85l114 -463h2l120 463h74l-155 -550h-79l-117 458h-2l-117 -458h-79zM265 733h73v-77h-73v77zM394 733h73v-77h-73v77z" />
    <glyph glyph-name="uni1E9E" unicode="&#x1e9e;" horiz-adv-x="830" 
d="M379.5 21q-63.5 33 -99 90.5t-38.5 130.5h73q6 -87 63 -138.5t149 -51.5q58 0 99.5 20.5t63 54.5t21.5 74q0 61 -38.5 94.5t-119.5 33.5h-65q-93 0 -147 46.5t-54 120.5q0 45 22 82t65 55v2h-125q-49 0 -72 -25.5t-23 -76.5v-533h-73v533q0 78 43 122.5t125 44.5h477v-65
h-213q-71 0 -110.5 -35.5t-39.5 -90.5q0 -54 40 -84.5t114 -30.5h48q106 0 163.5 -51.5t57.5 -137.5q0 -59 -32 -108.5t-91 -79t-138 -29.5q-82 0 -145.5 33z" />
    <glyph glyph-name="uni1EA0" unicode="&#x1ea0;" horiz-adv-x="636" 
d="M280 700h76l264 -700h-77l-71 196h-308l-71 -196h-76zM449 260l-62 171l-68 189h-2l-67 -189l-62 -171h261zM281 -56h74v-77h-74v77z" />
    <glyph glyph-name="uni1EA1" unicode="&#x1ea1;" horiz-adv-x="580" 
d="M353 24.5q-54 -36.5 -126 -36.5q-81 0 -132.5 45t-51.5 125q0 81 56 125t148 44h86q96 0 96 72q0 48 -38.5 75.5t-98.5 27.5q-67 0 -109.5 -34t-47.5 -96h-71q7 90 66 140t162 50q102 0 154.5 -48.5t52.5 -129.5v-284q0 -20 8.5 -29t27.5 -9h26v-62h-50q-37 0 -58 20.5
t-21 56.5v54h-2q-23 -70 -77 -106.5zM147.5 79q30.5 -31 92.5 -31q50 0 93 22.5t69.5 68.5t26.5 114v74h-2q-13 -30 -42.5 -45t-78.5 -15h-57q-68 0 -100 -30.5t-32 -78.5t30.5 -79zM253 -56h74v-77h-74v77z" />
    <glyph glyph-name="uni1EAC" unicode="&#x1eac;" horiz-adv-x="636" 
d="M280 700h76l264 -700h-77l-71 196h-308l-71 -196h-76zM449 260l-62 171l-68 189h-2l-67 -189l-62 -171h261zM297 905h42l103 -142h-58l-65 74h-2l-66 -74h-57zM281 -56h74v-77h-74v77z" />
    <glyph glyph-name="uni1EAD" unicode="&#x1ead;" horiz-adv-x="580" 
d="M353 24.5q-54 -36.5 -126 -36.5q-81 0 -132.5 45t-51.5 125q0 81 56 125t148 44h86q96 0 96 72q0 48 -38.5 75.5t-98.5 27.5q-67 0 -109.5 -34t-47.5 -96h-71q7 90 66 140t162 50q102 0 154.5 -48.5t52.5 -129.5v-284q0 -20 8.5 -29t27.5 -9h26v-62h-50q-37 0 -58 20.5
t-21 56.5v54h-2q-23 -70 -77 -106.5zM147.5 79q30.5 -31 92.5 -31q50 0 93 22.5t69.5 68.5t26.5 114v74h-2q-13 -30 -42.5 -45t-78.5 -15h-57q-68 0 -100 -30.5t-32 -78.5t30.5 -79zM271 755h42l103 -142h-58l-65 74h-2l-66 -74h-57zM253 -56h74v-77h-74v77z" />
    <glyph glyph-name="uni1EB8" unicode="&#x1eb8;" horiz-adv-x="586" 
d="M81 700h474v-65h-401v-249h362v-64h-362v-257h402v-65h-475v700zM285 -56h74v-77h-74v77z" />
    <glyph glyph-name="uni1EB9" unicode="&#x1eb9;" horiz-adv-x="592" 
d="M163.5 23.5q-60.5 35.5 -93.5 100.5t-33 151q0 87 33.5 152t93 100t137.5 35q75 0 133.5 -32.5t91 -92t32.5 -137.5v-46h-446q3 -92 55 -149t136 -57q63 0 110 32.5t64 88.5h76q-17 -80 -85.5 -130.5t-164.5 -50.5q-79 0 -139.5 35.5zM484 314q-1 83 -49.5 135.5
t-131.5 52.5t-133.5 -53t-56.5 -135h371zM259 -56h74v-77h-74v77z" />
    <glyph glyph-name="uni1EBC" unicode="&#x1ebc;" horiz-adv-x="586" 
d="M81 700h474v-65h-401v-249h362v-64h-362v-257h402v-65h-475v700zM350.5 778.5q-20.5 12.5 -46.5 37.5q-18 18 -31.5 27t-28.5 9q-22 0 -37.5 -19t-15.5 -55v-4h-54v8q0 56 30.5 90t76.5 34q29 0 49.5 -12.5t46.5 -37.5q18 -18 31.5 -27t28.5 -9q22 0 37.5 19t15.5 55v4
h54v-8q0 -56 -30.5 -90t-76.5 -34q-29 0 -49.5 12.5z" />
    <glyph glyph-name="uni1EBD" unicode="&#x1ebd;" horiz-adv-x="592" 
d="M163.5 23.5q-60.5 35.5 -93.5 100.5t-33 151q0 87 33.5 152t93 100t137.5 35q75 0 133.5 -32.5t91 -92t32.5 -137.5v-46h-446q3 -92 55 -149t136 -57q63 0 110 32.5t64 88.5h76q-17 -80 -85.5 -130.5t-164.5 -50.5q-79 0 -139.5 35.5zM484 314q-1 83 -49.5 135.5
t-131.5 52.5t-133.5 -53t-56.5 -135h371zM324.5 628.5q-20.5 12.5 -46.5 37.5q-18 18 -31.5 27t-28.5 9q-22 0 -37.5 -19t-15.5 -55v-4h-54v8q0 56 30.5 90t76.5 34q29 0 49.5 -12.5t46.5 -37.5q18 -18 31.5 -27t28.5 -9q22 0 37.5 19t15.5 55v4h54v-8q0 -56 -30.5 -90
t-76.5 -34q-29 0 -49.5 12.5z" />
    <glyph glyph-name="uni1ECA" unicode="&#x1eca;" horiz-adv-x="234" 
d="M81 700h72v-700h-72v700zM80 -56h74v-77h-74v77z" />
    <glyph glyph-name="uni1ECB" unicode="&#x1ecb;" 
d="M78 550h70v-550h-70v550zM63 -56h74v-77h-74v77zM76 733h74v-77h-74v77z" />
    <glyph glyph-name="uni1ECC" unicode="&#x1ecc;" horiz-adv-x="761" 
d="M211 30.5q-77 42.5 -122.5 124.5t-45.5 195t45.5 195t122.5 124.5t170 42.5t170 -42.5t122.5 -124.5t45.5 -195t-45.5 -195t-122.5 -124.5t-170 -42.5t-170 42.5zM153.5 187.5q34.5 -67.5 94 -101.5t133.5 -34q74 1 133 35t93.5 101t34.5 162t-34.5 162t-93.5 101
t-133 35q-74 0 -133.5 -34t-94 -101.5t-34.5 -162.5t34.5 -162.5zM344 -56h74v-77h-74v77z" />
    <glyph glyph-name="uni1ECD" unicode="&#x1ecd;" horiz-adv-x="613" 
d="M169.5 22q-61.5 34 -97 99t-35.5 154t35.5 154t97 99t136.5 34q76 0 137.5 -34t97 -99t35.5 -154t-35.5 -154t-97 -99t-137.5 -34q-75 0 -136.5 34zM135.5 152.5q25.5 -51.5 70 -78t100.5 -26.5t100.5 26.5t70 78t25.5 122.5t-25.5 122.5t-70 78t-100.5 26.5
t-100.5 -26.5t-70 -78t-25.5 -122.5t25.5 -122.5zM269 -56h74v-77h-74v77z" />
    <glyph glyph-name="uni1EE4" unicode="&#x1ee4;" horiz-adv-x="701" 
d="M212 21q-61 33 -96 97t-35 154v428h73v-426q0 -71 26 -121t70.5 -75.5t99.5 -25.5q56 1 100.5 26.5t70.5 75t26 120.5v426h73v-428q0 -90 -35 -154t-96.5 -97t-138.5 -33t-138 33zM313 -56h74v-77h-74v77z" />
    <glyph glyph-name="uni1EE5" unicode="&#x1ee5;" horiz-adv-x="595" 
d="M122 47q-49 59 -49 167v336h70v-327q0 -91 37 -132t98 -41q45 0 83.5 21.5t61.5 66t23 110.5v302h70v-550h-68v121h-2q-24 -65 -72.5 -99t-114.5 -34q-88 0 -137 59zM260 -56h74v-77h-74v77z" />
    <glyph glyph-name="Ygrave" unicode="&#x1ef2;" horiz-adv-x="589" 
d="M258 285l-245 415h83l198 -351h2l197 351h83l-245 -415v-285h-73v285zM176 905h77l70 -142h-56z" />
    <glyph glyph-name="ygrave" unicode="&#x1ef3;" horiz-adv-x="517" 
d="M13 -138h141l69 168l-210 520h77l168 -439h2l168 439h76l-287 -716q-12 -34 -51 -34h-153v62zM140 755h77l70 -142h-56z" />
    <glyph glyph-name="uni1EF8" unicode="&#x1ef8;" horiz-adv-x="589" 
d="M258 285l-245 415h83l198 -351h2l197 351h83l-245 -415v-285h-73v285zM323.5 778.5q-20.5 12.5 -46.5 37.5q-18 18 -31.5 27t-28.5 9q-22 0 -37.5 -19t-15.5 -55v-4h-54v8q0 56 30.5 90t76.5 34q29 0 49.5 -12.5t46.5 -37.5q18 -18 31.5 -27t28.5 -9q22 0 37.5 19
t15.5 55v4h54v-8q0 -56 -30.5 -90t-76.5 -34q-29 0 -49.5 12.5z" />
    <glyph glyph-name="uni1EF9" unicode="&#x1ef9;" horiz-adv-x="517" 
d="M13 -138h141l69 168l-210 520h77l168 -439h2l168 439h76l-287 -716q-12 -34 -51 -34h-153v62zM286.5 628.5q-20.5 12.5 -46.5 37.5q-18 18 -31.5 27t-28.5 9q-22 0 -37.5 -19t-15.5 -55v-4h-54v8q0 56 30.5 90t76.5 34q29 0 49.5 -12.5t46.5 -37.5q18 -18 31.5 -27
t28.5 -9q22 0 37.5 19t15.5 55v4h54v-8q0 -56 -30.5 -90t-76.5 -34q-29 0 -49.5 12.5z" />
    <glyph glyph-name="uni2000" unicode="&#x2000;" horiz-adv-x="500" 
 />
    <glyph glyph-name="uni2001" unicode="&#x2001;" horiz-adv-x="1000" 
 />
    <glyph glyph-name="uni2002" unicode="&#x2002;" horiz-adv-x="500" 
 />
    <glyph glyph-name="uni2003" unicode="&#x2003;" horiz-adv-x="1000" 
 />
    <glyph glyph-name="uni2004" unicode="&#x2004;" horiz-adv-x="333" 
 />
    <glyph glyph-name="uni2005" unicode="&#x2005;" horiz-adv-x="250" 
 />
    <glyph glyph-name="uni2006" unicode="&#x2006;" horiz-adv-x="166" 
 />
    <glyph glyph-name="uni2007" unicode="&#x2007;" horiz-adv-x="707" 
 />
    <glyph glyph-name="uni2008" unicode="&#x2008;" horiz-adv-x="222" 
 />
    <glyph glyph-name="uni2009" unicode="&#x2009;" horiz-adv-x="125" 
 />
    <glyph glyph-name="uni200A" unicode="&#x200a;" horiz-adv-x="70" 
 />
    <glyph glyph-name="uni200B" unicode="&#x200b;" horiz-adv-x="0" 
 />
    <glyph glyph-name="endash" unicode="&#x2013;" horiz-adv-x="707" 
d="M103 311h500v-60h-500v60z" />
    <glyph glyph-name="emdash" unicode="&#x2014;" horiz-adv-x="1187" 
d="M103 311h980v-60h-980v60z" />
    <glyph glyph-name="uni2015" unicode="&#x2015;" horiz-adv-x="1187" 
d="M103 311h980v-60h-980v60z" />
    <glyph glyph-name="quoteleft" unicode="&#x2018;" horiz-adv-x="220" 
d="M129 647.5q-18 -20.5 -18 -55.5v-34h43v-86h-75v112q0 53 27 84.5t74 31.5v-32q-33 0 -51 -20.5z" />
    <glyph glyph-name="quoteright" unicode="&#x2019;" horiz-adv-x="219" 
d="M99 524.5q18 20.5 18 55.5v34h-43v86h75v-112q0 -53 -27 -84.5t-74 -31.5v32q33 0 51 20.5z" />
    <glyph glyph-name="quotesinglbase" unicode="&#x201a;" horiz-adv-x="230" 
d="M102 -89.5q18 20.5 18 55.5v34h-43v86h75v-112q0 -53 -27 -84.5t-74 -31.5v32q33 0 51 20.5z" />
    <glyph glyph-name="quotedblleft" unicode="&#x201c;" horiz-adv-x="353" 
d="M254 647.5q-18 -20.5 -18 -55.5v-34h43v-86h-75v112q0 53 27 84.5t74 31.5v-32q-33 0 -51 -20.5zM78 584q0 53 27 84.5t74 31.5v-32q-33 0 -51 -20.5t-18 -55.5v-34h43v-86h-75v112z" />
    <glyph glyph-name="quotedblright" unicode="&#x201d;" horiz-adv-x="353" 
d="M99 524.5q18 20.5 18 55.5v34h-43v86h75v-112q0 -53 -27 -84.5t-74 -31.5v32q33 0 51 20.5zM226 524.5q18 20.5 18 55.5v34h-43v86h75v-112q0 -53 -27 -84.5t-74 -31.5v32q33 0 51 20.5z" />
    <glyph glyph-name="quotedblbase" unicode="&#x201e;" horiz-adv-x="357" 
d="M102 -89.5q18 20.5 18 55.5v34h-43v86h75v-112q0 -53 -27 -84.5t-74 -31.5v32q33 0 51 20.5zM229 -89.5q18 20.5 18 55.5v34h-43v86h75v-112q0 -53 -27 -84.5t-74 -31.5v32q33 0 51 20.5z" />
    <glyph glyph-name="dagger" unicode="&#x2020;" horiz-adv-x="434" 
d="M183 592h-140v62h140v146h68v-146h139v-62h-139v-362h-68v362z" />
    <glyph glyph-name="daggerdbl" unicode="&#x2021;" horiz-adv-x="434" 
d="M183 376h-140v62h140v154h-140v62h140v146h68v-146h139v-62h-139v-154h139v-62h-139v-146h-68v146z" />
    <glyph glyph-name="bullet" unicode="&#x2022;" horiz-adv-x="343" 
d="M90.5 179.5q-33.5 33.5 -33.5 81.5t33.5 81.5t81.5 33.5q47 0 80.5 -33.5t33.5 -81.5t-33.5 -81.5t-80.5 -33.5q-48 0 -81.5 33.5z" />
    <glyph glyph-name="ellipsis" unicode="&#x2026;" horiz-adv-x="568" 
d="M245 83h78v-83h-78v83zM419 83h78v-83h-78v83zM72 83h78v-83h-78v83z" />
    <glyph glyph-name="uni202F" unicode="&#x202f;" horiz-adv-x="47" 
 />
    <glyph glyph-name="perthousand" unicode="&#x2030;" horiz-adv-x="1259" 
d="M654 700h76l-488 -700h-76zM113 659.5q46 45.5 117 45.5q72 0 118.5 -45.5t46.5 -126.5q0 -79 -47 -125.5t-118 -46.5q-70 0 -116.5 46.5t-46.5 125.5q0 81 46 126.5zM156 445.5q29 -31.5 74 -31.5t74.5 31.5t29.5 87.5t-29.5 87.5t-74.5 31.5t-74 -31.5t-29 -87.5
t29 -87.5zM522.5 258q21.5 39 59 60t83.5 21t83.5 -21t59 -60t21.5 -92t-21.5 -91.5t-59 -59t-83.5 -20.5t-83.5 20.5t-59 59t-21.5 91.5t21.5 92zM590 79q29 -31 75 -31t75 30t29 88t-29.5 89t-74.5 31t-74.5 -31.5t-29.5 -88.5q0 -56 29 -87zM902.5 258q21.5 39 58.5 60
t83 21t83.5 -21t59.5 -60t22 -92q0 -79 -47 -125t-118 -46q-70 0 -116.5 46t-46.5 125q0 53 21.5 92zM970 79q29 -31 74 -31q46 0 75 30t29 88t-29 89t-75 31q-45 0 -74 -31.5t-29 -88.5q0 -56 29 -87z" />
    <glyph glyph-name="minute" unicode="&#x2032;" horiz-adv-x="237" 
d="M187 700l-86 -247h-51l68 247h69z" />
    <glyph glyph-name="second" unicode="&#x2033;" horiz-adv-x="380" 
d="M201 700l-86 -247h-52l69 247h69zM261 700h69l-86 -247h-51z" />
    <glyph glyph-name="guilsinglleft" unicode="&#x2039;" horiz-adv-x="312" 
d="M148.5 202q-39.5 46 -98.5 52v51q59 6 98.5 52t46.5 116h67q-9 -70 -49.5 -123t-100.5 -70v-1q60 -17 100.5 -70t49.5 -123h-67q-7 70 -46.5 116z" />
    <glyph glyph-name="guilsinglright" unicode="&#x203a;" horiz-adv-x="312" 
d="M163.5 357q39.5 -46 98.5 -52v-51q-59 -6 -98.5 -52t-46.5 -116h-67q9 70 49.5 123t100.5 70v1q-60 17 -100.5 70t-49.5 123h67q7 -70 46.5 -116z" />
    <glyph glyph-name="uni203D" unicode="&#x203d;" horiz-adv-x="589" 
d="M224 415v140h77v-140l-5 -126h2q6 16 16.5 26.5t31.5 20.5l16 9q45 22 72.5 60.5t27.5 94.5q0 69 -44 110.5t-120 41.5q-78 0 -128.5 -45.5t-53.5 -122.5h-73q2 68 35.5 120t91 80t128.5 28q75 0 129 -28.5t81.5 -77t27.5 -105.5q0 -144 -171 -218l-25 -11
q-29 -12 -37 -26t-10 -48l-3 -53h-59zM223 80h80v-80h-80v80z" />
    <glyph glyph-name="fraction" unicode="&#x2044;" horiz-adv-x="251" 
d="M338 700h63l-488 -700h-63z" />
    <glyph glyph-name="uni2070" unicode="&#x2070;" horiz-adv-x="270" 
d="M54.5 452q-28.5 38 -28.5 108t28.5 108t80.5 38t80.5 -38t28.5 -108t-28.5 -108t-80.5 -38t-80.5 38zM86 477.5q17 -27.5 49 -27.5t49 27.5t17 82.5q0 54 -17 82t-49 28q-31 0 -48.5 -27.5t-17.5 -82.5t17 -82.5z" />
    <glyph glyph-name="uni2074" unicode="&#x2074;" horiz-adv-x="245" 
d="M19 511l124 189h50v-187h37v-37h-37v-56h-41v56h-133v35zM152 513v149h-1l-91 -148v-1h92z" />
    <glyph glyph-name="uni2075" unicode="&#x2075;" horiz-adv-x="258" 
d="M57.5 437q-26.5 23 -31.5 61h41q3 -22 20 -35t40 -13q27 0 44 17t17 43t-17.5 42.5t-43.5 16.5q-35 0 -59 -27h-41l23 158h164v-37h-130l-14 -91h1q12 16 30 25t39 9q38 0 65 -26t27 -68q0 -44 -30 -71t-76 -27q-42 0 -68.5 23z" />
    <glyph glyph-name="uni2076" unicode="&#x2076;" horiz-adv-x="267" 
d="M57 449q-31 36 -31 109q0 72 29.5 110.5t81.5 38.5q44 0 70.5 -26t26.5 -63h-42q0 23 -15.5 37.5t-39.5 14.5q-34 0 -52 -34t-15 -87h1q8 27 29 42t48 15q37 0 65 -27t28 -69q0 -43 -30 -70t-74 -27q-49 0 -80 36zM93.5 466.5q17.5 -16.5 43.5 -16.5q25 0 43 17t18 43
t-17.5 42.5t-43.5 16.5t-43.5 -16.5t-17.5 -42.5q0 -27 17.5 -43.5z" />
    <glyph glyph-name="uni2077" unicode="&#x2077;" horiz-adv-x="203" 
d="M77.5 557q33.5 70 86.5 105v1h-154v37h186v-34q-52 -42 -79.5 -110.5t-27.5 -135.5h-45q0 67 33.5 137z" />
    <glyph glyph-name="uni2078" unicode="&#x2078;" horiz-adv-x="256" 
d="M55 436.5q-29 22.5 -29 60.5q0 56 60 72v1q-50 15 -50 61q0 34 26 54.5t66 20.5q39 0 65.5 -20.5t26.5 -54.5q0 -46 -51 -61v-1q31 -8 46 -27t15 -45q0 -38 -29.5 -60.5t-72.5 -22.5q-44 0 -73 22.5zM86 463.5q17 -13.5 42 -13.5t41.5 13.5t16.5 36.5q0 24 -16.5 37
t-41.5 13t-42 -13t-17 -37q0 -23 17 -36.5zM92.5 598q13.5 -11 35.5 -11q21 0 34.5 11t13.5 30t-13.5 30.5t-34.5 11.5t-35 -11.5t-14 -30.5t13.5 -30z" />
    <glyph glyph-name="uni2079" unicode="&#x2079;" horiz-adv-x="267" 
d="M210 671q31 -36 31 -109q0 -72 -29.5 -110.5t-81.5 -38.5q-44 0 -70.5 26t-26.5 63h42q0 -23 15.5 -37.5t39.5 -14.5q34 0 52 34t15 87h-1q-8 -27 -29 -42t-48 -15q-37 0 -65 27t-28 69q0 43 30 70t74 27q49 0 80 -36zM86.5 567.5q17.5 -16.5 43.5 -16.5t43.5 16.5
t17.5 42.5q0 27 -17.5 43.5t-43.5 16.5q-25 0 -43 -17t-18 -43t17.5 -42.5z" />
    <glyph glyph-name="uni207A" unicode="&#x207a;" horiz-adv-x="313" 
d="M139 541h-96v36h96v101h36v-101h95v-36h-95v-99h-36v99z" />
    <glyph glyph-name="uni207B" unicode="&#x207b;" horiz-adv-x="294" 
d="M43 577h207v-36h-207v36z" />
    <glyph glyph-name="uni207C" unicode="&#x207c;" horiz-adv-x="277" 
d="M43 629h191v-36h-191v36zM43 530h191v-36h-191v36z" />
    <glyph glyph-name="uni207D" unicode="&#x207d;" horiz-adv-x="144" 
d="M43 560q0 81 37 147h41q-36 -66 -36 -147t36 -147h-41q-37 66 -37 147z" />
    <glyph glyph-name="uni207E" unicode="&#x207e;" horiz-adv-x="144" 
d="M59 560q0 81 -36 147h41q37 -66 37 -147t-37 -147h-41q36 66 36 147z" />
    <glyph glyph-name="uni2080" unicode="&#x2080;" horiz-adv-x="270" 
d="M54.5 32q-28.5 38 -28.5 108t28.5 108t80.5 38t80.5 -38t28.5 -108t-28.5 -108t-80.5 -38t-80.5 38zM86 57.5q17 -27.5 49 -27.5t49 27.5t17 82.5q0 54 -17 82t-49 28q-31 0 -48.5 -27.5t-17.5 -82.5t17 -82.5z" />
    <glyph glyph-name="uni2081" unicode="&#x2081;" horiz-adv-x="166" 
d="M126 0h-42v211h-1q-2 -15 -13 -22.5t-28 -7.5h-22v41h22q42 0 42 39v19h42v-280z" />
    <glyph glyph-name="uni2082" unicode="&#x2082;" horiz-adv-x="250" 
d="M40 84q17 22 66 48l16 8q29 16 40.5 29.5t11.5 33.5q0 23 -13.5 35t-34.5 12q-24 0 -37.5 -14.5t-13.5 -40.5h-44q0 43 26 67t69 24q41 0 66.5 -22t25.5 -60q0 -63 -79 -101l-18 -9q-31 -15 -41.5 -26.5t-10.5 -25.5h157v-42h-203v28q0 34 17 56z" />
    <glyph glyph-name="uni2083" unicode="&#x2083;" horiz-adv-x="262" 
d="M55.5 18.5q-29.5 24.5 -29.5 68.5h43q0 -26 18 -41.5t45 -15.5t44 13.5t17 36.5q0 24 -17 38t-46 14h-40v36h34q27 0 43 11.5t16 31.5q0 18 -15 28.5t-36 10.5t-36 -11.5t-15 -33.5h-43q0 36 25.5 58.5t68.5 22.5q41 0 67.5 -20.5t26.5 -51.5q0 -23 -14.5 -40.5
t-42.5 -21.5v-1q34 -6 50.5 -25.5t16.5 -46.5q0 -38 -28.5 -61.5t-75.5 -23.5t-76.5 24.5z" />
    <glyph glyph-name="uni2084" unicode="&#x2084;" horiz-adv-x="245" 
d="M19 91l124 189h50v-187h37v-37h-37v-56h-41v56h-133v35zM152 93v149h-1l-91 -148v-1h92z" />
    <glyph glyph-name="uni2085" unicode="&#x2085;" horiz-adv-x="258" 
d="M57.5 17q-26.5 23 -31.5 61h41q3 -22 20 -35t40 -13q27 0 44 17t17 43t-17.5 42.5t-43.5 16.5q-35 0 -59 -27h-41l23 158h164v-37h-130l-14 -91h1q12 16 30 25t39 9q38 0 65 -26t27 -68q0 -44 -30 -71t-76 -27q-42 0 -68.5 23z" />
    <glyph glyph-name="uni2086" unicode="&#x2086;" horiz-adv-x="267" 
d="M57 29q-31 36 -31 109q0 72 29.5 110.5t81.5 38.5q44 0 70.5 -26t26.5 -63h-42q0 23 -15.5 37.5t-39.5 14.5q-34 0 -52 -34t-15 -87h1q8 27 29 42t48 15q37 0 65 -27t28 -69q0 -43 -30 -70t-74 -27q-49 0 -80 36zM93.5 46.5q17.5 -16.5 43.5 -16.5q25 0 43 17t18 43
t-17.5 42.5t-43.5 16.5t-43.5 -16.5t-17.5 -42.5q0 -27 17.5 -43.5z" />
    <glyph glyph-name="uni2087" unicode="&#x2087;" horiz-adv-x="203" 
d="M77.5 137q33.5 70 86.5 105v1h-154v37h186v-34q-52 -42 -79.5 -110.5t-27.5 -135.5h-45q0 67 33.5 137z" />
    <glyph glyph-name="uni2088" unicode="&#x2088;" horiz-adv-x="256" 
d="M55 16.5q-29 22.5 -29 60.5q0 56 60 72v1q-50 15 -50 61q0 34 26 54.5t66 20.5q39 0 65.5 -20.5t26.5 -54.5q0 -46 -51 -61v-1q31 -8 46 -27t15 -45q0 -38 -29.5 -60.5t-72.5 -22.5q-44 0 -73 22.5zM86 43.5q17 -13.5 42 -13.5t41.5 13.5t16.5 36.5q0 24 -16.5 37
t-41.5 13t-42 -13t-17 -37q0 -23 17 -36.5zM92.5 178q13.5 -11 35.5 -11q21 0 34.5 11t13.5 30t-13.5 30.5t-34.5 11.5t-35 -11.5t-14 -30.5t13.5 -30z" />
    <glyph glyph-name="uni2089" unicode="&#x2089;" horiz-adv-x="267" 
d="M210 251q31 -36 31 -109q0 -72 -29.5 -110.5t-81.5 -38.5q-44 0 -70.5 26t-26.5 63h42q0 -23 15.5 -37.5t39.5 -14.5q34 0 52 34t15 87h-1q-8 -27 -29 -42t-48 -15q-37 0 -65 27t-28 69q0 43 30 70t74 27q49 0 80 -36zM86.5 147.5q17.5 -16.5 43.5 -16.5t43.5 16.5
t17.5 42.5q0 27 -17.5 43.5t-43.5 16.5q-25 0 -43 -17t-18 -43t17.5 -42.5z" />
    <glyph glyph-name="uni208A" unicode="&#x208a;" horiz-adv-x="313" 
d="M139 120h-96v36h96v101h36v-101h95v-36h-95v-99h-36v99z" />
    <glyph glyph-name="uni208B" unicode="&#x208b;" horiz-adv-x="294" 
d="M43 156h207v-36h-207v36z" />
    <glyph glyph-name="uni208C" unicode="&#x208c;" horiz-adv-x="277" 
d="M43 208h191v-36h-191v36zM43 109h191v-36h-191v36z" />
    <glyph glyph-name="uni208D" unicode="&#x208d;" horiz-adv-x="144" 
d="M43 140q0 81 37 147h41q-36 -66 -36 -147t36 -147h-41q-37 66 -37 147z" />
    <glyph glyph-name="uni208E" unicode="&#x208e;" horiz-adv-x="144" 
d="M59 140q0 81 -36 147h41q37 -66 37 -147t-37 -147h-41q36 66 36 147z" />
    <glyph glyph-name="Euro" unicode="&#x20ac;" horiz-adv-x="779" 
d="M231.5 60q-83.5 72 -107.5 197h-80l16 60h56q-1 11 -1 34t1 34h-72l16 60h64q23 123 105 195t207 72q89 0 154.5 -37t102.5 -100.5t44 -142.5h-76q-4 59 -31.5 108.5t-77 79t-116.5 29.5q-91 0 -152.5 -55t-82.5 -149h329l-16 -60h-322q-1 -11 -1 -34t1 -34h304l-16 -60
h-279q22 -96 85.5 -151t149.5 -55q64 0 113 30.5t77.5 77.5t34.5 96h76q-9 -73 -47 -134t-103 -97t-151 -36q-121 0 -204.5 72z" />
    <glyph glyph-name="uni20BF" unicode="&#x20bf;" horiz-adv-x="653" 
d="M268 800h62l-5 -100h28q94 0 151 -47t57 -126q0 -61 -38 -100t-107 -47v-2q93 -4 144.5 -52t51.5 -125q0 -58 -29.5 -104t-84.5 -71.5t-128 -25.5h-45l5 -96h-62l6 96h-193v700h193zM360 65q86 0 131 36t45 100t-46 100t-129 36h-208v-272h207zM341 402q68 0 106.5 31
t38.5 85q0 53 -36.5 85t-105.5 32h-191v-233h188z" />
    <glyph glyph-name="trademark" unicode="&#x2122;" horiz-adv-x="768" 
d="M158 652h-108v48h270v-48h-109v-306h-53v306zM359 700h77l103 -290l102 290h77v-354h-52v286l-101 -286h-53l-101 286v-286h-52v354z" />
    <glyph glyph-name="estimated" unicode="&#x212e;" horiz-adv-x="743" 
d="M202.5 33q-75.5 45 -117.5 127t-42 190q0 110 42 192t118 126t174 44q95 0 168 -40.5t114 -115.5t41 -174v-51h-544v-164q33 -55 90 -84.5t132 -29.5q91 0 158 44t92 119h66q-14 -66 -58.5 -117.5t-111 -81t-146.5 -29.5q-100 0 -175.5 45zM586 396v153q-33 47 -87 73
t-123 26q-75 0 -131 -29t-89 -82v-141h430z" />
    <glyph glyph-name="oneeighth" unicode="&#x215b;" horiz-adv-x="963" 
d="M193 210h-59v377h-1q-8 -52 -70 -52h-40v58h40q37 0 54.5 18.5t17.5 55.5v33h58v-490zM608 700h63l-488 -700h-63zM616 29q-50 38 -50 104q0 47 27.5 80.5t80.5 45.5v2q-43 11 -66.5 40.5t-23.5 70.5q0 59 45 93t113 34t113.5 -34t45.5 -93q0 -42 -24 -71t-67 -40v-2
q51 -11 79.5 -44.5t28.5 -81.5q0 -66 -50 -104t-126 -38t-126 38zM659 66.5q32 -25.5 83 -25.5t83 25.5t32 71.5q0 47 -32 72.5t-83 25.5q-50 0 -82.5 -26t-32.5 -72t32 -71.5zM672.5 307.5q27.5 -21.5 69.5 -21.5q43 0 70.5 21.5t27.5 60.5q0 38 -27.5 59.5t-70.5 21.5
t-70 -21.5t-27 -59.5q0 -39 27.5 -60.5z" />
    <glyph glyph-name="threeeighths" unicode="&#x215c;" horiz-adv-x="1144" 
d="M96.5 243.5q-50.5 42.5 -51.5 118.5h60q1 -50 34 -80.5t87 -30.5q52 0 86 26.5t34 73.5q0 45 -31.5 70.5t-82.5 25.5h-74v51h65q45 0 73.5 22.5t28.5 59.5t-27.5 58t-69.5 21q-45 0 -73 -24t-29 -66h-60q2 64 45.5 102t116.5 38q70 0 113.5 -35t43.5 -89
q0 -41 -25.5 -70.5t-68.5 -38.5v-2q55 -10 85 -45t30 -83q0 -66 -51.5 -105.5t-129.5 -39.5t-128.5 42.5zM789 700h63l-488 -700h-63zM797 29q-50 38 -50 104q0 47 27.5 80.5t80.5 45.5v2q-43 11 -66.5 40.5t-23.5 70.5q0 59 45 93t113 34t113.5 -34t45.5 -93q0 -42 -24 -71
t-67 -40v-2q51 -11 79.5 -44.5t28.5 -81.5q0 -66 -50 -104t-126 -38t-126 38zM840 66.5q32 -25.5 83 -25.5t83 25.5t32 71.5q0 47 -32 72.5t-83 25.5q-50 0 -82.5 -26t-32.5 -72t32 -71.5zM853.5 307.5q27.5 -21.5 69.5 -21.5q43 0 70.5 21.5t27.5 60.5q0 38 -27.5 59.5
t-70.5 21.5t-70 -21.5t-27 -59.5q0 -39 27.5 -60.5z" />
    <glyph glyph-name="fiveeighths" unicode="&#x215d;" horiz-adv-x="1139" 
d="M101 240.5q-47 39.5 -56 106.5h58q5 -44 38 -70t80 -26q51 0 85 33.5t34 84.5q0 52 -34 83.5t-85 31.5q-40 0 -69.5 -16.5t-46.5 -43.5h-58l41 276h284v-52h-236l-29 -180h1q21 31 54.5 49t77.5 18t81 -20.5t58.5 -58t21.5 -85.5q0 -50 -23.5 -89t-65 -60t-91.5 -21
q-73 0 -120 39.5zM784 700h63l-488 -700h-63zM792 29q-50 38 -50 104q0 47 27.5 80.5t80.5 45.5v2q-43 11 -66.5 40.5t-23.5 70.5q0 59 45 93t113 34t113.5 -34t45.5 -93q0 -42 -24 -71t-67 -40v-2q51 -11 79.5 -44.5t28.5 -81.5q0 -66 -50 -104t-126 -38t-126 38zM835 66.5
q32 -25.5 83 -25.5t83 25.5t32 71.5q0 47 -32 72.5t-83 25.5q-50 0 -82.5 -26t-32.5 -72t32 -71.5zM848.5 307.5q27.5 -21.5 69.5 -21.5q43 0 70.5 21.5t27.5 60.5q0 38 -27.5 59.5t-70.5 21.5t-70 -21.5t-27 -59.5q0 -39 27.5 -60.5z" />
    <glyph glyph-name="seveneighths" unicode="&#x215e;" horiz-adv-x="1046" 
d="M112 371.5q25 84.5 71 157.5t106 118v1h-273v52h321v-47q-90 -78 -138 -201t-48 -242h-64q0 77 25 161.5zM691 700h63l-488 -700h-63zM699 29q-50 38 -50 104q0 47 27.5 80.5t80.5 45.5v2q-43 11 -66.5 40.5t-23.5 70.5q0 59 45 93t113 34t113.5 -34t45.5 -93
q0 -42 -24 -71t-67 -40v-2q51 -11 79.5 -44.5t28.5 -81.5q0 -66 -50 -104t-126 -38t-126 38zM742 66.5q32 -25.5 83 -25.5t83 25.5t32 71.5q0 47 -32 72.5t-83 25.5q-50 0 -82.5 -26t-32.5 -72t32 -71.5zM755.5 307.5q27.5 -21.5 69.5 -21.5q43 0 70.5 21.5t27.5 60.5
q0 38 -27.5 59.5t-70.5 21.5t-70 -21.5t-27 -59.5q0 -39 27.5 -60.5z" />
    <glyph glyph-name="arrowleft" unicode="&#x2190;" horiz-adv-x="688" 
d="M288 185.5q-34 62.5 -96 100.5t-148 38v53q86 0 148 38t96 100.5t40 138.5h67q-9 -97 -59 -169.5t-137 -102.5v-2l446 3v-65l-446 3v-2q87 -30 137 -102.5t59 -169.5h-67q-6 76 -40 138.5z" />
    <glyph glyph-name="arrowup" unicode="&#x2191;" horiz-adv-x="694" 
d="M181.5 485q62.5 34 100.5 96t38 148h53q0 -86 38 -148t100.5 -96t138.5 -40v-67q-97 9 -169.5 59t-102.5 137h-2l3 -446h-65l3 446h-2q-30 -87 -102.5 -137t-169.5 -59v67q76 6 138.5 40z" />
    <glyph glyph-name="arrowright" unicode="&#x2192;" horiz-adv-x="688" 
d="M352 216.5q50 72.5 137 102.5v2l-446 -3v65l446 -3v2q-87 30 -137 102.5t-59 169.5h67q6 -76 40 -138.5t96 -100.5t148 -38v-53q-86 0 -148 -38t-96 -100.5t-40 -138.5h-67q9 97 59 169.5z" />
    <glyph glyph-name="arrowdown" unicode="&#x2193;" horiz-adv-x="694" 
d="M212.5 263q72.5 -50 102.5 -137h2l-3 446h65l-3 -446h2q30 87 102.5 137t169.5 59v-67q-76 -6 -138.5 -40t-100.5 -96t-38 -148h-53q0 86 -38 148t-100.5 96t-138.5 40v67q97 -9 169.5 -59z" />
    <glyph glyph-name="arrowboth" unicode="&#x2194;" horiz-adv-x="778" 
d="M149 282q-43 41 -112 48v47q69 7 112 48t46 101h71q-7 -50 -37 -89t-81 -55v-2l273 2l209 -2v2q-51 16 -81 55t-37 89h70q3 -60 46.5 -101t112.5 -48v-47q-69 -7 -112.5 -48t-46.5 -101h-70q7 50 37 89t81 55v2l-273 -2l-209 2v-2q51 -16 81 -55t37 -89h-71
q-3 60 -46 101z" />
    <glyph glyph-name="arrowupdn" unicode="&#x2195;" horiz-adv-x="460" 
d="M158 106.5q-41 43.5 -101 46.5v70q50 -7 89 -37t55 -81h2l-2 209v72l2 209h-2q-16 -51 -55 -81t-89 -37v70q60 3 101 46.5t48 112.5h48q7 -69 48 -112.5t102 -46.5v-70q-50 7 -89.5 37t-55.5 81h-1l1 -209v-72l-1 -209h1q16 51 55.5 81t89.5 37v-70q-61 -3 -102 -46.5
t-48 -112.5h-48q-7 69 -48 112.5z" />
    <glyph glyph-name="uni2196" unicode="&#x2196;" horiz-adv-x="569" 
d="M424.5 591.5q-53.5 -21.5 -108.5 -21.5q-64 0 -122 29l-1 -1l317 -313l-46 -46l-313 317l-1 -1q29 -58 29 -122q0 -55 -21.5 -108.5t-61.5 -100.5l-47 47q38 45 59.5 97t21.5 106q0 107 -86 194l37 37q87 -86 194 -86q54 0 106 21.5t97 59.5l47 -47q-47 -40 -100.5 -61.5
z" />
    <glyph glyph-name="uni2197" unicode="&#x2197;" horiz-adv-x="569" 
d="M188 640.5q52 -21.5 106 -21.5q107 0 194 86l37 -37q-86 -87 -86 -194q0 -54 21.5 -106t59.5 -97l-47 -47q-40 47 -61.5 100.5t-21.5 108.5q0 64 29 122l-1 1l-313 -317l-46 46l317 313l-1 1q-58 -29 -122 -29q-55 0 -108.5 21.5t-100.5 61.5l47 47q45 -38 97 -59.5z" />
    <glyph glyph-name="uni2198" unicode="&#x2198;" horiz-adv-x="569" 
d="M144.5 107.5q53.5 21.5 108.5 21.5q64 0 122 -29l1 1l-317 313l46 46l313 -317l1 1q-29 58 -29 122q0 55 21.5 108.5t61.5 100.5l47 -47q-38 -45 -59.5 -97t-21.5 -106q0 -107 86 -194l-37 -37q-87 86 -194 86q-54 0 -106 -21.5t-97 -59.5l-47 47q47 40 100.5 61.5z" />
    <glyph glyph-name="uni2199" unicode="&#x2199;" horiz-adv-x="569" 
d="M381 58.5q-52 21.5 -106 21.5q-107 0 -194 -86l-37 37q86 87 86 194q0 54 -21.5 106t-59.5 97l47 47q40 -47 61.5 -100.5t21.5 -108.5q0 -64 -29 -122l1 -1l313 317l46 -46l-317 -313l1 -1q58 29 122 29q55 0 108.5 -21.5t100.5 -61.5l-47 -47q-45 38 -97 59.5z" />
    <glyph glyph-name="partialdiff" unicode="&#x2202;" horiz-adv-x="555" 
d="M138.5 19.5q-47.5 31.5 -74.5 85.5t-27 119q0 72 33 132.5t88.5 95.5t120.5 35q49 0 91.5 -21t68.5 -65h2q-13 104 -71 175t-171 119l25 58q150 -61 222 -164.5t72 -248.5q0 -104 -37.5 -184t-100 -124t-134.5 -44q-60 0 -107.5 31.5zM147.5 100q37.5 -51 100.5 -51
q52 0 97 36.5t72 101t27 144.5v19q-26 38 -65 57t-83 19q-53 0 -95.5 -26t-66.5 -71.5t-24 -103.5q0 -74 37.5 -125z" />
    <glyph glyph-name="uni2206" unicode="&#x2206;" horiz-adv-x="637" 
d="M23 59l257 644h78l256 -644v-59h-591v59zM538 62v2l-218 562h-2l-218 -562v-2h438z" />
    <glyph glyph-name="product" unicode="&#x220f;" horiz-adv-x="580" 
d="M556 636h-102v-836h-70v836h-189v-836h-70v836h-102v64h533v-64z" />
    <glyph glyph-name="summation" unicode="&#x2211;" horiz-adv-x="491" 
d="M37 -139l233 411l-233 367v61h427v-63h-343v-1l230 -360v-2l-233 -410v-1h346v-63h-427v61z" />
    <glyph glyph-name="minus" unicode="&#x2212;" horiz-adv-x="557" 
d="M57 325h443v-60h-443v60z" />
    <glyph glyph-name="radical" unicode="&#x221a;" horiz-adv-x="620" 
d="M23 326h65l111 -451h2l193 825h203v-61h-154l-196 -839h-93z" />
    <glyph glyph-name="infinity" unicode="&#x221e;" horiz-adv-x="940" 
d="M578.5 126q-51.5 37 -108.5 104q-58 -68 -109.5 -104.5t-118.5 -36.5q-49 0 -91.5 22.5t-68 64.5t-25.5 99t25.5 99t68 64.5t91.5 22.5q67 0 118.5 -36.5t109.5 -104.5q57 67 108.5 104t118.5 37q50 0 92.5 -22.5t68 -64.5t25.5 -99t-25.5 -99t-68 -64.5t-92.5 -22.5
q-67 0 -118.5 37zM155.5 183.5q35.5 -33.5 88.5 -33.5q52 0 94.5 32t93.5 93q-51 61 -93.5 93t-94.5 32q-53 0 -88.5 -33.5t-35.5 -91.5t35.5 -91.5zM601.5 182q42.5 -32 94.5 -32q53 0 88.5 33.5t35.5 91.5t-35.5 91.5t-88.5 33.5q-52 0 -94.5 -32t-94.5 -93
q52 -61 94.5 -93z" />
    <glyph glyph-name="integral" unicode="&#x222b;" horiz-adv-x="593" 
d="M567 800v-62h-91q-41 0 -64.5 -25t-31.5 -80l-97 -666q-23 -167 -166 -167h-90v62h90q42 0 65.5 25.5t30.5 79.5l97 666q12 80 51.5 123.5t114.5 43.5h91z" />
    <glyph glyph-name="approxequal" unicode="&#x2248;" horiz-adv-x="533" 
d="M298 330.5q-25 17.5 -54 49.5q-23 25 -38 36.5t-34 11.5q-25 0 -40 -22t-15 -64h-64q0 66 32 107.5t87 41.5q37 0 62.5 -17.5t53.5 -49.5q23 -25 38 -36.5t35 -11.5q26 0 40.5 22t14.5 64h63q0 -67 -31.5 -108t-86.5 -41q-38 0 -63 17.5zM85 249.5q32 41.5 87 41.5
q37 0 62.5 -17.5t53.5 -49.5q23 -25 38 -36.5t35 -11.5q26 0 40.5 22t14.5 64h63q0 -67 -31.5 -108t-86.5 -41q-38 0 -63 17.5t-54 49.5q-23 25 -38 36.5t-34 11.5q-25 0 -40 -22t-15 -64h-64q0 66 32 107.5z" />
    <glyph glyph-name="notequal" unicode="&#x2260;" horiz-adv-x="665" 
d="M231 152h-144v62h178l73 138h-251v62h285l57 107h63l-58 -107h145v-62h-178l-74 -138h252v-62h-285l-58 -107h-62z" />
    <glyph glyph-name="lessequal" unicode="&#x2264;" horiz-adv-x="619" 
d="M53 295v63l512 152v-66l-428 -117l428 -118v-66zM53 87h512v-62h-512v62z" />
    <glyph glyph-name="greaterequal" unicode="&#x2265;" horiz-adv-x="619" 
d="M53 209l429 118l-429 117v66l512 -152v-63l-512 -152v66zM53 87h512v-62h-512v62z" />
    <glyph glyph-name="uni24C5" unicode="&#x24c5;" horiz-adv-x="808" 
d="M223 35q-83 49 -131.5 133t-48.5 183q0 98 48.5 181.5t131.5 132.5t181 49t181 -49t131.5 -132.5t48.5 -181.5q0 -99 -48.5 -183t-131.5 -133t-181 -49t-181 49zM140 194.5q41 -71.5 111 -113.5t153 -42t152.5 42t110.5 113.5t41 156.5q0 83 -41 154.5t-111 113.5
t-152 42q-83 0 -153 -42t-111 -113t-41 -155q0 -85 41 -156.5zM287 539h152q65 0 102.5 -31.5t37.5 -89.5q0 -57 -37.5 -89t-102.5 -32h-95v-134h-57v376zM433 346q42 0 64 19t22 51q0 33 -21 53t-60 20h-94v-143h89z" />
    <glyph glyph-name="lozenge" unicode="&#x25ca;" horiz-adv-x="533" 
d="M479 350l-178 -350h-69l-179 350l179 351h69zM265 75h3l137 275l-137 276h-3l-137 -276z" />
    <glyph glyph-name="uni2E18" unicode="&#x2e18;" horiz-adv-x="596" 
d="M362 285v-140h-77v140l5 126h-2q-6 -16 -16.5 -26.5t-31.5 -20.5l-16 -9q-45 -22 -72.5 -60.5t-27.5 -94.5q0 -69 44 -110.5t120 -41.5q78 0 128.5 45.5t53.5 122.5h73q-2 -68 -35.5 -120t-91 -80t-128.5 -28q-75 0 -129 28.5t-81.5 77t-27.5 105.5q0 144 171 218l25 11
q29 12 37 26t10 48l3 53h59zM283 700h80v-80h-80v80z" />
    <glyph glyph-name="uniA78B" unicode="&#xa78b;" horiz-adv-x="205" 
d="M82 578l-12 222h63v-467h-48z" />
    <glyph glyph-name="uniA78C" unicode="&#xa78c;" horiz-adv-x="203" 
d="M82 468l-12 202h63v-387h-48z" />
    <glyph glyph-name="uni004A0301" horiz-adv-x="543" 
d="M128 16q-50 28 -78 82.5t-28 132.5h72q0 -88 41 -133.5t107 -45.5t106.5 45.5t40.5 133.5v469h73v-469q0 -78 -28 -132.5t-78 -82.5t-114 -28t-114 28zM463 905h78l-87 -142h-60z" />
    <glyph glyph-name="uni013B.loclMAH" horiz-adv-x="502" 
d="M480 65v-65h-399v700h72v-635h327zM210 -132h75q16 0 25.5 8t9.5 21q0 14 -9.5 22t-25.5 8h-27v33h35q43 0 66 -18t23 -51t-23.5 -53.5t-64.5 -20.5h-84v51z" />
    <glyph glyph-name="uni0145.loclMAH" horiz-adv-x="742" 
d="M154 602h-2l1 -100v-502h-72v700h97l410 -601h2l-1 100v501h72v-700h-96zM301 -132h75q16 0 25.5 8t9.5 21q0 14 -9.5 22t-25.5 8h-27v33h35q43 0 66 -18t23 -51t-23.5 -53.5t-64.5 -20.5h-84v51z" />
    <glyph glyph-name="Y.ss04" horiz-adv-x="511" 
d="M13 63h257v2l-257 635h79l161 -419h2l164 419h78l-208 -500l54 -137q4 -9 4 -20q0 -18 -12.5 -30.5t-33.5 -12.5h-288v63z" />
    <glyph glyph-name="Yacute.ss04" horiz-adv-x="511" 
d="M13 63h257v2l-257 635h79l161 -419h2l164 419h78l-208 -500l54 -137q4 -9 4 -20q0 -18 -12.5 -30.5t-33.5 -12.5h-288v63zM295 905h78l-87 -142h-60z" />
    <glyph glyph-name="Ycircumflex.ss04" horiz-adv-x="511" 
d="M13 63h257v2l-257 635h79l161 -419h2l164 419h78l-208 -500l54 -137q4 -9 4 -20q0 -18 -12.5 -30.5t-33.5 -12.5h-288v63zM235 905h42l103 -142h-58l-65 74h-2l-66 -74h-57z" />
    <glyph glyph-name="Ydieresis.ss04" horiz-adv-x="511" 
d="M13 63h257v2l-257 635h79l161 -419h2l164 419h78l-208 -500l54 -137q4 -9 4 -20q0 -18 -12.5 -30.5t-33.5 -12.5h-288v63zM155 883h73v-77h-73v77zM284 883h73v-77h-73v77z" />
    <glyph glyph-name="Ygrave.ss04" horiz-adv-x="511" 
d="M13 63h257v2l-257 635h79l161 -419h2l164 419h78l-208 -500l54 -137q4 -9 4 -20q0 -18 -12.5 -30.5t-33.5 -12.5h-288v63zM137 905h77l70 -142h-56z" />
    <glyph glyph-name="uni0232.ss04" horiz-adv-x="511" 
d="M13 63h257v2l-257 635h79l161 -419h2l164 419h78l-208 -500l54 -137q4 -9 4 -20q0 -18 -12.5 -30.5t-33.5 -12.5h-288v63zM117 867h277v-62h-277v62z" />
    <glyph glyph-name="uni1EF8.ss04" horiz-adv-x="511" 
d="M13 63h257v2l-257 635h79l161 -419h2l164 419h78l-208 -500l54 -137q4 -9 4 -20q0 -18 -12.5 -30.5t-33.5 -12.5h-288v63zM284.5 778.5q-20.5 12.5 -46.5 37.5q-18 18 -31.5 27t-28.5 9q-22 0 -37.5 -19t-15.5 -55v-4h-54v8q0 56 30.5 90t76.5 34q29 0 49.5 -12.5
t46.5 -37.5q18 -18 31.5 -27t28.5 -9q22 0 37.5 19t15.5 55v4h54v-8q0 -56 -30.5 -90t-76.5 -34q-29 0 -49.5 12.5z" />
    <glyph glyph-name="S.ss05" horiz-adv-x="587" 
d="M57 63h261q68 0 108.5 36t40.5 97q0 60 -40.5 95t-108.5 35h-69q-90 0 -147.5 50.5t-57.5 137.5q0 57 26.5 99t73 64.5t105.5 22.5h271v-63h-271q-59 0 -94 -33.5t-35 -89.5t35 -87t94 -31h69q65 0 116 -24t80 -69.5t29 -106.5q0 -60 -29 -104.5t-80 -68t-116 -23.5h-261
v63z" />
    <glyph glyph-name="Sacute.ss05" horiz-adv-x="587" 
d="M57 63h261q68 0 108.5 36t40.5 97q0 60 -40.5 95t-108.5 35h-69q-90 0 -147.5 50.5t-57.5 137.5q0 57 26.5 99t73 64.5t105.5 22.5h271v-63h-271q-59 0 -94 -33.5t-35 -89.5t35 -87t94 -31h69q65 0 116 -24t80 -69.5t29 -106.5q0 -60 -29 -104.5t-80 -68t-116 -23.5h-261
v63zM337 905h78l-87 -142h-60z" />
    <glyph glyph-name="Scaron.ss05" horiz-adv-x="587" 
d="M57 63h261q68 0 108.5 36t40.5 97q0 60 -40.5 95t-108.5 35h-69q-90 0 -147.5 50.5t-57.5 137.5q0 57 26.5 99t73 64.5t105.5 22.5h271v-63h-271q-59 0 -94 -33.5t-35 -89.5t35 -87t94 -31h69q65 0 116 -24t80 -69.5t29 -106.5q0 -60 -29 -104.5t-80 -68t-116 -23.5h-261
v63zM174 905h57l66 -75h2l65 75h58l-103 -142h-42z" />
    <glyph glyph-name="Scedilla.ss05" horiz-adv-x="587" 
d="M57 63h261q68 0 108.5 36t40.5 97q0 60 -40.5 95t-108.5 35h-69q-90 0 -147.5 50.5t-57.5 137.5q0 57 26.5 99t73 64.5t105.5 22.5h271v-63h-271q-59 0 -94 -33.5t-35 -89.5t35 -87t94 -31h69q65 0 116 -24t80 -69.5t29 -106.5q0 -60 -28.5 -104t-79.5 -67.5t-115 -24.5
v-40q38 -2 58.5 -20t20.5 -49q0 -33 -23.5 -53.5t-64.5 -20.5h-84v51h75q16 0 25.5 8t9.5 21q0 14 -9.5 22t-25.5 8h-27v73h-218v63z" />
    <glyph glyph-name="Scircumflex.ss05" horiz-adv-x="587" 
d="M57 63h261q68 0 108.5 36t40.5 97q0 60 -40.5 95t-108.5 35h-69q-90 0 -147.5 50.5t-57.5 137.5q0 57 26.5 99t73 64.5t105.5 22.5h271v-63h-271q-59 0 -94 -33.5t-35 -89.5t35 -87t94 -31h69q65 0 116 -24t80 -69.5t29 -106.5q0 -60 -29 -104.5t-80 -68t-116 -23.5h-261
v63zM277 905h42l103 -142h-58l-65 74h-2l-66 -74h-57z" />
    <glyph glyph-name="uni0218.ss05" horiz-adv-x="587" 
d="M57 63h261q68 0 108.5 36t40.5 97q0 60 -40.5 95t-108.5 35h-69q-90 0 -147.5 50.5t-57.5 137.5q0 57 26.5 99t73 64.5t105.5 22.5h271v-63h-271q-59 0 -94 -33.5t-35 -89.5t35 -87t94 -31h69q65 0 116 -24t80 -69.5t29 -106.5q0 -60 -29 -104.5t-80 -68t-116 -23.5h-261
v63zM289.5 -161.5q10.5 9.5 10.5 26.5v6h-36v72h68v-78q0 -32 -19 -50t-53 -18v32q19 0 29.5 9.5z" />
    <glyph glyph-name="S.ss06" horiz-adv-x="631" 
d="M173 20.5q-62 32.5 -94.5 90t-34.5 131.5h73q4 -88 58.5 -139t146.5 -51q58 0 101 20t66.5 54.5t23.5 76.5q0 56 -41 89.5t-117 33.5h-92q-62 0 -109.5 24t-73 66.5t-25.5 96.5q0 85 61.5 136t167.5 51h262v-65h-262q-75 0 -115 -31.5t-40 -87.5q0 -54 37 -86.5
t103 -32.5h92q111 0 168.5 -53t57.5 -138q0 -63 -32 -112.5t-92.5 -77.5t-142.5 -28q-85 0 -147 32.5z" />
    <glyph glyph-name="Sacute.ss06" horiz-adv-x="631" 
d="M173 20.5q-62 32.5 -94.5 90t-34.5 131.5h73q4 -88 58.5 -139t146.5 -51q58 0 101 20t66.5 54.5t23.5 76.5q0 56 -41 89.5t-117 33.5h-92q-62 0 -109.5 24t-73 66.5t-25.5 96.5q0 85 61.5 136t167.5 51h262v-65h-262q-75 0 -115 -31.5t-40 -87.5q0 -54 37 -86.5
t103 -32.5h92q111 0 168.5 -53t57.5 -138q0 -63 -32 -112.5t-92.5 -77.5t-142.5 -28q-85 0 -147 32.5zM359 905h78l-87 -142h-60z" />
    <glyph glyph-name="Scaron.ss06" horiz-adv-x="631" 
d="M173 20.5q-62 32.5 -94.5 90t-34.5 131.5h73q4 -88 58.5 -139t146.5 -51q58 0 101 20t66.5 54.5t23.5 76.5q0 56 -41 89.5t-117 33.5h-92q-62 0 -109.5 24t-73 66.5t-25.5 96.5q0 85 61.5 136t167.5 51h262v-65h-262q-75 0 -115 -31.5t-40 -87.5q0 -54 37 -86.5
t103 -32.5h92q111 0 168.5 -53t57.5 -138q0 -63 -32 -112.5t-92.5 -77.5t-142.5 -28q-85 0 -147 32.5zM196 905h57l66 -75h2l65 75h58l-103 -142h-42z" />
    <glyph glyph-name="Scedilla.ss06" horiz-adv-x="631" 
d="M249 -183v51h75q16 0 25.5 8t9.5 21q0 14 -9.5 22t-25.5 8h-27v62q-79 4 -135.5 37.5t-86 89.5t-31.5 126h73q4 -88 58.5 -139t146.5 -51q58 0 101 20t66.5 54.5t23.5 76.5q0 56 -41 89.5t-117 33.5h-92q-62 0 -109.5 24t-73 66.5t-25.5 96.5q0 85 61.5 136t167.5 51h262
v-65h-262q-75 0 -115 -31.5t-40 -87.5q0 -54 37 -86.5t103 -32.5h92q111 0 168.5 -53t57.5 -138q0 -60 -29 -108t-84.5 -77t-131.5 -32v-29q38 -2 58.5 -20t20.5 -49q0 -33 -23.5 -53.5t-64.5 -20.5h-84z" />
    <glyph glyph-name="Scircumflex.ss06" horiz-adv-x="631" 
d="M173 20.5q-62 32.5 -94.5 90t-34.5 131.5h73q4 -88 58.5 -139t146.5 -51q58 0 101 20t66.5 54.5t23.5 76.5q0 56 -41 89.5t-117 33.5h-92q-62 0 -109.5 24t-73 66.5t-25.5 96.5q0 85 61.5 136t167.5 51h262v-65h-262q-75 0 -115 -31.5t-40 -87.5q0 -54 37 -86.5
t103 -32.5h92q111 0 168.5 -53t57.5 -138q0 -63 -32 -112.5t-92.5 -77.5t-142.5 -28q-85 0 -147 32.5zM299 905h42l103 -142h-58l-65 74h-2l-66 -74h-57z" />
    <glyph glyph-name="uni0218.ss06" horiz-adv-x="631" 
d="M173 20.5q-62 32.5 -94.5 90t-34.5 131.5h73q4 -88 58.5 -139t146.5 -51q58 0 101 20t66.5 54.5t23.5 76.5q0 56 -41 89.5t-117 33.5h-92q-62 0 -109.5 24t-73 66.5t-25.5 96.5q0 85 61.5 136t167.5 51h262v-65h-262q-75 0 -115 -31.5t-40 -87.5q0 -54 37 -86.5
t103 -32.5h92q111 0 168.5 -53t57.5 -138q0 -63 -32 -112.5t-92.5 -77.5t-142.5 -28q-85 0 -147 32.5zM311.5 -161.5q10.5 9.5 10.5 26.5v6h-36v72h68v-78q0 -32 -19 -50t-53 -18v32q19 0 29.5 9.5z" />
    <glyph glyph-name="G.ss07" horiz-adv-x="765" 
d="M207 44.5q-77 44.5 -120.5 126.5t-43.5 190q0 103 41.5 182.5t118.5 124t180 44.5q94 0 163.5 -37.5t109 -101t46.5 -141.5h-75q-5 59 -34.5 108t-83 78t-126.5 29q-80 0 -140 -36t-92 -101t-32 -149q0 -88 35 -155.5t95 -104t134 -36.5h238v206h-248v65h278q19 0 31 -12
t12 -30v-251q0 -19 -12 -31t-31 -12h-268q-99 0 -176 44.5z" />
    <glyph glyph-name="Gbreve.ss07" horiz-adv-x="765" 
d="M207 44.5q-77 44.5 -120.5 126.5t-43.5 190q0 103 41.5 182.5t118.5 124t180 44.5q94 0 163.5 -37.5t109 -101t46.5 -141.5h-75q-5 59 -34.5 108t-83 78t-126.5 29q-80 0 -140 -36t-92 -101t-32 -149q0 -88 35 -155.5t95 -104t134 -36.5h238v206h-248v65h278q19 0 31 -12
t12 -30v-251q0 -19 -12 -31t-31 -12h-268q-99 0 -176 44.5zM294 802q-32 39 -32 103h54q0 -45 17.5 -68.5t48.5 -23.5t48.5 23.5t17.5 68.5h54q0 -64 -32 -103t-88 -39t-88 39z" />
    <glyph glyph-name="Gcaron.ss07" horiz-adv-x="765" 
d="M207 44.5q-77 44.5 -120.5 126.5t-43.5 190q0 103 41.5 182.5t118.5 124t180 44.5q94 0 163.5 -37.5t109 -101t46.5 -141.5h-75q-5 59 -34.5 108t-83 78t-126.5 29q-80 0 -140 -36t-92 -101t-32 -149q0 -88 35 -155.5t95 -104t134 -36.5h238v206h-248v65h278q19 0 31 -12
t12 -30v-251q0 -19 -12 -31t-31 -12h-268q-99 0 -176 44.5zM258 905h57l66 -75h2l65 75h58l-103 -142h-42z" />
    <glyph glyph-name="Gcircumflex.ss07" horiz-adv-x="765" 
d="M207 44.5q-77 44.5 -120.5 126.5t-43.5 190q0 103 41.5 182.5t118.5 124t180 44.5q94 0 163.5 -37.5t109 -101t46.5 -141.5h-75q-5 59 -34.5 108t-83 78t-126.5 29q-80 0 -140 -36t-92 -101t-32 -149q0 -88 35 -155.5t95 -104t134 -36.5h238v206h-248v65h278q19 0 31 -12
t12 -30v-251q0 -19 -12 -31t-31 -12h-268q-99 0 -176 44.5zM361 905h42l103 -142h-58l-65 74h-2l-66 -74h-57z" />
    <glyph glyph-name="uni0122.ss07" horiz-adv-x="765" 
d="M207 44.5q-77 44.5 -120.5 126.5t-43.5 190q0 103 41.5 182.5t118.5 124t180 44.5q94 0 163.5 -37.5t109 -101t46.5 -141.5h-75q-5 59 -34.5 108t-83 78t-126.5 29q-80 0 -140 -36t-92 -101t-32 -149q0 -88 35 -155.5t95 -104t134 -36.5h238v206h-248v65h278q19 0 31 -12
t12 -30v-251q0 -19 -12 -31t-31 -12h-268q-99 0 -176 44.5zM380.5 -161.5q10.5 9.5 10.5 26.5v6h-36v72h68v-78q0 -32 -19 -50t-53 -18v32q19 0 29.5 9.5z" />
    <glyph glyph-name="Gdotaccent.ss07" horiz-adv-x="765" 
d="M207 44.5q-77 44.5 -120.5 126.5t-43.5 190q0 103 41.5 182.5t118.5 124t180 44.5q94 0 163.5 -37.5t109 -101t46.5 -141.5h-75q-5 59 -34.5 108t-83 78t-126.5 29q-80 0 -140 -36t-92 -101t-32 -149q0 -88 35 -155.5t95 -104t134 -36.5h238v206h-248v65h278q19 0 31 -12
t12 -30v-251q0 -19 -12 -31t-31 -12h-268q-99 0 -176 44.5zM345 883h74v-77h-74v77z" />
    <glyph glyph-name="uni1E20.ss07" horiz-adv-x="765" 
d="M207 44.5q-77 44.5 -120.5 126.5t-43.5 190q0 103 41.5 182.5t118.5 124t180 44.5q94 0 163.5 -37.5t109 -101t46.5 -141.5h-75q-5 59 -34.5 108t-83 78t-126.5 29q-80 0 -140 -36t-92 -101t-32 -149q0 -88 35 -155.5t95 -104t134 -36.5h238v206h-248v65h278q19 0 31 -12
t12 -30v-251q0 -19 -12 -31t-31 -12h-268q-99 0 -176 44.5zM243 867h277v-62h-277v62z" />
    <glyph glyph-name="uni01E4.ss07" horiz-adv-x="763" 
d="M207 44.5q-77 44.5 -120.5 126.5t-43.5 190q0 103 41.5 182.5t118.5 124t180 44.5q94 0 163.5 -32t109 -86.5t46.5 -121.5h-75q-5 48 -34.5 87.5t-83 63.5t-126.5 24q-80 0 -140 -36t-92 -101t-32 -149q0 -88 35 -155.5t95 -104t134 -36.5h238v96h-251v63h251v97h-248v64
h278q19 0 31 -12t12 -30v-119h56v-63h-56v-118q0 -19 -12 -31t-31 -12h-268q-99 0 -176 44.5z" />
    <glyph glyph-name="E.ss08" horiz-adv-x="606" 
d="M109.5 406q-35.5 43 -35.5 105q0 85 61 137t172 52h261v-65h-261q-77 0 -118 -33.5t-41 -94.5q0 -59 41 -92t118 -33h247v-64h-247q-77 0 -118 -33t-41 -92q0 -61 41 -94.5t118 -33.5h269v-65h-269q-111 0 -172 52t-61 137q0 62 35.5 105t112.5 55v2q-77 12 -112.5 55z
" />
    <glyph glyph-name="Eacute.ss08" horiz-adv-x="606" 
d="M109.5 406q-35.5 43 -35.5 105q0 85 61 137t172 52h261v-65h-261q-77 0 -118 -33.5t-41 -94.5q0 -59 41 -92t118 -33h247v-64h-247q-77 0 -118 -33t-41 -92q0 -61 41 -94.5t118 -33.5h269v-65h-269q-111 0 -172 52t-61 137q0 62 35.5 105t112.5 55v2q-77 12 -112.5 55z
M391 905h78l-87 -142h-60z" />
    <glyph glyph-name="Ebreve.ss08" horiz-adv-x="606" 
d="M109.5 406q-35.5 43 -35.5 105q0 85 61 137t172 52h261v-65h-261q-77 0 -118 -33.5t-41 -94.5q0 -59 41 -92t118 -33h247v-64h-247q-77 0 -118 -33t-41 -92q0 -61 41 -94.5t118 -33.5h269v-65h-269q-111 0 -172 52t-61 137q0 62 35.5 105t112.5 55v2q-77 12 -112.5 55z
M264 802q-32 39 -32 103h54q0 -45 17.5 -68.5t48.5 -23.5t48.5 23.5t17.5 68.5h54q0 -64 -32 -103t-88 -39t-88 39z" />
    <glyph glyph-name="Ecaron.ss08" horiz-adv-x="606" 
d="M109.5 406q-35.5 43 -35.5 105q0 85 61 137t172 52h261v-65h-261q-77 0 -118 -33.5t-41 -94.5q0 -59 41 -92t118 -33h247v-64h-247q-77 0 -118 -33t-41 -92q0 -61 41 -94.5t118 -33.5h269v-65h-269q-111 0 -172 52t-61 137q0 62 35.5 105t112.5 55v2q-77 12 -112.5 55z
M228 905h57l66 -75h2l65 75h58l-103 -142h-42z" />
    <glyph glyph-name="Ecircumflex.ss08" horiz-adv-x="606" 
d="M109.5 406q-35.5 43 -35.5 105q0 85 61 137t172 52h261v-65h-261q-77 0 -118 -33.5t-41 -94.5q0 -59 41 -92t118 -33h247v-64h-247q-77 0 -118 -33t-41 -92q0 -61 41 -94.5t118 -33.5h269v-65h-269q-111 0 -172 52t-61 137q0 62 35.5 105t112.5 55v2q-77 12 -112.5 55z
M331 905h42l103 -142h-58l-65 74h-2l-66 -74h-57z" />
    <glyph glyph-name="Edieresis.ss08" horiz-adv-x="606" 
d="M109.5 406q-35.5 43 -35.5 105q0 85 61 137t172 52h261v-65h-261q-77 0 -118 -33.5t-41 -94.5q0 -59 41 -92t118 -33h247v-64h-247q-77 0 -118 -33t-41 -92q0 -61 41 -94.5t118 -33.5h269v-65h-269q-111 0 -172 52t-61 137q0 62 35.5 105t112.5 55v2q-77 12 -112.5 55z
M251 883h73v-77h-73v77zM380 883h73v-77h-73v77z" />
    <glyph glyph-name="Edotaccent.ss08" horiz-adv-x="606" 
d="M109.5 406q-35.5 43 -35.5 105q0 85 61 137t172 52h261v-65h-261q-77 0 -118 -33.5t-41 -94.5q0 -59 41 -92t118 -33h247v-64h-247q-77 0 -118 -33t-41 -92q0 -61 41 -94.5t118 -33.5h269v-65h-269q-111 0 -172 52t-61 137q0 62 35.5 105t112.5 55v2q-77 12 -112.5 55z
M315 883h74v-77h-74v77z" />
    <glyph glyph-name="uni1EB8.ss08" horiz-adv-x="606" 
d="M109.5 406q-35.5 43 -35.5 105q0 85 61 137t172 52h261v-65h-261q-77 0 -118 -33.5t-41 -94.5q0 -59 41 -92t118 -33h247v-64h-247q-77 0 -118 -33t-41 -92q0 -61 41 -94.5t118 -33.5h269v-65h-269q-111 0 -172 52t-61 137q0 62 35.5 105t112.5 55v2q-77 12 -112.5 55z
M323 -56h74v-77h-74v77z" />
    <glyph glyph-name="Egrave.ss08" horiz-adv-x="606" 
d="M109.5 406q-35.5 43 -35.5 105q0 85 61 137t172 52h261v-65h-261q-77 0 -118 -33.5t-41 -94.5q0 -59 41 -92t118 -33h247v-64h-247q-77 0 -118 -33t-41 -92q0 -61 41 -94.5t118 -33.5h269v-65h-269q-111 0 -172 52t-61 137q0 62 35.5 105t112.5 55v2q-77 12 -112.5 55z
M233 905h77l70 -142h-56z" />
    <glyph glyph-name="Emacron.ss08" horiz-adv-x="606" 
d="M109.5 406q-35.5 43 -35.5 105q0 85 61 137t172 52h261v-65h-261q-77 0 -118 -33.5t-41 -94.5q0 -59 41 -92t118 -33h247v-64h-247q-77 0 -118 -33t-41 -92q0 -61 41 -94.5t118 -33.5h269v-65h-269q-111 0 -172 52t-61 137q0 62 35.5 105t112.5 55v2q-77 12 -112.5 55z
M213 867h277v-62h-277v62z" />
    <glyph glyph-name="Eogonek.ss08" horiz-adv-x="606" 
d="M109.5 406q-35.5 43 -35.5 105q0 85 61 137t172 52h261v-65h-261q-77 0 -118 -33.5t-41 -94.5q0 -59 41 -92t118 -33h247v-64h-247q-77 0 -118 -33t-41 -92q0 -61 41 -94.5t118 -33.5h269v-64l2 -1l-6 -3q-21 -3 -34.5 -19t-13.5 -39q0 -29 22.5 -46.5t59.5 -17.5h10v-58
h-12q-60 0 -93 26t-33 68q0 26 13 49t39 38v2h-223q-111 0 -172 52t-61 137q0 62 35.5 105t112.5 55v2q-77 12 -112.5 55z" />
    <glyph glyph-name="uni1EBC.ss08" horiz-adv-x="606" 
d="M109.5 406q-35.5 43 -35.5 105q0 85 61 137t172 52h261v-65h-261q-77 0 -118 -33.5t-41 -94.5q0 -59 41 -92t118 -33h247v-64h-247q-77 0 -118 -33t-41 -92q0 -61 41 -94.5t118 -33.5h269v-65h-269q-111 0 -172 52t-61 137q0 62 35.5 105t112.5 55v2q-77 12 -112.5 55z
M380.5 778.5q-20.5 12.5 -46.5 37.5q-18 18 -31.5 27t-28.5 9q-22 0 -37.5 -19t-15.5 -55v-4h-54v8q0 56 30.5 90t76.5 34q29 0 49.5 -12.5t46.5 -37.5q18 -18 31.5 -27t28.5 -9q22 0 37.5 19t15.5 55v4h54v-8q0 -56 -30.5 -90t-76.5 -34q-29 0 -49.5 12.5z" />
    <glyph glyph-name="F.ss08" horiz-adv-x="577" 
d="M113.5 404q-36.5 42 -36.5 107q0 85 61 137t172 52h261v-65h-261q-77 0 -118 -33.5t-41 -94.5q0 -59 41 -92t118 -33h247v-64h-247q-73 0 -111 -34.5t-38 -100.5v-183h-74v183q0 69 32 111t103 54v2q-72 12 -108.5 54z" />
    <glyph glyph-name="Y.ss09" horiz-adv-x="649" 
d="M76 65h420v202h-376q-20 0 -32 11.5t-12 30.5v391h72v-369h348v369h72v-657q0 -19 -11.5 -31t-30.5 -12h-450v65z" />
    <glyph glyph-name="Yacute.ss09" horiz-adv-x="649" 
d="M76 65h420v202h-376q-20 0 -32 11.5t-12 30.5v391h72v-369h348v369h72v-657q0 -19 -11.5 -31t-30.5 -12h-450v65zM364 905h78l-87 -142h-60z" />
    <glyph glyph-name="Ycircumflex.ss09" horiz-adv-x="649" 
d="M76 65h420v202h-376q-20 0 -32 11.5t-12 30.5v391h72v-369h348v369h72v-657q0 -19 -11.5 -31t-30.5 -12h-450v65zM304 905h42l103 -142h-58l-65 74h-2l-66 -74h-57z" />
    <glyph glyph-name="Ydieresis.ss09" horiz-adv-x="649" 
d="M76 65h420v202h-376q-20 0 -32 11.5t-12 30.5v391h72v-369h348v369h72v-657q0 -19 -11.5 -31t-30.5 -12h-450v65zM224 883h73v-77h-73v77zM353 883h73v-77h-73v77z" />
    <glyph glyph-name="Ygrave.ss09" horiz-adv-x="649" 
d="M76 65h420v202h-376q-20 0 -32 11.5t-12 30.5v391h72v-369h348v369h72v-657q0 -19 -11.5 -31t-30.5 -12h-450v65zM206 905h77l70 -142h-56z" />
    <glyph glyph-name="uni0232.ss09" horiz-adv-x="649" 
d="M76 65h420v202h-376q-20 0 -32 11.5t-12 30.5v391h72v-369h348v369h72v-657q0 -19 -11.5 -31t-30.5 -12h-450v65zM186 867h277v-62h-277v62z" />
    <glyph glyph-name="uni1EF8.ss09" horiz-adv-x="649" 
d="M76 65h420v202h-376q-20 0 -32 11.5t-12 30.5v391h72v-369h348v369h72v-657q0 -19 -11.5 -31t-30.5 -12h-450v65zM353.5 778.5q-20.5 12.5 -46.5 37.5q-18 18 -31.5 27t-28.5 9q-22 0 -37.5 -19t-15.5 -55v-4h-54v8q0 56 30.5 90t76.5 34q29 0 49.5 -12.5t46.5 -37.5
q18 -18 31.5 -27t28.5 -9q22 0 37.5 19t15.5 55v4h54v-8q0 -56 -30.5 -90t-76.5 -34q-29 0 -49.5 12.5z" />
    <glyph glyph-name="Q.ss10" horiz-adv-x="761" 
d="M282 -189q-13 11 -13 30q0 9 5 24l49 127q-80 13 -143.5 58.5t-100 122t-36.5 177.5q0 113 45.5 195t122.5 124.5t170 42.5t170 -42.5t122.5 -124.5t45.5 -195q0 -110 -44 -191t-118 -124.5t-165 -46.5l-47 -122h232v-66h-258q-24 0 -37 11zM153.5 187.5
q34.5 -67.5 94 -101.5t133.5 -34q74 1 133 35t93.5 101t34.5 162t-34.5 162t-93.5 101t-133 35q-74 0 -133.5 -34t-94 -101.5t-34.5 -162.5t34.5 -162.5z" />
    <glyph glyph-name="Aacute.ss11" horiz-adv-x="636" 
d="M280 700h76l264 -700h-77l-71 196h-308l-71 -196h-76zM449 260l-62 171l-68 189h-2l-67 -189l-62 -171h261zM496 831v-25l-231 -38v10z" />
    <glyph glyph-name="Abreve.ss11" horiz-adv-x="636" 
d="M280 700h76l264 -700h-77l-71 196h-308l-71 -196h-76zM449 260l-62 171l-68 189h-2l-67 -189l-62 -171h261zM389 777.5q-29 -23.5 -71 -23.5t-71 23.5t-38 60.5h10q11 -28 37 -44t62 -16t62 16t37 44h10q-9 -37 -38 -60.5z" />
    <glyph glyph-name="Acircumflex.ss11" horiz-adv-x="636" 
d="M280 700h76l264 -700h-77l-71 196h-308l-71 -196h-76zM449 260l-62 171l-68 189h-2l-67 -189l-62 -171h261zM200 771l115 61h5l115 -61v-10l-117 47h-1l-117 -47v10z" />
    <glyph glyph-name="uni1EAC.ss11" horiz-adv-x="636" 
d="M280 700h76l264 -700h-77l-71 196h-308l-71 -196h-76zM449 260l-62 171l-68 189h-2l-67 -189l-62 -171h261zM200 771l115 61h5l115 -61v-10l-117 47h-1l-117 -47v10zM300 -62h36v-46h-36v46z" />
    <glyph glyph-name="Adieresis.ss11" horiz-adv-x="636" 
d="M280 700h76l264 -700h-77l-71 196h-308l-71 -196h-76zM449 260l-62 171l-68 189h-2l-67 -189l-62 -171h261zM358 829h36v-36h-36v36zM242 829h36v-36h-36v36z" />
    <glyph glyph-name="uni1EA0.ss11" horiz-adv-x="636" 
d="M280 700h76l264 -700h-77l-71 196h-308l-71 -196h-76zM449 260l-62 171l-68 189h-2l-67 -189l-62 -171h261zM300 -62h36v-46h-36v46z" />
    <glyph glyph-name="Agrave.ss11" horiz-adv-x="636" 
d="M280 700h76l264 -700h-77l-71 196h-308l-71 -196h-76zM449 260l-62 171l-68 189h-2l-67 -189l-62 -171h261zM378 768l-231 38v25l231 -53v-10z" />
    <glyph glyph-name="Amacron.ss11" horiz-adv-x="636" 
d="M280 700h76l264 -700h-77l-71 196h-308l-71 -196h-76zM449 260l-62 171l-68 189h-2l-67 -189l-62 -171h261zM193 820h250v-24h-250v24z" />
    <glyph glyph-name="Aogonek.ss11" horiz-adv-x="636" 
d="M280 700h76l264 -700l-16 -8q-19 -9 -30 -26t-11 -38q0 -30 24 -49t66 -19h13v-30h-18q-48 0 -77 23.5t-29 61.5q0 26 14 48t39 35v2h-52l-71 196h-308l-71 -196h-76zM449 260l-62 171l-68 189h-2l-67 -189l-62 -171h261z" />
    <glyph glyph-name="Aring.ss11" horiz-adv-x="636" 
d="M280 700h76l264 -700h-77l-71 196h-308l-71 -196h-76zM449 260l-62 171l-68 189h-2l-67 -189l-62 -171h261zM270 763q-20 20 -20 48q0 29 20 49t48 20t48 -20t20 -49q0 -28 -19.5 -48t-48.5 -20q-28 0 -48 20zM282 768q15 -15 36 -15t36 15t15 36t-15 36.5t-36 15.5
t-36 -15.5t-15 -36.5t15 -36z" />
    <glyph glyph-name="Atilde.ss11" horiz-adv-x="636" 
d="M280 700h76l264 -700h-77l-71 196h-308l-71 -196h-76zM449 260l-62 171l-68 189h-2l-67 -189l-62 -171h261zM348.5 757.5q-16.5 11.5 -38.5 35.5q-18 21 -32.5 31.5t-34.5 10.5q-28 0 -47.5 -22t-19.5 -62h-10q0 49 22 77t58 28q25 0 42 -12t37 -35q21 -22 34.5 -32
t33.5 -10q28 0 47.5 22t19.5 62h10q0 -50 -21.5 -77.5t-58.5 -27.5q-25 0 -41.5 11.5z" />
    <glyph glyph-name="AEacute.ss11" horiz-adv-x="896" 
d="M447 196h-268l-86 -196h-76l318 700h530v-65h-344v-252h305v-65h-305v-253h345v-65h-419v196zM447 261v374h-75l-164 -374h239zM661 831v-25l-231 -38v10z" />
    <glyph glyph-name="Cacute.ss11" horiz-adv-x="739" 
d="M203.5 33q-76.5 45 -118.5 127t-42 191t40.5 190.5t116.5 126t180 44.5q94 0 163 -37t107.5 -100.5t45.5 -142.5h-75q-4 59 -33.5 108t-82.5 78.5t-125 29.5q-80 0 -139 -36.5t-90.5 -103.5t-31.5 -157t34 -158t93.5 -104.5t133.5 -36.5q68 0 120.5 30.5t83 77t37.5 95.5
h75q-9 -73 -49 -134t-108 -97t-159 -36q-100 0 -176.5 45zM558 831v-25l-231 -38v10z" />
    <glyph glyph-name="Ccaron.ss11" horiz-adv-x="739" 
d="M203.5 33q-76.5 45 -118.5 127t-42 191t40.5 190.5t116.5 126t180 44.5q94 0 163 -37t107.5 -100.5t45.5 -142.5h-75q-4 59 -33.5 108t-82.5 78.5t-125 29.5q-80 0 -139 -36.5t-90.5 -103.5t-31.5 -157t34 -158t93.5 -104.5t133.5 -36.5q68 0 120.5 30.5t83 77t37.5 95.5
h75q-9 -73 -49 -134t-108 -97t-159 -36q-100 0 -176.5 45zM262 822v10l117 -47h1l117 47v-10l-115 -61h-5z" />
    <glyph glyph-name="Ccedilla.ss11" horiz-adv-x="739" 
d="M315 -170v25h75q24 0 37.5 12t13.5 31t-13.5 30.5t-37.5 11.5h-22v48q-96 3 -170 48.5t-114.5 126.5t-40.5 188q0 109 40.5 190.5t116.5 126t180 44.5q94 0 163 -37t107.5 -100.5t45.5 -142.5h-75q-4 59 -33.5 108t-82.5 78.5t-125 29.5q-80 0 -139 -36.5t-90.5 -103.5
t-31.5 -157t34 -158t93.5 -104.5t133.5 -36.5q68 0 120.5 30.5t83 77t37.5 95.5h75q-9 -72 -47 -131.5t-103.5 -96.5t-153.5 -39v-37h4q34 0 54 -15t20 -44q0 -30 -21 -46t-54 -16h-80z" />
    <glyph glyph-name="Ccircumflex.ss11" horiz-adv-x="739" 
d="M203.5 33q-76.5 45 -118.5 127t-42 191t40.5 190.5t116.5 126t180 44.5q94 0 163 -37t107.5 -100.5t45.5 -142.5h-75q-4 59 -33.5 108t-82.5 78.5t-125 29.5q-80 0 -139 -36.5t-90.5 -103.5t-31.5 -157t34 -158t93.5 -104.5t133.5 -36.5q68 0 120.5 30.5t83 77t37.5 95.5
h75q-9 -73 -49 -134t-108 -97t-159 -36q-100 0 -176.5 45zM262 771l115 61h5l115 -61v-10l-117 47h-1l-117 -47v10z" />
    <glyph glyph-name="Cdotaccent.ss11" horiz-adv-x="739" 
d="M203.5 33q-76.5 45 -118.5 127t-42 191t40.5 190.5t116.5 126t180 44.5q94 0 163 -37t107.5 -100.5t45.5 -142.5h-75q-4 59 -33.5 108t-82.5 78.5t-125 29.5q-80 0 -139 -36.5t-90.5 -103.5t-31.5 -157t34 -158t93.5 -104.5t133.5 -36.5q68 0 120.5 30.5t83 77t37.5 95.5
h75q-9 -73 -49 -134t-108 -97t-159 -36q-100 0 -176.5 45zM361 828h36v-36h-36v36z" />
    <glyph glyph-name="Eth.ss11" horiz-adv-x="710" 
d="M153 336v-271h176q77 0 136 32.5t92.5 96.5t33.5 156t-33.5 156.5t-92.5 96.5t-136 32h-176v-273h98v-26h-98zM13 362h68v338h248q100 0 176 -41t119 -120t43 -189t-43 -189t-119 -120t-176 -41h-248v336h-68v26z" />
    <glyph glyph-name="Dcaron.ss11" horiz-adv-x="710" 
d="M81 700h248q100 0 176 -41t119 -120t43 -189t-43 -189t-119 -120t-176 -41h-248v700zM329 65q77 0 136 32.5t92.5 96.5t33.5 156t-33.5 156.5t-92.5 96.5t-136 32h-176v-570h176zM217 822v10l117 -47h1l117 47v-10l-115 -61h-5z" />
    <glyph glyph-name="Dcroat.ss11" horiz-adv-x="710" 
d="M153 336v-271h176q77 0 136 32.5t92.5 96.5t33.5 156t-33.5 156.5t-92.5 96.5t-136 32h-176v-273h98v-26h-98zM13 362h68v338h248q100 0 176 -41t119 -120t43 -189t-43 -189t-119 -120t-176 -41h-248v336h-68v26z" />
    <glyph glyph-name="Eacute.ss11" horiz-adv-x="586" 
d="M81 700h474v-65h-401v-249h362v-64h-362v-257h402v-65h-475v700zM500 831v-25l-231 -38v10z" />
    <glyph glyph-name="Ebreve.ss11" horiz-adv-x="586" 
d="M81 700h474v-65h-401v-249h362v-64h-362v-257h402v-65h-475v700zM393 777.5q-29 -23.5 -71 -23.5t-71 23.5t-38 60.5h10q11 -28 37 -44t62 -16t62 16t37 44h10q-9 -37 -38 -60.5z" />
    <glyph glyph-name="Ecaron.ss11" horiz-adv-x="586" 
d="M81 700h474v-65h-401v-249h362v-64h-362v-257h402v-65h-475v700zM204 822v10l117 -47h1l117 47v-10l-115 -61h-5z" />
    <glyph glyph-name="Ecircumflex.ss11" horiz-adv-x="586" 
d="M81 700h474v-65h-401v-249h362v-64h-362v-257h402v-65h-475v700zM204 771l115 61h5l115 -61v-10l-117 47h-1l-117 -47v10z" />
    <glyph glyph-name="Edieresis.ss11" horiz-adv-x="586" 
d="M81 700h474v-65h-401v-249h362v-64h-362v-257h402v-65h-475v700zM362 829h36v-36h-36v36zM246 829h36v-36h-36v36z" />
    <glyph glyph-name="Edotaccent.ss11" horiz-adv-x="586" 
d="M81 700h474v-65h-401v-249h362v-64h-362v-257h402v-65h-475v700zM303 828h36v-36h-36v36z" />
    <glyph glyph-name="uni1EB8.ss11" horiz-adv-x="586" 
d="M81 700h474v-65h-401v-249h362v-64h-362v-257h402v-65h-475v700zM304 -62h36v-46h-36v46z" />
    <glyph glyph-name="Egrave.ss11" horiz-adv-x="586" 
d="M81 700h474v-65h-401v-249h362v-64h-362v-257h402v-65h-475v700zM382 768l-231 38v25l231 -53v-10z" />
    <glyph glyph-name="Emacron.ss11" horiz-adv-x="586" 
d="M81 700h474v-65h-401v-249h362v-64h-362v-257h402v-65h-475v700zM197 820h250v-24h-250v24z" />
    <glyph glyph-name="Eogonek.ss11" horiz-adv-x="586" 
d="M81 700h474v-65h-401v-249h362v-64h-362v-257h402v-64l1 -1l-16 -8q-19 -9 -30 -26t-11 -38q0 -30 24 -49t66 -19h13v-30h-18q-48 0 -77 23.5t-29 61.5q0 26 14 48t39 35v2h-451v700z" />
    <glyph glyph-name="uni1EBC.ss11" horiz-adv-x="586" 
d="M81 700h474v-65h-401v-249h362v-64h-362v-257h402v-65h-475v700zM352.5 757.5q-16.5 11.5 -38.5 35.5q-18 21 -32.5 31.5t-34.5 10.5q-28 0 -47.5 -22t-19.5 -62h-10q0 49 22 77t58 28q25 0 42 -12t37 -35q21 -22 34.5 -32t33.5 -10q28 0 47.5 22t19.5 62h10
q0 -50 -21.5 -77.5t-58.5 -27.5q-25 0 -41.5 11.5z" />
    <glyph glyph-name="Gbreve.ss11" horiz-adv-x="763" 
d="M202 33q-75 45 -117 127.5t-42 190.5q0 106 41 188t117.5 127.5t179.5 45.5q94 0 164.5 -37.5t109.5 -101t44 -141.5h-76q-3 59 -33.5 108.5t-84.5 78.5t-124 29q-80 0 -139.5 -38t-91 -105t-31.5 -154q0 -90 34.5 -158t94 -104.5t133.5 -36.5q72 0 126.5 32.5t86.5 83
t39 103.5h-263v65h287q21 0 32 -11t11 -31v-294h-71l16 172h-2q-33 -86 -102 -135t-169 -49q-95 0 -170 45zM448 777.5q-29 -23.5 -71 -23.5t-71 23.5t-38 60.5h10q11 -28 37 -44t62 -16t62 16t37 44h10q-9 -37 -38 -60.5z" />
    <glyph glyph-name="Gcaron.ss11" horiz-adv-x="763" 
d="M202 33q-75 45 -117 127.5t-42 190.5q0 106 41 188t117.5 127.5t179.5 45.5q94 0 164.5 -37.5t109.5 -101t44 -141.5h-76q-3 59 -33.5 108.5t-84.5 78.5t-124 29q-80 0 -139.5 -38t-91 -105t-31.5 -154q0 -90 34.5 -158t94 -104.5t133.5 -36.5q72 0 126.5 32.5t86.5 83
t39 103.5h-263v65h287q21 0 32 -11t11 -31v-294h-71l16 172h-2q-33 -86 -102 -135t-169 -49q-95 0 -170 45zM259 822v10l117 -47h1l117 47v-10l-115 -61h-5z" />
    <glyph glyph-name="Gcircumflex.ss11" horiz-adv-x="763" 
d="M202 33q-75 45 -117 127.5t-42 190.5q0 106 41 188t117.5 127.5t179.5 45.5q94 0 164.5 -37.5t109.5 -101t44 -141.5h-76q-3 59 -33.5 108.5t-84.5 78.5t-124 29q-80 0 -139.5 -38t-91 -105t-31.5 -154q0 -90 34.5 -158t94 -104.5t133.5 -36.5q72 0 126.5 32.5t86.5 83
t39 103.5h-263v65h287q21 0 32 -11t11 -31v-294h-71l16 172h-2q-33 -86 -102 -135t-169 -49q-95 0 -170 45zM259 771l115 61h5l115 -61v-10l-117 47h-1l-117 -47v10z" />
    <glyph glyph-name="uni0122.ss11" horiz-adv-x="763" 
d="M380 -132v6h-31v55h45v-61q0 -26 -13.5 -42t-41.5 -16v14q41 0 41 44zM84 539q41 82 117.5 127.5t179.5 45.5q94 0 164.5 -37.5t109.5 -101t44 -141.5h-76q-3 59 -33.5 108.5t-84.5 78.5t-124 29q-80 0 -139.5 -38t-91 -105t-31.5 -154q0 -90 34.5 -158t94 -104.5
t133.5 -36.5q72 0 126.5 32.5t86.5 83t39 103.5h-263v65h287q21 0 32 -11t11 -31v-294h-71l16 172h-2q-33 -86 -102 -135t-169 -49q-95 0 -170 45t-117 127.5t-42 190.5q0 106 41 188z" />
    <glyph glyph-name="Gdotaccent.ss11" horiz-adv-x="763" 
d="M202 33q-75 45 -117 127.5t-42 190.5q0 106 41 188t117.5 127.5t179.5 45.5q94 0 164.5 -37.5t109.5 -101t44 -141.5h-76q-3 59 -33.5 108.5t-84.5 78.5t-124 29q-80 0 -139.5 -38t-91 -105t-31.5 -154q0 -90 34.5 -158t94 -104.5t133.5 -36.5q72 0 126.5 32.5t86.5 83
t39 103.5h-263v65h287q21 0 32 -11t11 -31v-294h-71l16 172h-2q-33 -86 -102 -135t-169 -49q-95 0 -170 45zM358 828h36v-36h-36v36z" />
    <glyph glyph-name="uni1E20.ss11" horiz-adv-x="763" 
d="M202 33q-75 45 -117 127.5t-42 190.5q0 106 41 188t117.5 127.5t179.5 45.5q94 0 164.5 -37.5t109.5 -101t44 -141.5h-76q-3 59 -33.5 108.5t-84.5 78.5t-124 29q-80 0 -139.5 -38t-91 -105t-31.5 -154q0 -90 34.5 -158t94 -104.5t133.5 -36.5q72 0 126.5 32.5t86.5 83
t39 103.5h-263v65h287q21 0 32 -11t11 -31v-294h-71l16 172h-2q-33 -86 -102 -135t-169 -49q-95 0 -170 45zM252 820h250v-24h-250v24z" />
    <glyph glyph-name="uni01E4.ss11" horiz-adv-x="763" 
d="M202 33q-75 45 -117 127.5t-42 190.5q0 107 41 188.5t118.5 127t183.5 45.5q90 0 157.5 -32.5t107 -87t48.5 -120.5h-76q-8 48 -38.5 88t-81.5 64t-117 24q-82 0 -142.5 -38t-92.5 -105t-32 -154q0 -91 34.5 -158.5t95.5 -104t137 -36.5q83 0 145.5 42.5t91.5 114.5h-253
v21h261q15 45 15 98h-276v65h287q21 0 32 -11t11 -31v-121h57v-21h-57v-209h-71l16 172h-2q-33 -86 -102 -135t-169 -49q-95 0 -170 45z" />
    <glyph glyph-name="Hbar.ss11" horiz-adv-x="676" 
d="M15 561h66v139h72v-139h382v139h72v-139h54v-24h-54v-537h-72v320h-382v-320h-72v537h-66v24zM535 385v152h-382v-152h382z" />
    <glyph glyph-name="Hcircumflex.ss11" horiz-adv-x="688" 
d="M81 700h72v-315h382v315h72v-700h-72v320h-382v-320h-72v700zM226 771l115 61h5l115 -61v-10l-117 47h-1l-117 -47v10z" />
    <glyph glyph-name="Iacute.ss11" horiz-adv-x="234" 
d="M81 700h72v-700h-72v700zM295 831v-25l-231 -38v10z" />
    <glyph glyph-name="Ibreve.ss11" horiz-adv-x="234" 
d="M81 700h72v-700h-72v700zM188 777.5q-29 -23.5 -71 -23.5t-71 23.5t-38 60.5h10q11 -28 37 -44t62 -16t62 16t37 44h10q-9 -37 -38 -60.5z" />
    <glyph glyph-name="uni01CF.ss11" horiz-adv-x="234" 
d="M81 700h72v-700h-72v700zM-1 822v10l117 -47h1l117 47v-10l-115 -61h-5z" />
    <glyph glyph-name="Icircumflex.ss11" horiz-adv-x="234" 
d="M81 700h72v-700h-72v700zM-1 771l115 61h5l115 -61v-10l-117 47h-1l-117 -47v10z" />
    <glyph glyph-name="Idieresis.ss11" horiz-adv-x="234" 
d="M81 700h72v-700h-72v700zM157 829h36v-36h-36v36zM41 829h36v-36h-36v36z" />
    <glyph glyph-name="Idotaccent.ss11" horiz-adv-x="234" 
d="M81 700h72v-700h-72v700zM98 828h36v-36h-36v36z" />
    <glyph glyph-name="uni1ECA.ss11" horiz-adv-x="234" 
d="M81 700h72v-700h-72v700zM99 -62h36v-46h-36v46z" />
    <glyph glyph-name="Igrave.ss11" horiz-adv-x="234" 
d="M81 700h72v-700h-72v700zM177 768l-231 38v25l231 -53v-10z" />
    <glyph glyph-name="Imacron.ss11" horiz-adv-x="234" 
d="M81 700h72v-700h-72v700zM-8 820h250v-24h-250v24z" />
    <glyph glyph-name="Iogonek.ss11" horiz-adv-x="234" 
d="M81 700h72v-699l1 -1l-16 -8q-19 -9 -30 -26t-11 -38q0 -30 24 -49t66 -19h13v-30h-18q-48 0 -77 23.5t-29 61.5q0 26 14 48t39 35v2h-48v700z" />
    <glyph glyph-name="Itilde.ss11" horiz-adv-x="234" 
d="M81 700h72v-700h-72v700zM147.5 757.5q-16.5 11.5 -38.5 35.5q-18 21 -32.5 31.5t-34.5 10.5q-28 0 -47.5 -22t-19.5 -62h-10q0 49 22 77t58 28q25 0 42 -12t37 -35q21 -22 34.5 -32t33.5 -10q28 0 47.5 22t19.5 62h10q0 -50 -21.5 -77.5t-58.5 -27.5q-25 0 -41.5 11.5z
" />
    <glyph glyph-name="uni004A0301.ss11" horiz-adv-x="543" 
d="M128 16q-50 28 -78 82.5t-28 132.5h72q0 -88 41 -133.5t107 -45.5t106.5 45.5t40.5 133.5v469h73v-469q0 -78 -28 -132.5t-78 -82.5t-114 -28t-114 28zM602 831v-25l-231 -38v10z" />
    <glyph glyph-name="Jcircumflex.ss11" horiz-adv-x="543" 
d="M128 16q-50 28 -78 82.5t-28 132.5h72q0 -88 41 -133.5t107 -45.5t106.5 45.5t40.5 133.5v469h73v-469q0 -78 -28 -132.5t-78 -82.5t-114 -28t-114 28zM306 771l115 61h5l115 -61v-10l-117 47h-1l-117 -47v10z" />
    <glyph glyph-name="uni0136.ss11" horiz-adv-x="625" 
d="M81 700h73v-404h2l347 404h97l-273 -310l290 -390h-93l-243 335h-2l-125 -143v-192h-73v700zM326 -122v6h-31v55h45v-61q0 -26 -13.5 -42t-41.5 -16v14q41 0 41 44z" />
    <glyph glyph-name="Lacute.ss11" horiz-adv-x="502" 
d="M480 65v-65h-399v700h72v-635h327zM294 831v-25l-231 -38v10z" />
    <glyph glyph-name="Lcaron.ss11" horiz-adv-x="502" 
d="M480 65v-65h-399v700h72v-635h327zM364.5 597q9.5 12 9.5 35v19h-25v49h39v-68q0 -61 -55 -61v14q22 0 31.5 12z" />
    <glyph glyph-name="uni013B.ss11" horiz-adv-x="502" 
d="M480 65v-65h-399v700h72v-635h327zM292 -122v6h-31v55h45v-61q0 -26 -13.5 -42t-41.5 -16v14q41 0 41 44z" />
    <glyph glyph-name="Ldot.ss11" horiz-adv-x="502" 
d="M288 359h36v-46h-36v46zM81 700h72v-635h327v-65h-399v700z" />
    <glyph glyph-name="Nacute.ss11" horiz-adv-x="742" 
d="M154 602h-2l1 -100v-502h-72v700h97l410 -601h2l-1 100v501h72v-700h-96zM549 831v-25l-231 -38v10z" />
    <glyph glyph-name="Ncaron.ss11" horiz-adv-x="742" 
d="M154 602h-2l1 -100v-502h-72v700h97l410 -601h2l-1 100v501h72v-700h-96zM254 822v10l117 -47h1l117 47v-10l-115 -61h-5z" />
    <glyph glyph-name="uni0145.ss11" horiz-adv-x="742" 
d="M154 602h-2l1 -100v-502h-72v700h97l410 -601h2l-1 100v501h72v-700h-96zM383 -122v6h-31v55h45v-61q0 -26 -13.5 -42t-41.5 -16v14q41 0 41 44z" />
    <glyph glyph-name="Ntilde.ss11" horiz-adv-x="742" 
d="M154 602h-2l1 -100v-502h-72v700h97l410 -601h2l-1 100v501h72v-700h-96zM402.5 757.5q-16.5 11.5 -38.5 35.5q-18 21 -32.5 31.5t-34.5 10.5q-28 0 -47.5 -22t-19.5 -62h-10q0 49 22 77t58 28q25 0 42 -12t37 -35q21 -22 34.5 -32t33.5 -10q28 0 47.5 22t19.5 62h10
q0 -50 -21.5 -77.5t-58.5 -27.5q-25 0 -41.5 11.5z" />
    <glyph glyph-name="Oacute.ss11" horiz-adv-x="761" 
d="M211 30.5q-77 42.5 -122.5 124.5t-45.5 195t45.5 195t122.5 124.5t170 42.5t170 -42.5t122.5 -124.5t45.5 -195t-45.5 -195t-122.5 -124.5t-170 -42.5t-170 42.5zM153.5 187.5q34.5 -67.5 94 -101.5t133.5 -34q74 1 133 35t93.5 101t34.5 162t-34.5 162t-93.5 101
t-133 35q-74 0 -133.5 -34t-94 -101.5t-34.5 -162.5t34.5 -162.5zM558 831v-25l-231 -38v10z" />
    <glyph glyph-name="Obreve.ss11" horiz-adv-x="761" 
d="M211 30.5q-77 42.5 -122.5 124.5t-45.5 195t45.5 195t122.5 124.5t170 42.5t170 -42.5t122.5 -124.5t45.5 -195t-45.5 -195t-122.5 -124.5t-170 -42.5t-170 42.5zM153.5 187.5q34.5 -67.5 94 -101.5t133.5 -34q74 1 133 35t93.5 101t34.5 162t-34.5 162t-93.5 101
t-133 35q-74 0 -133.5 -34t-94 -101.5t-34.5 -162.5t34.5 -162.5zM452 777.5q-29 -23.5 -71 -23.5t-71 23.5t-38 60.5h10q11 -28 37 -44t62 -16t62 16t37 44h10q-9 -37 -38 -60.5z" />
    <glyph glyph-name="uni01D1.ss11" horiz-adv-x="761" 
d="M211 30.5q-77 42.5 -122.5 124.5t-45.5 195t45.5 195t122.5 124.5t170 42.5t170 -42.5t122.5 -124.5t45.5 -195t-45.5 -195t-122.5 -124.5t-170 -42.5t-170 42.5zM153.5 187.5q34.5 -67.5 94 -101.5t133.5 -34q74 1 133 35t93.5 101t34.5 162t-34.5 162t-93.5 101
t-133 35q-74 0 -133.5 -34t-94 -101.5t-34.5 -162.5t34.5 -162.5zM263 822v10l117 -47h1l117 47v-10l-115 -61h-5z" />
    <glyph glyph-name="Ocircumflex.ss11" horiz-adv-x="761" 
d="M211 30.5q-77 42.5 -122.5 124.5t-45.5 195t45.5 195t122.5 124.5t170 42.5t170 -42.5t122.5 -124.5t45.5 -195t-45.5 -195t-122.5 -124.5t-170 -42.5t-170 42.5zM153.5 187.5q34.5 -67.5 94 -101.5t133.5 -34q74 1 133 35t93.5 101t34.5 162t-34.5 162t-93.5 101
t-133 35q-74 0 -133.5 -34t-94 -101.5t-34.5 -162.5t34.5 -162.5zM263 771l115 61h5l115 -61v-10l-117 47h-1l-117 -47v10z" />
    <glyph glyph-name="Odieresis.ss11" horiz-adv-x="761" 
d="M211 30.5q-77 42.5 -122.5 124.5t-45.5 195t45.5 195t122.5 124.5t170 42.5t170 -42.5t122.5 -124.5t45.5 -195t-45.5 -195t-122.5 -124.5t-170 -42.5t-170 42.5zM153.5 187.5q34.5 -67.5 94 -101.5t133.5 -34q74 1 133 35t93.5 101t34.5 162t-34.5 162t-93.5 101
t-133 35q-74 0 -133.5 -34t-94 -101.5t-34.5 -162.5t34.5 -162.5zM421 829h36v-36h-36v36zM305 829h36v-36h-36v36z" />
    <glyph glyph-name="uni1ECC.ss11" horiz-adv-x="761" 
d="M211 30.5q-77 42.5 -122.5 124.5t-45.5 195t45.5 195t122.5 124.5t170 42.5t170 -42.5t122.5 -124.5t45.5 -195t-45.5 -195t-122.5 -124.5t-170 -42.5t-170 42.5zM153.5 187.5q34.5 -67.5 94 -101.5t133.5 -34q74 1 133 35t93.5 101t34.5 162t-34.5 162t-93.5 101
t-133 35q-74 0 -133.5 -34t-94 -101.5t-34.5 -162.5t34.5 -162.5zM363 -62h36v-46h-36v46z" />
    <glyph glyph-name="Ograve.ss11" horiz-adv-x="761" 
d="M211 30.5q-77 42.5 -122.5 124.5t-45.5 195t45.5 195t122.5 124.5t170 42.5t170 -42.5t122.5 -124.5t45.5 -195t-45.5 -195t-122.5 -124.5t-170 -42.5t-170 42.5zM153.5 187.5q34.5 -67.5 94 -101.5t133.5 -34q74 1 133 35t93.5 101t34.5 162t-34.5 162t-93.5 101
t-133 35q-74 0 -133.5 -34t-94 -101.5t-34.5 -162.5t34.5 -162.5zM441 768l-231 38v25l231 -53v-10z" />
    <glyph glyph-name="Ohungarumlaut.ss11" horiz-adv-x="761" 
d="M211 30.5q-77 42.5 -122.5 124.5t-45.5 195t45.5 195t122.5 124.5t170 42.5t170 -42.5t122.5 -124.5t45.5 -195t-45.5 -195t-122.5 -124.5t-170 -42.5t-170 42.5zM153.5 187.5q34.5 -67.5 94 -101.5t133.5 -34q74 1 133 35t93.5 101t34.5 162t-34.5 162t-93.5 101
t-133 35q-74 0 -133.5 -34t-94 -101.5t-34.5 -162.5t34.5 -162.5zM383 778l141 53v-25l-141 -38v10zM242 778l141 53v-25l-141 -38v10z" />
    <glyph glyph-name="Omacron.ss11" horiz-adv-x="761" 
d="M211 30.5q-77 42.5 -122.5 124.5t-45.5 195t45.5 195t122.5 124.5t170 42.5t170 -42.5t122.5 -124.5t45.5 -195t-45.5 -195t-122.5 -124.5t-170 -42.5t-170 42.5zM153.5 187.5q34.5 -67.5 94 -101.5t133.5 -34q74 1 133 35t93.5 101t34.5 162t-34.5 162t-93.5 101
t-133 35q-74 0 -133.5 -34t-94 -101.5t-34.5 -162.5t34.5 -162.5zM256 820h250v-24h-250v24z" />
    <glyph glyph-name="uni01EA.ss11" horiz-adv-x="761" 
d="M525.5 -145q-28.5 25 -28.5 67q0 28 13.5 55.5t37.5 49.5v2q-76 -41 -167 -41q-93 0 -170 42.5t-122.5 124.5t-45.5 195t45.5 195t122.5 124.5t170 42.5t170 -42.5t122.5 -124.5t45.5 -195q0 -97 -34 -171.5t-94 -121.5l-12 -11q-61 -57 -61 -114q0 -34 23.5 -53
t66.5 -19h13v-30h-18q-49 0 -77.5 25zM153.5 187.5q34.5 -67.5 94 -101.5t133.5 -34q74 1 133 35t93.5 101t34.5 162t-34.5 162t-93.5 101t-133 35q-74 0 -133.5 -34t-94 -101.5t-34.5 -162.5t34.5 -162.5z" />
    <glyph glyph-name="Oslash.ss11" horiz-adv-x="761" 
d="M616 621q49 -48 76 -116.5t27 -154.5q0 -113 -45.5 -195t-122.5 -124.5t-170 -42.5q-65 0 -123 21t-103 61l-64 -73l-10 8l-1 1l62 77q-47 47 -73 114.5t-26 152.5q0 113 45.5 195t122.5 124.5t170 42.5q64 0 121 -20.5t102 -59.5l61 71l10 -8l1 -1zM187 138l179 221
l192 221q-34 33 -79.5 50.5t-97.5 17.5q-74 0 -133.5 -34t-94 -101.5t-34.5 -162.5q0 -133 68 -212zM281.5 70q46.5 -18 99.5 -18q74 1 133 35t93.5 101t34.5 162q0 135 -70 216l-183 -226l-189 -217q35 -35 81.5 -53z" />
    <glyph glyph-name="Oslashacute.ss11" horiz-adv-x="761" 
d="M616 621q49 -48 76 -116.5t27 -154.5q0 -113 -45.5 -195t-122.5 -124.5t-170 -42.5q-65 0 -123 21t-103 61l-64 -73l-10 8l-1 1l62 77q-47 47 -73 114.5t-26 152.5q0 113 45.5 195t122.5 124.5t170 42.5q64 0 121 -20.5t102 -59.5l61 71l10 -8l1 -1zM187 138l179 221
l192 221q-34 33 -79.5 50.5t-97.5 17.5q-74 0 -133.5 -34t-94 -101.5t-34.5 -162.5q0 -133 68 -212zM281.5 70q46.5 -18 99.5 -18q74 1 133 35t93.5 101t34.5 162q0 135 -70 216l-183 -226l-189 -217q35 -35 81.5 -53zM554 831v-25l-231 -38v10z" />
    <glyph glyph-name="Otilde.ss11" horiz-adv-x="761" 
d="M211 30.5q-77 42.5 -122.5 124.5t-45.5 195t45.5 195t122.5 124.5t170 42.5t170 -42.5t122.5 -124.5t45.5 -195t-45.5 -195t-122.5 -124.5t-170 -42.5t-170 42.5zM153.5 187.5q34.5 -67.5 94 -101.5t133.5 -34q74 1 133 35t93.5 101t34.5 162t-34.5 162t-93.5 101
t-133 35q-74 0 -133.5 -34t-94 -101.5t-34.5 -162.5t34.5 -162.5zM411.5 757.5q-16.5 11.5 -38.5 35.5q-18 21 -32.5 31.5t-34.5 10.5q-28 0 -47.5 -22t-19.5 -62h-10q0 49 22 77t58 28q25 0 42 -12t37 -35q21 -22 34.5 -32t33.5 -10q28 0 47.5 22t19.5 62h10
q0 -50 -21.5 -77.5t-58.5 -27.5q-25 0 -41.5 11.5z" />
    <glyph glyph-name="Racute.ss11" horiz-adv-x="628" 
d="M81 700h250q124 0 187.5 -51.5t63.5 -136.5q0 -69 -43 -116t-124 -61v-2q60 -20 94 -65t55 -123l40 -145h-75l-33 122q-19 70 -42 108.5t-60 55t-98 16.5h-143v-302h-72v700zM300 366q98 0 152 35.5t54 103.5q0 62 -45 96t-131 34h-177v-269h147zM493 831v-25l-231 -38
v10z" />
    <glyph glyph-name="Rcaron.ss11" horiz-adv-x="628" 
d="M81 700h250q124 0 187.5 -51.5t63.5 -136.5q0 -69 -43 -116t-124 -61v-2q60 -20 94 -65t55 -123l40 -145h-75l-33 122q-19 70 -42 108.5t-60 55t-98 16.5h-143v-302h-72v700zM300 366q98 0 152 35.5t54 103.5q0 62 -45 96t-131 34h-177v-269h147zM197 822v10l117 -47h1
l117 47v-10l-115 -61h-5z" />
    <glyph glyph-name="uni0156.ss11" horiz-adv-x="628" 
d="M81 700h250q124 0 187.5 -51.5t63.5 -136.5q0 -69 -43 -116t-124 -61v-2q60 -20 94 -65t55 -123l40 -145h-75l-33 122q-19 70 -42 108.5t-60 55t-98 16.5h-143v-302h-72v700zM300 366q98 0 152 35.5t54 103.5q0 62 -45 96t-131 34h-177v-269h147zM327 -122v6h-31v55h45
v-61q0 -26 -13.5 -42t-41.5 -16v14q41 0 41 44z" />
    <glyph glyph-name="Sacute.ss11" horiz-adv-x="630" 
d="M120 56.5q-72 68.5 -76 185.5h74q4 -89 57.5 -139.5t147.5 -50.5q87 0 138.5 43t51.5 112q0 53 -36.5 86t-120.5 33h-91q-102 0 -156.5 48t-54.5 129q0 61 31.5 108.5t90 74t136.5 26.5q124 0 191.5 -65.5t72.5 -174.5h-74q-5 84 -52.5 130t-138.5 46q-85 0 -134 -38.5
t-49 -104.5q0 -108 142 -108h91q117 0 171.5 -53t54.5 -135q0 -65 -32.5 -115t-92.5 -78t-141 -28q-129 0 -201 68.5zM492 831v-25l-231 -38v10z" />
    <glyph glyph-name="uniA78B.ss11" horiz-adv-x="202" 
d="M101 578l-18 222h35v-467h-10z" />
    <glyph glyph-name="Scaron.ss11" horiz-adv-x="630" 
d="M120 56.5q-72 68.5 -76 185.5h74q4 -89 57.5 -139.5t147.5 -50.5q87 0 138.5 43t51.5 112q0 53 -36.5 86t-120.5 33h-91q-102 0 -156.5 48t-54.5 129q0 61 31.5 108.5t90 74t136.5 26.5q124 0 191.5 -65.5t72.5 -174.5h-74q-5 84 -52.5 130t-138.5 46q-85 0 -134 -38.5
t-49 -104.5q0 -108 142 -108h91q117 0 171.5 -53t54.5 -135q0 -65 -32.5 -115t-92.5 -78t-141 -28q-129 0 -201 68.5zM196 822v10l117 -47h1l117 47v-10l-115 -61h-5z" />
    <glyph glyph-name="Scedilla.ss11" horiz-adv-x="630" 
d="M249 -170v25h75q24 0 37.5 12t13.5 31t-13.5 30.5t-37.5 11.5h-22v48q-120 6 -187 74t-71 180h74q4 -89 57.5 -139.5t147.5 -50.5q87 0 138.5 43t51.5 112q0 53 -36.5 86t-120.5 33h-91q-102 0 -156.5 48t-54.5 129q0 61 31.5 108.5t90 74t136.5 26.5q124 0 191.5 -65.5
t72.5 -174.5h-74q-5 84 -52.5 130t-138.5 46q-85 0 -134 -38.5t-49 -104.5q0 -108 142 -108h91q117 0 171.5 -53t54.5 -135q0 -65 -32 -114.5t-91 -77.5t-138 -29v-37h4q34 0 54 -15t20 -44q0 -30 -21 -46t-54 -16h-80z" />
    <glyph glyph-name="Scircumflex.ss11" horiz-adv-x="630" 
d="M120 56.5q-72 68.5 -76 185.5h74q4 -89 57.5 -139.5t147.5 -50.5q87 0 138.5 43t51.5 112q0 53 -36.5 86t-120.5 33h-91q-102 0 -156.5 48t-54.5 129q0 61 31.5 108.5t90 74t136.5 26.5q124 0 191.5 -65.5t72.5 -174.5h-74q-5 84 -52.5 130t-138.5 46q-85 0 -134 -38.5
t-49 -104.5q0 -108 142 -108h91q117 0 171.5 -53t54.5 -135q0 -65 -32.5 -115t-92.5 -78t-141 -28q-129 0 -201 68.5zM196 771l115 61h5l115 -61v-10l-117 47h-1l-117 -47v10z" />
    <glyph glyph-name="uni0218.ss11" horiz-adv-x="630" 
d="M120 56.5q-72 68.5 -76 185.5h74q4 -89 57.5 -139.5t147.5 -50.5q87 0 138.5 43t51.5 112q0 53 -36.5 86t-120.5 33h-91q-102 0 -156.5 48t-54.5 129q0 61 31.5 108.5t90 74t136.5 26.5q124 0 191.5 -65.5t72.5 -174.5h-74q-5 84 -52.5 130t-138.5 46q-85 0 -134 -38.5
t-49 -104.5q0 -108 142 -108h91q117 0 171.5 -53t54.5 -135q0 -65 -32.5 -115t-92.5 -78t-141 -28q-129 0 -201 68.5zM326 -122v6h-31v55h45v-61q0 -26 -13.5 -42t-41.5 -16v14q41 0 41 44z" />
    <glyph glyph-name="Tbar.ss11" horiz-adv-x="597" 
d="M104 351h158v284h-245v65h563v-65h-245v-284h150v-26h-150v-325h-73v325h-158v26z" />
    <glyph glyph-name="Tcaron.ss11" horiz-adv-x="597" 
d="M262 635h-245v65h563v-65h-245v-635h-73v635zM181 822v10l117 -47h1l117 47v-10l-115 -61h-5z" />
    <glyph glyph-name="uni0162.ss11" horiz-adv-x="597" 
d="M262 635h-245v65h563v-65h-245v-635h-73v635zM234 -170v25h75q24 0 37.5 12t13.5 31t-13.5 30.5t-37.5 11.5h-22v60h24v-49h4q34 0 54 -15t20 -44q0 -30 -21 -46t-54 -16h-80z" />
    <glyph glyph-name="uni021A.ss11" horiz-adv-x="597" 
d="M262 635h-245v65h563v-65h-245v-635h-73v635zM310 -122v6h-31v55h45v-61q0 -26 -13.5 -42t-41.5 -16v14q41 0 41 44z" />
    <glyph glyph-name="Uacute.ss11" horiz-adv-x="701" 
d="M212 21q-61 33 -96 97t-35 154v428h73v-426q0 -71 26 -121t70.5 -75.5t99.5 -25.5q56 1 100.5 26.5t70.5 75t26 120.5v426h73v-428q0 -90 -35 -154t-96.5 -97t-138.5 -33t-138 33zM528 831v-25l-231 -38v10z" />
    <glyph glyph-name="Ubreve.ss11" horiz-adv-x="701" 
d="M212 21q-61 33 -96 97t-35 154v428h73v-426q0 -71 26 -121t70.5 -75.5t99.5 -25.5q56 1 100.5 26.5t70.5 75t26 120.5v426h73v-428q0 -90 -35 -154t-96.5 -97t-138.5 -33t-138 33zM421 777.5q-29 -23.5 -71 -23.5t-71 23.5t-38 60.5h10q11 -28 37 -44t62 -16t62 16t37 44
h10q-9 -37 -38 -60.5z" />
    <glyph glyph-name="uni01D3.ss11" horiz-adv-x="701" 
d="M212 21q-61 33 -96 97t-35 154v428h73v-426q0 -71 26 -121t70.5 -75.5t99.5 -25.5q56 1 100.5 26.5t70.5 75t26 120.5v426h73v-428q0 -90 -35 -154t-96.5 -97t-138.5 -33t-138 33zM232 822v10l117 -47h1l117 47v-10l-115 -61h-5z" />
    <glyph glyph-name="Ucircumflex.ss11" horiz-adv-x="701" 
d="M212 21q-61 33 -96 97t-35 154v428h73v-426q0 -71 26 -121t70.5 -75.5t99.5 -25.5q56 1 100.5 26.5t70.5 75t26 120.5v426h73v-428q0 -90 -35 -154t-96.5 -97t-138.5 -33t-138 33zM232 771l115 61h5l115 -61v-10l-117 47h-1l-117 -47v10z" />
    <glyph glyph-name="Udieresis.ss11" horiz-adv-x="701" 
d="M212 21q-61 33 -96 97t-35 154v428h73v-426q0 -71 26 -121t70.5 -75.5t99.5 -25.5q56 1 100.5 26.5t70.5 75t26 120.5v426h73v-428q0 -90 -35 -154t-96.5 -97t-138.5 -33t-138 33zM390 829h36v-36h-36v36zM274 829h36v-36h-36v36z" />
    <glyph glyph-name="uni1EE4.ss11" horiz-adv-x="701" 
d="M212 21q-61 33 -96 97t-35 154v428h73v-426q0 -71 26 -121t70.5 -75.5t99.5 -25.5q56 1 100.5 26.5t70.5 75t26 120.5v426h73v-428q0 -90 -35 -154t-96.5 -97t-138.5 -33t-138 33zM332 -62h36v-46h-36v46z" />
    <glyph glyph-name="Ugrave.ss11" horiz-adv-x="701" 
d="M212 21q-61 33 -96 97t-35 154v428h73v-426q0 -71 26 -121t70.5 -75.5t99.5 -25.5q56 1 100.5 26.5t70.5 75t26 120.5v426h73v-428q0 -90 -35 -154t-96.5 -97t-138.5 -33t-138 33zM410 768l-231 38v25l231 -53v-10z" />
    <glyph glyph-name="Uhungarumlaut.ss11" horiz-adv-x="701" 
d="M212 21q-61 33 -96 97t-35 154v428h73v-426q0 -71 26 -121t70.5 -75.5t99.5 -25.5q56 1 100.5 26.5t70.5 75t26 120.5v426h73v-428q0 -90 -35 -154t-96.5 -97t-138.5 -33t-138 33zM352 778l141 53v-25l-141 -38v10zM211 778l141 53v-25l-141 -38v10z" />
    <glyph glyph-name="Umacron.ss11" horiz-adv-x="701" 
d="M212 21q-61 33 -96 97t-35 154v428h73v-426q0 -71 26 -121t70.5 -75.5t99.5 -25.5q56 1 100.5 26.5t70.5 75t26 120.5v426h73v-428q0 -90 -35 -154t-96.5 -97t-138.5 -33t-138 33zM225 820h250v-24h-250v24z" />
    <glyph glyph-name="Uogonek.ss11" horiz-adv-x="689" 
d="M466.5 -145q-28.5 25 -28.5 67q0 51 41 94q-59 -28 -129 -28q-77 0 -138 33t-96 97t-35 154v428h73v-426q0 -71 26 -121t70.5 -75.5t99.5 -25.5q56 1 100.5 26.5t70.5 75t26 120.5v426h73v-428q0 -83 -30.5 -144.5t-84.5 -96.5q-46 -50 -46 -99q0 -34 23.5 -53t66.5 -19
h13v-30h-18q-49 0 -77.5 25z" />
    <glyph glyph-name="Uring.ss11" horiz-adv-x="701" 
d="M212 21q-61 33 -96 97t-35 154v428h73v-426q0 -71 26 -121t70.5 -75.5t99.5 -25.5q56 1 100.5 26.5t70.5 75t26 120.5v426h73v-428q0 -90 -35 -154t-96.5 -97t-138.5 -33t-138 33zM302 763q-20 20 -20 48q0 29 20 49t48 20t48 -20t20 -49q0 -28 -19.5 -48t-48.5 -20
q-28 0 -48 20zM314 768q15 -15 36 -15t36 15t15 36t-15 36.5t-36 15.5t-36 -15.5t-15 -36.5t15 -36z" />
    <glyph glyph-name="Utilde.ss11" horiz-adv-x="701" 
d="M212 21q-61 33 -96 97t-35 154v428h73v-426q0 -71 26 -121t70.5 -75.5t99.5 -25.5q56 1 100.5 26.5t70.5 75t26 120.5v426h73v-428q0 -90 -35 -154t-96.5 -97t-138.5 -33t-138 33zM380.5 757.5q-16.5 11.5 -38.5 35.5q-18 21 -32.5 31.5t-34.5 10.5q-28 0 -47.5 -22
t-19.5 -62h-10q0 49 22 77t58 28q25 0 42 -12t37 -35q21 -22 34.5 -32t33.5 -10q28 0 47.5 22t19.5 62h10q0 -50 -21.5 -77.5t-58.5 -27.5q-25 0 -41.5 11.5z" />
    <glyph glyph-name="Wacute.ss11" horiz-adv-x="922" 
d="M13 700h76l169 -611h2l155 611h94l153 -611h2l169 611h76l-205 -700h-84l-158 612h-2l-158 -612h-84zM639 831v-25l-231 -38v10z" />
    <glyph glyph-name="Wcircumflex.ss11" horiz-adv-x="922" 
d="M13 700h76l169 -611h2l155 611h94l153 -611h2l169 611h76l-205 -700h-84l-158 612h-2l-158 -612h-84zM344 771l115 61h5l115 -61v-10l-117 47h-1l-117 -47v10z" />
    <glyph glyph-name="Wdieresis.ss11" horiz-adv-x="922" 
d="M13 700h76l169 -611h2l155 611h94l153 -611h2l169 611h76l-205 -700h-84l-158 612h-2l-158 -612h-84zM502 829h36v-36h-36v36zM386 829h36v-36h-36v36z" />
    <glyph glyph-name="Wgrave.ss11" horiz-adv-x="922" 
d="M13 700h76l169 -611h2l155 611h94l153 -611h2l169 611h76l-205 -700h-84l-158 612h-2l-158 -612h-84zM522 768l-231 38v25l231 -53v-10z" />
    <glyph glyph-name="Yacute.ss11" horiz-adv-x="589" 
d="M258 285l-245 415h83l198 -351h2l197 351h83l-245 -415v-285h-73v285zM472 831v-25l-231 -38v10z" />
    <glyph glyph-name="Ycircumflex.ss11" horiz-adv-x="589" 
d="M258 285l-245 415h83l198 -351h2l197 351h83l-245 -415v-285h-73v285zM177 771l115 61h5l115 -61v-10l-117 47h-1l-117 -47v10z" />
    <glyph glyph-name="Ydieresis.ss11" horiz-adv-x="589" 
d="M258 285l-245 415h83l198 -351h2l197 351h83l-245 -415v-285h-73v285zM335 829h36v-36h-36v36zM219 829h36v-36h-36v36z" />
    <glyph glyph-name="Ygrave.ss11" horiz-adv-x="589" 
d="M258 285l-245 415h83l198 -351h2l197 351h83l-245 -415v-285h-73v285zM355 768l-231 38v25l231 -53v-10z" />
    <glyph glyph-name="uni0232.ss11" horiz-adv-x="589" 
d="M258 285l-245 415h83l198 -351h2l197 351h83l-245 -415v-285h-73v285zM170 820h250v-24h-250v24z" />
    <glyph glyph-name="uni1EF8.ss11" horiz-adv-x="589" 
d="M258 285l-245 415h83l198 -351h2l197 351h83l-245 -415v-285h-73v285zM325.5 757.5q-16.5 11.5 -38.5 35.5q-18 21 -32.5 31.5t-34.5 10.5q-28 0 -47.5 -22t-19.5 -62h-10q0 49 22 77t58 28q25 0 42 -12t37 -35q21 -22 34.5 -32t33.5 -10q28 0 47.5 22t19.5 62h10
q0 -50 -21.5 -77.5t-58.5 -27.5q-25 0 -41.5 11.5z" />
    <glyph glyph-name="Zacute.ss11" horiz-adv-x="586" 
d="M22 61l434 572v2h-424v65h523v-55l-434 -572v-2h444v-71h-543v61zM477 831v-25l-231 -38v10z" />
    <glyph glyph-name="Zcaron.ss11" horiz-adv-x="586" 
d="M22 61l434 572v2h-424v65h523v-55l-434 -572v-2h444v-71h-543v61zM182 822v10l117 -47h1l117 47v-10l-115 -61h-5z" />
    <glyph glyph-name="Zdotaccent.ss11" horiz-adv-x="586" 
d="M22 61l434 572v2h-424v65h523v-55l-434 -572v-2h444v-71h-543v61zM281 828h36v-36h-36v36z" />
    <glyph glyph-name="uni013B.loclMAH.ss11" horiz-adv-x="502" 
d="M480 65v-65h-399v700h72v-635h327zM216 -145h75q24 0 37.5 12t13.5 31t-13.5 30.5t-37.5 11.5h-22v11h22q38 0 59 -15t21 -44q0 -30 -21 -46t-54 -16h-80v25z" />
    <glyph glyph-name="uni0145.loclMAH.ss11" horiz-adv-x="742" 
d="M154 602h-2l1 -100v-502h-72v700h97l410 -601h2l-1 100v501h72v-700h-96zM383 -122v6h-31v55h45v-61q0 -26 -13.5 -42t-41.5 -16v14q41 0 41 44z" />
    <glyph glyph-name="Yacute.ss04.ss11" horiz-adv-x="511" 
d="M13 63h257v2l-257 635h79l161 -419h2l164 419h78l-208 -500l54 -137q4 -9 4 -20q0 -18 -12.5 -30.5t-33.5 -12.5h-288v63zM433 831v-25l-231 -38v10z" />
    <glyph glyph-name="Ycircumflex.ss04.ss11" horiz-adv-x="511" 
d="M13 63h257v2l-257 635h79l161 -419h2l164 419h78l-208 -500l54 -137q4 -9 4 -20q0 -18 -12.5 -30.5t-33.5 -12.5h-288v63zM138 771l115 61h5l115 -61v-10l-117 47h-1l-117 -47v10z" />
    <glyph glyph-name="Ydieresis.ss04.ss11" horiz-adv-x="511" 
d="M13 63h257v2l-257 635h79l161 -419h2l164 419h78l-208 -500l54 -137q4 -9 4 -20q0 -18 -12.5 -30.5t-33.5 -12.5h-288v63zM296 829h36v-36h-36v36zM180 829h36v-36h-36v36z" />
    <glyph glyph-name="Ygrave.ss04.ss11" horiz-adv-x="511" 
d="M13 63h257v2l-257 635h79l161 -419h2l164 419h78l-208 -500l54 -137q4 -9 4 -20q0 -18 -12.5 -30.5t-33.5 -12.5h-288v63zM316 768l-231 38v25l231 -53v-10z" />
    <glyph glyph-name="uni0232.ss04.ss11" horiz-adv-x="511" 
d="M13 63h257v2l-257 635h79l161 -419h2l164 419h78l-208 -500l54 -137q4 -9 4 -20q0 -18 -12.5 -30.5t-33.5 -12.5h-288v63zM131 820h250v-24h-250v24z" />
    <glyph glyph-name="uni1EF8.ss04.ss11" horiz-adv-x="511" 
d="M13 63h257v2l-257 635h79l161 -419h2l164 419h78l-208 -500l54 -137q4 -9 4 -20q0 -18 -12.5 -30.5t-33.5 -12.5h-288v63zM286.5 757.5q-16.5 11.5 -38.5 35.5q-18 21 -32.5 31.5t-34.5 10.5q-28 0 -47.5 -22t-19.5 -62h-10q0 49 22 77t58 28q25 0 42 -12t37 -35
q21 -22 34.5 -32t33.5 -10q28 0 47.5 22t19.5 62h10q0 -50 -21.5 -77.5t-58.5 -27.5q-25 0 -41.5 11.5z" />
    <glyph glyph-name="Sacute.ss05.ss11" horiz-adv-x="587" 
d="M57 63h261q68 0 108.5 36t40.5 97q0 60 -40.5 95t-108.5 35h-69q-90 0 -147.5 50.5t-57.5 137.5q0 57 26.5 99t73 64.5t105.5 22.5h271v-63h-271q-59 0 -94 -33.5t-35 -89.5t35 -87t94 -31h69q65 0 116 -24t80 -69.5t29 -106.5q0 -60 -29 -104.5t-80 -68t-116 -23.5h-261
v63zM476 831v-25l-231 -38v10z" />
    <glyph glyph-name="Scaron.ss05.ss11" horiz-adv-x="587" 
d="M57 63h261q68 0 108.5 36t40.5 97q0 60 -40.5 95t-108.5 35h-69q-90 0 -147.5 50.5t-57.5 137.5q0 57 26.5 99t73 64.5t105.5 22.5h271v-63h-271q-59 0 -94 -33.5t-35 -89.5t35 -87t94 -31h69q65 0 116 -24t80 -69.5t29 -106.5q0 -60 -29 -104.5t-80 -68t-116 -23.5h-261
v63zM180 822v10l117 -47h1l117 47v-10l-115 -61h-5z" />
    <glyph glyph-name="Scedilla.ss05.ss11" horiz-adv-x="587" 
d="M57 63h261q68 0 108.5 36t40.5 97q0 60 -40.5 95t-108.5 35h-69q-90 0 -147.5 50.5t-57.5 137.5q0 57 26.5 99t73 64.5t105.5 22.5h271v-63h-271q-59 0 -94 -33.5t-35 -89.5t35 -87t94 -31h69q65 0 116 -24t80 -69.5t29 -106.5q0 -60 -29 -104.5t-80 -68t-116 -23.5h-261
v63zM233 -170v25h75q24 0 37.5 12t13.5 31t-13.5 30.5t-37.5 11.5h-22v60h24v-49h4q34 0 54 -15t20 -44q0 -30 -21 -46t-54 -16h-80z" />
    <glyph glyph-name="Scircumflex.ss05.ss11" horiz-adv-x="587" 
d="M57 63h261q68 0 108.5 36t40.5 97q0 60 -40.5 95t-108.5 35h-69q-90 0 -147.5 50.5t-57.5 137.5q0 57 26.5 99t73 64.5t105.5 22.5h271v-63h-271q-59 0 -94 -33.5t-35 -89.5t35 -87t94 -31h69q65 0 116 -24t80 -69.5t29 -106.5q0 -60 -29 -104.5t-80 -68t-116 -23.5h-261
v63zM180 771l115 61h5l115 -61v-10l-117 47h-1l-117 -47v10z" />
    <glyph glyph-name="uni0218.ss05.ss11" horiz-adv-x="587" 
d="M57 63h261q68 0 108.5 36t40.5 97q0 60 -40.5 95t-108.5 35h-69q-90 0 -147.5 50.5t-57.5 137.5q0 57 26.5 99t73 64.5t105.5 22.5h271v-63h-271q-59 0 -94 -33.5t-35 -89.5t35 -87t94 -31h69q65 0 116 -24t80 -69.5t29 -106.5q0 -60 -29 -104.5t-80 -68t-116 -23.5h-261
v63zM310 -122v6h-31v55h45v-61q0 -26 -13.5 -42t-41.5 -16v14q41 0 41 44z" />
    <glyph glyph-name="Sacute.ss06.ss11" horiz-adv-x="631" 
d="M173 20.5q-62 32.5 -94.5 90t-34.5 131.5h73q4 -88 58.5 -139t146.5 -51q58 0 101 20t66.5 54.5t23.5 76.5q0 56 -41 89.5t-117 33.5h-92q-62 0 -109.5 24t-73 66.5t-25.5 96.5q0 85 61.5 136t167.5 51h262v-65h-262q-75 0 -115 -31.5t-40 -87.5q0 -54 37 -86.5
t103 -32.5h92q111 0 168.5 -53t57.5 -138q0 -63 -32 -112.5t-92.5 -77.5t-142.5 -28q-85 0 -147 32.5zM497 831v-25l-231 -38v10z" />
    <glyph glyph-name="Scaron.ss06.ss11" horiz-adv-x="631" 
d="M173 20.5q-62 32.5 -94.5 90t-34.5 131.5h73q4 -88 58.5 -139t146.5 -51q58 0 101 20t66.5 54.5t23.5 76.5q0 56 -41 89.5t-117 33.5h-92q-62 0 -109.5 24t-73 66.5t-25.5 96.5q0 85 61.5 136t167.5 51h262v-65h-262q-75 0 -115 -31.5t-40 -87.5q0 -54 37 -86.5
t103 -32.5h92q111 0 168.5 -53t57.5 -138q0 -63 -32 -112.5t-92.5 -77.5t-142.5 -28q-85 0 -147 32.5zM202 822v10l117 -47h1l117 47v-10l-115 -61h-5z" />
    <glyph glyph-name="Scedilla.ss06.ss11" horiz-adv-x="631" 
d="M255 -170v25h75q24 0 37.5 12t13.5 31t-13.5 30.5t-37.5 11.5h-22v48q-82 2 -141 35.5t-90 90t-33 128.5h73q4 -88 58.5 -139t146.5 -51q58 0 101 20t66.5 54.5t23.5 76.5q0 56 -41 89.5t-117 33.5h-92q-62 0 -109.5 24t-73 66.5t-25.5 96.5q0 85 61.5 136t167.5 51h262
v-65h-262q-75 0 -115 -31.5t-40 -87.5q0 -54 37 -86.5t103 -32.5h92q111 0 168.5 -53t57.5 -138q0 -61 -30.5 -110t-88 -77.5t-136.5 -30.5v-37h4q34 0 54 -15t20 -44q0 -30 -21 -46t-54 -16h-80z" />
    <glyph glyph-name="Scircumflex.ss06.ss11" horiz-adv-x="631" 
d="M173 20.5q-62 32.5 -94.5 90t-34.5 131.5h73q4 -88 58.5 -139t146.5 -51q58 0 101 20t66.5 54.5t23.5 76.5q0 56 -41 89.5t-117 33.5h-92q-62 0 -109.5 24t-73 66.5t-25.5 96.5q0 85 61.5 136t167.5 51h262v-65h-262q-75 0 -115 -31.5t-40 -87.5q0 -54 37 -86.5
t103 -32.5h92q111 0 168.5 -53t57.5 -138q0 -63 -32 -112.5t-92.5 -77.5t-142.5 -28q-85 0 -147 32.5zM202 771l115 61h5l115 -61v-10l-117 47h-1l-117 -47v10z" />
    </font>
</defs>
</svg>
