<?xml version="1.0" standalone="no"?>
<!DOCTYPE svg PUBLIC "-//W3C//DTD SVG 1.1//EN" "http://www.w3.org/Graphics/SVG/1.1/DTD/svg11.dtd" >
<svg xmlns="http://www.w3.org/2000/svg" xmlns:xlink="http://www.w3.org/1999/xlink" version="1.1">
<metadata>
Created by FontForge 20201107 at Wed Nov 30 21:20:43 2022
 By 
Copyright (c) 2019 by Folch Studio. All rights reserved.
</metadata>
<defs>
<font id="FFFAcidGrotesk-LightItalic" horiz-adv-x="589" >
  <font-face 
    font-family="FFF Acid Grotesk Light"
    font-weight="300"
    font-style="italic"
    font-stretch="normal"
    units-per-em="1000"
    panose-1="0 0 0 0 0 0 0 0 0 0"
    ascent="800"
    descent="-200"
    x-height="550"
    cap-height="700"
    bbox="-201 -216 2064 1005"
    underline-thickness="80"
    underline-position="-220"
    slope="-12"
    unicode-range="U+0020-FB02"
  />
<missing-glyph horiz-adv-x="701" 
d="M681 700l-149 -700h-480l149 700h480zM476 64l121 572h-340l-121 -572h340z" />
    <glyph glyph-name="fi" unicode="fi" horiz-adv-x="506" 
d="M225 740q47 41 132 41h180l-14 -62h-167q-51 0 -83 -29t-45 -90l-11 -50h216q20 0 31 -9t11 -26q0 -4 -2 -14l-106 -501h-72l104 488h-195l-104 -488h-71l104 488h-78l13 62h78l14 64q18 85 65 126z" />
    <glyph glyph-name="fl" unicode="fl" horiz-adv-x="543" 
d="M225 740q47 41 132 41h217l-166 -781h-71l153 719h-134q-51 0 -83 -29t-45 -90l-11 -50h132l-13 -62h-132l-104 -488h-71l104 488h-78l13 62h78l14 64q18 85 65 126z" />
    <glyph glyph-name="f_f.liga" unicode="ff" horiz-adv-x="607" 
d="M494 740q47 41 132 41h83l-14 -62h-70q-51 0 -83 -29t-45 -90l-11 -50h132l-13 -62h-132l-103 -488h-72l104 488h-199l-103 -488h-72l104 488h-77l13 62h77l14 64q18 85 65 126t132 41h81l-13 -62h-69q-51 0 -83 -29t-45 -90l-11 -50h199l14 64q18 85 65 126z" />
    <glyph glyph-name="f_f_i.liga" unicode="ffi" horiz-adv-x="775" 
d="M668 488h-195l-103 -488h-72l104 488h-199l-103 -488h-72l104 488h-77l13 62h77l14 64q18 85 65 126t132 41h81l-13 -62h-69q-51 0 -83 -29t-45 -90l-11 -50h199l14 64q18 85 65 126t132 41h180l-13 -62h-168q-51 0 -83 -29t-45 -90l-11 -50h216q21 0 31.5 -9.5
t10.5 -26.5q0 -8 -1 -13l-107 -501h-71z" />
    <glyph glyph-name="f_f_l.liga" unicode="ffl" horiz-adv-x="802" 
d="M494 740q47 41 132 41h207l-166 -781h-72l153 719h-123q-51 0 -83 -29t-45 -90l-11 -50h121l-13 -62h-121l-103 -488h-72l104 488h-199l-103 -488h-72l104 488h-77l13 62h77l14 64q18 85 65 126t132 41h81l-13 -62h-69q-51 0 -83 -29t-45 -90l-11 -50h199l14 64
q18 85 65 126z" />
    <glyph glyph-name=".notdef" horiz-adv-x="701" 
d="M681 700l-149 -700h-480l149 700h480zM476 64l121 572h-340l-121 -572h340z" />
    <glyph glyph-name=".null" horiz-adv-x="0" 
 />
    <glyph glyph-name="nonmarkingreturn" horiz-adv-x="333" 
 />
    <glyph glyph-name="space" unicode=" " horiz-adv-x="237" 
 />
    <glyph glyph-name="exclam" unicode="!" horiz-adv-x="250" 
d="M144 550l32 150h78l-32 -150l-97 -403h-55zM43 80h81l-17 -80h-81z" />
    <glyph glyph-name="quotedbl" unicode="&#x22;" horiz-adv-x="330" 
d="M161 700h63l-58 -247h-52zM278 700h63l-59 -247h-51z" />
    <glyph glyph-name="numbersign" unicode="#" horiz-adv-x="699" 
d="M397 192h-189l-64 -192h-64l64 192h-115l2 54h131l69 209h-115l2 54h131l64 191h64l-64 -191h189l64 191h64l-63 -191h115l-2 -54h-131l-69 -209h115l-2 -54h-131l-64 -192h-65zM415 246l69 209h-189l-69 -209h189z" />
    <glyph glyph-name="dollar" unicode="$" horiz-adv-x="634" 
d="M226 -6q-90 16 -140 72.5t-50 137.5q0 19 3 38h72q-2 -20 -2 -30q0 -74 50.5 -117t137.5 -43q60 0 105.5 21t71 58t25.5 85q0 54 -34 82t-108 28h-62q-94 0 -145 43t-51 120q0 64 35 115t97.5 79.5t143.5 28.5h3l13 88h62l-25 -92q89 -12 138.5 -63.5t49.5 -132.5
q0 -19 -3 -40h-72q2 22 2 31q0 68 -42.5 106.5t-129.5 38.5q-64 0 -109 -21.5t-67 -57t-22 -77.5q0 -49 31 -72t96 -23h62q104 0 157.5 -48.5t53.5 -130.5q0 -68 -36 -120.5t-99.5 -81t-144.5 -28.5h-16l-13 -84h-62z" />
    <glyph glyph-name="percent" unicode="%" horiz-adv-x="909" 
d="M751 700h76l-636 -700h-77zM144.5 602q25.5 50 71.5 80t104 30q62 0 100 -36t38 -104q0 -57 -26 -107t-72.5 -80t-104.5 -30q-61 0 -98.5 36t-37.5 104q0 57 25.5 107zM201.5 430q22.5 -23 59.5 -23q40 0 70.5 24t47.5 62t17 76q0 44 -22.5 67t-59.5 23q-39 0 -70 -24
t-48 -62t-17 -76q0 -44 22.5 -67zM508.5 234q25.5 50 71.5 80.5t104 30.5q62 0 100 -36.5t38 -104.5q0 -57 -26 -106.5t-72.5 -79.5t-104.5 -30q-61 0 -98.5 36t-37.5 104q0 56 25.5 106zM565.5 63q22.5 -23 59.5 -23q40 0 70.5 24t47.5 62t17 77q0 44 -22.5 66.5
t-59.5 22.5q-39 0 -70 -24.5t-48 -62t-17 -75.5q0 -44 22.5 -67z" />
    <glyph glyph-name="ampersand" unicode="&#x26;" horiz-adv-x="667" 
d="M59.5 29.5q-48.5 42.5 -48.5 114.5q0 76 54 131t149 90l5 2q-27 41 -40.5 78t-13.5 75q0 53 26 97.5t73 70t108 25.5q76 0 118 -40t42 -100q0 -72 -56.5 -127t-149.5 -90l-10 -4l132 -176q62 81 91 193h73q-18 -71 -50.5 -132.5t-76.5 -110.5l94 -126h-89l-57 76
q-52 -43 -112.5 -66t-123.5 -23q-89 0 -137.5 42.5zM119 82q34 -30 98 -30q98 0 181 72l-151 203l-6 -2q-156 -59 -156 -163q0 -50 34 -80zM287 392l12 4q72 26 117.5 68t45.5 95q0 39 -25.5 64t-69.5 25q-56 0 -93 -36.5t-37 -94.5q0 -59 50 -125z" />
    <glyph glyph-name="quotesingle" unicode="'" horiz-adv-x="193" 
d="M155 700h63l-58 -247h-52z" />
    <glyph glyph-name="parenleft" unicode="(" horiz-adv-x="297" 
d="M83 112q0 181 63 362t181 326h65q-117 -150 -179.5 -330.5t-62.5 -361.5q0 -143 41 -252h-64q-44 113 -44 256z" />
    <glyph glyph-name="parenright" unicode=")" horiz-adv-x="298" 
d="M237 544q0 -181 -63 -362t-181 -326h-65q117 150 179.5 330.5t62.5 361.5q0 143 -41 252h64q44 -113 44 -256z" />
    <glyph glyph-name="asterisk" unicode="*" horiz-adv-x="437" 
d="M107 419l135 120l-151 36l37 69l135 -66l18 162h74l-52 -163l160 68l9 -71l-165 -35l84 -122l-68 -43l-53 142l-112 -142z" />
    <glyph glyph-name="plus" unicode="+" horiz-adv-x="599" 
d="M68 326h211l47 221h63l-47 -221h211l-14 -62h-210l-48 -223h-63l48 223h-211z" />
    <glyph glyph-name="comma" unicode="," horiz-adv-x="240" 
d="M69 -10l3 10h-49l20 92h81l-21 -101q-21 -98 -123 -98l4 32q70 0 85 65z" />
    <glyph glyph-name="hyphen" unicode="-" horiz-adv-x="520" 
d="M108 311h320l-13 -60h-320z" />
    <glyph glyph-name="period" unicode="." horiz-adv-x="222" 
d="M31 83h79l-18 -83h-78z" />
    <glyph glyph-name="slash" unicode="/" horiz-adv-x="353" 
d="M8 -100h-68l437 900h68z" />
    <glyph glyph-name="zero" unicode="0" horiz-adv-x="625" 
d="M102.5 50.5q-58.5 62.5 -58.5 183.5q0 95 35.5 206.5t114 191.5t199.5 80q103 0 161.5 -62.5t58.5 -182.5q0 -96 -35.5 -207t-114 -191.5t-199.5 -80.5q-103 0 -161.5 62.5zM156.5 95q38.5 -47 108.5 -47q92 0 154 70.5t91 168.5t29 180q0 93 -38 139t-108 46
q-93 0 -155 -70t-91 -167.5t-29 -180.5q0 -92 38.5 -139z" />
    <glyph glyph-name="one" unicode="1" horiz-adv-x="346" 
d="M191 0h-72l116 547h-2q-29 -75 -117 -75h-55l14 69h55q54 0 85.5 27t43.5 85l10 47h70z" />
    <glyph glyph-name="two" unicode="2" horiz-adv-x="560" 
d="M27 156.5q27 43.5 79 81.5t138 73l60 25q89 36 136 87t47 113q0 55 -34 85t-92 30q-67 0 -118 -42.5t-70 -121.5h-73q23 104 95 164.5t172 60.5q87 0 140 -45.5t53 -124.5q0 -83 -61.5 -152t-169.5 -113l-67 -27q-71 -30 -111.5 -59t-58.5 -58.5t-26 -67.5h416l-14 -65
h-493l13 56q12 57 39 100.5z" />
    <glyph glyph-name="three" unicode="3" horiz-adv-x="593" 
d="M90.5 42.5q-64.5 54.5 -64.5 149.5q0 16 1 25h73q-1 -8 -1 -23q0 -67 43 -106t120 -39q59 0 104.5 22t70.5 61t25 86q0 62 -43 94t-118 32h-86l13 61h70q60 0 106.5 19t72.5 52t26 74q0 49 -36.5 75t-93.5 26q-67 0 -117 -36t-63 -102h-73q21 93 90 146t169 53
q89 0 143 -42t54 -110q0 -46 -25 -84t-68.5 -62t-99.5 -29v-2q75 -14 114 -58.5t39 -110.5q0 -65 -35.5 -116.5t-98 -80.5t-140.5 -29q-107 0 -171.5 54.5z" />
    <glyph glyph-name="four" unicode="4" horiz-adv-x="546" 
d="M342 155h-346l11 56l433 489h89l-102 -483h90l-13 -62h-90l-33 -155h-72zM355 217l84 395h-2l-341 -393v-2h259z" />
    <glyph glyph-name="five" unicode="5" horiz-adv-x="590" 
d="M130.5 14q-52.5 26 -78.5 73.5t-21 108.5h69q-1 -6 -1 -18q0 -56 42.5 -92.5t115.5 -36.5q64 0 112.5 29.5t74.5 77t26 101.5q0 69 -42 108t-112 39q-58 0 -106.5 -27t-80.5 -72h-71l141 395h405l-14 -62h-341l-104 -274h2q36 50 86.5 75t109.5 25q90 0 145.5 -55
t55.5 -149q0 -73 -35.5 -135t-101 -99.5t-152.5 -37.5q-72 0 -124.5 26z" />
    <glyph glyph-name="six" unicode="6" horiz-adv-x="609" 
d="M108.5 55.5q-59.5 68.5 -59.5 200.5q0 105 37 210.5t115.5 176t196.5 70.5q95 0 150.5 -47.5t55.5 -126.5q0 -24 -4 -44h-71q4 16 4 35q0 54 -36.5 88t-101.5 34q-95 0 -167.5 -77t-98.5 -235q-4 -21 -5 -36h2q32 75 91.5 117.5t137.5 42.5q59 0 105.5 -24.5t73 -70.5
t26.5 -108q0 -71 -34.5 -134t-98.5 -101.5t-149 -38.5q-110 0 -169.5 68.5zM167 91q43 -43 115 -43q58 0 105 29t73 76.5t26 101.5q0 69 -42 108.5t-114 39.5q-59 0 -106 -26.5t-73.5 -72t-26.5 -99.5q0 -71 43 -114z" />
    <glyph glyph-name="seven" unicode="7" horiz-adv-x="474" 
d="M148.5 234q61.5 122 148.5 229t183 173v2h-393l13 62h454l-12 -55q-103 -79 -186 -187.5t-137.5 -227.5t-77.5 -230h-78q24 112 85.5 234z" />
    <glyph glyph-name="eight" unicode="8" horiz-adv-x="583" 
d="M80 34q-61 46 -61 126q0 76 55 133.5t146 76.5v2q-50 12 -77 46t-27 85q0 59 35.5 107t95 75t129.5 27q88 0 142.5 -42.5t54.5 -114.5q0 -65 -46.5 -115t-126.5 -67v-2q63 -14 95 -52t32 -99q0 -66 -36.5 -119t-102 -83t-147.5 -30q-100 0 -161 46zM134 79.5
q40 -30.5 108 -30.5q57 0 105 21.5t77 61t29 89.5q0 59 -40 89.5t-108 30.5q-60 0 -108.5 -23.5t-75.5 -63.5t-27 -87q0 -57 40 -87.5zM224 427q35 -26 93 -26q50 0 91.5 19t66 53t24.5 76q0 50 -34.5 76t-92.5 26q-49 0 -91 -18.5t-67 -52.5t-25 -76q0 -51 35 -77z" />
    <glyph glyph-name="nine" unicode="9" horiz-adv-x="609" 
d="M532.5 644.5q59.5 -68.5 59.5 -200.5q0 -105 -37 -210.5t-115.5 -176t-196.5 -70.5q-95 0 -150.5 47.5t-55.5 126.5q0 24 4 44h71q-4 -16 -4 -35q0 -54 36.5 -88t101.5 -34q95 0 167.5 77t98.5 235q4 21 5 36h-2q-32 -75 -91.5 -117.5t-137.5 -42.5q-59 0 -105.5 24.5
t-73 70.5t-26.5 108q0 71 34.5 134t98.5 101.5t149 38.5q110 0 169.5 -68.5zM197 336.5q42 -39.5 114 -39.5q59 0 106 26.5t73.5 72t26.5 99.5q0 71 -43 114t-115 43q-58 0 -105 -29t-73 -76.5t-26 -101.5q0 -69 42 -108.5z" />
    <glyph glyph-name="colon" unicode=":" horiz-adv-x="223" 
d="M122 508h79l-18 -83h-78zM31 83h79l-18 -83h-78z" />
    <glyph glyph-name="semicolon" unicode=";" horiz-adv-x="240" 
d="M69 -10l3 10h-49l20 92h81l-21 -101q-21 -98 -123 -98l4 32q70 0 85 65zM127 508h79l-18 -83h-78z" />
    <glyph glyph-name="less" unicode="&#x3c;" horiz-adv-x="619" 
d="M606 466l-487 -186l408 -188l-14 -63l-465 219l15 73l559 219z" />
    <glyph glyph-name="equal" unicode="=" horiz-adv-x="585" 
d="M125 454h412l-13 -62h-412zM82 254h412l-13 -62h-412z" />
    <glyph glyph-name="greater" unicode="&#x3e;" horiz-adv-x="619" 
d="M18 103l485 187l-406 187l13 63l465 -219l-15 -73l-558 -219z" />
    <glyph glyph-name="question" unicode="?" 
d="M243 283.5q23 26.5 78 46.5l25 10q81 30 125.5 81t44.5 115q0 58 -36.5 88t-102.5 30q-83 0 -140 -45.5t-77 -122.5h-72q25 108 102.5 168t188.5 60q101 0 154 -49t53 -128q0 -88 -60.5 -153t-157.5 -101l-17 -6q-37 -14 -52.5 -32t-23.5 -57l-9 -41h-70l13 62
q11 48 34 74.5zM177 80h80l-17 -80h-80z" />
    <glyph glyph-name="at" unicode="@" horiz-adv-x="977" 
d="M194.5 -129.5q-81.5 40.5 -125.5 119.5t-44 191q0 139 65.5 261t188 196t284.5 74q122 0 204.5 -43t123.5 -117.5t41 -170.5q0 -55 -11 -105l-49 -232h-209q-41 0 -60 17.5t-17 53.5l1 7l4 23h-2q-26 -51 -73 -81.5t-109 -30.5q-72 0 -116.5 44t-44.5 127q0 70 33 135
t89.5 105.5t124.5 40.5q58 0 94.5 -30t46.5 -78h2l13 62l8 35h71l-72 -335q-1 -3 -1 -9q0 -24 31 -24h128l36 170q11 53 11 97q0 126 -77.5 202t-227.5 76q-133 0 -237.5 -62t-162.5 -166.5t-58 -227.5q0 -146 81.5 -224.5t220.5 -78.5h440l-14 -62h-439q-111 0 -192.5 40.5
zM351 125.5q30 -32.5 82 -32.5q53 0 95 31t66 79.5t24 99.5q0 57 -30.5 89.5t-83.5 32.5q-52 0 -94 -30.5t-65.5 -79t-23.5 -100.5q0 -57 30 -89.5z" />
    <glyph glyph-name="A" unicode="A" horiz-adv-x="636" 
d="M369 700h78l115 -700h-72l-30 196h-307l-113 -196h-81zM450 260l-27 176l-12 80q-11 75 -16 104h-2q-40 -74 -108 -194l-95 -166h260z" />
    <glyph glyph-name="B" unicode="B" horiz-adv-x="655" 
d="M172 700h271q82 0 129.5 -40.5t47.5 -112.5q0 -70 -48 -114.5t-128 -53.5v-1q75 -6 117 -46.5t42 -108.5q0 -62 -35 -113t-99.5 -80.5t-149.5 -29.5h-296zM313 65q68 0 116 21.5t73 58.5t25 82q0 54 -37 82t-110 28h-210l-58 -272h201zM368 402q86 0 132 39t46 98
q0 48 -30.5 72t-87.5 24h-195l-49 -233h184z" />
    <glyph glyph-name="C" unicode="C" horiz-adv-x="735" 
d="M123 61.5q-73 73.5 -73 205.5q0 113 50.5 215.5t145 166t219.5 63.5q86 0 146 -30.5t90.5 -84t30.5 -122.5q0 -20 -3 -43h-74q2 12 2 35q0 82 -52 131.5t-145 49.5q-101 0 -177.5 -56.5t-117 -144.5t-40.5 -179q0 -105 56.5 -160.5t149.5 -55.5q70 0 129 31t98.5 78
t57.5 94h76q-24 -75 -76 -136t-126.5 -96t-163.5 -35q-130 0 -203 73.5z" />
    <glyph glyph-name="D" unicode="D" horiz-adv-x="710" 
d="M172 700h244q129 0 203 -69t74 -203q0 -111 -50 -209t-146 -158.5t-228 -60.5h-246zM275 65q106 0 184 52t119 135t41 174q0 104 -55 156.5t-153 52.5h-180l-121 -570h165z" />
    <glyph glyph-name="E" unicode="E" 
d="M172 700h476l-14 -65h-401l-52 -249h362l-14 -64h-362l-55 -257h402l-14 -65h-477z" />
    <glyph glyph-name="F" unicode="F" horiz-adv-x="577" 
d="M172 700h475l-14 -65h-400l-53 -252h361l-14 -65h-361l-68 -318h-75z" />
    <glyph glyph-name="G" unicode="G" horiz-adv-x="762" 
d="M121.5 62.5q-71.5 74.5 -71.5 207.5q0 111 51 213t145.5 165.5t220.5 63.5q86 0 147 -31t92 -84.5t31 -121.5q0 -22 -3 -43h-75q3 18 3 36q0 81 -53 130.5t-147 49.5q-102 0 -178.5 -56.5t-117 -144t-40.5 -176.5q0 -107 56 -163t151 -56q75 0 137 33t104 83t61 103h-263
l14 65h282q18 0 28 -9.5t10 -25.5q0 -8 -1 -12l-61 -289h-71l53 172h-3q-49 -84 -128 -134t-179 -50q-123 0 -194.5 74.5z" />
    <glyph glyph-name="H" unicode="H" horiz-adv-x="694" 
d="M172 700h75l-67 -315h381l67 315h76l-149 -700h-76l68 320h-381l-68 -320h-75z" />
    <glyph glyph-name="I" unicode="I" horiz-adv-x="238" 
d="M172 700h75l-149 -700h-75z" />
    <glyph glyph-name="J" unicode="J" horiz-adv-x="545" 
d="M60.5 37.5q-54.5 49.5 -54.5 134.5q0 22 7 59h72q-6 -31 -6 -56q0 -61 33 -92t90 -31q67 0 113 44.5t65 135.5l99 468h74l-100 -477q-25 -114 -90.5 -174.5t-160.5 -60.5q-87 0 -141.5 49.5z" />
    <glyph glyph-name="K" unicode="K" horiz-adv-x="626" 
d="M171 700h74l-84 -397h2l421 397h108l-344 -315l212 -385h-85l-179 336h-2l-156 -144l-41 -192h-74z" />
    <glyph glyph-name="L" unicode="L" horiz-adv-x="504" 
d="M439 65l-14 -65h-402l149 700h75l-135 -635h327z" />
    <glyph glyph-name="M" unicode="M" horiz-adv-x="844" 
d="M171 700h104l101 -621h2l362 621h114l-149 -700h-72l105 495l13 62l9 38h-2l-351 -595h-85l-99 595h-2l-14 -65q-5 -26 -7 -35l-105 -495h-72z" />
    <glyph glyph-name="N" unicode="N" horiz-adv-x="747" 
d="M228 602h-4l-20 -100l-107 -502h-74l149 700h92l287 -601h4l21 100l106 501h75l-149 -700h-92z" />
    <glyph glyph-name="O" unicode="O" horiz-adv-x="763" 
d="M184 20.5q-63 32.5 -98.5 96.5t-35.5 155q0 115 55.5 216.5t152 162.5t211.5 61q82 0 145 -32.5t98 -96.5t35 -155q0 -114 -55.5 -215.5t-151.5 -163t-212 -61.5q-81 0 -144 32.5zM182 106.5q56 -54.5 149 -54.5q96 0 174 55t122 143.5t44 182.5q0 107 -56.5 161
t-148.5 54q-96 0 -174 -55.5t-122 -144t-44 -182.5q0 -105 56 -159.5z" />
    <glyph glyph-name="P" unicode="P" horiz-adv-x="652" 
d="M172 700h287q96 0 148.5 -45t52.5 -131q0 -69 -34.5 -122t-97.5 -83t-148 -30h-223l-61 -289h-73zM376 354q66 0 113.5 22.5t72 61t24.5 86.5q0 111 -142 111h-213l-60 -281h205z" />
    <glyph glyph-name="Q" unicode="Q" horiz-adv-x="780" 
d="M584 15q-17 15 -17 38q0 5 2 15h-2q-51 -38 -112 -59t-127 -21q-81 0 -144 32.5t-98.5 96.5t-35.5 155q0 115 55.5 216.5t152 162.5t211.5 61q82 0 145 -32.5t98 -96.5t35 -155q0 -94 -38.5 -180.5t-106.5 -149.5q-4 -35 31 -35h63l-13 -63h-52q-30 0 -47 15zM182 106.5
q56 -54.5 149 -54.5q100 0 182 61q4 37 -32 37h-65l13 63h57q30 0 47 -15t17 -38q0 -4 -2 -14h4q56 56 87.5 132t31.5 155q0 107 -56.5 161t-148.5 54q-96 0 -174 -55.5t-122 -144t-44 -182.5q0 -105 56 -159.5z" />
    <glyph glyph-name="R" unicode="R" horiz-adv-x="626" 
d="M171 700h250q106 0 159 -43.5t53 -114.5q0 -51 -26 -96t-73 -75.5t-108 -40.5v-2q52 -18 78 -62t31 -121l10 -145h-73l-6 122q-4 70 -19 108.5t-47.5 55t-91.5 16.5h-149l-64 -302h-72zM325 366q108 0 170.5 43.5t62.5 119.5q0 54 -36.5 80t-114.5 26h-177l-58 -269h153z
" />
    <glyph glyph-name="S" unicode="S" horiz-adv-x="634" 
d="M155 15.5q-58 27.5 -88.5 76.5t-30.5 112q0 19 3 38h72q-2 -20 -2 -30q0 -74 50.5 -117t137.5 -43q60 0 105.5 21t71 58t25.5 85q0 54 -34 82t-108 28h-62q-94 0 -145 43t-51 120q0 64 35 115t97.5 79.5t143.5 28.5q112 0 176.5 -53.5t64.5 -146.5q0 -19 -3 -40h-72
q2 22 2 31q0 68 -42.5 106.5t-129.5 38.5q-64 0 -109 -21.5t-67 -57t-22 -77.5q0 -49 31 -72t96 -23h62q104 0 157.5 -48.5t53.5 -130.5q0 -68 -36 -120.5t-99.5 -81t-144.5 -28.5q-80 0 -138 27.5z" />
    <glyph glyph-name="T" unicode="T" horiz-adv-x="597" 
d="M337 637h-244l14 63h563l-13 -63h-244l-136 -637h-75z" />
    <glyph glyph-name="U" unicode="U" horiz-adv-x="702" 
d="M138.5 48q-63.5 60 -63.5 165q0 37 9 79l87 408h74l-89 -422q-7 -32 -7 -65q0 -76 43 -118.5t115 -42.5q88 0 153.5 62.5t89.5 175.5l87 410h75l-90 -423q-31 -142 -115 -215.5t-199 -73.5q-106 0 -169.5 60z" />
    <glyph glyph-name="V" unicode="V" horiz-adv-x="624" 
d="M103 700h74l61 -429q17 -117 26 -189h2l107 190l242 428h85l-410 -700h-76z" />
    <glyph glyph-name="W" unicode="W" horiz-adv-x="922" 
d="M103 700h74l40 -611h2l285 611h94l23 -611h2l294 611h82l-350 -700h-88l-26 612h-2l-286 -612h-87z" />
    <glyph glyph-name="X" unicode="X" horiz-adv-x="624" 
d="M468 0l-149 296h-2l-263 -296h-95l325 361l-169 339h81l142 -289h2l260 289h96l-323 -354l176 -346h-81z" />
    <glyph glyph-name="Y" unicode="Y" 
d="M261 285l-156 415h79l121 -351h2l268 351h95l-334 -415l-62 -285h-75z" />
    <glyph glyph-name="Z" unicode="Z" horiz-adv-x="588" 
d="M-24 61l548 572v2h-415l14 65h523l-10 -55l-548 -572v-2h435l-16 -71h-543z" />
    <glyph glyph-name="bracketleft" unicode="[" horiz-adv-x="294" 
d="M167 800h217l-13 -61h-149l-174 -822h149l-13 -61h-217z" />
    <glyph glyph-name="backslash" unicode="\" horiz-adv-x="340" 
d="M129 800h60l54 -900h-61z" />
    <glyph glyph-name="bracketright" unicode="]" horiz-adv-x="294" 
d="M134 -144h-217l13 61h149l174 822h-149l13 61h217z" />
    <glyph glyph-name="asciicircum" unicode="^" horiz-adv-x="433" 
d="M280 700h54l67 -307h-59l-44 245l-148 -245h-68z" />
    <glyph glyph-name="underscore" unicode="_" horiz-adv-x="607" 
d="M-5 0h500l-13 -61h-500z" />
    <glyph glyph-name="grave" unicode="`" horiz-adv-x="180" 
d="M119 755h74l39 -142h-52z" />
    <glyph glyph-name="a" unicode="a" horiz-adv-x="582" 
d="M307.5 23q-56.5 -35 -121.5 -35q-74 0 -121 42.5t-47 116.5q0 82 57.5 131t160.5 49h106q57 0 85.5 25.5t28.5 65.5t-28.5 62t-84.5 22q-69 0 -115.5 -33.5t-62.5 -96.5h-77q24 91 92 140.5t164 49.5q85 0 134.5 -38.5t49.5 -108.5q0 -18 -5 -45l-59 -276q-2 -10 -2 -13
q0 -10 6.5 -14.5t20.5 -4.5h29l-13 -62h-46q-34 0 -51 15.5t-17 44.5q0 15 2 23l10 48h-2q-37 -73 -93.5 -108zM121 76.5q31 -28.5 84 -28.5q48 0 93 23.5t79.5 71t49.5 116.5l15 68h-2q-17 -29 -47.5 -44.5t-82.5 -15.5h-69q-79 0 -115 -33t-36 -82q0 -47 31 -75.5z" />
    <glyph glyph-name="b" unicode="b" horiz-adv-x="656" 
d="M184 29.5q-51 41.5 -63 109.5h-2q-3 -20 -12 -68l-16 -71h-71l166 781h72l-67 -314q-6 -32 -14 -56h3q38 73 101.5 112.5t136.5 39.5q59 0 105.5 -26t74 -76t27.5 -121q0 -90 -41.5 -171.5t-113 -131t-157.5 -49.5q-78 0 -129 41.5zM184.5 90.5q44.5 -42.5 114.5 -42.5
q74 0 132 43t89.5 110t31.5 136q0 81 -42.5 123t-113.5 42q-74 0 -132.5 -43.5t-91 -110.5t-32.5 -135q0 -80 44.5 -122.5z" />
    <glyph glyph-name="c" unicode="c" horiz-adv-x="598" 
d="M91.5 47.5q-59.5 59.5 -59.5 165.5q0 88 40 168.5t115 130.5t174 50q100 0 157 -51t57 -143q0 -19 -1 -28h-74q2 20 2 29q0 58 -36.5 95.5t-106.5 37.5q-76 0 -133.5 -44t-89 -111.5t-31.5 -136.5q0 -78 41 -120t110 -42q52 0 96 23.5t73.5 58t42.5 69.5h77
q-31 -92 -107.5 -151.5t-182.5 -59.5q-104 0 -163.5 59.5z" />
    <glyph glyph-name="d" unicode="d" horiz-adv-x="654" 
d="M133 13q-47 26 -74.5 76t-27.5 121q0 90 41.5 171.5t113.5 131.5t157 50q78 0 129 -42t63 -110h2q7 45 13 68l64 302h71l-166 -781h-71l17 83l14 56h-3q-38 -73 -101 -112.5t-136 -39.5q-59 0 -106 26zM147.5 90q42.5 -42 112.5 -42q74 0 132.5 43.5t91 111t32.5 135.5
q0 80 -44.5 122t-114.5 42q-74 0 -131.5 -43t-89 -110.5t-31.5 -135.5q0 -81 42.5 -123z" />
    <glyph glyph-name="e" unicode="e" horiz-adv-x="596" 
d="M90.5 48q-58.5 60 -58.5 165q0 90 41.5 170.5t115.5 129.5t166 49q101 0 159 -56.5t58 -147.5q0 -32 -7 -63l-9 -41h-447q-4 -23 -4 -48q0 -71 37 -114.5t111 -43.5q67 0 120 35t81 86h79q-35 -83 -110.5 -132t-169.5 -49q-104 0 -162.5 60zM494 314q5 27 5 48
q0 61 -35.5 100.5t-109.5 39.5q-56 0 -103.5 -26t-80 -69t-47.5 -93h371z" />
    <glyph glyph-name="f" unicode="f" horiz-adv-x="337" 
d="M224 740q47 41 132 41h83l-14 -62h-70q-51 0 -83 -29t-45 -90l-11 -50h134l-14 -62h-133l-103 -488h-72l104 488h-77l13 62h77l14 64q18 85 65 126z" />
    <glyph glyph-name="g" unicode="g" horiz-adv-x="566" 
d="M-1.5 -169q-37.5 31 -37.5 84q0 51 34 87.5t94 49.5v2q-27 8 -42.5 28t-15.5 49q0 38 27.5 62.5t71.5 23.5h31v2q-42 16 -65 50t-23 83q0 60 33.5 108t90 75t123.5 27q55 0 97.5 -19t65.5 -53h2q10 31 28.5 45.5t46.5 14.5h35l-13 -62h-37q-16 0 -28.5 -8.5t-17.5 -21.5
q9 -25 9 -55q0 -60 -34.5 -108.5t-93 -75.5t-127.5 -27h-84q-38 0 -57 -15t-19 -36q0 -19 13.5 -31t38.5 -12h192q67 0 105 -34t38 -94q0 -50 -26.5 -89t-72 -60t-101.5 -21h-172q-72 0 -109.5 31zM48 -122.5q23 -18.5 70 -18.5h163q60 0 95.5 31.5t35.5 75.5q0 33 -22 52.5
t-68 19.5h-166q-42 0 -71.5 -16t-44.5 -41t-15 -52q0 -33 23 -51.5zM173 279q33 -27 90 -27q47 0 88 19t65.5 52.5t24.5 75.5q0 48 -33 75.5t-90 27.5q-48 0 -89 -19t-65 -53t-24 -76q0 -48 33 -75z" />
    <glyph glyph-name="h" unicode="h" horiz-adv-x="602" 
d="M186 781h72l-57 -268q-8 -41 -20 -84h2q37 63 91 98t119 35q73 0 113.5 -43.5t40.5 -117.5q0 -28 -8 -66l-71 -335h-71l70 331q8 38 8 64q0 54 -27 79.5t-75 25.5q-47 0 -91.5 -22.5t-78.5 -68.5t-48 -113l-63 -296h-72z" />
    <glyph glyph-name="i" unicode="i" horiz-adv-x="228" 
d="M137 550h72l-117 -550h-72zM175 733h73l-17 -77h-73z" />
    <glyph glyph-name="j" unicode="j" horiz-adv-x="226" 
d="M-112 -139h35q34 0 54 18.5t28 59.5l130 611h72l-134 -628q-12 -58 -48 -90t-93 -32h-57zM173 733h73l-17 -77h-73z" />
    <glyph glyph-name="k" unicode="k" horiz-adv-x="510" 
d="M186 781h72l-111 -520l298 289h104l-259 -244l155 -306h-80l-126 257h-2l-113 -107l-32 -150h-72z" />
    <glyph glyph-name="l" unicode="l" horiz-adv-x="227" 
d="M186 781h72l-166 -781h-72z" />
    <glyph glyph-name="m" unicode="m" horiz-adv-x="922" 
d="M137 550h70l-25 -115h2q32 58 81 92.5t112 34.5q66 0 102 -38.5t38 -101.5h2q33 66 86 103t118 37q70 0 108 -42t38 -114q0 -33 -7 -65l-73 -341h-71l73 344q6 30 6 55q0 51 -25.5 76t-71.5 25q-67 0 -120.5 -50.5t-73.5 -144.5l-65 -305h-72l73 344q7 29 7 56
q0 50 -25.5 75t-70.5 25q-67 0 -122 -51t-75 -145l-64 -304h-72z" />
    <glyph glyph-name="n" unicode="n" horiz-adv-x="602" 
d="M137 550h70l-26 -122h2q38 66 92.5 100t117.5 34q73 0 113 -43.5t40 -117.5q0 -34 -7 -66l-71 -335h-72l71 331q7 34 7 63q0 106 -102 106q-47 0 -91 -22.5t-78 -68.5t-48 -113l-63 -296h-72z" />
    <glyph glyph-name="o" unicode="o" horiz-adv-x="616" 
d="M93 47.5q-61 59.5 -61 166.5q0 88 42 168.5t117 130t169 49.5q101 0 162.5 -59.5t61.5 -166.5q0 -89 -42 -169.5t-117.5 -129.5t-169.5 -49q-101 0 -162 59.5zM147 89q42 -41 112 -41q74 0 131.5 44t89 112.5t31.5 139.5q0 76 -42.5 117t-111.5 41q-74 0 -131.5 -43.5
t-89 -112t-31.5 -139.5q0 -77 42 -118z" />
    <glyph glyph-name="p" unicode="p" horiz-adv-x="656" 
d="M137 550h71l-17 -83l-14 -56h3q38 73 101 112.5t136 39.5q59 0 106 -26t74.5 -76t27.5 -121q0 -90 -41.5 -171.5t-113.5 -131.5t-157 -50q-78 0 -129 42t-63 110h-2q-3 -22 -12 -68l-59 -271h-71zM184.5 90q44.5 -42 114.5 -42q74 0 131.5 43t89 110.5t31.5 135.5
q0 81 -42.5 123t-112.5 42q-74 0 -132.5 -43.5t-91 -111t-32.5 -135.5q0 -80 44.5 -122z" />
    <glyph glyph-name="q" unicode="q" horiz-adv-x="655" 
d="M479 139h-2q-39 -73 -102 -112.5t-136 -39.5q-59 0 -106 26t-74.5 76t-27.5 121q0 90 41.5 171.5t113.5 131t157 49.5q78 0 129 -41.5t63 -109.5h2q7 45 13 68l15 71h71l-159 -750h-72l60 283q2 12 14 56zM147.5 90q42.5 -42 112.5 -42q75 0 133.5 43t90.5 110.5
t32 135.5q0 80 -44 122.5t-115 42.5q-74 0 -131.5 -43t-89 -110t-31.5 -136q0 -81 42.5 -123z" />
    <glyph glyph-name="r" unicode="r" horiz-adv-x="363" 
d="M137 550h69l-23 -106h2q30 56 67.5 81t101.5 25h54l-14 -62h-57q-69 0 -115.5 -45.5t-64.5 -128.5l-67 -314h-70z" />
    <glyph glyph-name="s" unicode="s" horiz-adv-x="522" 
d="M114 13.5q-50 25.5 -74 69.5t-19 99h73q-1 -5 -1 -15q0 -54 38.5 -86.5t103.5 -32.5q66 0 107.5 33.5t41.5 85.5q0 39 -25.5 61.5t-78.5 22.5h-45q-76 0 -118 36.5t-42 99.5q0 51 27.5 90.5t77 62t113.5 22.5q69 0 115 -26.5t66 -69.5t15 -94h-73l1 16q0 52 -31 83
t-95 31q-67 0 -105.5 -32.5t-38.5 -79.5q0 -35 23 -54t68 -19h51q79 0 123 -39.5t44 -106.5q0 -53 -27.5 -94.5t-78 -65t-117.5 -23.5q-69 0 -119 25.5z" />
    <glyph glyph-name="t" unicode="t" horiz-adv-x="410" 
d="M131 27q-28 27 -28 73q0 18 4 34l75 354h-117l13 62h117l32 150h72l-32 -150h177l-14 -62h-176l-78 -363q-3 -13 -3 -23q0 -21 13 -30.5t42 -9.5h117l-13 -62h-120q-53 0 -81 27z" />
    <glyph glyph-name="u" unicode="u" horiz-adv-x="597" 
d="M93.5 31q-39.5 43 -39.5 118q0 34 7 66l71 335h72l-71 -331q-8 -40 -8 -65q0 -55 27.5 -79.5t74.5 -24.5q46 0 90 22.5t78 68.5t48 113l63 296h72l-117 -550h-70l26 121h-2q-38 -66 -92 -99.5t-117 -33.5q-73 0 -112.5 43z" />
    <glyph glyph-name="v" unicode="v" horiz-adv-x="523" 
d="M71 550h75l69 -465h2l266 465h84l-327 -550h-75z" />
    <glyph glyph-name="w" unicode="w" horiz-adv-x="733" 
d="M71 550h72l21 -463h2l214 463h85l17 -463h2l214 463h79l-270 -550h-82l-19 453h-2l-213 -453h-81z" />
    <glyph glyph-name="x" unicode="x" horiz-adv-x="566" 
d="M245 287l-150 263h82l116 -214h2l203 214h98l-268 -274l153 -276h-81l-120 227h-2l-213 -227h-98z" />
    <glyph glyph-name="y" unicode="y" horiz-adv-x="521" 
d="M-74 -138h139l106 168l-98 520h73l74 -438h2l260 438h83l-439 -719q-11 -18 -23 -24.5t-33 -6.5h-157z" />
    <glyph glyph-name="z" unicode="z" horiz-adv-x="499" 
d="M-26 53l426 433v2h-312l13 62h415l-10 -53l-426 -433v-2h352l-13 -62h-455z" />
    <glyph glyph-name="braceleft" unicode="{" horiz-adv-x="377" 
d="M116.5 -111q-35.5 33 -35.5 88q0 21 4 38l41 193q3 14 3 26q0 29 -16.5 46t-47.5 17h-34l13 62h34q38 0 64.5 24.5t34.5 64.5l40 194q15 69 70 113.5t124 44.5h57l-13 -61h-50q-45 0 -78 -29.5t-43 -76.5l-42 -198q-10 -46 -39 -75.5t-64 -29.5v-4q28 0 44 -20.5
t16 -54.5q0 -14 -3 -31l-42 -198q-3 -15 -3 -28q0 -36 20.5 -56.5t58.5 -20.5h51l-13 -61h-56q-60 0 -95.5 33z" />
    <glyph glyph-name="bar" unicode="|" horiz-adv-x="211" 
d="M182 800h70l-200 -944h-70z" />
    <glyph glyph-name="braceright" unicode="}" horiz-adv-x="377" 
d="M260.5 767q35.5 -33 35.5 -88q0 -21 -4 -38l-41 -193q-3 -13 -3 -26q0 -29 16.5 -46t47.5 -17h34l-13 -62h-34q-38 0 -64.5 -24.5t-34.5 -64.5l-40 -194q-15 -69 -70 -113.5t-124 -44.5h-57l13 61h50q45 0 78 29.5t43 76.5l42 198q10 46 39 75.5t64 29.5v4
q-28 0 -44 20.5t-16 54.5q0 15 3 31l42 198q3 15 3 28q0 36 -20.5 56.5t-58.5 20.5h-51l13 61h56q60 0 95.5 -33z" />
    <glyph glyph-name="asciitilde" unicode="~" horiz-adv-x="602" 
d="M94 330.5q39 40.5 98 40.5q40 0 66 -16.5t59 -49.5q25 -26 43 -38.5t41 -12.5q32 0 56 24t32 64h64q-15 -68 -53.5 -108.5t-97.5 -40.5q-40 0 -66 16.5t-59 49.5q-25 26 -43 38.5t-41 12.5q-32 0 -56.5 -24.5t-32.5 -63.5h-63q14 68 53 108.5z" />
    <glyph glyph-name="uni00A0" unicode="&#xa0;" horiz-adv-x="237" 
 />
    <glyph glyph-name="exclamdown" unicode="&#xa1;" horiz-adv-x="249" 
d="M27 0l97 403h55l-74 -403l-32 -150h-78zM142 550h81l-16 -80h-82z" />
    <glyph glyph-name="cent" unicode="&#xa2;" horiz-adv-x="577" 
d="M233 83q-86 10 -134.5 66.5t-48.5 149.5q0 82 38 154t105.5 117t153.5 49l13 81h62l-23 -83q81 -9 126 -56.5t45 -119.5q0 -17 -1 -26h-70q1 6 1 18q0 53 -36 89t-104 36q-69 0 -123 -36.5t-84 -95.5t-30 -122q0 -75 41.5 -118.5t111.5 -43.5q66 0 117.5 38t74.5 94h72
q-27 -81 -94.5 -134.5t-160.5 -58.5l-12 -81h-62z" />
    <glyph glyph-name="sterling" unicode="&#xa3;" horiz-adv-x="564" 
d="M77 85.5q44 23.5 69.5 64t25.5 90.5q0 36 -15 76h-112l13 62h76q-19 57 -19 100q0 65 32 119t89.5 85.5t132.5 31.5q92 0 147.5 -47.5t55.5 -125.5q0 -23 -4 -43h-75q4 24 4 35q0 53 -33 86.5t-98 33.5q-53 0 -93 -23.5t-62.5 -65t-22.5 -93.5q0 -33 14 -93h225l-13 -62
h-195q10 -42 10 -74q0 -62 -34.5 -111.5t-97.5 -66.5v-2h384l-14 -62h-497l9 62q54 0 98 23.5z" />
    <glyph glyph-name="currency" unicode="&#xa4;" horiz-adv-x="570" 
d="M135 148l-80 -69l-38 45l83 68q-23 40 -23 91q0 47 18 90.5t51 77.5l-57 66l48 43l57 -70q60 37 127 37q75 0 128 -45l81 70l38 -45l-85 -69q23 -40 23 -91q0 -46 -17.5 -89t-49.5 -76l58 -68l-49 -43l-57 70q-59 -38 -129 -38q-76 0 -127 45zM173 200.5
q35 -33.5 94 -33.5q51 0 92 25.5t64 66.5t23 84q0 52 -35 86t-94 34q-51 0 -92 -25.5t-64 -66t-23 -84.5q0 -53 35 -86.5z" />
    <glyph glyph-name="yen" unicode="&#xa5;" horiz-adv-x="602" 
d="M237 164h-208l13 61h207l16 71h-208l13 60h186v2l-152 342h78l130 -319h2l266 319h94l-299 -342v-2h181l-14 -60h-204l-15 -71h204l-12 -61h-204l-36 -164h-73z" />
    <glyph glyph-name="brokenbar" unicode="&#xa6;" horiz-adv-x="210" 
d="M182 800h69l-76 -360h-69zM58 216h69l-76 -360h-69z" />
    <glyph glyph-name="section" unicode="&#xa7;" horiz-adv-x="568" 
d="M50 -160q-52 42 -52 114q0 10 2 28h73q-5 -57 29 -90t96 -33q48 0 88.5 19.5t64.5 52.5t24 71q0 42 -31.5 68t-95.5 26h-13q-81 0 -125 31.5t-44 89.5q0 54 39 93t108 55v2q-50 16 -76 50t-26 85q0 57 32 105t90.5 76.5t132.5 28.5q91 0 143 -42t52 -112q0 -20 -2 -30
h-73q1 6 1 18q0 48 -33 76.5t-92 28.5q-50 0 -90.5 -20t-64 -52.5t-23.5 -69.5q0 -42 31.5 -68.5t94.5 -26.5h13q82 0 126 -30.5t44 -90.5q0 -54 -37.5 -93.5t-108.5 -54.5v-2q101 -35 101 -134q0 -57 -32 -105.5t-90 -77t-133 -28.5q-91 0 -143 42zM166.5 177
q29.5 -22 88.5 -22h4q70 0 116.5 33t46.5 85q0 38 -30 60t-91 22h-4q-68 0 -114 -33t-46 -85q0 -38 29.5 -60z" />
    <glyph glyph-name="dieresis" unicode="&#xa8;" horiz-adv-x="276" 
d="M134 733h73l-16 -77h-74zM263 733h74l-17 -77h-73z" />
    <glyph glyph-name="copyright" unicode="&#xa9;" horiz-adv-x="811" 
d="M201.5 24.5q-70.5 38.5 -109.5 108t-39 159.5q0 113 59.5 210.5t158.5 154.5t212 57q91 0 161 -38.5t109 -107.5t39 -159q0 -113 -59 -210.5t-157.5 -155t-211.5 -57.5q-92 0 -162.5 38.5zM142.5 162q31.5 -58 89.5 -90.5t135 -32.5q94 0 179 49.5t136.5 134t51.5 182.5
q0 75 -31.5 133t-89 90.5t-133.5 32.5q-95 0 -180.5 -49t-137 -133t-51.5 -183q0 -76 31.5 -134zM261 425.5q28 55.5 79.5 90t120.5 34.5q73 0 113 -38t40 -94q0 -7 -2 -23h-59q2 14 2 21q0 35 -24.5 59t-71.5 24q-51 0 -89 -28t-58 -71.5t-20 -88.5q0 -53 27.5 -81.5
t73.5 -28.5q49 0 86 29.5t52 66.5h60q-22 -62 -75.5 -104.5t-127.5 -42.5q-72 0 -113.5 41.5t-41.5 116.5q0 62 28 117.5z" />
    <glyph glyph-name="ordfeminine" unicode="&#xaa;" horiz-adv-x="361" 
d="M101.5 394q-27.5 24 -27.5 67q0 45 32 77t93 32h57q35 0 53 13.5t18 35.5q0 42 -64 42q-74 0 -96 -67h-50q13 52 52 82t103 30q52 0 78 -20.5t26 -58.5q0 -10 -4 -32l-31 -152l-1 -8q0 -11 13 -11h18l-10 -45h-22q-26 0 -36.5 13t-8.5 39l3 18l-2 -1q-20 -37 -53 -57.5
t-71 -20.5q-42 0 -69.5 24zM140.5 428.5q15.5 -13.5 44.5 -13.5q43 0 78 28.5t46 81.5l9 38h-2q-20 -38 -89 -38h-22q-40 0 -60 -17t-20 -43q0 -23 15.5 -36.5z" />
    <glyph glyph-name="guillemotleft" unicode="&#xab;" horiz-adv-x="516" 
d="M361 113q0 59 -29.5 97.5t-81.5 43.5l11 51q60 6 109.5 52t71.5 116h66q-23 -72 -75 -125.5t-115 -71.5l-1 -1q56 -16 85.5 -68.5t23.5 -120.5h-66q1 9 1 27zM157 113q0 59 -29.5 97.5t-81.5 43.5l11 51q60 6 109.5 52t71.5 116h66q-23 -72 -75 -125.5t-115 -71.5l-1 -1
q56 -16 85.5 -68.5t23.5 -120.5h-66q1 9 1 27z" />
    <glyph glyph-name="logicalnot" unicode="&#xac;" horiz-adv-x="540" 
d="M509 347l-51 -238h-55l37 178h-378l13 60h434z" />
    <glyph glyph-name="uni00AD" unicode="&#xad;" horiz-adv-x="520" 
d="M108 311h320l-13 -60h-320z" />
    <glyph glyph-name="registered" unicode="&#xae;" horiz-adv-x="811" 
d="M201.5 24.5q-70.5 38.5 -109.5 108t-39 159.5q0 113 59.5 210.5t158.5 154.5t212 57q91 0 161 -38.5t109 -107.5t39 -159q0 -113 -59 -210.5t-157.5 -155t-211.5 -57.5q-92 0 -162.5 38.5zM142.5 162q31.5 -58 89.5 -90.5t135 -32.5q94 0 179 49.5t136.5 134t51.5 182.5
q0 75 -31.5 133t-89 90.5t-133.5 32.5q-95 0 -180.5 -49t-137 -133t-51.5 -183q0 -76 31.5 -134zM328 539h161q54 0 84.5 -24t30.5 -68q0 -45 -31 -76t-81 -41v-1q23 -10 33.5 -31.5t15.5 -62.5l9 -72h-61l-7 72q-3 31 -10 46t-21 20t-42 5h-72l-31 -143h-58zM441 356
q45 0 73 23t28 58q0 53 -64 53h-102l-29 -134h94z" />
    <glyph glyph-name="macron" unicode="&#xaf;" horiz-adv-x="323" 
d="M117 717h277l-13 -62h-277z" />
    <glyph glyph-name="degree" unicode="&#xb0;" horiz-adv-x="410" 
d="M152.5 469q-35.5 34 -35.5 88q0 42 21 77.5t57 56t78 20.5q54 0 89.5 -34t35.5 -88q0 -42 -21 -77.5t-57 -56t-78 -20.5q-54 0 -89.5 34zM192.5 509.5q19.5 -19.5 52.5 -19.5q39 0 68 27.5t29 67.5q0 32 -19.5 51.5t-52.5 19.5q-39 0 -68 -27t-29 -68q0 -32 19.5 -51.5z
" />
    <glyph glyph-name="plusminus" unicode="&#xb1;" horiz-adv-x="619" 
d="M71 359h224l33 155h64l-33 -155h225l-13 -62h-225l-33 -158h-65l34 158h-224zM13 87h513l-13 -62h-513z" />
    <glyph glyph-name="uni00B2" unicode="&#xb2;" horiz-adv-x="251" 
d="M89 515q20 23 64 39l29 10q32 12 50.5 28.5t18.5 41.5q0 18 -11.5 27t-30.5 9q-24 0 -40 -14.5t-21 -40.5h-44q7 44 35.5 67.5t71.5 23.5q39 0 61.5 -19t22.5 -52q0 -72 -103 -111l-24 -8q-31 -12 -43 -24t-15 -30h157l-10 -42h-203l8 35q7 37 27 60z" />
    <glyph glyph-name="uni00B3" unicode="&#xb3;" horiz-adv-x="263" 
d="M97 439q-26 25 -22 68h43q-3 -27 11 -42t42 -15q30 0 50.5 17t20.5 43q0 20 -14 31t-39 11h-41l8 36h34q32 0 50.5 14t18.5 35q0 33 -43 33q-25 0 -41.5 -12t-20.5 -33h-44q8 37 36.5 59t69.5 22q39 0 63 -18t24 -48q0 -26 -19 -44.5t-53 -23.5v-1q27 -6 40.5 -23
t13.5 -41q0 -40 -33 -66.5t-82 -26.5q-47 0 -73 25z" />
    <glyph glyph-name="acute" unicode="&#xb4;" horiz-adv-x="180" 
d="M188 755h81l-117 -142h-63z" />
    <glyph glyph-name="uni00B5" unicode="&#xb5;" horiz-adv-x="686" 
d="M136 550h70l-25 -363q-4 -65 29.5 -100.5t90.5 -35.5q70 0 120.5 50.5t58.5 141.5l21 307h70l-34 -451q-2 -19 5.5 -28t26.5 -9h42l-2 -62h-64q-37 0 -56 21t-17 56l7 51l-1 -1q-20 -67 -66.5 -103t-104.5 -36q-51 0 -85.5 26t-45.5 71h-1l-20 -275h-70z" />
    <glyph glyph-name="paragraph" unicode="&#xb6;" horiz-adv-x="641" 
d="M161.5 328q-55.5 48 -55.5 138q0 72 37 125t100.5 81t142.5 28h61l-191 -900h-57l106 480q-88 0 -143.5 48zM511 700h58l-191 -900h-58z" />
    <glyph glyph-name="periodcentered" unicode="&#xb7;" horiz-adv-x="227" 
d="M77 304h87l-19 -86h-86z" />
    <glyph glyph-name="cedilla" unicode="&#xb8;" horiz-adv-x="218" 
d="M-74 -183l11 51h72q22 0 33.5 8.5t11.5 23.5q0 13 -9 20t-23 7h-25l21 95h45l-13 -62q31 -2 48 -19t17 -44q0 -35 -27 -57.5t-78 -22.5h-84z" />
    <glyph glyph-name="uni00B9" unicode="&#xb9;" horiz-adv-x="168" 
d="M158 420h-43l45 211h-1q-10 -30 -46 -30h-23l8 41h22q43 0 51 39l4 19h43z" />
    <glyph glyph-name="ordmasculine" unicode="&#xba;" horiz-adv-x="361" 
d="M116 406q-32 32 -32 91q0 51 23.5 99.5t66.5 78.5t97 30t86 -32t32 -91q0 -52 -24 -100t-66.5 -78t-96.5 -30t-86 32zM156.5 440.5q19.5 -21.5 52.5 -21.5q37 0 66.5 23t46 59t16.5 74q0 43 -21 64t-56 21q-39 0 -67 -24t-42.5 -60.5t-14.5 -71.5q0 -42 19.5 -63.5z" />
    <glyph glyph-name="guillemotright" unicode="&#xbb;" horiz-adv-x="516" 
d="M157 446q0 -59 29.5 -97.5t81.5 -43.5l-11 -51q-60 -6 -109.5 -52t-71.5 -116h-66q23 72 75 125.5t115 71.5l1 1q-56 16 -85.5 68.5t-23.5 120.5h66q-1 -9 -1 -27zM289 211.5q52 53.5 115 71.5l1 1q-56 16 -85.5 68.5t-23.5 120.5h66q-1 -9 -1 -27q0 -59 29.5 -97.5
t81.5 -43.5l-11 -51q-60 -6 -109.5 -52t-71.5 -116h-66q23 72 75 125.5z" />
    <glyph glyph-name="onequarter" unicode="&#xbc;" horiz-adv-x="929" 
d="M181 210h-60l81 377h-1q-21 -52 -81 -52h-41l13 58h40q37 0 58.5 18.5t29.5 55.5l6 33h59zM682 700h64l-635 -700h-64zM513 152l294 338h80l-71 -333h63l-11 -52h-63l-22 -105h-60l22 105h-242zM756 157l58 272h-1l-228 -271v-1h171z" />
    <glyph glyph-name="onehalf" unicode="&#xbd;" horiz-adv-x="922" 
d="M181 210h-60l81 377h-1q-21 -52 -81 -52h-41l13 58h40q37 0 58.5 18.5t29.5 55.5l6 33h59zM682 700h64l-635 -700h-64zM520 112q16 32 52 61t101 53l35 13q130 48 130 133q0 36 -21 56t-60 20q-45 0 -77.5 -27.5t-43.5 -79.5h-62q15 74 65 116t121 42q66 0 103 -35.5
t37 -91.5q0 -64 -49 -111t-128 -77l-36 -14q-65 -25 -90.5 -51t-33.5 -62h281l-11 -57h-346l7 34q10 46 26 78z" />
    <glyph glyph-name="threequarters" unicode="&#xbe;" horiz-adv-x="1133" 
d="M102.5 237q-42.5 36 -42.5 96q0 14 3 29h60q-2 -16 -2 -23q0 -40 26.5 -64t76.5 -24q59 0 99.5 32.5t40.5 84.5q0 39 -25 59t-70 20h-75l11 51h65q56 0 89 26t33 67q0 34 -22.5 51t-61.5 17q-46 0 -79 -24t-41 -66h-60q14 65 61.5 102.5t119.5 37.5q68 0 106.5 -32
t38.5 -80q0 -46 -33 -78.5t-88 -42.5v-2q46 -10 68.5 -38.5t22.5 -70.5q0 -47 -26.5 -84.5t-73 -58.5t-103.5 -21q-76 0 -118.5 36zM886 700h64l-635 -700h-64zM717 152l294 338h80l-71 -333h63l-11 -52h-63l-22 -105h-60l22 105h-242zM960 157l58 272h-1l-228 -271v-1h171z
" />
    <glyph glyph-name="questiondown" unicode="&#xbf;" horiz-adv-x="588" 
d="M345 264.5q-23 -26.5 -78 -46.5l-25 -10q-81 -30 -125.5 -81t-44.5 -115q0 -58 36.5 -88t102.5 -30q83 0 140 45.5t77 122.5h72q-25 -108 -102.5 -168t-188.5 -60q-101 0 -154 49t-53 128q0 88 60.5 153t157.5 101l17 6q37 14 52.5 32t23.5 57l9 41h70l-13 -62
q-11 -48 -34 -74.5zM348 548h80l-17 -80h-80z" />
    <glyph glyph-name="Agrave" unicode="&#xc0;" horiz-adv-x="636" 
d="M369 700h78l115 -700h-72l-30 196h-307l-113 -196h-81zM450 260l-27 176l-12 80q-11 75 -16 104h-2q-40 -74 -108 -194l-95 -166h260zM332 905h74l39 -142h-52z" />
    <glyph glyph-name="Aacute" unicode="&#xc1;" horiz-adv-x="636" 
d="M369 700h78l115 -700h-72l-30 196h-307l-113 -196h-81zM450 260l-27 176l-12 80q-11 75 -16 104h-2q-40 -74 -108 -194l-95 -166h260zM486 905h81l-117 -142h-63z" />
    <glyph glyph-name="Acircumflex" unicode="&#xc2;" horiz-adv-x="636" 
d="M369 700h78l115 -700h-72l-30 196h-307l-113 -196h-81zM450 260l-27 176l-12 80q-11 75 -16 104h-2q-40 -74 -108 -194l-95 -166h260zM426 905h43l72 -142h-49l-52 78h-2l-84 -78h-61z" />
    <glyph glyph-name="Atilde" unicode="&#xc3;" horiz-adv-x="636" 
d="M369 700h78l115 -700h-72l-30 196h-307l-113 -196h-81zM450 260l-27 176l-12 80q-11 75 -16 104h-2q-40 -74 -108 -194l-95 -166h260zM451.5 779q-19.5 13 -39.5 37q-15 18 -27.5 27t-29.5 9q-22 0 -37.5 -16.5t-21.5 -46.5l-3 -15h-56l5 23q11 51 41 80t76 29
q33 0 52.5 -13t39.5 -37q15 -18 27.5 -27t29.5 -9q22 0 37.5 16.5t21.5 46.5l3 15h56l-5 -23q-11 -51 -41 -80t-76 -29q-33 0 -52.5 13z" />
    <glyph glyph-name="Adieresis" unicode="&#xc4;" horiz-adv-x="636" 
d="M369 700h78l115 -700h-72l-30 196h-307l-113 -196h-81zM450 260l-27 176l-12 80q-11 75 -16 104h-2q-40 -74 -108 -194l-95 -166h260zM343 883h73l-16 -77h-74zM472 883h74l-17 -77h-73z" />
    <glyph glyph-name="Aring" unicode="&#xc5;" horiz-adv-x="636" 
d="M353 673q-27 22 -27 59q0 36 26.5 61.5t63.5 25.5q33 0 53.5 -21t20.5 -53q0 -22 -10.5 -41t-28.5 -31l111 -673h-72l-30 196h-307l-113 -196h-81zM450 260l-27 176l-12 80q-11 75 -16 104h-2q-40 -74 -108 -194l-95 -166h260zM378.5 709.5q9.5 -9.5 25.5 -9.5
q18 0 30.5 12.5t12.5 30.5q0 15 -9 24t-25 9q-19 0 -31.5 -12t-12.5 -30q0 -15 9.5 -24.5z" />
    <glyph glyph-name="AE" unicode="&#xc6;" horiz-adv-x="903" 
d="M436 196h-266v1l-128 -197h-83l466 700h537l-14 -65h-343l-54 -252h305l-14 -65h-305l-54 -253h345l-14 -65h-419zM450 261l80 374h-74l-244 -374h238z" />
    <glyph glyph-name="Ccedilla" unicode="&#xc7;" horiz-adv-x="735" 
d="M211 -183l11 51h72q22 0 33.5 8.5t11.5 23.5q0 13 -9 20t-23 7h-25l14 62q-117 9 -181.5 82t-64.5 196q0 113 50.5 215.5t145 166t219.5 63.5q86 0 146 -30.5t90.5 -84t30.5 -122.5q0 -20 -3 -43h-74q2 12 2 35q0 82 -52 131.5t-145 49.5q-101 0 -177.5 -56.5
t-117 -144.5t-40.5 -179q0 -105 56.5 -160.5t149.5 -55.5q70 0 129 31t98.5 78t57.5 94h76q-24 -73 -73.5 -132.5t-121 -95.5t-156.5 -39l-6 -28q31 -2 48 -19t17 -44q0 -35 -27 -57.5t-78 -22.5h-84z" />
    <glyph glyph-name="Egrave" unicode="&#xc8;" 
d="M172 700h476l-14 -65h-401l-52 -249h362l-14 -64h-362l-55 -257h402l-14 -65h-477zM338 905h74l39 -142h-52z" />
    <glyph glyph-name="Eacute" unicode="&#xc9;" 
d="M172 700h476l-14 -65h-401l-52 -249h362l-14 -64h-362l-55 -257h402l-14 -65h-477zM493 905h81l-117 -142h-63z" />
    <glyph glyph-name="Ecircumflex" unicode="&#xca;" 
d="M172 700h476l-14 -65h-401l-52 -249h362l-14 -64h-362l-55 -257h402l-14 -65h-477zM433 905h43l72 -142h-49l-52 78h-2l-84 -78h-61z" />
    <glyph glyph-name="Edieresis" unicode="&#xcb;" 
d="M172 700h476l-14 -65h-401l-52 -249h362l-14 -64h-362l-55 -257h402l-14 -65h-477zM350 883h73l-16 -77h-74zM479 883h74l-17 -77h-73z" />
    <glyph glyph-name="Igrave" unicode="&#xcc;" horiz-adv-x="238" 
d="M172 700h75l-149 -700h-75zM138 905h74l39 -142h-52z" />
    <glyph glyph-name="Iacute" unicode="&#xcd;" horiz-adv-x="238" 
d="M172 700h75l-149 -700h-75zM292 905h81l-117 -142h-63z" />
    <glyph glyph-name="Icircumflex" unicode="&#xce;" horiz-adv-x="238" 
d="M172 700h75l-149 -700h-75zM232 905h43l72 -142h-49l-52 78h-2l-84 -78h-61z" />
    <glyph glyph-name="Idieresis" unicode="&#xcf;" horiz-adv-x="238" 
d="M172 700h75l-149 -700h-75zM149 883h73l-16 -77h-74zM278 883h74l-17 -77h-73z" />
    <glyph glyph-name="Eth" unicode="&#xd0;" horiz-adv-x="710" 
d="M163 316l-53 -251h165q106 0 184 52t119 135t41 174q0 104 -55 156.5t-153 52.5h-180l-54 -254h127l-14 -65h-127zM26 381h78l68 319h244q129 0 203 -69t74 -203q0 -111 -50 -209t-146 -158.5t-228 -60.5h-246l67 316h-78z" />
    <glyph glyph-name="Ntilde" unicode="&#xd1;" horiz-adv-x="747" 
d="M228 602h-4l-20 -100l-107 -502h-74l149 700h92l287 -601h4l21 100l106 501h75l-149 -700h-92zM511.5 779q-19.5 13 -39.5 37q-15 18 -27.5 27t-29.5 9q-22 0 -37.5 -16.5t-21.5 -46.5l-3 -15h-56l5 23q11 51 41 80t76 29q33 0 52.5 -13t39.5 -37q15 -18 27.5 -27
t29.5 -9q22 0 37.5 16.5t21.5 46.5l3 15h56l-5 -23q-11 -51 -41 -80t-76 -29q-33 0 -52.5 13z" />
    <glyph glyph-name="Ograve" unicode="&#xd2;" horiz-adv-x="763" 
d="M184 20.5q-63 32.5 -98.5 96.5t-35.5 155q0 115 55.5 216.5t152 162.5t211.5 61q82 0 145 -32.5t98 -96.5t35 -155q0 -114 -55.5 -215.5t-151.5 -163t-212 -61.5q-81 0 -144 32.5zM182 106.5q56 -54.5 149 -54.5q96 0 174 55t122 143.5t44 182.5q0 107 -56.5 161
t-148.5 54q-96 0 -174 -55.5t-122 -144t-44 -182.5q0 -105 56 -159.5zM400 905h74l39 -142h-52z" />
    <glyph glyph-name="Oacute" unicode="&#xd3;" horiz-adv-x="763" 
d="M184 20.5q-63 32.5 -98.5 96.5t-35.5 155q0 115 55.5 216.5t152 162.5t211.5 61q82 0 145 -32.5t98 -96.5t35 -155q0 -114 -55.5 -215.5t-151.5 -163t-212 -61.5q-81 0 -144 32.5zM182 106.5q56 -54.5 149 -54.5q96 0 174 55t122 143.5t44 182.5q0 107 -56.5 161
t-148.5 54q-96 0 -174 -55.5t-122 -144t-44 -182.5q0 -105 56 -159.5zM554 905h81l-117 -142h-63z" />
    <glyph glyph-name="Ocircumflex" unicode="&#xd4;" horiz-adv-x="763" 
d="M184 20.5q-63 32.5 -98.5 96.5t-35.5 155q0 115 55.5 216.5t152 162.5t211.5 61q82 0 145 -32.5t98 -96.5t35 -155q0 -114 -55.5 -215.5t-151.5 -163t-212 -61.5q-81 0 -144 32.5zM182 106.5q56 -54.5 149 -54.5q96 0 174 55t122 143.5t44 182.5q0 107 -56.5 161
t-148.5 54q-96 0 -174 -55.5t-122 -144t-44 -182.5q0 -105 56 -159.5zM494 905h43l72 -142h-49l-52 78h-2l-84 -78h-61z" />
    <glyph glyph-name="Otilde" unicode="&#xd5;" horiz-adv-x="763" 
d="M184 20.5q-63 32.5 -98.5 96.5t-35.5 155q0 115 55.5 216.5t152 162.5t211.5 61q82 0 145 -32.5t98 -96.5t35 -155q0 -114 -55.5 -215.5t-151.5 -163t-212 -61.5q-81 0 -144 32.5zM182 106.5q56 -54.5 149 -54.5q96 0 174 55t122 143.5t44 182.5q0 107 -56.5 161
t-148.5 54q-96 0 -174 -55.5t-122 -144t-44 -182.5q0 -105 56 -159.5zM519.5 779q-19.5 13 -39.5 37q-15 18 -27.5 27t-29.5 9q-22 0 -37.5 -16.5t-21.5 -46.5l-3 -15h-56l5 23q11 51 41 80t76 29q33 0 52.5 -13t39.5 -37q15 -18 27.5 -27t29.5 -9q22 0 37.5 16.5t21.5 46.5
l3 15h56l-5 -23q-11 -51 -41 -80t-76 -29q-33 0 -52.5 13z" />
    <glyph glyph-name="Odieresis" unicode="&#xd6;" horiz-adv-x="763" 
d="M184 20.5q-63 32.5 -98.5 96.5t-35.5 155q0 115 55.5 216.5t152 162.5t211.5 61q82 0 145 -32.5t98 -96.5t35 -155q0 -114 -55.5 -215.5t-151.5 -163t-212 -61.5q-81 0 -144 32.5zM182 106.5q56 -54.5 149 -54.5q96 0 174 55t122 143.5t44 182.5q0 107 -56.5 161
t-148.5 54q-96 0 -174 -55.5t-122 -144t-44 -182.5q0 -105 56 -159.5zM411 883h73l-16 -77h-74zM540 883h74l-17 -77h-73z" />
    <glyph glyph-name="multiply" unicode="&#xd7;" horiz-adv-x="570" 
d="M48 124l196 162l-125 159l46 38l125 -159l195 160l39 -46l-196 -162l125 -159l-46 -38l-125 159l-195 -160z" />
    <glyph glyph-name="Oslash" unicode="&#xd8;" horiz-adv-x="763" 
d="M701 601q46 -71 46 -173q0 -114 -55.5 -215.5t-151.5 -163t-212 -61.5q-59 0 -110 18t-88 52l-61 -58h-76v2l103 98q-46 70 -46 172q0 115 55.5 216.5t152 162.5t211.5 61q122 0 197 -70l61 58h75l1 -2zM150 151l465 442q-55 55 -149 55q-96 0 -174 -55.5t-122 -144
t-44 -182.5q0 -65 24 -115zM331 52q96 0 174 55t122 143.5t44 182.5q0 66 -24 116l-466 -442q55 -55 150 -55z" />
    <glyph glyph-name="Ugrave" unicode="&#xd9;" horiz-adv-x="702" 
d="M138.5 48q-63.5 60 -63.5 165q0 37 9 79l87 408h74l-89 -422q-7 -32 -7 -65q0 -76 43 -118.5t115 -42.5q88 0 153.5 62.5t89.5 175.5l87 410h75l-90 -423q-31 -142 -115 -215.5t-199 -73.5q-106 0 -169.5 60zM368 905h74l39 -142h-52z" />
    <glyph glyph-name="Uacute" unicode="&#xda;" horiz-adv-x="702" 
d="M138.5 48q-63.5 60 -63.5 165q0 37 9 79l87 408h74l-89 -422q-7 -32 -7 -65q0 -76 43 -118.5t115 -42.5q88 0 153.5 62.5t89.5 175.5l87 410h75l-90 -423q-31 -142 -115 -215.5t-199 -73.5q-106 0 -169.5 60zM522 905h81l-117 -142h-63z" />
    <glyph glyph-name="Ucircumflex" unicode="&#xdb;" horiz-adv-x="702" 
d="M138.5 48q-63.5 60 -63.5 165q0 37 9 79l87 408h74l-89 -422q-7 -32 -7 -65q0 -76 43 -118.5t115 -42.5q88 0 153.5 62.5t89.5 175.5l87 410h75l-90 -423q-31 -142 -115 -215.5t-199 -73.5q-106 0 -169.5 60zM462 905h43l72 -142h-49l-52 78h-2l-84 -78h-61z" />
    <glyph glyph-name="Udieresis" unicode="&#xdc;" horiz-adv-x="702" 
d="M138.5 48q-63.5 60 -63.5 165q0 37 9 79l87 408h74l-89 -422q-7 -32 -7 -65q0 -76 43 -118.5t115 -42.5q88 0 153.5 62.5t89.5 175.5l87 410h75l-90 -423q-31 -142 -115 -215.5t-199 -73.5q-106 0 -169.5 60zM379 883h73l-16 -77h-74zM508 883h74l-17 -77h-73z" />
    <glyph glyph-name="Yacute" unicode="&#xdd;" 
d="M261 285l-156 415h79l121 -351h2l268 351h95l-334 -415l-62 -285h-75zM467 905h81l-117 -142h-63z" />
    <glyph glyph-name="Thorn" unicode="&#xde;" horiz-adv-x="597" 
d="M172 700h72l-32 -150h172q90 0 141 -43.5t51 -123.5q0 -65 -33.5 -116t-94.5 -79t-141 -28h-178l-34 -160h-72zM316 225q55 0 97 20.5t65 56.5t23 79q0 52 -33.5 78t-98.5 26h-171l-55 -260h173z" />
    <glyph glyph-name="germandbls" unicode="&#xdf;" horiz-adv-x="560" 
d="M474.5 328.5q33.5 -40.5 33.5 -102.5q0 -63 -33 -114.5t-93.5 -81.5t-139.5 -30h-65l14 64h53q58 0 101 21t66 57.5t23 82.5q0 54 -34 83.5t-98 29.5h-43l14 64h49q43 0 77 20.5t53.5 53.5t19.5 70q0 45 -29.5 73.5t-81.5 28.5q-61 0 -103.5 -39.5t-56.5 -104.5
l-107 -504h-71l107 504q20 96 80 152t154 56q85 0 133.5 -43.5t48.5 -111.5q0 -44 -20.5 -82t-58 -62.5t-86.5 -28.5v-2q60 -13 93.5 -53.5z" />
    <glyph glyph-name="agrave" unicode="&#xe0;" horiz-adv-x="582" 
d="M307.5 23q-56.5 -35 -121.5 -35q-74 0 -121 42.5t-47 116.5q0 82 57.5 131t160.5 49h106q57 0 85.5 25.5t28.5 65.5t-28.5 62t-84.5 22q-69 0 -115.5 -33.5t-62.5 -96.5h-77q24 91 92 140.5t164 49.5q85 0 134.5 -38.5t49.5 -108.5q0 -18 -5 -45l-59 -276q-2 -10 -2 -13
q0 -10 6.5 -14.5t20.5 -4.5h29l-13 -62h-46q-34 0 -51 15.5t-17 44.5q0 15 2 23l10 48h-2q-37 -73 -93.5 -108zM121 76.5q31 -28.5 84 -28.5q48 0 93 23.5t79.5 71t49.5 116.5l15 68h-2q-17 -29 -47.5 -44.5t-82.5 -15.5h-69q-79 0 -115 -33t-36 -82q0 -47 31 -75.5z
M276 755h74l39 -142h-52z" />
    <glyph glyph-name="aacute" unicode="&#xe1;" horiz-adv-x="582" 
d="M307.5 23q-56.5 -35 -121.5 -35q-74 0 -121 42.5t-47 116.5q0 82 57.5 131t160.5 49h106q57 0 85.5 25.5t28.5 65.5t-28.5 62t-84.5 22q-69 0 -115.5 -33.5t-62.5 -96.5h-77q24 91 92 140.5t164 49.5q85 0 134.5 -38.5t49.5 -108.5q0 -18 -5 -45l-59 -276q-2 -10 -2 -13
q0 -10 6.5 -14.5t20.5 -4.5h29l-13 -62h-46q-34 0 -51 15.5t-17 44.5q0 15 2 23l10 48h-2q-37 -73 -93.5 -108zM121 76.5q31 -28.5 84 -28.5q48 0 93 23.5t79.5 71t49.5 116.5l15 68h-2q-17 -29 -47.5 -44.5t-82.5 -15.5h-69q-79 0 -115 -33t-36 -82q0 -47 31 -75.5z
M430 755h81l-117 -142h-63z" />
    <glyph glyph-name="acircumflex" unicode="&#xe2;" horiz-adv-x="582" 
d="M307.5 23q-56.5 -35 -121.5 -35q-74 0 -121 42.5t-47 116.5q0 82 57.5 131t160.5 49h106q57 0 85.5 25.5t28.5 65.5t-28.5 62t-84.5 22q-69 0 -115.5 -33.5t-62.5 -96.5h-77q24 91 92 140.5t164 49.5q85 0 134.5 -38.5t49.5 -108.5q0 -18 -5 -45l-59 -276q-2 -10 -2 -13
q0 -10 6.5 -14.5t20.5 -4.5h29l-13 -62h-46q-34 0 -51 15.5t-17 44.5q0 15 2 23l10 48h-2q-37 -73 -93.5 -108zM121 76.5q31 -28.5 84 -28.5q48 0 93 23.5t79.5 71t49.5 116.5l15 68h-2q-17 -29 -47.5 -44.5t-82.5 -15.5h-69q-79 0 -115 -33t-36 -82q0 -47 31 -75.5z
M370 755h43l72 -142h-49l-52 78h-2l-84 -78h-61z" />
    <glyph glyph-name="atilde" unicode="&#xe3;" horiz-adv-x="582" 
d="M307.5 23q-56.5 -35 -121.5 -35q-74 0 -121 42.5t-47 116.5q0 82 57.5 131t160.5 49h106q57 0 85.5 25.5t28.5 65.5t-28.5 62t-84.5 22q-69 0 -115.5 -33.5t-62.5 -96.5h-77q24 91 92 140.5t164 49.5q85 0 134.5 -38.5t49.5 -108.5q0 -18 -5 -45l-59 -276q-2 -10 -2 -13
q0 -10 6.5 -14.5t20.5 -4.5h29l-13 -62h-46q-34 0 -51 15.5t-17 44.5q0 15 2 23l10 48h-2q-37 -73 -93.5 -108zM121 76.5q31 -28.5 84 -28.5q48 0 93 23.5t79.5 71t49.5 116.5l15 68h-2q-17 -29 -47.5 -44.5t-82.5 -15.5h-69q-79 0 -115 -33t-36 -82q0 -47 31 -75.5z
M395.5 629q-19.5 13 -39.5 37q-15 18 -27.5 27t-29.5 9q-22 0 -37.5 -16.5t-21.5 -46.5l-3 -15h-56l5 23q11 51 41 80t76 29q33 0 52.5 -13t39.5 -37q15 -18 27.5 -27t29.5 -9q22 0 37.5 16.5t21.5 46.5l3 15h56l-5 -23q-11 -51 -41 -80t-76 -29q-33 0 -52.5 13z" />
    <glyph glyph-name="adieresis" unicode="&#xe4;" horiz-adv-x="582" 
d="M307.5 23q-56.5 -35 -121.5 -35q-74 0 -121 42.5t-47 116.5q0 82 57.5 131t160.5 49h106q57 0 85.5 25.5t28.5 65.5t-28.5 62t-84.5 22q-69 0 -115.5 -33.5t-62.5 -96.5h-77q24 91 92 140.5t164 49.5q85 0 134.5 -38.5t49.5 -108.5q0 -18 -5 -45l-59 -276q-2 -10 -2 -13
q0 -10 6.5 -14.5t20.5 -4.5h29l-13 -62h-46q-34 0 -51 15.5t-17 44.5q0 15 2 23l10 48h-2q-37 -73 -93.5 -108zM121 76.5q31 -28.5 84 -28.5q48 0 93 23.5t79.5 71t49.5 116.5l15 68h-2q-17 -29 -47.5 -44.5t-82.5 -15.5h-69q-79 0 -115 -33t-36 -82q0 -47 31 -75.5z
M287 733h73l-16 -77h-74zM416 733h74l-17 -77h-73z" />
    <glyph glyph-name="aring" unicode="&#xe5;" horiz-adv-x="582" 
d="M307.5 23q-56.5 -35 -121.5 -35q-74 0 -121 42.5t-47 116.5q0 82 57.5 131t160.5 49h106q57 0 85.5 25.5t28.5 65.5t-28.5 62t-84.5 22q-69 0 -115.5 -33.5t-62.5 -96.5h-77q24 91 92 140.5t164 49.5q85 0 134.5 -38.5t49.5 -108.5q0 -18 -5 -45l-59 -276q-2 -10 -2 -13
q0 -10 6.5 -14.5t20.5 -4.5h29l-13 -62h-46q-34 0 -51 15.5t-17 44.5q0 15 2 23l10 48h-2q-37 -73 -93.5 -108zM121 76.5q31 -28.5 84 -28.5q48 0 93 23.5t79.5 71t49.5 116.5l15 68h-2q-17 -29 -47.5 -44.5t-82.5 -15.5h-69q-79 0 -115 -33t-36 -82q0 -47 31 -75.5z
M317 627.5q-21 21.5 -21 53.5q0 36 26.5 61.5t63.5 25.5q33 0 53.5 -21t20.5 -53q0 -36 -26.5 -62t-62.5 -26q-33 0 -54 21.5zM348.5 658.5q9.5 -9.5 25.5 -9.5q18 0 30.5 12.5t12.5 30.5q0 15 -9 24t-25 9q-19 0 -31.5 -12t-12.5 -30q0 -15 9.5 -24.5z" />
    <glyph glyph-name="ae" unicode="&#xe6;" horiz-adv-x="966" 
d="M64.5 30q-46.5 42 -46.5 117q0 83 57 131.5t160 48.5h110q59 0 87 25.5t28 65.5t-30 62t-87 22q-69 0 -115.5 -33.5t-62.5 -96.5h-77q24 92 90 141t161 49q79 0 124 -33t45 -96h2q45 63 103.5 96t127.5 33q62 0 107 -26t68.5 -72.5t23.5 -104.5q0 -33 -7 -64l-8 -41h-425
q-5 -30 -5 -53q0 -69 34.5 -111t104.5 -42q63 0 113 35t76 86h78q-34 -83 -105.5 -132t-160.5 -49q-85 0 -136.5 47t-60.5 127h-3q-39 -84 -106 -129t-143 -45q-75 0 -121.5 42zM119.5 76q29.5 -28 83.5 -28q48 0 94.5 24t82.5 73t52 120l13 62l-2 -1q-17 -29 -47.5 -44
t-82.5 -15h-73q-79 0 -114.5 -33t-35.5 -83q0 -47 29.5 -75zM863 314q4 21 4 48q0 62 -31.5 101t-98.5 39q-82 0 -141.5 -55t-82.5 -133h350z" />
    <glyph glyph-name="ccedilla" unicode="&#xe7;" horiz-adv-x="598" 
d="M136 -183l11 51h72q22 0 33.5 8.5t11.5 23.5q0 13 -9 20t-23 7h-25l14 63q-90 10 -139.5 68.5t-49.5 154.5q0 88 40 168.5t115 130.5t174 50q100 0 157 -51t57 -143q0 -19 -1 -28h-74q2 20 2 29q0 58 -36.5 95.5t-106.5 37.5q-76 0 -133.5 -44t-89 -111.5t-31.5 -136.5
q0 -78 41 -120t110 -42q52 0 96 23.5t73.5 58t42.5 69.5h77q-30 -90 -103.5 -148.5t-175.5 -62.5l-6 -28q31 -2 48 -19t17 -44q0 -35 -27 -57.5t-78 -22.5h-84z" />
    <glyph glyph-name="egrave" unicode="&#xe8;" horiz-adv-x="596" 
d="M90.5 48q-58.5 60 -58.5 165q0 90 41.5 170.5t115.5 129.5t166 49q101 0 159 -56.5t58 -147.5q0 -32 -7 -63l-9 -41h-447q-4 -23 -4 -48q0 -71 37 -114.5t111 -43.5q67 0 120 35t81 86h79q-35 -83 -110.5 -132t-169.5 -49q-104 0 -162.5 60zM494 314q5 27 5 48
q0 61 -35.5 100.5t-109.5 39.5q-56 0 -103.5 -26t-80 -69t-47.5 -93h371zM282 755h74l39 -142h-52z" />
    <glyph glyph-name="eacute" unicode="&#xe9;" horiz-adv-x="596" 
d="M90.5 48q-58.5 60 -58.5 165q0 90 41.5 170.5t115.5 129.5t166 49q101 0 159 -56.5t58 -147.5q0 -32 -7 -63l-9 -41h-447q-4 -23 -4 -48q0 -71 37 -114.5t111 -43.5q67 0 120 35t81 86h79q-35 -83 -110.5 -132t-169.5 -49q-104 0 -162.5 60zM494 314q5 27 5 48
q0 61 -35.5 100.5t-109.5 39.5q-56 0 -103.5 -26t-80 -69t-47.5 -93h371zM436 755h81l-117 -142h-63z" />
    <glyph glyph-name="ecircumflex" unicode="&#xea;" horiz-adv-x="596" 
d="M90.5 48q-58.5 60 -58.5 165q0 90 41.5 170.5t115.5 129.5t166 49q101 0 159 -56.5t58 -147.5q0 -32 -7 -63l-9 -41h-447q-4 -23 -4 -48q0 -71 37 -114.5t111 -43.5q67 0 120 35t81 86h79q-35 -83 -110.5 -132t-169.5 -49q-104 0 -162.5 60zM494 314q5 27 5 48
q0 61 -35.5 100.5t-109.5 39.5q-56 0 -103.5 -26t-80 -69t-47.5 -93h371zM376 755h43l72 -142h-49l-52 78h-2l-84 -78h-61z" />
    <glyph glyph-name="edieresis" unicode="&#xeb;" horiz-adv-x="596" 
d="M90.5 48q-58.5 60 -58.5 165q0 90 41.5 170.5t115.5 129.5t166 49q101 0 159 -56.5t58 -147.5q0 -32 -7 -63l-9 -41h-447q-4 -23 -4 -48q0 -71 37 -114.5t111 -43.5q67 0 120 35t81 86h79q-35 -83 -110.5 -132t-169.5 -49q-104 0 -162.5 60zM494 314q5 27 5 48
q0 61 -35.5 100.5t-109.5 39.5q-56 0 -103.5 -26t-80 -69t-47.5 -93h371zM293 733h73l-16 -77h-74zM422 733h74l-17 -77h-73z" />
    <glyph glyph-name="igrave" unicode="&#xec;" horiz-adv-x="228" 
d="M137 550h72l-117 -550h-72zM99 755h74l39 -142h-52z" />
    <glyph glyph-name="iacute" unicode="&#xed;" horiz-adv-x="228" 
d="M137 550h72l-117 -550h-72zM253 755h81l-117 -142h-63z" />
    <glyph glyph-name="icircumflex" unicode="&#xee;" horiz-adv-x="228" 
d="M137 550h72l-117 -550h-72zM193 755h43l72 -142h-49l-52 78h-2l-84 -78h-61z" />
    <glyph glyph-name="idieresis" unicode="&#xef;" horiz-adv-x="228" 
d="M137 550h72l-117 -550h-72zM110 733h73l-16 -77h-74zM239 733h74l-17 -77h-73z" />
    <glyph glyph-name="eth" unicode="&#xf0;" horiz-adv-x="607" 
d="M93 48q-61 60 -61 167q0 87 40.5 167t112 129.5t159.5 49.5q76 0 125.5 -40.5t59.5 -113.5h2q1 13 1 39q0 124 -63 221l-164 -58l11 59l120 43q-40 46 -100 88v1h103q35 -28 63 -66l149 53l-11 -59l-109 -39q61 -106 61 -246q0 -108 -36.5 -212.5t-112.5 -173.5t-189 -69
q-100 0 -161 60zM143 89q40 -40 107 -40q72 0 130.5 44.5t91.5 114.5t33 142q0 70 -36 110.5t-109 40.5q-75 0 -133.5 -43.5t-91 -111.5t-32.5 -139q0 -78 40 -118z" />
    <glyph glyph-name="ntilde" unicode="&#xf1;" horiz-adv-x="602" 
d="M137 550h70l-26 -122h2q38 66 92.5 100t117.5 34q73 0 113 -43.5t40 -117.5q0 -34 -7 -66l-71 -335h-72l71 331q7 34 7 63q0 106 -102 106q-47 0 -91 -22.5t-78 -68.5t-48 -113l-63 -296h-72zM406.5 629q-19.5 13 -39.5 37q-15 18 -27.5 27t-29.5 9q-22 0 -37.5 -16.5
t-21.5 -46.5l-3 -15h-56l5 23q11 51 41 80t76 29q33 0 52.5 -13t39.5 -37q15 -18 27.5 -27t29.5 -9q22 0 37.5 16.5t21.5 46.5l3 15h56l-5 -23q-11 -51 -41 -80t-76 -29q-33 0 -52.5 13z" />
    <glyph glyph-name="ograve" unicode="&#xf2;" horiz-adv-x="616" 
d="M93 47.5q-61 59.5 -61 166.5q0 88 42 168.5t117 130t169 49.5q101 0 162.5 -59.5t61.5 -166.5q0 -89 -42 -169.5t-117.5 -129.5t-169.5 -49q-101 0 -162 59.5zM147 89q42 -41 112 -41q74 0 131.5 44t89 112.5t31.5 139.5q0 76 -42.5 117t-111.5 41q-74 0 -131.5 -43.5
t-89 -112t-31.5 -139.5q0 -77 42 -118zM293 755h74l39 -142h-52z" />
    <glyph glyph-name="oacute" unicode="&#xf3;" horiz-adv-x="616" 
d="M93 47.5q-61 59.5 -61 166.5q0 88 42 168.5t117 130t169 49.5q101 0 162.5 -59.5t61.5 -166.5q0 -89 -42 -169.5t-117.5 -129.5t-169.5 -49q-101 0 -162 59.5zM147 89q42 -41 112 -41q74 0 131.5 44t89 112.5t31.5 139.5q0 76 -42.5 117t-111.5 41q-74 0 -131.5 -43.5
t-89 -112t-31.5 -139.5q0 -77 42 -118zM447 755h81l-117 -142h-63z" />
    <glyph glyph-name="ocircumflex" unicode="&#xf4;" horiz-adv-x="616" 
d="M93 47.5q-61 59.5 -61 166.5q0 88 42 168.5t117 130t169 49.5q101 0 162.5 -59.5t61.5 -166.5q0 -89 -42 -169.5t-117.5 -129.5t-169.5 -49q-101 0 -162 59.5zM147 89q42 -41 112 -41q74 0 131.5 44t89 112.5t31.5 139.5q0 76 -42.5 117t-111.5 41q-74 0 -131.5 -43.5
t-89 -112t-31.5 -139.5q0 -77 42 -118zM387 755h43l72 -142h-49l-52 78h-2l-84 -78h-61z" />
    <glyph glyph-name="otilde" unicode="&#xf5;" horiz-adv-x="616" 
d="M93 47.5q-61 59.5 -61 166.5q0 88 42 168.5t117 130t169 49.5q101 0 162.5 -59.5t61.5 -166.5q0 -89 -42 -169.5t-117.5 -129.5t-169.5 -49q-101 0 -162 59.5zM147 89q42 -41 112 -41q74 0 131.5 44t89 112.5t31.5 139.5q0 76 -42.5 117t-111.5 41q-74 0 -131.5 -43.5
t-89 -112t-31.5 -139.5q0 -77 42 -118zM413.5 629q-19.5 13 -39.5 37q-15 18 -27.5 27t-29.5 9q-22 0 -37.5 -16.5t-21.5 -46.5l-3 -15h-56l5 23q11 51 41 80t76 29q33 0 52.5 -13t39.5 -37q15 -18 27.5 -27t29.5 -9q22 0 37.5 16.5t21.5 46.5l3 15h56l-5 -23
q-11 -51 -41 -80t-76 -29q-33 0 -52.5 13z" />
    <glyph glyph-name="odieresis" unicode="&#xf6;" horiz-adv-x="616" 
d="M93 47.5q-61 59.5 -61 166.5q0 88 42 168.5t117 130t169 49.5q101 0 162.5 -59.5t61.5 -166.5q0 -89 -42 -169.5t-117.5 -129.5t-169.5 -49q-101 0 -162 59.5zM147 89q42 -41 112 -41q74 0 131.5 44t89 112.5t31.5 139.5q0 76 -42.5 117t-111.5 41q-74 0 -131.5 -43.5
t-89 -112t-31.5 -139.5q0 -77 42 -118zM304 733h73l-16 -77h-74zM433 733h74l-17 -77h-73z" />
    <glyph glyph-name="divide" unicode="&#xf7;" horiz-adv-x="564" 
d="M65 311h450l-13 -60h-450zM213 137h80l-17 -80h-80zM291 505h80l-17 -80h-80z" />
    <glyph glyph-name="oslash" unicode="&#xf8;" horiz-adv-x="616" 
d="M29 2l52 59q-49 58 -49 153q0 88 42 168.5t117 130t169 49.5q77 0 132 -35l21 23h71v-2l-50 -57q50 -59 50 -155q0 -89 -42 -169.5t-117.5 -129.5t-169.5 -49q-79 0 -133 36l-22 -24h-71v2zM128 114l321 363q-37 25 -92 25q-74 0 -131.5 -43.5t-89 -112t-31.5 -139.5
q0 -56 23 -93zM259 48q74 0 131.5 44t89 112.5t31.5 139.5q0 56 -24 94l-322 -364q40 -26 94 -26z" />
    <glyph glyph-name="ugrave" unicode="&#xf9;" horiz-adv-x="597" 
d="M93.5 31q-39.5 43 -39.5 118q0 34 7 66l71 335h72l-71 -331q-8 -40 -8 -65q0 -55 27.5 -79.5t74.5 -24.5q46 0 90 22.5t78 68.5t48 113l63 296h72l-117 -550h-70l26 121h-2q-38 -66 -92 -99.5t-117 -33.5q-73 0 -112.5 43zM283 755h74l39 -142h-52z" />
    <glyph glyph-name="uacute" unicode="&#xfa;" horiz-adv-x="597" 
d="M93.5 31q-39.5 43 -39.5 118q0 34 7 66l71 335h72l-71 -331q-8 -40 -8 -65q0 -55 27.5 -79.5t74.5 -24.5q46 0 90 22.5t78 68.5t48 113l63 296h72l-117 -550h-70l26 121h-2q-38 -66 -92 -99.5t-117 -33.5q-73 0 -112.5 43zM437 755h81l-117 -142h-63z" />
    <glyph glyph-name="ucircumflex" unicode="&#xfb;" horiz-adv-x="597" 
d="M93.5 31q-39.5 43 -39.5 118q0 34 7 66l71 335h72l-71 -331q-8 -40 -8 -65q0 -55 27.5 -79.5t74.5 -24.5q46 0 90 22.5t78 68.5t48 113l63 296h72l-117 -550h-70l26 121h-2q-38 -66 -92 -99.5t-117 -33.5q-73 0 -112.5 43zM377 755h43l72 -142h-49l-52 78h-2l-84 -78h-61
z" />
    <glyph glyph-name="udieresis" unicode="&#xfc;" horiz-adv-x="597" 
d="M93.5 31q-39.5 43 -39.5 118q0 34 7 66l71 335h72l-71 -331q-8 -40 -8 -65q0 -55 27.5 -79.5t74.5 -24.5q46 0 90 22.5t78 68.5t48 113l63 296h72l-117 -550h-70l26 121h-2q-38 -66 -92 -99.5t-117 -33.5q-73 0 -112.5 43zM294 733h73l-16 -77h-74zM423 733h74l-17 -77
h-73z" />
    <glyph glyph-name="yacute" unicode="&#xfd;" horiz-adv-x="521" 
d="M-74 -138h139l106 168l-98 520h73l74 -438h2l260 438h83l-439 -719q-11 -18 -23 -24.5t-33 -6.5h-157zM398 755h81l-117 -142h-63z" />
    <glyph glyph-name="thorn" unicode="&#xfe;" horiz-adv-x="656" 
d="M186 781h72l-67 -314q-6 -29 -14 -56h3q38 73 101.5 112.5t136.5 39.5q59 0 105.5 -26t74 -76.5t27.5 -121.5q0 -90 -41.5 -171t-113.5 -131t-157 -50q-78 0 -129 42t-63 110h-2q-3 -25 -11 -68l-59 -271h-71zM184.5 90q44.5 -42 114.5 -42q74 0 132 43t89.5 110.5
t31.5 135.5q0 81 -42.5 123t-112.5 42q-74 0 -133 -43.5t-91.5 -110.5t-32.5 -136q0 -80 44.5 -122z" />
    <glyph glyph-name="ydieresis" unicode="&#xff;" horiz-adv-x="521" 
d="M-74 -138h139l106 168l-98 520h73l74 -438h2l260 438h83l-439 -719q-11 -18 -23 -24.5t-33 -6.5h-157zM255 733h73l-16 -77h-74zM384 733h74l-17 -77h-73z" />
    <glyph glyph-name="Amacron" unicode="&#x100;" horiz-adv-x="636" 
d="M369 700h78l115 -700h-72l-30 196h-307l-113 -196h-81zM450 260l-27 176l-12 80q-11 75 -16 104h-2q-40 -74 -108 -194l-95 -166h260zM302 867h277l-13 -62h-277z" />
    <glyph glyph-name="amacron" unicode="&#x101;" horiz-adv-x="582" 
d="M307.5 23q-56.5 -35 -121.5 -35q-74 0 -121 42.5t-47 116.5q0 82 57.5 131t160.5 49h106q57 0 85.5 25.5t28.5 65.5t-28.5 62t-84.5 22q-69 0 -115.5 -33.5t-62.5 -96.5h-77q24 91 92 140.5t164 49.5q85 0 134.5 -38.5t49.5 -108.5q0 -18 -5 -45l-59 -276q-2 -10 -2 -13
q0 -10 6.5 -14.5t20.5 -4.5h29l-13 -62h-46q-34 0 -51 15.5t-17 44.5q0 15 2 23l10 48h-2q-37 -73 -93.5 -108zM121 76.5q31 -28.5 84 -28.5q48 0 93 23.5t79.5 71t49.5 116.5l15 68h-2q-17 -29 -47.5 -44.5t-82.5 -15.5h-69q-79 0 -115 -33t-36 -82q0 -47 31 -75.5z
M246 717h277l-13 -62h-277z" />
    <glyph glyph-name="Abreve" unicode="&#x102;" horiz-adv-x="636" 
d="M369 700h78l115 -700h-72l-30 196h-307l-113 -196h-81zM450 260l-27 176l-12 80q-11 75 -16 104h-2q-40 -74 -108 -194l-95 -166h260zM351.5 791q-27.5 28 -27.5 76q0 21 4 38h54q-4 -17 -4 -35q0 -57 51 -57q32 0 54 23.5t32 68.5h54q-14 -66 -50.5 -104t-91.5 -38
q-48 0 -75.5 28z" />
    <glyph glyph-name="abreve" unicode="&#x103;" horiz-adv-x="582" 
d="M307.5 23q-56.5 -35 -121.5 -35q-74 0 -121 42.5t-47 116.5q0 82 57.5 131t160.5 49h106q57 0 85.5 25.5t28.5 65.5t-28.5 62t-84.5 22q-69 0 -115.5 -33.5t-62.5 -96.5h-77q24 91 92 140.5t164 49.5q85 0 134.5 -38.5t49.5 -108.5q0 -18 -5 -45l-59 -276q-2 -10 -2 -13
q0 -10 6.5 -14.5t20.5 -4.5h29l-13 -62h-46q-34 0 -51 15.5t-17 44.5q0 15 2 23l10 48h-2q-37 -73 -93.5 -108zM121 76.5q31 -28.5 84 -28.5q48 0 93 23.5t79.5 71t49.5 116.5l15 68h-2q-17 -29 -47.5 -44.5t-82.5 -15.5h-69q-79 0 -115 -33t-36 -82q0 -47 31 -75.5z
M295.5 641q-27.5 28 -27.5 76q0 21 4 38h54q-4 -17 -4 -35q0 -57 51 -57q32 0 54 23.5t32 68.5h54q-14 -66 -50.5 -104t-91.5 -38q-48 0 -75.5 28z" />
    <glyph glyph-name="Aogonek" unicode="&#x104;" horiz-adv-x="636" 
d="M369 700h78l115 -699v-1h-1l-5 -3q-27 -4 -46 -25t-19 -46q0 -24 18 -37.5t55 -13.5h9l-12 -58h-9q-53 0 -81.5 23t-28.5 62q0 30 18 56t51 41v1h-21l-30 196h-307l-113 -196h-81zM450 260l-27 176l-12 80q-11 75 -16 104h-2q-40 -74 -108 -194l-95 -166h260z" />
    <glyph glyph-name="aogonek" unicode="&#x105;" horiz-adv-x="582" 
d="M307.5 23q-56.5 -35 -121.5 -35q-74 0 -121 42.5t-47 116.5q0 82 57.5 131t160.5 49h106q57 0 85.5 25.5t28.5 65.5t-28.5 62t-84.5 22q-69 0 -115.5 -33.5t-62.5 -96.5h-77q24 91 92 140.5t164 49.5q85 0 134.5 -38.5t49.5 -108.5q0 -18 -5 -45l-59 -276q-2 -10 -2 -13
q0 -10 6.5 -14.5t20.5 -4.5h29l-13 -62h-1l-5 -3q-27 -4 -46 -25t-19 -46q0 -24 18 -37.5t55 -13.5h9l-12 -58h-9q-53 0 -81.5 23t-28.5 62q0 30 18 56t51 41v1q-31 1 -47 17t-16 43q0 15 2 23l10 48h-2q-37 -73 -93.5 -108zM121 76.5q31 -28.5 84 -28.5q48 0 93 23.5
t79.5 71t49.5 116.5l15 68h-2q-17 -29 -47.5 -44.5t-82.5 -15.5h-69q-79 0 -115 -33t-36 -82q0 -47 31 -75.5z" />
    <glyph glyph-name="Cacute" unicode="&#x106;" horiz-adv-x="735" 
d="M123 61.5q-73 73.5 -73 205.5q0 113 50.5 215.5t145 166t219.5 63.5q86 0 146 -30.5t90.5 -84t30.5 -122.5q0 -20 -3 -43h-74q2 12 2 35q0 82 -52 131.5t-145 49.5q-101 0 -177.5 -56.5t-117 -144.5t-40.5 -179q0 -105 56.5 -160.5t149.5 -55.5q70 0 129 31t98.5 78
t57.5 94h76q-24 -75 -76 -136t-126.5 -96t-163.5 -35q-130 0 -203 73.5zM550 905h81l-117 -142h-63z" />
    <glyph glyph-name="cacute" unicode="&#x107;" horiz-adv-x="598" 
d="M91.5 47.5q-59.5 59.5 -59.5 165.5q0 88 40 168.5t115 130.5t174 50q100 0 157 -51t57 -143q0 -19 -1 -28h-74q2 20 2 29q0 58 -36.5 95.5t-106.5 37.5q-76 0 -133.5 -44t-89 -111.5t-31.5 -136.5q0 -78 41 -120t110 -42q52 0 96 23.5t73.5 58t42.5 69.5h77
q-31 -92 -107.5 -151.5t-182.5 -59.5q-104 0 -163.5 59.5zM443 755h81l-117 -142h-63z" />
    <glyph glyph-name="Ccircumflex" unicode="&#x108;" horiz-adv-x="735" 
d="M123 61.5q-73 73.5 -73 205.5q0 113 50.5 215.5t145 166t219.5 63.5q86 0 146 -30.5t90.5 -84t30.5 -122.5q0 -20 -3 -43h-74q2 12 2 35q0 82 -52 131.5t-145 49.5q-101 0 -177.5 -56.5t-117 -144.5t-40.5 -179q0 -105 56.5 -160.5t149.5 -55.5q70 0 129 31t98.5 78
t57.5 94h76q-24 -75 -76 -136t-126.5 -96t-163.5 -35q-130 0 -203 73.5zM490 905h43l72 -142h-49l-52 78h-2l-84 -78h-61z" />
    <glyph glyph-name="ccircumflex" unicode="&#x109;" horiz-adv-x="598" 
d="M91.5 47.5q-59.5 59.5 -59.5 165.5q0 88 40 168.5t115 130.5t174 50q100 0 157 -51t57 -143q0 -19 -1 -28h-74q2 20 2 29q0 58 -36.5 95.5t-106.5 37.5q-76 0 -133.5 -44t-89 -111.5t-31.5 -136.5q0 -78 41 -120t110 -42q52 0 96 23.5t73.5 58t42.5 69.5h77
q-31 -92 -107.5 -151.5t-182.5 -59.5q-104 0 -163.5 59.5zM383 755h43l72 -142h-49l-52 78h-2l-84 -78h-61z" />
    <glyph glyph-name="Cdotaccent" unicode="&#x10a;" horiz-adv-x="735" 
d="M123 61.5q-73 73.5 -73 205.5q0 113 50.5 215.5t145 166t219.5 63.5q86 0 146 -30.5t90.5 -84t30.5 -122.5q0 -20 -3 -43h-74q2 12 2 35q0 82 -52 131.5t-145 49.5q-101 0 -177.5 -56.5t-117 -144.5t-40.5 -179q0 -105 56.5 -160.5t149.5 -55.5q70 0 129 31t98.5 78
t57.5 94h76q-24 -75 -76 -136t-126.5 -96t-163.5 -35q-130 0 -203 73.5zM472 883h73l-17 -77h-73z" />
    <glyph glyph-name="cdotaccent" unicode="&#x10b;" horiz-adv-x="598" 
d="M91.5 47.5q-59.5 59.5 -59.5 165.5q0 88 40 168.5t115 130.5t174 50q100 0 157 -51t57 -143q0 -19 -1 -28h-74q2 20 2 29q0 58 -36.5 95.5t-106.5 37.5q-76 0 -133.5 -44t-89 -111.5t-31.5 -136.5q0 -78 41 -120t110 -42q52 0 96 23.5t73.5 58t42.5 69.5h77
q-31 -92 -107.5 -151.5t-182.5 -59.5q-104 0 -163.5 59.5zM365 733h73l-17 -77h-73z" />
    <glyph glyph-name="Ccaron" unicode="&#x10c;" horiz-adv-x="735" 
d="M123 61.5q-73 73.5 -73 205.5q0 113 50.5 215.5t145 166t219.5 63.5q86 0 146 -30.5t90.5 -84t30.5 -122.5q0 -20 -3 -43h-74q2 12 2 35q0 82 -52 131.5t-145 49.5q-101 0 -177.5 -56.5t-117 -144.5t-40.5 -179q0 -105 56.5 -160.5t149.5 -55.5q70 0 129 31t98.5 78
t57.5 94h76q-24 -75 -76 -136t-126.5 -96t-163.5 -35q-130 0 -203 73.5zM391 905h49l50 -78h2l85 78h62l-133 -142h-44z" />
    <glyph glyph-name="ccaron" unicode="&#x10d;" horiz-adv-x="598" 
d="M91.5 47.5q-59.5 59.5 -59.5 165.5q0 88 40 168.5t115 130.5t174 50q100 0 157 -51t57 -143q0 -19 -1 -28h-74q2 20 2 29q0 58 -36.5 95.5t-106.5 37.5q-76 0 -133.5 -44t-89 -111.5t-31.5 -136.5q0 -78 41 -120t110 -42q52 0 96 23.5t73.5 58t42.5 69.5h77
q-31 -92 -107.5 -151.5t-182.5 -59.5q-104 0 -163.5 59.5zM283 755h49l50 -78h2l85 78h62l-133 -142h-44z" />
    <glyph glyph-name="Dcaron" unicode="&#x10e;" horiz-adv-x="710" 
d="M172 700h244q129 0 203 -69t74 -203q0 -111 -50 -209t-146 -158.5t-228 -60.5h-246zM275 65q106 0 184 52t119 135t41 174q0 104 -55 156.5t-153 52.5h-180l-121 -570h165zM341 905h49l50 -78h2l85 78h62l-133 -142h-44z" />
    <glyph glyph-name="dcaron" unicode="&#x10f;" horiz-adv-x="736" 
d="M133 13q-47 26 -74.5 76t-27.5 121q0 90 41.5 171.5t113.5 131.5t157 50q78 0 129 -42t63 -110h2q7 45 13 68l64 302h71l-166 -781h-71l17 83l14 56h-3q-38 -73 -101 -112.5t-136 -39.5q-59 0 -106 26zM147.5 90q42.5 -42 112.5 -42q74 0 132.5 43.5t91 111t32.5 135.5
q0 80 -44.5 122t-114.5 42q-74 0 -131.5 -43t-89 -110.5t-31.5 -135.5q0 -81 42.5 -123zM767 569l10 45h-44l18 86h77l-30 -139q-19 -89 -104 -89l7 32q52 0 66 65z" />
    <glyph glyph-name="Dcroat" unicode="&#x110;" horiz-adv-x="710" 
d="M163 316l-53 -251h165q106 0 184 52t119 135t41 174q0 104 -55 156.5t-153 52.5h-180l-54 -254h127l-14 -65h-127zM26 381h78l68 319h244q129 0 203 -69t74 -203q0 -111 -50 -209t-146 -158.5t-228 -60.5h-246l67 316h-78z" />
    <glyph glyph-name="dcroat" unicode="&#x111;" horiz-adv-x="647" 
d="M446 693h149l19 88h71l-19 -88h71l-13 -62h-71l-134 -631h-71l17 83l14 56h-3q-38 -73 -101 -112.5t-136 -39.5q-59 0 -106 26t-74.5 76t-27.5 121q0 90 41.5 171.5t113.5 131.5t157 50q78 0 129 -42t63 -110h2q7 45 13 68l32 152h-149zM147.5 90q42.5 -42 112.5 -42
q74 0 132.5 43.5t91 111t32.5 135.5q0 80 -44.5 122t-114.5 42q-74 0 -131.5 -43t-89 -110.5t-31.5 -135.5q0 -81 42.5 -123z" />
    <glyph glyph-name="Emacron" unicode="&#x112;" 
d="M172 700h476l-14 -65h-401l-52 -249h362l-14 -64h-362l-55 -257h402l-14 -65h-477zM308 867h277l-13 -62h-277z" />
    <glyph glyph-name="emacron" unicode="&#x113;" horiz-adv-x="596" 
d="M90.5 48q-58.5 60 -58.5 165q0 90 41.5 170.5t115.5 129.5t166 49q101 0 159 -56.5t58 -147.5q0 -32 -7 -63l-9 -41h-447q-4 -23 -4 -48q0 -71 37 -114.5t111 -43.5q67 0 120 35t81 86h79q-35 -83 -110.5 -132t-169.5 -49q-104 0 -162.5 60zM494 314q5 27 5 48
q0 61 -35.5 100.5t-109.5 39.5q-56 0 -103.5 -26t-80 -69t-47.5 -93h371zM252 717h277l-13 -62h-277z" />
    <glyph glyph-name="Ebreve" unicode="&#x114;" 
d="M172 700h476l-14 -65h-401l-52 -249h362l-14 -64h-362l-55 -257h402l-14 -65h-477zM358.5 791q-27.5 28 -27.5 76q0 21 4 38h54q-4 -17 -4 -35q0 -57 51 -57q32 0 54 23.5t32 68.5h54q-14 -66 -50.5 -104t-91.5 -38q-48 0 -75.5 28z" />
    <glyph glyph-name="ebreve" unicode="&#x115;" horiz-adv-x="596" 
d="M90.5 48q-58.5 60 -58.5 165q0 90 41.5 170.5t115.5 129.5t166 49q101 0 159 -56.5t58 -147.5q0 -32 -7 -63l-9 -41h-447q-4 -23 -4 -48q0 -71 37 -114.5t111 -43.5q67 0 120 35t81 86h79q-35 -83 -110.5 -132t-169.5 -49q-104 0 -162.5 60zM494 314q5 27 5 48
q0 61 -35.5 100.5t-109.5 39.5q-56 0 -103.5 -26t-80 -69t-47.5 -93h371zM302.5 641q-27.5 28 -27.5 76q0 21 4 38h54q-4 -17 -4 -35q0 -57 51 -57q32 0 54 23.5t32 68.5h54q-14 -66 -50.5 -104t-91.5 -38q-48 0 -75.5 28z" />
    <glyph glyph-name="Edotaccent" unicode="&#x116;" 
d="M172 700h476l-14 -65h-401l-52 -249h362l-14 -64h-362l-55 -257h402l-14 -65h-477zM415 883h73l-17 -77h-73z" />
    <glyph glyph-name="edotaccent" unicode="&#x117;" horiz-adv-x="596" 
d="M90.5 48q-58.5 60 -58.5 165q0 90 41.5 170.5t115.5 129.5t166 49q101 0 159 -56.5t58 -147.5q0 -32 -7 -63l-9 -41h-447q-4 -23 -4 -48q0 -71 37 -114.5t111 -43.5q67 0 120 35t81 86h79q-35 -83 -110.5 -132t-169.5 -49q-104 0 -162.5 60zM494 314q5 27 5 48
q0 61 -35.5 100.5t-109.5 39.5q-56 0 -103.5 -26t-80 -69t-47.5 -93h371zM358 733h73l-17 -77h-73z" />
    <glyph glyph-name="Eogonek" unicode="&#x118;" 
d="M172 700h476l-14 -65h-401l-52 -249h362l-14 -64h-362l-55 -257h402l-14 -65h-1l-5 -3q-27 -4 -46 -25t-19 -46q0 -24 18 -37.5t55 -13.5h9l-12 -58h-9q-53 0 -81.5 23t-28.5 62q0 30 18 56t51 41v1h-426z" />
    <glyph glyph-name="eogonek" unicode="&#x119;" horiz-adv-x="596" 
d="M341 -160.5q-29 22.5 -29 61.5q0 29 16 57.5t44 51.5v1q-57 -23 -119 -23q-104 0 -162.5 60t-58.5 165q0 90 41.5 170.5t115.5 129.5t166 49q101 0 159 -56.5t58 -147.5q0 -32 -7 -63l-9 -41h-447q-4 -23 -4 -48q0 -71 37 -114.5t111 -43.5q67 0 120 35t81 86h79
q-31 -74 -97 -123q-33 -27 -52.5 -56t-19.5 -57q0 -27 18.5 -42t51.5 -15h12l-13 -59h-12q-51 0 -80 22.5zM494 314q5 27 5 48q0 61 -35.5 100.5t-109.5 39.5q-56 0 -103.5 -26t-80 -69t-47.5 -93h371z" />
    <glyph glyph-name="Ecaron" unicode="&#x11a;" 
d="M172 700h476l-14 -65h-401l-52 -249h362l-14 -64h-362l-55 -257h402l-14 -65h-477zM333 905h49l50 -78h2l85 78h62l-133 -142h-44z" />
    <glyph glyph-name="ecaron" unicode="&#x11b;" horiz-adv-x="596" 
d="M90.5 48q-58.5 60 -58.5 165q0 90 41.5 170.5t115.5 129.5t166 49q101 0 159 -56.5t58 -147.5q0 -32 -7 -63l-9 -41h-447q-4 -23 -4 -48q0 -71 37 -114.5t111 -43.5q67 0 120 35t81 86h79q-35 -83 -110.5 -132t-169.5 -49q-104 0 -162.5 60zM494 314q5 27 5 48
q0 61 -35.5 100.5t-109.5 39.5q-56 0 -103.5 -26t-80 -69t-47.5 -93h371zM277 755h49l50 -78h2l85 78h62l-133 -142h-44z" />
    <glyph glyph-name="Gcircumflex" unicode="&#x11c;" horiz-adv-x="762" 
d="M121.5 62.5q-71.5 74.5 -71.5 207.5q0 111 51 213t145.5 165.5t220.5 63.5q86 0 147 -31t92 -84.5t31 -121.5q0 -22 -3 -43h-75q3 18 3 36q0 81 -53 130.5t-147 49.5q-102 0 -178.5 -56.5t-117 -144t-40.5 -176.5q0 -107 56 -163t151 -56q75 0 137 33t104 83t61 103h-263
l14 65h282q18 0 28 -9.5t10 -25.5q0 -8 -1 -12l-61 -289h-71l53 172h-3q-49 -84 -128 -134t-179 -50q-123 0 -194.5 74.5zM486 905h43l72 -142h-49l-52 78h-2l-84 -78h-61z" />
    <glyph glyph-name="gcircumflex" unicode="&#x11d;" horiz-adv-x="566" 
d="M-1.5 -169q-37.5 31 -37.5 84q0 51 34 87.5t94 49.5v2q-27 8 -42.5 28t-15.5 49q0 38 27.5 62.5t71.5 23.5h31v2q-42 16 -65 50t-23 83q0 60 33.5 108t90 75t123.5 27q55 0 97.5 -19t65.5 -53h2q10 31 28.5 45.5t46.5 14.5h35l-13 -62h-37q-16 0 -28.5 -8.5t-17.5 -21.5
q9 -25 9 -55q0 -60 -34.5 -108.5t-93 -75.5t-127.5 -27h-84q-38 0 -57 -15t-19 -36q0 -19 13.5 -31t38.5 -12h192q67 0 105 -34t38 -94q0 -50 -26.5 -89t-72 -60t-101.5 -21h-172q-72 0 -109.5 31zM48 -122.5q23 -18.5 70 -18.5h163q60 0 95.5 31.5t35.5 75.5q0 33 -22 52.5
t-68 19.5h-166q-42 0 -71.5 -16t-44.5 -41t-15 -52q0 -33 23 -51.5zM173 279q33 -27 90 -27q47 0 88 19t65.5 52.5t24.5 75.5q0 48 -33 75.5t-90 27.5q-48 0 -89 -19t-65 -53t-24 -76q0 -48 33 -75zM371 755h43l72 -142h-49l-52 78h-2l-84 -78h-61z" />
    <glyph glyph-name="Gbreve" unicode="&#x11e;" horiz-adv-x="762" 
d="M121.5 62.5q-71.5 74.5 -71.5 207.5q0 111 51 213t145.5 165.5t220.5 63.5q86 0 147 -31t92 -84.5t31 -121.5q0 -22 -3 -43h-75q3 18 3 36q0 81 -53 130.5t-147 49.5q-102 0 -178.5 -56.5t-117 -144t-40.5 -176.5q0 -107 56 -163t151 -56q75 0 137 33t104 83t61 103h-263
l14 65h282q18 0 28 -9.5t10 -25.5q0 -8 -1 -12l-61 -289h-71l53 172h-3q-49 -84 -128 -134t-179 -50q-123 0 -194.5 74.5zM411.5 791q-27.5 28 -27.5 76q0 21 4 38h54q-4 -17 -4 -35q0 -57 51 -57q32 0 54 23.5t32 68.5h54q-14 -66 -50.5 -104t-91.5 -38q-48 0 -75.5 28z
" />
    <glyph glyph-name="gbreve" unicode="&#x11f;" horiz-adv-x="566" 
d="M-1.5 -169q-37.5 31 -37.5 84q0 51 34 87.5t94 49.5v2q-27 8 -42.5 28t-15.5 49q0 38 27.5 62.5t71.5 23.5h31v2q-42 16 -65 50t-23 83q0 60 33.5 108t90 75t123.5 27q55 0 97.5 -19t65.5 -53h2q10 31 28.5 45.5t46.5 14.5h35l-13 -62h-37q-16 0 -28.5 -8.5t-17.5 -21.5
q9 -25 9 -55q0 -60 -34.5 -108.5t-93 -75.5t-127.5 -27h-84q-38 0 -57 -15t-19 -36q0 -19 13.5 -31t38.5 -12h192q67 0 105 -34t38 -94q0 -50 -26.5 -89t-72 -60t-101.5 -21h-172q-72 0 -109.5 31zM48 -122.5q23 -18.5 70 -18.5h163q60 0 95.5 31.5t35.5 75.5q0 33 -22 52.5
t-68 19.5h-166q-42 0 -71.5 -16t-44.5 -41t-15 -52q0 -33 23 -51.5zM173 279q33 -27 90 -27q47 0 88 19t65.5 52.5t24.5 75.5q0 48 -33 75.5t-90 27.5q-48 0 -89 -19t-65 -53t-24 -76q0 -48 33 -75zM296.5 641q-27.5 28 -27.5 76q0 21 4 38h54q-4 -17 -4 -35q0 -57 51 -57
q32 0 54 23.5t32 68.5h54q-14 -66 -50.5 -104t-91.5 -38q-48 0 -75.5 28z" />
    <glyph glyph-name="Gdotaccent" unicode="&#x120;" horiz-adv-x="762" 
d="M121.5 62.5q-71.5 74.5 -71.5 207.5q0 111 51 213t145.5 165.5t220.5 63.5q86 0 147 -31t92 -84.5t31 -121.5q0 -22 -3 -43h-75q3 18 3 36q0 81 -53 130.5t-147 49.5q-102 0 -178.5 -56.5t-117 -144t-40.5 -176.5q0 -107 56 -163t151 -56q75 0 137 33t104 83t61 103h-263
l14 65h282q18 0 28 -9.5t10 -25.5q0 -8 -1 -12l-61 -289h-71l53 172h-3q-49 -84 -128 -134t-179 -50q-123 0 -194.5 74.5zM468 883h73l-17 -77h-73z" />
    <glyph glyph-name="gdotaccent" unicode="&#x121;" horiz-adv-x="566" 
d="M-1.5 -169q-37.5 31 -37.5 84q0 51 34 87.5t94 49.5v2q-27 8 -42.5 28t-15.5 49q0 38 27.5 62.5t71.5 23.5h31v2q-42 16 -65 50t-23 83q0 60 33.5 108t90 75t123.5 27q55 0 97.5 -19t65.5 -53h2q10 31 28.5 45.5t46.5 14.5h35l-13 -62h-37q-16 0 -28.5 -8.5t-17.5 -21.5
q9 -25 9 -55q0 -60 -34.5 -108.5t-93 -75.5t-127.5 -27h-84q-38 0 -57 -15t-19 -36q0 -19 13.5 -31t38.5 -12h192q67 0 105 -34t38 -94q0 -50 -26.5 -89t-72 -60t-101.5 -21h-172q-72 0 -109.5 31zM48 -122.5q23 -18.5 70 -18.5h163q60 0 95.5 31.5t35.5 75.5q0 33 -22 52.5
t-68 19.5h-166q-42 0 -71.5 -16t-44.5 -41t-15 -52q0 -33 23 -51.5zM173 279q33 -27 90 -27q47 0 88 19t65.5 52.5t24.5 75.5q0 48 -33 75.5t-90 27.5q-48 0 -89 -19t-65 -53t-24 -76q0 -48 33 -75zM353 733h73l-17 -77h-73z" />
    <glyph glyph-name="uni0122" unicode="&#x122;" horiz-adv-x="762" 
d="M121.5 62.5q-71.5 74.5 -71.5 207.5q0 111 51 213t145.5 165.5t220.5 63.5q86 0 147 -31t92 -84.5t31 -121.5q0 -22 -3 -43h-75q3 18 3 36q0 81 -53 130.5t-147 49.5q-102 0 -178.5 -56.5t-117 -144t-40.5 -176.5q0 -107 56 -163t151 -56q75 0 137 33t104 83t61 103h-263
l14 65h282q18 0 28 -9.5t10 -25.5q0 -8 -1 -12l-61 -289h-71l53 172h-3q-49 -84 -128 -134t-179 -50q-123 0 -194.5 74.5zM276.5 -162q11.5 9 16.5 28l1 5h-37l15 72h70l-16 -73q-8 -39 -30 -56t-62 -17l7 32q24 0 35.5 9z" />
    <glyph glyph-name="uni0123" unicode="&#x123;" horiz-adv-x="566" 
d="M-1.5 -169q-37.5 31 -37.5 84q0 51 34 87.5t94 49.5v2q-27 8 -42.5 28t-15.5 49q0 38 27.5 62.5t71.5 23.5h31v2q-42 16 -65 50t-23 83q0 60 33.5 108t90 75t123.5 27q55 0 97.5 -19t65.5 -53h2q10 31 28.5 45.5t46.5 14.5h35l-13 -62h-37q-16 0 -28.5 -8.5t-17.5 -21.5
q9 -25 9 -55q0 -60 -34.5 -108.5t-93 -75.5t-127.5 -27h-84q-38 0 -57 -15t-19 -36q0 -19 13.5 -31t38.5 -12h192q67 0 105 -34t38 -94q0 -50 -26.5 -89t-72 -60t-101.5 -21h-172q-72 0 -109.5 31zM48 -122.5q23 -18.5 70 -18.5h163q60 0 95.5 31.5t35.5 75.5q0 33 -22 52.5
t-68 19.5h-166q-42 0 -71.5 -16t-44.5 -41t-15 -52q0 -33 23 -51.5zM173 279q33 -27 90 -27q47 0 88 19t65.5 52.5t24.5 75.5q0 48 -33 75.5t-90 27.5q-48 0 -89 -19t-65 -53t-24 -76q0 -48 33 -75zM393.5 718q-11.5 -9 -15.5 -29l-1 -5h36l-15 -72h-70l16 74q8 39 30.5 56
t61.5 17l-7 -32q-24 0 -35.5 -9z" />
    <glyph glyph-name="Hcircumflex" unicode="&#x124;" horiz-adv-x="694" 
d="M172 700h75l-67 -315h381l67 315h76l-149 -700h-76l68 320h-381l-68 -320h-75zM459 905h43l72 -142h-49l-52 78h-2l-84 -78h-61z" />
    <glyph glyph-name="hcircumflex" unicode="&#x125;" horiz-adv-x="602" 
d="M186 781h72l-57 -268q-8 -41 -20 -84h2q37 63 91 98t119 35q73 0 113.5 -43.5t40.5 -117.5q0 -28 -8 -66l-71 -335h-71l70 331q8 38 8 64q0 54 -27 79.5t-75 25.5q-47 0 -91.5 -22.5t-78.5 -68.5t-48 -113l-63 -296h-72zM242 986h43l72 -142h-49l-52 78h-2l-84 -78h-61z
" />
    <glyph glyph-name="Hbar" unicode="&#x126;" horiz-adv-x="692" 
d="M79 573h66l27 127h75l-27 -127h381l27 127h76l-27 -127h65l-13 -61h-65l-109 -512h-76l68 320h-381l-68 -320h-75l109 512h-66zM561 385l27 127h-381l-27 -127h381z" />
    <glyph glyph-name="hbar" unicode="&#x127;" horiz-adv-x="602" 
d="M154 630h-82l14 62h81l19 89h72l-19 -89h151l-14 -62h-150l-25 -117q-8 -41 -20 -84h2q37 63 91 98t119 35q73 0 113.5 -43.5t40.5 -117.5q0 -28 -8 -66l-71 -335h-71l70 331q8 38 8 64q0 54 -27 79.5t-75 25.5q-47 0 -91.5 -22.5t-78.5 -68.5t-48 -113l-63 -296h-72z
" />
    <glyph glyph-name="Itilde" unicode="&#x128;" horiz-adv-x="238" 
d="M172 700h75l-149 -700h-75zM257.5 779q-19.5 13 -39.5 37q-15 18 -27.5 27t-29.5 9q-22 0 -37.5 -16.5t-21.5 -46.5l-3 -15h-56l5 23q11 51 41 80t76 29q33 0 52.5 -13t39.5 -37q15 -18 27.5 -27t29.5 -9q22 0 37.5 16.5t21.5 46.5l3 15h56l-5 -23q-11 -51 -41 -80
t-76 -29q-33 0 -52.5 13z" />
    <glyph glyph-name="itilde" unicode="&#x129;" horiz-adv-x="228" 
d="M137 550h72l-117 -550h-72zM219.5 629q-19.5 13 -39.5 37q-15 18 -27.5 27t-29.5 9q-22 0 -37.5 -16.5t-21.5 -46.5l-3 -15h-56l5 23q11 51 41 80t76 29q33 0 52.5 -13t39.5 -37q15 -18 27.5 -27t29.5 -9q22 0 37.5 16.5t21.5 46.5l3 15h56l-5 -23q-11 -51 -41 -80
t-76 -29q-33 0 -52.5 13z" />
    <glyph glyph-name="Imacron" unicode="&#x12a;" horiz-adv-x="238" 
d="M172 700h75l-149 -700h-75zM108 867h277l-13 -62h-277z" />
    <glyph glyph-name="imacron" unicode="&#x12b;" horiz-adv-x="228" 
d="M137 550h72l-117 -550h-72zM69 717h277l-13 -62h-277z" />
    <glyph glyph-name="Ibreve" unicode="&#x12c;" horiz-adv-x="238" 
d="M172 700h75l-149 -700h-75zM157.5 791q-27.5 28 -27.5 76q0 21 4 38h54q-4 -17 -4 -35q0 -57 51 -57q32 0 54 23.5t32 68.5h54q-14 -66 -50.5 -104t-91.5 -38q-48 0 -75.5 28z" />
    <glyph glyph-name="ibreve" unicode="&#x12d;" horiz-adv-x="228" 
d="M137 550h72l-117 -550h-72zM119.5 641q-27.5 28 -27.5 76q0 21 4 38h54q-4 -17 -4 -35q0 -57 51 -57q32 0 54 23.5t32 68.5h54q-14 -66 -50.5 -104t-91.5 -38q-48 0 -75.5 28z" />
    <glyph glyph-name="Iogonek" unicode="&#x12e;" horiz-adv-x="238" 
d="M172 700h75l-149 -700h-1l-5 -3q-27 -4 -46 -25t-19 -46q0 -24 18 -37.5t55 -13.5h9l-12 -58h-9q-53 0 -81.5 23t-28.5 62q0 30 18 56t51 41v1h-24z" />
    <glyph glyph-name="iogonek" unicode="&#x12f;" horiz-adv-x="228" 
d="M137 550h72l-117 -550h-1l-5 -3q-27 -4 -46 -25t-19 -46q0 -24 18 -37.5t55 -13.5h9l-12 -58h-9q-53 0 -81.5 23t-28.5 62q0 30 18 56t51 41v1h-21zM175 733h73l-17 -77h-73z" />
    <glyph glyph-name="Idotaccent" unicode="&#x130;" horiz-adv-x="238" 
d="M172 700h75l-149 -700h-75zM214 883h73l-17 -77h-73z" />
    <glyph glyph-name="dotlessi" unicode="&#x131;" horiz-adv-x="228" 
d="M137 550h72l-117 -550h-72z" />
    <glyph glyph-name="IJ" unicode="&#x132;" horiz-adv-x="604" 
d="M119.5 37.5q-54.5 49.5 -54.5 134.5q0 22 7 59h73q-6 -31 -6 -56q0 -61 32.5 -92t89.5 -31q67 0 113 44.5t65 135.5l99 468h75l-101 -477q-24 -113 -90 -174t-161 -61q-87 0 -141.5 49.5zM171 700h74l-77 -364h-75z" />
    <glyph glyph-name="ij" unicode="&#x133;" horiz-adv-x="407" 
d="M137 550h72l-117 -550h-72zM175 733h73l-17 -77h-73zM69 -139h35q34 0 54 18.5t28 59.5l130 611h72l-134 -628q-12 -58 -48 -90t-93 -32h-57zM354 733h73l-17 -77h-73z" />
    <glyph glyph-name="Jcircumflex" unicode="&#x134;" horiz-adv-x="545" 
d="M60.5 37.5q-54.5 49.5 -54.5 134.5q0 22 7 59h72q-6 -31 -6 -56q0 -61 33 -92t90 -31q67 0 113 44.5t65 135.5l99 468h74l-100 -477q-25 -114 -90.5 -174.5t-160.5 -60.5q-87 0 -141.5 49.5zM475 905h43l72 -142h-49l-52 78h-2l-84 -78h-61z" />
    <glyph glyph-name="jcircumflex" unicode="&#x135;" horiz-adv-x="226" 
d="M-112 -139h35q34 0 54 18.5t28 59.5l130 611h72l-134 -628q-12 -58 -48 -90t-93 -32h-57zM191 755h43l72 -142h-49l-52 78h-2l-84 -78h-61z" />
    <glyph glyph-name="uni0136" unicode="&#x136;" horiz-adv-x="626" 
d="M171 700h74l-84 -397h2l421 397h108l-344 -315l212 -385h-85l-179 336h-2l-156 -144l-41 -192h-74zM215.5 -162q11.5 9 16.5 28l1 5h-37l15 72h70l-16 -73q-8 -39 -30 -56t-62 -17l7 32q24 0 35.5 9z" />
    <glyph glyph-name="uni0137" unicode="&#x137;" horiz-adv-x="510" 
d="M186 781h72l-111 -520l298 289h104l-259 -244l155 -306h-80l-126 257h-2l-113 -107l-32 -150h-72zM161.5 -162q11.5 9 16.5 28l1 5h-37l15 72h70l-16 -73q-8 -39 -30 -56t-62 -17l7 32q24 0 35.5 9z" />
    <glyph glyph-name="kgreenlandic" unicode="&#x138;" horiz-adv-x="510" 
d="M137 550h72l-62 -289l298 289h104l-259 -244l155 -306h-80l-126 257h-2l-113 -107l-32 -150h-72z" />
    <glyph glyph-name="Lacute" unicode="&#x139;" horiz-adv-x="504" 
d="M439 65l-14 -65h-402l149 700h75l-135 -635h327zM230 905h81l-117 -142h-63z" />
    <glyph glyph-name="lacute" unicode="&#x13a;" horiz-adv-x="227" 
d="M186 781h72l-166 -781h-72zM307 1005h81l-117 -142h-63z" />
    <glyph glyph-name="uni013B" unicode="&#x13b;" horiz-adv-x="504" 
d="M439 65l-14 -65h-402l149 700h75l-135 -635h327zM202.5 -162q11.5 9 16.5 28l1 5h-37l15 72h70l-16 -73q-8 -39 -30 -56t-62 -17l7 32q24 0 35.5 9z" />
    <glyph glyph-name="uni013C" unicode="&#x13c;" horiz-adv-x="227" 
d="M186 781h72l-166 -781h-72zM15.5 -162q11.5 9 16.5 28l1 5h-37l15 72h70l-16 -73q-8 -39 -30 -56t-62 -17l7 32q24 0 35.5 9z" />
    <glyph glyph-name="Lcaron" unicode="&#x13d;" horiz-adv-x="504" 
d="M439 65l-14 -65h-402l149 700h75l-135 -635h327zM394 569l10 45h-44l18 86h77l-30 -139q-19 -89 -104 -89l7 32q52 0 66 65z" />
    <glyph glyph-name="lcaron" unicode="&#x13e;" horiz-adv-x="309" 
d="M186 781h72l-166 -781h-72zM310 569l10 45h-44l18 86h77l-30 -139q-19 -89 -104 -89l7 32q52 0 66 65z" />
    <glyph glyph-name="Ldot" unicode="&#x13f;" horiz-adv-x="504" 
d="M439 65l-14 -65h-402l149 700h75l-135 -635h327zM358 384h73l-17 -77h-73z" />
    <glyph glyph-name="ldot" unicode="&#x140;" horiz-adv-x="300" 
d="M186 781h72l-166 -781h-72zM252 384h73l-17 -77h-73z" />
    <glyph glyph-name="Lslash" unicode="&#x141;" horiz-adv-x="504" 
d="M27 373l81 25l64 302h75l-59 -276l126 39l-14 -65l-126 -39l-62 -294h327l-14 -65h-402l71 334l-80 -25z" />
    <glyph glyph-name="lslash" unicode="&#x142;" horiz-adv-x="226" 
d="M180 412l-88 -412h-72l82 385l-68 -23l13 63l68 24l71 332h72l-65 -305l65 22l-12 -63z" />
    <glyph glyph-name="Nacute" unicode="&#x143;" horiz-adv-x="747" 
d="M228 602h-4l-20 -100l-107 -502h-74l149 700h92l287 -601h4l21 100l106 501h75l-149 -700h-92zM545 905h81l-117 -142h-63z" />
    <glyph glyph-name="nacute" unicode="&#x144;" horiz-adv-x="602" 
d="M137 550h70l-26 -122h2q38 66 92.5 100t117.5 34q73 0 113 -43.5t40 -117.5q0 -34 -7 -66l-71 -335h-72l71 331q7 34 7 63q0 106 -102 106q-47 0 -91 -22.5t-78 -68.5t-48 -113l-63 -296h-72zM441 755h81l-117 -142h-63z" />
    <glyph glyph-name="uni0145" unicode="&#x145;" horiz-adv-x="747" 
d="M228 602h-4l-20 -100l-107 -502h-74l149 700h92l287 -601h4l21 100l106 501h75l-149 -700h-92zM274.5 -162q11.5 9 16.5 28l1 5h-37l15 72h70l-16 -73q-8 -39 -30 -56t-62 -17l7 32q24 0 35.5 9z" />
    <glyph glyph-name="uni0146" unicode="&#x146;" horiz-adv-x="602" 
d="M137 550h70l-26 -122h2q38 66 92.5 100t117.5 34q73 0 113 -43.5t40 -117.5q0 -34 -7 -66l-71 -335h-72l71 331q7 34 7 63q0 106 -102 106q-47 0 -91 -22.5t-78 -68.5t-48 -113l-63 -296h-72zM202.5 -162q11.5 9 16.5 28l1 5h-37l15 72h70l-16 -73q-8 -39 -30 -56
t-62 -17l7 32q24 0 35.5 9z" />
    <glyph glyph-name="Ncaron" unicode="&#x147;" horiz-adv-x="747" 
d="M228 602h-4l-20 -100l-107 -502h-74l149 700h92l287 -601h4l21 100l106 501h75l-149 -700h-92zM386 905h49l50 -78h2l85 78h62l-133 -142h-44z" />
    <glyph glyph-name="ncaron" unicode="&#x148;" horiz-adv-x="602" 
d="M137 550h70l-26 -122h2q38 66 92.5 100t117.5 34q73 0 113 -43.5t40 -117.5q0 -34 -7 -66l-71 -335h-72l71 331q7 34 7 63q0 106 -102 106q-47 0 -91 -22.5t-78 -68.5t-48 -113l-63 -296h-72zM281 755h49l50 -78h2l85 78h62l-133 -142h-44z" />
    <glyph glyph-name="napostrophe" unicode="&#x149;" horiz-adv-x="721" 
d="M132 569l10 45h-44l18 86h77l-30 -139q-19 -89 -104 -89l7 32q52 0 66 65zM257 550h70l-26 -122h2q38 66 92.5 100t117.5 34q73 0 113 -43.5t40 -117.5q0 -34 -7 -66l-71 -335h-72l71 331q7 34 7 63q0 106 -102 106q-47 0 -91 -22.5t-78 -68.5t-48 -113l-63 -296h-72z
" />
    <glyph glyph-name="Eng" unicode="&#x14a;" horiz-adv-x="746" 
d="M404 -139h32q34 0 56 20t30 58l13 62l-309 601h-3l-19 -100l-107 -502h-74l149 700h86l300 -581h2l13 69l108 512h74l-162 -763q-15 -69 -55.5 -103t-108.5 -34h-38z" />
    <glyph glyph-name="eng" unicode="&#x14b;" horiz-adv-x="602" 
d="M267 -139h34q31 0 52 19t29 53l85 398q7 34 7 63q0 106 -102 106q-47 0 -91 -22.5t-78 -68.5t-48 -113l-63 -296h-72l117 550h70l-26 -122h2q38 66 92.5 100t117.5 34q73 0 113 -43.5t40 -117.5q0 -34 -7 -66l-86 -405q-13 -59 -52 -94.5t-102 -35.5h-45z" />
    <glyph glyph-name="Omacron" unicode="&#x14c;" horiz-adv-x="763" 
d="M184 20.5q-63 32.5 -98.5 96.5t-35.5 155q0 115 55.5 216.5t152 162.5t211.5 61q82 0 145 -32.5t98 -96.5t35 -155q0 -114 -55.5 -215.5t-151.5 -163t-212 -61.5q-81 0 -144 32.5zM182 106.5q56 -54.5 149 -54.5q96 0 174 55t122 143.5t44 182.5q0 107 -56.5 161
t-148.5 54q-96 0 -174 -55.5t-122 -144t-44 -182.5q0 -105 56 -159.5zM370 867h277l-13 -62h-277z" />
    <glyph glyph-name="omacron" unicode="&#x14d;" horiz-adv-x="616" 
d="M93 47.5q-61 59.5 -61 166.5q0 88 42 168.5t117 130t169 49.5q101 0 162.5 -59.5t61.5 -166.5q0 -89 -42 -169.5t-117.5 -129.5t-169.5 -49q-101 0 -162 59.5zM147 89q42 -41 112 -41q74 0 131.5 44t89 112.5t31.5 139.5q0 76 -42.5 117t-111.5 41q-74 0 -131.5 -43.5
t-89 -112t-31.5 -139.5q0 -77 42 -118zM263 717h277l-13 -62h-277z" />
    <glyph glyph-name="Obreve" unicode="&#x14e;" horiz-adv-x="763" 
d="M184 20.5q-63 32.5 -98.5 96.5t-35.5 155q0 115 55.5 216.5t152 162.5t211.5 61q82 0 145 -32.5t98 -96.5t35 -155q0 -114 -55.5 -215.5t-151.5 -163t-212 -61.5q-81 0 -144 32.5zM182 106.5q56 -54.5 149 -54.5q96 0 174 55t122 143.5t44 182.5q0 107 -56.5 161
t-148.5 54q-96 0 -174 -55.5t-122 -144t-44 -182.5q0 -105 56 -159.5zM419.5 791q-27.5 28 -27.5 76q0 21 4 38h54q-4 -17 -4 -35q0 -57 51 -57q32 0 54 23.5t32 68.5h54q-14 -66 -50.5 -104t-91.5 -38q-48 0 -75.5 28z" />
    <glyph glyph-name="obreve" unicode="&#x14f;" horiz-adv-x="616" 
d="M93 47.5q-61 59.5 -61 166.5q0 88 42 168.5t117 130t169 49.5q101 0 162.5 -59.5t61.5 -166.5q0 -89 -42 -169.5t-117.5 -129.5t-169.5 -49q-101 0 -162 59.5zM147 89q42 -41 112 -41q74 0 131.5 44t89 112.5t31.5 139.5q0 76 -42.5 117t-111.5 41q-74 0 -131.5 -43.5
t-89 -112t-31.5 -139.5q0 -77 42 -118zM313.5 641q-27.5 28 -27.5 76q0 21 4 38h54q-4 -17 -4 -35q0 -57 51 -57q32 0 54 23.5t32 68.5h54q-14 -66 -50.5 -104t-91.5 -38q-48 0 -75.5 28z" />
    <glyph glyph-name="Ohungarumlaut" unicode="&#x150;" horiz-adv-x="763" 
d="M184 20.5q-63 32.5 -98.5 96.5t-35.5 155q0 115 55.5 216.5t152 162.5t211.5 61q82 0 145 -32.5t98 -96.5t35 -155q0 -114 -55.5 -215.5t-151.5 -163t-212 -61.5q-81 0 -144 32.5zM182 106.5q56 -54.5 149 -54.5q96 0 174 55t122 143.5t44 182.5q0 107 -56.5 161
t-148.5 54q-96 0 -174 -55.5t-122 -144t-44 -182.5q0 -105 56 -159.5zM617 905h82l-117 -142h-64zM489 905h82l-117 -142h-64z" />
    <glyph glyph-name="ohungarumlaut" unicode="&#x151;" horiz-adv-x="616" 
d="M93 47.5q-61 59.5 -61 166.5q0 88 42 168.5t117 130t169 49.5q101 0 162.5 -59.5t61.5 -166.5q0 -89 -42 -169.5t-117.5 -129.5t-169.5 -49q-101 0 -162 59.5zM147 89q42 -41 112 -41q74 0 131.5 44t89 112.5t31.5 139.5q0 76 -42.5 117t-111.5 41q-74 0 -131.5 -43.5
t-89 -112t-31.5 -139.5q0 -77 42 -118zM511 755h82l-117 -142h-64zM383 755h82l-117 -142h-64z" />
    <glyph glyph-name="OE" unicode="&#x152;" horiz-adv-x="1130" 
d="M178.5 18q-60.5 33 -94.5 97.5t-34 154.5q0 116 54.5 218.5t148.5 164.5t206 62q85 0 147 -39.5t85 -115.5h2l30 140h466l-14 -65h-391l-53 -252h352l-14 -65h-352l-54 -253h392l-14 -65h-467l27 128h-2q-48 -68 -124 -105.5t-158 -37.5q-78 0 -138.5 33zM179.5 104
q54.5 -54 143.5 -54q93 0 169.5 56t121 145t44.5 184q0 107 -55.5 161t-146.5 54q-94 0 -169.5 -56t-118.5 -145.5t-43 -184.5q0 -106 54.5 -160z" />
    <glyph glyph-name="oe" unicode="&#x153;" horiz-adv-x="1060" 
d="M93 47q-61 59 -61 166q0 88 41.5 169t116.5 130.5t170 49.5q78 0 132 -36.5t72 -105.5l2 1q43 67 108.5 104t145.5 37q67 0 116 -26.5t74.5 -72.5t25.5 -105q0 -32 -7 -63l-8 -41h-448q-4 -23 -4 -49q0 -70 37 -113.5t111 -43.5q67 0 120 34.5t82 86.5h78
q-35 -83 -110.5 -132t-169.5 -49q-80 0 -132.5 37.5t-69.5 104.5h-2q-44 -67 -111 -104.5t-147 -37.5q-101 0 -162 59zM146 88.5q42 -40.5 112 -40.5q76 0 133.5 44t88.5 113t31 139q0 77 -42.5 117.5t-112.5 40.5q-75 0 -132.5 -44t-88.5 -113t-31 -139q0 -77 42 -117.5z
M960 314q5 25 5 46q0 62 -35.5 102t-110.5 40q-57 0 -104.5 -26t-80 -69t-47.5 -93h373z" />
    <glyph glyph-name="Racute" unicode="&#x154;" horiz-adv-x="626" 
d="M171 700h250q106 0 159 -43.5t53 -114.5q0 -51 -26 -96t-73 -75.5t-108 -40.5v-2q52 -18 78 -62t31 -121l10 -145h-73l-6 122q-4 70 -19 108.5t-47.5 55t-91.5 16.5h-149l-64 -302h-72zM325 366q108 0 170.5 43.5t62.5 119.5q0 54 -36.5 80t-114.5 26h-177l-58 -269h153z
M489 905h81l-117 -142h-63z" />
    <glyph glyph-name="racute" unicode="&#x155;" horiz-adv-x="363" 
d="M137 550h69l-23 -106h2q30 56 67.5 81t101.5 25h54l-14 -62h-57q-69 0 -115.5 -45.5t-64.5 -128.5l-67 -314h-70zM344 755h81l-117 -142h-63z" />
    <glyph glyph-name="uni0156" unicode="&#x156;" horiz-adv-x="626" 
d="M171 700h250q106 0 159 -43.5t53 -114.5q0 -51 -26 -96t-73 -75.5t-108 -40.5v-2q52 -18 78 -62t31 -121l10 -145h-73l-6 122q-4 70 -19 108.5t-47.5 55t-91.5 16.5h-149l-64 -302h-72zM325 366q108 0 170.5 43.5t62.5 119.5q0 54 -36.5 80t-114.5 26h-177l-58 -269h153z
M218.5 -162q11.5 9 16.5 28l1 5h-37l15 72h70l-16 -73q-8 -39 -30 -56t-62 -17l7 32q24 0 35.5 9z" />
    <glyph glyph-name="uni0157" unicode="&#x157;" horiz-adv-x="363" 
d="M137 550h69l-23 -106h2q30 56 67.5 81t101.5 25h54l-14 -62h-57q-69 0 -115.5 -45.5t-64.5 -128.5l-67 -314h-70zM14.5 -162q11.5 9 16.5 28l1 5h-37l15 72h70l-16 -73q-8 -39 -30 -56t-62 -17l7 32q24 0 35.5 9z" />
    <glyph glyph-name="Rcaron" unicode="&#x158;" horiz-adv-x="626" 
d="M171 700h250q106 0 159 -43.5t53 -114.5q0 -51 -26 -96t-73 -75.5t-108 -40.5v-2q52 -18 78 -62t31 -121l10 -145h-73l-6 122q-4 70 -19 108.5t-47.5 55t-91.5 16.5h-149l-64 -302h-72zM325 366q108 0 170.5 43.5t62.5 119.5q0 54 -36.5 80t-114.5 26h-177l-58 -269h153z
M329 905h49l50 -78h2l85 78h62l-133 -142h-44z" />
    <glyph glyph-name="rcaron" unicode="&#x159;" horiz-adv-x="363" 
d="M137 550h69l-23 -106h2q30 56 67.5 81t101.5 25h54l-14 -62h-57q-69 0 -115.5 -45.5t-64.5 -128.5l-67 -314h-70zM185 755h49l50 -78h2l85 78h62l-133 -142h-44z" />
    <glyph glyph-name="Sacute" unicode="&#x15a;" horiz-adv-x="634" 
d="M155 15.5q-58 27.5 -88.5 76.5t-30.5 112q0 19 3 38h72q-2 -20 -2 -30q0 -74 50.5 -117t137.5 -43q60 0 105.5 21t71 58t25.5 85q0 54 -34 82t-108 28h-62q-94 0 -145 43t-51 120q0 64 35 115t97.5 79.5t143.5 28.5q112 0 176.5 -53.5t64.5 -146.5q0 -19 -3 -40h-72
q2 22 2 31q0 68 -42.5 106.5t-129.5 38.5q-64 0 -109 -21.5t-67 -57t-22 -77.5q0 -49 31 -72t96 -23h62q104 0 157.5 -48.5t53.5 -130.5q0 -68 -36 -120.5t-99.5 -81t-144.5 -28.5q-80 0 -138 27.5zM485 905h81l-117 -142h-63z" />
    <glyph glyph-name="sacute" unicode="&#x15b;" horiz-adv-x="522" 
d="M114 13.5q-50 25.5 -74 69.5t-19 99h73q-1 -5 -1 -15q0 -54 38.5 -86.5t103.5 -32.5q66 0 107.5 33.5t41.5 85.5q0 39 -25.5 61.5t-78.5 22.5h-45q-76 0 -118 36.5t-42 99.5q0 51 27.5 90.5t77 62t113.5 22.5q69 0 115 -26.5t66 -69.5t15 -94h-73l1 16q0 52 -31 83
t-95 31q-67 0 -105.5 -32.5t-38.5 -79.5q0 -35 23 -54t68 -19h51q79 0 123 -39.5t44 -106.5q0 -53 -27.5 -94.5t-78 -65t-117.5 -23.5q-69 0 -119 25.5zM400 755h81l-117 -142h-63z" />
    <glyph glyph-name="Scircumflex" unicode="&#x15c;" horiz-adv-x="634" 
d="M155 15.5q-58 27.5 -88.5 76.5t-30.5 112q0 19 3 38h72q-2 -20 -2 -30q0 -74 50.5 -117t137.5 -43q60 0 105.5 21t71 58t25.5 85q0 54 -34 82t-108 28h-62q-94 0 -145 43t-51 120q0 64 35 115t97.5 79.5t143.5 28.5q112 0 176.5 -53.5t64.5 -146.5q0 -19 -3 -40h-72
q2 22 2 31q0 68 -42.5 106.5t-129.5 38.5q-64 0 -109 -21.5t-67 -57t-22 -77.5q0 -49 31 -72t96 -23h62q104 0 157.5 -48.5t53.5 -130.5q0 -68 -36 -120.5t-99.5 -81t-144.5 -28.5q-80 0 -138 27.5zM425 905h43l72 -142h-49l-52 78h-2l-84 -78h-61z" />
    <glyph glyph-name="scircumflex" unicode="&#x15d;" horiz-adv-x="522" 
d="M114 13.5q-50 25.5 -74 69.5t-19 99h73q-1 -5 -1 -15q0 -54 38.5 -86.5t103.5 -32.5q66 0 107.5 33.5t41.5 85.5q0 39 -25.5 61.5t-78.5 22.5h-45q-76 0 -118 36.5t-42 99.5q0 51 27.5 90.5t77 62t113.5 22.5q69 0 115 -26.5t66 -69.5t15 -94h-73l1 16q0 52 -31 83
t-95 31q-67 0 -105.5 -32.5t-38.5 -79.5q0 -35 23 -54t68 -19h51q79 0 123 -39.5t44 -106.5q0 -53 -27.5 -94.5t-78 -65t-117.5 -23.5q-69 0 -119 25.5zM340 755h43l72 -142h-49l-52 78h-2l-84 -78h-61z" />
    <glyph glyph-name="Scedilla" unicode="&#x15e;" horiz-adv-x="634" 
d="M279 -12l-6 -28q31 -2 48 -19t17 -44q0 -35 -27 -57.5t-78 -22.5h-84l11 51h72q22 0 33.5 8.5t11.5 23.5q0 13 -9 20t-23 7h-25l14 65q-93 15 -145.5 72t-52.5 139q0 20 3 39h72q-2 -20 -2 -30q0 -74 50.5 -117t137.5 -43q60 0 105.5 21t71 58t25.5 85q0 54 -34 82
t-108 28h-62q-94 0 -145 43t-51 120q0 64 35 115t97.5 79.5t143.5 28.5q112 0 176.5 -53.5t64.5 -146.5q0 -19 -3 -40h-72q2 22 2 31q0 68 -42.5 106.5t-129.5 38.5q-64 0 -109 -21.5t-67 -57t-22 -77.5q0 -49 31 -72t96 -23h62q104 0 157.5 -48.5t53.5 -130.5
q0 -68 -36 -120.5t-99.5 -81t-144.5 -28.5h-14z" />
    <glyph glyph-name="scedilla" unicode="&#x15f;" horiz-adv-x="522" 
d="M224 -12l-6 -28q31 -2 48 -19t17 -44q0 -35 -27 -57.5t-78 -22.5h-84l11 51h72q22 0 33.5 8.5t11.5 23.5q0 13 -9 20t-23 7h-25l14 65q-80 14 -122.5 66t-35.5 124h73q-1 -5 -1 -15q0 -54 38.5 -86.5t103.5 -32.5q66 0 107.5 33.5t41.5 85.5q0 39 -25.5 61.5t-78.5 22.5
h-45q-76 0 -118 36.5t-42 99.5q0 51 27.5 90.5t77 62t113.5 22.5q69 0 115 -26.5t66 -69.5t15 -94h-73l1 16q0 52 -31 83t-95 31q-67 0 -105.5 -32.5t-38.5 -79.5q0 -35 23 -54t68 -19h51q79 0 123 -39.5t44 -106.5q0 -53 -27.5 -94.5t-78 -65t-117.5 -23.5h-9z" />
    <glyph glyph-name="Scaron" unicode="&#x160;" horiz-adv-x="634" 
d="M155 15.5q-58 27.5 -88.5 76.5t-30.5 112q0 19 3 38h72q-2 -20 -2 -30q0 -74 50.5 -117t137.5 -43q60 0 105.5 21t71 58t25.5 85q0 54 -34 82t-108 28h-62q-94 0 -145 43t-51 120q0 64 35 115t97.5 79.5t143.5 28.5q112 0 176.5 -53.5t64.5 -146.5q0 -19 -3 -40h-72
q2 22 2 31q0 68 -42.5 106.5t-129.5 38.5q-64 0 -109 -21.5t-67 -57t-22 -77.5q0 -49 31 -72t96 -23h62q104 0 157.5 -48.5t53.5 -130.5q0 -68 -36 -120.5t-99.5 -81t-144.5 -28.5q-80 0 -138 27.5zM326 905h49l50 -78h2l85 78h62l-133 -142h-44z" />
    <glyph glyph-name="scaron" unicode="&#x161;" horiz-adv-x="522" 
d="M114 13.5q-50 25.5 -74 69.5t-19 99h73q-1 -5 -1 -15q0 -54 38.5 -86.5t103.5 -32.5q66 0 107.5 33.5t41.5 85.5q0 39 -25.5 61.5t-78.5 22.5h-45q-76 0 -118 36.5t-42 99.5q0 51 27.5 90.5t77 62t113.5 22.5q69 0 115 -26.5t66 -69.5t15 -94h-73l1 16q0 52 -31 83
t-95 31q-67 0 -105.5 -32.5t-38.5 -79.5q0 -35 23 -54t68 -19h51q79 0 123 -39.5t44 -106.5q0 -53 -27.5 -94.5t-78 -65t-117.5 -23.5q-69 0 -119 25.5zM241 755h49l50 -78h2l85 78h62l-133 -142h-44z" />
    <glyph glyph-name="uni0162" unicode="&#x162;" horiz-adv-x="597" 
d="M337 637h-244l14 63h563l-13 -63h-244l-136 -637h-14l-8 -40q31 -2 48 -19t17 -44q0 -35 -27 -57.5t-78 -22.5h-84l11 51h72q22 0 33.5 8.5t11.5 23.5q0 13 -9 20t-23 7h-25l16 73h-16z" />
    <glyph glyph-name="uni0163" unicode="&#x163;" horiz-adv-x="410" 
d="M78 550h117l32 150h72l-32 -150h177l-14 -62h-176l-78 -363q-3 -13 -3 -23q0 -21 13 -30.5t42 -9.5h117l-13 -62h-108l-8 -40q31 -2 48 -19t17 -44q0 -35 -27 -57.5t-78 -22.5h-84l11 51h72q22 0 33.5 8.5t11.5 23.5q0 13 -9 20t-23 7h-25l17 76q-38 8 -57.5 33.5
t-19.5 62.5q0 19 4 35l75 354h-117z" />
    <glyph glyph-name="Tcaron" unicode="&#x164;" horiz-adv-x="597" 
d="M337 637h-244l14 63h563l-13 -63h-244l-136 -637h-75zM310 905h49l50 -78h2l85 78h62l-133 -142h-44z" />
    <glyph glyph-name="tcaron" unicode="&#x165;" horiz-adv-x="394" 
d="M368.5 647.5q16.5 12.5 19.5 30.5l3 17h-44l18 86h77l-22 -102q-16 -76 -101 -76l6 32q27 0 43.5 12.5zM78 550h117l32 150h72l-32 -150h177l-14 -62h-176l-78 -363q-3 -13 -3 -23q0 -21 13 -30.5t42 -9.5h117l-13 -62h-120q-53 0 -81 27t-28 73q0 18 4 34l75 354h-117z
" />
    <glyph glyph-name="Tbar" unicode="&#x166;" horiz-adv-x="597" 
d="M121 371h160l56 266h-244l14 63h563l-13 -63h-244l-57 -266h159l-13 -60h-159l-66 -311h-75l66 311h-159z" />
    <glyph glyph-name="tbar" unicode="&#x167;" horiz-adv-x="411" 
d="M33 317h114l36 171h-117l13 62h117l32 150h72l-32 -150h177l-14 -62h-176l-37 -171h154l-13 -61h-154l-28 -131q-3 -13 -3 -23q0 -21 13 -30.5t42 -9.5h117l-13 -62h-120q-53 0 -81 27t-28 73q0 18 4 34l26 122h-114z" />
    <glyph glyph-name="Utilde" unicode="&#x168;" horiz-adv-x="702" 
d="M138.5 48q-63.5 60 -63.5 165q0 37 9 79l87 408h74l-89 -422q-7 -32 -7 -65q0 -76 43 -118.5t115 -42.5q88 0 153.5 62.5t89.5 175.5l87 410h75l-90 -423q-31 -142 -115 -215.5t-199 -73.5q-106 0 -169.5 60zM488.5 779q-19.5 13 -39.5 37q-15 18 -27.5 27t-29.5 9
q-22 0 -37.5 -16.5t-21.5 -46.5l-3 -15h-56l5 23q11 51 41 80t76 29q33 0 52.5 -13t39.5 -37q15 -18 27.5 -27t29.5 -9q22 0 37.5 16.5t21.5 46.5l3 15h56l-5 -23q-11 -51 -41 -80t-76 -29q-33 0 -52.5 13z" />
    <glyph glyph-name="utilde" unicode="&#x169;" horiz-adv-x="597" 
d="M93.5 31q-39.5 43 -39.5 118q0 34 7 66l71 335h72l-71 -331q-8 -40 -8 -65q0 -55 27.5 -79.5t74.5 -24.5q46 0 90 22.5t78 68.5t48 113l63 296h72l-117 -550h-70l26 121h-2q-38 -66 -92 -99.5t-117 -33.5q-73 0 -112.5 43zM403.5 629q-19.5 13 -39.5 37q-15 18 -27.5 27
t-29.5 9q-22 0 -37.5 -16.5t-21.5 -46.5l-3 -15h-56l5 23q11 51 41 80t76 29q33 0 52.5 -13t39.5 -37q15 -18 27.5 -27t29.5 -9q22 0 37.5 16.5t21.5 46.5l3 15h56l-5 -23q-11 -51 -41 -80t-76 -29q-33 0 -52.5 13z" />
    <glyph glyph-name="Umacron" unicode="&#x16a;" horiz-adv-x="702" 
d="M138.5 48q-63.5 60 -63.5 165q0 37 9 79l87 408h74l-89 -422q-7 -32 -7 -65q0 -76 43 -118.5t115 -42.5q88 0 153.5 62.5t89.5 175.5l87 410h75l-90 -423q-31 -142 -115 -215.5t-199 -73.5q-106 0 -169.5 60zM338 867h277l-13 -62h-277z" />
    <glyph glyph-name="umacron" unicode="&#x16b;" horiz-adv-x="597" 
d="M93.5 31q-39.5 43 -39.5 118q0 34 7 66l71 335h72l-71 -331q-8 -40 -8 -65q0 -55 27.5 -79.5t74.5 -24.5q46 0 90 22.5t78 68.5t48 113l63 296h72l-117 -550h-70l26 121h-2q-38 -66 -92 -99.5t-117 -33.5q-73 0 -112.5 43zM253 717h277l-13 -62h-277z" />
    <glyph glyph-name="Ubreve" unicode="&#x16c;" horiz-adv-x="702" 
d="M138.5 48q-63.5 60 -63.5 165q0 37 9 79l87 408h74l-89 -422q-7 -32 -7 -65q0 -76 43 -118.5t115 -42.5q88 0 153.5 62.5t89.5 175.5l87 410h75l-90 -423q-31 -142 -115 -215.5t-199 -73.5q-106 0 -169.5 60zM388.5 791q-27.5 28 -27.5 76q0 21 4 38h54q-4 -17 -4 -35
q0 -57 51 -57q32 0 54 23.5t32 68.5h54q-14 -66 -50.5 -104t-91.5 -38q-48 0 -75.5 28z" />
    <glyph glyph-name="ubreve" unicode="&#x16d;" horiz-adv-x="597" 
d="M93.5 31q-39.5 43 -39.5 118q0 34 7 66l71 335h72l-71 -331q-8 -40 -8 -65q0 -55 27.5 -79.5t74.5 -24.5q46 0 90 22.5t78 68.5t48 113l63 296h72l-117 -550h-70l26 121h-2q-38 -66 -92 -99.5t-117 -33.5q-73 0 -112.5 43zM303.5 641q-27.5 28 -27.5 76q0 21 4 38h54
q-4 -17 -4 -35q0 -57 51 -57q32 0 54 23.5t32 68.5h54q-14 -66 -50.5 -104t-91.5 -38q-48 0 -75.5 28z" />
    <glyph glyph-name="Uring" unicode="&#x16e;" horiz-adv-x="702" 
d="M138.5 48q-63.5 60 -63.5 165q0 37 9 79l87 408h74l-89 -422q-7 -32 -7 -65q0 -76 43 -118.5t115 -42.5q88 0 153.5 62.5t89.5 175.5l87 410h75l-90 -423q-31 -142 -115 -215.5t-199 -73.5q-106 0 -169.5 60zM410 777.5q-21 21.5 -21 53.5q0 36 26.5 61.5t63.5 25.5
q33 0 53.5 -21t20.5 -53q0 -36 -26.5 -62t-62.5 -26q-33 0 -54 21.5zM441.5 808.5q9.5 -9.5 25.5 -9.5q18 0 30.5 12.5t12.5 30.5q0 15 -9 24t-25 9q-19 0 -31.5 -12t-12.5 -30q0 -15 9.5 -24.5z" />
    <glyph glyph-name="uring" unicode="&#x16f;" horiz-adv-x="597" 
d="M93.5 31q-39.5 43 -39.5 118q0 34 7 66l71 335h72l-71 -331q-8 -40 -8 -65q0 -55 27.5 -79.5t74.5 -24.5q46 0 90 22.5t78 68.5t48 113l63 296h72l-117 -550h-70l26 121h-2q-38 -66 -92 -99.5t-117 -33.5q-73 0 -112.5 43zM325 627.5q-21 21.5 -21 53.5q0 36 26.5 61.5
t63.5 25.5q33 0 53.5 -21t20.5 -53q0 -36 -26.5 -62t-62.5 -26q-33 0 -54 21.5zM356.5 658.5q9.5 -9.5 25.5 -9.5q18 0 30.5 12.5t12.5 30.5q0 15 -9 24t-25 9q-19 0 -31.5 -12t-12.5 -30q0 -15 9.5 -24.5z" />
    <glyph glyph-name="Uhungarumlaut" unicode="&#x170;" horiz-adv-x="702" 
d="M138.5 48q-63.5 60 -63.5 165q0 37 9 79l87 408h74l-89 -422q-7 -32 -7 -65q0 -76 43 -118.5t115 -42.5q88 0 153.5 62.5t89.5 175.5l87 410h75l-90 -423q-31 -142 -115 -215.5t-199 -73.5q-106 0 -169.5 60zM586 905h82l-117 -142h-64zM458 905h82l-117 -142h-64z" />
    <glyph glyph-name="uhungarumlaut" unicode="&#x171;" horiz-adv-x="597" 
d="M93.5 31q-39.5 43 -39.5 118q0 34 7 66l71 335h72l-71 -331q-8 -40 -8 -65q0 -55 27.5 -79.5t74.5 -24.5q46 0 90 22.5t78 68.5t48 113l63 296h72l-117 -550h-70l26 121h-2q-38 -66 -92 -99.5t-117 -33.5q-73 0 -112.5 43zM501 755h82l-117 -142h-64zM373 755h82
l-117 -142h-64z" />
    <glyph glyph-name="Uogonek" unicode="&#x172;" horiz-adv-x="702" 
d="M388.5 -162q-28.5 21 -28.5 59q0 55 55 108v1q-51 -18 -107 -18q-106 0 -169.5 60t-63.5 165q0 37 9 79l87 408h74l-89 -422q-7 -32 -7 -65q0 -76 43 -118.5t115 -42.5q88 0 153.5 62.5t89.5 175.5l87 410h75l-90 -423q-17 -79 -52 -138t-85 -95q-33 -26 -52.5 -56
t-19.5 -58q0 -27 18 -41t51 -14h10l-13 -58h-12q-50 0 -78.5 21z" />
    <glyph glyph-name="uogonek" unicode="&#x173;" horiz-adv-x="597" 
d="M93.5 31q-39.5 43 -39.5 118q0 34 7 66l71 335h72l-71 -331q-8 -40 -8 -65q0 -55 27.5 -79.5t74.5 -24.5q46 0 90 22.5t78 68.5t48 113l63 296h72l-117 -550h-1l-5 -3q-27 -4 -46 -25t-19 -46q0 -24 18 -37.5t55 -13.5h9l-12 -58h-9q-53 0 -81.5 23t-28.5 62q0 30 18 56
t51 41v1h-19l26 121h-2q-38 -66 -92 -99.5t-117 -33.5q-73 0 -112.5 43z" />
    <glyph glyph-name="Wcircumflex" unicode="&#x174;" horiz-adv-x="922" 
d="M103 700h74l40 -611h2l285 611h94l23 -611h2l294 611h82l-350 -700h-88l-26 612h-2l-286 -612h-87zM572 905h43l72 -142h-49l-52 78h-2l-84 -78h-61z" />
    <glyph glyph-name="wcircumflex" unicode="&#x175;" horiz-adv-x="733" 
d="M71 550h72l21 -463h2l214 463h85l17 -463h2l214 463h79l-270 -550h-82l-19 453h-2l-213 -453h-81zM445 755h43l72 -142h-49l-52 78h-2l-84 -78h-61z" />
    <glyph glyph-name="Ycircumflex" unicode="&#x176;" 
d="M261 285l-156 415h79l121 -351h2l268 351h95l-334 -415l-62 -285h-75zM407 905h43l72 -142h-49l-52 78h-2l-84 -78h-61z" />
    <glyph glyph-name="ycircumflex" unicode="&#x177;" horiz-adv-x="521" 
d="M-74 -138h139l106 168l-98 520h73l74 -438h2l260 438h83l-439 -719q-11 -18 -23 -24.5t-33 -6.5h-157zM338 755h43l72 -142h-49l-52 78h-2l-84 -78h-61z" />
    <glyph glyph-name="Ydieresis" unicode="&#x178;" 
d="M261 285l-156 415h79l121 -351h2l268 351h95l-334 -415l-62 -285h-75zM324 883h73l-16 -77h-74zM453 883h74l-17 -77h-73z" />
    <glyph glyph-name="Zacute" unicode="&#x179;" horiz-adv-x="588" 
d="M-24 61l548 572v2h-415l14 65h523l-10 -55l-548 -572v-2h435l-16 -71h-543zM472 905h81l-117 -142h-63z" />
    <glyph glyph-name="zacute" unicode="&#x17a;" horiz-adv-x="499" 
d="M-26 53l426 433v2h-312l13 62h415l-10 -53l-426 -433v-2h352l-13 -62h-455zM388 755h81l-117 -142h-63z" />
    <glyph glyph-name="Zdotaccent" unicode="&#x17b;" horiz-adv-x="588" 
d="M-24 61l548 572v2h-415l14 65h523l-10 -55l-548 -572v-2h435l-16 -71h-543zM394 883h73l-17 -77h-73z" />
    <glyph glyph-name="zdotaccent" unicode="&#x17c;" horiz-adv-x="499" 
d="M-26 53l426 433v2h-312l13 62h415l-10 -53l-426 -433v-2h352l-13 -62h-455zM310 733h73l-17 -77h-73z" />
    <glyph glyph-name="Zcaron" unicode="&#x17d;" horiz-adv-x="588" 
d="M-24 61l548 572v2h-415l14 65h523l-10 -55l-548 -572v-2h435l-16 -71h-543zM313 905h49l50 -78h2l85 78h62l-133 -142h-44z" />
    <glyph glyph-name="zcaron" unicode="&#x17e;" horiz-adv-x="499" 
d="M-26 53l426 433v2h-312l13 62h415l-10 -53l-426 -433v-2h352l-13 -62h-455zM229 755h49l50 -78h2l85 78h62l-133 -142h-44z" />
    <glyph glyph-name="longs" unicode="&#x17f;" horiz-adv-x="312" 
d="M130 488h-77l14 62h76l14 64q18 84 65.5 125.5t132.5 41.5h59l-14 -62h-46q-52 0 -83.5 -29t-44.5 -90l-128 -600h-72z" />
    <glyph glyph-name="uni018F" unicode="&#x18f;" horiz-adv-x="740" 
d="M113 56q-70 68 -70 185q0 44 13 104l6 28h581q6 36 6 69q0 94 -49.5 150t-151.5 56q-90 0 -162.5 -44t-110.5 -120h-84q45 102 141.5 165.5t220.5 63.5q130 0 201 -72t71 -204q0 -111 -50.5 -214.5t-145 -169t-219.5 -65.5q-127 0 -197 68zM119 244q0 -85 51 -138.5
t152 -53.5q113 0 193.5 69.5t113.5 187.5l-503 -1q-7 -31 -7 -64z" />
    <glyph glyph-name="florin" unicode="&#x192;" horiz-adv-x="675" 
d="M-51 -138h74q47 0 78.5 24.5t58.5 81.5l185 384h-162l13 62h178l58 120q42 89 93 127.5t132 38.5h71l-13 -62h-70q-48 0 -79.5 -24.5t-59.5 -81.5l-57 -118h175l-14 -62h-191l-185 -386q-42 -88 -93.5 -127t-130.5 -39h-74z" />
    <glyph glyph-name="uni019D" unicode="&#x19d;" horiz-adv-x="747" 
d="M-108 -139h34q31 0 53 19t30 53l163 767h92l287 -601h4l21 100l106 501h75l-149 -700h-92l-288 602h-4l-20 -100l-122 -572q-13 -59 -52 -94.5t-102 -35.5h-49z" />
    <glyph glyph-name="uni01B7" unicode="&#x1b7;" horiz-adv-x="590" 
d="M136.5 16.5q-56.5 28.5 -85 80.5t-24.5 120h74q-1 -6 -1 -19q0 -65 44 -107t125 -42q60 0 103.5 23t65.5 63t22 88q0 70 -44 104.5t-122 34.5h-80l12 59l253 213v2h-344l14 64h446l-14 -63l-255 -212v-2q98 -5 153.5 -60t55.5 -140q0 -65 -32 -118.5t-92.5 -85
t-141.5 -31.5q-76 0 -132.5 28.5z" />
    <glyph glyph-name="uni01CF" unicode="&#x1cf;" horiz-adv-x="238" 
d="M172 700h75l-149 -700h-75zM132 905h49l50 -78h2l85 78h62l-133 -142h-44z" />
    <glyph glyph-name="uni01D0" unicode="&#x1d0;" horiz-adv-x="228" 
d="M137 550h72l-117 -550h-72zM94 755h49l50 -78h2l85 78h62l-133 -142h-44z" />
    <glyph glyph-name="uni01D1" unicode="&#x1d1;" horiz-adv-x="763" 
d="M184 20.5q-63 32.5 -98.5 96.5t-35.5 155q0 115 55.5 216.5t152 162.5t211.5 61q82 0 145 -32.5t98 -96.5t35 -155q0 -114 -55.5 -215.5t-151.5 -163t-212 -61.5q-81 0 -144 32.5zM182 106.5q56 -54.5 149 -54.5q96 0 174 55t122 143.5t44 182.5q0 107 -56.5 161
t-148.5 54q-96 0 -174 -55.5t-122 -144t-44 -182.5q0 -105 56 -159.5zM394 905h49l50 -78h2l85 78h62l-133 -142h-44z" />
    <glyph glyph-name="uni01D2" unicode="&#x1d2;" horiz-adv-x="616" 
d="M93 47.5q-61 59.5 -61 166.5q0 88 42 168.5t117 130t169 49.5q101 0 162.5 -59.5t61.5 -166.5q0 -89 -42 -169.5t-117.5 -129.5t-169.5 -49q-101 0 -162 59.5zM147 89q42 -41 112 -41q74 0 131.5 44t89 112.5t31.5 139.5q0 76 -42.5 117t-111.5 41q-74 0 -131.5 -43.5
t-89 -112t-31.5 -139.5q0 -77 42 -118zM288 755h49l50 -78h2l85 78h62l-133 -142h-44z" />
    <glyph glyph-name="uni01D3" unicode="&#x1d3;" horiz-adv-x="702" 
d="M138.5 48q-63.5 60 -63.5 165q0 37 9 79l87 408h74l-89 -422q-7 -32 -7 -65q0 -76 43 -118.5t115 -42.5q88 0 153.5 62.5t89.5 175.5l87 410h75l-90 -423q-31 -142 -115 -215.5t-199 -73.5q-106 0 -169.5 60zM363 905h49l50 -78h2l85 78h62l-133 -142h-44z" />
    <glyph glyph-name="uni01D4" unicode="&#x1d4;" horiz-adv-x="597" 
d="M93.5 31q-39.5 43 -39.5 118q0 34 7 66l71 335h72l-71 -331q-8 -40 -8 -65q0 -55 27.5 -79.5t74.5 -24.5q46 0 90 22.5t78 68.5t48 113l63 296h72l-117 -550h-70l26 121h-2q-38 -66 -92 -99.5t-117 -33.5q-73 0 -112.5 43zM278 755h49l50 -78h2l85 78h62l-133 -142h-44z
" />
    <glyph glyph-name="uni01E4" unicode="&#x1e4;" horiz-adv-x="767" 
d="M177 23q-61 35 -93.5 100t-32.5 153q0 112 50 212t145 162t222 62q92 0 155 -32.5t93.5 -87t28.5 -120.5h-77q3 48 -19.5 88t-68.5 64t-111 24q-99 0 -177 -54t-120.5 -140t-42.5 -178q0 -107 58 -165.5t155 -58.5q82 0 152 40.5t114 109.5h-250l14 63h269q14 35 19 63
h-275l14 65h287q17 0 26.5 -8t9.5 -22q0 -4 -2 -12l-18 -86h56l-13 -63h-56l-43 -202h-71l52 172h-2q-51 -86 -128.5 -135t-175.5 -49q-83 0 -144 35z" />
    <glyph glyph-name="uni01E5" unicode="&#x1e5;" horiz-adv-x="566" 
d="M-1.5 -169q-37.5 31 -37.5 84q0 51 34 87.5t94 49.5v2q-27 8 -42.5 28t-15.5 49q0 38 27.5 62.5t71.5 23.5h31v2q-42 16 -65 50t-23 83q0 60 33.5 108t90 75t123.5 27q55 0 97.5 -19t65.5 -53h2q10 31 28.5 45.5t46.5 14.5h35l-13 -62h-37q-16 0 -28.5 -8.5t-17.5 -21.5
q9 -24 9 -51h57l-13 -61h-53q-22 -69 -90 -111.5t-156 -42.5h-84q-38 0 -57 -15t-19 -36q0 -19 13.5 -31t38.5 -12h192q67 0 105 -34t38 -94q0 -50 -26.5 -89t-72 -60t-101.5 -21h-172q-72 0 -109.5 31zM48 -122.5q23 -18.5 70 -18.5h163q60 0 95.5 31.5t35.5 75.5
q0 33 -22 52.5t-68 19.5h-166q-43 0 -72.5 -16t-44 -41t-14.5 -52q0 -33 23 -51.5zM173 279q33 -27 90 -27q55 0 101 25.5t65 68.5h-145l13 61h144q-3 45 -36 70t-87 25q-48 0 -89 -19t-65 -53t-24 -76q0 -48 33 -75z" />
    <glyph glyph-name="Gcaron" unicode="&#x1e6;" horiz-adv-x="762" 
d="M121.5 62.5q-71.5 74.5 -71.5 207.5q0 111 51 213t145.5 165.5t220.5 63.5q86 0 147 -31t92 -84.5t31 -121.5q0 -22 -3 -43h-75q3 18 3 36q0 81 -53 130.5t-147 49.5q-102 0 -178.5 -56.5t-117 -144t-40.5 -176.5q0 -107 56 -163t151 -56q75 0 137 33t104 83t61 103h-263
l14 65h282q18 0 28 -9.5t10 -25.5q0 -8 -1 -12l-61 -289h-71l53 172h-3q-49 -84 -128 -134t-179 -50q-123 0 -194.5 74.5zM386 905h49l50 -78h2l85 78h62l-133 -142h-44z" />
    <glyph glyph-name="gcaron" unicode="&#x1e7;" horiz-adv-x="566" 
d="M-1.5 -169q-37.5 31 -37.5 84q0 51 34 87.5t94 49.5v2q-27 8 -42.5 28t-15.5 49q0 38 27.5 62.5t71.5 23.5h31v2q-42 16 -65 50t-23 83q0 60 33.5 108t90 75t123.5 27q55 0 97.5 -19t65.5 -53h2q10 31 28.5 45.5t46.5 14.5h35l-13 -62h-37q-16 0 -28.5 -8.5t-17.5 -21.5
q9 -25 9 -55q0 -60 -34.5 -108.5t-93 -75.5t-127.5 -27h-84q-38 0 -57 -15t-19 -36q0 -19 13.5 -31t38.5 -12h192q67 0 105 -34t38 -94q0 -50 -26.5 -89t-72 -60t-101.5 -21h-172q-72 0 -109.5 31zM48 -122.5q23 -18.5 70 -18.5h163q60 0 95.5 31.5t35.5 75.5q0 33 -22 52.5
t-68 19.5h-166q-42 0 -71.5 -16t-44.5 -41t-15 -52q0 -33 23 -51.5zM173 279q33 -27 90 -27q47 0 88 19t65.5 52.5t24.5 75.5q0 48 -33 75.5t-90 27.5q-48 0 -89 -19t-65 -53t-24 -76q0 -48 33 -75zM271 755h49l50 -78h2l85 78h62l-133 -142h-44z" />
    <glyph glyph-name="uni01EA" unicode="&#x1ea;" horiz-adv-x="763" 
d="M420.5 -162q-28.5 21 -28.5 59q0 28 15 55.5t39 51.5v2q-55 -18 -118 -18q-81 0 -144 32.5t-98.5 96.5t-35.5 155q0 115 55.5 216.5t152 162.5t211.5 61q82 0 145 -32.5t98 -96.5t35 -155q0 -116 -57.5 -218.5t-153.5 -162.5q-92 -58 -92 -117q0 -27 18 -41t51 -14h11
l-13 -58h-12q-50 0 -78.5 21zM182 106.5q56 -54.5 149 -54.5q96 0 174 55t122 143.5t44 182.5q0 107 -56.5 161t-148.5 54q-96 0 -174 -55.5t-122 -144t-44 -182.5q0 -105 56 -159.5z" />
    <glyph glyph-name="uni01EB" unicode="&#x1eb;" horiz-adv-x="616" 
d="M344 -160.5q-29 22.5 -29 61.5q0 29 16 57.5t44 51.5v1q-55 -23 -120 -23q-101 0 -162 59.5t-61 166.5q0 88 42 168.5t117 130t169 49.5q101 0 162.5 -59.5t61.5 -166.5q0 -85 -38 -162t-105 -126q-74 -60 -74 -115q0 -27 18.5 -42t51.5 -15h11l-12 -59h-12
q-51 0 -80 22.5zM147 89q42 -41 112 -41q74 0 131.5 44t89 112.5t31.5 139.5q0 76 -42.5 117t-111.5 41q-74 0 -131.5 -43.5t-89 -112t-31.5 -139.5q0 -77 42 -118z" />
    <glyph glyph-name="AEacute" unicode="&#x1fc;" horiz-adv-x="903" 
d="M436 196h-266v1l-128 -197h-83l466 700h537l-14 -65h-343l-54 -252h305l-14 -65h-305l-54 -253h345l-14 -65h-419zM450 261l80 374h-74l-244 -374h238zM660 905h81l-117 -142h-63z" />
    <glyph glyph-name="aeacute" unicode="&#x1fd;" horiz-adv-x="966" 
d="M64.5 30q-46.5 42 -46.5 117q0 83 57 131.5t160 48.5h110q59 0 87 25.5t28 65.5t-30 62t-87 22q-69 0 -115.5 -33.5t-62.5 -96.5h-77q24 92 90 141t161 49q79 0 124 -33t45 -96h2q45 63 103.5 96t127.5 33q62 0 107 -26t68.5 -72.5t23.5 -104.5q0 -33 -7 -64l-8 -41h-425
q-5 -30 -5 -53q0 -69 34.5 -111t104.5 -42q63 0 113 35t76 86h78q-34 -83 -105.5 -132t-160.5 -49q-85 0 -136.5 47t-60.5 127h-3q-39 -84 -106 -129t-143 -45q-75 0 -121.5 42zM119.5 76q29.5 -28 83.5 -28q48 0 94.5 24t82.5 73t52 120l13 62l-2 -1q-17 -29 -47.5 -44
t-82.5 -15h-73q-79 0 -114.5 -33t-35.5 -83q0 -47 29.5 -75zM863 314q4 21 4 48q0 62 -31.5 101t-98.5 39q-82 0 -141.5 -55t-82.5 -133h350zM623 755h81l-117 -142h-63z" />
    <glyph glyph-name="Oslashacute" unicode="&#x1fe;" horiz-adv-x="763" 
d="M701 601q46 -71 46 -173q0 -114 -55.5 -215.5t-151.5 -163t-212 -61.5q-59 0 -110 18t-88 52l-61 -58h-76v2l103 98q-46 70 -46 172q0 115 55.5 216.5t152 162.5t211.5 61q122 0 197 -70l61 58h75l1 -2zM150 151l465 442q-55 55 -149 55q-96 0 -174 -55.5t-122 -144
t-44 -182.5q0 -65 24 -115zM331 52q96 0 174 55t122 143.5t44 182.5q0 66 -24 116l-466 -442q55 -55 150 -55zM553 905h81l-117 -142h-63z" />
    <glyph glyph-name="oslashacute" unicode="&#x1ff;" horiz-adv-x="616" 
d="M29 2l52 59q-49 58 -49 153q0 88 42 168.5t117 130t169 49.5q77 0 132 -35l21 23h71v-2l-50 -57q50 -59 50 -155q0 -89 -42 -169.5t-117.5 -129.5t-169.5 -49q-79 0 -133 36l-22 -24h-71v2zM128 114l321 363q-37 25 -92 25q-74 0 -131.5 -43.5t-89 -112t-31.5 -139.5
q0 -56 23 -93zM259 48q74 0 131.5 44t89 112.5t31.5 139.5q0 56 -24 94l-322 -364q40 -26 94 -26zM447 755h81l-117 -142h-63z" />
    <glyph glyph-name="uni0218" unicode="&#x218;" horiz-adv-x="634" 
d="M155 15.5q-58 27.5 -88.5 76.5t-30.5 112q0 19 3 38h72q-2 -20 -2 -30q0 -74 50.5 -117t137.5 -43q60 0 105.5 21t71 58t25.5 85q0 54 -34 82t-108 28h-62q-94 0 -145 43t-51 120q0 64 35 115t97.5 79.5t143.5 28.5q112 0 176.5 -53.5t64.5 -146.5q0 -19 -3 -40h-72
q2 22 2 31q0 68 -42.5 106.5t-129.5 38.5q-64 0 -109 -21.5t-67 -57t-22 -77.5q0 -49 31 -72t96 -23h62q104 0 157.5 -48.5t53.5 -130.5q0 -68 -36 -120.5t-99.5 -81t-144.5 -28.5q-80 0 -138 27.5zM217.5 -162q11.5 9 16.5 28l1 5h-37l15 72h70l-16 -73q-8 -39 -30 -56
t-62 -17l7 32q24 0 35.5 9z" />
    <glyph glyph-name="uni0219" unicode="&#x219;" horiz-adv-x="522" 
d="M114 13.5q-50 25.5 -74 69.5t-19 99h73q-1 -5 -1 -15q0 -54 38.5 -86.5t103.5 -32.5q66 0 107.5 33.5t41.5 85.5q0 39 -25.5 61.5t-78.5 22.5h-45q-76 0 -118 36.5t-42 99.5q0 51 27.5 90.5t77 62t113.5 22.5q69 0 115 -26.5t66 -69.5t15 -94h-73l1 16q0 52 -31 83
t-95 31q-67 0 -105.5 -32.5t-38.5 -79.5q0 -35 23 -54t68 -19h51q79 0 123 -39.5t44 -106.5q0 -53 -27.5 -94.5t-78 -65t-117.5 -23.5q-69 0 -119 25.5zM162.5 -162q11.5 9 16.5 28l1 5h-37l15 72h70l-16 -73q-8 -39 -30 -56t-62 -17l7 32q24 0 35.5 9z" />
    <glyph glyph-name="uni021A" unicode="&#x21a;" horiz-adv-x="597" 
d="M337 637h-244l14 63h563l-13 -63h-244l-136 -637h-75zM199.5 -162q11.5 9 16.5 28l1 5h-37l15 72h70l-16 -73q-8 -39 -30 -56t-62 -17l7 32q24 0 35.5 9z" />
    <glyph glyph-name="uni021B" unicode="&#x21b;" horiz-adv-x="410" 
d="M131 27q-28 27 -28 73q0 18 4 34l75 354h-117l13 62h117l32 150h72l-32 -150h177l-14 -62h-176l-78 -363q-3 -13 -3 -23q0 -21 13 -30.5t42 -9.5h117l-13 -62h-120q-53 0 -81 27zM160.5 -162q11.5 9 16.5 28l1 5h-37l15 72h70l-16 -73q-8 -39 -30 -56t-62 -17l7 32
q24 0 35.5 9z" />
    <glyph glyph-name="uni0232" unicode="&#x232;" 
d="M261 285l-156 415h79l121 -351h2l268 351h95l-334 -415l-62 -285h-75zM283 867h277l-13 -62h-277z" />
    <glyph glyph-name="uni0233" unicode="&#x233;" horiz-adv-x="521" 
d="M-74 -138h139l106 168l-98 520h73l74 -438h2l260 438h83l-439 -719q-11 -18 -23 -24.5t-33 -6.5h-157zM214 717h277l-13 -62h-277z" />
    <glyph glyph-name="uni0237" unicode="&#x237;" horiz-adv-x="226" 
d="M-112 -139h35q34 0 54 18.5t28 59.5l130 611h72l-134 -628q-12 -58 -48 -90t-93 -32h-57z" />
    <glyph glyph-name="uni0259" unicode="&#x259;" horiz-adv-x="598" 
d="M84 44.5q-58 56.5 -58 147.5q0 32 7 63l9 41h447q4 23 4 48q0 71 -37 114.5t-111 43.5q-67 0 -120 -35t-81 -86h-79q35 83 110.5 132t169.5 49q104 0 162.5 -60t58.5 -165q0 -90 -41.5 -170.5t-115.5 -129.5t-166 -49q-101 0 -159 56.5zM99 188q0 -61 35.5 -100.5
t109.5 -39.5q56 0 103.5 26t80 69t47.5 93h-371q-5 -27 -5 -48z" />
    <glyph glyph-name="uni0272" unicode="&#x272;" horiz-adv-x="602" 
d="M-109 -139h34q31 0 52 19t29 53l131 617h70l-26 -122h2q38 66 92.5 100t117.5 34q73 0 113 -43.5t40 -117.5q0 -34 -7 -66l-71 -335h-72l71 331q7 34 7 63q0 106 -102 106q-47 0 -91 -22.5t-78 -68.5t-48 -113l-78 -366q-13 -59 -52 -94.5t-102 -35.5h-45z" />
    <glyph glyph-name="uni0292" unicode="&#x292;" horiz-adv-x="554" 
d="M76 -183.5q-56 29.5 -85 84t-24 126.5h72q-5 -78 38.5 -128.5t129.5 -50.5q61 0 105.5 26.5t68 71t23.5 98.5q0 73 -46 110t-126 37h-73l12 60l255 233v2h-345l14 64h445l-13 -63l-257 -233v-2q94 -5 150.5 -60t56.5 -147q0 -68 -32 -127t-93 -95t-145 -36
q-75 0 -131 29.5z" />
    <glyph glyph-name="circumflex" unicode="&#x2c6;" horiz-adv-x="301" 
d="M232 755h43l72 -142h-49l-52 78h-2l-84 -78h-61z" />
    <glyph glyph-name="caron" unicode="&#x2c7;" horiz-adv-x="303" 
d="M129 755h49l50 -78h2l85 78h62l-133 -142h-44z" />
    <glyph glyph-name="breve" unicode="&#x2d8;" horiz-adv-x="286" 
d="M148.5 641q-27.5 28 -27.5 76q0 21 4 38h54q-4 -17 -4 -35q0 -57 51 -57q32 0 54 23.5t32 68.5h54q-14 -66 -50.5 -104t-91.5 -38q-48 0 -75.5 28z" />
    <glyph glyph-name="dotaccent" unicode="&#x2d9;" horiz-adv-x="120" 
d="M121 733h73l-17 -77h-73z" />
    <glyph glyph-name="ring" unicode="&#x2da;" horiz-adv-x="209" 
d="M132 627.5q-21 21.5 -21 53.5q0 36 26.5 61.5t63.5 25.5q33 0 53.5 -21t20.5 -53q0 -36 -26.5 -62t-62.5 -26q-33 0 -54 21.5zM163.5 658.5q9.5 -9.5 25.5 -9.5q18 0 30.5 12.5t12.5 30.5q0 15 -9 24t-25 9q-19 0 -31.5 -12t-12.5 -30q0 -15 9.5 -24.5z" />
    <glyph glyph-name="ogonek" unicode="&#x2db;" horiz-adv-x="163" 
d="M79 -125l-12 -58h-9q-53 0 -81.5 23t-28.5 62q0 30 18 56t51 41v6l21 2l30 -6l-6 -4q-27 -4 -46 -25t-19 -46q0 -24 18 -37.5t55 -13.5h9z" />
    <glyph glyph-name="tilde" unicode="&#x2dc;" horiz-adv-x="427" 
d="M308.5 629q-19.5 13 -39.5 37q-15 18 -27.5 27t-29.5 9q-22 0 -37.5 -16.5t-21.5 -46.5l-3 -15h-56l5 23q11 51 41 80t76 29q33 0 52.5 -13t39.5 -37q15 -18 27.5 -27t29.5 -9q22 0 37.5 16.5t21.5 46.5l3 15h56l-5 -23q-11 -51 -41 -80t-76 -29q-33 0 -52.5 13z" />
    <glyph glyph-name="hungarumlaut" unicode="&#x2dd;" horiz-adv-x="327" 
d="M322 755h82l-117 -142h-64zM194 755h82l-117 -142h-64z" />
    <glyph glyph-name="gravecomb" unicode="&#x300;" horiz-adv-x="0" 
d="M119 755h74l39 -142h-52z" />
    <glyph glyph-name="acutecomb" unicode="&#x301;" horiz-adv-x="0" 
d="M188 755h81l-117 -142h-63z" />
    <glyph glyph-name="uni0302" unicode="&#x302;" horiz-adv-x="0" 
d="M232 755h43l72 -142h-49l-52 78h-2l-84 -78h-61z" />
    <glyph glyph-name="tildecomb" unicode="&#x303;" horiz-adv-x="0" 
d="M308.5 629q-19.5 13 -39.5 37q-15 18 -27.5 27t-29.5 9q-22 0 -37.5 -16.5t-21.5 -46.5l-3 -15h-56l5 23q11 51 41 80t76 29q33 0 52.5 -13t39.5 -37q15 -18 27.5 -27t29.5 -9q22 0 37.5 16.5t21.5 46.5l3 15h56l-5 -23q-11 -51 -41 -80t-76 -29q-33 0 -52.5 13z" />
    <glyph glyph-name="uni0304" unicode="&#x304;" horiz-adv-x="0" 
d="M117 717h277l-13 -62h-277z" />
    <glyph glyph-name="uni0306" unicode="&#x306;" horiz-adv-x="0" 
d="M148.5 641q-27.5 28 -27.5 76q0 21 4 38h54q-4 -17 -4 -35q0 -57 51 -57q32 0 54 23.5t32 68.5h54q-14 -66 -50.5 -104t-91.5 -38q-48 0 -75.5 28z" />
    <glyph glyph-name="uni0307" unicode="&#x307;" horiz-adv-x="0" 
d="M121 733h73l-17 -77h-73z" />
    <glyph glyph-name="uni0308" unicode="&#x308;" horiz-adv-x="0" 
d="M134 733h73l-16 -77h-74zM263 733h74l-17 -77h-73z" />
    <glyph glyph-name="uni030A" unicode="&#x30a;" horiz-adv-x="0" 
d="M132 627.5q-21 21.5 -21 53.5q0 36 26.5 61.5t63.5 25.5q33 0 53.5 -21t20.5 -53q0 -36 -26.5 -62t-62.5 -26q-33 0 -54 21.5zM163.5 658.5q9.5 -9.5 25.5 -9.5q18 0 30.5 12.5t12.5 30.5q0 15 -9 24t-25 9q-19 0 -31.5 -12t-12.5 -30q0 -15 9.5 -24.5z" />
    <glyph glyph-name="uni030B" unicode="&#x30b;" horiz-adv-x="0" 
d="M322 755h82l-117 -142h-64zM194 755h82l-117 -142h-64z" />
    <glyph glyph-name="uni030C" unicode="&#x30c;" horiz-adv-x="0" 
d="M129 755h49l50 -78h2l85 78h62l-133 -142h-44z" />
    <glyph glyph-name="uni0312" unicode="&#x312;" horiz-adv-x="0" 
d="M201.5 718q-11.5 -9 -15.5 -29l-1 -5h36l-15 -72h-70l16 74q8 39 30.5 56t61.5 17l-7 -32q-24 0 -35.5 -9z" />
    <glyph glyph-name="uni0326" unicode="&#x326;" horiz-adv-x="0" 
d="M-8.5 -162q11.5 9 16.5 28l1 5h-37l15 72h70l-16 -73q-8 -39 -30 -56t-62 -17l7 32q24 0 35.5 9z" />
    <glyph glyph-name="uni0327" unicode="&#x327;" horiz-adv-x="0" 
d="M-74 -183l11 51h72q22 0 33.5 8.5t11.5 23.5q0 13 -9 20t-23 7h-25l21 95h45l-13 -62q31 -2 48 -19t17 -44q0 -35 -27 -57.5t-78 -22.5h-84z" />
    <glyph glyph-name="uni0328" unicode="&#x328;" horiz-adv-x="0" 
d="M79 -125l-12 -58h-9q-53 0 -81.5 23t-28.5 62q0 30 18 56t51 41v6l21 2l30 -6l-6 -4q-27 -4 -46 -25t-19 -46q0 -24 18 -37.5t55 -13.5h9z" />
    <glyph glyph-name="uni0394" unicode="&#x394;" horiz-adv-x="638" 
d="M-22 59l392 644h78l120 -644l-11 -59h-591zM497 62v2l-99 562h-1l-336 -562v-2h436z" />
    <glyph glyph-name="uni03A9" unicode="&#x3a9;" horiz-adv-x="754" 
d="M19 62h194v3q-150 95 -150 258q0 100 51.5 189.5t143 144.5t203.5 55q86 0 149 -33t96 -92.5t33 -137.5q0 -123 -73 -226t-209 -159v-2h190l-14 -62h-243l11 70q116 68 189 168.5t73 209.5q0 93 -57 147.5t-149 54.5q-91 0 -164.5 -49t-115 -129t-41.5 -167
q0 -69 30.5 -128t93.5 -114l-10 -63h-244z" />
    <glyph glyph-name="uni03BC" unicode="&#x3bc;" horiz-adv-x="611" 
d="M136 550h72l-78 -368q-4 -17 -4 -36q0 -46 27.5 -71t74.5 -25q46 0 89.5 23.5t75.5 68.5t45 106l64 302h72l-97 -456q-1 -5 -1 -12q0 -10 6 -15t20 -5h45l-15 -62h-60q-31 0 -48.5 17.5t-17.5 45.5q0 13 2 20l9 43h-2q-34 -69 -83.5 -103.5t-104.5 -34.5q-49 0 -80.5 26
t-36.5 69h-2l-53 -253h-72z" />
    <glyph glyph-name="pi" unicode="&#x3c0;" horiz-adv-x="565" 
d="M165 488h-100l13 62h525l-14 -62h-99l-84 -394q-1 -4 -1 -12q0 -10 6 -15t20 -5h43l-13 -62h-63q-32 0 -50 17t-18 46q0 12 3 24l86 401h-183l-103 -489h-72z" />
    <glyph glyph-name="uni1E20" unicode="&#x1e20;" horiz-adv-x="762" 
d="M121.5 62.5q-71.5 74.5 -71.5 207.5q0 111 51 213t145.5 165.5t220.5 63.5q86 0 147 -31t92 -84.5t31 -121.5q0 -22 -3 -43h-75q3 18 3 36q0 81 -53 130.5t-147 49.5q-102 0 -178.5 -56.5t-117 -144t-40.5 -176.5q0 -107 56 -163t151 -56q75 0 137 33t104 83t61 103h-263
l14 65h282q18 0 28 -9.5t10 -25.5q0 -8 -1 -12l-61 -289h-71l53 172h-3q-49 -84 -128 -134t-179 -50q-123 0 -194.5 74.5zM362 867h277l-13 -62h-277z" />
    <glyph glyph-name="uni1E21" unicode="&#x1e21;" horiz-adv-x="566" 
d="M-1.5 -169q-37.5 31 -37.5 84q0 51 34 87.5t94 49.5v2q-27 8 -42.5 28t-15.5 49q0 38 27.5 62.5t71.5 23.5h31v2q-42 16 -65 50t-23 83q0 60 33.5 108t90 75t123.5 27q55 0 97.5 -19t65.5 -53h2q10 31 28.5 45.5t46.5 14.5h35l-13 -62h-37q-16 0 -28.5 -8.5t-17.5 -21.5
q9 -25 9 -55q0 -60 -34.5 -108.5t-93 -75.5t-127.5 -27h-84q-38 0 -57 -15t-19 -36q0 -19 13.5 -31t38.5 -12h192q67 0 105 -34t38 -94q0 -50 -26.5 -89t-72 -60t-101.5 -21h-172q-72 0 -109.5 31zM48 -122.5q23 -18.5 70 -18.5h163q60 0 95.5 31.5t35.5 75.5q0 33 -22 52.5
t-68 19.5h-166q-42 0 -71.5 -16t-44.5 -41t-15 -52q0 -33 23 -51.5zM173 279q33 -27 90 -27q47 0 88 19t65.5 52.5t24.5 75.5q0 48 -33 75.5t-90 27.5q-48 0 -89 -19t-65 -53t-24 -76q0 -48 33 -75zM246 717h277l-13 -62h-277z" />
    <glyph glyph-name="Wgrave" unicode="&#x1e80;" horiz-adv-x="922" 
d="M103 700h74l40 -611h2l285 611h94l23 -611h2l294 611h82l-350 -700h-88l-26 612h-2l-286 -612h-87zM478 905h74l39 -142h-52z" />
    <glyph glyph-name="wgrave" unicode="&#x1e81;" horiz-adv-x="733" 
d="M71 550h72l21 -463h2l214 463h85l17 -463h2l214 463h79l-270 -550h-82l-19 453h-2l-213 -453h-81zM350 755h74l39 -142h-52z" />
    <glyph glyph-name="Wacute" unicode="&#x1e82;" horiz-adv-x="922" 
d="M103 700h74l40 -611h2l285 611h94l23 -611h2l294 611h82l-350 -700h-88l-26 612h-2l-286 -612h-87zM632 905h81l-117 -142h-63z" />
    <glyph glyph-name="wacute" unicode="&#x1e83;" horiz-adv-x="733" 
d="M71 550h72l21 -463h2l214 463h85l17 -463h2l214 463h79l-270 -550h-82l-19 453h-2l-213 -453h-81zM505 755h81l-117 -142h-63z" />
    <glyph glyph-name="Wdieresis" unicode="&#x1e84;" horiz-adv-x="922" 
d="M103 700h74l40 -611h2l285 611h94l23 -611h2l294 611h82l-350 -700h-88l-26 612h-2l-286 -612h-87zM489 883h73l-16 -77h-74zM618 883h74l-17 -77h-73z" />
    <glyph glyph-name="wdieresis" unicode="&#x1e85;" horiz-adv-x="733" 
d="M71 550h72l21 -463h2l214 463h85l17 -463h2l214 463h79l-270 -550h-82l-19 453h-2l-213 -453h-81zM362 733h73l-16 -77h-74zM491 733h74l-17 -77h-73z" />
    <glyph glyph-name="uni1E9E" unicode="&#x1e9e;" horiz-adv-x="835" 
d="M355.5 14.5q-57.5 26.5 -88.5 75.5t-31 115q0 24 2 37h73q-2 -20 -2 -29q0 -74 48 -117.5t132 -43.5q60 0 109 22.5t77 61t28 85.5q0 106 -147 106h-37q-88 0 -137 39t-49 107q0 53 31.5 95.5t89.5 64.5v2h-126q-96 0 -118 -102l-113 -533h-74l113 533q17 80 68 123.5
t137 43.5h477l-14 -65h-198q-63 0 -108.5 -19.5t-68.5 -53t-23 -74.5q0 -47 30.5 -69.5t93.5 -22.5h37q107 0 158 -44t51 -124q0 -71 -37 -125.5t-102 -84.5t-147 -30q-77 0 -134.5 26.5z" />
    <glyph glyph-name="uni1EA0" unicode="&#x1ea0;" horiz-adv-x="636" 
d="M369 700h78l115 -700h-72l-30 196h-307l-113 -196h-81zM450 260l-27 176l-12 80q-11 75 -16 104h-2q-40 -74 -108 -194l-95 -166h260zM212 -56h75l-17 -77h-75z" />
    <glyph glyph-name="uni1EA1" unicode="&#x1ea1;" horiz-adv-x="582" 
d="M307.5 23q-56.5 -35 -121.5 -35q-74 0 -121 42.5t-47 116.5q0 82 57.5 131t160.5 49h106q57 0 85.5 25.5t28.5 65.5t-28.5 62t-84.5 22q-69 0 -115.5 -33.5t-62.5 -96.5h-77q24 91 92 140.5t164 49.5q85 0 134.5 -38.5t49.5 -108.5q0 -18 -5 -45l-59 -276q-2 -10 -2 -13
q0 -10 6.5 -14.5t20.5 -4.5h29l-13 -62h-46q-34 0 -51 15.5t-17 44.5q0 15 2 23l10 48h-2q-37 -73 -93.5 -108zM121 76.5q31 -28.5 84 -28.5q48 0 93 23.5t79.5 71t49.5 116.5l15 68h-2q-17 -29 -47.5 -44.5t-82.5 -15.5h-69q-79 0 -115 -33t-36 -82q0 -47 31 -75.5z
M184 -56h75l-17 -77h-75z" />
    <glyph glyph-name="uni1EAC" unicode="&#x1eac;" horiz-adv-x="636" 
d="M369 700h78l115 -700h-72l-30 196h-307l-113 -196h-81zM450 260l-27 176l-12 80q-11 75 -16 104h-2q-40 -74 -108 -194l-95 -166h260zM212 -56h75l-17 -77h-75zM426 905h43l72 -142h-49l-52 78h-2l-84 -78h-61z" />
    <glyph glyph-name="uni1EAD" unicode="&#x1ead;" horiz-adv-x="582" 
d="M307.5 23q-56.5 -35 -121.5 -35q-74 0 -121 42.5t-47 116.5q0 82 57.5 131t160.5 49h106q57 0 85.5 25.5t28.5 65.5t-28.5 62t-84.5 22q-69 0 -115.5 -33.5t-62.5 -96.5h-77q24 91 92 140.5t164 49.5q85 0 134.5 -38.5t49.5 -108.5q0 -18 -5 -45l-59 -276q-2 -10 -2 -13
q0 -10 6.5 -14.5t20.5 -4.5h29l-13 -62h-46q-34 0 -51 15.5t-17 44.5q0 15 2 23l10 48h-2q-37 -73 -93.5 -108zM121 76.5q31 -28.5 84 -28.5q48 0 93 23.5t79.5 71t49.5 116.5l15 68h-2q-17 -29 -47.5 -44.5t-82.5 -15.5h-69q-79 0 -115 -33t-36 -82q0 -47 31 -75.5z
M184 -56h75l-17 -77h-75zM370 755h43l72 -142h-49l-52 78h-2l-84 -78h-61z" />
    <glyph glyph-name="uni1EB8" unicode="&#x1eb8;" 
d="M172 700h476l-14 -65h-401l-52 -249h362l-14 -64h-362l-55 -257h402l-14 -65h-477zM215 -56h75l-17 -77h-75z" />
    <glyph glyph-name="uni1EB9" unicode="&#x1eb9;" horiz-adv-x="596" 
d="M90.5 48q-58.5 60 -58.5 165q0 90 41.5 170.5t115.5 129.5t166 49q101 0 159 -56.5t58 -147.5q0 -32 -7 -63l-9 -41h-447q-4 -23 -4 -48q0 -71 37 -114.5t111 -43.5q67 0 120 35t81 86h79q-35 -83 -110.5 -132t-169.5 -49q-104 0 -162.5 60zM494 314q5 27 5 48
q0 61 -35.5 100.5t-109.5 39.5q-56 0 -103.5 -26t-80 -69t-47.5 -93h371zM190 -56h75l-17 -77h-75z" />
    <glyph glyph-name="uni1EBC" unicode="&#x1ebc;" 
d="M172 700h476l-14 -65h-401l-52 -249h362l-14 -64h-362l-55 -257h402l-14 -65h-477zM458.5 779q-19.5 13 -39.5 37q-15 18 -27.5 27t-29.5 9q-22 0 -37.5 -16.5t-21.5 -46.5l-3 -15h-56l5 23q11 51 41 80t76 29q33 0 52.5 -13t39.5 -37q15 -18 27.5 -27t29.5 -9
q22 0 37.5 16.5t21.5 46.5l3 15h56l-5 -23q-11 -51 -41 -80t-76 -29q-33 0 -52.5 13z" />
    <glyph glyph-name="uni1EBD" unicode="&#x1ebd;" horiz-adv-x="596" 
d="M90.5 48q-58.5 60 -58.5 165q0 90 41.5 170.5t115.5 129.5t166 49q101 0 159 -56.5t58 -147.5q0 -32 -7 -63l-9 -41h-447q-4 -23 -4 -48q0 -71 37 -114.5t111 -43.5q67 0 120 35t81 86h79q-35 -83 -110.5 -132t-169.5 -49q-104 0 -162.5 60zM494 314q5 27 5 48
q0 61 -35.5 100.5t-109.5 39.5q-56 0 -103.5 -26t-80 -69t-47.5 -93h371zM402.5 629q-19.5 13 -39.5 37q-15 18 -27.5 27t-29.5 9q-22 0 -37.5 -16.5t-21.5 -46.5l-3 -15h-56l5 23q11 51 41 80t76 29q33 0 52.5 -13t39.5 -37q15 -18 27.5 -27t29.5 -9q22 0 37.5 16.5
t21.5 46.5l3 15h56l-5 -23q-11 -51 -41 -80t-76 -29q-33 0 -52.5 13z" />
    <glyph glyph-name="uni1ECA" unicode="&#x1eca;" horiz-adv-x="238" 
d="M172 700h75l-149 -700h-75zM13 -56h75l-17 -77h-75z" />
    <glyph glyph-name="uni1ECB" unicode="&#x1ecb;" horiz-adv-x="228" 
d="M137 550h72l-117 -550h-72zM-16 -56h75l-17 -77h-75zM175 733h73l-17 -77h-73z" />
    <glyph glyph-name="uni1ECC" unicode="&#x1ecc;" horiz-adv-x="763" 
d="M184 20.5q-63 32.5 -98.5 96.5t-35.5 155q0 115 55.5 216.5t152 162.5t211.5 61q82 0 145 -32.5t98 -96.5t35 -155q0 -114 -55.5 -215.5t-151.5 -163t-212 -61.5q-81 0 -144 32.5zM182 106.5q56 -54.5 149 -54.5q96 0 174 55t122 143.5t44 182.5q0 107 -56.5 161
t-148.5 54q-96 0 -174 -55.5t-122 -144t-44 -182.5q0 -105 56 -159.5zM275 -56h75l-17 -77h-75z" />
    <glyph glyph-name="uni1ECD" unicode="&#x1ecd;" horiz-adv-x="616" 
d="M93 47.5q-61 59.5 -61 166.5q0 88 42 168.5t117 130t169 49.5q101 0 162.5 -59.5t61.5 -166.5q0 -89 -42 -169.5t-117.5 -129.5t-169.5 -49q-101 0 -162 59.5zM147 89q42 -41 112 -41q74 0 131.5 44t89 112.5t31.5 139.5q0 76 -42.5 117t-111.5 41q-74 0 -131.5 -43.5
t-89 -112t-31.5 -139.5q0 -77 42 -118zM201 -56h75l-17 -77h-75z" />
    <glyph glyph-name="uni1EE4" unicode="&#x1ee4;" horiz-adv-x="702" 
d="M138.5 48q-63.5 60 -63.5 165q0 37 9 79l87 408h74l-89 -422q-7 -32 -7 -65q0 -76 43 -118.5t115 -42.5q88 0 153.5 62.5t89.5 175.5l87 410h75l-90 -423q-31 -142 -115 -215.5t-199 -73.5q-106 0 -169.5 60zM244 -56h75l-17 -77h-75z" />
    <glyph glyph-name="uni1EE5" unicode="&#x1ee5;" horiz-adv-x="597" 
d="M93.5 31q-39.5 43 -39.5 118q0 34 7 66l71 335h72l-71 -331q-8 -40 -8 -65q0 -55 27.5 -79.5t74.5 -24.5q46 0 90 22.5t78 68.5t48 113l63 296h72l-117 -550h-70l26 121h-2q-38 -66 -92 -99.5t-117 -33.5q-73 0 -112.5 43zM191 -56h75l-17 -77h-75z" />
    <glyph glyph-name="Ygrave" unicode="&#x1ef2;" 
d="M261 285l-156 415h79l121 -351h2l268 351h95l-334 -415l-62 -285h-75zM313 905h74l39 -142h-52z" />
    <glyph glyph-name="ygrave" unicode="&#x1ef3;" horiz-adv-x="521" 
d="M-74 -138h139l106 168l-98 520h73l74 -438h2l260 438h83l-439 -719q-11 -18 -23 -24.5t-33 -6.5h-157zM244 755h74l39 -142h-52z" />
    <glyph glyph-name="uni1EF8" unicode="&#x1ef8;" 
d="M261 285l-156 415h79l121 -351h2l268 351h95l-334 -415l-62 -285h-75zM432.5 779q-19.5 13 -39.5 37q-15 18 -27.5 27t-29.5 9q-22 0 -37.5 -16.5t-21.5 -46.5l-3 -15h-56l5 23q11 51 41 80t76 29q33 0 52.5 -13t39.5 -37q15 -18 27.5 -27t29.5 -9q22 0 37.5 16.5
t21.5 46.5l3 15h56l-5 -23q-11 -51 -41 -80t-76 -29q-33 0 -52.5 13z" />
    <glyph glyph-name="uni1EF9" unicode="&#x1ef9;" horiz-adv-x="521" 
d="M-74 -138h139l106 168l-98 520h73l74 -438h2l260 438h83l-439 -719q-11 -18 -23 -24.5t-33 -6.5h-157zM364.5 629q-19.5 13 -39.5 37q-15 18 -27.5 27t-29.5 9q-22 0 -37.5 -16.5t-21.5 -46.5l-3 -15h-56l5 23q11 51 41 80t76 29q33 0 52.5 -13t39.5 -37q15 -18 27.5 -27
t29.5 -9q22 0 37.5 16.5t21.5 46.5l3 15h56l-5 -23q-11 -51 -41 -80t-76 -29q-33 0 -52.5 13z" />
    <glyph glyph-name="uni2000" unicode="&#x2000;" horiz-adv-x="500" 
 />
    <glyph glyph-name="uni2001" unicode="&#x2001;" horiz-adv-x="1000" 
 />
    <glyph glyph-name="uni2002" unicode="&#x2002;" horiz-adv-x="500" 
 />
    <glyph glyph-name="uni2003" unicode="&#x2003;" horiz-adv-x="1000" 
 />
    <glyph glyph-name="uni2004" unicode="&#x2004;" horiz-adv-x="333" 
 />
    <glyph glyph-name="uni2005" unicode="&#x2005;" horiz-adv-x="250" 
 />
    <glyph glyph-name="uni2006" unicode="&#x2006;" horiz-adv-x="166" 
 />
    <glyph glyph-name="uni2007" unicode="&#x2007;" horiz-adv-x="707" 
 />
    <glyph glyph-name="uni2008" unicode="&#x2008;" horiz-adv-x="222" 
 />
    <glyph glyph-name="uni2009" unicode="&#x2009;" horiz-adv-x="125" 
 />
    <glyph glyph-name="uni200A" unicode="&#x200a;" horiz-adv-x="70" 
 />
    <glyph glyph-name="uni200B" unicode="&#x200b;" horiz-adv-x="0" 
 />
    <glyph glyph-name="endash" unicode="&#x2013;" horiz-adv-x="700" 
d="M108 311h500l-13 -60h-500z" />
    <glyph glyph-name="emdash" unicode="&#x2014;" horiz-adv-x="1180" 
d="M108 311h980l-13 -60h-980z" />
    <glyph glyph-name="uni2015" unicode="&#x2015;" horiz-adv-x="1180" 
d="M108 311h980l-13 -60h-980z" />
    <glyph glyph-name="quoteleft" unicode="&#x2018;" horiz-adv-x="221" 
d="M167 579l-4 -21h44l-18 -86h-77l24 112q12 58 43 87t84 29l-7 -33q-70 0 -89 -88z" />
    <glyph glyph-name="quoteright" unicode="&#x2019;" horiz-adv-x="223" 
d="M186 593l4 21h-44l18 86h77l-24 -112q-12 -58 -43 -87t-84 -29l7 33q70 0 89 88z" />
    <glyph glyph-name="quotesinglbase" unicode="&#x201a;" horiz-adv-x="224" 
d="M58 -21l4 21h-44l18 86h77l-24 -112q-12 -58 -43 -87t-84 -29l7 33q70 0 89 88z" />
    <glyph glyph-name="quotedblleft" unicode="&#x201c;" horiz-adv-x="348" 
d="M294 579l-4 -21h44l-18 -86h-77l24 112q12 58 43 87t84 29l-7 -33q-70 0 -89 -88zM137 584q12 58 43 87t84 29l-7 -33q-70 0 -89 -88l-4 -21h44l-18 -86h-77z" />
    <glyph glyph-name="quotedblright" unicode="&#x201d;" horiz-adv-x="348" 
d="M185 593l4 21h-44l18 86h77l-24 -112q-12 -58 -43 -87t-84 -29l7 33q70 0 89 88zM312 593l4 21h-44l18 86h77l-24 -112q-12 -58 -43 -87t-84 -29l7 33q70 0 89 88z" />
    <glyph glyph-name="quotedblbase" unicode="&#x201e;" horiz-adv-x="351" 
d="M58 -21l4 21h-44l18 86h77l-24 -112q-12 -58 -43 -87t-84 -29l7 33q70 0 89 88zM185 -21l4 21h-44l18 86h77l-24 -112q-12 -58 -43 -87t-84 -29l7 33q70 0 89 88z" />
    <glyph glyph-name="dagger" unicode="&#x2020;" horiz-adv-x="435" 
d="M250 592h-139l13 62h140l31 146h69l-31 -146h139l-13 -62h-139l-77 -362h-70z" />
    <glyph glyph-name="daggerdbl" unicode="&#x2021;" horiz-adv-x="435" 
d="M204 376h-139l13 62h140l32 154h-139l13 62h140l31 146h69l-31 -146h139l-13 -62h-139l-33 -154h140l-13 -62h-140l-31 -146h-70z" />
    <glyph glyph-name="bullet" unicode="&#x2022;" horiz-adv-x="343" 
d="M90.5 179.5q-33.5 33.5 -33.5 81.5t33.5 81.5t81.5 33.5q47 0 80.5 -33.5t33.5 -81.5t-33.5 -81.5t-80.5 -33.5q-48 0 -81.5 33.5z" />
    <glyph glyph-name="ellipsis" unicode="&#x2026;" horiz-adv-x="569" 
d="M204 83h79l-18 -83h-78zM378 83h79l-18 -83h-78zM31 83h79l-18 -83h-78z" />
    <glyph glyph-name="uni202F" unicode="&#x202f;" horiz-adv-x="47" 
 />
    <glyph glyph-name="perthousand" unicode="&#x2030;" horiz-adv-x="1282" 
d="M751 700h76l-636 -700h-77zM144.5 602q25.5 50 71.5 80t104 30q62 0 100 -36t38 -104q0 -57 -26 -107t-72.5 -80t-104.5 -30q-61 0 -98.5 36t-37.5 104q0 57 25.5 107zM201.5 430q22.5 -23 59.5 -23q40 0 70.5 24t47.5 62t17 76q0 44 -22.5 67t-59.5 23q-39 0 -70 -24
t-48 -62t-17 -76q0 -44 22.5 -67zM508.5 234q25.5 50 71.5 80.5t104 30.5q62 0 100 -36.5t38 -104.5q0 -57 -26 -106.5t-72.5 -79.5t-104.5 -30q-61 0 -98.5 36t-37.5 104q0 56 25.5 106zM565.5 63q22.5 -23 59.5 -23q40 0 70.5 24t47.5 62t17 77q0 44 -22.5 66.5
t-59.5 22.5q-39 0 -70 -24.5t-48 -62t-17 -75.5q0 -44 22.5 -67zM898 234q26 50 72 80.5t104 30.5q62 0 100 -36.5t38 -104.5q0 -56 -26 -106t-72.5 -80t-104.5 -30q-61 0 -99 36t-38 104q0 56 26 106zM955.5 63q22.5 -23 59.5 -23q39 0 70 24t48 61.5t17 76.5
q0 44 -22.5 67t-59.5 23q-39 0 -70 -24.5t-48 -62t-17 -75.5q0 -44 22.5 -67z" />
    <glyph glyph-name="minute" unicode="&#x2032;" horiz-adv-x="237" 
d="M217 700l-102 -247h-51l84 247h69z" />
    <glyph glyph-name="second" unicode="&#x2033;" horiz-adv-x="380" 
d="M231 700l-102 -247h-52l85 247h69zM291 700h69l-102 -247h-51z" />
    <glyph glyph-name="guilsinglleft" unicode="&#x2039;" horiz-adv-x="312" 
d="M157 113q0 59 -29.5 97.5t-81.5 43.5l11 51q60 6 109.5 52t71.5 116h66q-23 -72 -75 -125.5t-115 -71.5l-1 -1q56 -16 85.5 -68.5t23.5 -120.5h-66q1 9 1 27z" />
    <glyph glyph-name="guilsinglright" unicode="&#x203a;" horiz-adv-x="312" 
d="M156 446q0 -59 29.5 -97.5t81.5 -43.5l-11 -51q-60 -6 -109.5 -52t-71.5 -116h-66q23 72 75 125.5t115 71.5l1 1q-56 16 -85.5 68.5t-23.5 120.5h66q-1 -9 -1 -27z" />
    <glyph glyph-name="uni203D" unicode="&#x203d;" horiz-adv-x="588" 
d="M252 415l30 140h78l-29 -140l-33 -126l2 1q17 33 56 50l17 8q63 26 102.5 77t39.5 111q0 55 -36 85.5t-104 30.5q-81 0 -136 -44.5t-76 -123.5h-75q25 107 102.5 167.5t186.5 60.5q101 0 155 -49.5t54 -126.5q0 -78 -55 -142.5t-137 -100.5l-52 -23q-30 -13 -43 -27.5
t-24 -50.5l-13 -47h-60zM180 80h80l-17 -80h-80z" />
    <glyph glyph-name="fraction" unicode="&#x2044;" horiz-adv-x="265" 
d="M434 700h64l-635 -700h-64z" />
    <glyph glyph-name="uni2070" unicode="&#x2070;" horiz-adv-x="274" 
d="M106.5 440q-23.5 26 -23.5 77q0 39 14 83t45 75t80 31q43 0 67 -26t24 -77q0 -39 -14 -83t-45.5 -75t-80.5 -31q-43 0 -66.5 26zM174 450q33 0 54.5 27.5t31.5 64.5t10 66q0 62 -49 62q-33 0 -54.5 -27.5t-31 -64.5t-9.5 -66q0 -62 48 -62z" />
    <glyph glyph-name="uni2074" unicode="&#x2074;" horiz-adv-x="247" 
d="M69 511l159 189h57l-40 -187h36l-7 -37h-37l-12 -56h-42l12 56h-133zM203 513l31 149h-1l-118 -148v-1h88z" />
    <glyph glyph-name="uni2075" unicode="&#x2075;" horiz-adv-x="259" 
d="M95 437.5q-25 23.5 -22 60.5h41q-1 -22 14 -35t39 -13q30 0 51 21t21 50q0 23 -13.5 36.5t-36.5 13.5q-33 0 -64 -29h-42l57 158h164l-8 -37h-131l-33 -91h1q31 34 72 34q34 0 56.5 -21t22.5 -59q0 -46 -33 -79t-86 -33q-45 0 -70 23.5z" />
    <glyph glyph-name="uni2076" unicode="&#x2076;" horiz-adv-x="271" 
d="M111 440q-27 27 -27 83q0 40 14.5 82.5t46 72t79.5 29.5q42 0 65.5 -23.5t19.5 -65.5h-42q1 4 1 12q0 19 -12 29.5t-34 10.5q-35 0 -59 -30t-33 -90h1q13 27 34.5 41t47.5 14q34 0 58 -23.5t24 -61.5q0 -47 -34.5 -77t-81.5 -30q-41 0 -68 27zM141 464q14 -14 39 -14
q30 0 50.5 19.5t20.5 48.5q0 23 -13.5 37t-38.5 14q-31 0 -51.5 -20t-20.5 -48q0 -23 14 -37z" />
    <glyph glyph-name="uni2077" unicode="&#x2077;" horiz-adv-x="204" 
d="M136 560q44 65 109 101v2h-152l8 37h186l-7 -35q-65 -44 -104.5 -107.5t-55.5 -137.5h-44q16 75 60 140z" />
    <glyph glyph-name="uni2078" unicode="&#x2078;" horiz-adv-x="260" 
d="M99 433.5q-27 19.5 -27 54.5q0 30 21.5 53t62.5 30v1q-22 6 -33.5 21t-11.5 35q0 33 29 55.5t73 22.5q38 0 62 -18t24 -48q0 -27 -19.5 -46.5t-53.5 -24.5v-1q26 -6 40.5 -22.5t14.5 -42.5q0 -38 -32 -63.5t-81 -25.5q-42 0 -69 19.5zM130.5 461q14.5 -11 38.5 -11
q31 0 49.5 16.5t18.5 40.5q0 22 -14.5 32.5t-38.5 10.5q-30 0 -49 -16.5t-19 -40.5q0 -21 14.5 -32zM165.5 597q11.5 -10 31.5 -10q24 0 41 14t17 34q0 17 -11.5 26t-32.5 9q-25 0 -41 -13t-16 -33q0 -17 11.5 -27z" />
    <glyph glyph-name="uni2079" unicode="&#x2079;" horiz-adv-x="271" 
d="M281 680q27 -27 27 -83q0 -40 -14.5 -82.5t-46 -72t-79.5 -29.5q-42 0 -65.5 23.5t-19.5 65.5h42q-1 -4 -1 -12q0 -19 12 -29.5t34 -10.5q35 0 59 30t33 90h-1q-13 -27 -34.5 -41t-47.5 -14q-34 0 -58 23.5t-24 61.5q0 47 34.5 77t81.5 30q41 0 68 -27zM154.5 565
q13.5 -14 38.5 -14q31 0 51.5 20t20.5 48q0 23 -14 37t-39 14q-30 0 -50.5 -19.5t-20.5 -48.5q0 -23 13.5 -37z" />
    <glyph glyph-name="uni207A" unicode="&#x207a;" horiz-adv-x="314" 
d="M195 541h-95l7 36h96l21 101h36l-21 -101h96l-8 -36h-95l-22 -99h-36z" />
    <glyph glyph-name="uni207B" unicode="&#x207b;" horiz-adv-x="294" 
d="M108 577h207l-8 -36h-207z" />
    <glyph glyph-name="uni207C" unicode="&#x207c;" horiz-adv-x="277" 
d="M119 629h190l-7 -36h-191zM98 530h190l-8 -36h-190z" />
    <glyph glyph-name="uni207D" unicode="&#x207d;" horiz-adv-x="145" 
d="M97 495q0 54 19 109.5t57 102.5h41q-38 -49 -56.5 -104.5t-18.5 -109.5q0 -44 12 -80h-40q-14 42 -14 82z" />
    <glyph glyph-name="uni207E" unicode="&#x207e;" horiz-adv-x="144" 
d="M108.5 517.5q18.5 55.5 18.5 109.5q0 44 -12 80h40q14 -42 14 -82q0 -54 -19 -109.5t-57 -102.5h-41q38 49 56.5 104.5z" />
    <glyph glyph-name="uni2080" unicode="&#x2080;" horiz-adv-x="274" 
d="M17.5 20q-23.5 26 -23.5 77q0 39 14 83t45 75t80 31q43 0 67 -26t24 -77q0 -39 -14 -83t-45.5 -75t-80.5 -31q-43 0 -66.5 26zM85 30q33 0 54.5 27.5t31.5 64.5t10 66q0 62 -49 62q-33 0 -54.5 -27.5t-31 -64.5t-9.5 -66q0 -62 48 -62z" />
    <glyph glyph-name="uni2081" unicode="&#x2081;" horiz-adv-x="168" 
d="M69 0h-43l45 211h-1q-10 -30 -46 -30h-23l8 41h22q43 0 51 39l4 19h43z" />
    <glyph glyph-name="uni2082" unicode="&#x2082;" horiz-adv-x="251" 
d="M0 95q20 23 64 39l29 10q32 12 50.5 28.5t18.5 41.5q0 18 -11.5 27t-30.5 9q-24 0 -40 -14.5t-21 -40.5h-44q7 44 35.5 67.5t71.5 23.5q39 0 61.5 -19t22.5 -52q0 -72 -103 -111l-24 -8q-31 -12 -43 -24t-15 -30h157l-10 -42h-203l8 35q7 37 27 60z" />
    <glyph glyph-name="uni2083" unicode="&#x2083;" horiz-adv-x="263" 
d="M8 19q-26 25 -22 68h43q-3 -27 11 -42t42 -15q30 0 50.5 17t20.5 43q0 20 -14 31t-39 11h-41l8 36h34q32 0 50.5 14t18.5 35q0 33 -43 33q-25 0 -41.5 -12t-20.5 -33h-44q8 37 36.5 59t69.5 22q39 0 63 -18t24 -48q0 -26 -19 -44.5t-53 -23.5v-1q27 -6 40.5 -23t13.5 -41
q0 -40 -33 -66.5t-82 -26.5q-47 0 -73 25z" />
    <glyph glyph-name="uni2084" unicode="&#x2084;" horiz-adv-x="247" 
d="M-20 91l159 189h57l-40 -187h36l-7 -37h-37l-12 -56h-42l12 56h-133zM114 93l31 149h-1l-118 -148v-1h88z" />
    <glyph glyph-name="uni2085" unicode="&#x2085;" horiz-adv-x="259" 
d="M6 17.5q-25 23.5 -22 60.5h41q-1 -22 14 -35t39 -13q30 0 51 21t21 50q0 23 -13.5 36.5t-36.5 13.5q-33 0 -64 -29h-42l57 158h164l-8 -37h-131l-33 -91h1q31 34 72 34q34 0 56.5 -21t22.5 -59q0 -46 -33 -79t-86 -33q-45 0 -70 23.5z" />
    <glyph glyph-name="uni2086" unicode="&#x2086;" horiz-adv-x="271" 
d="M22 20q-27 27 -27 83q0 40 14.5 82.5t46 72t79.5 29.5q42 0 65.5 -23.5t19.5 -65.5h-42q1 4 1 12q0 19 -12 29.5t-34 10.5q-35 0 -59 -30t-33 -90h1q13 27 34.5 41t47.5 14q34 0 58 -23.5t24 -61.5q0 -47 -34.5 -77t-81.5 -30q-41 0 -68 27zM52 44q14 -14 39 -14
q30 0 50.5 19.5t20.5 48.5q0 23 -13.5 37t-38.5 14q-31 0 -51.5 -20t-20.5 -48q0 -23 14 -37z" />
    <glyph glyph-name="uni2087" unicode="&#x2087;" horiz-adv-x="204" 
d="M47 140q44 65 109 101v2h-152l8 37h186l-7 -35q-65 -44 -104.5 -107.5t-55.5 -137.5h-44q16 75 60 140z" />
    <glyph glyph-name="uni2088" unicode="&#x2088;" horiz-adv-x="260" 
d="M10 13.5q-27 19.5 -27 54.5q0 30 21.5 53t62.5 30v1q-22 6 -33.5 21t-11.5 35q0 33 29 55.5t73 22.5q38 0 62 -18t24 -48q0 -27 -19.5 -46.5t-53.5 -24.5v-1q26 -6 40.5 -22.5t14.5 -42.5q0 -38 -32 -63.5t-81 -25.5q-42 0 -69 19.5zM41.5 41q14.5 -11 38.5 -11
q31 0 49.5 16.5t18.5 40.5q0 22 -14.5 32.5t-38.5 10.5q-30 0 -49 -16.5t-19 -40.5q0 -21 14.5 -32zM76.5 177q11.5 -10 31.5 -10q24 0 41 14t17 34q0 17 -11.5 26t-32.5 9q-25 0 -41 -13t-16 -33q0 -17 11.5 -27z" />
    <glyph glyph-name="uni2089" unicode="&#x2089;" horiz-adv-x="271" 
d="M192 260q27 -27 27 -83q0 -40 -14.5 -82.5t-46 -72t-79.5 -29.5q-42 0 -65.5 23.5t-19.5 65.5h42q-1 -4 -1 -12q0 -19 12 -29.5t34 -10.5q35 0 59 30t33 90h-1q-13 -27 -34.5 -41t-47.5 -14q-34 0 -58 23.5t-24 61.5q0 47 34.5 77t81.5 30q41 0 68 -27zM65.5 145
q13.5 -14 38.5 -14q31 0 51.5 20t20.5 48q0 23 -14 37t-39 14q-30 0 -50.5 -19.5t-20.5 -48.5q0 -23 13.5 -37z" />
    <glyph glyph-name="uni208A" unicode="&#x208a;" horiz-adv-x="314" 
d="M106 120h-95l7 36h96l21 101h36l-21 -101h96l-8 -36h-95l-22 -99h-36z" />
    <glyph glyph-name="uni208B" unicode="&#x208b;" horiz-adv-x="294" 
d="M19 156h207l-8 -36h-207z" />
    <glyph glyph-name="uni208C" unicode="&#x208c;" horiz-adv-x="277" 
d="M30 208h190l-7 -36h-191zM9 109h190l-8 -36h-190z" />
    <glyph glyph-name="uni208D" unicode="&#x208d;" horiz-adv-x="145" 
d="M8 75q0 54 19 109.5t57 102.5h41q-38 -49 -56.5 -104.5t-18.5 -109.5q0 -44 12 -80h-40q-14 42 -14 82z" />
    <glyph glyph-name="uni208E" unicode="&#x208e;" horiz-adv-x="144" 
d="M19.5 97.5q18.5 55.5 18.5 109.5q0 44 -12 80h40q14 -42 14 -82q0 -54 -19 -109.5t-57 -102.5h-41q38 49 56.5 104.5z" />
    <glyph glyph-name="Euro" unicode="&#x20ac;" horiz-adv-x="775" 
d="M188.5 59q-69.5 71 -72.5 198h-75l29 60h49q3 32 11 68h-62l29 60h52q45 118 141.5 192.5t227.5 74.5q84 0 141 -31.5t85 -85.5t28 -122q0 -20 -3 -41h-74q2 24 2 34q0 84 -47.5 133t-136.5 49q-97 0 -170.5 -56.5t-113.5 -146.5h340l-29 -60h-333q-9 -27 -14 -68h315
l-30 -60h-288q4 -100 56.5 -152.5t136.5 -52.5q67 0 123 31t94.5 78t54.5 94h77q-23 -75 -73.5 -135.5t-123 -96t-157.5 -35.5q-120 0 -189.5 71z" />
    <glyph glyph-name="uni20BF" unicode="&#x20bf;" horiz-adv-x="655" 
d="M382 800h62l-26 -100h25q82 0 129.5 -40.5t47.5 -112.5q0 -70 -48 -114.5t-128 -53.5v-1q75 -6 117 -46.5t42 -108.5q0 -62 -35 -113t-99.5 -80.5t-149.5 -29.5h-51l-14 -96h-62l26 96h-195l149 700h195zM313 65q68 0 116 21.5t73 58.5t25 82q0 54 -37 82t-110 28h-210
l-58 -272h201zM368 402q86 0 132 39t46 98q0 48 -30.5 72t-87.5 24h-195l-49 -233h184z" />
    <glyph glyph-name="trademark" unicode="&#x2122;" horiz-adv-x="772" 
d="M238 652h-108l10 48h271l-10 -48h-109l-65 -306h-54zM449 700h77l41 -290l162 290h83l-75 -354h-54l60 285l-159 -285h-55l-40 286l-61 -286h-54z" />
    <glyph glyph-name="estimated" unicode="&#x212e;" horiz-adv-x="742" 
d="M178.5 22q-61.5 34 -95 98t-33.5 152q0 114 53.5 215.5t150 163t217.5 61.5q84 0 143.5 -31.5t90 -88t30.5 -129.5q0 -40 -9 -82l-11 -50h-544l-36 -164q22 -55 72.5 -84.5t125.5 -29.5q90 0 166 44.5t117 118.5h67q-28 -66 -82.5 -118t-126.5 -81t-151 -29
q-83 0 -144.5 34zM614 396l33 153q-23 47 -71.5 73t-117.5 26q-75 0 -137.5 -29.5t-106.5 -81.5l-30 -141h430z" />
    <glyph glyph-name="oneeighth" unicode="&#x215b;" horiz-adv-x="963" 
d="M181 210h-60l81 377h-1q-21 -52 -81 -52h-41l13 58h40q37 0 58.5 18.5t29.5 55.5l6 33h59zM682 700h64l-635 -700h-64zM573.5 23q-46.5 34 -46.5 94q0 55 39 94t110 51v2q-39 11 -60.5 35t-21.5 60q0 40 23 72t63.5 50t91.5 18q67 0 108.5 -31t41.5 -82
q0 -49 -34.5 -84.5t-94.5 -42.5v-2q44 -10 70 -38.5t26 -72.5q0 -45 -25.5 -81t-70.5 -56t-102 -20q-71 0 -117.5 34zM615.5 59.5q28.5 -20.5 76.5 -20.5q60 0 98 32t38 82q0 41 -28.5 62t-75.5 21q-60 0 -98.5 -32.5t-38.5 -83.5q0 -40 28.5 -60.5zM678.5 304.5
q23.5 -18.5 65.5 -18.5q52 0 84.5 27.5t32.5 68.5q0 32 -24.5 49.5t-67.5 17.5q-53 0 -83.5 -26t-30.5 -66q0 -34 23.5 -52.5z" />
    <glyph glyph-name="threeeighths" unicode="&#x215c;" horiz-adv-x="1167" 
d="M102.5 237q-42.5 36 -42.5 96q0 14 3 29h60q-2 -16 -2 -23q0 -40 26.5 -64t76.5 -24q59 0 99.5 32.5t40.5 84.5q0 39 -25 59t-70 20h-75l11 51h65q56 0 89 26t33 67q0 34 -22.5 51t-61.5 17q-46 0 -79 -24t-41 -66h-60q14 65 61.5 102.5t119.5 37.5q68 0 106.5 -32
t38.5 -80q0 -46 -33 -78.5t-88 -42.5v-2q46 -10 68.5 -38.5t22.5 -70.5q0 -47 -26.5 -84.5t-73 -58.5t-103.5 -21q-76 0 -118.5 36zM886 700h64l-635 -700h-64zM777.5 23q-46.5 34 -46.5 94q0 55 39 94t110 51v2q-39 11 -60.5 35t-21.5 60q0 40 23 72t63.5 50t91.5 18
q67 0 108.5 -31t41.5 -82q0 -49 -34.5 -84.5t-94.5 -42.5v-2q44 -10 70 -38.5t26 -72.5q0 -45 -25.5 -81t-70.5 -56t-102 -20q-71 0 -117.5 34zM819.5 59.5q28.5 -20.5 76.5 -20.5q60 0 98 32t38 82q0 41 -28.5 62t-75.5 21q-60 0 -98.5 -32.5t-38.5 -83.5q0 -40 28.5 -60.5
zM882.5 304.5q23.5 -18.5 65.5 -18.5q52 0 84.5 27.5t32.5 68.5q0 32 -24.5 49.5t-67.5 17.5q-53 0 -83.5 -26t-30.5 -66q0 -34 23.5 -52.5z" />
    <glyph glyph-name="fiveeighths" unicode="&#x215d;" horiz-adv-x="1162" 
d="M102 241q-45 40 -42 106h57q-3 -42 26.5 -69t77.5 -27q41 0 73.5 20t50.5 52t18 68q0 44 -27 68.5t-74 24.5q-39 0 -71.5 -16.5t-54.5 -43.5h-57l98 276h284l-10 -52h-237l-67 -180l1 1q53 66 135 66q63 0 102 -38.5t39 -103.5q0 -51 -26.5 -95t-72.5 -70.5t-104 -26.5
q-74 0 -119 40zM881 700h64l-635 -700h-64zM772.5 23q-46.5 34 -46.5 94q0 55 39 94t110 51v2q-39 11 -60.5 35t-21.5 60q0 40 23 72t63.5 50t91.5 18q67 0 108.5 -31t41.5 -82q0 -49 -34.5 -84.5t-94.5 -42.5v-2q44 -10 70 -38.5t26 -72.5q0 -45 -25.5 -81t-70.5 -56
t-102 -20q-71 0 -117.5 34zM814.5 59.5q28.5 -20.5 76.5 -20.5q60 0 98 32t38 82q0 41 -28.5 62t-75.5 21q-60 0 -98.5 -32.5t-38.5 -83.5q0 -40 28.5 -60.5zM877.5 304.5q23.5 -18.5 65.5 -18.5q52 0 84.5 27.5t32.5 68.5q0 32 -24.5 49.5t-67.5 17.5q-53 0 -83.5 -26
t-30.5 -66q0 -34 23.5 -52.5z" />
    <glyph glyph-name="seveneighths" unicode="&#x215e;" horiz-adv-x="1068" 
d="M182.5 458.5q76.5 115.5 190.5 188.5v1h-272l10 52h321l-10 -47q-113 -82 -182.5 -196t-97.5 -247h-64q28 133 104.5 248.5zM787 700h64l-635 -700h-64zM678.5 23q-46.5 34 -46.5 94q0 55 39 94t110 51v2q-39 11 -60.5 35t-21.5 60q0 40 23 72t63.5 50t91.5 18
q67 0 108.5 -31t41.5 -82q0 -49 -34.5 -84.5t-94.5 -42.5v-2q44 -10 70 -38.5t26 -72.5q0 -45 -25.5 -81t-70.5 -56t-102 -20q-71 0 -117.5 34zM720.5 59.5q28.5 -20.5 76.5 -20.5q60 0 98 32t38 82q0 41 -28.5 62t-75.5 21q-60 0 -98.5 -32.5t-38.5 -83.5q0 -40 28.5 -60.5
zM783.5 304.5q23.5 -18.5 65.5 -18.5q52 0 84.5 27.5t32.5 68.5q0 32 -24.5 49.5t-67.5 17.5q-53 0 -83.5 -26t-30.5 -66q0 -34 23.5 -52.5z" />
    <glyph glyph-name="arrowleft" unicode="&#x2190;" horiz-adv-x="688" 
d="M288 185.5q-34 62.5 -96 100.5t-148 38v53q86 0 148 38t96 100.5t40 138.5h67q-9 -97 -59 -169.5t-137 -102.5v-2l446 3v-65l-446 3v-2q87 -30 137 -102.5t59 -169.5h-67q-6 76 -40 138.5z" />
    <glyph glyph-name="arrowup" unicode="&#x2191;" horiz-adv-x="694" 
d="M181.5 485q62.5 34 100.5 96t38 148h53q0 -86 38 -148t100.5 -96t138.5 -40v-67q-97 9 -169.5 59t-102.5 137h-2l3 -446h-65l3 446h-2q-30 -87 -102.5 -137t-169.5 -59v67q76 6 138.5 40z" />
    <glyph glyph-name="arrowright" unicode="&#x2192;" horiz-adv-x="688" 
d="M352 216.5q50 72.5 137 102.5v2l-446 -3v65l446 -3v2q-87 30 -137 102.5t-59 169.5h67q6 -76 40 -138.5t96 -100.5t148 -38v-53q-86 0 -148 -38t-96 -100.5t-40 -138.5h-67q9 97 59 169.5z" />
    <glyph glyph-name="arrowdown" unicode="&#x2193;" horiz-adv-x="694" 
d="M212.5 263q72.5 -50 102.5 -137h2l-3 446h65l-3 -446h2q30 87 102.5 137t169.5 59v-67q-76 -6 -138.5 -40t-100.5 -96t-38 -148h-53q0 86 -38 148t-100.5 96t-138.5 40v67q97 -9 169.5 -59z" />
    <glyph glyph-name="arrowboth" unicode="&#x2194;" horiz-adv-x="778" 
d="M151.5 282q-39.5 41 -108.5 48v47q70 7 116.5 47.5t54.5 101.5h70q-11 -50 -44 -89t-86 -55v-2l274 2l209 -2v2q-50 16 -77 55.5t-29 88.5h70q-2 -60 37.5 -101t108.5 -48v-47q-70 -7 -116.5 -47.5t-54.5 -101.5h-70q11 50 44 89t86 55v2l-274 -2l-209 2v-2
q50 -16 77 -55.5t29 -88.5h-70q2 60 -37.5 101z" />
    <glyph glyph-name="arrowupdn" unicode="&#x2195;" horiz-adv-x="461" 
d="M148 107q-38 43 -98 46l1 70q49 -7 86 -37t49 -81h1l15 209l9 72l18 209h-2q-19 -52 -61 -81.5t-93 -36.5l1 70q62 3 106.5 46.5t56.5 112.5h48q1 -70 38.5 -113t97.5 -46l-1 -70q-49 7 -85.5 37t-48.5 81h-2l-14 -209l-10 -72l-18 -209h2q20 52 61.5 81.5t92.5 36.5
l-1 -70q-61 -3 -106 -46.5t-57 -112.5h-47q-1 70 -39 113z" />
    <glyph glyph-name="uni2196" unicode="&#x2196;" horiz-adv-x="569" 
d="M424.5 591.5q-53.5 -21.5 -108.5 -21.5q-64 0 -122 29l-1 -1l317 -313l-46 -46l-313 317l-1 -1q29 -58 29 -122q0 -55 -21.5 -108.5t-61.5 -100.5l-47 47q38 45 59.5 97t21.5 106q0 107 -86 194l37 37q87 -86 194 -86q54 0 106 21.5t97 59.5l47 -47q-47 -40 -100.5 -61.5
z" />
    <glyph glyph-name="uni2197" unicode="&#x2197;" horiz-adv-x="569" 
d="M188 640.5q52 -21.5 106 -21.5q107 0 194 86l37 -37q-86 -87 -86 -194q0 -54 21.5 -106t59.5 -97l-47 -47q-40 47 -61.5 100.5t-21.5 108.5q0 64 29 122l-1 1l-313 -317l-46 46l317 313l-1 1q-58 -29 -122 -29q-55 0 -108.5 21.5t-100.5 61.5l47 47q45 -38 97 -59.5z" />
    <glyph glyph-name="uni2198" unicode="&#x2198;" horiz-adv-x="569" 
d="M144.5 107.5q53.5 21.5 108.5 21.5q64 0 122 -29l1 1l-317 313l46 46l313 -317l1 1q-29 58 -29 122q0 55 21.5 108.5t61.5 100.5l47 -47q-38 -45 -59.5 -97t-21.5 -106q0 -107 86 -194l-37 -37q-87 86 -194 86q-54 0 -106 -21.5t-97 -59.5l-47 47q47 40 100.5 61.5z" />
    <glyph glyph-name="uni2199" unicode="&#x2199;" horiz-adv-x="569" 
d="M381 58.5q-52 21.5 -106 21.5q-107 0 -194 -86l-37 37q86 87 86 194q0 54 -21.5 106t-59.5 97l47 47q40 -47 61.5 -100.5t21.5 -108.5q0 -64 -29 -122l1 -1l313 317l46 -46l-317 -313l1 -1q58 29 122 29q55 0 108.5 -21.5t100.5 -61.5l-47 -47q-45 38 -97 59.5z" />
    <glyph glyph-name="partialdiff" unicode="&#x2202;" horiz-adv-x="556" 
d="M66 38q-45 50 -45 133q0 78 40 151.5t107 119t144 45.5q49 0 89.5 -21t65.5 -65h2q3 23 3 43q0 82 -45.5 145.5t-136.5 105.5l36 58q111 -50 165 -126.5t54 -181.5q0 -108 -47.5 -214t-128.5 -174.5t-177 -68.5q-81 0 -126 50zM122 84.5q28 -35.5 79 -35.5
q52 0 104.5 36.5t93.5 101.5t59 144l4 19q-43 76 -136 76q-64 0 -117.5 -35t-84 -92t-30.5 -120q0 -59 28 -94.5z" />
    <glyph glyph-name="uni2206" unicode="&#x2206;" horiz-adv-x="638" 
d="M-22 59l392 644h78l120 -644l-11 -59h-591zM497 62v2l-99 562h-1l-336 -562v-2h436z" />
    <glyph glyph-name="product" unicode="&#x220f;" horiz-adv-x="583" 
d="M636 636h-102l-178 -836h-71l177 836h-188l-178 -836h-71l177 836h-102l14 64h536z" />
    <glyph glyph-name="summation" unicode="&#x2211;" horiz-adv-x="491" 
d="M-51 -139l321 412l-155 370l12 57h428l-14 -63h-347v-1l157 -371v-1l-313 -400v-1h339l-14 -63h-427z" />
    <glyph glyph-name="minus" unicode="&#x2212;" horiz-adv-x="557" 
d="M68 325h443l-13 -60h-443z" />
    <glyph glyph-name="radical" unicode="&#x221a;" horiz-adv-x="619" 
d="M34 326h64l15 -451h2l368 825h203l-13 -61h-149l-374 -839h-97z" />
    <glyph glyph-name="infinity" unicode="&#x221e;" horiz-adv-x="943" 
d="M550 126q-43 37 -85 107q-72 -69 -131.5 -106.5t-126.5 -37.5q-66 0 -109.5 40.5t-43.5 109.5q0 58 31 109.5t83.5 82t114.5 30.5q47 0 82.5 -19.5t60 -49.5t51.5 -75q75 70 133.5 107t125.5 37t110.5 -39.5t43.5 -108.5q0 -58 -31 -110t-84 -83t-115 -31q-67 0 -110 37z
M146.5 176.5q28.5 -26.5 73.5 -26.5q53 0 102.5 33t115.5 96q-36 59 -73 90t-92 31q-43 0 -78.5 -21t-56 -55.5t-20.5 -73.5q0 -47 28.5 -73.5zM576.5 181.5q36.5 -31.5 91.5 -31.5q45 0 81 21.5t56 56t20 73.5q0 47 -28 73t-74 26q-53 0 -102.5 -33t-115.5 -96
q35 -58 71.5 -89.5z" />
    <glyph glyph-name="integral" unicode="&#x222b;" horiz-adv-x="596" 
d="M681 800l-13 -62h-90q-41 0 -70 -25.5t-48 -79.5l-239 -666q-58 -167 -201 -167h-94l13 62h91q41 0 70 25.5t48 79.5l238 666q29 80 77.5 123.5t123.5 43.5h94z" />
    <glyph glyph-name="approxequal" unicode="&#x2248;" horiz-adv-x="533" 
d="M319 330q-23 17 -50 50q-20 25 -34 36.5t-34 11.5q-25 0 -44.5 -22t-28.5 -64h-63q14 69 48 109t88 40q37 0 60 -17t50 -50q20 -25 34 -36.5t34 -11.5q25 0 45 22t29 64h63q-15 -70 -49 -109.5t-88 -39.5q-37 0 -60 17zM70 251q34 40 89 40q37 0 60 -17t50 -50
q20 -25 34 -36.5t34 -11.5q25 0 44.5 22t28.5 64h63q-15 -70 -48.5 -109.5t-87.5 -39.5q-38 0 -61.5 17.5t-48.5 49.5q-19 24 -34 36t-34 12q-26 0 -45.5 -22t-28.5 -64h-63q14 69 48 109z" />
    <glyph glyph-name="notequal" unicode="&#x2260;" horiz-adv-x="665" 
d="M203 152h-143l14 62h175l104 138h-250l13 62h283l80 107h66l-80 -107h143l-13 -62h-176l-104 -138h251l-14 -62h-283l-80 -107h-66z" />
    <glyph glyph-name="lessequal" unicode="&#x2264;" horiz-adv-x="619" 
d="M58 295l13 63l545 152l-15 -69l-453 -118l402 -118l-12 -62zM14 87h512l-14 -62h-512z" />
    <glyph glyph-name="greaterequal" unicode="&#x2265;" horiz-adv-x="619" 
d="M40 212l453 118l-402 118l13 62l480 -152l-13 -63l-545 -152zM14 87h512l-13 -62h-512z" />
    <glyph glyph-name="uni24C5" unicode="&#x24c5;" horiz-adv-x="803" 
d="M191 23.5q-67 37.5 -104 103t-37 147.5q0 29 4 53q14 103 79 192t161.5 142t199.5 53q85 0 151.5 -37t103.5 -102t37 -146q0 -30 -4 -54q-14 -104 -78.5 -193.5t-160.5 -142.5t-199 -53q-86 0 -153 37.5zM108 284q0 -70 31 -125.5t87 -87.5t128 -32q87 0 168.5 46.5
t136.5 123.5t66 165q3 23 3 45q0 68 -31 123.5t-86.5 87t-126.5 31.5q-87 0 -168.5 -46t-137 -123t-67.5 -164q-3 -22 -3 -44zM343 539h152q54 0 85 -23t31 -66q0 -7 -2 -23q-9 -62 -54 -96t-111 -34h-95l-29 -134h-57zM448 346q47 0 75 25t28 65q0 24 -18 38.5t-50 14.5
h-94l-30 -143h89z" />
    <glyph glyph-name="lozenge" unicode="&#x25ca;" horiz-adv-x="533" 
d="M485 350l-253 -350h-69l-104 350l253 351h69zM211 75h2l197 277l-78 274h-2l-197 -278z" />
    <glyph glyph-name="uni2E18" unicode="&#x2e18;" horiz-adv-x="588" 
d="M368 285l-30 -140h-78l29 140l33 126l-2 -1q-17 -33 -56 -50l-17 -8q-63 -26 -102.5 -77t-39.5 -111q0 -55 36 -85.5t104 -30.5q81 0 136 44.5t76 123.5h75q-25 -107 -102.5 -167.5t-186.5 -60.5q-101 0 -155 49.5t-54 126.5q0 78 55 142.5t137 100.5l52 23
q30 13 43 27.5t24 50.5l13 47h60zM377 700h80l-17 -80h-80z" />
    <glyph glyph-name="uniA78B" unicode="&#xa78b;" horiz-adv-x="205" 
d="M149 578l33 222h64l-99 -467h-48z" />
    <glyph glyph-name="uniA78C" unicode="&#xa78c;" horiz-adv-x="203" 
d="M123 468l31 202h63l-83 -387h-48z" />
    <glyph glyph-name="uni004A0301" horiz-adv-x="545" 
d="M60.5 37.5q-54.5 49.5 -54.5 134.5q0 22 7 59h72q-6 -31 -6 -56q0 -61 33 -92t90 -31q67 0 113 44.5t65 135.5l99 468h74l-100 -477q-25 -114 -90.5 -174.5t-160.5 -60.5q-87 0 -141.5 49.5zM535 905h81l-117 -142h-63z" />
    <glyph glyph-name="uni013B.loclMAH" horiz-adv-x="504" 
d="M439 65l-14 -65h-402l149 700h75l-135 -635h327zM145 -132h72q22 0 33.5 8.5t11.5 23.5q0 13 -9 20t-23 7h-25l6 33h38q35 0 54.5 -17t19.5 -46q0 -35 -27 -57.5t-78 -22.5h-84z" />
    <glyph glyph-name="uni0145.loclMAH" horiz-adv-x="747" 
d="M228 602h-4l-20 -100l-107 -502h-74l149 700h92l287 -601h4l21 100l106 501h75l-149 -700h-92zM217 -132h72q22 0 33.5 8.5t11.5 23.5q0 13 -9 20t-23 7h-25l6 33h38q35 0 54.5 -17t19.5 -46q0 -35 -27 -57.5t-78 -22.5h-84z" />
    <glyph glyph-name="Y.ss04" horiz-adv-x="511" 
d="M-31 63h260l1 2l-122 635h74l71 -409h2l247 409h85l-314 -503l25 -134q1 -3 1 -10q0 -22 -16 -37.5t-40 -15.5h-288z" />
    <glyph glyph-name="Yacute.ss04" horiz-adv-x="511" 
d="M-31 63h260l1 2l-122 635h74l71 -409h2l247 409h85l-314 -503l25 -134q1 -3 1 -10q0 -22 -16 -37.5t-40 -15.5h-288zM437 905h81l-117 -142h-63z" />
    <glyph glyph-name="Ycircumflex.ss04" horiz-adv-x="511" 
d="M-31 63h260l1 2l-122 635h74l71 -409h2l247 409h85l-314 -503l25 -134q1 -3 1 -10q0 -22 -16 -37.5t-40 -15.5h-288zM377 905h43l72 -142h-49l-52 78h-2l-84 -78h-61z" />
    <glyph glyph-name="Ydieresis.ss04" horiz-adv-x="511" 
d="M-31 63h260l1 2l-122 635h74l71 -409h2l247 409h85l-314 -503l25 -134q1 -3 1 -10q0 -22 -16 -37.5t-40 -15.5h-288zM294 883h73l-16 -77h-74zM423 883h74l-17 -77h-73z" />
    <glyph glyph-name="Ygrave.ss04" horiz-adv-x="511" 
d="M-31 63h260l1 2l-122 635h74l71 -409h2l247 409h85l-314 -503l25 -134q1 -3 1 -10q0 -22 -16 -37.5t-40 -15.5h-288zM283 905h74l39 -142h-52z" />
    <glyph glyph-name="uni0232.ss04" horiz-adv-x="511" 
d="M-31 63h260l1 2l-122 635h74l71 -409h2l247 409h85l-314 -503l25 -134q1 -3 1 -10q0 -22 -16 -37.5t-40 -15.5h-288zM253 867h277l-13 -62h-277z" />
    <glyph glyph-name="uni1EF8.ss04" horiz-adv-x="511" 
d="M-31 63h260l1 2l-122 635h74l71 -409h2l247 409h85l-314 -503l25 -134q1 -3 1 -10q0 -22 -16 -37.5t-40 -15.5h-288zM403.5 779q-19.5 13 -39.5 37q-15 18 -27.5 27t-29.5 9q-22 0 -37.5 -16.5t-21.5 -46.5l-3 -15h-56l5 23q11 51 41 80t76 29q33 0 52.5 -13t39.5 -37
q15 -18 27.5 -27t29.5 -9q22 0 37.5 16.5t21.5 46.5l3 15h56l-5 -23q-11 -51 -41 -80t-76 -29q-33 0 -52.5 13z" />
    <glyph glyph-name="S.ss05" horiz-adv-x="618" 
d="M41 63h243q62 0 107.5 21t69 56t23.5 78q0 51 -34.5 79.5t-103.5 28.5h-60q-90 0 -140 42t-50 120q0 62 32.5 110t93.5 75t142 27h276l-13 -63h-266q-97 0 -144 -41t-47 -104q0 -49 30.5 -72.5t93.5 -23.5h60q102 0 153.5 -45.5t51.5 -126.5q0 -65 -32.5 -115.5
t-94.5 -79.5t-147 -29h-257z" />
    <glyph glyph-name="Sacute.ss05" horiz-adv-x="618" 
d="M41 63h243q62 0 107.5 21t69 56t23.5 78q0 51 -34.5 79.5t-103.5 28.5h-60q-90 0 -140 42t-50 120q0 62 32.5 110t93.5 75t142 27h276l-13 -63h-266q-97 0 -144 -41t-47 -104q0 -49 30.5 -72.5t93.5 -23.5h60q102 0 153.5 -45.5t51.5 -126.5q0 -65 -32.5 -115.5
t-94.5 -79.5t-147 -29h-257zM481 905h81l-117 -142h-63z" />
    <glyph glyph-name="Scaron.ss05" horiz-adv-x="618" 
d="M41 63h243q62 0 107.5 21t69 56t23.5 78q0 51 -34.5 79.5t-103.5 28.5h-60q-90 0 -140 42t-50 120q0 62 32.5 110t93.5 75t142 27h276l-13 -63h-266q-97 0 -144 -41t-47 -104q0 -49 30.5 -72.5t93.5 -23.5h60q102 0 153.5 -45.5t51.5 -126.5q0 -65 -32.5 -115.5
t-94.5 -79.5t-147 -29h-257zM321 905h49l50 -78h2l85 78h62l-133 -142h-44z" />
    <glyph glyph-name="Scedilla.ss05" horiz-adv-x="618" 
d="M41 63h243q62 0 107.5 21t69 56t23.5 78q0 51 -34.5 79.5t-103.5 28.5h-60q-90 0 -140 42t-50 120q0 62 32.5 110t93.5 75t142 27h276l-13 -63h-266q-97 0 -144 -41t-47 -104q0 -49 30.5 -72.5t93.5 -23.5h60q102 0 153.5 -45.5t51.5 -126.5q0 -65 -32.5 -115.5
t-94.5 -79.5t-147 -29h-10l-8 -40q31 -2 48 -19t17 -44q0 -35 -27 -57.5t-78 -22.5h-84l11 51h72q22 0 33.5 8.5t11.5 23.5q0 13 -9 20t-23 7h-25l16 73h-202z" />
    <glyph glyph-name="Scircumflex.ss05" horiz-adv-x="618" 
d="M41 63h243q62 0 107.5 21t69 56t23.5 78q0 51 -34.5 79.5t-103.5 28.5h-60q-90 0 -140 42t-50 120q0 62 32.5 110t93.5 75t142 27h276l-13 -63h-266q-97 0 -144 -41t-47 -104q0 -49 30.5 -72.5t93.5 -23.5h60q102 0 153.5 -45.5t51.5 -126.5q0 -65 -32.5 -115.5
t-94.5 -79.5t-147 -29h-257zM421 905h43l72 -142h-49l-52 78h-2l-84 -78h-61z" />
    <glyph glyph-name="uni0218.ss05" horiz-adv-x="618" 
d="M41 63h243q62 0 107.5 21t69 56t23.5 78q0 51 -34.5 79.5t-103.5 28.5h-60q-90 0 -140 42t-50 120q0 62 32.5 110t93.5 75t142 27h276l-13 -63h-266q-97 0 -144 -41t-47 -104q0 -49 30.5 -72.5t93.5 -23.5h60q102 0 153.5 -45.5t51.5 -126.5q0 -65 -32.5 -115.5
t-94.5 -79.5t-147 -29h-257zM211.5 -162q11.5 9 16.5 28l1 5h-37l15 72h70l-16 -73q-8 -39 -30 -56t-62 -17l7 32q24 0 35.5 9z" />
    <glyph glyph-name="S.ss06" horiz-adv-x="635" 
d="M104 45.5q-68 57.5 -68 155.5q0 20 3 41h73q-2 -11 -2 -32q0 -76 50 -117t133 -41q62 0 109.5 22t73.5 60t26 84q0 51 -34 80t-107 28h-69q-90 -1 -140 41.5t-50 120.5q0 62 33 110t93.5 75t141.5 27h262l-14 -63h-250q-97 0 -144 -41t-47 -104q0 -49 30 -72.5t93 -23.5
l71 1q104 1 154.5 -44.5t50.5 -125.5q0 -70 -36 -124.5t-101 -84.5t-149 -30q-118 0 -186 57.5z" />
    <glyph glyph-name="Sacute.ss06" horiz-adv-x="635" 
d="M104 45.5q-68 57.5 -68 155.5q0 20 3 41h73q-2 -11 -2 -32q0 -76 50 -117t133 -41q62 0 109.5 22t73.5 60t26 84q0 51 -34 80t-107 28h-69q-90 -1 -140 41.5t-50 120.5q0 62 33 110t93.5 75t141.5 27h262l-14 -63h-250q-97 0 -144 -41t-47 -104q0 -49 30 -72.5t93 -23.5
l71 1q104 1 154.5 -44.5t50.5 -125.5q0 -70 -36 -124.5t-101 -84.5t-149 -30q-118 0 -186 57.5zM490 905h81l-117 -142h-63z" />
    <glyph glyph-name="Scaron.ss06" horiz-adv-x="635" 
d="M104 45.5q-68 57.5 -68 155.5q0 20 3 41h73q-2 -11 -2 -32q0 -76 50 -117t133 -41q62 0 109.5 22t73.5 60t26 84q0 51 -34 80t-107 28h-69q-90 -1 -140 41.5t-50 120.5q0 62 33 110t93.5 75t141.5 27h262l-14 -63h-250q-97 0 -144 -41t-47 -104q0 -49 30 -72.5t93 -23.5
l71 1q104 1 154.5 -44.5t50.5 -125.5q0 -70 -36 -124.5t-101 -84.5t-149 -30q-118 0 -186 57.5zM330 905h49l50 -78h2l85 78h62l-133 -142h-44z" />
    <glyph glyph-name="Scedilla.ss06" horiz-adv-x="635" 
d="M282 -12l-6 -28q31 -2 48 -19t17 -44q0 -35 -27 -57.5t-78 -22.5h-84l11 51h72q22 0 33.5 8.5t11.5 23.5q0 13 -9 20t-23 7h-25l14 64q-94 13 -147.5 68t-53.5 141q0 21 3 42h73q-2 -11 -2 -32q0 -76 50 -117t133 -41q62 0 109.5 22t73.5 60t26 84q0 51 -34 80t-107 28
h-69q-90 -1 -140 41.5t-50 120.5q0 62 33 110t93.5 75t141.5 27h262l-14 -63h-250q-97 0 -144 -41t-47 -104q0 -49 30 -72.5t93 -23.5l71 1q104 1 154.5 -44.5t50.5 -125.5q0 -70 -36 -124.5t-101 -84.5t-149 -30h-8z" />
    <glyph glyph-name="Scircumflex.ss06" horiz-adv-x="635" 
d="M104 45.5q-68 57.5 -68 155.5q0 20 3 41h73q-2 -11 -2 -32q0 -76 50 -117t133 -41q62 0 109.5 22t73.5 60t26 84q0 51 -34 80t-107 28h-69q-90 -1 -140 41.5t-50 120.5q0 62 33 110t93.5 75t141.5 27h262l-14 -63h-250q-97 0 -144 -41t-47 -104q0 -49 30 -72.5t93 -23.5
l71 1q104 1 154.5 -44.5t50.5 -125.5q0 -70 -36 -124.5t-101 -84.5t-149 -30q-118 0 -186 57.5zM430 905h43l72 -142h-49l-52 78h-2l-84 -78h-61z" />
    <glyph glyph-name="uni0218.ss06" horiz-adv-x="635" 
d="M104 45.5q-68 57.5 -68 155.5q0 20 3 41h73q-2 -11 -2 -32q0 -76 50 -117t133 -41q62 0 109.5 22t73.5 60t26 84q0 51 -34 80t-107 28h-69q-90 -1 -140 41.5t-50 120.5q0 62 33 110t93.5 75t141.5 27h262l-14 -63h-250q-97 0 -144 -41t-47 -104q0 -49 30 -72.5t93 -23.5
l71 1q104 1 154.5 -44.5t50.5 -125.5q0 -70 -36 -124.5t-101 -84.5t-149 -30q-118 0 -186 57.5zM220.5 -162q11.5 9 16.5 28l1 5h-37l15 72h70l-16 -73q-8 -39 -30 -56t-62 -17l7 32q24 0 35.5 9z" />
    <glyph glyph-name="G.ss07" horiz-adv-x="761" 
d="M189 33.5q-65 33.5 -101 97t-36 151.5q0 106 51 205.5t145.5 162t218.5 62.5q87 0 148.5 -32t92 -87t30.5 -122q0 -19 -3 -39h-75q2 12 2 34q0 80 -51.5 130.5t-147.5 50.5q-97 0 -173.5 -51.5t-119 -134.5t-42.5 -172q0 -70 26.5 -120.5t74 -77t109.5 -26.5h237l44 206
h-247l14 65h278q16 0 25.5 -9t9.5 -24q0 -7 -1 -10l-54 -251q-4 -18 -18.5 -30t-32.5 -12h-255q-84 0 -149 33.5z" />
    <glyph glyph-name="Gbreve.ss07" horiz-adv-x="761" 
d="M189 33.5q-65 33.5 -101 97t-36 151.5q0 106 51 205.5t145.5 162t218.5 62.5q87 0 148.5 -32t92 -87t30.5 -122q0 -19 -3 -39h-75q2 12 2 34q0 80 -51.5 130.5t-147.5 50.5q-97 0 -173.5 -51.5t-119 -134.5t-42.5 -172q0 -70 26.5 -120.5t74 -77t109.5 -26.5h237l44 206
h-247l14 65h278q16 0 25.5 -9t9.5 -24q0 -7 -1 -10l-54 -251q-4 -18 -18.5 -30t-32.5 -12h-255q-84 0 -149 33.5zM417.5 791q-27.5 28 -27.5 76q0 21 4 38h54q-4 -17 -4 -35q0 -57 51 -57q32 0 54 23.5t32 68.5h54q-14 -66 -50.5 -104t-91.5 -38q-48 0 -75.5 28z" />
    <glyph glyph-name="Gcaron.ss07" horiz-adv-x="761" 
d="M189 33.5q-65 33.5 -101 97t-36 151.5q0 106 51 205.5t145.5 162t218.5 62.5q87 0 148.5 -32t92 -87t30.5 -122q0 -19 -3 -39h-75q2 12 2 34q0 80 -51.5 130.5t-147.5 50.5q-97 0 -173.5 -51.5t-119 -134.5t-42.5 -172q0 -70 26.5 -120.5t74 -77t109.5 -26.5h237l44 206
h-247l14 65h278q16 0 25.5 -9t9.5 -24q0 -7 -1 -10l-54 -251q-4 -18 -18.5 -30t-32.5 -12h-255q-84 0 -149 33.5zM392 905h49l50 -78h2l85 78h62l-133 -142h-44z" />
    <glyph glyph-name="Gcircumflex.ss07" horiz-adv-x="761" 
d="M189 33.5q-65 33.5 -101 97t-36 151.5q0 106 51 205.5t145.5 162t218.5 62.5q87 0 148.5 -32t92 -87t30.5 -122q0 -19 -3 -39h-75q2 12 2 34q0 80 -51.5 130.5t-147.5 50.5q-97 0 -173.5 -51.5t-119 -134.5t-42.5 -172q0 -70 26.5 -120.5t74 -77t109.5 -26.5h237l44 206
h-247l14 65h278q16 0 25.5 -9t9.5 -24q0 -7 -1 -10l-54 -251q-4 -18 -18.5 -30t-32.5 -12h-255q-84 0 -149 33.5zM492 905h43l72 -142h-49l-52 78h-2l-84 -78h-61z" />
    <glyph glyph-name="uni0122.ss07" horiz-adv-x="761" 
d="M189 33.5q-65 33.5 -101 97t-36 151.5q0 106 51 205.5t145.5 162t218.5 62.5q87 0 148.5 -32t92 -87t30.5 -122q0 -19 -3 -39h-75q2 12 2 34q0 80 -51.5 130.5t-147.5 50.5q-97 0 -173.5 -51.5t-119 -134.5t-42.5 -172q0 -70 26.5 -120.5t74 -77t109.5 -26.5h237l44 206
h-247l14 65h278q16 0 25.5 -9t9.5 -24q0 -7 -1 -10l-54 -251q-4 -18 -18.5 -30t-32.5 -12h-255q-84 0 -149 33.5zM282.5 -162q11.5 9 16.5 28l1 5h-37l15 72h70l-16 -73q-8 -39 -30 -56t-62 -17l7 32q24 0 35.5 9z" />
    <glyph glyph-name="Gdotaccent.ss07" horiz-adv-x="761" 
d="M189 33.5q-65 33.5 -101 97t-36 151.5q0 106 51 205.5t145.5 162t218.5 62.5q87 0 148.5 -32t92 -87t30.5 -122q0 -19 -3 -39h-75q2 12 2 34q0 80 -51.5 130.5t-147.5 50.5q-97 0 -173.5 -51.5t-119 -134.5t-42.5 -172q0 -70 26.5 -120.5t74 -77t109.5 -26.5h237l44 206
h-247l14 65h278q16 0 25.5 -9t9.5 -24q0 -7 -1 -10l-54 -251q-4 -18 -18.5 -30t-32.5 -12h-255q-84 0 -149 33.5zM474 883h73l-17 -77h-73z" />
    <glyph glyph-name="uni1E20.ss07" horiz-adv-x="761" 
d="M189 33.5q-65 33.5 -101 97t-36 151.5q0 106 51 205.5t145.5 162t218.5 62.5q87 0 148.5 -32t92 -87t30.5 -122q0 -19 -3 -39h-75q2 12 2 34q0 80 -51.5 130.5t-147.5 50.5q-97 0 -173.5 -51.5t-119 -134.5t-42.5 -172q0 -70 26.5 -120.5t74 -77t109.5 -26.5h237l44 206
h-247l14 65h278q16 0 25.5 -9t9.5 -24q0 -7 -1 -10l-54 -251q-4 -18 -18.5 -30t-32.5 -12h-255q-84 0 -149 33.5zM368 867h277l-13 -62h-277z" />
    <glyph glyph-name="uni01E4.ss07" horiz-adv-x="761" 
d="M189 33.5q-65 33.5 -101 97t-36 151.5q0 106 51 205.5t145.5 162t218.5 62.5q92 0 153.5 -33t90 -87.5t24.5 -120.5l-75 1q4 77 -46 126t-151 49q-97 0 -173.5 -51.5t-119 -134.5t-42.5 -172q0 -70 26.5 -120.5t74 -77t109.5 -26.5h237l21 100h-250l13 63h251l21 100
h-247l14 65h278q16 0 25.5 -9t9.5 -23q0 -7 -1 -11l-26 -122h61l-14 -63h-61l-26 -123q-5 -18 -19 -30t-32 -12h-255q-84 0 -149 33.5z" />
    <glyph glyph-name="E.ss08" horiz-adv-x="611" 
d="M154.5 400q-30.5 37 -30.5 93q0 60 33 107t96 73.5t149 26.5h261l-14 -65h-260q-95 0 -142.5 -40t-47.5 -102q0 -51 34 -81t102 -30h247l-14 -64h-247q-85 0 -137 -39.5t-52 -101.5q0 -50 34.5 -81t100.5 -31h269l-14 -65h-268q-97 0 -147.5 41.5t-50.5 115.5
q0 71 46 125.5t141 68.5v2q-58 10 -88.5 47z" />
    <glyph glyph-name="Eacute.ss08" horiz-adv-x="611" 
d="M154.5 400q-30.5 37 -30.5 93q0 60 33 107t96 73.5t149 26.5h261l-14 -65h-260q-95 0 -142.5 -40t-47.5 -102q0 -51 34 -81t102 -30h247l-14 -64h-247q-85 0 -137 -39.5t-52 -101.5q0 -50 34.5 -81t100.5 -31h269l-14 -65h-268q-97 0 -147.5 41.5t-50.5 115.5
q0 71 46 125.5t141 68.5v2q-58 10 -88.5 47zM532 905h81l-117 -142h-63z" />
    <glyph glyph-name="Ebreve.ss08" horiz-adv-x="611" 
d="M154.5 400q-30.5 37 -30.5 93q0 60 33 107t96 73.5t149 26.5h261l-14 -65h-260q-95 0 -142.5 -40t-47.5 -102q0 -51 34 -81t102 -30h247l-14 -64h-247q-85 0 -137 -39.5t-52 -101.5q0 -50 34.5 -81t100.5 -31h269l-14 -65h-268q-97 0 -147.5 41.5t-50.5 115.5
q0 71 46 125.5t141 68.5v2q-58 10 -88.5 47zM397.5 791q-27.5 28 -27.5 76q0 21 4 38h54q-4 -17 -4 -35q0 -57 51 -57q32 0 54 23.5t32 68.5h54q-14 -66 -50.5 -104t-91.5 -38q-48 0 -75.5 28z" />
    <glyph glyph-name="Ecaron.ss08" horiz-adv-x="611" 
d="M154.5 400q-30.5 37 -30.5 93q0 60 33 107t96 73.5t149 26.5h261l-14 -65h-260q-95 0 -142.5 -40t-47.5 -102q0 -51 34 -81t102 -30h247l-14 -64h-247q-85 0 -137 -39.5t-52 -101.5q0 -50 34.5 -81t100.5 -31h269l-14 -65h-268q-97 0 -147.5 41.5t-50.5 115.5
q0 71 46 125.5t141 68.5v2q-58 10 -88.5 47zM372 905h49l50 -78h2l85 78h62l-133 -142h-44z" />
    <glyph glyph-name="Ecircumflex.ss08" horiz-adv-x="611" 
d="M154.5 400q-30.5 37 -30.5 93q0 60 33 107t96 73.5t149 26.5h261l-14 -65h-260q-95 0 -142.5 -40t-47.5 -102q0 -51 34 -81t102 -30h247l-14 -64h-247q-85 0 -137 -39.5t-52 -101.5q0 -50 34.5 -81t100.5 -31h269l-14 -65h-268q-97 0 -147.5 41.5t-50.5 115.5
q0 71 46 125.5t141 68.5v2q-58 10 -88.5 47zM472 905h43l72 -142h-49l-52 78h-2l-84 -78h-61z" />
    <glyph glyph-name="Edieresis.ss08" horiz-adv-x="611" 
d="M154.5 400q-30.5 37 -30.5 93q0 60 33 107t96 73.5t149 26.5h261l-14 -65h-260q-95 0 -142.5 -40t-47.5 -102q0 -51 34 -81t102 -30h247l-14 -64h-247q-85 0 -137 -39.5t-52 -101.5q0 -50 34.5 -81t100.5 -31h269l-14 -65h-268q-97 0 -147.5 41.5t-50.5 115.5
q0 71 46 125.5t141 68.5v2q-58 10 -88.5 47zM389 883h73l-16 -77h-74zM518 883h74l-17 -77h-73z" />
    <glyph glyph-name="Edotaccent.ss08" horiz-adv-x="611" 
d="M154.5 400q-30.5 37 -30.5 93q0 60 33 107t96 73.5t149 26.5h261l-14 -65h-260q-95 0 -142.5 -40t-47.5 -102q0 -51 34 -81t102 -30h247l-14 -64h-247q-85 0 -137 -39.5t-52 -101.5q0 -50 34.5 -81t100.5 -31h269l-14 -65h-268q-97 0 -147.5 41.5t-50.5 115.5
q0 71 46 125.5t141 68.5v2q-58 10 -88.5 47zM454 883h73l-17 -77h-73z" />
    <glyph glyph-name="uni1EB8.ss08" horiz-adv-x="611" 
d="M154.5 400q-30.5 37 -30.5 93q0 60 33 107t96 73.5t149 26.5h261l-14 -65h-260q-95 0 -142.5 -40t-47.5 -102q0 -51 34 -81t102 -30h247l-14 -64h-247q-85 0 -137 -39.5t-52 -101.5q0 -50 34.5 -81t100.5 -31h269l-14 -65h-268q-97 0 -147.5 41.5t-50.5 115.5
q0 71 46 125.5t141 68.5v2q-58 10 -88.5 47zM254 -56h75l-17 -77h-75z" />
    <glyph glyph-name="Egrave.ss08" horiz-adv-x="611" 
d="M154.5 400q-30.5 37 -30.5 93q0 60 33 107t96 73.5t149 26.5h261l-14 -65h-260q-95 0 -142.5 -40t-47.5 -102q0 -51 34 -81t102 -30h247l-14 -64h-247q-85 0 -137 -39.5t-52 -101.5q0 -50 34.5 -81t100.5 -31h269l-14 -65h-268q-97 0 -147.5 41.5t-50.5 115.5
q0 71 46 125.5t141 68.5v2q-58 10 -88.5 47zM377 905h74l39 -142h-52z" />
    <glyph glyph-name="Emacron.ss08" horiz-adv-x="611" 
d="M154.5 400q-30.5 37 -30.5 93q0 60 33 107t96 73.5t149 26.5h261l-14 -65h-260q-95 0 -142.5 -40t-47.5 -102q0 -51 34 -81t102 -30h247l-14 -64h-247q-85 0 -137 -39.5t-52 -101.5q0 -50 34.5 -81t100.5 -31h269l-14 -65h-268q-97 0 -147.5 41.5t-50.5 115.5
q0 71 46 125.5t141 68.5v2q-58 10 -88.5 47zM347 867h277l-13 -62h-277z" />
    <glyph glyph-name="Eogonek.ss08" horiz-adv-x="611" 
d="M154.5 400q-30.5 37 -30.5 93q0 60 33 107t96 73.5t149 26.5h261l-14 -65h-260q-95 0 -142.5 -40t-47.5 -102q0 -51 34 -81t102 -30h247l-14 -64h-247q-85 0 -137 -39.5t-52 -101.5q0 -50 34.5 -81t100.5 -31h269l-14 -65h-5l-3 -2q-27 -4 -46 -25t-19 -46
q0 -24 18 -37.5t55 -13.5h9l-12 -58h-9q-53 0 -81.5 23t-28.5 62q0 30 18 56t51 41h-215q-97 0 -147.5 41.5t-50.5 115.5q0 71 46 125.5t141 68.5v2q-58 10 -88.5 47z" />
    <glyph glyph-name="uni1EBC.ss08" horiz-adv-x="611" 
d="M154.5 400q-30.5 37 -30.5 93q0 60 33 107t96 73.5t149 26.5h261l-14 -65h-260q-95 0 -142.5 -40t-47.5 -102q0 -51 34 -81t102 -30h247l-14 -64h-247q-85 0 -137 -39.5t-52 -101.5q0 -50 34.5 -81t100.5 -31h269l-14 -65h-268q-97 0 -147.5 41.5t-50.5 115.5
q0 71 46 125.5t141 68.5v2q-58 10 -88.5 47zM497.5 779q-19.5 13 -39.5 37q-15 18 -27.5 27t-29.5 9q-22 0 -37.5 -16.5t-21.5 -46.5l-3 -15h-56l5 23q11 51 41 80t76 29q33 0 52.5 -13t39.5 -37q15 -18 27.5 -27t29.5 -9q22 0 37.5 16.5t21.5 46.5l3 15h56l-5 -23
q-11 -51 -41 -80t-76 -29q-33 0 -52.5 13z" />
    <glyph glyph-name="F.ss08" horiz-adv-x="582" 
d="M157 397q-30 36 -30 92q0 62 37 110t100.5 74.5t139.5 26.5h261l-13 -65h-260q-55 0 -98 -19t-67 -53t-24 -76q0 -50 33.5 -77.5t98.5 -27.5h249l-14 -64h-246q-148 0 -178 -136l-38 -182h-75l39 183q15 73 56.5 113.5t115.5 52.5v2q-57 10 -87 46z" />
    <glyph glyph-name="Y.ss09" horiz-adv-x="651" 
d="M32 65h420l42 202h-371q-17 0 -28 11t-11 27q0 7 1 10l82 385h74l-79 -369h346l79 369h74l-141 -663q-4 -18 -16 -27.5t-31 -9.5h-455z" />
    <glyph glyph-name="Yacute.ss09" horiz-adv-x="651" 
d="M32 65h420l42 202h-371q-17 0 -28 11t-11 27q0 7 1 10l82 385h74l-79 -369h346l79 369h74l-141 -663q-4 -18 -16 -27.5t-31 -9.5h-455zM497 905h81l-117 -142h-63z" />
    <glyph glyph-name="Ycircumflex.ss09" horiz-adv-x="651" 
d="M32 65h420l42 202h-371q-17 0 -28 11t-11 27q0 7 1 10l82 385h74l-79 -369h346l79 369h74l-141 -663q-4 -18 -16 -27.5t-31 -9.5h-455zM437 905h43l72 -142h-49l-52 78h-2l-84 -78h-61z" />
    <glyph glyph-name="Ydieresis.ss09" horiz-adv-x="651" 
d="M32 65h420l42 202h-371q-17 0 -28 11t-11 27q0 7 1 10l82 385h74l-79 -369h346l79 369h74l-141 -663q-4 -18 -16 -27.5t-31 -9.5h-455zM354 883h73l-16 -77h-74zM483 883h74l-17 -77h-73z" />
    <glyph glyph-name="Ygrave.ss09" horiz-adv-x="651" 
d="M32 65h420l42 202h-371q-17 0 -28 11t-11 27q0 7 1 10l82 385h74l-79 -369h346l79 369h74l-141 -663q-4 -18 -16 -27.5t-31 -9.5h-455zM342 905h74l39 -142h-52z" />
    <glyph glyph-name="uni0232.ss09" horiz-adv-x="651" 
d="M32 65h420l42 202h-371q-17 0 -28 11t-11 27q0 7 1 10l82 385h74l-79 -369h346l79 369h74l-141 -663q-4 -18 -16 -27.5t-31 -9.5h-455zM312 867h277l-13 -62h-277z" />
    <glyph glyph-name="uni1EF8.ss09" horiz-adv-x="651" 
d="M32 65h420l42 202h-371q-17 0 -28 11t-11 27q0 7 1 10l82 385h74l-79 -369h346l79 369h74l-141 -663q-4 -18 -16 -27.5t-31 -9.5h-455zM462.5 779q-19.5 13 -39.5 37q-15 18 -27.5 27t-29.5 9q-22 0 -37.5 -16.5t-21.5 -46.5l-3 -15h-56l5 23q11 51 41 80t76 29
q33 0 52.5 -13t39.5 -37q15 -18 27.5 -27t29.5 -9q22 0 37.5 16.5t21.5 46.5l3 15h56l-5 -23q-11 -51 -41 -80t-76 -29q-33 0 -52.5 13z" />
    <glyph glyph-name="Q.ss10" horiz-adv-x="763" 
d="M203 -189.5q-12 10.5 -12 27.5q0 16 10 32l74 122q-103 15 -164 87.5t-61 192.5q0 115 55.5 216.5t152 162.5t211.5 61q82 0 145 -32.5t98 -96.5t35 -155q0 -110 -52 -209t-143.5 -161.5t-202.5 -68.5l-75 -123h231l-14 -66h-255q-21 0 -33 10.5zM182 106.5
q56 -54.5 149 -54.5q96 0 174 55t122 143.5t44 182.5q0 107 -56.5 161t-148.5 54q-96 0 -174 -55.5t-122 -144t-44 -182.5q0 -105 56 -159.5z" />
    <glyph glyph-name="Aacute.ss11" horiz-adv-x="636" 
d="M369 700h78l115 -700h-72l-30 196h-307l-113 -196h-81zM450 260l-27 176l-12 80q-11 75 -16 104h-2q-40 -74 -108 -194l-95 -166h260zM604 831l-5 -25l-239 -38l2 10z" />
    <glyph glyph-name="Abreve.ss11" horiz-adv-x="636" 
d="M369 700h78l115 -700h-72l-30 196h-307l-113 -196h-81zM450 260l-27 176l-12 80q-11 75 -16 104h-2q-40 -74 -108 -194l-95 -166h260zM492.5 777q-33.5 -23 -74.5 -23q-42 0 -66 24t-26 61l9 -2q4 -28 27 -43.5t58 -15.5q36 0 66.5 16.5t46.5 44.5l10 -2
q-17 -37 -50.5 -60z" />
    <glyph glyph-name="Acircumflex.ss11" horiz-adv-x="636" 
d="M369 700h78l115 -700h-72l-30 196h-307l-113 -196h-81zM450 260l-27 176l-12 80q-11 75 -16 104h-2q-40 -74 -108 -194l-95 -166h260zM302 771l128 61h5l102 -61l-2 -10l-107 47h-1l-127 -47z" />
    <glyph glyph-name="uni1EAC.ss11" horiz-adv-x="636" 
d="M369 700h78l115 -700h-72l-30 196h-307l-113 -196h-81zM450 260l-27 176l-12 80q-11 75 -16 104h-2q-40 -74 -108 -194l-95 -166h260zM230 -62h36l-10 -46h-36zM302 771l128 61h5l102 -61l-2 -10l-107 47h-1l-127 -47z" />
    <glyph glyph-name="Adieresis.ss11" horiz-adv-x="636" 
d="M369 700h78l115 -700h-72l-30 196h-307l-113 -196h-81zM450 260l-27 176l-12 80q-11 75 -16 104h-2q-40 -74 -108 -194l-95 -166h260zM472 828h36l-7 -36h-36zM356 828h36l-7 -36h-36z" />
    <glyph glyph-name="uni1EA0.ss11" horiz-adv-x="636" 
d="M369 700h78l115 -700h-72l-30 196h-307l-113 -196h-81zM450 260l-27 176l-12 80q-11 75 -16 104h-2q-40 -74 -108 -194l-95 -166h260zM230 -62h36l-10 -46h-36z" />
    <glyph glyph-name="Agrave.ss11" horiz-adv-x="636" 
d="M369 700h78l115 -700h-72l-30 196h-307l-113 -196h-81zM450 260l-27 176l-12 80q-11 75 -16 104h-2q-40 -74 -108 -194l-95 -166h260zM472 768l-221 38l7 25l216 -53z" />
    <glyph glyph-name="Amacron.ss11" horiz-adv-x="636" 
d="M369 700h78l115 -700h-72l-30 196h-307l-113 -196h-81zM450 260l-27 176l-12 80q-11 75 -16 104h-2q-40 -74 -108 -194l-95 -166h260zM306 820h250l-5 -24h-250z" />
    <glyph glyph-name="Aogonek.ss11" horiz-adv-x="636" 
d="M369 700h78l115 -700l-17 -9q-26 -14 -41.5 -35.5t-15.5 -44.5q0 -24 17.5 -37.5t53.5 -13.5h19l-6 -30h-18q-43 0 -66 18.5t-23 50.5q0 29 19.5 56.5t53.5 43.5v1h-48l-30 196h-307l-113 -196h-81zM450 260l-27 176l-12 80q-11 75 -16 104h-2q-40 -74 -108 -194
l-95 -166h260z" />
    <glyph glyph-name="Aring.ss11" horiz-adv-x="636" 
d="M369 700h78l115 -700h-72l-30 196h-307l-113 -196h-81zM450 260l-27 176l-12 80q-11 75 -16 104h-2q-40 -74 -108 -194l-95 -166h260zM375 758.5q-16 15.5 -16 41.5q0 33 24 56.5t57 23.5q26 0 42 -16t16 -42q0 -33 -24 -56t-57 -23q-26 0 -42 15.5zM386.5 764.5
q11.5 -11.5 29.5 -11.5q26 0 45 17.5t19 41.5q0 20 -11.5 32t-30.5 12q-25 0 -44 -18t-19 -43q0 -19 11.5 -30.5z" />
    <glyph glyph-name="Atilde.ss11" horiz-adv-x="636" 
d="M369 700h78l115 -700h-72l-30 196h-307l-113 -196h-81zM450 260l-27 176l-12 80q-11 75 -16 104h-2q-40 -74 -108 -194l-95 -166h260zM448.5 757.5q-14.5 11.5 -30.5 35.5q-13 21 -25.5 31.5t-32.5 10.5q-28 0 -53 -22.5t-33 -62.5l-10 2q10 49 37.5 76.5t63.5 27.5
q25 0 39.5 -12t30.5 -35q15 -21 27 -31.5t31 -10.5q28 0 52.5 22t33.5 63l10 -2q-10 -49 -37 -76.5t-63 -27.5q-26 0 -40.5 11.5z" />
    <glyph glyph-name="AEacute.ss11" horiz-adv-x="903" 
d="M436 196h-266v1l-128 -197h-83l466 700h537l-14 -65h-343l-54 -252h305l-14 -65h-305l-54 -253h345l-14 -65h-419zM450 261l80 374h-74l-244 -374h238zM778 831l-5 -25l-239 -38l2 10z" />
    <glyph glyph-name="Cacute.ss11" horiz-adv-x="735" 
d="M123 61.5q-73 73.5 -73 205.5q0 113 50.5 215.5t145 166t219.5 63.5q86 0 146 -30.5t90.5 -84t30.5 -122.5q0 -20 -3 -43h-74q2 12 2 35q0 82 -52 131.5t-145 49.5q-101 0 -177.5 -56.5t-117 -144.5t-40.5 -179q0 -105 56.5 -160.5t149.5 -55.5q70 0 129 31t98.5 78
t57.5 94h76q-24 -75 -76 -136t-126.5 -96t-163.5 -35q-130 0 -203 73.5zM668 831l-5 -25l-239 -38l2 10z" />
    <glyph glyph-name="Ccaron.ss11" horiz-adv-x="735" 
d="M123 61.5q-73 73.5 -73 205.5q0 113 50.5 215.5t145 166t219.5 63.5q86 0 146 -30.5t90.5 -84t30.5 -122.5q0 -20 -3 -43h-74q2 12 2 35q0 82 -52 131.5t-145 49.5q-101 0 -177.5 -56.5t-117 -144.5t-40.5 -179q0 -105 56.5 -160.5t149.5 -55.5q70 0 129 31t98.5 78
t57.5 94h76q-24 -75 -76 -136t-126.5 -96t-163.5 -35q-130 0 -203 73.5zM376 822l2 10l107 -47h1l127 47l-2 -10l-128 -61h-5z" />
    <glyph glyph-name="Ccedilla.ss11" horiz-adv-x="735" 
d="M219 -170l5 25h75q29 0 45.5 15t16.5 36q0 16 -11 25t-32 9h-23l11 48q-121 6 -188.5 79.5t-67.5 199.5q0 113 50.5 215.5t145 166t219.5 63.5q86 0 146 -30.5t90.5 -84t30.5 -122.5q0 -20 -3 -43h-74q2 12 2 35q0 82 -52 131.5t-145 49.5q-101 0 -177.5 -56.5
t-117 -144.5t-40.5 -179q0 -105 56.5 -160.5t149.5 -55.5q70 0 129 31t98.5 78t57.5 94h76q-24 -75 -75.5 -135t-125 -95.5t-161.5 -36.5l-8 -37h3q29 0 46 -14t17 -38q0 -29 -25 -49t-63 -20h-81z" />
    <glyph glyph-name="Ccircumflex.ss11" horiz-adv-x="735" 
d="M123 61.5q-73 73.5 -73 205.5q0 113 50.5 215.5t145 166t219.5 63.5q86 0 146 -30.5t90.5 -84t30.5 -122.5q0 -20 -3 -43h-74q2 12 2 35q0 82 -52 131.5t-145 49.5q-101 0 -177.5 -56.5t-117 -144.5t-40.5 -179q0 -105 56.5 -160.5t149.5 -55.5q70 0 129 31t98.5 78
t57.5 94h76q-24 -75 -76 -136t-126.5 -96t-163.5 -35q-130 0 -203 73.5zM366 771l128 61h5l102 -61l-2 -10l-107 47h-1l-127 -47z" />
    <glyph glyph-name="Cdotaccent.ss11" horiz-adv-x="735" 
d="M123 61.5q-73 73.5 -73 205.5q0 113 50.5 215.5t145 166t219.5 63.5q86 0 146 -30.5t90.5 -84t30.5 -122.5q0 -20 -3 -43h-74q2 12 2 35q0 82 -52 131.5t-145 49.5q-101 0 -177.5 -56.5t-117 -144.5t-40.5 -179q0 -105 56.5 -160.5t149.5 -55.5q70 0 129 31t98.5 78
t57.5 94h76q-24 -75 -76 -136t-126.5 -96t-163.5 -35q-130 0 -203 73.5zM477 828h36l-7 -36h-36z" />
    <glyph glyph-name="Eth.ss11" horiz-adv-x="710" 
d="M168 336l-58 -271h165q106 0 184 52t119 135t41 174q0 104 -55 156.5t-153 52.5h-180l-58 -273h93l-6 -26h-92zM28 362h72l72 338h244q129 0 203 -69t74 -203q0 -111 -50 -209t-146 -158.5t-228 -60.5h-246l72 336h-73z" />
    <glyph glyph-name="Dcaron.ss11" horiz-adv-x="710" 
d="M172 700h244q129 0 203 -69t74 -203q0 -111 -50 -209t-146 -158.5t-228 -60.5h-246zM275 65q106 0 184 52t119 135t41 174q0 104 -55 156.5t-153 52.5h-180l-121 -570h165zM326 822l2 10l107 -47h1l127 47l-2 -10l-128 -61h-5z" />
    <glyph glyph-name="Dcroat.ss11" horiz-adv-x="710" 
d="M168 336l-58 -271h165q106 0 184 52t119 135t41 174q0 104 -55 156.5t-153 52.5h-180l-58 -273h93l-6 -26h-92zM28 362h72l72 338h244q129 0 203 -69t74 -203q0 -111 -50 -209t-146 -158.5t-228 -60.5h-246l72 336h-73z" />
    <glyph glyph-name="Eacute.ss11" 
d="M172 700h476l-14 -65h-401l-52 -249h362l-14 -64h-362l-55 -257h402l-14 -65h-477zM611 831l-5 -25l-239 -38l2 10z" />
    <glyph glyph-name="Ebreve.ss11" 
d="M172 700h476l-14 -65h-401l-52 -249h362l-14 -64h-362l-55 -257h402l-14 -65h-477zM499.5 777q-33.5 -23 -74.5 -23q-42 0 -66 24t-26 61l9 -2q4 -28 27 -43.5t58 -15.5q36 0 66.5 16.5t46.5 44.5l10 -2q-17 -37 -50.5 -60z" />
    <glyph glyph-name="Ecaron.ss11" 
d="M172 700h476l-14 -65h-401l-52 -249h362l-14 -64h-362l-55 -257h402l-14 -65h-477zM319 822l2 10l107 -47h1l127 47l-2 -10l-128 -61h-5z" />
    <glyph glyph-name="Ecircumflex.ss11" 
d="M172 700h476l-14 -65h-401l-52 -249h362l-14 -64h-362l-55 -257h402l-14 -65h-477zM309 771l128 61h5l102 -61l-2 -10l-107 47h-1l-127 -47z" />
    <glyph glyph-name="Edieresis.ss11" 
d="M172 700h476l-14 -65h-401l-52 -249h362l-14 -64h-362l-55 -257h402l-14 -65h-477zM479 828h36l-7 -36h-36zM363 828h36l-7 -36h-36z" />
    <glyph glyph-name="Edotaccent.ss11" 
d="M172 700h476l-14 -65h-401l-52 -249h362l-14 -64h-362l-55 -257h402l-14 -65h-477zM420 828h36l-7 -36h-36z" />
    <glyph glyph-name="uni1EB8.ss11" 
d="M172 700h476l-14 -65h-401l-52 -249h362l-14 -64h-362l-55 -257h402l-14 -65h-477zM233 -62h36l-10 -46h-36z" />
    <glyph glyph-name="Egrave.ss11" 
d="M172 700h476l-14 -65h-401l-52 -249h362l-14 -64h-362l-55 -257h402l-14 -65h-477zM479 768l-221 38l7 25l216 -53z" />
    <glyph glyph-name="Emacron.ss11" 
d="M172 700h476l-14 -65h-401l-52 -249h362l-14 -64h-362l-55 -257h402l-14 -65h-477zM313 820h250l-5 -24h-250z" />
    <glyph glyph-name="Eogonek.ss11" 
d="M172 700h476l-14 -65h-401l-52 -249h362l-14 -64h-362l-55 -257h402l-14 -65l-17 -9q-26 -14 -41.5 -35.5t-15.5 -44.5q0 -24 17.5 -37.5t53.5 -13.5h19l-6 -30h-18q-43 0 -66 18.5t-23 50.5q0 29 19.5 56.5t53.5 43.5v1h-453z" />
    <glyph glyph-name="uni1EBC.ss11" 
d="M172 700h476l-14 -65h-401l-52 -249h362l-14 -64h-362l-55 -257h402l-14 -65h-477zM455.5 757.5q-14.5 11.5 -30.5 35.5q-13 21 -25.5 31.5t-32.5 10.5q-28 0 -53 -22.5t-33 -62.5l-10 2q10 49 37.5 76.5t63.5 27.5q25 0 39.5 -12t30.5 -35q15 -21 27 -31.5t31 -10.5
q28 0 52.5 22t33.5 63l10 -2q-10 -49 -37 -76.5t-63 -27.5q-26 0 -40.5 11.5z" />
    <glyph glyph-name="Gbreve.ss11" horiz-adv-x="762" 
d="M121.5 62.5q-71.5 74.5 -71.5 207.5q0 111 51 213t145.5 165.5t220.5 63.5q86 0 147 -31t92 -84.5t31 -121.5q0 -22 -3 -43h-75q3 18 3 36q0 81 -53 130.5t-147 49.5q-102 0 -178.5 -56.5t-117 -144t-40.5 -176.5q0 -107 56 -163t151 -56q75 0 137 33t104 83t61 103h-263
l14 65h282q18 0 28 -9.5t10 -25.5q0 -8 -1 -12l-61 -289h-71l53 172h-3q-49 -84 -128 -134t-179 -50q-123 0 -194.5 74.5zM552.5 777q-33.5 -23 -74.5 -23q-42 0 -66 24t-26 61l9 -2q4 -28 27 -43.5t58 -15.5q36 0 66.5 16.5t46.5 44.5l10 -2q-17 -37 -50.5 -60z" />
    <glyph glyph-name="Gcaron.ss11" horiz-adv-x="762" 
d="M121.5 62.5q-71.5 74.5 -71.5 207.5q0 111 51 213t145.5 165.5t220.5 63.5q86 0 147 -31t92 -84.5t31 -121.5q0 -22 -3 -43h-75q3 18 3 36q0 81 -53 130.5t-147 49.5q-102 0 -178.5 -56.5t-117 -144t-40.5 -176.5q0 -107 56 -163t151 -56q75 0 137 33t104 83t61 103h-263
l14 65h282q18 0 28 -9.5t10 -25.5q0 -8 -1 -12l-61 -289h-71l53 172h-3q-49 -84 -128 -134t-179 -50q-123 0 -194.5 74.5zM372 822l2 10l107 -47h1l127 47l-2 -10l-128 -61h-5z" />
    <glyph glyph-name="Gcircumflex.ss11" horiz-adv-x="762" 
d="M121.5 62.5q-71.5 74.5 -71.5 207.5q0 111 51 213t145.5 165.5t220.5 63.5q86 0 147 -31t92 -84.5t31 -121.5q0 -22 -3 -43h-75q3 18 3 36q0 81 -53 130.5t-147 49.5q-102 0 -178.5 -56.5t-117 -144t-40.5 -176.5q0 -107 56 -163t151 -56q75 0 137 33t104 83t61 103h-263
l14 65h282q18 0 28 -9.5t10 -25.5q0 -8 -1 -12l-61 -289h-71l53 172h-3q-49 -84 -128 -134t-179 -50q-123 0 -194.5 74.5zM362 771l128 61h5l102 -61l-2 -10l-107 47h-1l-127 -47z" />
    <glyph glyph-name="uni0122.ss11" horiz-adv-x="762" 
d="M380 -132v6h-31v55h45v-61q0 -26 -13.5 -42t-41.5 -16v14q41 0 41 44zM101 483q51 102 145.5 165.5t220.5 63.5q86 0 147 -31t92 -84.5t31 -121.5q0 -22 -3 -43h-75q3 18 3 36q0 81 -53 130.5t-147 49.5q-102 0 -178.5 -56.5t-117 -144t-40.5 -176.5q0 -107 56 -163
t151 -56q75 0 137 33t104 83t61 103h-263l14 65h282q18 0 28 -9.5t10 -25.5q0 -8 -1 -12l-61 -289h-71l53 172h-3q-49 -84 -128 -134t-179 -50q-123 0 -194.5 74.5t-71.5 207.5q0 111 51 213z" />
    <glyph glyph-name="Gdotaccent.ss11" horiz-adv-x="762" 
d="M121.5 62.5q-71.5 74.5 -71.5 207.5q0 111 51 213t145.5 165.5t220.5 63.5q86 0 147 -31t92 -84.5t31 -121.5q0 -22 -3 -43h-75q3 18 3 36q0 81 -53 130.5t-147 49.5q-102 0 -178.5 -56.5t-117 -144t-40.5 -176.5q0 -107 56 -163t151 -56q75 0 137 33t104 83t61 103h-263
l14 65h282q18 0 28 -9.5t10 -25.5q0 -8 -1 -12l-61 -289h-71l53 172h-3q-49 -84 -128 -134t-179 -50q-123 0 -194.5 74.5zM473 828h36l-7 -36h-36z" />
    <glyph glyph-name="uni1E20.ss11" horiz-adv-x="762" 
d="M121.5 62.5q-71.5 74.5 -71.5 207.5q0 111 51 213t145.5 165.5t220.5 63.5q86 0 147 -31t92 -84.5t31 -121.5q0 -22 -3 -43h-75q3 18 3 36q0 81 -53 130.5t-147 49.5q-102 0 -178.5 -56.5t-117 -144t-40.5 -176.5q0 -107 56 -163t151 -56q75 0 137 33t104 83t61 103h-263
l14 65h282q18 0 28 -9.5t10 -25.5q0 -8 -1 -12l-61 -289h-71l53 172h-3q-49 -84 -128 -134t-179 -50q-123 0 -194.5 74.5zM366 820h250l-5 -24h-250z" />
    <glyph glyph-name="uni01E4.ss11" horiz-adv-x="767" 
d="M177 23q-61 35 -93.5 100t-32.5 153q0 112 50 212t145 162t222 62q92 0 155 -32.5t93.5 -87t28.5 -120.5h-77q3 48 -19.5 88t-68.5 64t-111 24q-99 0 -177 -54t-120.5 -140t-42.5 -178q0 -107 58 -165.5t155 -58.5q82 0 152 40.5t114 109.5h-250l14 63h269q14 35 19 63
h-275l14 65h287q17 0 26.5 -8t9.5 -22q0 -4 -2 -12l-18 -86h56l-13 -63h-56l-43 -202h-71l52 172h-2q-51 -86 -128.5 -135t-175.5 -49q-83 0 -144 35z" />
    <glyph glyph-name="Hbar.ss11" horiz-adv-x="676" 
d="M84 557h58l30 143h75l-30 -143h381l30 143h76l-30 -143h57l-6 -24h-57l-113 -533h-76l68 320h-381l-68 -320h-75l113 533h-58zM561 385l31 148h-381l-31 -148h381z" />
    <glyph glyph-name="Hcircumflex.ss11" horiz-adv-x="694" 
d="M172 700h75l-67 -315h381l67 315h76l-149 -700h-76l68 320h-381l-68 -320h-75zM335 771l128 61h5l102 -61l-2 -10l-107 47h-1l-127 -47z" />
    <glyph glyph-name="Iacute.ss11" horiz-adv-x="238" 
d="M172 700h75l-149 -700h-75zM410 831l-5 -25l-239 -38l2 10z" />
    <glyph glyph-name="Ibreve.ss11" horiz-adv-x="238" 
d="M172 700h75l-149 -700h-75zM298.5 777q-33.5 -23 -74.5 -23q-42 0 -66 24t-26 61l9 -2q4 -28 27 -43.5t58 -15.5q36 0 66.5 16.5t46.5 44.5l10 -2q-17 -37 -50.5 -60z" />
    <glyph glyph-name="uni01CF.ss11" horiz-adv-x="238" 
d="M172 700h75l-149 -700h-75zM118 822l2 10l107 -47h1l127 47l-2 -10l-128 -61h-5z" />
    <glyph glyph-name="Icircumflex.ss11" horiz-adv-x="238" 
d="M172 700h75l-149 -700h-75zM108 771l128 61h5l102 -61l-2 -10l-107 47h-1l-127 -47z" />
    <glyph glyph-name="Idieresis.ss11" horiz-adv-x="238" 
d="M172 700h75l-149 -700h-75zM278 828h36l-7 -36h-36zM162 828h36l-7 -36h-36z" />
    <glyph glyph-name="Idotaccent.ss11" horiz-adv-x="238" 
d="M172 700h75l-149 -700h-75zM219 828h36l-7 -36h-36z" />
    <glyph glyph-name="uni1ECA.ss11" horiz-adv-x="238" 
d="M172 700h75l-149 -700h-75zM31 -62h36l-10 -46h-36z" />
    <glyph glyph-name="Igrave.ss11" horiz-adv-x="238" 
d="M172 700h75l-149 -700h-75zM278 768l-221 38l7 25l216 -53z" />
    <glyph glyph-name="Imacron.ss11" horiz-adv-x="238" 
d="M172 700h75l-149 -700h-75zM112 820h250l-5 -24h-250z" />
    <glyph glyph-name="Iogonek.ss11" horiz-adv-x="238" 
d="M172 700h75l-149 -700l-17 -9q-26 -14 -41.5 -35.5t-15.5 -44.5q0 -24 17.5 -37.5t53.5 -13.5h19l-6 -30h-18q-43 0 -66 18.5t-23 50.5q0 29 19.5 56.5t53.5 43.5v1h-51z" />
    <glyph glyph-name="Itilde.ss11" horiz-adv-x="238" 
d="M172 700h75l-149 -700h-75zM254.5 757.5q-14.5 11.5 -30.5 35.5q-13 21 -25.5 31.5t-32.5 10.5q-28 0 -53 -22.5t-33 -62.5l-10 2q10 49 37.5 76.5t63.5 27.5q25 0 39.5 -12t30.5 -35q15 -21 27 -31.5t31 -10.5q28 0 52.5 22t33.5 63l10 -2q-10 -49 -37 -76.5t-63 -27.5
q-26 0 -40.5 11.5z" />
    <glyph glyph-name="uni004A0301.ss11" horiz-adv-x="545" 
d="M60.5 37.5q-54.5 49.5 -54.5 134.5q0 22 7 59h72q-6 -31 -6 -56q0 -61 33 -92t90 -31q67 0 113 44.5t65 135.5l99 468h74l-100 -477q-25 -114 -90.5 -174.5t-160.5 -60.5q-87 0 -141.5 49.5zM653 831l-5 -25l-239 -38l2 10z" />
    <glyph glyph-name="Jcircumflex.ss11" horiz-adv-x="545" 
d="M60.5 37.5q-54.5 49.5 -54.5 134.5q0 22 7 59h72q-6 -31 -6 -56q0 -61 33 -92t90 -31q67 0 113 44.5t65 135.5l99 468h74l-100 -477q-25 -114 -90.5 -174.5t-160.5 -60.5q-87 0 -141.5 49.5zM351 771l128 61h5l102 -61l-2 -10l-107 47h-1l-127 -47z" />
    <glyph glyph-name="uni0136.ss11" horiz-adv-x="626" 
d="M171 700h74l-84 -397h2l421 397h108l-344 -315l212 -385h-85l-179 336h-2l-156 -144l-41 -192h-74zM240 -121l1 5h-31l11 55h45l-13 -62q-6 -26 -22.5 -41.5t-44.5 -15.5l2 14q41 0 52 45z" />
    <glyph glyph-name="Lacute.ss11" horiz-adv-x="504" 
d="M439 65l-14 -65h-402l149 700h75l-135 -635h327zM348 831l-5 -25l-239 -38l2 10z" />
    <glyph glyph-name="Lcaron.ss11" horiz-adv-x="504" 
d="M439 65l-14 -65h-402l149 700h75l-135 -635h327zM423 597q14 12 18 35l4 19h-25l10 49h40l-15 -69q-12 -60 -69 -60l3 14q20 0 34 12z" />
    <glyph glyph-name="uni013B.ss11" horiz-adv-x="504" 
d="M439 65l-14 -65h-402l149 700h75l-135 -635h327zM227 -121l1 5h-31l11 55h45l-13 -62q-6 -26 -22.5 -41.5t-44.5 -15.5l2 14q41 0 52 45z" />
    <glyph glyph-name="Ldot.ss11" horiz-adv-x="504" 
d="M304 359h36l-4 -46h-36zM172 700h75l-135 -635h327l-14 -65h-402z" />
    <glyph glyph-name="Nacute.ss11" horiz-adv-x="747" 
d="M228 602h-4l-20 -100l-107 -502h-74l149 700h92l287 -601h4l21 100l106 501h75l-149 -700h-92zM663 831l-5 -25l-239 -38l2 10z" />
    <glyph glyph-name="Ncaron.ss11" horiz-adv-x="747" 
d="M228 602h-4l-20 -100l-107 -502h-74l149 700h92l287 -601h4l21 100l106 501h75l-149 -700h-92zM371 822l2 10l107 -47h1l127 47l-2 -10l-128 -61h-5z" />
    <glyph glyph-name="uni0145.ss11" horiz-adv-x="747" 
d="M228 602h-4l-20 -100l-107 -502h-74l149 700h92l287 -601h4l21 100l106 501h75l-149 -700h-92zM299 -121l1 5h-31l11 55h45l-13 -62q-6 -26 -22.5 -41.5t-44.5 -15.5l2 14q41 0 52 45z" />
    <glyph glyph-name="Ntilde.ss11" horiz-adv-x="747" 
d="M228 602h-4l-20 -100l-107 -502h-74l149 700h92l287 -601h4l21 100l106 501h75l-149 -700h-92zM507.5 757.5q-14.5 11.5 -30.5 35.5q-13 21 -25.5 31.5t-32.5 10.5q-28 0 -53 -22.5t-33 -62.5l-10 2q10 49 37.5 76.5t63.5 27.5q25 0 39.5 -12t30.5 -35q15 -21 27 -31.5
t31 -10.5q28 0 52.5 22t33.5 63l10 -2q-10 -49 -37 -76.5t-63 -27.5q-26 0 -40.5 11.5z" />
    <glyph glyph-name="Oacute.ss11" horiz-adv-x="763" 
d="M184 20.5q-63 32.5 -98.5 96.5t-35.5 155q0 115 55.5 216.5t152 162.5t211.5 61q82 0 145 -32.5t98 -96.5t35 -155q0 -114 -55.5 -215.5t-151.5 -163t-212 -61.5q-81 0 -144 32.5zM182 106.5q56 -54.5 149 -54.5q96 0 174 55t122 143.5t44 182.5q0 107 -56.5 161
t-148.5 54q-96 0 -174 -55.5t-122 -144t-44 -182.5q0 -105 56 -159.5zM672 831l-5 -25l-239 -38l2 10z" />
    <glyph glyph-name="Obreve.ss11" horiz-adv-x="763" 
d="M184 20.5q-63 32.5 -98.5 96.5t-35.5 155q0 115 55.5 216.5t152 162.5t211.5 61q82 0 145 -32.5t98 -96.5t35 -155q0 -114 -55.5 -215.5t-151.5 -163t-212 -61.5q-81 0 -144 32.5zM182 106.5q56 -54.5 149 -54.5q96 0 174 55t122 143.5t44 182.5q0 107 -56.5 161
t-148.5 54q-96 0 -174 -55.5t-122 -144t-44 -182.5q0 -105 56 -159.5zM560.5 777q-33.5 -23 -74.5 -23q-42 0 -66 24t-26 61l9 -2q4 -28 27 -43.5t58 -15.5q36 0 66.5 16.5t46.5 44.5l10 -2q-17 -37 -50.5 -60z" />
    <glyph glyph-name="uni01D1.ss11" horiz-adv-x="763" 
d="M184 20.5q-63 32.5 -98.5 96.5t-35.5 155q0 115 55.5 216.5t152 162.5t211.5 61q82 0 145 -32.5t98 -96.5t35 -155q0 -114 -55.5 -215.5t-151.5 -163t-212 -61.5q-81 0 -144 32.5zM182 106.5q56 -54.5 149 -54.5q96 0 174 55t122 143.5t44 182.5q0 107 -56.5 161
t-148.5 54q-96 0 -174 -55.5t-122 -144t-44 -182.5q0 -105 56 -159.5zM380 822l2 10l107 -47h1l127 47l-2 -10l-128 -61h-5z" />
    <glyph glyph-name="Ocircumflex.ss11" horiz-adv-x="763" 
d="M184 20.5q-63 32.5 -98.5 96.5t-35.5 155q0 115 55.5 216.5t152 162.5t211.5 61q82 0 145 -32.5t98 -96.5t35 -155q0 -114 -55.5 -215.5t-151.5 -163t-212 -61.5q-81 0 -144 32.5zM182 106.5q56 -54.5 149 -54.5q96 0 174 55t122 143.5t44 182.5q0 107 -56.5 161
t-148.5 54q-96 0 -174 -55.5t-122 -144t-44 -182.5q0 -105 56 -159.5zM370 771l128 61h5l102 -61l-2 -10l-107 47h-1l-127 -47z" />
    <glyph glyph-name="Odieresis.ss11" horiz-adv-x="763" 
d="M184 20.5q-63 32.5 -98.5 96.5t-35.5 155q0 115 55.5 216.5t152 162.5t211.5 61q82 0 145 -32.5t98 -96.5t35 -155q0 -114 -55.5 -215.5t-151.5 -163t-212 -61.5q-81 0 -144 32.5zM182 106.5q56 -54.5 149 -54.5q96 0 174 55t122 143.5t44 182.5q0 107 -56.5 161
t-148.5 54q-96 0 -174 -55.5t-122 -144t-44 -182.5q0 -105 56 -159.5zM540 828h36l-7 -36h-36zM424 828h36l-7 -36h-36z" />
    <glyph glyph-name="uni1ECC.ss11" horiz-adv-x="763" 
d="M184 20.5q-63 32.5 -98.5 96.5t-35.5 155q0 115 55.5 216.5t152 162.5t211.5 61q82 0 145 -32.5t98 -96.5t35 -155q0 -114 -55.5 -215.5t-151.5 -163t-212 -61.5q-81 0 -144 32.5zM182 106.5q56 -54.5 149 -54.5q96 0 174 55t122 143.5t44 182.5q0 107 -56.5 161
t-148.5 54q-96 0 -174 -55.5t-122 -144t-44 -182.5q0 -105 56 -159.5zM293 -62h36l-10 -46h-36z" />
    <glyph glyph-name="Ograve.ss11" horiz-adv-x="763" 
d="M184 20.5q-63 32.5 -98.5 96.5t-35.5 155q0 115 55.5 216.5t152 162.5t211.5 61q82 0 145 -32.5t98 -96.5t35 -155q0 -114 -55.5 -215.5t-151.5 -163t-212 -61.5q-81 0 -144 32.5zM182 106.5q56 -54.5 149 -54.5q96 0 174 55t122 143.5t44 182.5q0 107 -56.5 161
t-148.5 54q-96 0 -174 -55.5t-122 -144t-44 -182.5q0 -105 56 -159.5zM540 768l-221 38l7 25l216 -53z" />
    <glyph glyph-name="Ohungarumlaut.ss11" horiz-adv-x="763" 
d="M184 20.5q-63 32.5 -98.5 96.5t-35.5 155q0 115 55.5 216.5t152 162.5t211.5 61q82 0 145 -32.5t98 -96.5t35 -155q0 -114 -55.5 -215.5t-151.5 -163t-212 -61.5q-81 0 -144 32.5zM182 106.5q56 -54.5 149 -54.5q96 0 174 55t122 143.5t44 182.5q0 107 -56.5 161
t-148.5 54q-96 0 -174 -55.5t-122 -144t-44 -182.5q0 -105 56 -159.5zM492 778l152 53l-5 -25l-149 -38zM351 778l152 53l-5 -25l-149 -38z" />
    <glyph glyph-name="Omacron.ss11" horiz-adv-x="763" 
d="M184 20.5q-63 32.5 -98.5 96.5t-35.5 155q0 115 55.5 216.5t152 162.5t211.5 61q82 0 145 -32.5t98 -96.5t35 -155q0 -114 -55.5 -215.5t-151.5 -163t-212 -61.5q-81 0 -144 32.5zM182 106.5q56 -54.5 149 -54.5q96 0 174 55t122 143.5t44 182.5q0 107 -56.5 161
t-148.5 54q-96 0 -174 -55.5t-122 -144t-44 -182.5q0 -105 56 -159.5zM374 820h250l-5 -24h-250z" />
    <glyph glyph-name="uni01EA.ss11" horiz-adv-x="763" 
d="M444 -150q-24 20 -24 54q0 29 17 56.5t49 58.5v2q-75 -33 -158 -33q-81 0 -144 32.5t-98.5 96.5t-35.5 155q0 115 55.5 216.5t152 162.5t211.5 61q82 0 145 -32.5t98 -96.5t35 -155q0 -116 -56.5 -218t-152.5 -162l-5 -3q-47 -32 -69 -66t-22 -64q0 -55 77 -55h13l-6 -30
h-17q-41 0 -65 20zM182 106.5q56 -54.5 149 -54.5q96 0 174 55t122 143.5t44 182.5q0 107 -56.5 161t-148.5 54q-96 0 -174 -55.5t-122 -144t-44 -182.5q0 -105 56 -159.5z" />
    <glyph glyph-name="Oslash.ss11" horiz-adv-x="763" 
d="M690 616q57 -73 57 -188q0 -114 -55.5 -215.5t-151.5 -163t-212 -61.5q-65 0 -119.5 21.5t-91.5 62.5l-81 -75l-9 9l80 78q-57 74 -57 188q0 115 55.5 216.5t152 162.5t211.5 61q66 0 120 -21t91 -62l80 74l9 -9zM159 135l229 224l239 221q-27 34 -68.5 51t-92.5 17
q-96 0 -174 -55.5t-122 -144t-44 -182.5q0 -79 33 -131zM238 69q42 -17 93 -17q96 0 174 55t122 143.5t44 182.5q0 81 -34 132l-230 -225l-237 -220q26 -34 68 -51z" />
    <glyph glyph-name="Oslashacute.ss11" horiz-adv-x="763" 
d="M690 616q57 -73 57 -188q0 -114 -55.5 -215.5t-151.5 -163t-212 -61.5q-65 0 -119.5 21.5t-91.5 62.5l-81 -75l-9 9l80 78q-57 74 -57 188q0 115 55.5 216.5t152 162.5t211.5 61q66 0 120 -21t91 -62l80 74l9 -9zM159 135l229 224l239 221q-27 34 -68.5 51t-92.5 17
q-96 0 -174 -55.5t-122 -144t-44 -182.5q0 -79 33 -131zM238 69q42 -17 93 -17q96 0 174 55t122 143.5t44 182.5q0 81 -34 132l-230 -225l-237 -220q26 -34 68 -51zM671 831l-5 -25l-239 -38l2 10z" />
    <glyph glyph-name="Otilde.ss11" horiz-adv-x="763" 
d="M184 20.5q-63 32.5 -98.5 96.5t-35.5 155q0 115 55.5 216.5t152 162.5t211.5 61q82 0 145 -32.5t98 -96.5t35 -155q0 -114 -55.5 -215.5t-151.5 -163t-212 -61.5q-81 0 -144 32.5zM182 106.5q56 -54.5 149 -54.5q96 0 174 55t122 143.5t44 182.5q0 107 -56.5 161
t-148.5 54q-96 0 -174 -55.5t-122 -144t-44 -182.5q0 -105 56 -159.5zM516.5 757.5q-14.5 11.5 -30.5 35.5q-13 21 -25.5 31.5t-32.5 10.5q-28 0 -53 -22.5t-33 -62.5l-10 2q10 49 37.5 76.5t63.5 27.5q25 0 39.5 -12t30.5 -35q15 -21 27 -31.5t31 -10.5q28 0 52.5 22
t33.5 63l10 -2q-10 -49 -37 -76.5t-63 -27.5q-26 0 -40.5 11.5z" />
    <glyph glyph-name="Racute.ss11" horiz-adv-x="626" 
d="M171 700h250q106 0 159 -43.5t53 -114.5q0 -51 -26 -96t-73 -75.5t-108 -40.5v-2q52 -18 78 -62t31 -121l10 -145h-73l-6 122q-4 70 -19 108.5t-47.5 55t-91.5 16.5h-149l-64 -302h-72zM325 366q108 0 170.5 43.5t62.5 119.5q0 54 -36.5 80t-114.5 26h-177l-58 -269h153z
M607 831l-5 -25l-239 -38l2 10z" />
    <glyph glyph-name="Rcaron.ss11" horiz-adv-x="626" 
d="M171 700h250q106 0 159 -43.5t53 -114.5q0 -51 -26 -96t-73 -75.5t-108 -40.5v-2q52 -18 78 -62t31 -121l10 -145h-73l-6 122q-4 70 -19 108.5t-47.5 55t-91.5 16.5h-149l-64 -302h-72zM325 366q108 0 170.5 43.5t62.5 119.5q0 54 -36.5 80t-114.5 26h-177l-58 -269h153z
M315 822l2 10l107 -47h1l127 47l-2 -10l-128 -61h-5z" />
    <glyph glyph-name="uni0156.ss11" horiz-adv-x="626" 
d="M171 700h250q106 0 159 -43.5t53 -114.5q0 -51 -26 -96t-73 -75.5t-108 -40.5v-2q52 -18 78 -62t31 -121l10 -145h-73l-6 122q-4 70 -19 108.5t-47.5 55t-91.5 16.5h-149l-64 -302h-72zM325 366q108 0 170.5 43.5t62.5 119.5q0 54 -36.5 80t-114.5 26h-177l-58 -269h153z
M243 -121l1 5h-31l11 55h45l-13 -62q-6 -26 -22.5 -41.5t-44.5 -15.5l2 14q41 0 52 45z" />
    <glyph glyph-name="Sacute.ss11" horiz-adv-x="634" 
d="M155 15.5q-58 27.5 -88.5 76.5t-30.5 112q0 19 3 38h72q-2 -20 -2 -30q0 -74 50.5 -117t137.5 -43q60 0 105.5 21t71 58t25.5 85q0 54 -34 82t-108 28h-62q-94 0 -145 43t-51 120q0 64 35 115t97.5 79.5t143.5 28.5q112 0 176.5 -53.5t64.5 -146.5q0 -19 -3 -40h-72
q2 22 2 31q0 68 -42.5 106.5t-129.5 38.5q-64 0 -109 -21.5t-67 -57t-22 -77.5q0 -49 31 -72t96 -23h62q104 0 157.5 -48.5t53.5 -130.5q0 -68 -36 -120.5t-99.5 -81t-144.5 -28.5q-80 0 -138 27.5zM603 831l-5 -25l-239 -38l2 10z" />
    <glyph glyph-name="uniA78B.ss11" horiz-adv-x="206" 
d="M163 578l29 222h35l-99 -467h-10z" />
    <glyph glyph-name="Scaron.ss11" horiz-adv-x="634" 
d="M155 15.5q-58 27.5 -88.5 76.5t-30.5 112q0 19 3 38h72q-2 -20 -2 -30q0 -74 50.5 -117t137.5 -43q60 0 105.5 21t71 58t25.5 85q0 54 -34 82t-108 28h-62q-94 0 -145 43t-51 120q0 64 35 115t97.5 79.5t143.5 28.5q112 0 176.5 -53.5t64.5 -146.5q0 -19 -3 -40h-72
q2 22 2 31q0 68 -42.5 106.5t-129.5 38.5q-64 0 -109 -21.5t-67 -57t-22 -77.5q0 -49 31 -72t96 -23h62q104 0 157.5 -48.5t53.5 -130.5q0 -68 -36 -120.5t-99.5 -81t-144.5 -28.5q-80 0 -138 27.5zM311 822l2 10l107 -47h1l127 47l-2 -10l-128 -61h-5z" />
    <glyph glyph-name="Scedilla.ss11" horiz-adv-x="634" 
d="M268 -11l-8 -38h3q29 0 46 -14t17 -38q0 -29 -25 -49t-63 -20h-81l5 25h75q29 0 45.5 15t16.5 36q0 16 -11 25t-32 9h-23l11 51q-98 12 -153 70t-55 143q0 19 3 38h72q-2 -20 -2 -30q0 -74 50.5 -117t137.5 -43q60 0 105.5 21t71 58t25.5 85q0 54 -34 82t-108 28h-62
q-94 0 -145 43t-51 120q0 64 35 115t97.5 79.5t143.5 28.5q112 0 176.5 -53.5t64.5 -146.5q0 -19 -3 -40h-72q2 22 2 31q0 68 -42.5 106.5t-129.5 38.5q-64 0 -109 -21.5t-67 -57t-22 -77.5q0 -49 31 -72t96 -23h62q104 0 157.5 -48.5t53.5 -130.5q0 -68 -36 -120.5
t-99.5 -81t-144.5 -28.5q-17 0 -25 1z" />
    <glyph glyph-name="Scircumflex.ss11" horiz-adv-x="634" 
d="M155 15.5q-58 27.5 -88.5 76.5t-30.5 112q0 19 3 38h72q-2 -20 -2 -30q0 -74 50.5 -117t137.5 -43q60 0 105.5 21t71 58t25.5 85q0 54 -34 82t-108 28h-62q-94 0 -145 43t-51 120q0 64 35 115t97.5 79.5t143.5 28.5q112 0 176.5 -53.5t64.5 -146.5q0 -19 -3 -40h-72
q2 22 2 31q0 68 -42.5 106.5t-129.5 38.5q-64 0 -109 -21.5t-67 -57t-22 -77.5q0 -49 31 -72t96 -23h62q104 0 157.5 -48.5t53.5 -130.5q0 -68 -36 -120.5t-99.5 -81t-144.5 -28.5q-80 0 -138 27.5zM301 771l128 61h5l102 -61l-2 -10l-107 47h-1l-127 -47z" />
    <glyph glyph-name="uni0218.ss11" horiz-adv-x="634" 
d="M155 15.5q-58 27.5 -88.5 76.5t-30.5 112q0 19 3 38h72q-2 -20 -2 -30q0 -74 50.5 -117t137.5 -43q60 0 105.5 21t71 58t25.5 85q0 54 -34 82t-108 28h-62q-94 0 -145 43t-51 120q0 64 35 115t97.5 79.5t143.5 28.5q112 0 176.5 -53.5t64.5 -146.5q0 -19 -3 -40h-72
q2 22 2 31q0 68 -42.5 106.5t-129.5 38.5q-64 0 -109 -21.5t-67 -57t-22 -77.5q0 -49 31 -72t96 -23h62q104 0 157.5 -48.5t53.5 -130.5q0 -68 -36 -120.5t-99.5 -81t-144.5 -28.5q-80 0 -138 27.5zM242 -121l1 5h-31l11 55h45l-13 -62q-6 -26 -22.5 -41.5t-44.5 -15.5l2 14
q41 0 52 45z" />
    <glyph glyph-name="Tbar.ss11" horiz-adv-x="597" 
d="M132 360h146l59 277h-244l14 63h563l-13 -63h-244l-59 -277h146l-6 -26h-146l-71 -334h-75l71 334h-147z" />
    <glyph glyph-name="Tcaron.ss11" horiz-adv-x="597" 
d="M337 637h-244l14 63h563l-13 -63h-244l-136 -637h-75zM296 822l2 10l107 -47h1l127 47l-2 -10l-128 -61h-5z" />
    <glyph glyph-name="uni0162.ss11" horiz-adv-x="597" 
d="M337 637h-244l14 63h563l-13 -63h-244l-136 -637h-75zM139 -170l5 25h75q29 0 45.5 15t16.5 36q0 16 -11 25t-32 9h-23l13 60h24l-10 -49h3q29 0 46 -14t17 -38q0 -29 -25 -49t-63 -20h-81z" />
    <glyph glyph-name="uni021A.ss11" horiz-adv-x="597" 
d="M337 637h-244l14 63h563l-13 -63h-244l-136 -637h-75zM224 -121l1 5h-31l11 55h45l-13 -62q-6 -26 -22.5 -41.5t-44.5 -15.5l2 14q41 0 52 45z" />
    <glyph glyph-name="Uacute.ss11" horiz-adv-x="702" 
d="M138.5 48q-63.5 60 -63.5 165q0 37 9 79l87 408h74l-89 -422q-7 -32 -7 -65q0 -76 43 -118.5t115 -42.5q88 0 153.5 62.5t89.5 175.5l87 410h75l-90 -423q-31 -142 -115 -215.5t-199 -73.5q-106 0 -169.5 60zM640 831l-5 -25l-239 -38l2 10z" />
    </font>
</defs>
</svg>
