<?xml version="1.0" standalone="no"?>
<!DOCTYPE svg PUBLIC "-//W3C//DTD SVG 1.1//EN" "http://www.w3.org/Graphics/SVG/1.1/DTD/svg11.dtd" >
<svg xmlns="http://www.w3.org/2000/svg" xmlns:xlink="http://www.w3.org/1999/xlink" version="1.1">
<metadata>
Created by FontForge 20201107 at Wed Nov 30 21:20:22 2022
 By 
Copyright (c) 2019 by Folch Studio. All rights reserved.
</metadata>
<defs>
<font id="FFFAcidGrotesk-Medium" horiz-adv-x="598" >
  <font-face 
    font-family="FFF Acid Grotesk Medium"
    font-weight="500"
    font-stretch="normal"
    units-per-em="1000"
    panose-1="0 0 0 0 0 0 0 0 0 0"
    ascent="800"
    descent="-200"
    x-height="550"
    cap-height="700"
    bbox="-153 -272 2124 1019"
    underline-thickness="80"
    underline-position="-220"
    unicode-range="U+0020-FB02"
  />
<missing-glyph horiz-adv-x="680" 
d="M580 700v-700h-480v700h480zM455 105v490h-230v-490h230z" />
    <glyph glyph-name="fi" unicode="fi" horiz-adv-x="550" 
d="M117 736.5q44 44.5 126 44.5h245v-102h-216q-35 0 -54 -20.5t-19 -61.5v-47h232q23 0 38 -15t15 -38v-497h-126v447h-159v-447h-126v447h-70v103h70v61q0 81 44 125.5z" />
    <glyph glyph-name="fl" unicode="fl" horiz-adv-x="595" 
d="M115 737q42 44 122 44h296v-781h-126v679h-141q-32 0 -49.5 -20.5t-17.5 -61.5v-47h120v-103h-120v-447h-126v447h-70v103h70v61q0 82 42 126z" />
    <glyph glyph-name="f_f.liga" unicode="ff" horiz-adv-x="675" 
d="M429.5 736.5q42.5 44.5 121.5 44.5h123v-102h-94q-32 0 -49 -20.5t-17 -61.5v-47h120v-103h-120v-447h-127v447h-188v-447h-126v447h-70v103h70v61q0 82 42 126t122 44h122v-102h-93q-32 0 -49.5 -20.5t-17.5 -61.5v-47h188v61q0 81 42.5 125.5z" />
    <glyph glyph-name="f_f_i.liga" unicode="ffi" horiz-adv-x="864" 
d="M672 447h-158v-447h-127v447h-188v-447h-126v447h-70v103h70v61q0 82 42 126t122 44h122v-102h-93q-32 0 -49.5 -20.5t-17.5 -61.5v-47h188v61q0 81 44 125.5t126 44.5h246v-102h-216q-35 0 -54 -20.5t-19 -61.5v-47h231q23 0 38 -15t15 -38v-497h-126v447z" />
    <glyph glyph-name="f_f_l.liga" unicode="ffl" horiz-adv-x="909" 
d="M429.5 736.5q42.5 44.5 121.5 44.5h297v-781h-127v679h-141q-32 0 -49 -20.5t-17 -61.5v-47h120v-103h-120v-447h-127v447h-188v-447h-126v447h-70v103h70v61q0 82 42 126t122 44h122v-102h-93q-32 0 -49.5 -20.5t-17.5 -61.5v-47h188v61q0 81 42.5 125.5z" />
    <glyph glyph-name=".notdef" horiz-adv-x="680" 
d="M580 700v-700h-480v700h480zM455 105v490h-230v-490h230z" />
    <glyph glyph-name=".null" horiz-adv-x="0" 
 />
    <glyph glyph-name="nonmarkingreturn" horiz-adv-x="333" 
 />
    <glyph glyph-name="space" unicode=" " horiz-adv-x="212" 
 />
    <glyph glyph-name="exclam" unicode="!" horiz-adv-x="248" 
d="M58 550v150h132v-150l-15 -360h-102zM55 134h138v-134h-138v134z" />
    <glyph glyph-name="quotedbl" unicode="&#x22;" horiz-adv-x="396" 
d="M59 700h118l-5 -257h-108zM337 700l-5 -257h-108l-5 257h118z" />
    <glyph glyph-name="numbersign" unicode="#" horiz-adv-x="692" 
d="M385 177h-135l-46 -177h-119l46 177h-105v95h130l41 157h-103v95h128l46 176h119l-46 -176h135l46 176h118l-46 -176h105v-95h-130l-41 -157h103v-95h-128l-46 -177h-118zM410 272l41 157h-135l-41 -157h135z" />
    <glyph glyph-name="dollar" unicode="$" horiz-adv-x="658" 
d="M275 -14q-114 13 -176 80t-65 176h138q3 -75 45 -113.5t117 -38.5q70 0 110.5 32t40.5 88q0 95 -124 95h-89q-112 0 -170 52t-58 139q0 90 61 148.5t170 69.5l-5 87h117l-5 -87q111 -12 169.5 -76t61.5 -166h-135q-6 138 -151 138q-69 0 -108 -28.5t-39 -78.5
q0 -40 27.5 -63.5t88.5 -23.5h89q124 0 181 -55.5t57 -143.5q0 -97 -63.5 -158.5t-177.5 -73.5l5 -81h-117z" />
    <glyph glyph-name="percent" unicode="%" horiz-adv-x="909" 
d="M636 700h126l-489 -700h-126zM68 630.5q23 40.5 62.5 62t88.5 21.5t88.5 -21.5t62.5 -62t23 -95.5t-23 -95.5t-62.5 -61.5t-88.5 -21t-88.5 21t-62.5 61.5t-23 95.5t23 95.5zM167 466.5q20 -23.5 52 -23.5t52 23.5t20 68.5t-20 69t-52 24t-52 -24t-20 -69t20 -68.5z
M538.5 259.5q23.5 40.5 63 62t88.5 21.5t88.5 -21.5t62.5 -62t23 -95.5t-23 -95.5t-62.5 -61.5t-88.5 -21t-88.5 21.5t-63 61.5t-23.5 95t23.5 95.5zM637.5 95.5q20.5 -23.5 52.5 -23.5q33 0 52 22.5t19 69.5q0 45 -19.5 69t-51.5 24t-52.5 -24t-20.5 -69t20.5 -68.5z" />
    <glyph glyph-name="ampersand" unicode="&#x26;" horiz-adv-x="703" 
d="M140 5q-54 22 -86 65t-32 105q0 128 154 194l3 1q-44 49 -62.5 88.5t-18.5 78.5q0 52 26 92.5t74.5 64t113.5 23.5q98 0 150 -46t52 -120q0 -124 -154 -194l-7 -3l120 -127q30 64 34 142h134q-2 -63 -23 -123t-58 -110l128 -136h-162l-50 53q-95 -70 -217 -70
q-65 0 -119 22zM188.5 113.5q31.5 -27.5 86.5 -27.5q70 0 127 46l-159 170l-4 -2q-39 -16 -60.5 -44.5t-21.5 -67.5q0 -47 31.5 -74.5zM239 486.5q14 -26.5 48 -62.5l4 -4l9 4q47 20 70.5 48.5t23.5 63.5t-22.5 56.5t-60.5 21.5t-62 -22t-24 -55q0 -24 14 -50.5z" />
    <glyph glyph-name="quotesingle" unicode="'" horiz-adv-x="230" 
d="M56 700h118l-5 -257h-108z" />
    <glyph glyph-name="parenleft" unicode="(" horiz-adv-x="344" 
d="M120 81.5q-28 119.5 -28 246.5q0 252 109 472h123q-110 -225 -110 -472q0 -126 28.5 -245t81.5 -227h-123q-53 106 -81 225.5z" />
    <glyph glyph-name="parenright" unicode=")" horiz-adv-x="344" 
d="M224 574.5q28 -119.5 28 -246.5q0 -252 -109 -472h-123q110 225 110 472q0 126 -28.5 245t-81.5 227h123q53 -106 81 -225.5z" />
    <glyph glyph-name="asterisk" unicode="*" horiz-adv-x="430" 
d="M58 429l104 104l-145 22l34 107l132 -67l-24 145h112l-24 -145l131 68l35 -108l-145 -23l105 -102l-92 -67l-66 131l-65 -131z" />
    <glyph glyph-name="plus" unicode="+" horiz-adv-x="599" 
d="M54 345h192v201h107v-201h192v-100h-192v-203h-107v203h-192v100z" />
    <glyph glyph-name="comma" unicode="," horiz-adv-x="273" 
d="M120.5 -55q23.5 20 23.5 52v3h-79v140h139v-138q0 -65 -40 -102t-105 -37v62q38 0 61.5 20z" />
    <glyph glyph-name="hyphen" unicode="-" horiz-adv-x="520" 
d="M100 331h320v-100h-320v100z" />
    <glyph glyph-name="period" unicode="." horiz-adv-x="254" 
d="M59 134h135v-134h-135v134z" />
    <glyph glyph-name="slash" unicode="/" horiz-adv-x="383" 
d="M128 -100h-118l245 900h118z" />
    <glyph glyph-name="zero" unicode="0" horiz-adv-x="619" 
d="M105 78.5q-72 95.5 -72 271.5t72 271.5t205 95.5q132 0 204 -95.5t72 -271.5t-72 -271.5t-204 -95.5q-133 0 -205 95.5zM203.5 149.5q36.5 -66.5 106.5 -66.5q142 0 142 267t-142 267q-143 0 -143 -267q0 -134 36.5 -200.5z" />
    <glyph glyph-name="one" unicode="1" horiz-adv-x="374" 
d="M295 0h-126v511h-2q-19 -70 -103 -70h-54v109h58q53 0 77.5 25.5t24.5 77.5v47h125v-700z" />
    <glyph glyph-name="two" unicode="2" horiz-adv-x="555" 
d="M39.5 176q17.5 44 61 81.5t122.5 78.5l47 24q64 33 91 66.5t27 80.5q0 52 -28 80t-77 28q-52 0 -82 -32.5t-30 -95.5h-134q0 108 66.5 168t179.5 60q110 0 175.5 -55t65.5 -152q0 -77 -47.5 -134.5t-157.5 -113.5l-56 -28q-47 -24 -70.5 -43.5t-31.5 -38.5t-8 -45h379
v-105h-510v70q0 62 17.5 106z" />
    <glyph glyph-name="three" unicode="3" horiz-adv-x="611" 
d="M107.5 44q-73.5 61 -74.5 173h134q2 -62 39 -98t101 -36q61 0 99 32.5t38 88.5t-39 86.5t-109 30.5h-89v99h75q64 0 100 28t36 76q0 45 -30.5 69t-77.5 24q-51 0 -83.5 -27.5t-33.5 -76.5h-134q2 95 70 149.5t182 54.5q74 0 128 -23t83 -64t29 -92q0 -59 -39.5 -102.5
t-113.5 -53.5v-2q85 -10 132.5 -60.5t47.5 -124.5q0 -62 -33.5 -110t-95 -75t-143.5 -27q-125 0 -198.5 61z" />
    <glyph glyph-name="four" unicode="4" horiz-adv-x="577" 
d="M351 145h-334v95l297 460h163v-452h90v-103h-90v-145h-126v145zM351 248v326h-2l-205 -324v-2h207z" />
    <glyph glyph-name="five" unicode="5" horiz-adv-x="588" 
d="M165.5 9q-57.5 26 -92 74.5t-38.5 112.5h132q5 -51 40.5 -82t88.5 -31q58 0 94.5 37.5t36.5 104.5t-36.5 103.5t-94.5 36.5q-40 0 -71 -16t-50 -44h-136l57 395h423v-103h-315l-39 -210h2q29 37 71.5 57t93.5 20q61 0 113.5 -27.5t84 -80.5t31.5 -127q0 -76 -34 -131.5
t-94.5 -85t-136.5 -29.5q-73 0 -130.5 26z" />
    <glyph glyph-name="six" unicode="6" horiz-adv-x="608" 
d="M166.5 24.5q-63.5 41.5 -98.5 123.5t-35 199q0 180 75 275t206 95q71 0 126.5 -30t86.5 -81t31 -111h-132q0 54 -31.5 88t-83.5 34q-63 0 -103.5 -61t-40.5 -183v-23h2q23 53 69.5 83.5t108.5 30.5q61 0 113 -29.5t83.5 -84t31.5 -124.5q0 -73 -33.5 -128t-92.5 -85
t-133 -30q-86 0 -149.5 41.5zM219.5 122.5q35.5 -39.5 91.5 -39.5t92.5 39.5t36.5 104.5q0 64 -35.5 101.5t-92.5 37.5t-92.5 -37.5t-35.5 -101.5q0 -65 35.5 -104.5z" />
    <glyph glyph-name="seven" unicode="7" horiz-adv-x="495" 
d="M131.5 220q35.5 115 99 215t144.5 160v2h-365v103h475v-96q-83 -70 -140.5 -172t-86 -214.5t-28.5 -217.5h-134q0 105 35.5 220z" />
    <glyph glyph-name="eight" unicode="8" horiz-adv-x="591" 
d="M105 38q-72 55 -72 152q0 71 41.5 119t116.5 62v2q-62 14 -97.5 54.5t-35.5 103.5q0 87 67 136.5t171 49.5q67 0 121 -22t85 -64t31 -100q0 -63 -35.5 -103.5t-97.5 -54.5v-2q75 -14 116.5 -62t41.5 -119q0 -97 -72 -152t-190 -55q-119 0 -191 55zM202 113.5
q35 -30.5 94 -30.5q58 0 93 30.5t35 89.5t-35 90t-93 31q-59 0 -94 -31t-35 -90t35 -89.5zM218 444.5q29 -25.5 78 -25.5q48 0 77.5 26t29.5 73t-29.5 73t-77.5 26t-77.5 -26t-29.5 -73q0 -48 29 -73.5z" />
    <glyph glyph-name="nine" unicode="9" horiz-adv-x="608" 
d="M441.5 675.5q63.5 -41.5 98.5 -123.5t35 -199q0 -180 -75 -275t-206 -95q-71 0 -126.5 30t-86.5 81t-31 111h132q0 -54 31.5 -88t83.5 -34q63 0 103.5 61t40.5 183v23h-2q-23 -53 -69.5 -83.5t-108.5 -30.5q-61 0 -113 29.5t-83.5 84t-31.5 124.5q0 73 33.5 128t92.5 85
t133 30q86 0 149.5 -41.5zM203.5 371.5q35.5 -37.5 92.5 -37.5t92.5 37.5t35.5 101.5q0 65 -35.5 104.5t-91.5 39.5t-92.5 -39.5t-36.5 -104.5q0 -64 35.5 -101.5z" />
    <glyph glyph-name="colon" unicode=":" horiz-adv-x="254" 
d="M59 527h135v-134h-135v134zM59 134h135v-134h-135v134z" />
    <glyph glyph-name="semicolon" unicode=";" horiz-adv-x="273" 
d="M120.5 -55q23.5 20 23.5 52v3h-79v140h139v-138q0 -65 -40 -102t-105 -37v62q38 0 61.5 20zM59 527h135v-134h-135v134z" />
    <glyph glyph-name="less" unicode="&#x3c;" horiz-adv-x="607" 
d="M562 430l-407 -145l407 -146v-114l-512 189v141l512 189v-114z" />
    <glyph glyph-name="equal" unicode="=" horiz-adv-x="572" 
d="M80 463h412v-101h-412v101zM80 263h412v-101h-412v101z" />
    <glyph glyph-name="greater" unicode="&#x3e;" horiz-adv-x="607" 
d="M50 139l407 146l-407 145v114l512 -189v-141l-512 -189v114z" />
    <glyph glyph-name="question" unicode="?" horiz-adv-x="589" 
d="M214.5 313q18.5 27 67.5 46l37 14q93 36 93 127q0 57 -31 87t-85 30q-56 0 -92 -33.5t-37 -97.5h-135q1 71 35 123t94 79.5t138 27.5q79 0 135 -28t84.5 -76t28.5 -106q0 -72 -43.5 -126.5t-116.5 -83.5l-21 -7q-26 -11 -35 -26t-9 -44v-29h-126v46q0 50 18.5 77z
M190 134h138v-134h-138v134z" />
    <glyph glyph-name="at" unicode="@" horiz-adv-x="1026" 
d="M262 -126.5q-108 54.5 -166 156t-58 238.5t58 237.5t166 154.5t255 54t254 -53.5t163.5 -152.5t56.5 -232v-234h-287q-42 0 -65.5 17t-23.5 46v1v13h-2q-15 -42 -52.5 -67.5t-91.5 -25.5t-98.5 27t-71 79t-26.5 124q0 73 26.5 125t71 79t98.5 27q50 0 87.5 -23.5
t53.5 -67.5h2v43v31h126v-294q0 -17 8.5 -25t27.5 -8h91v133q0 338 -348 338q-108 0 -187 -40.5t-121.5 -118t-42.5 -187.5t42.5 -187.5t121.5 -118t187 -40.5h474v-103h-474q-147 0 -255 54.5zM435.5 160.5q27.5 -35.5 75.5 -35.5q47 1 75 37t28 94t-28.5 94.5t-76.5 36.5
q-47 0 -74 -36t-27 -95q0 -60 27.5 -95.5z" />
    <glyph glyph-name="A" unicode="A" horiz-adv-x="690" 
d="M279 700h132l264 -700h-140l-57 163h-268l-57 -163h-138zM441 269l-33 96q-25 74 -63 197h-2q-38 -123 -65 -202l-32 -91h195z" />
    <glyph glyph-name="B" unicode="B" horiz-adv-x="668" 
d="M64 700h312q63 0 111 -22t74.5 -61.5t26.5 -91.5q0 -61 -37.5 -100.5t-104.5 -46.5v-2q90 -3 140.5 -50t50.5 -122q0 -58 -29.5 -104.5t-85 -73t-128.5 -26.5h-330v700zM370 107q65 0 98 27.5t33 76.5t-33.5 76t-97.5 27h-174v-207h174zM348 417q50 0 77.5 24t27.5 64
q0 41 -27 64.5t-78 23.5h-152v-176h152z" />
    <glyph glyph-name="C" unicode="C" horiz-adv-x="739" 
d="M198 28.5q-79 45.5 -122.5 128.5t-43.5 194t42 194t120.5 127.5t185.5 44.5q98 0 169 -37.5t111 -101.5t47 -143h-138q-6 75 -55 125t-134 50q-98 0 -153 -67t-55 -192q0 -82 26.5 -141t73.5 -89.5t108 -30.5q56 0 97 24t64 62.5t28 81.5h138q-9 -76 -49.5 -138.5
t-111 -99.5t-166.5 -37q-103 0 -182 45.5z" />
    <glyph glyph-name="D" unicode="D" horiz-adv-x="711" 
d="M64 700h273q99 0 176.5 -41.5t121.5 -120.5t44 -188t-44 -188t-121.5 -120.5t-176.5 -41.5h-273v700zM325 107q99 0 156.5 62.5t57.5 180.5q0 119 -57.5 181t-156.5 62h-129v-486h129z" />
    <glyph glyph-name="E" unicode="E" horiz-adv-x="583" 
d="M64 700h496v-103h-364v-193h325v-103h-325v-198h365v-103h-497v700z" />
    <glyph glyph-name="F" unicode="F" horiz-adv-x="570" 
d="M64 700h493v-103h-365v-193h326v-103h-326v-301h-128v700z" />
    <glyph glyph-name="G" unicode="G" horiz-adv-x="753" 
d="M191.5 28.5q-74.5 45.5 -117 129.5t-42.5 193q0 108 41.5 191t119 129t183.5 46q96 0 168 -38t111 -103t43 -144h-135q-2 50 -25 90.5t-65 64t-97 23.5q-95 0 -149.5 -68.5t-54.5 -190.5q0 -82 26.5 -141t73.5 -89.5t107 -30.5q54 0 95.5 22.5t66.5 59t31 77.5h-206v102
h279q26 0 40.5 -14t14.5 -39v-298h-117l17 129h-2q-31 -71 -92 -108.5t-146 -37.5q-94 0 -168.5 45.5z" />
    <glyph glyph-name="H" unicode="H" horiz-adv-x="691" 
d="M64 700h132v-294h299v294h132v-700h-132v299h-299v-299h-132v700z" />
    <glyph glyph-name="I" unicode="I" horiz-adv-x="259" 
d="M64 700h132v-700h-132v700z" />
    <glyph glyph-name="J" unicode="J" horiz-adv-x="576" 
d="M83 51q-68 68 -68 194h132q0 -78 30.5 -116.5t86.5 -38.5t86.5 38.5t30.5 116.5v455h132v-458q0 -125 -68 -192t-181 -67t-181 68z" />
    <glyph glyph-name="K" unicode="K" horiz-adv-x="662" 
d="M64 700h132v-322h2l282 322h167l-269 -298l282 -402h-163l-206 303h-2l-93 -104v-199h-132v700z" />
    <glyph glyph-name="L" unicode="L" horiz-adv-x="506" 
d="M493 107v-107h-429v700h132v-593h297z" />
    <glyph glyph-name="M" unicode="M" horiz-adv-x="856" 
d="M64 700h203l161 -540h2l161 540h201v-700h-130v355l1 146q1 12 1 38h-2l-167 -539h-135l-166 539h-2q0 -26 1 -38l1 -146v-355h-130v700z" />
    <glyph glyph-name="N" unicode="N" horiz-adv-x="729" 
d="M195 511h-2l1 -120v-391h-130v700h165l306 -508h2l-1 120v388h129v-700h-160z" />
    <glyph glyph-name="O" unicode="O" horiz-adv-x="756" 
d="M202 26q-79 43 -124.5 126t-45.5 198t45.5 198t124.5 126t176 43q98 0 176.5 -43t124 -125.5t45.5 -198.5t-45.5 -198.5t-124 -125.5t-176.5 -43q-97 0 -176 43zM228.5 156q56.5 -66 149.5 -66t149.5 66t56.5 194t-56.5 194t-149.5 66t-149.5 -66t-56.5 -194t56.5 -194z
" />
    <glyph glyph-name="P" unicode="P" horiz-adv-x="652" 
d="M64 700h315q70 0 125 -26t85.5 -75.5t30.5 -117.5q0 -102 -66.5 -159.5t-174.5 -57.5h-183v-264h-132v700zM351 371q62 0 97.5 29.5t35.5 80.5t-36 81.5t-97 30.5h-155v-222h155z" />
    <glyph glyph-name="Q" unicode="Q" horiz-adv-x="775" 
d="M631 17.5q-18 17.5 -18 48.5h-2q-45 -41 -105 -62t-128 -21q-97 0 -176 43t-124.5 126t-45.5 198t45.5 198t124.5 126t176 43q98 0 176.5 -43t124 -125.5t45.5 -198.5q0 -136 -63 -227q1 -11 5.5 -14.5t15.5 -3.5h61v-105h-57q-37 0 -55 17.5zM228.5 156
q56.5 -66 149.5 -66q83 0 134 50q0 11 -4.5 15t-16.5 4h-73v102h56q37 0 55 -18t18 -48h6q31 62 31 155q0 128 -56.5 194t-149.5 66t-149.5 -66t-56.5 -194t56.5 -194z" />
    <glyph glyph-name="R" unicode="R" horiz-adv-x="643" 
d="M64 700h294q118 0 184.5 -51.5t66.5 -138.5q0 -69 -42 -116t-120 -62v-2q59 -22 91 -66t52 -119l40 -145h-137l-29 122q-15 62 -34 94t-50 44.5t-85 12.5h-99v-273h-132v700zM308 379q83 0 124 28t41 83q0 50 -34.5 76.5t-102.5 26.5h-140v-214h112z" />
    <glyph glyph-name="S" unicode="S" horiz-adv-x="658" 
d="M114.5 51.5q-76.5 68.5 -80.5 190.5h138q3 -75 45 -113.5t117 -38.5q70 0 110.5 32t40.5 88q0 95 -124 95h-89q-112 0 -170 52t-58 139q0 67 33.5 116.5t97.5 77t153 27.5q138 0 210 -65.5t75 -179.5h-135q-6 138 -151 138q-69 0 -108 -28.5t-39 -78.5q0 -40 27.5 -63.5
t88.5 -23.5h89q124 0 181 -55.5t57 -143.5q0 -71 -34.5 -123.5t-100.5 -81.5t-156 -29q-141 0 -217.5 68.5z" />
    <glyph glyph-name="T" unicode="T" horiz-adv-x="615" 
d="M242 593h-229v107h589v-107h-228v-593h-132v593z" />
    <glyph glyph-name="U" unicode="U" horiz-adv-x="695" 
d="M202 15.5q-64 32.5 -101 95.5t-37 150v439h132v-434q0 -84 41.5 -130t109.5 -46t110 45.5t42 130.5v434h132v-439q0 -87 -37 -150t-101.5 -95.5t-145.5 -32.5t-145 32.5z" />
    <glyph glyph-name="V" unicode="V" horiz-adv-x="680" 
d="M10 700h142l120 -346q32 -90 67 -205h2q31 103 66 205l121 346h142l-262 -700h-136z" />
    <glyph glyph-name="W" unicode="W" horiz-adv-x="935" 
d="M10 700h136l127 -514h2l118 514h150l117 -514h2l127 514h136l-187 -700h-149l-122 537h-2l-120 -537h-148z" />
    <glyph glyph-name="X" unicode="X" horiz-adv-x="670" 
d="M503 0l-167 252h-2l-167 -252h-159l245 353l-240 347h159l162 -245h2l162 245h159l-240 -347l245 -353h-159z" />
    <glyph glyph-name="Y" unicode="Y" horiz-adv-x="642" 
d="M254 278l-244 422h151l159 -298h2l159 298h151l-246 -422v-278h-132v278z" />
    <glyph glyph-name="Z" unicode="Z" horiz-adv-x="587" 
d="M16 104l370 485v2h-360v109h535v-99l-370 -485v-2h380v-114h-555v104z" />
    <glyph glyph-name="bracketleft" unicode="[" horiz-adv-x="315" 
d="M50 800h255v-101h-135v-742h135v-101h-255v944z" />
    <glyph glyph-name="backslash" unicode="\" horiz-adv-x="383" 
d="M10 800h118l245 -900h-118z" />
    <glyph glyph-name="bracketright" unicode="]" horiz-adv-x="315" 
d="M265 -144h-255v101h135v742h-135v101h255v-944z" />
    <glyph glyph-name="asciicircum" unicode="^" horiz-adv-x="426" 
d="M165 700h96l130 -307h-103l-75 208l-75 -208h-103z" />
    <glyph glyph-name="underscore" unicode="_" horiz-adv-x="600" 
d="M50 0h500v-99h-500v99z" />
    <glyph glyph-name="grave" unicode="`" horiz-adv-x="246" 
d="M12 769h143l80 -156h-119z" />
    <glyph glyph-name="a" unicode="a" horiz-adv-x="604" 
d="M335.5 13q-49.5 -30 -115.5 -30q-83 0 -136.5 46.5t-53.5 129.5q0 89 59.5 131.5t149.5 42.5h89q80 0 80 60q0 36 -29 55t-76 19q-54 0 -85.5 -25t-34.5 -70h-132q6 92 68 143.5t182 51.5t176.5 -51.5t56.5 -139.5v-236q0 -20 8.5 -28.5t28.5 -8.5h21v-103h-86
q-45 0 -69 21.5t-24 60.5v21h-2q-26 -60 -75.5 -90zM188.5 107q23.5 -22 70.5 -22q62 0 105.5 40.5t43.5 120.5v51h-2q-13 -26 -38.5 -39t-67.5 -14l-41 -2q-47 -1 -70.5 -22.5t-23.5 -55.5q0 -35 23.5 -57z" />
    <glyph glyph-name="b" unicode="b" horiz-adv-x="643" 
d="M261.5 13q-48.5 30 -73.5 83h-2q1 -21 1 -59v-37h-125v781h126v-271q0 -37 -2 -56h2q25 53 73.5 83t110.5 30q66 0 122 -34t89.5 -100t33.5 -158t-33.5 -158t-89.5 -100t-122 -34q-62 0 -110.5 30zM226.5 135q39.5 -52 107.5 -52q69 0 108.5 52t39.5 140t-39.5 140
t-108.5 52q-68 0 -107.5 -52t-39.5 -140t39.5 -140z" />
    <glyph glyph-name="c" unicode="c" horiz-adv-x="589" 
d="M159 19q-63 36 -98 102.5t-35 153.5q0 88 33.5 154t96.5 102t149 36q114 0 181.5 -63t76.5 -164h-130q-4 55 -36.5 91t-91.5 36q-69 0 -106.5 -52.5t-37.5 -139.5q0 -89 39 -140.5t105 -51.5q56 0 89 35.5t39 80.5h130q-8 -60 -40.5 -109.5t-88 -78t-129.5 -28.5
q-83 0 -146 36z" />
    <glyph glyph-name="d" unicode="d" horiz-adv-x="643" 
d="M149 17q-56 34 -89.5 100t-33.5 158t33.5 158t89.5 100t122 34q62 0 110.5 -30t73.5 -83h2q-2 19 -2 56v271h126v-781h-125v37q0 38 1 59h-2q-25 -53 -73.5 -83t-110.5 -30q-66 0 -122 34zM200.5 135q39.5 -52 108.5 -52q68 0 107.5 52t39.5 140t-39.5 140t-107.5 52
q-69 0 -108.5 -52t-39.5 -140t39.5 -140z" />
    <glyph glyph-name="e" unicode="e" horiz-adv-x="587" 
d="M156 18q-62 35 -96 101t-34 156t34.5 156t96 101t141.5 35q76 0 136 -31.5t94 -92.5t34 -147v-57h-402q3 -71 41 -113.5t100 -42.5q45 0 78 23t46 63h130q-18 -84 -87 -135t-169 -51q-81 0 -143 35zM435 330q0 61 -35.5 99t-98.5 38q-62 0 -98 -38t-42 -99h274z" />
    <glyph glyph-name="f" unicode="f" horiz-adv-x="373" 
d="M129.5 735.5q44.5 45.5 131.5 45.5h110v-102h-80q-38 0 -59 -20t-21 -68v-41h120v-103h-120v-447h-126v447h-82v103h82v56q0 84 44.5 129.5z" />
    <glyph glyph-name="g" unicode="g" horiz-adv-x="570" 
d="M63.5 -167q-41.5 33 -41.5 86q0 41 24 70.5t69 39.5v2q-31 12 -48.5 36.5t-17.5 57.5q0 38 23 62.5t59 29.5l13 2v2q-48 20 -75 60.5t-27 96.5q0 59 30 101.5t81.5 65t113.5 22.5q60 0 110.5 -22t80.5 -62h2q2 32 19.5 49.5t48.5 17.5h25v-103h-39q-13 0 -19.5 -5
t-8.5 -16q6 -22 6 -48q0 -58 -29 -101t-79.5 -66t-112.5 -23h-63q-49 0 -49 -35q0 -17 12.5 -26.5t36.5 -9.5h169q86 0 134 -42.5t48 -115.5t-48 -116t-134 -43h-193q-79 0 -120.5 33zM148.5 -94q19.5 -17 57.5 -17h152q37 0 57 17t20 47q0 31 -20 47.5t-57 16.5h-152
q-38 0 -57.5 -17t-19.5 -47t19.5 -47zM191.5 301.5q29.5 -24.5 75.5 -24.5t75.5 24.5t29.5 70.5t-29.5 70.5t-75.5 24.5t-75.5 -24.5t-29.5 -70.5t29.5 -70.5z" />
    <glyph glyph-name="h" unicode="h" horiz-adv-x="603" 
d="M62 781h126v-224q0 -44 -2 -91h2q23 47 65.5 74t99.5 27q86 0 138 -56.5t52 -155.5v-355h-126v330q0 70 -27.5 103t-76.5 33q-54 0 -89.5 -37t-35.5 -114v-315h-126v781z" />
    <glyph glyph-name="i" unicode="i" horiz-adv-x="250" 
d="M62 550h126v-550h-126v550zM60 759h129v-122h-129v122z" />
    <glyph glyph-name="j" unicode="j" horiz-adv-x="248" 
d="M-34 -99h38q27 0 41.5 16.5t14.5 46.5v586h127v-609q0 -60 -40 -100.5t-100 -40.5h-81v101zM59 759h129v-122h-129v122z" />
    <glyph glyph-name="k" unicode="k" horiz-adv-x="557" 
d="M62 781h126v-471h2l205 240h152l-200 -225l220 -325h-157l-147 231h-2l-73 -83v-148h-126v781z" />
    <glyph glyph-name="l" unicode="l" horiz-adv-x="250" 
d="M62 781h126v-781h-126v781z" />
    <glyph glyph-name="m" unicode="m" horiz-adv-x="921" 
d="M62 550h124v-81h2q24 44 64 71t94 27q58 0 100 -29t62 -83h2q24 53 67.5 82.5t103.5 29.5q82 0 131 -56t49 -155v-356h-126v343q0 62 -25.5 92.5t-70.5 30.5q-49 0 -81.5 -36t-32.5 -105v-325h-127v343q0 62 -25.5 92.5t-69.5 30.5q-49 0 -82 -36.5t-33 -104.5v-325h-126
v550z" />
    <glyph glyph-name="n" unicode="n" horiz-adv-x="603" 
d="M62 550h124v-84h2q25 49 68.5 75t100.5 26q86 0 136 -57.5t50 -164.5v-345h-126v330q0 69 -27.5 102.5t-76.5 33.5q-53 0 -89 -37t-36 -114v-315h-126v550z" />
    <glyph glyph-name="o" unicode="o" horiz-adv-x="610" 
d="M163 17.5q-63 34.5 -100 100.5t-37 157t37 157t100 100.5t142 34.5t142 -34.5t100 -100.5t37 -157t-37 -157t-100 -100.5t-142 -34.5t-142 34.5zM199.5 132.5q38.5 -49.5 105.5 -49.5t105.5 49.5t38.5 142.5t-38.5 142.5t-105.5 49.5t-105.5 -49.5t-38.5 -142.5
t38.5 -142.5z" />
    <glyph glyph-name="p" unicode="p" horiz-adv-x="643" 
d="M62 550h125v-40q0 -37 -1 -56h2q25 53 73.5 83t110.5 30q66 0 122 -34t89.5 -100t33.5 -158t-33.5 -158t-89.5 -100t-122 -34q-62 0 -110.5 30t-73.5 83h-2q1 -21 1 -59v-237h-125v750zM226.5 135q39.5 -52 107.5 -52q69 0 108.5 52t39.5 140t-39.5 140t-108.5 52
q-68 0 -107.5 -52t-39.5 -140t39.5 -140z" />
    <glyph glyph-name="q" unicode="q" horiz-adv-x="643" 
d="M457 96h-2q-25 -53 -73.5 -83t-110.5 -30q-66 0 -122 34t-89.5 100t-33.5 158t33.5 158t89.5 100t122 34q62 0 110.5 -30t73.5 -83h2q-1 19 -1 56v40h125v-750h-126v237q0 38 2 59zM200.5 135q39.5 -52 108.5 -52q68 0 107.5 52t39.5 140t-39.5 140t-107.5 52
q-69 0 -108.5 -52t-39.5 -140t39.5 -140z" />
    <glyph glyph-name="r" unicode="r" horiz-adv-x="385" 
d="M62 550h124v-87h2q21 44 51.5 65.5t82.5 21.5h53v-103h-76q-57 0 -84 -32t-27 -99v-316h-126v550z" />
    <glyph glyph-name="s" unicode="s" horiz-adv-x="541" 
d="M96 36.5q-63 53.5 -66 145.5h130q2 -50 31.5 -74.5t80.5 -24.5q50 0 77.5 22t27.5 59q0 69 -95 69h-60q-85 0 -133.5 42.5t-48.5 113.5q0 80 61.5 129t167.5 49q109 0 169.5 -52.5t63.5 -142.5h-129q-5 95 -104 95q-45 0 -71 -19.5t-26 -53.5q0 -30 21.5 -45.5
t60.5 -15.5h66q94 0 143 -46t49 -118q0 -84 -63.5 -135t-175.5 -51q-114 0 -177 53.5z" />
    <glyph glyph-name="t" unicode="t" horiz-adv-x="432" 
d="M120 149v298h-106v103h106v150h127v-150h166v-103h-166v-279q0 -34 16.5 -49.5t49.5 -15.5h103v-103h-146q-150 0 -150 149z" />
    <glyph glyph-name="u" unicode="u" 
d="M107.5 40.5q-50.5 57.5 -50.5 164.5v345h126v-330q0 -70 27.5 -103t76.5 -33q53 0 88.5 37t35.5 114v315h126v-550h-124v84h-2q-24 -50 -67 -75.5t-99 -25.5q-87 0 -137.5 57.5z" />
    <glyph glyph-name="v" unicode="v" horiz-adv-x="563" 
d="M8 550h136l137 -388h1l136 388h136l-208 -550h-130z" />
    <glyph glyph-name="w" unicode="w" horiz-adv-x="774" 
d="M8 550h132l92 -388h2l86 388h134l86 -388h2l92 388h132l-156 -550h-134l-89 366h-2l-89 -366h-136z" />
    <glyph glyph-name="x" unicode="x" 
d="M222 280l-198 270h156l118 -178h2l119 178h156l-198 -270l207 -280h-156l-128 187h-2l-128 -187h-156z" />
    <glyph glyph-name="y" unicode="y" horiz-adv-x="567" 
d="M8 -97h156l54 127l-210 520h137l138 -366h2l139 366h135l-285 -708q-16 -42 -62 -42h-204v103z" />
    <glyph glyph-name="z" unicode="z" horiz-adv-x="505" 
d="M16 93l283 355v2h-263v100h431v-91l-282 -355v-2h304v-102h-473v93z" />
    <glyph glyph-name="braceleft" unicode="{" horiz-adv-x="409" 
d="M189 -100.5q-45 43.5 -45 111.5v186q0 36 -22.5 58t-57.5 22h-34v102h34q35 0 57.5 22t22.5 58v186q0 68 45 111.5t115 43.5h95v-101h-55q-35 0 -57.5 -23.5t-22.5 -61.5v-174q0 -48 -23.5 -79t-59.5 -31v-4q36 0 59.5 -31t23.5 -79v-174q0 -38 22.5 -61.5t57.5 -23.5h55
v-101h-95q-70 0 -115 43.5z" />
    <glyph glyph-name="bar" unicode="|" horiz-adv-x="263" 
d="M70 800h123v-944h-123v944z" />
    <glyph glyph-name="braceright" unicode="}" horiz-adv-x="409" 
d="M220 756.5q45 -43.5 45 -111.5v-186q0 -36 22.5 -58t57.5 -22h34v-102h-34q-35 0 -57.5 -22t-22.5 -58v-186q0 -68 -45 -111.5t-115 -43.5h-95v101h55q35 0 57.5 23.5t22.5 61.5v174q0 48 23.5 79t59.5 31v4q-36 0 -59.5 31t-23.5 79v174q0 38 -22.5 61.5t-57.5 23.5h-55
v101h95q70 0 115 -43.5z" />
    <glyph glyph-name="asciitilde" unicode="~" horiz-adv-x="600" 
d="M72.5 324q41.5 47 113.5 47q42 0 70.5 -14t63.5 -41q24 -19 40 -28t35 -9q25 0 40.5 18t15.5 45h104q0 -74 -41 -121t-114 -47q-42 0 -70.5 14t-63.5 41q-24 19 -40 28t-35 9q-25 0 -40.5 -18t-15.5 -45h-104q0 74 41.5 121z" />
    <glyph glyph-name="uni00A0" unicode="&#xa0;" horiz-adv-x="212" 
 />
    <glyph glyph-name="exclamdown" unicode="&#xa1;" horiz-adv-x="248" 
d="M58 0l15 360h102l15 -360v-150h-132v150zM55 550h138v-134h-138v134z" />
    <glyph glyph-name="cent" unicode="&#xa2;" horiz-adv-x="577" 
d="M245 83q-100 16 -159.5 87.5t-59.5 180.5q0 108 58 179t161 87l-5 83h117l-5 -83q87 -13 138 -67.5t60 -134.5h-129q-4 46 -34.5 76.5t-87.5 30.5q-67 0 -102.5 -47t-35.5 -124q0 -80 37.5 -126.5t100.5 -46.5q53 0 84.5 29.5t37.5 66.5h129q-9 -73 -61 -125.5
t-137 -65.5l5 -83h-117z" />
    <glyph glyph-name="sterling" unicode="&#xa3;" horiz-adv-x="603" 
d="M100 121q31 18 47 47t16 63q0 30 -13 61h-117v100h60q-31 60 -31 116q0 61 31 108t87 73.5t129 26.5t128.5 -26t86.5 -75t31 -115h-135q0 47 -31 77t-81 30q-51 0 -81.5 -29.5t-30.5 -77.5q0 -25 8 -49t23 -59h204v-100h-168q4 -17 4 -40q0 -46 -21 -83.5t-63 -63.5v-2
h376v-103h-532v103q42 0 73 18z" />
    <glyph glyph-name="currency" unicode="&#xa4;" horiz-adv-x="582" 
d="M176 122l-67 -71l-83 83l72 66q-32 54 -32 115q0 62 32 115l-72 67l83 83l68 -72q52 30 112 30q61 0 114 -32l70 74l83 -83l-75 -69q31 -51 31 -113q0 -60 -30 -112l74 -69l-83 -83l-69 73q-54 -32 -115 -32q-59 0 -113 30zM207 233q34 -34 82 -34t82 34t34 82t-34 82
t-82 34q-49 0 -82.5 -34t-33.5 -82t34 -82z" />
    <glyph glyph-name="yen" unicode="&#xa5;" horiz-adv-x="652" 
d="M255 139h-195v100h195v58h-195v100h147v2l-196 301h153l157 -262h2l156 262h153l-196 -301v-2h147v-100h-196v-58h196v-100h-196v-139h-132v139z" />
    <glyph glyph-name="brokenbar" unicode="&#xa6;" horiz-adv-x="259" 
d="M68 800h123v-360h-123v360zM68 216h123v-360h-123v360z" />
    <glyph glyph-name="section" unicode="&#xa7;" horiz-adv-x="569" 
d="M159 -182q-54 24 -83 67t-32 97h129q2 -39 33 -64t79 -25q51 0 81 25.5t30 65.5q0 41 -31 67t-84 26h-24q-93 0 -145.5 38.5t-52.5 106.5q0 51 29.5 86.5t86.5 48.5v2q-62 17 -96.5 59t-34.5 103q0 54 27.5 98t82 70.5t131.5 26.5q71 0 124.5 -24.5t83 -67t32.5 -96.5
h-129q-2 40 -32.5 64.5t-78.5 24.5q-51 0 -81.5 -25.5t-30.5 -65.5q0 -41 31.5 -67t83.5 -26h24q93 0 145.5 -38t52.5 -106q0 -51 -29.5 -85.5t-86.5 -50.5v-2q62 -15 96.5 -58t34.5 -104q0 -54 -27.5 -98.5t-81.5 -70.5t-131 -26q-72 0 -126 24zM208.5 195
q25.5 -23 76.5 -23h1q49 0 74.5 22.5t25.5 60.5q0 37 -25 60t-76 23h-1q-50 0 -75.5 -22.5t-25.5 -60.5q0 -37 25.5 -60z" />
    <glyph glyph-name="dieresis" unicode="&#xa8;" horiz-adv-x="360" 
d="M31 759h122v-122h-122v122zM207 759h122v-122h-122v122z" />
    <glyph glyph-name="copyright" unicode="&#xa9;" horiz-adv-x="792" 
d="M214 33.5q-84 49.5 -133 134t-49 183.5t49 183t133 133t183 49q98 0 181.5 -49t132.5 -133t49 -183t-49 -183.5t-132.5 -134t-181.5 -49.5q-99 0 -183 49.5zM147 203.5q39 -67.5 105.5 -107t144.5 -39.5t144 39.5t104.5 107t38.5 147.5q0 79 -38.5 146t-104.5 106.5
t-144 39.5t-144.5 -39.5t-105.5 -106.5t-39 -146q0 -80 39 -147.5zM257 497q52 55 144 55q80 0 128 -44.5t54 -112.5h-96q-2 33 -24.5 55.5t-61.5 22.5q-46 0 -73 -33.5t-27 -88.5q0 -56 28 -90t72 -34q37 0 59.5 21.5t26.5 48.5h96q-8 -63 -56 -106t-126 -43q-90 0 -143 55
t-53 148q0 91 52 146z" />
    <glyph glyph-name="ordfeminine" unicode="&#xaa;" horiz-adv-x="377" 
d="M60.5 400.5q-32.5 27.5 -32.5 76.5q0 50 33.5 76t88.5 26h47q24 0 35 8.5t11 21.5q0 18 -15 26.5t-40 8.5q-57 0 -62 -46h-84q3 52 38.5 82.5t106.5 30.5q72 0 105.5 -30.5t33.5 -83.5v-125q0 -21 20 -21h11v-68h-44q-31 0 -47.5 14t-16.5 38v5h-2q-12 -32 -40.5 -49.5
t-66.5 -17.5q-47 0 -79.5 27.5zM125 451q12 -11 37 -11q35 0 59.5 21.5t24.5 62.5v26h-2q-5 -14 -21 -22.5t-41 -9.5l-20 -1q-49 -2 -49 -37q0 -18 12 -29z" />
    <glyph glyph-name="guillemotleft" unicode="&#xab;" horiz-adv-x="579" 
d="M374.5 186.5q-34.5 41.5 -88.5 44.5v97q54 3 88.5 44.5t38.5 104.5h121q-5 -70 -41.5 -124.5t-97.5 -72.5v-1q61 -18 97.5 -72.5t41.5 -124.5h-121q-4 63 -38.5 104.5zM129.5 186.5q-34.5 41.5 -88.5 44.5v97q54 3 88.5 44.5t38.5 104.5h121q-5 -70 -41.5 -124.5
t-97.5 -72.5v-1q61 -18 97.5 -72.5t41.5 -124.5h-121q-4 63 -38.5 104.5z" />
    <glyph glyph-name="logicalnot" unicode="&#xac;" horiz-adv-x="540" 
d="M494 355v-244h-95v144h-349v100h444z" />
    <glyph glyph-name="uni00AD" unicode="&#xad;" horiz-adv-x="520" 
d="M100 331h320v-100h-320v100z" />
    <glyph glyph-name="registered" unicode="&#xae;" horiz-adv-x="792" 
d="M214 33.5q-84 49.5 -133 134t-49 183.5t49 183t133 133t183 49q98 0 181.5 -49t132.5 -133t49 -183t-49 -183.5t-132.5 -134t-181.5 -49.5q-99 0 -183 49.5zM146.5 203.5q38.5 -67.5 105 -107t145.5 -39.5t144.5 39.5t104 107t38.5 147.5q0 79 -38.5 146t-104 106.5
t-144.5 39.5t-145.5 -39.5t-105 -106.5t-38.5 -146q0 -80 38.5 -147.5zM248 539h183q64 0 101.5 -29t37.5 -80q0 -42 -24.5 -68.5t-65.5 -35.5v-1q25 -9 40.5 -27.5t26.5 -54.5l25 -80h-98l-18 72q-8 33 -22 44t-48 11h-44v-127h-94v376zM412 364q30 0 46.5 12.5t16.5 36.5
q0 23 -14.5 35.5t-40.5 12.5h-78v-97h70z" />
    <glyph glyph-name="macron" unicode="&#xaf;" horiz-adv-x="326" 
d="M18 735h290v-101h-290v101z" />
    <glyph glyph-name="degree" unicode="&#xb0;" horiz-adv-x="403" 
d="M123 425q-36 21 -57 56.5t-21 78.5t21 79t57 56.5t79 20.5t79 -20.5t56.5 -56.5t20.5 -79t-20.5 -78.5t-56.5 -56.5t-79 -21t-79 21zM156.5 515.5q18.5 -18.5 45.5 -18.5t45 18.5t18 44.5t-18 44.5t-45 18.5t-45.5 -18.5t-18.5 -44.5t18.5 -44.5z" />
    <glyph glyph-name="plusminus" unicode="&#xb1;" horiz-adv-x="612" 
d="M50 415h203v137h106v-137h203v-101h-203v-138h-106v138h-203v101zM50 126h512v-101h-512v101z" />
    <glyph glyph-name="uni00B2" unicode="&#xb2;" horiz-adv-x="243" 
d="M31.5 514.5q15.5 21.5 58.5 44.5l23 12q25 14 34 24.5t9 25.5q0 35 -35 35q-18 0 -28 -11t-10 -31h-59q0 45 26.5 69t71.5 24q43 0 70 -22t27 -62q0 -28 -17.5 -53t-61.5 -47l-25 -12q-22 -11 -28 -18.5t-6 -16.5h146v-56h-211v39q0 34 15.5 55.5z" />
    <glyph glyph-name="uni00B3" unicode="&#xb3;" horiz-adv-x="249" 
d="M47.5 437.5q-29.5 24.5 -30.5 69.5h62q0 -20 13.5 -31.5t34.5 -11.5q19 0 32 10.5t13 28.5t-12.5 29t-34.5 11h-39v51h33q20 0 31.5 9t11.5 24t-10.5 22t-25.5 7q-16 0 -26 -8t-10 -24h-62q1 37 27 60t71 23q44 0 70.5 -21.5t26.5 -53.5q0 -23 -14 -40.5t-42 -21.5v-1
q34 -4 50 -23t16 -47q0 -39 -29 -62.5t-78 -23.5t-78.5 24.5z" />
    <glyph glyph-name="acute" unicode="&#xb4;" horiz-adv-x="246" 
d="M92 769h143l-100 -156h-123z" />
    <glyph glyph-name="uni00B5" unicode="&#xb5;" horiz-adv-x="612" 
d="M62 550h126v-357q0 -55 28.5 -81.5t72.5 -26.5q51 0 85.5 36.5t34.5 106.5v322h127v-410q0 -20 8 -28.5t28 -8.5h28v-103h-92q-45 0 -69.5 21.5t-24.5 60.5v16h-1q-11 -56 -47 -84t-83 -28q-61 0 -95 42v-228h-126v750z" />
    <glyph glyph-name="paragraph" unicode="&#xb6;" horiz-adv-x="582" 
d="M175 304.5q-54 24.5 -85.5 72t-31.5 111.5t32 112.5t85.5 74t118.5 25.5h81v-900h-81v480q-65 0 -119 24.5zM442 700h82v-900h-82v900z" />
    <glyph glyph-name="periodcentered" unicode="&#xb7;" horiz-adv-x="270" 
d="M63 333h144v-144h-144v144z" />
    <glyph glyph-name="cedilla" unicode="&#xb8;" horiz-adv-x="236" 
d="M17 -194v80h76q10 0 17.5 5.5t7.5 15.5q0 9 -7.5 15t-17.5 6h-28v105h76v-70q36 -4 55.5 -23t19.5 -51q0 -37 -25 -60t-69 -23h-105z" />
    <glyph glyph-name="uni00B9" unicode="&#xb9;" horiz-adv-x="172" 
d="M140 420h-61v197h-1q-2 -15 -13 -22t-26 -7h-24v57h24q40 0 40 36v19h61v-280z" />
    <glyph glyph-name="ordmasculine" unicode="&#xba;" horiz-adv-x="356" 
d="M65.5 421q-44.5 44 -44.5 123t44.5 123t112.5 44t112.5 -44t44.5 -123t-44.5 -123t-112.5 -44t-112.5 44zM125.5 468.5q18.5 -25.5 50.5 -25.5q34 0 54 25t20 76t-20 76t-54 25q-32 0 -50.5 -25.5t-18.5 -75.5t18.5 -75.5z" />
    <glyph glyph-name="guillemotright" unicode="&#xbb;" horiz-adv-x="579" 
d="M202.5 372.5q34.5 -41.5 88.5 -44.5v-97q-54 -3 -88.5 -44.5t-38.5 -104.5h-121q5 70 41.5 124.5t97.5 72.5v1q-61 18 -97.5 72.5t-41.5 124.5h121q4 -63 38.5 -104.5zM329.5 206.5q36.5 54.5 97.5 72.5v1q-61 18 -97.5 72.5t-41.5 124.5h121q4 -63 38.5 -104.5
t88.5 -44.5v-97q-54 -3 -88.5 -44.5t-38.5 -104.5h-121q5 70 41.5 124.5z" />
    <glyph glyph-name="onequarter" unicode="&#xbc;" horiz-adv-x="1011" 
d="M232 210h-98v349h-1q-9 -51 -67 -51h-43v92h43q69 0 69 67v33h97v-490zM624 700h109l-488 -700h-109zM604 177l212 313h115v-308h63v-85h-63v-97h-97v97h-230v80zM834 182v205h-1l-129 -204v-1h130z" />
    <glyph glyph-name="onehalf" unicode="&#xbd;" horiz-adv-x="990" 
d="M232 210h-98v349h-1q-9 -51 -67 -51h-43v92h43q69 0 69 67v33h97v-490zM624 700h109l-488 -700h-109zM630 161q28 41 105 81l38 19q47 25 65 45t18 48q0 33 -18.5 49.5t-50.5 16.5q-34 0 -53 -20t-19 -59h-96q-1 77 46 120t124 43q76 0 123 -38.5t47 -106.5
q0 -49 -31 -91t-110 -84l-40 -21q-41 -22 -56 -38.5t-15 -34.5h261v-90h-366v58q0 62 28 103z" />
    <glyph glyph-name="threequarters" unicode="&#xbe;" horiz-adv-x="1168" 
d="M87 239q-52 43 -54 123h102q1 -37 24.5 -59.5t64.5 -22.5q37 0 62.5 19t25.5 57q0 34 -22 53t-60 19h-74v84h63q34 0 54 17t20 44q0 28 -19.5 42.5t-48.5 14.5q-31 0 -50.5 -16t-20.5 -45h-102q2 66 48 105.5t125 39.5q77 0 123 -36.5t46 -93.5q0 -41 -24.5 -71
t-67.5 -39v-2q53 -10 82 -43.5t29 -82.5q0 -69 -53 -109.5t-137 -40.5t-136 43zM781 700h109l-488 -700h-109zM761 177l212 313h115v-308h63v-85h-63v-97h-97v97h-230v80zM991 182v205h-1l-129 -204v-1h130z" />
    <glyph glyph-name="questiondown" unicode="&#xbf;" horiz-adv-x="600" 
d="M364.5 231q-18.5 -27 -67.5 -46l-37 -14q-93 -36 -93 -127q0 -57 31 -87t85 -30q56 0 92 33.5t37 97.5h135q-1 -71 -35 -123t-94 -79.5t-138 -27.5q-79 0 -135 28t-84.5 76t-28.5 106q0 72 43.5 126.5t116.5 83.5l21 7q26 11 35 26t9 44v29h126v-46q0 -50 -18.5 -77z
M251 544h138v-134h-138v134z" />
    <glyph glyph-name="Agrave" unicode="&#xc0;" horiz-adv-x="690" 
d="M279 700h132l264 -700h-140l-57 163h-268l-57 -163h-138zM441 269l-33 96q-25 74 -63 197h-2q-38 -123 -65 -202l-32 -91h195zM181 919h143l80 -156h-119z" />
    <glyph glyph-name="Aacute" unicode="&#xc1;" horiz-adv-x="690" 
d="M279 700h132l264 -700h-140l-57 163h-268l-57 -163h-138zM441 269l-33 96q-25 74 -63 197h-2q-38 -123 -65 -202l-32 -91h195zM362 919h143l-100 -156h-123z" />
    <glyph glyph-name="Acircumflex" unicode="&#xc2;" horiz-adv-x="690" 
d="M279 700h132l264 -700h-140l-57 163h-268l-57 -163h-138zM441 269l-33 96q-25 74 -63 197h-2q-38 -123 -65 -202l-32 -91h195zM293 919h102l107 -156h-112l-45 68h-2l-45 -68h-112z" />
    <glyph glyph-name="Atilde" unicode="&#xc3;" horiz-adv-x="690" 
d="M279 700h132l264 -700h-140l-57 163h-268l-57 -163h-138zM441 269l-33 96q-25 74 -63 197h-2q-38 -123 -65 -202l-32 -91h195zM373 770.5q-21 11.5 -48 32.5q-17 14 -28.5 21t-23.5 7q-17 0 -28 -14.5t-11 -41.5v-6h-83v21q0 64 32 99t81 35q30 0 52 -11.5t47 -32.5
q18 -14 29 -20.5t23 -6.5q17 0 28 14.5t11 40.5v6h83v-21q0 -65 -32 -99.5t-81 -34.5q-30 0 -51 11.5z" />
    <glyph glyph-name="Adieresis" unicode="&#xc4;" horiz-adv-x="690" 
d="M279 700h132l264 -700h-140l-57 163h-268l-57 -163h-138zM441 269l-33 96q-25 74 -63 197h-2q-38 -123 -65 -202l-32 -91h195zM195 909h122v-122h-122v122zM371 909h122v-122h-122v122z" />
    <glyph glyph-name="Aring" unicode="&#xc5;" horiz-adv-x="690" 
d="M270 676q-26 28 -26 66q0 40 27.5 68t69.5 28q41 0 69 -28t28 -68q0 -32 -20 -59l257 -683h-140l-57 163h-268l-57 -163h-138zM441 269l-33 96q-25 74 -63 197h-2q-38 -123 -65 -202l-32 -91h195zM320 719.5q8 -8.5 21 -8.5t21 8.5t8 22.5t-8 23t-21 9t-21 -9t-8 -23
t8 -22.5z" />
    <glyph glyph-name="AE" unicode="&#xc6;" horiz-adv-x="947" 
d="M467 175h-246l-73 -175h-133l306 700h603v-103h-325v-193h286v-103h-286v-198h326v-103h-458v175zM467 278v319h-69l-134 -319h203z" />
    <glyph glyph-name="Ccedilla" unicode="&#xc7;" horiz-adv-x="739" 
d="M293 -194v80h76q10 0 17.5 5.5t7.5 15.5q0 9 -7.5 15t-17.5 6h-28v57q-93 8 -162.5 55.5t-108 127t-38.5 183.5q0 111 42 194t120.5 127.5t185.5 44.5q98 0 169 -37.5t111 -101.5t47 -143h-138q-6 75 -55 125t-134 50q-98 0 -153 -67t-55 -192q0 -82 26.5 -141
t73.5 -89.5t108 -30.5q56 0 97 24t64 62.5t28 81.5h138q-9 -71 -44.5 -130.5t-98 -97.5t-147.5 -45v-22q36 -4 55.5 -23t19.5 -51q0 -37 -25 -60t-69 -23h-105z" />
    <glyph glyph-name="Egrave" unicode="&#xc8;" horiz-adv-x="583" 
d="M64 700h496v-103h-364v-193h325v-103h-325v-198h365v-103h-497v700zM153 919h143l80 -156h-119z" />
    <glyph glyph-name="Eacute" unicode="&#xc9;" horiz-adv-x="583" 
d="M64 700h496v-103h-364v-193h325v-103h-325v-198h365v-103h-497v700zM335 919h143l-100 -156h-123z" />
    <glyph glyph-name="Ecircumflex" unicode="&#xca;" horiz-adv-x="583" 
d="M64 700h496v-103h-364v-193h325v-103h-325v-198h365v-103h-497v700zM265 919h102l107 -156h-112l-45 68h-2l-45 -68h-112z" />
    <glyph glyph-name="Edieresis" unicode="&#xcb;" horiz-adv-x="583" 
d="M64 700h496v-103h-364v-193h325v-103h-325v-198h365v-103h-497v700zM167 909h122v-122h-122v122zM343 909h122v-122h-122v122z" />
    <glyph glyph-name="Igrave" unicode="&#xcc;" horiz-adv-x="259" 
d="M64 700h132v-700h-132v700zM-33 919h143l80 -156h-119z" />
    <glyph glyph-name="Iacute" unicode="&#xcd;" horiz-adv-x="259" 
d="M64 700h132v-700h-132v700zM148 919h143l-100 -156h-123z" />
    <glyph glyph-name="Icircumflex" unicode="&#xce;" horiz-adv-x="259" 
d="M64 700h132v-700h-132v700zM79 919h102l107 -156h-112l-45 68h-2l-45 -68h-112z" />
    <glyph glyph-name="Idieresis" unicode="&#xcf;" horiz-adv-x="259" 
d="M64 700h132v-700h-132v700zM-19 909h122v-122h-122v122zM157 909h122v-122h-122v122z" />
    <glyph glyph-name="Eth" unicode="&#xd0;" horiz-adv-x="711" 
d="M196 295v-188h129q99 0 156.5 62.5t57.5 180.5q0 119 -57.5 181t-156.5 62h-129v-191h123v-107h-123zM10 402h54v298h273q99 0 176.5 -41.5t121.5 -120.5t44 -188t-44 -188t-121.5 -120.5t-176.5 -41.5h-273v295h-54v107z" />
    <glyph glyph-name="Ntilde" unicode="&#xd1;" horiz-adv-x="729" 
d="M195 511h-2l1 -120v-391h-130v700h165l306 -508h2l-1 120v388h129v-700h-160zM395 770.5q-21 11.5 -48 32.5q-17 14 -28.5 21t-23.5 7q-17 0 -28 -14.5t-11 -41.5v-6h-83v21q0 64 32 99t81 35q30 0 52 -11.5t47 -32.5q18 -14 29 -20.5t23 -6.5q17 0 28 14.5t11 40.5v6h83
v-21q0 -65 -32 -99.5t-81 -34.5q-30 0 -51 11.5z" />
    <glyph glyph-name="Ograve" unicode="&#xd2;" horiz-adv-x="756" 
d="M202 26q-79 43 -124.5 126t-45.5 198t45.5 198t124.5 126t176 43q98 0 176.5 -43t124 -125.5t45.5 -198.5t-45.5 -198.5t-124 -125.5t-176.5 -43q-97 0 -176 43zM228.5 156q56.5 -66 149.5 -66t149.5 66t56.5 194t-56.5 194t-149.5 66t-149.5 -66t-56.5 -194t56.5 -194z
M215 919h143l80 -156h-119z" />
    <glyph glyph-name="Oacute" unicode="&#xd3;" horiz-adv-x="756" 
d="M202 26q-79 43 -124.5 126t-45.5 198t45.5 198t124.5 126t176 43q98 0 176.5 -43t124 -125.5t45.5 -198.5t-45.5 -198.5t-124 -125.5t-176.5 -43q-97 0 -176 43zM228.5 156q56.5 -66 149.5 -66t149.5 66t56.5 194t-56.5 194t-149.5 66t-149.5 -66t-56.5 -194t56.5 -194z
M397 919h143l-100 -156h-123z" />
    <glyph glyph-name="Ocircumflex" unicode="&#xd4;" horiz-adv-x="756" 
d="M202 26q-79 43 -124.5 126t-45.5 198t45.5 198t124.5 126t176 43q98 0 176.5 -43t124 -125.5t45.5 -198.5t-45.5 -198.5t-124 -125.5t-176.5 -43q-97 0 -176 43zM228.5 156q56.5 -66 149.5 -66t149.5 66t56.5 194t-56.5 194t-149.5 66t-149.5 -66t-56.5 -194t56.5 -194z
M327 919h102l107 -156h-112l-45 68h-2l-45 -68h-112z" />
    <glyph glyph-name="Otilde" unicode="&#xd5;" horiz-adv-x="756" 
d="M202 26q-79 43 -124.5 126t-45.5 198t45.5 198t124.5 126t176 43q98 0 176.5 -43t124 -125.5t45.5 -198.5t-45.5 -198.5t-124 -125.5t-176.5 -43q-97 0 -176 43zM228.5 156q56.5 -66 149.5 -66t149.5 66t56.5 194t-56.5 194t-149.5 66t-149.5 -66t-56.5 -194t56.5 -194z
M407 770.5q-21 11.5 -48 32.5q-17 14 -28.5 21t-23.5 7q-17 0 -28 -14.5t-11 -41.5v-6h-83v21q0 64 32 99t81 35q30 0 52 -11.5t47 -32.5q18 -14 29 -20.5t23 -6.5q17 0 28 14.5t11 40.5v6h83v-21q0 -65 -32 -99.5t-81 -34.5q-30 0 -51 11.5z" />
    <glyph glyph-name="Odieresis" unicode="&#xd6;" horiz-adv-x="756" 
d="M202 26q-79 43 -124.5 126t-45.5 198t45.5 198t124.5 126t176 43q98 0 176.5 -43t124 -125.5t45.5 -198.5t-45.5 -198.5t-124 -125.5t-176.5 -43q-97 0 -176 43zM228.5 156q56.5 -66 149.5 -66t149.5 66t56.5 194t-56.5 194t-149.5 66t-149.5 -66t-56.5 -194t56.5 -194z
M229 909h122v-122h-122v122zM405 909h122v-122h-122v122z" />
    <glyph glyph-name="multiply" unicode="&#xd7;" horiz-adv-x="578" 
d="M72 141l145 145l-145 145l72 72l145 -145l145 145l72 -72l-145 -145l145 -145l-72 -72l-145 145l-145 -145z" />
    <glyph glyph-name="Oslash" unicode="&#xd8;" horiz-adv-x="758" 
d="M642 605q40 -47 62 -111.5t22 -143.5q0 -116 -45.5 -198.5t-124 -125.5t-176.5 -43q-118 0 -204 60l-36 -43h-108v2l82 99q-38 46 -59 109t-21 140q0 115 45.5 198t124.5 126t176 43q115 0 199 -57l33 40h107v-2zM201 205l303 364q-50 41 -124 41q-93 0 -149.5 -66
t-56.5 -194q0 -85 27 -145zM380 90q93 0 149.5 66t56.5 194q0 89 -30 152l-304 -367q51 -45 128 -45z" />
    <glyph glyph-name="Ugrave" unicode="&#xd9;" horiz-adv-x="695" 
d="M202 15.5q-64 32.5 -101 95.5t-37 150v439h132v-434q0 -84 41.5 -130t109.5 -46t110 45.5t42 130.5v434h132v-439q0 -87 -37 -150t-101.5 -95.5t-145.5 -32.5t-145 32.5zM184 919h143l80 -156h-119z" />
    <glyph glyph-name="Uacute" unicode="&#xda;" horiz-adv-x="695" 
d="M202 15.5q-64 32.5 -101 95.5t-37 150v439h132v-434q0 -84 41.5 -130t109.5 -46t110 45.5t42 130.5v434h132v-439q0 -87 -37 -150t-101.5 -95.5t-145.5 -32.5t-145 32.5zM366 919h143l-100 -156h-123z" />
    <glyph glyph-name="Ucircumflex" unicode="&#xdb;" horiz-adv-x="695" 
d="M202 15.5q-64 32.5 -101 95.5t-37 150v439h132v-434q0 -84 41.5 -130t109.5 -46t110 45.5t42 130.5v434h132v-439q0 -87 -37 -150t-101.5 -95.5t-145.5 -32.5t-145 32.5zM296 919h102l107 -156h-112l-45 68h-2l-45 -68h-112z" />
    <glyph glyph-name="Udieresis" unicode="&#xdc;" horiz-adv-x="695" 
d="M202 15.5q-64 32.5 -101 95.5t-37 150v439h132v-434q0 -84 41.5 -130t109.5 -46t110 45.5t42 130.5v434h132v-439q0 -87 -37 -150t-101.5 -95.5t-145.5 -32.5t-145 32.5zM198 909h122v-122h-122v122zM374 909h122v-122h-122v122z" />
    <glyph glyph-name="Yacute" unicode="&#xdd;" horiz-adv-x="642" 
d="M254 278l-244 422h151l159 -298h2l159 298h151l-246 -422v-278h-132v278zM340 919h143l-100 -156h-123z" />
    <glyph glyph-name="Thorn" unicode="&#xde;" horiz-adv-x="621" 
d="M64 700h132v-138h161q105 0 168.5 -56.5t63.5 -156.5q0 -99 -63.5 -155t-168.5 -56h-161v-138h-132v700zM329 245q59 0 91.5 27.5t32.5 76.5t-32.5 77.5t-91.5 28.5h-133v-210h133z" />
    <glyph glyph-name="germandbls" unicode="&#xdf;" horiz-adv-x="605" 
d="M533 322q42 -48 42 -116q0 -57 -29 -104t-87.5 -74.5t-142.5 -27.5h-54v103h47q61 0 96.5 28.5t35.5 79.5t-35.5 79t-96.5 28h-37v103h41q42 0 70 26t28 68q0 43 -29.5 69.5t-78.5 26.5q-51 0 -82 -30.5t-31 -84.5v-496h-126v493q0 103 63.5 162t180.5 59q78 0 131 -24
t79.5 -64.5t26.5 -90.5q0 -58 -35 -98.5t-101 -48.5v-2q82 -16 124 -64z" />
    <glyph glyph-name="agrave" unicode="&#xe0;" horiz-adv-x="604" 
d="M335.5 13q-49.5 -30 -115.5 -30q-83 0 -136.5 46.5t-53.5 129.5q0 89 59.5 131.5t149.5 42.5h89q80 0 80 60q0 36 -29 55t-76 19q-54 0 -85.5 -25t-34.5 -70h-132q6 92 68 143.5t182 51.5t176.5 -51.5t56.5 -139.5v-236q0 -20 8.5 -28.5t28.5 -8.5h21v-103h-86
q-45 0 -69 21.5t-24 60.5v21h-2q-26 -60 -75.5 -90zM188.5 107q23.5 -22 70.5 -22q62 0 105.5 40.5t43.5 120.5v51h-2q-13 -26 -38.5 -39t-67.5 -14l-41 -2q-47 -1 -70.5 -22.5t-23.5 -55.5q0 -35 23.5 -57zM138 769h143l80 -156h-119z" />
    <glyph glyph-name="aacute" unicode="&#xe1;" horiz-adv-x="604" 
d="M335.5 13q-49.5 -30 -115.5 -30q-83 0 -136.5 46.5t-53.5 129.5q0 89 59.5 131.5t149.5 42.5h89q80 0 80 60q0 36 -29 55t-76 19q-54 0 -85.5 -25t-34.5 -70h-132q6 92 68 143.5t182 51.5t176.5 -51.5t56.5 -139.5v-236q0 -20 8.5 -28.5t28.5 -8.5h21v-103h-86
q-45 0 -69 21.5t-24 60.5v21h-2q-26 -60 -75.5 -90zM188.5 107q23.5 -22 70.5 -22q62 0 105.5 40.5t43.5 120.5v51h-2q-13 -26 -38.5 -39t-67.5 -14l-41 -2q-47 -1 -70.5 -22.5t-23.5 -55.5q0 -35 23.5 -57zM320 769h143l-100 -156h-123z" />
    <glyph glyph-name="acircumflex" unicode="&#xe2;" horiz-adv-x="604" 
d="M335.5 13q-49.5 -30 -115.5 -30q-83 0 -136.5 46.5t-53.5 129.5q0 89 59.5 131.5t149.5 42.5h89q80 0 80 60q0 36 -29 55t-76 19q-54 0 -85.5 -25t-34.5 -70h-132q6 92 68 143.5t182 51.5t176.5 -51.5t56.5 -139.5v-236q0 -20 8.5 -28.5t28.5 -8.5h21v-103h-86
q-45 0 -69 21.5t-24 60.5v21h-2q-26 -60 -75.5 -90zM188.5 107q23.5 -22 70.5 -22q62 0 105.5 40.5t43.5 120.5v51h-2q-13 -26 -38.5 -39t-67.5 -14l-41 -2q-47 -1 -70.5 -22.5t-23.5 -55.5q0 -35 23.5 -57zM250 769h102l107 -156h-112l-45 68h-2l-45 -68h-112z" />
    <glyph glyph-name="atilde" unicode="&#xe3;" horiz-adv-x="604" 
d="M335.5 13q-49.5 -30 -115.5 -30q-83 0 -136.5 46.5t-53.5 129.5q0 89 59.5 131.5t149.5 42.5h89q80 0 80 60q0 36 -29 55t-76 19q-54 0 -85.5 -25t-34.5 -70h-132q6 92 68 143.5t182 51.5t176.5 -51.5t56.5 -139.5v-236q0 -20 8.5 -28.5t28.5 -8.5h21v-103h-86
q-45 0 -69 21.5t-24 60.5v21h-2q-26 -60 -75.5 -90zM188.5 107q23.5 -22 70.5 -22q62 0 105.5 40.5t43.5 120.5v51h-2q-13 -26 -38.5 -39t-67.5 -14l-41 -2q-47 -1 -70.5 -22.5t-23.5 -55.5q0 -35 23.5 -57zM330 620.5q-21 11.5 -48 32.5q-17 14 -28.5 21t-23.5 7
q-17 0 -28 -14.5t-11 -41.5v-6h-83v21q0 64 32 99t81 35q30 0 52 -11.5t47 -32.5q18 -14 29 -20.5t23 -6.5q17 0 28 14.5t11 40.5v6h83v-21q0 -65 -32 -99.5t-81 -34.5q-30 0 -51 11.5z" />
    <glyph glyph-name="adieresis" unicode="&#xe4;" horiz-adv-x="604" 
d="M335.5 13q-49.5 -30 -115.5 -30q-83 0 -136.5 46.5t-53.5 129.5q0 89 59.5 131.5t149.5 42.5h89q80 0 80 60q0 36 -29 55t-76 19q-54 0 -85.5 -25t-34.5 -70h-132q6 92 68 143.5t182 51.5t176.5 -51.5t56.5 -139.5v-236q0 -20 8.5 -28.5t28.5 -8.5h21v-103h-86
q-45 0 -69 21.5t-24 60.5v21h-2q-26 -60 -75.5 -90zM188.5 107q23.5 -22 70.5 -22q62 0 105.5 40.5t43.5 120.5v51h-2q-13 -26 -38.5 -39t-67.5 -14l-41 -2q-47 -1 -70.5 -22.5t-23.5 -55.5q0 -35 23.5 -57zM153 759h122v-122h-122v122zM329 759h122v-122h-122v122z" />
    <glyph glyph-name="aring" unicode="&#xe5;" horiz-adv-x="604" 
d="M335.5 13q-49.5 -30 -115.5 -30q-83 0 -136.5 46.5t-53.5 129.5q0 89 59.5 131.5t149.5 42.5h89q80 0 80 60q0 36 -29 55t-76 19q-54 0 -85.5 -25t-34.5 -70h-132q6 92 68 143.5t182 51.5t176.5 -51.5t56.5 -139.5v-236q0 -20 8.5 -28.5t28.5 -8.5h21v-103h-86
q-45 0 -69 21.5t-24 60.5v21h-2q-26 -60 -75.5 -90zM188.5 107q23.5 -22 70.5 -22q62 0 105.5 40.5t43.5 120.5v51h-2q-13 -26 -38.5 -39t-67.5 -14l-41 -2q-47 -1 -70.5 -22.5t-23.5 -55.5q0 -35 23.5 -57zM231.5 631q-27.5 27 -27.5 68q0 40 27.5 68t69.5 28q41 0 69 -28
t28 -68t-28 -67.5t-69 -27.5q-42 0 -69.5 27zM280 676.5q8 -8.5 21 -8.5t21 8.5t8 22.5t-8 23t-21 9t-21 -9t-8 -23t8 -22.5z" />
    <glyph glyph-name="ae" unicode="&#xe6;" horiz-adv-x="959" 
d="M87 28q-57 45 -57 132q0 88 58 130.5t148 42.5h95q39 0 59.5 15.5t20.5 44.5q0 36 -29.5 55t-75.5 19q-53 0 -87.5 -25.5t-36.5 -69.5h-134q6 90 70 142.5t175 52.5q145 0 189 -99h2q30 49 80.5 74t115.5 25q73 0 130 -31.5t89.5 -92.5t32.5 -147v-57h-396q4 -72 41 -114
t100 -42q45 0 75.5 23t44.5 63h130q-17 -83 -85.5 -134.5t-163.5 -51.5q-77 0 -139 36t-91 107h-2q-27 -68 -85 -105.5t-133 -37.5q-84 0 -141 45zM190.5 107q25.5 -22 72.5 -22q62 0 105 41t43 120v51h-2q-13 -26 -38.5 -39t-67.5 -14l-47 -2q-44 -1 -67.5 -22.5
t-23.5 -54.5q0 -36 25.5 -58zM805 330q-1 62 -34 99.5t-93 37.5q-61 0 -98 -38t-43 -99h268z" />
    <glyph glyph-name="ccedilla" unicode="&#xe7;" horiz-adv-x="589" 
d="M216 -194v80h76q10 0 17.5 5.5t7.5 15.5q0 9 -7.5 15t-17.5 6h-28v57q-72 9 -125.5 47t-83 100.5t-29.5 142.5q0 88 33.5 154t96.5 102t149 36q114 0 181.5 -63t76.5 -164h-130q-4 55 -36.5 91t-91.5 36q-69 0 -106.5 -52.5t-37.5 -139.5q0 -89 39 -140.5t105 -51.5
q56 0 89 35.5t39 80.5h130q-12 -86 -70 -145t-153 -69v-22q36 -4 55.5 -23t19.5 -51q0 -37 -25 -60t-69 -23h-105z" />
    <glyph glyph-name="egrave" unicode="&#xe8;" horiz-adv-x="587" 
d="M156 18q-62 35 -96 101t-34 156t34.5 156t96 101t141.5 35q76 0 136 -31.5t94 -92.5t34 -147v-57h-402q3 -71 41 -113.5t100 -42.5q45 0 78 23t46 63h130q-18 -84 -87 -135t-169 -51q-81 0 -143 35zM435 330q0 61 -35.5 99t-98.5 38q-62 0 -98 -38t-42 -99h274zM131 769
h143l80 -156h-119z" />
    <glyph glyph-name="eacute" unicode="&#xe9;" horiz-adv-x="587" 
d="M156 18q-62 35 -96 101t-34 156t34.5 156t96 101t141.5 35q76 0 136 -31.5t94 -92.5t34 -147v-57h-402q3 -71 41 -113.5t100 -42.5q45 0 78 23t46 63h130q-18 -84 -87 -135t-169 -51q-81 0 -143 35zM435 330q0 61 -35.5 99t-98.5 38q-62 0 -98 -38t-42 -99h274zM313 769
h143l-100 -156h-123z" />
    <glyph glyph-name="ecircumflex" unicode="&#xea;" horiz-adv-x="587" 
d="M156 18q-62 35 -96 101t-34 156t34.5 156t96 101t141.5 35q76 0 136 -31.5t94 -92.5t34 -147v-57h-402q3 -71 41 -113.5t100 -42.5q45 0 78 23t46 63h130q-18 -84 -87 -135t-169 -51q-81 0 -143 35zM435 330q0 61 -35.5 99t-98.5 38q-62 0 -98 -38t-42 -99h274zM244 769
h102l107 -156h-112l-45 68h-2l-45 -68h-112z" />
    <glyph glyph-name="edieresis" unicode="&#xeb;" horiz-adv-x="587" 
d="M156 18q-62 35 -96 101t-34 156t34.5 156t96 101t141.5 35q76 0 136 -31.5t94 -92.5t34 -147v-57h-402q3 -71 41 -113.5t100 -42.5q45 0 78 23t46 63h130q-18 -84 -87 -135t-169 -51q-81 0 -143 35zM435 330q0 61 -35.5 99t-98.5 38q-62 0 -98 -38t-42 -99h274zM146 759
h122v-122h-122v122zM322 759h122v-122h-122v122z" />
    <glyph glyph-name="igrave" unicode="&#xec;" horiz-adv-x="250" 
d="M62 550h126v-550h-126v550zM-38 769h143l80 -156h-119z" />
    <glyph glyph-name="iacute" unicode="&#xed;" horiz-adv-x="250" 
d="M62 550h126v-550h-126v550zM144 769h143l-100 -156h-123z" />
    <glyph glyph-name="icircumflex" unicode="&#xee;" horiz-adv-x="250" 
d="M62 550h126v-550h-126v550zM74 769h102l107 -156h-112l-45 68h-2l-45 -68h-112z" />
    <glyph glyph-name="idieresis" unicode="&#xef;" horiz-adv-x="250" 
d="M62 550h126v-550h-126v550zM-24 759h122v-122h-122v122zM152 759h122v-122h-122v122z" />
    <glyph glyph-name="eth" unicode="&#xf0;" horiz-adv-x="604" 
d="M161.5 18q-63.5 34 -99.5 100t-36 158q0 91 32.5 156.5t87 99.5t118.5 34q65 0 114.5 -34t69.5 -97h2q-12 112 -87 208l-131 -50v93l66 25q-51 47 -116 87v2h191q24 -19 45 -42l124 47v-93l-68 -26q49 -73 76 -165.5t27 -196.5q0 -165 -71.5 -252.5t-199.5 -87.5
q-81 0 -144.5 34zM201 131.5q40 -48.5 104 -48.5q61 0 99.5 49.5t38.5 144.5t-39 142.5t-102 47.5q-64 0 -102.5 -47t-38.5 -143q0 -97 40 -145.5z" />
    <glyph glyph-name="ntilde" unicode="&#xf1;" horiz-adv-x="603" 
d="M62 550h124v-84h2q25 49 68.5 75t100.5 26q86 0 136 -57.5t50 -164.5v-345h-126v330q0 69 -27.5 102.5t-76.5 33.5q-53 0 -89 -37t-36 -114v-315h-126v550zM330 620.5q-21 11.5 -48 32.5q-17 14 -28.5 21t-23.5 7q-17 0 -28 -14.5t-11 -41.5v-6h-83v21q0 64 32 99t81 35
q30 0 52 -11.5t47 -32.5q18 -14 29 -20.5t23 -6.5q17 0 28 14.5t11 40.5v6h83v-21q0 -65 -32 -99.5t-81 -34.5q-30 0 -51 11.5z" />
    <glyph glyph-name="ograve" unicode="&#xf2;" horiz-adv-x="610" 
d="M163 17.5q-63 34.5 -100 100.5t-37 157t37 157t100 100.5t142 34.5t142 -34.5t100 -100.5t37 -157t-37 -157t-100 -100.5t-142 -34.5t-142 34.5zM199.5 132.5q38.5 -49.5 105.5 -49.5t105.5 49.5t38.5 142.5t-38.5 142.5t-105.5 49.5t-105.5 -49.5t-38.5 -142.5
t38.5 -142.5zM142 769h143l80 -156h-119z" />
    <glyph glyph-name="oacute" unicode="&#xf3;" horiz-adv-x="610" 
d="M163 17.5q-63 34.5 -100 100.5t-37 157t37 157t100 100.5t142 34.5t142 -34.5t100 -100.5t37 -157t-37 -157t-100 -100.5t-142 -34.5t-142 34.5zM199.5 132.5q38.5 -49.5 105.5 -49.5t105.5 49.5t38.5 142.5t-38.5 142.5t-105.5 49.5t-105.5 -49.5t-38.5 -142.5
t38.5 -142.5zM324 769h143l-100 -156h-123z" />
    <glyph glyph-name="ocircumflex" unicode="&#xf4;" horiz-adv-x="610" 
d="M163 17.5q-63 34.5 -100 100.5t-37 157t37 157t100 100.5t142 34.5t142 -34.5t100 -100.5t37 -157t-37 -157t-100 -100.5t-142 -34.5t-142 34.5zM199.5 132.5q38.5 -49.5 105.5 -49.5t105.5 49.5t38.5 142.5t-38.5 142.5t-105.5 49.5t-105.5 -49.5t-38.5 -142.5
t38.5 -142.5zM254 769h102l107 -156h-112l-45 68h-2l-45 -68h-112z" />
    <glyph glyph-name="otilde" unicode="&#xf5;" horiz-adv-x="610" 
d="M163 17.5q-63 34.5 -100 100.5t-37 157t37 157t100 100.5t142 34.5t142 -34.5t100 -100.5t37 -157t-37 -157t-100 -100.5t-142 -34.5t-142 34.5zM199.5 132.5q38.5 -49.5 105.5 -49.5t105.5 49.5t38.5 142.5t-38.5 142.5t-105.5 49.5t-105.5 -49.5t-38.5 -142.5
t38.5 -142.5zM334 620.5q-21 11.5 -48 32.5q-17 14 -28.5 21t-23.5 7q-17 0 -28 -14.5t-11 -41.5v-6h-83v21q0 64 32 99t81 35q30 0 52 -11.5t47 -32.5q18 -14 29 -20.5t23 -6.5q17 0 28 14.5t11 40.5v6h83v-21q0 -65 -32 -99.5t-81 -34.5q-30 0 -51 11.5z" />
    <glyph glyph-name="odieresis" unicode="&#xf6;" horiz-adv-x="610" 
d="M163 17.5q-63 34.5 -100 100.5t-37 157t37 157t100 100.5t142 34.5t142 -34.5t100 -100.5t37 -157t-37 -157t-100 -100.5t-142 -34.5t-142 34.5zM199.5 132.5q38.5 -49.5 105.5 -49.5t105.5 49.5t38.5 142.5t-38.5 142.5t-105.5 49.5t-105.5 -49.5t-38.5 -142.5
t38.5 -142.5zM156 759h122v-122h-122v122zM332 759h122v-122h-122v122z" />
    <glyph glyph-name="divide" unicode="&#xf7;" horiz-adv-x="573" 
d="M54 336h465v-99h-465v99zM221 156h131v-124h-131v124zM221 540h131v-123h-131v123z" />
    <glyph glyph-name="oslash" unicode="&#xf8;" horiz-adv-x="612" 
d="M32 2l61 75q-65 76 -65 198q0 91 37 157t100 100.5t142 34.5q86 0 153 -41l19 24h98v-2l-58 -72q67 -77 67 -201q0 -91 -37 -157t-100 -100.5t-142 -34.5q-89 0 -155 42l-21 -25h-99v2zM177 180l213 261q-35 26 -83 26q-67 0 -105.5 -49.5t-38.5 -142.5q0 -55 14 -95z
M307 83q67 0 105.5 49.5t38.5 142.5q0 59 -15 99l-214 -263q36 -28 85 -28z" />
    <glyph glyph-name="ugrave" unicode="&#xf9;" 
d="M107.5 40.5q-50.5 57.5 -50.5 164.5v345h126v-330q0 -70 27.5 -103t76.5 -33q53 0 88.5 37t35.5 114v315h126v-550h-124v84h-2q-24 -50 -67 -75.5t-99 -25.5q-87 0 -137.5 57.5zM135 769h143l80 -156h-119z" />
    <glyph glyph-name="uacute" unicode="&#xfa;" 
d="M107.5 40.5q-50.5 57.5 -50.5 164.5v345h126v-330q0 -70 27.5 -103t76.5 -33q53 0 88.5 37t35.5 114v315h126v-550h-124v84h-2q-24 -50 -67 -75.5t-99 -25.5q-87 0 -137.5 57.5zM317 769h143l-100 -156h-123z" />
    <glyph glyph-name="ucircumflex" unicode="&#xfb;" 
d="M107.5 40.5q-50.5 57.5 -50.5 164.5v345h126v-330q0 -70 27.5 -103t76.5 -33q53 0 88.5 37t35.5 114v315h126v-550h-124v84h-2q-24 -50 -67 -75.5t-99 -25.5q-87 0 -137.5 57.5zM247 769h102l107 -156h-112l-45 68h-2l-45 -68h-112z" />
    <glyph glyph-name="udieresis" unicode="&#xfc;" 
d="M107.5 40.5q-50.5 57.5 -50.5 164.5v345h126v-330q0 -70 27.5 -103t76.5 -33q53 0 88.5 37t35.5 114v315h126v-550h-124v84h-2q-24 -50 -67 -75.5t-99 -25.5q-87 0 -137.5 57.5zM149 759h122v-122h-122v122zM325 759h122v-122h-122v122z" />
    <glyph glyph-name="yacute" unicode="&#xfd;" horiz-adv-x="567" 
d="M8 -97h156l54 127l-210 520h137l138 -366h2l139 366h135l-285 -708q-16 -42 -62 -42h-204v103zM303 769h143l-100 -156h-123z" />
    <glyph glyph-name="thorn" unicode="&#xfe;" horiz-adv-x="643" 
d="M62 781h126v-271q0 -37 -2 -56h2q25 53 73.5 83t110.5 30q66 0 122 -34t89.5 -100t33.5 -158t-33.5 -158t-89.5 -100t-122 -34q-62 0 -110.5 30t-73.5 83h-2q1 -21 1 -59v-237h-125v981zM226.5 135q39.5 -52 107.5 -52q69 0 108.5 52t39.5 140t-39.5 140t-108.5 52
q-68 0 -107.5 -52t-39.5 -140t39.5 -140z" />
    <glyph glyph-name="ydieresis" unicode="&#xff;" horiz-adv-x="567" 
d="M8 -97h156l54 127l-210 520h137l138 -366h2l139 366h135l-285 -708q-16 -42 -62 -42h-204v103zM135 759h122v-122h-122v122zM311 759h122v-122h-122v122z" />
    <glyph glyph-name="Amacron" unicode="&#x100;" horiz-adv-x="690" 
d="M279 700h132l264 -700h-140l-57 163h-268l-57 -163h-138zM441 269l-33 96q-25 74 -63 197h-2q-38 -123 -65 -202l-32 -91h195zM199 885h290v-101h-290v101z" />
    <glyph glyph-name="amacron" unicode="&#x101;" horiz-adv-x="604" 
d="M335.5 13q-49.5 -30 -115.5 -30q-83 0 -136.5 46.5t-53.5 129.5q0 89 59.5 131.5t149.5 42.5h89q80 0 80 60q0 36 -29 55t-76 19q-54 0 -85.5 -25t-34.5 -70h-132q6 92 68 143.5t182 51.5t176.5 -51.5t56.5 -139.5v-236q0 -20 8.5 -28.5t28.5 -8.5h21v-103h-86
q-45 0 -69 21.5t-24 60.5v21h-2q-26 -60 -75.5 -90zM188.5 107q23.5 -22 70.5 -22q62 0 105.5 40.5t43.5 120.5v51h-2q-13 -26 -38.5 -39t-67.5 -14l-41 -2q-47 -1 -70.5 -22.5t-23.5 -55.5q0 -35 23.5 -57zM156 735h290v-101h-290v101z" />
    <glyph glyph-name="Abreve" unicode="&#x102;" horiz-adv-x="690" 
d="M279 700h132l264 -700h-140l-57 163h-268l-57 -163h-138zM441 269l-33 96q-25 74 -63 197h-2q-38 -123 -65 -202l-32 -91h195zM236 805q-38 42 -38 114h101q0 -68 45 -68t45 68h101q0 -72 -38 -114t-108 -42t-108 42z" />
    <glyph glyph-name="abreve" unicode="&#x103;" horiz-adv-x="604" 
d="M335.5 13q-49.5 -30 -115.5 -30q-83 0 -136.5 46.5t-53.5 129.5q0 89 59.5 131.5t149.5 42.5h89q80 0 80 60q0 36 -29 55t-76 19q-54 0 -85.5 -25t-34.5 -70h-132q6 92 68 143.5t182 51.5t176.5 -51.5t56.5 -139.5v-236q0 -20 8.5 -28.5t28.5 -8.5h21v-103h-86
q-45 0 -69 21.5t-24 60.5v21h-2q-26 -60 -75.5 -90zM188.5 107q23.5 -22 70.5 -22q62 0 105.5 40.5t43.5 120.5v51h-2q-13 -26 -38.5 -39t-67.5 -14l-41 -2q-47 -1 -70.5 -22.5t-23.5 -55.5q0 -35 23.5 -57zM194 655q-38 42 -38 114h101q0 -68 45 -68t45 68h101
q0 -72 -38 -114t-108 -42t-108 42z" />
    <glyph glyph-name="Aogonek" unicode="&#x104;" horiz-adv-x="690" 
d="M279 700h132l264 -700h-2q-18 0 -30.5 -13t-12.5 -32q0 -24 18.5 -38t46.5 -14h13v-93h-29q-67 0 -101.5 27t-34.5 72q0 28 14.5 51.5t41.5 37.5v2h-64l-57 163h-268l-57 -163h-138zM441 269l-33 96q-25 74 -63 197h-2q-38 -123 -65 -202l-32 -91h195z" />
    <glyph glyph-name="aogonek" unicode="&#x105;" horiz-adv-x="604" 
d="M335.5 13q-49.5 -30 -115.5 -30q-83 0 -136.5 46.5t-53.5 129.5q0 89 59.5 131.5t149.5 42.5h89q80 0 80 60q0 36 -29 55t-76 19q-54 0 -85.5 -25t-34.5 -70h-132q6 92 68 143.5t182 51.5t176.5 -51.5t56.5 -139.5v-236q0 -20 8.5 -28.5t28.5 -8.5h21v-103h-10
q-18 0 -30.5 -13t-12.5 -32q0 -24 18.5 -38t46.5 -14h13v-93h-29q-67 0 -101.5 27t-34.5 72q0 28 14.5 51.5t41.5 37.5v2h-2q-45 0 -69 21.5t-24 60.5v21h-2q-26 -60 -75.5 -90zM188.5 107q23.5 -22 70.5 -22q62 0 105.5 40.5t43.5 120.5v51h-2q-13 -26 -38.5 -39t-67.5 -14
l-41 -2q-47 -1 -70.5 -22.5t-23.5 -55.5q0 -35 23.5 -57z" />
    <glyph glyph-name="Cacute" unicode="&#x106;" horiz-adv-x="739" 
d="M198 28.5q-79 45.5 -122.5 128.5t-43.5 194t42 194t120.5 127.5t185.5 44.5q98 0 169 -37.5t111 -101.5t47 -143h-138q-6 75 -55 125t-134 50q-98 0 -153 -67t-55 -192q0 -82 26.5 -141t73.5 -89.5t108 -30.5q56 0 97 24t64 62.5t28 81.5h138q-9 -76 -49.5 -138.5
t-111 -99.5t-166.5 -37q-103 0 -182 45.5zM399 919h143l-100 -156h-123z" />
    <glyph glyph-name="cacute" unicode="&#x107;" horiz-adv-x="589" 
d="M159 19q-63 36 -98 102.5t-35 153.5q0 88 33.5 154t96.5 102t149 36q114 0 181.5 -63t76.5 -164h-130q-4 55 -36.5 91t-91.5 36q-69 0 -106.5 -52.5t-37.5 -139.5q0 -89 39 -140.5t105 -51.5q56 0 89 35.5t39 80.5h130q-8 -60 -40.5 -109.5t-88 -78t-129.5 -28.5
q-83 0 -146 36zM326 769h143l-100 -156h-123z" />
    <glyph glyph-name="Ccircumflex" unicode="&#x108;" horiz-adv-x="739" 
d="M198 28.5q-79 45.5 -122.5 128.5t-43.5 194t42 194t120.5 127.5t185.5 44.5q98 0 169 -37.5t111 -101.5t47 -143h-138q-6 75 -55 125t-134 50q-98 0 -153 -67t-55 -192q0 -82 26.5 -141t73.5 -89.5t108 -30.5q56 0 97 24t64 62.5t28 81.5h138q-9 -76 -49.5 -138.5
t-111 -99.5t-166.5 -37q-103 0 -182 45.5zM329 919h102l107 -156h-112l-45 68h-2l-45 -68h-112z" />
    <glyph glyph-name="ccircumflex" unicode="&#x109;" horiz-adv-x="589" 
d="M159 19q-63 36 -98 102.5t-35 153.5q0 88 33.5 154t96.5 102t149 36q114 0 181.5 -63t76.5 -164h-130q-4 55 -36.5 91t-91.5 36q-69 0 -106.5 -52.5t-37.5 -139.5q0 -89 39 -140.5t105 -51.5q56 0 89 35.5t39 80.5h130q-8 -60 -40.5 -109.5t-88 -78t-129.5 -28.5
q-83 0 -146 36zM256 769h102l107 -156h-112l-45 68h-2l-45 -68h-112z" />
    <glyph glyph-name="Cdotaccent" unicode="&#x10a;" horiz-adv-x="739" 
d="M198 28.5q-79 45.5 -122.5 128.5t-43.5 194t42 194t120.5 127.5t185.5 44.5q98 0 169 -37.5t111 -101.5t47 -143h-138q-6 75 -55 125t-134 50q-98 0 -153 -67t-55 -192q0 -82 26.5 -141t73.5 -89.5t108 -30.5q56 0 97 24t64 62.5t28 81.5h138q-9 -76 -49.5 -138.5
t-111 -99.5t-166.5 -37q-103 0 -182 45.5zM316 909h129v-122h-129v122z" />
    <glyph glyph-name="cdotaccent" unicode="&#x10b;" horiz-adv-x="589" 
d="M159 19q-63 36 -98 102.5t-35 153.5q0 88 33.5 154t96.5 102t149 36q114 0 181.5 -63t76.5 -164h-130q-4 55 -36.5 91t-91.5 36q-69 0 -106.5 -52.5t-37.5 -139.5q0 -89 39 -140.5t105 -51.5q56 0 89 35.5t39 80.5h130q-8 -60 -40.5 -109.5t-88 -78t-129.5 -28.5
q-83 0 -146 36zM242 759h129v-122h-129v122z" />
    <glyph glyph-name="Ccaron" unicode="&#x10c;" horiz-adv-x="739" 
d="M198 28.5q-79 45.5 -122.5 128.5t-43.5 194t42 194t120.5 127.5t185.5 44.5q98 0 169 -37.5t111 -101.5t47 -143h-138q-6 75 -55 125t-134 50q-98 0 -153 -67t-55 -192q0 -82 26.5 -141t73.5 -89.5t108 -30.5q56 0 97 24t64 62.5t28 81.5h138q-9 -76 -49.5 -138.5
t-111 -99.5t-166.5 -37q-103 0 -182 45.5zM222 919h112l45 -58h2l45 58h112l-107 -156h-102z" />
    <glyph glyph-name="ccaron" unicode="&#x10d;" horiz-adv-x="589" 
d="M159 19q-63 36 -98 102.5t-35 153.5q0 88 33.5 154t96.5 102t149 36q114 0 181.5 -63t76.5 -164h-130q-4 55 -36.5 91t-91.5 36q-69 0 -106.5 -52.5t-37.5 -139.5q0 -89 39 -140.5t105 -51.5q56 0 89 35.5t39 80.5h130q-8 -60 -40.5 -109.5t-88 -78t-129.5 -28.5
q-83 0 -146 36zM149 769h112l45 -58h2l45 58h112l-107 -156h-102z" />
    <glyph glyph-name="Dcaron" unicode="&#x10e;" horiz-adv-x="711" 
d="M64 700h273q99 0 176.5 -41.5t121.5 -120.5t44 -188t-44 -188t-121.5 -120.5t-176.5 -41.5h-273v700zM325 107q99 0 156.5 62.5t57.5 180.5q0 119 -57.5 181t-156.5 62h-129v-486h129zM167 919h112l45 -58h2l45 58h112l-107 -156h-102z" />
    <glyph glyph-name="dcaron" unicode="&#x10f;" horiz-adv-x="788" 
d="M149 17q-56 34 -89.5 100t-33.5 158t33.5 158t89.5 100t122 34q62 0 110.5 -30t73.5 -83h2q-2 19 -2 56v271h126v-781h-125v37q0 38 1 59h-2q-25 -53 -73.5 -83t-110.5 -30q-66 0 -122 34zM200.5 135q39.5 -52 108.5 -52q68 0 107.5 52t39.5 140t-39.5 140t-107.5 52
q-69 0 -108.5 -52t-39.5 -140t39.5 -140zM705.5 471q19.5 20 19.5 53v39h-75v137h134v-172q0 -64 -36 -101t-101 -37v61q39 0 58.5 20z" />
    <glyph glyph-name="Dcroat" unicode="&#x110;" horiz-adv-x="711" 
d="M196 295v-188h129q99 0 156.5 62.5t57.5 180.5q0 119 -57.5 181t-156.5 62h-129v-191h123v-107h-123zM10 402h54v298h273q99 0 176.5 -41.5t121.5 -120.5t44 -188t-44 -188t-121.5 -120.5t-176.5 -41.5h-273v295h-54v107z" />
    <glyph glyph-name="dcroat" unicode="&#x111;" horiz-adv-x="637" 
d="M344 711h111v70h126v-70h82v-101h-82v-610h-125v37q0 38 1 59h-2q-25 -53 -73.5 -83t-110.5 -30q-66 0 -122 34t-89.5 100t-33.5 158t33.5 158t89.5 100t122 34q62 0 110.5 -30t73.5 -83h2q-2 19 -2 56v100h-111v101zM200.5 135q39.5 -52 108.5 -52q68 0 107.5 52
t39.5 140t-39.5 140t-107.5 52q-69 0 -108.5 -52t-39.5 -140t39.5 -140z" />
    <glyph glyph-name="Emacron" unicode="&#x112;" horiz-adv-x="583" 
d="M64 700h496v-103h-364v-193h325v-103h-325v-198h365v-103h-497v700zM171 885h290v-101h-290v101z" />
    <glyph glyph-name="emacron" unicode="&#x113;" horiz-adv-x="587" 
d="M156 18q-62 35 -96 101t-34 156t34.5 156t96 101t141.5 35q76 0 136 -31.5t94 -92.5t34 -147v-57h-402q3 -71 41 -113.5t100 -42.5q45 0 78 23t46 63h130q-18 -84 -87 -135t-169 -51q-81 0 -143 35zM435 330q0 61 -35.5 99t-98.5 38q-62 0 -98 -38t-42 -99h274zM149 735
h290v-101h-290v101z" />
    <glyph glyph-name="Ebreve" unicode="&#x114;" horiz-adv-x="583" 
d="M64 700h496v-103h-364v-193h325v-103h-325v-198h365v-103h-497v700zM208 805q-38 42 -38 114h101q0 -68 45 -68t45 68h101q0 -72 -38 -114t-108 -42t-108 42z" />
    <glyph glyph-name="ebreve" unicode="&#x115;" horiz-adv-x="587" 
d="M156 18q-62 35 -96 101t-34 156t34.5 156t96 101t141.5 35q76 0 136 -31.5t94 -92.5t34 -147v-57h-402q3 -71 41 -113.5t100 -42.5q45 0 78 23t46 63h130q-18 -84 -87 -135t-169 -51q-81 0 -143 35zM435 330q0 61 -35.5 99t-98.5 38q-62 0 -98 -38t-42 -99h274zM187 655
q-38 42 -38 114h101q0 -68 45 -68t45 68h101q0 -72 -38 -114t-108 -42t-108 42z" />
    <glyph glyph-name="Edotaccent" unicode="&#x116;" horiz-adv-x="583" 
d="M64 700h496v-103h-364v-193h325v-103h-325v-198h365v-103h-497v700zM251 909h129v-122h-129v122z" />
    <glyph glyph-name="edotaccent" unicode="&#x117;" horiz-adv-x="587" 
d="M156 18q-62 35 -96 101t-34 156t34.5 156t96 101t141.5 35q76 0 136 -31.5t94 -92.5t34 -147v-57h-402q3 -71 41 -113.5t100 -42.5q45 0 78 23t46 63h130q-18 -84 -87 -135t-169 -51q-81 0 -143 35zM435 330q0 61 -35.5 99t-98.5 38q-62 0 -98 -38t-42 -99h274zM230 759
h129v-122h-129v122z" />
    <glyph glyph-name="Eogonek" unicode="&#x118;" horiz-adv-x="583" 
d="M64 700h496v-103h-364v-193h325v-103h-325v-198h365v-103h-9q-18 0 -30.5 -13t-12.5 -32q0 -24 18.5 -38t46.5 -14h13v-93h-29q-67 0 -101.5 27t-34.5 72q0 28 14.5 51.5t41.5 37.5v2h-414v700z" />
    <glyph glyph-name="eogonek" unicode="&#x119;" horiz-adv-x="587" 
d="M405.5 -162.5q-37.5 27.5 -37.5 75.5q0 43 31 85v1q-44 -16 -100 -16q-81 0 -143 35t-96 101t-34 156t34.5 156t96 101t141.5 35q76 0 136 -31.5t94 -92.5t34 -147v-57h-402q3 -71 41 -113.5t100 -42.5q45 0 78 23t46 63h130q-18 -85 -87 -135q-29 -32 -29 -70
q0 -29 19.5 -45t50.5 -16h13v-93h-14q-65 0 -102.5 27.5zM435 330q0 61 -35.5 99t-98.5 38q-62 0 -98 -38t-42 -99h274z" />
    <glyph glyph-name="Ecaron" unicode="&#x11a;" horiz-adv-x="583" 
d="M64 700h496v-103h-364v-193h325v-103h-325v-198h365v-103h-497v700zM158 919h112l45 -58h2l45 58h112l-107 -156h-102z" />
    <glyph glyph-name="ecaron" unicode="&#x11b;" horiz-adv-x="587" 
d="M156 18q-62 35 -96 101t-34 156t34.5 156t96 101t141.5 35q76 0 136 -31.5t94 -92.5t34 -147v-57h-402q3 -71 41 -113.5t100 -42.5q45 0 78 23t46 63h130q-18 -84 -87 -135t-169 -51q-81 0 -143 35zM435 330q0 61 -35.5 99t-98.5 38q-62 0 -98 -38t-42 -99h274zM137 769
h112l45 -58h2l45 58h112l-107 -156h-102z" />
    <glyph glyph-name="Gcircumflex" unicode="&#x11c;" horiz-adv-x="753" 
d="M191.5 28.5q-74.5 45.5 -117 129.5t-42.5 193q0 108 41.5 191t119 129t183.5 46q96 0 168 -38t111 -103t43 -144h-135q-2 50 -25 90.5t-65 64t-97 23.5q-95 0 -149.5 -68.5t-54.5 -190.5q0 -82 26.5 -141t73.5 -89.5t107 -30.5q54 0 95.5 22.5t66.5 59t31 77.5h-206v102
h279q26 0 40.5 -14t14.5 -39v-298h-117l17 129h-2q-31 -71 -92 -108.5t-146 -37.5q-94 0 -168.5 45.5zM323 919h102l107 -156h-112l-45 68h-2l-45 -68h-112z" />
    <glyph glyph-name="gcircumflex" unicode="&#x11d;" horiz-adv-x="570" 
d="M63.5 -167q-41.5 33 -41.5 86q0 41 24 70.5t69 39.5v2q-31 12 -48.5 36.5t-17.5 57.5q0 38 23 62.5t59 29.5l13 2v2q-48 20 -75 60.5t-27 96.5q0 59 30 101.5t81.5 65t113.5 22.5q60 0 110.5 -22t80.5 -62h2q2 32 19.5 49.5t48.5 17.5h25v-103h-39q-13 0 -19.5 -5
t-8.5 -16q6 -22 6 -48q0 -58 -29 -101t-79.5 -66t-112.5 -23h-63q-49 0 -49 -35q0 -17 12.5 -26.5t36.5 -9.5h169q86 0 134 -42.5t48 -115.5t-48 -116t-134 -43h-193q-79 0 -120.5 33zM148.5 -94q19.5 -17 57.5 -17h152q37 0 57 17t20 47q0 31 -20 47.5t-57 16.5h-152
q-38 0 -57.5 -17t-19.5 -47t19.5 -47zM191.5 301.5q29.5 -24.5 75.5 -24.5t75.5 24.5t29.5 70.5t-29.5 70.5t-75.5 24.5t-75.5 -24.5t-29.5 -70.5t29.5 -70.5zM216 769h102l107 -156h-112l-45 68h-2l-45 -68h-112z" />
    <glyph glyph-name="Gbreve" unicode="&#x11e;" horiz-adv-x="753" 
d="M191.5 28.5q-74.5 45.5 -117 129.5t-42.5 193q0 108 41.5 191t119 129t183.5 46q96 0 168 -38t111 -103t43 -144h-135q-2 50 -25 90.5t-65 64t-97 23.5q-95 0 -149.5 -68.5t-54.5 -190.5q0 -82 26.5 -141t73.5 -89.5t107 -30.5q54 0 95.5 22.5t66.5 59t31 77.5h-206v102
h279q26 0 40.5 -14t14.5 -39v-298h-117l17 129h-2q-31 -71 -92 -108.5t-146 -37.5q-94 0 -168.5 45.5zM266 805q-38 42 -38 114h101q0 -68 45 -68t45 68h101q0 -72 -38 -114t-108 -42t-108 42z" />
    <glyph glyph-name="gbreve" unicode="&#x11f;" horiz-adv-x="570" 
d="M63.5 -167q-41.5 33 -41.5 86q0 41 24 70.5t69 39.5v2q-31 12 -48.5 36.5t-17.5 57.5q0 38 23 62.5t59 29.5l13 2v2q-48 20 -75 60.5t-27 96.5q0 59 30 101.5t81.5 65t113.5 22.5q60 0 110.5 -22t80.5 -62h2q2 32 19.5 49.5t48.5 17.5h25v-103h-39q-13 0 -19.5 -5
t-8.5 -16q6 -22 6 -48q0 -58 -29 -101t-79.5 -66t-112.5 -23h-63q-49 0 -49 -35q0 -17 12.5 -26.5t36.5 -9.5h169q86 0 134 -42.5t48 -115.5t-48 -116t-134 -43h-193q-79 0 -120.5 33zM148.5 -94q19.5 -17 57.5 -17h152q37 0 57 17t20 47q0 31 -20 47.5t-57 16.5h-152
q-38 0 -57.5 -17t-19.5 -47t19.5 -47zM191.5 301.5q29.5 -24.5 75.5 -24.5t75.5 24.5t29.5 70.5t-29.5 70.5t-75.5 24.5t-75.5 -24.5t-29.5 -70.5t29.5 -70.5zM159 655q-38 42 -38 114h101q0 -68 45 -68t45 68h101q0 -72 -38 -114t-108 -42t-108 42z" />
    <glyph glyph-name="Gdotaccent" unicode="&#x120;" horiz-adv-x="753" 
d="M191.5 28.5q-74.5 45.5 -117 129.5t-42.5 193q0 108 41.5 191t119 129t183.5 46q96 0 168 -38t111 -103t43 -144h-135q-2 50 -25 90.5t-65 64t-97 23.5q-95 0 -149.5 -68.5t-54.5 -190.5q0 -82 26.5 -141t73.5 -89.5t107 -30.5q54 0 95.5 22.5t66.5 59t31 77.5h-206v102
h279q26 0 40.5 -14t14.5 -39v-298h-117l17 129h-2q-31 -71 -92 -108.5t-146 -37.5q-94 0 -168.5 45.5zM310 909h129v-122h-129v122z" />
    <glyph glyph-name="gdotaccent" unicode="&#x121;" horiz-adv-x="570" 
d="M63.5 -167q-41.5 33 -41.5 86q0 41 24 70.5t69 39.5v2q-31 12 -48.5 36.5t-17.5 57.5q0 38 23 62.5t59 29.5l13 2v2q-48 20 -75 60.5t-27 96.5q0 59 30 101.5t81.5 65t113.5 22.5q60 0 110.5 -22t80.5 -62h2q2 32 19.5 49.5t48.5 17.5h25v-103h-39q-13 0 -19.5 -5
t-8.5 -16q6 -22 6 -48q0 -58 -29 -101t-79.5 -66t-112.5 -23h-63q-49 0 -49 -35q0 -17 12.5 -26.5t36.5 -9.5h169q86 0 134 -42.5t48 -115.5t-48 -116t-134 -43h-193q-79 0 -120.5 33zM148.5 -94q19.5 -17 57.5 -17h152q37 0 57 17t20 47q0 31 -20 47.5t-57 16.5h-152
q-38 0 -57.5 -17t-19.5 -47t19.5 -47zM191.5 301.5q29.5 -24.5 75.5 -24.5t75.5 24.5t29.5 70.5t-29.5 70.5t-75.5 24.5t-75.5 -24.5t-29.5 -70.5t29.5 -70.5zM202 759h129v-122h-129v122z" />
    <glyph glyph-name="uni0122" unicode="&#x122;" horiz-adv-x="753" 
d="M191.5 28.5q-74.5 45.5 -117 129.5t-42.5 193q0 108 41.5 191t119 129t183.5 46q96 0 168 -38t111 -103t43 -144h-135q-2 50 -25 90.5t-65 64t-97 23.5q-95 0 -149.5 -68.5t-54.5 -190.5q0 -82 26.5 -141t73.5 -89.5t107 -30.5q54 0 95.5 22.5t66.5 59t31 77.5h-206v102
h279q26 0 40.5 -14t14.5 -39v-298h-117l17 129h-2q-31 -71 -92 -108.5t-146 -37.5q-94 0 -168.5 45.5zM360.5 -199.5q16.5 12.5 16.5 34.5v5h-62v110h121v-114q0 -50 -33.5 -79t-87.5 -29v60q29 0 45.5 12.5z" />
    <glyph glyph-name="uni0123" unicode="&#x123;" horiz-adv-x="570" 
d="M63.5 -167q-41.5 33 -41.5 86q0 41 24 70.5t69 39.5v2q-31 12 -48.5 36.5t-17.5 57.5q0 38 23 62.5t59 29.5l13 2v2q-48 20 -75 60.5t-27 96.5q0 59 30 101.5t81.5 65t113.5 22.5q60 0 110.5 -22t80.5 -62h2q2 32 19.5 49.5t48.5 17.5h25v-103h-39q-13 0 -19.5 -5
t-8.5 -16q6 -22 6 -48q0 -58 -29 -101t-79.5 -66t-112.5 -23h-63q-49 0 -49 -35q0 -17 12.5 -26.5t36.5 -9.5h169q86 0 134 -42.5t48 -115.5t-48 -116t-134 -43h-193q-79 0 -120.5 33zM148.5 -94q19.5 -17 57.5 -17h152q37 0 57 17t20 47q0 31 -20 47.5t-57 16.5h-152
q-38 0 -57.5 -17t-19.5 -47t19.5 -47zM191.5 301.5q29.5 -24.5 75.5 -24.5t75.5 24.5t29.5 70.5t-29.5 70.5t-75.5 24.5t-75.5 -24.5t-29.5 -70.5t29.5 -70.5zM282 761.5q-17 -12.5 -17 -33.5v-6h62v-109h-121v114q0 50 33.5 78.5t87.5 28.5v-60q-28 0 -45 -12.5z" />
    <glyph glyph-name="Hcircumflex" unicode="&#x124;" horiz-adv-x="691" 
d="M64 700h132v-294h299v294h132v-700h-132v299h-299v-299h-132v700zM295 919h102l107 -156h-112l-45 68h-2l-45 -68h-112z" />
    <glyph glyph-name="hcircumflex" unicode="&#x125;" horiz-adv-x="603" 
d="M62 781h126v-224q0 -44 -2 -91h2q23 47 65.5 74t99.5 27q86 0 138 -56.5t52 -155.5v-355h-126v330q0 70 -27.5 103t-76.5 33q-54 0 -89.5 -37t-35.5 -114v-315h-126v781zM74 1000h102l107 -156h-112l-45 68h-2l-45 -68h-112z" />
    <glyph glyph-name="Hbar" unicode="&#x126;" horiz-adv-x="685" 
d="M1 601h69v99h132v-99h299v99h132v-99h51v-97h-51v-504h-132v299h-299v-299h-132v504h-69v97zM501 406v98h-299v-98h299z" />
    <glyph glyph-name="hbar" unicode="&#x127;" horiz-adv-x="603" 
d="M62 609h-88v101h88v71h126v-71h105v-101h-105v-52q0 -44 -2 -91h2q23 47 65.5 74t99.5 27q86 0 138 -56.5t52 -155.5v-355h-126v330q0 70 -27.5 103t-76.5 33q-54 0 -89.5 -37t-35.5 -114v-315h-126v609z" />
    <glyph glyph-name="Itilde" unicode="&#x128;" horiz-adv-x="259" 
d="M64 700h132v-700h-132v700zM159 770.5q-21 11.5 -48 32.5q-17 14 -28.5 21t-23.5 7q-17 0 -28 -14.5t-11 -41.5v-6h-83v21q0 64 32 99t81 35q30 0 52 -11.5t47 -32.5q18 -14 29 -20.5t23 -6.5q17 0 28 14.5t11 40.5v6h83v-21q0 -65 -32 -99.5t-81 -34.5q-30 0 -51 11.5z
" />
    <glyph glyph-name="itilde" unicode="&#x129;" horiz-adv-x="250" 
d="M62 550h126v-550h-126v550zM154 620.5q-21 11.5 -48 32.5q-17 14 -28.5 21t-23.5 7q-17 0 -28 -14.5t-11 -41.5v-6h-83v21q0 64 32 99t81 35q30 0 52 -11.5t47 -32.5q18 -14 29 -20.5t23 -6.5q17 0 28 14.5t11 40.5v6h83v-21q0 -65 -32 -99.5t-81 -34.5q-30 0 -51 11.5z
" />
    <glyph glyph-name="Imacron" unicode="&#x12a;" horiz-adv-x="259" 
d="M64 700h132v-700h-132v700zM-15 885h290v-101h-290v101z" />
    <glyph glyph-name="imacron" unicode="&#x12b;" horiz-adv-x="250" 
d="M62 550h126v-550h-126v550zM-20 735h290v-101h-290v101z" />
    <glyph glyph-name="Ibreve" unicode="&#x12c;" horiz-adv-x="259" 
d="M64 700h132v-700h-132v700zM22 805q-38 42 -38 114h101q0 -68 45 -68t45 68h101q0 -72 -38 -114t-108 -42t-108 42z" />
    <glyph glyph-name="ibreve" unicode="&#x12d;" horiz-adv-x="250" 
d="M62 550h126v-550h-126v550zM17 655q-38 42 -38 114h101q0 -68 45 -68t45 68h101q0 -72 -38 -114t-108 -42t-108 42z" />
    <glyph glyph-name="Iogonek" unicode="&#x12e;" horiz-adv-x="259" 
d="M64 700h132v-700h-9q-18 0 -30.5 -13t-12.5 -32q0 -24 18.5 -38t46.5 -14h13v-93h-29q-67 0 -101.5 27t-34.5 72q0 28 14.5 51.5t41.5 37.5v2h-49v700z" />
    <glyph glyph-name="iogonek" unicode="&#x12f;" horiz-adv-x="250" 
d="M62 550h126v-550h-13q-18 0 -30.5 -13t-12.5 -32q0 -24 18.5 -38t46.5 -14h13v-93h-29q-67 0 -101.5 27t-34.5 72q0 28 14.5 51.5t41.5 37.5v2h-39v550zM60 759h129v-122h-129v122z" />
    <glyph glyph-name="Idotaccent" unicode="&#x130;" horiz-adv-x="259" 
d="M64 700h132v-700h-132v700zM65 909h129v-122h-129v122z" />
    <glyph glyph-name="dotlessi" unicode="&#x131;" horiz-adv-x="250" 
d="M62 550h126v-550h-126v550z" />
    <glyph glyph-name="IJ" unicode="&#x132;" horiz-adv-x="625" 
d="M132.5 51q-68.5 68 -68.5 194h132q0 -78 30.5 -117.5t86.5 -39.5q55 0 86 39.5t31 117.5v455h131v-458q0 -125 -68 -192t-180 -67t-180.5 68zM64 700h132v-367h-132v367z" />
    <glyph glyph-name="ij" unicode="&#x133;" horiz-adv-x="467" 
d="M62 550h126v-550h-126v550zM60 759h129v-122h-129v122zM185 -99h38q27 0 41.5 16.5t14.5 46.5v586h127v-609q0 -60 -40 -100.5t-100 -40.5h-81v101zM278 759h129v-122h-129v122z" />
    <glyph glyph-name="Jcircumflex" unicode="&#x134;" horiz-adv-x="576" 
d="M83 51q-68 68 -68 194h132q0 -78 30.5 -116.5t86.5 -38.5t86.5 38.5t30.5 116.5v455h132v-458q0 -125 -68 -192t-181 -67t-181 68zM394 919h102l107 -156h-112l-45 68h-2l-45 -68h-112z" />
    <glyph glyph-name="jcircumflex" unicode="&#x135;" horiz-adv-x="248" 
d="M-34 -99h38q27 0 41.5 16.5t14.5 46.5v586h127v-609q0 -60 -40 -100.5t-100 -40.5h-81v101zM72 769h102l107 -156h-112l-45 68h-2l-45 -68h-112z" />
    <glyph glyph-name="uni0136" unicode="&#x136;" horiz-adv-x="662" 
d="M64 700h132v-322h2l282 322h167l-269 -298l282 -402h-163l-206 303h-2l-93 -104v-199h-132v700zM309.5 -199.5q16.5 12.5 16.5 34.5v5h-62v110h121v-114q0 -50 -33.5 -79t-87.5 -29v60q29 0 45.5 12.5z" />
    <glyph glyph-name="uni0137" unicode="&#x137;" horiz-adv-x="557" 
d="M62 781h126v-471h2l205 240h152l-200 -225l220 -325h-157l-147 231h-2l-73 -83v-148h-126v781zM267.5 -199.5q16.5 12.5 16.5 34.5v5h-62v110h121v-114q0 -50 -33.5 -79t-87.5 -29v60q29 0 45.5 12.5z" />
    <glyph glyph-name="kgreenlandic" unicode="&#x138;" horiz-adv-x="557" 
d="M62 550h126v-240h2l205 240h152l-200 -225l220 -325h-157l-147 231h-2l-73 -83v-148h-126v550z" />
    <glyph glyph-name="Lacute" unicode="&#x139;" horiz-adv-x="506" 
d="M493 107v-107h-429v700h132v-593h297zM148 919h143l-100 -156h-123z" />
    <glyph glyph-name="lacute" unicode="&#x13a;" horiz-adv-x="250" 
d="M62 781h126v-781h-126v781zM144 1019h143l-100 -156h-123z" />
    <glyph glyph-name="uni013B" unicode="&#x13b;" horiz-adv-x="506" 
d="M493 107v-107h-429v700h132v-593h297zM259.5 -199.5q16.5 12.5 16.5 34.5v5h-62v110h121v-114q0 -50 -33.5 -79t-87.5 -29v60q29 0 45.5 12.5z" />
    <glyph glyph-name="uni013C" unicode="&#x13c;" horiz-adv-x="250" 
d="M62 781h126v-781h-126v781zM109.5 -199.5q16.5 12.5 16.5 34.5v5h-62v110h121v-114q0 -50 -33.5 -79t-87.5 -29v60q29 0 45.5 12.5z" />
    <glyph glyph-name="Lcaron" unicode="&#x13d;" horiz-adv-x="506" 
d="M493 107v-107h-429v700h132v-593h297zM365.5 471q19.5 20 19.5 53v39h-75v137h134v-172q0 -64 -36 -101t-101 -37v61q39 0 58.5 20z" />
    <glyph glyph-name="lcaron" unicode="&#x13e;" horiz-adv-x="395" 
d="M62 781h126v-781h-126v781zM292.5 471q19.5 20 19.5 53v39h-75v137h134v-172q0 -64 -36 -101t-101 -37v61q39 0 58.5 20z" />
    <glyph glyph-name="Ldot" unicode="&#x13f;" horiz-adv-x="506" 
d="M493 107v-107h-429v700h132v-593h297zM313 410h129v-122h-129v122z" />
    <glyph glyph-name="ldot" unicode="&#x140;" horiz-adv-x="378" 
d="M62 781h126v-781h-126v781zM247 410h129v-122h-129v122z" />
    <glyph glyph-name="Lslash" unicode="&#x141;" horiz-adv-x="503" 
d="M3 405l58 19v276h132v-232l123 40v-109l-123 -41v-251h297v-107h-429v314l-58 -19v110z" />
    <glyph glyph-name="lslash" unicode="&#x142;" horiz-adv-x="261" 
d="M194 391v-391h-126v342l-59 -23v111l59 23v328h126v-278l58 23v-112z" />
    <glyph glyph-name="Nacute" unicode="&#x143;" horiz-adv-x="729" 
d="M195 511h-2l1 -120v-391h-130v700h165l306 -508h2l-1 120v388h129v-700h-160zM385 919h143l-100 -156h-123z" />
    <glyph glyph-name="nacute" unicode="&#x144;" horiz-adv-x="603" 
d="M62 550h124v-84h2q25 49 68.5 75t100.5 26q86 0 136 -57.5t50 -164.5v-345h-126v330q0 69 -27.5 102.5t-76.5 33.5q-53 0 -89 -37t-36 -114v-315h-126v550zM320 769h143l-100 -156h-123z" />
    <glyph glyph-name="uni0145" unicode="&#x145;" horiz-adv-x="729" 
d="M195 511h-2l1 -120v-391h-130v700h165l306 -508h2l-1 120v388h129v-700h-160zM351.5 -199.5q16.5 12.5 16.5 34.5v5h-62v110h121v-114q0 -50 -33.5 -79t-87.5 -29v60q29 0 45.5 12.5z" />
    <glyph glyph-name="uni0146" unicode="&#x146;" horiz-adv-x="603" 
d="M62 550h124v-84h2q25 49 68.5 75t100.5 26q86 0 136 -57.5t50 -164.5v-345h-126v330q0 69 -27.5 102.5t-76.5 33.5q-53 0 -89 -37t-36 -114v-315h-126v550zM285.5 -199.5q16.5 12.5 16.5 34.5v5h-62v110h121v-114q0 -50 -33.5 -79t-87.5 -29v60q29 0 45.5 12.5z" />
    <glyph glyph-name="Ncaron" unicode="&#x147;" horiz-adv-x="729" 
d="M195 511h-2l1 -120v-391h-130v700h165l306 -508h2l-1 120v388h129v-700h-160zM208 919h112l45 -58h2l45 58h112l-107 -156h-102z" />
    <glyph glyph-name="ncaron" unicode="&#x148;" horiz-adv-x="603" 
d="M62 550h124v-84h2q25 49 68.5 75t100.5 26q86 0 136 -57.5t50 -164.5v-345h-126v330q0 69 -27.5 102.5t-76.5 33.5q-53 0 -89 -37t-36 -114v-315h-126v550zM143 769h112l45 -58h2l45 58h112l-107 -156h-102z" />
    <glyph glyph-name="napostrophe" unicode="&#x149;" horiz-adv-x="780" 
d="M72.5 471q19.5 20 19.5 53v39h-75v137h134v-172q0 -64 -36 -101t-101 -37v61q39 0 58.5 20zM239 550h124v-84h2q25 49 68.5 75t100.5 26q86 0 136 -57.5t50 -164.5v-345h-126v330q0 69 -27.5 102.5t-76.5 33.5q-53 0 -89 -37t-36 -114v-315h-126v550z" />
    <glyph glyph-name="Eng" unicode="&#x14a;" horiz-adv-x="729" 
d="M445 -99h38q27 0 41.5 16.5t14.5 46.5v37l-344 510h-2l1 -120v-391h-130v700h162l309 -474h2l-1 95v379h129v-753q0 -63 -41.5 -105t-104.5 -42h-74v101z" />
    <glyph glyph-name="eng" unicode="&#x14b;" horiz-adv-x="603" 
d="M323 -99h38q27 0 41.5 16.5t14.5 46.5v366q0 69 -27.5 102t-76.5 33q-53 0 -89 -37t-36 -114v-314h-126v550h124v-85h2q25 49 68.5 75t100.5 26q86 0 136 -57.5t50 -164.5v-403q0 -60 -39.5 -100.5t-100.5 -40.5h-80v101z" />
    <glyph glyph-name="Omacron" unicode="&#x14c;" horiz-adv-x="756" 
d="M202 26q-79 43 -124.5 126t-45.5 198t45.5 198t124.5 126t176 43q98 0 176.5 -43t124 -125.5t45.5 -198.5t-45.5 -198.5t-124 -125.5t-176.5 -43q-97 0 -176 43zM228.5 156q56.5 -66 149.5 -66t149.5 66t56.5 194t-56.5 194t-149.5 66t-149.5 -66t-56.5 -194t56.5 -194z
M233 885h290v-101h-290v101z" />
    <glyph glyph-name="omacron" unicode="&#x14d;" horiz-adv-x="610" 
d="M163 17.5q-63 34.5 -100 100.5t-37 157t37 157t100 100.5t142 34.5t142 -34.5t100 -100.5t37 -157t-37 -157t-100 -100.5t-142 -34.5t-142 34.5zM199.5 132.5q38.5 -49.5 105.5 -49.5t105.5 49.5t38.5 142.5t-38.5 142.5t-105.5 49.5t-105.5 -49.5t-38.5 -142.5
t38.5 -142.5zM160 735h290v-101h-290v101z" />
    <glyph glyph-name="Obreve" unicode="&#x14e;" horiz-adv-x="756" 
d="M202 26q-79 43 -124.5 126t-45.5 198t45.5 198t124.5 126t176 43q98 0 176.5 -43t124 -125.5t45.5 -198.5t-45.5 -198.5t-124 -125.5t-176.5 -43q-97 0 -176 43zM228.5 156q56.5 -66 149.5 -66t149.5 66t56.5 194t-56.5 194t-149.5 66t-149.5 -66t-56.5 -194t56.5 -194z
M270 805q-38 42 -38 114h101q0 -68 45 -68t45 68h101q0 -72 -38 -114t-108 -42t-108 42z" />
    <glyph glyph-name="obreve" unicode="&#x14f;" horiz-adv-x="610" 
d="M163 17.5q-63 34.5 -100 100.5t-37 157t37 157t100 100.5t142 34.5t142 -34.5t100 -100.5t37 -157t-37 -157t-100 -100.5t-142 -34.5t-142 34.5zM199.5 132.5q38.5 -49.5 105.5 -49.5t105.5 49.5t38.5 142.5t-38.5 142.5t-105.5 49.5t-105.5 -49.5t-38.5 -142.5
t38.5 -142.5zM197 655q-38 42 -38 114h101q0 -68 45 -68t45 68h101q0 -72 -38 -114t-108 -42t-108 42z" />
    <glyph glyph-name="Ohungarumlaut" unicode="&#x150;" horiz-adv-x="756" 
d="M202 26q-79 43 -124.5 126t-45.5 198t45.5 198t124.5 126t176 43q98 0 176.5 -43t124 -125.5t45.5 -198.5t-45.5 -198.5t-124 -125.5t-176.5 -43q-97 0 -176 43zM228.5 156q56.5 -66 149.5 -66t149.5 66t56.5 194t-56.5 194t-149.5 66t-149.5 -66t-56.5 -194t56.5 -194z
M490 919h142l-100 -156h-118zM299 919h143l-100 -156h-119z" />
    <glyph glyph-name="ohungarumlaut" unicode="&#x151;" horiz-adv-x="610" 
d="M163 17.5q-63 34.5 -100 100.5t-37 157t37 157t100 100.5t142 34.5t142 -34.5t100 -100.5t37 -157t-37 -157t-100 -100.5t-142 -34.5t-142 34.5zM199.5 132.5q38.5 -49.5 105.5 -49.5t105.5 49.5t38.5 142.5t-38.5 142.5t-105.5 49.5t-105.5 -49.5t-38.5 -142.5
t38.5 -142.5zM417 769h142l-100 -156h-118zM226 769h143l-100 -156h-119z" />
    <glyph glyph-name="OE" unicode="&#x152;" horiz-adv-x="1067" 
d="M194 27q-75 43 -118.5 126t-43.5 197t43.5 197t118.5 126t168 43q70 0 127 -27t93 -79h2v90h460v-103h-330v-193h291v-103h-291v-198h331v-103h-461v90h-2q-36 -52 -93 -79t-127 -27q-93 0 -168 43zM228.5 155.5q56.5 -66.5 148.5 -66.5q91 0 147.5 66.5t56.5 194.5
t-56.5 194t-147.5 66q-92 0 -148.5 -66t-56.5 -194t56.5 -194.5z" />
    <glyph glyph-name="oe" unicode="&#x153;" horiz-adv-x="1003" 
d="M163 18.5q-63 34.5 -100 100t-37 156.5t37 157t100 100t142 34q67 0 120.5 -29.5t86.5 -87.5h2q33 58 85 87.5t120 29.5q75 0 133.5 -31.5t92 -91t33.5 -139.5v-65h-399q4 -74 42.5 -115t97.5 -41q45 0 77.5 23t46.5 63h130q-17 -83 -86.5 -134t-167.5 -51
q-67 0 -119.5 29.5t-84.5 87.5h-2q-35 -58 -88.5 -87.5t-119.5 -29.5q-79 0 -142 34.5zM200 133q39 -50 105 -50t105 50t39 142t-38.5 142t-105.5 50t-105.5 -50t-38.5 -142t39 -142zM853 332q-5 60 -40.5 97.5t-94.5 37.5t-96.5 -38t-42.5 -97h274z" />
    <glyph glyph-name="Racute" unicode="&#x154;" horiz-adv-x="643" 
d="M64 700h294q118 0 184.5 -51.5t66.5 -138.5q0 -69 -42 -116t-120 -62v-2q59 -22 91 -66t52 -119l40 -145h-137l-29 122q-15 62 -34 94t-50 44.5t-85 12.5h-99v-273h-132v700zM308 379q83 0 124 28t41 83q0 50 -34.5 76.5t-102.5 26.5h-140v-214h112zM339 919h143
l-100 -156h-123z" />
    <glyph glyph-name="racute" unicode="&#x155;" horiz-adv-x="385" 
d="M62 550h124v-87h2q21 44 51.5 65.5t82.5 21.5h53v-103h-76q-57 0 -84 -32t-27 -99v-316h-126v550zM228 769h143l-100 -156h-123z" />
    <glyph glyph-name="uni0156" unicode="&#x156;" horiz-adv-x="643" 
d="M64 700h294q118 0 184.5 -51.5t66.5 -138.5q0 -69 -42 -116t-120 -62v-2q59 -22 91 -66t52 -119l40 -145h-137l-29 122q-15 62 -34 94t-50 44.5t-85 12.5h-99v-273h-132v700zM308 379q83 0 124 28t41 83q0 50 -34.5 76.5t-102.5 26.5h-140v-214h112zM312.5 -199.5
q16.5 12.5 16.5 34.5v5h-62v110h121v-114q0 -50 -33.5 -79t-87.5 -29v60q29 0 45.5 12.5z" />
    <glyph glyph-name="uni0157" unicode="&#x157;" horiz-adv-x="385" 
d="M62 550h124v-87h2q21 44 51.5 65.5t82.5 21.5h53v-103h-76q-57 0 -84 -32t-27 -99v-316h-126v550zM109.5 -199.5q16.5 12.5 16.5 34.5v5h-62v110h121v-114q0 -50 -33.5 -79t-87.5 -29v60q29 0 45.5 12.5z" />
    <glyph glyph-name="Rcaron" unicode="&#x158;" horiz-adv-x="643" 
d="M64 700h294q118 0 184.5 -51.5t66.5 -138.5q0 -69 -42 -116t-120 -62v-2q59 -22 91 -66t52 -119l40 -145h-137l-29 122q-15 62 -34 94t-50 44.5t-85 12.5h-99v-273h-132v700zM308 379q83 0 124 28t41 83q0 50 -34.5 76.5t-102.5 26.5h-140v-214h112zM162 919h112l45 -58
h2l45 58h112l-107 -156h-102z" />
    <glyph glyph-name="rcaron" unicode="&#x159;" horiz-adv-x="385" 
d="M62 550h124v-87h2q21 44 51.5 65.5t82.5 21.5h53v-103h-76q-57 0 -84 -32t-27 -99v-316h-126v550zM52 769h112l45 -58h2l45 58h112l-107 -156h-102z" />
    <glyph glyph-name="Sacute" unicode="&#x15a;" horiz-adv-x="658" 
d="M114.5 51.5q-76.5 68.5 -80.5 190.5h138q3 -75 45 -113.5t117 -38.5q70 0 110.5 32t40.5 88q0 95 -124 95h-89q-112 0 -170 52t-58 139q0 67 33.5 116.5t97.5 77t153 27.5q138 0 210 -65.5t75 -179.5h-135q-6 138 -151 138q-69 0 -108 -28.5t-39 -78.5q0 -40 27.5 -63.5
t88.5 -23.5h89q124 0 181 -55.5t57 -143.5q0 -71 -34.5 -123.5t-100.5 -81.5t-156 -29q-141 0 -217.5 68.5zM347 919h143l-100 -156h-123z" />
    <glyph glyph-name="sacute" unicode="&#x15b;" horiz-adv-x="541" 
d="M96 36.5q-63 53.5 -66 145.5h130q2 -50 31.5 -74.5t80.5 -24.5q50 0 77.5 22t27.5 59q0 69 -95 69h-60q-85 0 -133.5 42.5t-48.5 113.5q0 80 61.5 129t167.5 49q109 0 169.5 -52.5t63.5 -142.5h-129q-5 95 -104 95q-45 0 -71 -19.5t-26 -53.5q0 -30 21.5 -45.5
t60.5 -15.5h66q94 0 143 -46t49 -118q0 -84 -63.5 -135t-175.5 -51q-114 0 -177 53.5zM289 769h143l-100 -156h-123z" />
    <glyph glyph-name="Scircumflex" unicode="&#x15c;" horiz-adv-x="658" 
d="M114.5 51.5q-76.5 68.5 -80.5 190.5h138q3 -75 45 -113.5t117 -38.5q70 0 110.5 32t40.5 88q0 95 -124 95h-89q-112 0 -170 52t-58 139q0 67 33.5 116.5t97.5 77t153 27.5q138 0 210 -65.5t75 -179.5h-135q-6 138 -151 138q-69 0 -108 -28.5t-39 -78.5q0 -40 27.5 -63.5
t88.5 -23.5h89q124 0 181 -55.5t57 -143.5q0 -71 -34.5 -123.5t-100.5 -81.5t-156 -29q-141 0 -217.5 68.5zM277 919h102l107 -156h-112l-45 68h-2l-45 -68h-112z" />
    <glyph glyph-name="scircumflex" unicode="&#x15d;" horiz-adv-x="541" 
d="M96 36.5q-63 53.5 -66 145.5h130q2 -50 31.5 -74.5t80.5 -24.5q50 0 77.5 22t27.5 59q0 69 -95 69h-60q-85 0 -133.5 42.5t-48.5 113.5q0 80 61.5 129t167.5 49q109 0 169.5 -52.5t63.5 -142.5h-129q-5 95 -104 95q-45 0 -71 -19.5t-26 -53.5q0 -30 21.5 -45.5
t60.5 -15.5h66q94 0 143 -46t49 -118q0 -84 -63.5 -135t-175.5 -51q-114 0 -177 53.5zM219 769h102l107 -156h-112l-45 68h-2l-45 -68h-112z" />
    <glyph glyph-name="Scedilla" unicode="&#x15e;" horiz-adv-x="658" 
d="M241 -194v80h76q10 0 17.5 5.5t7.5 15.5q0 9 -7.5 15t-17.5 6h-28v57q-121 10 -186 77.5t-69 179.5h138q3 -75 45 -113.5t117 -38.5q70 0 110.5 32t40.5 88q0 95 -124 95h-89q-112 0 -170 52t-58 139q0 67 33.5 116.5t97.5 77t153 27.5q138 0 210 -65.5t75 -179.5h-135
q-6 138 -151 138q-69 0 -108 -28.5t-39 -78.5q0 -40 27.5 -63.5t88.5 -23.5h89q124 0 181 -55.5t57 -143.5q0 -100 -68 -162.5t-190 -70.5v-21q36 -4 55.5 -23t19.5 -51q0 -37 -25 -60t-69 -23h-105z" />
    <glyph glyph-name="scedilla" unicode="&#x15f;" horiz-adv-x="541" 
d="M182 -194v80h76q10 0 17.5 5.5t7.5 15.5q0 9 -7.5 15t-17.5 6h-28v57q-94 10 -145.5 62t-54.5 135h130q2 -50 31.5 -74.5t80.5 -24.5q50 0 77.5 22t27.5 59q0 69 -95 69h-60q-85 0 -133.5 42.5t-48.5 113.5q0 80 61.5 129t167.5 49q109 0 169.5 -52.5t63.5 -142.5h-129
q-5 95 -104 95q-45 0 -71 -19.5t-26 -53.5q0 -30 21.5 -45.5t60.5 -15.5h66q94 0 143 -46t49 -118q0 -77 -54 -127t-152 -58v-21q36 -4 55.5 -23t19.5 -51q0 -37 -25 -60t-69 -23h-105z" />
    <glyph glyph-name="Scaron" unicode="&#x160;" horiz-adv-x="658" 
d="M114.5 51.5q-76.5 68.5 -80.5 190.5h138q3 -75 45 -113.5t117 -38.5q70 0 110.5 32t40.5 88q0 95 -124 95h-89q-112 0 -170 52t-58 139q0 67 33.5 116.5t97.5 77t153 27.5q138 0 210 -65.5t75 -179.5h-135q-6 138 -151 138q-69 0 -108 -28.5t-39 -78.5q0 -40 27.5 -63.5
t88.5 -23.5h89q124 0 181 -55.5t57 -143.5q0 -71 -34.5 -123.5t-100.5 -81.5t-156 -29q-141 0 -217.5 68.5zM170 919h112l45 -58h2l45 58h112l-107 -156h-102z" />
    <glyph glyph-name="scaron" unicode="&#x161;" horiz-adv-x="541" 
d="M96 36.5q-63 53.5 -66 145.5h130q2 -50 31.5 -74.5t80.5 -24.5q50 0 77.5 22t27.5 59q0 69 -95 69h-60q-85 0 -133.5 42.5t-48.5 113.5q0 80 61.5 129t167.5 49q109 0 169.5 -52.5t63.5 -142.5h-129q-5 95 -104 95q-45 0 -71 -19.5t-26 -53.5q0 -30 21.5 -45.5
t60.5 -15.5h66q94 0 143 -46t49 -118q0 -84 -63.5 -135t-175.5 -51q-114 0 -177 53.5zM112 769h112l45 -58h2l45 58h112l-107 -156h-102z" />
    <glyph glyph-name="uni0162" unicode="&#x162;" horiz-adv-x="615" 
d="M242 593h-229v107h589v-107h-228v-593h-29v-37q36 -4 55.5 -23t19.5 -51q0 -37 -25 -60t-69 -23h-105v80h76q10 0 17.5 5.5t7.5 15.5q0 9 -7.5 15t-17.5 6h-28v72h-27v593z" />
    <glyph glyph-name="uni0163" unicode="&#x163;" horiz-adv-x="432" 
d="M14 550h106v150h127v-150h166v-103h-166v-279q0 -34 16.5 -49.5t49.5 -15.5h103v-103h-110v-37q36 -4 55.5 -23t19.5 -51q0 -37 -25 -60t-69 -23h-105v80h76q10 0 17.5 5.5t7.5 15.5q0 9 -7.5 15t-17.5 6h-28v75q-54 9 -82 46t-28 100v298h-106v103z" />
    <glyph glyph-name="Tcaron" unicode="&#x164;" horiz-adv-x="615" 
d="M242 593h-229v107h589v-107h-228v-593h-132v593zM150 919h112l45 -58h2l45 58h112l-107 -156h-102z" />
    <glyph glyph-name="tcaron" unicode="&#x165;" horiz-adv-x="455" 
d="M342.5 664.5q19.5 16.5 19.5 43.5v4h-74v115h134v-115q0 -58 -36 -91.5t-102 -33.5v61q39 0 58.5 16.5zM14 550h106v150h127v-150h166v-103h-166v-279q0 -34 16.5 -49.5t49.5 -15.5h103v-103h-146q-150 0 -150 149v298h-106v103z" />
    <glyph glyph-name="Tbar" unicode="&#x166;" horiz-adv-x="615" 
d="M100 381h142v212h-229v107h589v-107h-228v-212h136v-99h-136v-282h-132v282h-142v99z" />
    <glyph glyph-name="tbar" unicode="&#x167;" horiz-adv-x="432" 
d="M18 337h102v110h-106v103h106v150h127v-150h166v-103h-166v-110h150v-100h-150v-69q0 -34 16.5 -49.5t49.5 -15.5h103v-103h-146q-150 0 -150 149v88h-102v100z" />
    <glyph glyph-name="Utilde" unicode="&#x168;" horiz-adv-x="695" 
d="M202 15.5q-64 32.5 -101 95.5t-37 150v439h132v-434q0 -84 41.5 -130t109.5 -46t110 45.5t42 130.5v434h132v-439q0 -87 -37 -150t-101.5 -95.5t-145.5 -32.5t-145 32.5zM376 770.5q-21 11.5 -48 32.5q-17 14 -28.5 21t-23.5 7q-17 0 -28 -14.5t-11 -41.5v-6h-83v21
q0 64 32 99t81 35q30 0 52 -11.5t47 -32.5q18 -14 29 -20.5t23 -6.5q17 0 28 14.5t11 40.5v6h83v-21q0 -65 -32 -99.5t-81 -34.5q-30 0 -51 11.5z" />
    <glyph glyph-name="utilde" unicode="&#x169;" 
d="M107.5 40.5q-50.5 57.5 -50.5 164.5v345h126v-330q0 -70 27.5 -103t76.5 -33q53 0 88.5 37t35.5 114v315h126v-550h-124v84h-2q-24 -50 -67 -75.5t-99 -25.5q-87 0 -137.5 57.5zM327 620.5q-21 11.5 -48 32.5q-17 14 -28.5 21t-23.5 7q-17 0 -28 -14.5t-11 -41.5v-6h-83
v21q0 64 32 99t81 35q30 0 52 -11.5t47 -32.5q18 -14 29 -20.5t23 -6.5q17 0 28 14.5t11 40.5v6h83v-21q0 -65 -32 -99.5t-81 -34.5q-30 0 -51 11.5z" />
    <glyph glyph-name="Umacron" unicode="&#x16a;" horiz-adv-x="695" 
d="M202 15.5q-64 32.5 -101 95.5t-37 150v439h132v-434q0 -84 41.5 -130t109.5 -46t110 45.5t42 130.5v434h132v-439q0 -87 -37 -150t-101.5 -95.5t-145.5 -32.5t-145 32.5zM202 885h290v-101h-290v101z" />
    <glyph glyph-name="umacron" unicode="&#x16b;" 
d="M107.5 40.5q-50.5 57.5 -50.5 164.5v345h126v-330q0 -70 27.5 -103t76.5 -33q53 0 88.5 37t35.5 114v315h126v-550h-124v84h-2q-24 -50 -67 -75.5t-99 -25.5q-87 0 -137.5 57.5zM153 735h290v-101h-290v101z" />
    <glyph glyph-name="Ubreve" unicode="&#x16c;" horiz-adv-x="695" 
d="M202 15.5q-64 32.5 -101 95.5t-37 150v439h132v-434q0 -84 41.5 -130t109.5 -46t110 45.5t42 130.5v434h132v-439q0 -87 -37 -150t-101.5 -95.5t-145.5 -32.5t-145 32.5zM239 805q-38 42 -38 114h101q0 -68 45 -68t45 68h101q0 -72 -38 -114t-108 -42t-108 42z" />
    <glyph glyph-name="ubreve" unicode="&#x16d;" 
d="M107.5 40.5q-50.5 57.5 -50.5 164.5v345h126v-330q0 -70 27.5 -103t76.5 -33q53 0 88.5 37t35.5 114v315h126v-550h-124v84h-2q-24 -50 -67 -75.5t-99 -25.5q-87 0 -137.5 57.5zM190 655q-38 42 -38 114h101q0 -68 45 -68t45 68h101q0 -72 -38 -114t-108 -42t-108 42z
" />
    <glyph glyph-name="Uring" unicode="&#x16e;" horiz-adv-x="695" 
d="M202 15.5q-64 32.5 -101 95.5t-37 150v439h132v-434q0 -84 41.5 -130t109.5 -46t110 45.5t42 130.5v434h132v-439q0 -87 -37 -150t-101.5 -95.5t-145.5 -32.5t-145 32.5zM277.5 781q-27.5 27 -27.5 68q0 40 27.5 68t69.5 28q41 0 69 -28t28 -68t-28 -67.5t-69 -27.5
q-42 0 -69.5 27zM326 826.5q8 -8.5 21 -8.5t21 8.5t8 22.5t-8 23t-21 9t-21 -9t-8 -23t8 -22.5z" />
    <glyph glyph-name="uring" unicode="&#x16f;" 
d="M107.5 40.5q-50.5 57.5 -50.5 164.5v345h126v-330q0 -70 27.5 -103t76.5 -33q53 0 88.5 37t35.5 114v315h126v-550h-124v84h-2q-24 -50 -67 -75.5t-99 -25.5q-87 0 -137.5 57.5zM228.5 631q-27.5 27 -27.5 68q0 40 27.5 68t69.5 28q41 0 69 -28t28 -68t-28 -67.5
t-69 -27.5q-42 0 -69.5 27zM277 676.5q8 -8.5 21 -8.5t21 8.5t8 22.5t-8 23t-21 9t-21 -9t-8 -23t8 -22.5z" />
    <glyph glyph-name="Uhungarumlaut" unicode="&#x170;" horiz-adv-x="695" 
d="M202 15.5q-64 32.5 -101 95.5t-37 150v439h132v-434q0 -84 41.5 -130t109.5 -46t110 45.5t42 130.5v434h132v-439q0 -87 -37 -150t-101.5 -95.5t-145.5 -32.5t-145 32.5zM459 919h142l-100 -156h-118zM268 919h143l-100 -156h-119z" />
    <glyph glyph-name="uhungarumlaut" unicode="&#x171;" 
d="M107.5 40.5q-50.5 57.5 -50.5 164.5v345h126v-330q0 -70 27.5 -103t76.5 -33q53 0 88.5 37t35.5 114v315h126v-550h-124v84h-2q-24 -50 -67 -75.5t-99 -25.5q-87 0 -137.5 57.5zM410 769h142l-100 -156h-118zM219 769h143l-100 -156h-119z" />
    <glyph glyph-name="Uogonek" unicode="&#x172;" horiz-adv-x="695" 
d="M457 -163q-36 27 -36 77q0 46 31 84v1q-47 -16 -105 -16q-81 0 -145 32.5t-101 95.5t-37 150v439h132v-434q0 -84 41.5 -130t109.5 -46t110 45.5t42 130.5v434h132v-439q0 -76 -28 -133.5t-79 -92.5q-27 -30 -27 -68q0 -30 18.5 -47t50.5 -17h18v-93h-27q-64 0 -100 27z
" />
    <glyph glyph-name="uogonek" unicode="&#x173;" 
d="M107.5 40.5q-50.5 57.5 -50.5 164.5v345h126v-330q0 -70 27.5 -103t76.5 -33q53 0 88.5 37t35.5 114v315h126v-550h-2q-18 0 -30.5 -13t-12.5 -32q0 -24 18.5 -38t46.5 -14h13v-93h-29q-67 0 -101.5 27t-34.5 72q0 28 14.5 51.5t41.5 37.5v2h-48v84h-2q-24 -50 -67 -75.5
t-99 -25.5q-87 0 -137.5 57.5z" />
    <glyph glyph-name="Wcircumflex" unicode="&#x174;" horiz-adv-x="935" 
d="M10 700h136l127 -514h2l118 514h150l117 -514h2l127 514h136l-187 -700h-149l-122 537h-2l-120 -537h-148zM417 919h102l107 -156h-112l-45 68h-2l-45 -68h-112z" />
    <glyph glyph-name="wcircumflex" unicode="&#x175;" horiz-adv-x="774" 
d="M8 550h132l92 -388h2l86 388h134l86 -388h2l92 388h132l-156 -550h-134l-89 366h-2l-89 -366h-136zM336 769h102l107 -156h-112l-45 68h-2l-45 -68h-112z" />
    <glyph glyph-name="Ycircumflex" unicode="&#x176;" horiz-adv-x="642" 
d="M254 278l-244 422h151l159 -298h2l159 298h151l-246 -422v-278h-132v278zM270 919h102l107 -156h-112l-45 68h-2l-45 -68h-112z" />
    <glyph glyph-name="ycircumflex" unicode="&#x177;" horiz-adv-x="567" 
d="M8 -97h156l54 127l-210 520h137l138 -366h2l139 366h135l-285 -708q-16 -42 -62 -42h-204v103zM233 769h102l107 -156h-112l-45 68h-2l-45 -68h-112z" />
    <glyph glyph-name="Ydieresis" unicode="&#x178;" horiz-adv-x="642" 
d="M254 278l-244 422h151l159 -298h2l159 298h151l-246 -422v-278h-132v278zM172 909h122v-122h-122v122zM348 909h122v-122h-122v122z" />
    <glyph glyph-name="Zacute" unicode="&#x179;" horiz-adv-x="587" 
d="M16 104l370 485v2h-360v109h535v-99l-370 -485v-2h380v-114h-555v104zM316 919h143l-100 -156h-123z" />
    <glyph glyph-name="zacute" unicode="&#x17a;" horiz-adv-x="505" 
d="M16 93l283 355v2h-263v100h431v-91l-282 -355v-2h304v-102h-473v93zM272 769h143l-100 -156h-123z" />
    <glyph glyph-name="Zdotaccent" unicode="&#x17b;" horiz-adv-x="587" 
d="M16 104l370 485v2h-360v109h535v-99l-370 -485v-2h380v-114h-555v104zM233 909h129v-122h-129v122z" />
    <glyph glyph-name="zdotaccent" unicode="&#x17c;" horiz-adv-x="505" 
d="M16 93l283 355v2h-263v100h431v-91l-282 -355v-2h304v-102h-473v93zM188 759h129v-122h-129v122z" />
    <glyph glyph-name="Zcaron" unicode="&#x17d;" horiz-adv-x="587" 
d="M16 104l370 485v2h-360v109h535v-99l-370 -485v-2h380v-114h-555v104zM140 919h112l45 -58h2l45 58h112l-107 -156h-102z" />
    <glyph glyph-name="zcaron" unicode="&#x17e;" horiz-adv-x="505" 
d="M16 93l283 355v2h-263v100h431v-91l-282 -355v-2h304v-102h-473v93zM95 769h112l45 -58h2l45 58h112l-107 -156h-102z" />
    <glyph glyph-name="longs" unicode="&#x17f;" horiz-adv-x="354" 
d="M85 447h-82v103h82v56q0 84 44.5 129.5t131.5 45.5h91v-102h-61q-38 0 -59 -20t-21 -68v-591h-126v447z" />
    <glyph glyph-name="uni018F" unicode="&#x18f;" horiz-adv-x="740" 
d="M195 23q-76 39 -119.5 115.5t-43.5 184.5v70h536q-5 103 -58 160t-144 57q-70 0 -120.5 -34t-69.5 -92h-138q14 68 60 121t115 82.5t151 29.5q103 0 181 -45t120.5 -128.5t42.5 -193.5q0 -111 -43 -194t-120.5 -127.5t-178.5 -44.5q-95 0 -171 39zM219 144.5
q53 -54.5 147 -54.5q92 0 142 52t58 145h-400q0 -88 53 -142.5z" />
    <glyph glyph-name="florin" unicode="&#x192;" horiz-adv-x="698" 
d="M26 -101h77q47 0 72.5 20t38.5 67l92 335h-140v103h168l30 109q25 91 71 129t130 38h107v-103h-75q-47 0 -72 -20t-39 -67l-24 -86h162v-103h-190l-97 -354q-25 -91 -71 -129t-130 -38h-110v99z" />
    <glyph glyph-name="uni019D" unicode="&#x19d;" horiz-adv-x="729" 
d="M-30 -99h38q27 0 41.5 16.5t14.5 46.5v736h165l306 -508h2l-1 120v388h129v-700h-160l-310 511h-2l1 -120v-450q0 -60 -40 -100.5t-100 -40.5h-84v101z" />
    <glyph glyph-name="uni01B7" unicode="&#x1b7;" horiz-adv-x="608" 
d="M107.5 44q-73.5 61 -74.5 173h138q0 -65 37 -99.5t97 -34.5t96.5 33t36.5 91q0 56 -35.5 88t-102.5 32h-98v99l186 169v2h-320v103h477v-101l-194 -175v-2q110 -9 167 -68.5t57 -146.5q0 -67 -33 -117.5t-94 -78.5t-143 -28q-124 0 -197.5 61z" />
    <glyph glyph-name="uni01CF" unicode="&#x1cf;" horiz-adv-x="259" 
d="M64 700h132v-700h-132v700zM-28 919h112l45 -58h2l45 58h112l-107 -156h-102z" />
    <glyph glyph-name="uni01D0" unicode="&#x1d0;" horiz-adv-x="250" 
d="M62 550h126v-550h-126v550zM-33 769h112l45 -58h2l45 58h112l-107 -156h-102z" />
    <glyph glyph-name="uni01D1" unicode="&#x1d1;" horiz-adv-x="756" 
d="M202 26q-79 43 -124.5 126t-45.5 198t45.5 198t124.5 126t176 43q98 0 176.5 -43t124 -125.5t45.5 -198.5t-45.5 -198.5t-124 -125.5t-176.5 -43q-97 0 -176 43zM228.5 156q56.5 -66 149.5 -66t149.5 66t56.5 194t-56.5 194t-149.5 66t-149.5 -66t-56.5 -194t56.5 -194z
M220 919h112l45 -58h2l45 58h112l-107 -156h-102z" />
    <glyph glyph-name="uni01D2" unicode="&#x1d2;" horiz-adv-x="610" 
d="M163 17.5q-63 34.5 -100 100.5t-37 157t37 157t100 100.5t142 34.5t142 -34.5t100 -100.5t37 -157t-37 -157t-100 -100.5t-142 -34.5t-142 34.5zM199.5 132.5q38.5 -49.5 105.5 -49.5t105.5 49.5t38.5 142.5t-38.5 142.5t-105.5 49.5t-105.5 -49.5t-38.5 -142.5
t38.5 -142.5zM147 769h112l45 -58h2l45 58h112l-107 -156h-102z" />
    <glyph glyph-name="uni01D3" unicode="&#x1d3;" horiz-adv-x="695" 
d="M202 15.5q-64 32.5 -101 95.5t-37 150v439h132v-434q0 -84 41.5 -130t109.5 -46t110 45.5t42 130.5v434h132v-439q0 -87 -37 -150t-101.5 -95.5t-145.5 -32.5t-145 32.5zM189 919h112l45 -58h2l45 58h112l-107 -156h-102z" />
    <glyph glyph-name="uni01D4" unicode="&#x1d4;" 
d="M107.5 40.5q-50.5 57.5 -50.5 164.5v345h126v-330q0 -70 27.5 -103t76.5 -33q53 0 88.5 37t35.5 114v315h126v-550h-124v84h-2q-24 -50 -67 -75.5t-99 -25.5q-87 0 -137.5 57.5zM140 769h112l45 -58h2l45 58h112l-107 -156h-102z" />
    <glyph glyph-name="uni01E4" unicode="&#x1e4;" horiz-adv-x="754" 
d="M189.5 28.5q-74.5 45.5 -116 129t-41.5 193.5q0 108 41.5 191t121 129t189.5 46q94 0 162 -32.5t106.5 -88t45.5 -124.5h-135q-8 60 -55 99t-124 39q-99 0 -155.5 -68.5t-56.5 -190.5q0 -125 59 -193t157 -68q59 0 106.5 25t74.5 73h-199v82h226q4 20 4 48h-234v84h279
q26 0 40.5 -14t14.5 -39v-79h50v-82h-50v-188h-117l17 129h-2q-31 -71 -92 -108.5t-147 -37.5q-95 0 -169.5 45.5z" />
    <glyph glyph-name="uni01E5" unicode="&#x1e5;" horiz-adv-x="570" 
d="M63.5 -167q-41.5 33 -41.5 86q0 41 24 70.5t69 39.5v2q-31 12 -48.5 36.5t-17.5 57.5q0 38 23 62.5t59 29.5l13 2v2q-48 20 -75 60.5t-27 96.5q0 59 30 101.5t81.5 65t113.5 22.5q60 0 110.5 -22t80.5 -62h2q2 32 19.5 49.5t48.5 17.5h25v-82h-42q-16 0 -22 -7t-7 -23
q3 -8 7 -26h64v-80h-66q-16 -67 -75.5 -105.5t-140.5 -38.5h-63q-49 0 -49 -35q0 -17 12.5 -26.5t36.5 -9.5h169q86 0 134 -42.5t48 -115.5t-48 -116t-134 -43h-193q-79 0 -120.5 33zM148.5 -94q19.5 -17 57.5 -17h152q37 0 57 17t20 47q0 31 -20 47.5t-57 16.5h-152
q-38 0 -57.5 -17t-19.5 -47t19.5 -47zM190.5 295q28.5 -26 76.5 -26q36 0 62.5 16t36.5 47h-99v80h99q-10 31 -36.5 47t-62.5 16q-48 0 -76.5 -26t-28.5 -77t28.5 -77z" />
    <glyph glyph-name="Gcaron" unicode="&#x1e6;" horiz-adv-x="753" 
d="M191.5 28.5q-74.5 45.5 -117 129.5t-42.5 193q0 108 41.5 191t119 129t183.5 46q96 0 168 -38t111 -103t43 -144h-135q-2 50 -25 90.5t-65 64t-97 23.5q-95 0 -149.5 -68.5t-54.5 -190.5q0 -82 26.5 -141t73.5 -89.5t107 -30.5q54 0 95.5 22.5t66.5 59t31 77.5h-206v102
h279q26 0 40.5 -14t14.5 -39v-298h-117l17 129h-2q-31 -71 -92 -108.5t-146 -37.5q-94 0 -168.5 45.5zM216 919h112l45 -58h2l45 58h112l-107 -156h-102z" />
    <glyph glyph-name="gcaron" unicode="&#x1e7;" horiz-adv-x="570" 
d="M63.5 -167q-41.5 33 -41.5 86q0 41 24 70.5t69 39.5v2q-31 12 -48.5 36.5t-17.5 57.5q0 38 23 62.5t59 29.5l13 2v2q-48 20 -75 60.5t-27 96.5q0 59 30 101.5t81.5 65t113.5 22.5q60 0 110.5 -22t80.5 -62h2q2 32 19.5 49.5t48.5 17.5h25v-103h-39q-13 0 -19.5 -5
t-8.5 -16q6 -22 6 -48q0 -58 -29 -101t-79.5 -66t-112.5 -23h-63q-49 0 -49 -35q0 -17 12.5 -26.5t36.5 -9.5h169q86 0 134 -42.5t48 -115.5t-48 -116t-134 -43h-193q-79 0 -120.5 33zM148.5 -94q19.5 -17 57.5 -17h152q37 0 57 17t20 47q0 31 -20 47.5t-57 16.5h-152
q-38 0 -57.5 -17t-19.5 -47t19.5 -47zM191.5 301.5q29.5 -24.5 75.5 -24.5t75.5 24.5t29.5 70.5t-29.5 70.5t-75.5 24.5t-75.5 -24.5t-29.5 -70.5t29.5 -70.5zM109 769h112l45 -58h2l45 58h112l-107 -156h-102z" />
    <glyph glyph-name="uni01EA" unicode="&#x1ea;" horiz-adv-x="756" 
d="M507 -163q-36 27 -36 77q0 49 33 88v1q-60 -20 -126 -20q-97 0 -176 43t-124.5 126t-45.5 198t45.5 198t124.5 126t176 43q98 0 176.5 -43t124 -125.5t45.5 -198.5q0 -105 -38 -183.5t-105 -124.5q-35 -33 -35 -75q0 -30 19 -47t50 -17h19v-93h-27q-64 0 -100 27z
M228.5 156q56.5 -66 149.5 -66t149.5 66t56.5 194t-56.5 194t-149.5 66t-149.5 -66t-56.5 -194t56.5 -194z" />
    <glyph glyph-name="uni01EB" unicode="&#x1eb;" horiz-adv-x="610" 
d="M410.5 -162.5q-37.5 27.5 -37.5 75.5q0 43 31 85v1q-45 -16 -99 -16q-79 0 -142 34.5t-100 100.5t-37 157t37 157t100 100.5t142 34.5t142 -34.5t100 -100.5t37 -157q0 -78 -26.5 -137t-75.5 -97q-38 -36 -38 -77q0 -29 19.5 -45t50.5 -16h13v-93h-14q-65 0 -102.5 27.5z
M199.5 132.5q38.5 -49.5 105.5 -49.5t105.5 49.5t38.5 142.5t-38.5 142.5t-105.5 49.5t-105.5 -49.5t-38.5 -142.5t38.5 -142.5z" />
    <glyph glyph-name="AEacute" unicode="&#x1fc;" horiz-adv-x="947" 
d="M467 175h-246l-73 -175h-133l306 700h603v-103h-325v-193h286v-103h-286v-198h326v-103h-458v175zM467 278v319h-69l-134 -319h203zM555 919h143l-100 -156h-123z" />
    <glyph glyph-name="aeacute" unicode="&#x1fd;" horiz-adv-x="959" 
d="M87 28q-57 45 -57 132q0 88 58 130.5t148 42.5h95q39 0 59.5 15.5t20.5 44.5q0 36 -29.5 55t-75.5 19q-53 0 -87.5 -25.5t-36.5 -69.5h-134q6 90 70 142.5t175 52.5q145 0 189 -99h2q30 49 80.5 74t115.5 25q73 0 130 -31.5t89.5 -92.5t32.5 -147v-57h-396q4 -72 41 -114
t100 -42q45 0 75.5 23t44.5 63h130q-17 -83 -85.5 -134.5t-163.5 -51.5q-77 0 -139 36t-91 107h-2q-27 -68 -85 -105.5t-133 -37.5q-84 0 -141 45zM190.5 107q25.5 -22 72.5 -22q62 0 105 41t43 120v51h-2q-13 -26 -38.5 -39t-67.5 -14l-47 -2q-44 -1 -67.5 -22.5
t-23.5 -54.5q0 -36 25.5 -58zM805 330q-1 62 -34 99.5t-93 37.5q-61 0 -98 -38t-43 -99h268zM499 769h143l-100 -156h-123z" />
    <glyph glyph-name="Oslashacute" unicode="&#x1fe;" horiz-adv-x="758" 
d="M642 605q40 -47 62 -111.5t22 -143.5q0 -116 -45.5 -198.5t-124 -125.5t-176.5 -43q-118 0 -204 60l-36 -43h-108v2l82 99q-38 46 -59 109t-21 140q0 115 45.5 198t124.5 126t176 43q115 0 199 -57l33 40h107v-2zM201 205l303 364q-50 41 -124 41q-93 0 -149.5 -66
t-56.5 -194q0 -85 27 -145zM380 90q93 0 149.5 66t56.5 194q0 89 -30 152l-304 -367q51 -45 128 -45zM398 919h143l-100 -156h-123z" />
    <glyph glyph-name="oslashacute" unicode="&#x1ff;" horiz-adv-x="612" 
d="M32 2l61 75q-65 76 -65 198q0 91 37 157t100 100.5t142 34.5q86 0 153 -41l19 24h98v-2l-58 -72q67 -77 67 -201q0 -91 -37 -157t-100 -100.5t-142 -34.5q-89 0 -155 42l-21 -25h-99v2zM177 180l213 261q-35 26 -83 26q-67 0 -105.5 -49.5t-38.5 -142.5q0 -55 14 -95z
M307 83q67 0 105.5 49.5t38.5 142.5q0 59 -15 99l-214 -263q36 -28 85 -28zM326 769h143l-100 -156h-123z" />
    <glyph glyph-name="uni0218" unicode="&#x218;" horiz-adv-x="658" 
d="M114.5 51.5q-76.5 68.5 -80.5 190.5h138q3 -75 45 -113.5t117 -38.5q70 0 110.5 32t40.5 88q0 95 -124 95h-89q-112 0 -170 52t-58 139q0 67 33.5 116.5t97.5 77t153 27.5q138 0 210 -65.5t75 -179.5h-135q-6 138 -151 138q-69 0 -108 -28.5t-39 -78.5q0 -40 27.5 -63.5
t88.5 -23.5h89q124 0 181 -55.5t57 -143.5q0 -71 -34.5 -123.5t-100.5 -81.5t-156 -29q-141 0 -217.5 68.5zM312.5 -199.5q16.5 12.5 16.5 34.5v5h-62v110h121v-114q0 -50 -33.5 -79t-87.5 -29v60q29 0 45.5 12.5z" />
    <glyph glyph-name="uni0219" unicode="&#x219;" horiz-adv-x="541" 
d="M96 36.5q-63 53.5 -66 145.5h130q2 -50 31.5 -74.5t80.5 -24.5q50 0 77.5 22t27.5 59q0 69 -95 69h-60q-85 0 -133.5 42.5t-48.5 113.5q0 80 61.5 129t167.5 49q109 0 169.5 -52.5t63.5 -142.5h-129q-5 95 -104 95q-45 0 -71 -19.5t-26 -53.5q0 -30 21.5 -45.5
t60.5 -15.5h66q94 0 143 -46t49 -118q0 -84 -63.5 -135t-175.5 -51q-114 0 -177 53.5zM254.5 -199.5q16.5 12.5 16.5 34.5v5h-62v110h121v-114q0 -50 -33.5 -79t-87.5 -29v60q29 0 45.5 12.5z" />
    <glyph glyph-name="uni021A" unicode="&#x21a;" horiz-adv-x="615" 
d="M242 593h-229v107h589v-107h-228v-593h-132v593zM292.5 -199.5q16.5 12.5 16.5 34.5v5h-62v110h121v-114q0 -50 -33.5 -79t-87.5 -29v60q29 0 45.5 12.5z" />
    <glyph glyph-name="uni021B" unicode="&#x21b;" horiz-adv-x="432" 
d="M120 149v298h-106v103h106v150h127v-150h166v-103h-166v-279q0 -34 16.5 -49.5t49.5 -15.5h103v-103h-146q-150 0 -150 149zM253.5 -199.5q16.5 12.5 16.5 34.5v5h-62v110h121v-114q0 -50 -33.5 -79t-87.5 -29v60q29 0 45.5 12.5z" />
    <glyph glyph-name="uni0232" unicode="&#x232;" horiz-adv-x="642" 
d="M254 278l-244 422h151l159 -298h2l159 298h151l-246 -422v-278h-132v278zM176 885h290v-101h-290v101z" />
    <glyph glyph-name="uni0233" unicode="&#x233;" horiz-adv-x="567" 
d="M8 -97h156l54 127l-210 520h137l138 -366h2l139 366h135l-285 -708q-16 -42 -62 -42h-204v103zM139 735h290v-101h-290v101z" />
    <glyph glyph-name="uni0237" unicode="&#x237;" horiz-adv-x="248" 
d="M-34 -99h38q27 0 41.5 16.5t14.5 46.5v586h127v-609q0 -60 -40 -100.5t-100 -40.5h-81v101z" />
    <glyph glyph-name="uni0259" unicode="&#x259;" horiz-adv-x="589" 
d="M154.5 15.5q-59.5 31.5 -94 92t-34.5 146.5v57h403q-4 71 -41 113.5t-99 42.5q-46 0 -80 -23.5t-47 -62.5h-131q11 55 47.5 96.5t91 65t119.5 23.5q82 0 143.5 -36t95.5 -101.5t34 -153.5t-34 -154t-95.5 -101.5t-142.5 -35.5q-76 0 -135.5 31.5zM190 121q36 -38 99 -38
q62 0 97 38t41 99h-273q0 -61 36 -99z" />
    <glyph glyph-name="uni0272" unicode="&#x272;" horiz-adv-x="603" 
d="M-32 -99h38q27 0 41.5 16.5t14.5 46.5v586h124v-85h2q25 49 68.5 75t100.5 26q86 0 136 -57.5t50 -164.5v-344h-126v330q0 69 -27.5 102t-76.5 33q-53 0 -89 -37t-36 -114v-373q0 -60 -40 -100.5t-100 -40.5h-80v101z" />
    <glyph glyph-name="uni0292" unicode="&#x292;" horiz-adv-x="594" 
d="M112 -153q-71 64 -72 180h133q1 -70 36 -107t90 -37t89 37t34 102q0 63 -32 99t-94 36h-101v99l194 189v2h-332v103h484v-103l-204 -194v-2q109 -9 164 -72.5t55 -156.5q0 -71 -31.5 -125t-90 -84t-136.5 -30q-115 0 -186 64z" />
    <glyph glyph-name="circumflex" unicode="&#x2c6;" horiz-adv-x="352" 
d="M125 769h102l107 -156h-112l-45 68h-2l-45 -68h-112z" />
    <glyph glyph-name="caron" unicode="&#x2c7;" horiz-adv-x="353" 
d="M18 769h112l45 -58h2l45 58h112l-107 -156h-102z" />
    <glyph glyph-name="breve" unicode="&#x2d8;" horiz-adv-x="328" 
d="M56 655q-38 42 -38 114h101q0 -68 45 -68t45 68h101q0 -72 -38 -114t-108 -42t-108 42z" />
    <glyph glyph-name="dotaccent" unicode="&#x2d9;" horiz-adv-x="165" 
d="M22 759h129v-122h-129v122z" />
    <glyph glyph-name="ring" unicode="&#x2da;" horiz-adv-x="230" 
d="M45.5 631q-27.5 27 -27.5 68q0 40 27.5 68t69.5 28q41 0 69 -28t28 -68t-28 -67.5t-69 -27.5q-42 0 -69.5 27zM94 676.5q8 -8.5 21 -8.5t21 8.5t8 22.5t-8 23t-21 9t-21 -9t-8 -23t8 -22.5z" />
    <glyph glyph-name="ogonek" unicode="&#x2db;" horiz-adv-x="185" 
d="M181 -97v-93h-29q-67 0 -101.5 27t-34.5 72q0 28 14.5 51.5t41.5 37.5v11h35l40 -9h-1q-18 0 -30.5 -13t-12.5 -32q0 -24 18.5 -38t46.5 -14h13z" />
    <glyph glyph-name="tilde" unicode="&#x2dc;" horiz-adv-x="449" 
d="M242 620.5q-21 11.5 -48 32.5q-17 14 -28.5 21t-23.5 7q-17 0 -28 -14.5t-11 -41.5v-6h-83v21q0 64 32 99t81 35q30 0 52 -11.5t47 -32.5q18 -14 29 -20.5t23 -6.5q17 0 28 14.5t11 40.5v6h83v-21q0 -65 -32 -99.5t-81 -34.5q-30 0 -51 11.5z" />
    <glyph glyph-name="hungarumlaut" unicode="&#x2dd;" horiz-adv-x="449" 
d="M285 769h142l-100 -156h-118zM94 769h143l-100 -156h-119z" />
    <glyph glyph-name="gravecomb" unicode="&#x300;" horiz-adv-x="0" 
d="M12 769h143l80 -156h-119z" />
    <glyph glyph-name="acutecomb" unicode="&#x301;" horiz-adv-x="0" 
d="M92 769h143l-100 -156h-123z" />
    <glyph glyph-name="uni0302" unicode="&#x302;" horiz-adv-x="0" 
d="M125 769h102l107 -156h-112l-45 68h-2l-45 -68h-112z" />
    <glyph glyph-name="tildecomb" unicode="&#x303;" horiz-adv-x="0" 
d="M242 620.5q-21 11.5 -48 32.5q-17 14 -28.5 21t-23.5 7q-17 0 -28 -14.5t-11 -41.5v-6h-83v21q0 64 32 99t81 35q30 0 52 -11.5t47 -32.5q18 -14 29 -20.5t23 -6.5q17 0 28 14.5t11 40.5v6h83v-21q0 -65 -32 -99.5t-81 -34.5q-30 0 -51 11.5z" />
    <glyph glyph-name="uni0304" unicode="&#x304;" horiz-adv-x="0" 
d="M18 735h290v-101h-290v101z" />
    <glyph glyph-name="uni0306" unicode="&#x306;" horiz-adv-x="0" 
d="M56 655q-38 42 -38 114h101q0 -68 45 -68t45 68h101q0 -72 -38 -114t-108 -42t-108 42z" />
    <glyph glyph-name="uni0307" unicode="&#x307;" horiz-adv-x="0" 
d="M22 759h129v-122h-129v122z" />
    <glyph glyph-name="uni0308" unicode="&#x308;" horiz-adv-x="0" 
d="M29 759h122v-122h-122v122zM205 759h122v-122h-122v122z" />
    <glyph glyph-name="uni030A" unicode="&#x30a;" horiz-adv-x="0" 
d="M45.5 631q-27.5 27 -27.5 68q0 40 27.5 68t69.5 28q41 0 69 -28t28 -68t-28 -67.5t-69 -27.5q-42 0 -69.5 27zM94 676.5q8 -8.5 21 -8.5t21 8.5t8 22.5t-8 23t-21 9t-21 -9t-8 -23t8 -22.5z" />
    <glyph glyph-name="uni030B" unicode="&#x30b;" horiz-adv-x="0" 
d="M285 769h142l-100 -156h-118zM94 769h143l-100 -156h-119z" />
    <glyph glyph-name="uni030C" unicode="&#x30c;" horiz-adv-x="0" 
d="M18 769h112l45 -58h2l45 58h112l-107 -156h-102z" />
    <glyph glyph-name="uni0312" unicode="&#x312;" horiz-adv-x="0" 
d="M121 761.5q-17 -12.5 -17 -33.5v-6h62v-109h-121v114q0 50 33.5 78.5t87.5 28.5v-60q-28 0 -45 -12.5z" />
    <glyph glyph-name="uni0326" unicode="&#x326;" horiz-adv-x="0" 
d="M82.5 -199.5q16.5 12.5 16.5 34.5v5h-62v110h121v-114q0 -50 -33.5 -79t-87.5 -29v60q29 0 45.5 12.5z" />
    <glyph glyph-name="uni0327" unicode="&#x327;" horiz-adv-x="0" 
d="M17 -194v80h76q10 0 17.5 5.5t7.5 15.5q0 9 -7.5 15t-17.5 6h-28v105h76v-70q36 -4 55.5 -23t19.5 -51q0 -37 -25 -60t-69 -23h-105z" />
    <glyph glyph-name="uni0328" unicode="&#x328;" horiz-adv-x="0" 
d="M181 -97v-93h-29q-67 0 -101.5 27t-34.5 72q0 28 14.5 51.5t41.5 37.5v11h35l40 -9h-1q-18 0 -30.5 -13t-12.5 -32q0 -24 18.5 -38t46.5 -14h13z" />
    <glyph glyph-name="uni0394" unicode="&#x394;" horiz-adv-x="663" 
d="M17 99l239 601h151l239 -601v-99h-629v99zM511 100v2l-179 468l-180 -468v-2h359z" />
    <glyph glyph-name="uni03A9" unicode="&#x3a9;" horiz-adv-x="742" 
d="M50 103h159v2q-87 47 -132 121t-45 164q0 93 42 167.5t119 117t178 42.5t178 -42.5t119 -117t42 -167.5q0 -90 -45 -164t-132 -121v-2h159v-103h-266v106q74 48 111 117t37 157q0 74 -26 127t-72.5 81t-104.5 27q-58 1 -104 -27t-72 -81t-26 -127q0 -88 36.5 -157
t110.5 -117v-106h-266v103z" />
    <glyph glyph-name="uni03BC" unicode="&#x3bc;" horiz-adv-x="612" 
d="M62 550h126v-357q0 -56 28.5 -82.5t72.5 -26.5q51 0 85.5 37t34.5 107v322h127v-410q0 -20 8 -28.5t28 -8.5h28v-103h-92q-45 0 -69.5 21.5t-24.5 60.5v14h-2q-15 -54 -51.5 -82t-83.5 -28q-57 0 -89 39v-206h-126v731z" />
    <glyph glyph-name="pi" unicode="&#x3c0;" horiz-adv-x="574" 
d="M96 447h-83v103h548v-103h-82v-307q0 -20 8 -28.5t28 -8.5h29v-103h-96q-47 0 -72.5 25t-25.5 72v350h-126v-447h-128v447z" />
    <glyph glyph-name="uni1E20" unicode="&#x1e20;" horiz-adv-x="753" 
d="M191.5 28.5q-74.5 45.5 -117 129.5t-42.5 193q0 108 41.5 191t119 129t183.5 46q96 0 168 -38t111 -103t43 -144h-135q-2 50 -25 90.5t-65 64t-97 23.5q-95 0 -149.5 -68.5t-54.5 -190.5q0 -82 26.5 -141t73.5 -89.5t107 -30.5q54 0 95.5 22.5t66.5 59t31 77.5h-206v102
h279q26 0 40.5 -14t14.5 -39v-298h-117l17 129h-2q-31 -71 -92 -108.5t-146 -37.5q-94 0 -168.5 45.5zM229 885h290v-101h-290v101z" />
    <glyph glyph-name="uni1E21" unicode="&#x1e21;" horiz-adv-x="570" 
d="M63.5 -167q-41.5 33 -41.5 86q0 41 24 70.5t69 39.5v2q-31 12 -48.5 36.5t-17.5 57.5q0 38 23 62.5t59 29.5l13 2v2q-48 20 -75 60.5t-27 96.5q0 59 30 101.5t81.5 65t113.5 22.5q60 0 110.5 -22t80.5 -62h2q2 32 19.5 49.5t48.5 17.5h25v-103h-39q-13 0 -19.5 -5
t-8.5 -16q6 -22 6 -48q0 -58 -29 -101t-79.5 -66t-112.5 -23h-63q-49 0 -49 -35q0 -17 12.5 -26.5t36.5 -9.5h169q86 0 134 -42.5t48 -115.5t-48 -116t-134 -43h-193q-79 0 -120.5 33zM148.5 -94q19.5 -17 57.5 -17h152q37 0 57 17t20 47q0 31 -20 47.5t-57 16.5h-152
q-38 0 -57.5 -17t-19.5 -47t19.5 -47zM191.5 301.5q29.5 -24.5 75.5 -24.5t75.5 24.5t29.5 70.5t-29.5 70.5t-75.5 24.5t-75.5 -24.5t-29.5 -70.5t29.5 -70.5zM122 735h290v-101h-290v101z" />
    <glyph glyph-name="Wgrave" unicode="&#x1e80;" horiz-adv-x="935" 
d="M10 700h136l127 -514h2l118 514h150l117 -514h2l127 514h136l-187 -700h-149l-122 537h-2l-120 -537h-148zM305 919h143l80 -156h-119z" />
    <glyph glyph-name="wgrave" unicode="&#x1e81;" horiz-adv-x="774" 
d="M8 550h132l92 -388h2l86 388h134l86 -388h2l92 388h132l-156 -550h-134l-89 366h-2l-89 -366h-136zM224 769h143l80 -156h-119z" />
    <glyph glyph-name="Wacute" unicode="&#x1e82;" horiz-adv-x="935" 
d="M10 700h136l127 -514h2l118 514h150l117 -514h2l127 514h136l-187 -700h-149l-122 537h-2l-120 -537h-148zM486 919h143l-100 -156h-123z" />
    <glyph glyph-name="wacute" unicode="&#x1e83;" horiz-adv-x="774" 
d="M8 550h132l92 -388h2l86 388h134l86 -388h2l92 388h132l-156 -550h-134l-89 366h-2l-89 -366h-136zM406 769h143l-100 -156h-123z" />
    <glyph glyph-name="Wdieresis" unicode="&#x1e84;" horiz-adv-x="935" 
d="M10 700h136l127 -514h2l118 514h150l117 -514h2l127 514h136l-187 -700h-149l-122 537h-2l-120 -537h-148zM319 909h122v-122h-122v122zM495 909h122v-122h-122v122z" />
    <glyph glyph-name="wdieresis" unicode="&#x1e85;" horiz-adv-x="774" 
d="M8 550h132l92 -388h2l86 388h134l86 -388h2l92 388h132l-156 -550h-134l-89 366h-2l-89 -366h-136zM238 759h122v-122h-122v122zM414 759h122v-122h-122v122z" />
    <glyph glyph-name="uni1E9E" unicode="&#x1e9e;" horiz-adv-x="898" 
d="M418 15.5q-67 32.5 -104.5 91t-40.5 135.5h135q3 -74 48.5 -113t120.5 -39q72 0 109.5 33t37.5 83q0 45 -30.5 73t-90.5 28h-83q-103 0 -159 46t-56 121q0 71 51 117v2h-80q-80 0 -80 -84v-509h-132v533q0 78 44.5 122.5t128.5 44.5h568v-107h-255q-51 0 -79 -25t-28 -65
q0 -43 31.5 -66t86.5 -23h72q72 0 124.5 -26t79.5 -71t27 -102q0 -65 -35.5 -118t-101.5 -83.5t-153 -30.5q-89 0 -156 32.5z" />
    <glyph glyph-name="uni1EA0" unicode="&#x1ea0;" horiz-adv-x="690" 
d="M279 700h132l264 -700h-140l-57 163h-268l-57 -163h-138zM441 269l-33 96q-25 74 -63 197h-2q-38 -123 -65 -202l-32 -91h195zM277 -57h132v-117h-132v117z" />
    <glyph glyph-name="uni1EA1" unicode="&#x1ea1;" horiz-adv-x="604" 
d="M335.5 13q-49.5 -30 -115.5 -30q-83 0 -136.5 46.5t-53.5 129.5q0 89 59.5 131.5t149.5 42.5h89q80 0 80 60q0 36 -29 55t-76 19q-54 0 -85.5 -25t-34.5 -70h-132q6 92 68 143.5t182 51.5t176.5 -51.5t56.5 -139.5v-236q0 -20 8.5 -28.5t28.5 -8.5h21v-103h-86
q-45 0 -69 21.5t-24 60.5v21h-2q-26 -60 -75.5 -90zM188.5 107q23.5 -22 70.5 -22q62 0 105.5 40.5t43.5 120.5v51h-2q-13 -26 -38.5 -39t-67.5 -14l-41 -2q-47 -1 -70.5 -22.5t-23.5 -55.5q0 -35 23.5 -57zM237 -57h132v-117h-132v117z" />
    <glyph glyph-name="uni1EAC" unicode="&#x1eac;" horiz-adv-x="690" 
d="M279 700h132l264 -700h-140l-57 163h-268l-57 -163h-138zM293 919h102l107 -156h-112l-45 68h-2l-45 -68h-112zM441 269l-33 96q-25 74 -63 197h-2q-38 -123 -65 -202l-32 -91h195zM277 -57h132v-117h-132v117z" />
    <glyph glyph-name="uni1EAD" unicode="&#x1ead;" horiz-adv-x="604" 
d="M335.5 13q-49.5 -30 -115.5 -30q-83 0 -136.5 46.5t-53.5 129.5q0 89 59.5 131.5t149.5 42.5h89q80 0 80 60q0 36 -29 55t-76 19q-54 0 -85.5 -25t-34.5 -70h-132q6 92 68 143.5t182 51.5t176.5 -51.5t56.5 -139.5v-236q0 -20 8.5 -28.5t28.5 -8.5h21v-103h-86
q-45 0 -69 21.5t-24 60.5v21h-2q-26 -60 -75.5 -90zM250 769h102l107 -156h-112l-45 68h-2l-45 -68h-112zM188.5 107q23.5 -22 70.5 -22q62 0 105.5 40.5t43.5 120.5v51h-2q-13 -26 -38.5 -39t-67.5 -14l-41 -2q-47 -1 -70.5 -22.5t-23.5 -55.5q0 -35 23.5 -57zM237 -57h132
v-117h-132v117z" />
    <glyph glyph-name="uni1EB8" unicode="&#x1eb8;" horiz-adv-x="583" 
d="M64 700h496v-103h-364v-193h325v-103h-325v-198h365v-103h-497v700zM250 -57h132v-117h-132v117z" />
    <glyph glyph-name="uni1EB9" unicode="&#x1eb9;" horiz-adv-x="587" 
d="M156 18q-62 35 -96 101t-34 156t34.5 156t96 101t141.5 35q76 0 136 -31.5t94 -92.5t34 -147v-57h-402q3 -71 41 -113.5t100 -42.5q45 0 78 23t46 63h130q-18 -84 -87 -135t-169 -51q-81 0 -143 35zM435 330q0 61 -35.5 99t-98.5 38q-62 0 -98 -38t-42 -99h274zM228 -57
h132v-117h-132v117z" />
    <glyph glyph-name="uni1EBC" unicode="&#x1ebc;" horiz-adv-x="583" 
d="M64 700h496v-103h-364v-193h325v-103h-325v-198h365v-103h-497v700zM345 770.5q-21 11.5 -48 32.5q-17 14 -28.5 21t-23.5 7q-17 0 -28 -14.5t-11 -41.5v-6h-83v21q0 64 32 99t81 35q30 0 52 -11.5t47 -32.5q18 -14 29 -20.5t23 -6.5q17 0 28 14.5t11 40.5v6h83v-21
q0 -65 -32 -99.5t-81 -34.5q-30 0 -51 11.5z" />
    <glyph glyph-name="uni1EBD" unicode="&#x1ebd;" horiz-adv-x="587" 
d="M156 18q-62 35 -96 101t-34 156t34.5 156t96 101t141.5 35q76 0 136 -31.5t94 -92.5t34 -147v-57h-402q3 -71 41 -113.5t100 -42.5q45 0 78 23t46 63h130q-18 -84 -87 -135t-169 -51q-81 0 -143 35zM435 330q0 61 -35.5 99t-98.5 38q-62 0 -98 -38t-42 -99h274z
M323 620.5q-21 11.5 -48 32.5q-17 14 -28.5 21t-23.5 7q-17 0 -28 -14.5t-11 -41.5v-6h-83v21q0 64 32 99t81 35q30 0 52 -11.5t47 -32.5q18 -14 29 -20.5t23 -6.5q17 0 28 14.5t11 40.5v6h83v-21q0 -65 -32 -99.5t-81 -34.5q-30 0 -51 11.5z" />
    <glyph glyph-name="uni1ECA" unicode="&#x1eca;" horiz-adv-x="259" 
d="M64 700h132v-700h-132v700zM63 -57h132v-117h-132v117z" />
    <glyph glyph-name="uni1ECB" unicode="&#x1ecb;" horiz-adv-x="250" 
d="M62 550h126v-550h-126v550zM42 -57h132v-117h-132v117zM60 759h129v-122h-129v122z" />
    <glyph glyph-name="uni1ECC" unicode="&#x1ecc;" horiz-adv-x="756" 
d="M202 26q-79 43 -124.5 126t-45.5 198t45.5 198t124.5 126t176 43q98 0 176.5 -43t124 -125.5t45.5 -198.5t-45.5 -198.5t-124 -125.5t-176.5 -43q-97 0 -176 43zM228.5 156q56.5 -66 149.5 -66t149.5 66t56.5 194t-56.5 194t-149.5 66t-149.5 -66t-56.5 -194t56.5 -194z
M312 -57h132v-117h-132v117z" />
    <glyph glyph-name="uni1ECD" unicode="&#x1ecd;" horiz-adv-x="610" 
d="M163 17.5q-63 34.5 -100 100.5t-37 157t37 157t100 100.5t142 34.5t142 -34.5t100 -100.5t37 -157t-37 -157t-100 -100.5t-142 -34.5t-142 34.5zM199.5 132.5q38.5 -49.5 105.5 -49.5t105.5 49.5t38.5 142.5t-38.5 142.5t-105.5 49.5t-105.5 -49.5t-38.5 -142.5
t38.5 -142.5zM239 -57h132v-117h-132v117z" />
    <glyph glyph-name="uni1EE4" unicode="&#x1ee4;" horiz-adv-x="695" 
d="M202 15.5q-64 32.5 -101 95.5t-37 150v439h132v-434q0 -84 41.5 -130t109.5 -46t110 45.5t42 130.5v434h132v-439q0 -87 -37 -150t-101.5 -95.5t-145.5 -32.5t-145 32.5zM281 -57h132v-117h-132v117z" />
    <glyph glyph-name="uni1EE5" unicode="&#x1ee5;" 
d="M107.5 40.5q-50.5 57.5 -50.5 164.5v345h126v-330q0 -70 27.5 -103t76.5 -33q53 0 88.5 37t35.5 114v315h126v-550h-124v84h-2q-24 -50 -67 -75.5t-99 -25.5q-87 0 -137.5 57.5zM233 -57h132v-117h-132v117z" />
    <glyph glyph-name="Ygrave" unicode="&#x1ef2;" horiz-adv-x="642" 
d="M254 278l-244 422h151l159 -298h2l159 298h151l-246 -422v-278h-132v278zM158 919h143l80 -156h-119z" />
    <glyph glyph-name="ygrave" unicode="&#x1ef3;" horiz-adv-x="567" 
d="M8 -97h156l54 127l-210 520h137l138 -366h2l139 366h135l-285 -708q-16 -42 -62 -42h-204v103zM121 769h143l80 -156h-119z" />
    <glyph glyph-name="uni1EF8" unicode="&#x1ef8;" horiz-adv-x="642" 
d="M254 278l-244 422h151l159 -298h2l159 298h151l-246 -422v-278h-132v278zM350 770.5q-21 11.5 -48 32.5q-17 14 -28.5 21t-23.5 7q-17 0 -28 -14.5t-11 -41.5v-6h-83v21q0 64 32 99t81 35q30 0 52 -11.5t47 -32.5q18 -14 29 -20.5t23 -6.5q17 0 28 14.5t11 40.5v6h83v-21
q0 -65 -32 -99.5t-81 -34.5q-30 0 -51 11.5z" />
    <glyph glyph-name="uni1EF9" unicode="&#x1ef9;" horiz-adv-x="567" 
d="M8 -97h156l54 127l-210 520h137l138 -366h2l139 366h135l-285 -708q-16 -42 -62 -42h-204v103zM313 620.5q-21 11.5 -48 32.5q-17 14 -28.5 21t-23.5 7q-17 0 -28 -14.5t-11 -41.5v-6h-83v21q0 64 32 99t81 35q30 0 52 -11.5t47 -32.5q18 -14 29 -20.5t23 -6.5
q17 0 28 14.5t11 40.5v6h83v-21q0 -65 -32 -99.5t-81 -34.5q-30 0 -51 11.5z" />
    <glyph glyph-name="uni2000" unicode="&#x2000;" horiz-adv-x="500" 
 />
    <glyph glyph-name="uni2001" unicode="&#x2001;" horiz-adv-x="1000" 
 />
    <glyph glyph-name="uni2002" unicode="&#x2002;" horiz-adv-x="500" 
 />
    <glyph glyph-name="uni2003" unicode="&#x2003;" horiz-adv-x="1000" 
 />
    <glyph glyph-name="uni2004" unicode="&#x2004;" horiz-adv-x="333" 
 />
    <glyph glyph-name="uni2005" unicode="&#x2005;" horiz-adv-x="250" 
 />
    <glyph glyph-name="uni2006" unicode="&#x2006;" horiz-adv-x="166" 
 />
    <glyph glyph-name="uni2007" unicode="&#x2007;" horiz-adv-x="700" 
 />
    <glyph glyph-name="uni2008" unicode="&#x2008;" horiz-adv-x="254" 
 />
    <glyph glyph-name="uni2009" unicode="&#x2009;" horiz-adv-x="125" 
 />
    <glyph glyph-name="uni200A" unicode="&#x200a;" horiz-adv-x="70" 
 />
    <glyph glyph-name="uni200B" unicode="&#x200b;" horiz-adv-x="0" 
 />
    <glyph glyph-name="endash" unicode="&#x2013;" horiz-adv-x="700" 
d="M100 331h500v-100h-500v100z" />
    <glyph glyph-name="emdash" unicode="&#x2014;" horiz-adv-x="1180" 
d="M100 331h980v-100h-980v100z" />
    <glyph glyph-name="uni2015" unicode="&#x2015;" horiz-adv-x="1180" 
d="M100 331h980v-100h-980v100z" />
    <glyph glyph-name="quoteleft" unicode="&#x2018;" horiz-adv-x="249" 
d="M147 619.5q-21 -19.5 -21 -53.5v-39h74v-137h-134v168q0 67 38 104.5t106 37.5v-61q-42 0 -63 -19.5z" />
    <glyph glyph-name="quoteright" unicode="&#x2019;" horiz-adv-x="248" 
d="M108 470.5q21 19.5 21 53.5v39h-74v137h134v-168q0 -66 -37.5 -104t-106.5 -38v61q42 0 63 19.5z" />
    <glyph glyph-name="quotesinglbase" unicode="&#x201a;" horiz-adv-x="255" 
d="M108 -92.5q21 19.5 21 53.5v39h-74v137h134v-168q0 -66 -37.5 -104t-106.5 -38v61q42 0 63 19.5z" />
    <glyph glyph-name="quotedblleft" unicode="&#x201c;" horiz-adv-x="435" 
d="M327 619.5q-21 -19.5 -21 -53.5v-39h74v-137h-134v168q0 67 38 104.5t106 37.5v-61q-42 0 -63 -19.5zM66 558q0 67 38 104.5t106 37.5v-61q-42 0 -63 -19.5t-21 -53.5v-39h74v-137h-134v168z" />
    <glyph glyph-name="quotedblright" unicode="&#x201d;" horiz-adv-x="435" 
d="M108 470.5q21 19.5 21 53.5v39h-74v137h134v-168q0 -66 -37.5 -104t-106.5 -38v61q42 0 63 19.5zM288 470.5q21 19.5 21 53.5v39h-74v137h134v-168q0 -66 -37.5 -104t-106.5 -38v61q42 0 63 19.5z" />
    <glyph glyph-name="quotedblbase" unicode="&#x201e;" horiz-adv-x="435" 
d="M108 -92.5q21 19.5 21 53.5v39h-74v137h134v-168q0 -66 -37.5 -104t-106.5 -38v61q42 0 63 19.5zM288 -92.5q21 19.5 21 53.5v39h-74v137h134v-168q0 -66 -37.5 -104t-106.5 -38v61q42 0 63 19.5z" />
    <glyph glyph-name="dagger" unicode="&#x2020;" horiz-adv-x="463" 
d="M170 554h-122v117h122v129h123v-129h123v-117h-123v-328h-123v328z" />
    <glyph glyph-name="daggerdbl" unicode="&#x2021;" horiz-adv-x="463" 
d="M170 331h-122v116h122v111h-122v116h122v126h123v-126h123v-116h-123v-111h123v-116h-123v-126h-123v126z" />
    <glyph glyph-name="bullet" unicode="&#x2022;" horiz-adv-x="419" 
d="M127.5 120.5q-37.5 21.5 -59.5 58.5t-22 82t22 82t59.5 58.5t82.5 21.5q44 0 81.5 -21.5t59.5 -58.5t22 -82t-22 -82t-59.5 -58.5t-81.5 -21.5q-45 0 -82.5 21.5z" />
    <glyph glyph-name="ellipsis" unicode="&#x2026;" horiz-adv-x="667" 
d="M266 134h135v-134h-135v134zM472 134h135v-134h-135v134zM59 134h135v-134h-135v134z" />
    <glyph glyph-name="uni202F" unicode="&#x202f;" horiz-adv-x="42" 
 />
    <glyph glyph-name="perthousand" unicode="&#x2030;" horiz-adv-x="1287" 
d="M630 700h132l-489 -700h-132zM94.5 662q49.5 46 124.5 46t124.5 -46t49.5 -127q0 -79 -49.5 -125.5t-124.5 -46.5q-49 0 -88.5 20.5t-62.5 59.5t-23 92q0 81 49.5 127zM167 471q20 -22 52 -22t52 22t20 64t-20 64.5t-52 22.5q-31 0 -51.5 -22.5t-20.5 -64.5t20 -64z
M532 256q23 39 63 60t88 21q49 0 89 -21t63 -60t23 -92t-23 -92t-63 -59.5t-89 -20.5t-88.5 20.5t-62.5 59.5t-23 92t23 92zM631 100q20 -22 52 -22q33 0 52.5 21.5t19.5 64.5t-20 65t-52 22t-52 -22.5t-20 -64.5t20 -64zM929 256q23 39 63 60t88 21t88 -21t63 -60t23 -92
t-23 -92t-62.5 -59.5t-88.5 -20.5t-88.5 20.5t-62.5 59.5t-23 92t23 92zM1028 100q20 -22 52 -22q33 0 52.5 21.5t19.5 64.5q0 42 -20 64.5t-52 22.5t-52 -22.5t-20 -64.5t20 -64z" />
    <glyph glyph-name="minute" unicode="&#x2032;" horiz-adv-x="287" 
d="M244 700l-93 -257h-108l71 257h130z" />
    <glyph glyph-name="second" unicode="&#x2033;" horiz-adv-x="491" 
d="M256 700l-92 -257h-109l71 257h130zM318 700h130l-92 -257h-109z" />
    <glyph glyph-name="guilsinglleft" unicode="&#x2039;" horiz-adv-x="334" 
d="M131.5 186.5q-34.5 41.5 -88.5 44.5v97q54 3 88.5 44.5t38.5 104.5h121q-5 -70 -41.5 -124.5t-97.5 -72.5v-1q61 -18 97.5 -72.5t41.5 -124.5h-121q-4 63 -38.5 104.5z" />
    <glyph glyph-name="guilsinglright" unicode="&#x203a;" horiz-adv-x="334" 
d="M202.5 372.5q34.5 -41.5 88.5 -44.5v-97q-54 -3 -88.5 -44.5t-38.5 -104.5h-121q5 70 41.5 124.5t97.5 72.5v1q-61 18 -97.5 72.5t-41.5 124.5h121q4 -63 38.5 -104.5z" />
    <glyph glyph-name="uni203D" unicode="&#x203d;" horiz-adv-x="631" 
d="M224 445v83h132v-83l-7 -107h2q9 18 30 34l17 14q57 43 57 112q0 58 -36 88.5t-100 30.5q-67 0 -109 -33.5t-43 -97.5h-135q1 71 37 123t100.5 79.5t149.5 27.5q86 0 146.5 -27.5t92 -75.5t31.5 -108q0 -141 -171 -211l-33 -13q-24 -10 -32 -21t-10 -38l-2 -32h-106z
M221 134h138v-134h-138v134z" />
    <glyph glyph-name="fraction" unicode="&#x2044;" horiz-adv-x="291" 
d="M335 700h109l-488 -700h-109z" />
    <glyph glyph-name="uni2070" unicode="&#x2070;" horiz-adv-x="262" 
d="M46.5 451q-29.5 38 -29.5 109t29.5 109t84.5 38t84.5 -38t29.5 -109t-29.5 -109t-84.5 -38t-84.5 38zM131 464q51 0 51 96t-51 96t-51 -96t51 -96z" />
    <glyph glyph-name="uni2074" unicode="&#x2074;" horiz-adv-x="247" 
d="M13 523l119 177h70v-174h37v-53h-37v-53h-59v53h-130v50zM143 526v115h-1l-70 -114v-1h71z" />
    <glyph glyph-name="uni2075" unicode="&#x2075;" horiz-adv-x="245" 
d="M50 436.5q-28 23.5 -33 62.5h61q1 -16 13.5 -25.5t29.5 -9.5q20 0 32.5 13.5t12.5 33.5q0 22 -13 35t-34 13q-23 0 -39 -16h-62l23 157h169v-53h-120l-10 -68h1q10 12 25 18.5t33 6.5q37 0 63 -25.5t26 -66.5q0 -44 -30.5 -71.5t-77.5 -27.5q-42 0 -70 23.5z" />
    <glyph glyph-name="uni2076" unicode="&#x2076;" horiz-adv-x="248" 
d="M48 448.5q-31 36.5 -31 109.5q0 72 29.5 111t80.5 39q44 0 70.5 -26.5t26.5 -64.5h-60q0 18 -11 28.5t-27 10.5q-24 0 -37 -23.5t-12 -67.5h1q9 19 26 30t39 11q36 0 62 -26.5t26 -68.5q0 -45 -29.5 -72t-73.5 -27q-49 0 -80 36.5zM96.5 476.5q11.5 -12.5 30.5 -12.5
t30.5 12.5t11.5 34.5q0 21 -11.5 33t-30.5 12t-30.5 -12t-11.5 -33q0 -22 11.5 -34.5z" />
    <glyph glyph-name="uni2077" unicode="&#x2077;" horiz-adv-x="206" 
d="M67 549q33 66 85 97v1h-144v53h193v-50q-50 -37 -77 -102.5t-27 -127.5h-63q0 63 33 129z" />
    <glyph glyph-name="uni2078" unicode="&#x2078;" horiz-adv-x="244" 
d="M46 436q-29 23 -29 62q0 57 62 71v1q-52 13 -52 60q0 35 26.5 56t68.5 21t68.5 -21t26.5 -56q0 -23 -13.5 -38.5t-37.5 -21.5v-1q31 -7 46 -26t15 -45q0 -39 -29 -62t-76 -23t-76 23zM91.5 475q12.5 -11 30.5 -11q19 0 31 10.5t12 30.5t-12 30.5t-31 10.5
q-18 0 -30.5 -11t-12.5 -30t12.5 -30zM96.5 600.5q9.5 -8.5 25.5 -8.5t26 8.5t10 23.5t-10.5 23.5t-25.5 8.5t-25 -8.5t-10 -23.5t9.5 -23.5z" />
    <glyph glyph-name="uni2079" unicode="&#x2079;" horiz-adv-x="248" 
d="M200 671.5q31 -36.5 31 -109.5q0 -72 -29.5 -111t-80.5 -39q-44 0 -70.5 26.5t-26.5 64.5h60q0 -18 11 -28.5t27 -10.5q24 0 37 23.5t12 67.5h-1q-9 -19 -26 -30t-39 -11q-36 0 -62 26.5t-26 68.5q0 45 29.5 72t73.5 27q49 0 80 -36.5zM90.5 576q11.5 -12 30.5 -12
t30.5 12t11.5 33q0 22 -11.5 34.5t-30.5 12.5t-30.5 -12.5t-11.5 -34.5q0 -21 11.5 -33z" />
    <glyph glyph-name="uni207A" unicode="&#x207a;" horiz-adv-x="310" 
d="M129 535h-89v51h89v92h53v-92h88v-51h-88v-93h-53v93z" />
    <glyph glyph-name="uni207B" unicode="&#x207b;" horiz-adv-x="287" 
d="M40 586h207v-51h-207v51z" />
    <glyph glyph-name="uni207C" unicode="&#x207c;" horiz-adv-x="266" 
d="M38 635h190v-51h-190v51zM38 539h190v-51h-190v51z" />
    <glyph glyph-name="uni207D" unicode="&#x207d;" horiz-adv-x="154" 
d="M40 560q0 79 34 147h60q-34 -68 -34 -147t34 -147h-60q-34 68 -34 147z" />
    <glyph glyph-name="uni207E" unicode="&#x207e;" horiz-adv-x="154" 
d="M54 560q0 79 -34 147h60q34 -68 34 -147t-34 -147h-60q34 68 34 147z" />
    <glyph glyph-name="uni2080" unicode="&#x2080;" horiz-adv-x="262" 
d="M46.5 31q-29.5 38 -29.5 109t29.5 109t84.5 38t84.5 -38t29.5 -109t-29.5 -109t-84.5 -38t-84.5 38zM131 44q51 0 51 96t-51 96t-51 -96t51 -96z" />
    <glyph glyph-name="uni2081" unicode="&#x2081;" horiz-adv-x="172" 
d="M140 0h-61v197h-1q-2 -15 -13 -22t-26 -7h-24v57h24q40 0 40 36v19h61v-280z" />
    <glyph glyph-name="uni2082" unicode="&#x2082;" horiz-adv-x="243" 
d="M31.5 94.5q15.5 21.5 58.5 44.5l23 12q25 14 34 24.5t9 25.5q0 35 -35 35q-18 0 -28 -11t-10 -31h-59q0 45 26.5 69t71.5 24q43 0 70 -22t27 -62q0 -28 -17.5 -53t-61.5 -47l-25 -12q-22 -11 -28 -18.5t-6 -16.5h146v-56h-211v39q0 34 15.5 55.5z" />
    <glyph glyph-name="uni2083" unicode="&#x2083;" horiz-adv-x="249" 
d="M47.5 17.5q-29.5 24.5 -30.5 69.5h62q0 -20 13.5 -31.5t34.5 -11.5q19 0 32 10.5t13 28.5t-12.5 29t-34.5 11h-39v51h33q20 0 31.5 9t11.5 24t-10.5 22t-25.5 7q-16 0 -26 -8t-10 -24h-62q1 37 27 60t71 23q44 0 70.5 -21.5t26.5 -53.5q0 -23 -14 -40.5t-42 -21.5v-1
q34 -4 50 -23t16 -47q0 -39 -29 -62.5t-78 -23.5t-78.5 24.5z" />
    <glyph glyph-name="uni2084" unicode="&#x2084;" horiz-adv-x="247" 
d="M13 103l119 177h70v-174h37v-53h-37v-53h-59v53h-130v50zM143 106v115h-1l-70 -114v-1h71z" />
    <glyph glyph-name="uni2085" unicode="&#x2085;" horiz-adv-x="245" 
d="M50 16.5q-28 23.5 -33 62.5h61q1 -16 13.5 -25.5t29.5 -9.5q20 0 32.5 13.5t12.5 33.5q0 22 -13 35t-34 13q-23 0 -39 -16h-62l23 157h169v-53h-120l-10 -68h1q10 12 25 18.5t33 6.5q37 0 63 -25.5t26 -66.5q0 -44 -30.5 -71.5t-77.5 -27.5q-42 0 -70 23.5z" />
    <glyph glyph-name="uni2086" unicode="&#x2086;" horiz-adv-x="248" 
d="M48 28.5q-31 36.5 -31 109.5q0 72 29.5 111t80.5 39q44 0 70.5 -26.5t26.5 -64.5h-60q0 18 -11 28.5t-27 10.5q-24 0 -37 -23.5t-12 -67.5h1q9 19 26 30t39 11q36 0 62 -26.5t26 -68.5q0 -45 -29.5 -72t-73.5 -27q-49 0 -80 36.5zM96.5 56.5q11.5 -12.5 30.5 -12.5
t30.5 12.5t11.5 34.5q0 21 -11.5 33t-30.5 12t-30.5 -12t-11.5 -33q0 -22 11.5 -34.5z" />
    <glyph glyph-name="uni2087" unicode="&#x2087;" horiz-adv-x="206" 
d="M67 129q33 66 85 97v1h-144v53h193v-50q-50 -37 -77 -102.5t-27 -127.5h-63q0 63 33 129z" />
    <glyph glyph-name="uni2088" unicode="&#x2088;" horiz-adv-x="244" 
d="M46 16q-29 23 -29 62q0 57 62 71v1q-52 13 -52 60q0 35 26.5 56t68.5 21t68.5 -21t26.5 -56q0 -23 -13.5 -38.5t-37.5 -21.5v-1q31 -7 46 -26t15 -45q0 -39 -29 -62t-76 -23t-76 23zM91.5 55q12.5 -11 30.5 -11q19 0 31 10.5t12 30.5t-12 30.5t-31 10.5q-18 0 -30.5 -11
t-12.5 -30t12.5 -30zM96.5 180.5q9.5 -8.5 25.5 -8.5t26 8.5t10 23.5t-10.5 23.5t-25.5 8.5t-25 -8.5t-10 -23.5t9.5 -23.5z" />
    <glyph glyph-name="uni2089" unicode="&#x2089;" horiz-adv-x="248" 
d="M200 251.5q31 -36.5 31 -109.5q0 -72 -29.5 -111t-80.5 -39q-44 0 -70.5 26.5t-26.5 64.5h60q0 -18 11 -28.5t27 -10.5q24 0 37 23.5t12 67.5h-1q-9 -19 -26 -30t-39 -11q-36 0 -62 26.5t-26 68.5q0 45 29.5 72t73.5 27q49 0 80 -36.5zM90.5 156q11.5 -12 30.5 -12
t30.5 12t11.5 33q0 22 -11.5 34.5t-30.5 12.5t-30.5 -12.5t-11.5 -34.5q0 -21 11.5 -33z" />
    <glyph glyph-name="uni208A" unicode="&#x208a;" horiz-adv-x="310" 
d="M129 114h-89v51h89v92h53v-92h88v-51h-88v-93h-53v93z" />
    <glyph glyph-name="uni208B" unicode="&#x208b;" horiz-adv-x="287" 
d="M40 165h207v-51h-207v51z" />
    <glyph glyph-name="uni208C" unicode="&#x208c;" horiz-adv-x="266" 
d="M38 214h190v-51h-190v51zM38 118h190v-51h-190v51z" />
    <glyph glyph-name="uni208D" unicode="&#x208d;" horiz-adv-x="154" 
d="M40 140q0 79 34 147h60q-34 -68 -34 -147t34 -147h-60q-34 68 -34 147z" />
    <glyph glyph-name="uni208E" unicode="&#x208e;" horiz-adv-x="154" 
d="M54 140q0 79 -34 147h60q34 -68 34 -147t-34 -147h-60q34 68 34 147z" />
    <glyph glyph-name="Euro" unicode="&#x20ac;" horiz-adv-x="797" 
d="M249 49q-83 65 -113 179h-95l26 97h55q-1 9 -1 26t1 26h-80l26 97h68q29 113 110.5 177.5t202.5 64.5q94 0 162.5 -37.5t107 -101t45.5 -142.5h-138q-6 76 -51.5 126t-125.5 50q-64 0 -110 -35.5t-67 -101.5h276l-26 -97h-267q-1 -8 -1 -26t1 -26h253l-26 -97h-210
q22 -68 68.5 -103.5t108.5 -35.5q53 0 91 24t59.5 63t26.5 82h138q-9 -75 -48 -137.5t-107 -99.5t-160 -37q-117 0 -200 65z" />
    <glyph glyph-name="uni20BF" unicode="&#x20bf;" horiz-adv-x="668" 
d="M247 800h113l-6 -100h22q63 0 111 -22t74.5 -61.5t26.5 -91.5q0 -61 -37.5 -100.5t-104.5 -46.5v-2q90 -3 140.5 -50t50.5 -122q0 -58 -29.5 -104.5t-85 -73t-128.5 -26.5h-40l6 -96h-113l6 96h-189v700h189zM370 107q65 0 98 27.5t33 76.5t-33.5 76t-97.5 27h-174v-207
h174zM348 417q50 0 77.5 24t27.5 64q0 41 -27 64.5t-78 23.5h-152v-176h152z" />
    <glyph glyph-name="trademark" unicode="&#x2122;" horiz-adv-x="777" 
d="M134 627h-97v73h277v-73h-98v-281h-82v281zM345 700h128l68 -249l68 249h128v-354h-82v263l-72 -263h-84l-72 263v-263h-82v354z" />
    <glyph glyph-name="estimated" unicode="&#x212e;" horiz-adv-x="739" 
d="M197.5 28.5q-77.5 44.5 -121.5 127t-44 194.5q0 113 44 196t121.5 127t175.5 44q95 0 171 -41t119.5 -118t43.5 -182v-68h-511v-145q31 -37 76.5 -56.5t102.5 -19.5q75 0 131.5 34.5t79.5 94.5h111q-15 -68 -60 -120.5t-113 -82t-149 -29.5q-100 0 -177.5 44.5zM547 412
v136q-29 31 -74 48.5t-100 17.5q-117 0 -177 -71v-131h351z" />
    <glyph glyph-name="oneeighth" unicode="&#x215b;" horiz-adv-x="1016" 
d="M232 210h-98v349h-1q-9 -51 -67 -51h-43v92h43q69 0 69 67v33h97v-490zM624 700h109l-488 -700h-109zM664.5 25.5q-51.5 39.5 -51.5 106.5q0 46 27.5 81t81.5 47v2q-43 11 -67 40t-24 71q0 60 47 95.5t120 35.5t120 -35.5t47 -95.5q0 -42 -24 -71t-67 -40v-2
q54 -12 81 -46.5t27 -81.5q0 -67 -51.5 -106.5t-132.5 -39.5q-82 0 -133.5 39.5zM738 90q23 -20 60 -20t60 20t23 56q0 37 -23.5 58t-59.5 21t-59.5 -21t-23.5 -58q0 -36 23 -56zM748.5 314q19.5 -16 49.5 -16t50 16t20 45t-20 45t-50 16t-49.5 -16t-19.5 -45t19.5 -45z" />
    <glyph glyph-name="threeeighths" unicode="&#x215c;" horiz-adv-x="1173" 
d="M87 239q-52 43 -54 123h102q1 -37 24.5 -59.5t64.5 -22.5q37 0 62.5 19t25.5 57q0 34 -22 53t-60 19h-74v84h63q34 0 54 17t20 44q0 28 -19.5 42.5t-48.5 14.5q-31 0 -50.5 -16t-20.5 -45h-102q2 66 48 105.5t125 39.5q77 0 123 -36.5t46 -93.5q0 -41 -24.5 -71
t-67.5 -39v-2q53 -10 82 -43.5t29 -82.5q0 -69 -53 -109.5t-137 -40.5t-136 43zM781 700h109l-488 -700h-109zM821.5 25.5q-51.5 39.5 -51.5 106.5q0 46 27.5 81t81.5 47v2q-43 11 -67 40t-24 71q0 60 47 95.5t120 35.5t120 -35.5t47 -95.5q0 -42 -24 -71t-67 -40v-2
q54 -12 81 -46.5t27 -81.5q0 -67 -51.5 -106.5t-132.5 -39.5q-82 0 -133.5 39.5zM895 90q23 -20 60 -20t60 20t23 56q0 37 -23.5 58t-59.5 21t-59.5 -21t-23.5 -58q0 -36 23 -56zM905.5 314q19.5 -16 49.5 -16t50 16t20 45t-20 45t-50 16t-49.5 -16t-19.5 -45t19.5 -45z" />
    <glyph glyph-name="fiveeighths" unicode="&#x215d;" horiz-adv-x="1163" 
d="M91 237q-49 41 -58 110h100q2 -30 25 -48.5t55 -18.5q39 0 63.5 25t24.5 65t-24.5 64.5t-62.5 24.5q-46 0 -78 -35h-101l41 276h295v-85h-213l-23 -134h2q19 23 47 36.5t63 13.5q41 0 77 -20t57.5 -56.5t21.5 -84.5q0 -51 -24.5 -91t-68 -61.5t-96.5 -21.5q-74 0 -123 41
zM771 700h109l-488 -700h-109zM811.5 25.5q-51.5 39.5 -51.5 106.5q0 46 27.5 81t81.5 47v2q-43 11 -67 40t-24 71q0 60 47 95.5t120 35.5t120 -35.5t47 -95.5q0 -42 -24 -71t-67 -40v-2q54 -12 81 -46.5t27 -81.5q0 -67 -51.5 -106.5t-132.5 -39.5q-82 0 -133.5 39.5z
M885 90q23 -20 60 -20t60 20t23 56q0 37 -23.5 58t-59.5 21t-59.5 -21t-23.5 -58q0 -36 23 -56zM895.5 314q19.5 -16 49.5 -16t50 16t20 45t-20 45t-50 16t-49.5 -16t-19.5 -45t19.5 -45z" />
    <glyph glyph-name="seveneighths" unicode="&#x215e;" horiz-adv-x="1081" 
d="M85 359.5q25 78.5 71 146.5t106 107v1h-252v86h334v-81q-59 -45 -100 -114.5t-61 -146.5t-20 -148h-103q0 71 25 149.5zM689 700h109l-488 -700h-109zM729.5 25.5q-51.5 39.5 -51.5 106.5q0 46 27.5 81t81.5 47v2q-43 11 -67 40t-24 71q0 60 47 95.5t120 35.5t120 -35.5
t47 -95.5q0 -42 -24 -71t-67 -40v-2q54 -12 81 -46.5t27 -81.5q0 -67 -51.5 -106.5t-132.5 -39.5q-82 0 -133.5 39.5zM803 90q23 -20 60 -20t60 20t23 56q0 37 -23.5 58t-59.5 21t-59.5 -21t-23.5 -58q0 -36 23 -56zM813.5 314q19.5 -16 49.5 -16t50 16t20 45t-20 45t-50 16
t-49.5 -16t-19.5 -45t19.5 -45z" />
    <glyph glyph-name="arrowleft" unicode="&#x2190;" horiz-adv-x="681" 
d="M261.5 173.5q-31.5 56.5 -88 89.5t-133.5 33v109q77 0 133.5 33t88 89.5t37.5 126.5h119q-7 -84 -46.5 -150t-112.5 -94v-2l382 1v-116l-382 1v-3q73 -28 112.5 -94t46.5 -150h-119q-6 70 -37.5 126.5z" />
    <glyph glyph-name="arrowup" unicode="&#x2191;" horiz-adv-x="687" 
d="M166.5 524.5q56.5 31.5 89.5 88t33 133.5h109q0 -77 33 -133.5t89.5 -88t126.5 -37.5v-119q-84 7 -150 46.5t-94 112.5h-2l1 -382h-116l1 382h-3q-28 -73 -94 -112.5t-150 -46.5v119q70 6 126.5 37.5z" />
    <glyph glyph-name="arrowright" unicode="&#x2192;" horiz-adv-x="681" 
d="M309.5 197q39.5 66 112.5 94v3l-382 -1v116l382 -1v2q-73 28 -112.5 94t-46.5 150h119q6 -70 37.5 -126.5t88 -89.5t133.5 -33v-109q-77 0 -133.5 -33t-88 -89.5t-37.5 -126.5h-119q7 84 46.5 150z" />
    <glyph glyph-name="arrowdown" unicode="&#x2193;" horiz-adv-x="687" 
d="M190 285.5q66 -39.5 94 -112.5h3l-1 382h116l-1 -382h2q28 73 94 112.5t150 46.5v-119q-70 -6 -126.5 -37.5t-89.5 -88t-33 -133.5h-109q0 77 -33 133.5t-89.5 88t-126.5 37.5v119q84 -7 150 -46.5z" />
    <glyph glyph-name="arrowboth" unicode="&#x2194;" horiz-adv-x="798" 
d="M141.5 256q-40.5 40 -111.5 45v103q71 5 111.5 45t40.5 99h123q-4 -47 -28 -84.5t-70 -52.5v-3h384v2q-46 16 -70 53.5t-28 84.5h123q0 -59 40.5 -99t111.5 -45v-103q-71 -5 -111.5 -45t-40.5 -99h-123q4 47 28 84.5t70 53.5v2h-384v-2q46 -16 70 -53.5t28 -84.5h-123
q0 59 -40.5 99z" />
    <glyph glyph-name="arrowupdn" unicode="&#x2195;" horiz-adv-x="463" 
d="M136.5 98.5q-37.5 37.5 -94.5 37.5v123q45 -4 80.5 -27t50.5 -68h2v370h-2q-15 -44 -50.5 -67.5t-80.5 -27.5v124q57 0 94.5 37t42.5 103h105q4 -65 42 -102.5t94 -37.5v-124q-44 4 -79.5 27.5t-50.5 67.5h-2v-370h2q15 45 50.5 68t79.5 27v-123q-56 0 -94 -38t-42 -103
h-105q-5 66 -42.5 103.5z" />
    <glyph glyph-name="uni2196" unicode="&#x2196;" horiz-adv-x="578" 
d="M454.5 587.5q-49.5 -21.5 -100.5 -21.5q-48 0 -91 20l-2 -2l271 -270l-82 -82l-270 271l-1 -2q19 -44 19 -90q0 -51 -21 -100.5t-58 -93.5l-85 84q35 40 54 86.5t19 93.5q0 98 -80 179l77 77q80 -79 179 -79q47 0 93.5 19t87.5 53l84 -84q-44 -37 -93.5 -58.5z" />
    <glyph glyph-name="uni2197" unicode="&#x2197;" horiz-adv-x="578" 
d="M201.5 677q46.5 -19 93.5 -19q99 0 179 79l77 -77q-80 -81 -80 -179q0 -47 19 -93.5t54 -86.5l-85 -84q-37 44 -58 93.5t-21 100.5q0 46 19 90l-1 2l-270 -271l-82 82l271 270l-2 2q-43 -20 -91 -20q-51 0 -100.5 21.5t-93.5 58.5l84 84q41 -34 87.5 -53z" />
    <glyph glyph-name="uni2198" unicode="&#x2198;" horiz-adv-x="578" 
d="M123.5 111.5q49.5 21.5 100.5 21.5q48 0 91 -20l2 2l-271 270l82 82l270 -271l1 2q-19 44 -19 90q0 51 21 100.5t58 93.5l85 -84q-35 -40 -54 -86.5t-19 -93.5q0 -98 80 -179l-77 -77q-80 79 -179 79q-47 0 -93.5 -19t-87.5 -53l-84 84q44 37 93.5 58.5z" />
    <glyph glyph-name="uni2199" unicode="&#x2199;" horiz-adv-x="578" 
d="M376.5 22q-46.5 19 -93.5 19q-99 0 -179 -79l-77 77q80 81 80 179q0 47 -19 93.5t-54 86.5l85 84q37 -44 58 -93.5t21 -100.5q0 -46 -19 -90l1 -2l270 271l82 -82l-271 -270l2 -2q43 20 91 20q51 0 100.5 -21.5t93.5 -58.5l-84 -84q-41 34 -87.5 53z" />
    <glyph glyph-name="partialdiff" unicode="&#x2202;" horiz-adv-x="562" 
d="M134.5 16q-51.5 32 -80 89t-28.5 127t30 129.5t81.5 94.5t114.5 35q42 0 78 -16.5t59 -50.5h2q-15 80 -65.5 132.5t-149.5 89.5l51 113q158 -58 233.5 -163t75.5 -254q0 -109 -38.5 -190.5t-104 -124.5t-142.5 -43q-65 0 -116.5 32zM188 120q27 -41 73 -41q38 0 70 27.5
t51 78.5t19 119v18q-19 36 -47.5 55t-63.5 19q-57 0 -93 -42t-36 -123q0 -70 27 -111z" />
    <glyph glyph-name="uni2206" unicode="&#x2206;" horiz-adv-x="663" 
d="M17 99l239 601h151l239 -601v-99h-629v99zM511 100v2l-179 468l-180 -468v-2h359z" />
    <glyph glyph-name="product" unicode="&#x220f;" horiz-adv-x="623" 
d="M606 595h-93v-795h-126v795h-152v-795h-126v795h-93v105h590v-105z" />
    <glyph glyph-name="summation" unicode="&#x2211;" horiz-adv-x="503" 
d="M30 -95l202 365l-202 325v105h453v-102h-307v-1l201 -321v-2l-206 -371v-1h312v-102h-453v105z" />
    <glyph glyph-name="minus" unicode="&#x2212;" horiz-adv-x="550" 
d="M54 345h442v-100h-442v100z" />
    <glyph glyph-name="radical" unicode="&#x221a;" horiz-adv-x="681" 
d="M20 326h120l90 -406h2l180 780h249v-105h-154l-189 -795h-174z" />
    <glyph glyph-name="infinity" unicode="&#x221e;" horiz-adv-x="937" 
d="M573.5 107q-53.5 34 -104.5 93q-52 -60 -106 -93.5t-122 -33.5q-55 0 -101 24t-73.5 70t-27.5 108t27.5 108t73.5 70t101 24q69 0 122.5 -34t104.5 -93q52 60 106 93.5t122 33.5q55 0 101.5 -24t74 -70t27.5 -108t-27.5 -108t-74 -70t-101.5 -24q-69 0 -122.5 34z
M177.5 200.5q28.5 -27.5 71.5 -27.5q42 0 77.5 26t78.5 76q-43 50 -78.5 76t-77.5 26q-43 0 -71.5 -27.5t-28.5 -74.5t28.5 -74.5zM610.5 199q35.5 -26 77.5 -26q43 0 71.5 27.5t28.5 74.5t-28.5 74.5t-71.5 27.5q-42 0 -77.5 -26t-78.5 -76q43 -50 78.5 -76z" />
    <glyph glyph-name="integral" unicode="&#x222b;" horiz-adv-x="616" 
d="M592 800v-101h-89q-37 0 -58 -21t-28 -66l-94 -645q-25 -167 -176 -167h-123v101h90q37 0 58 21t28 66l94 645q25 167 175 167h123z" />
    <glyph glyph-name="approxequal" unicode="&#x2248;" horiz-adv-x="526" 
d="M289.5 327q-25.5 14 -53.5 39q-21 18 -34 26t-29 8q-19 0 -30 -14t-11 -44h-93q0 69 36 113t99 44q37 0 62.5 -14t53.5 -39q21 -18 34 -26t29 -8q19 0 30 14t11 44h93q0 -69 -36 -113t-99 -44q-37 0 -62.5 14zM75 247q36 44 99 44q37 0 62.5 -14t53.5 -39q21 -18 34 -26
t29 -8q19 0 30 14t11 44h93q0 -69 -36 -113t-99 -44q-37 0 -62.5 14t-53.5 39q-21 18 -34 26t-29 8q-19 0 -30 -14t-11 -44h-93q0 69 36 113z" />
    <glyph glyph-name="notequal" unicode="&#x2260;" horiz-adv-x="672" 
d="M205 137h-125v101h179l52 99h-231v101h285l51 97h102l-51 -97h125v-101h-179l-52 -99h231v-101h-285l-51 -97h-102z" />
    <glyph glyph-name="lessequal" unicode="&#x2264;" horiz-adv-x="627" 
d="M50 297v131l527 126v-107l-414 -84l414 -84v-107zM50 128h527v-103h-527v103z" />
    <glyph glyph-name="greaterequal" unicode="&#x2265;" horiz-adv-x="627" 
d="M50 279l414 84l-414 84v107l527 -126v-131l-527 -125v107zM50 128h527v-103h-527v103z" />
    <glyph glyph-name="uni24C5" unicode="&#x24c5;" horiz-adv-x="792" 
d="M214 33.5q-84 49.5 -133 134t-49 183.5t49 183t133 133t183 49q98 0 181.5 -49t132.5 -133t49 -183t-49 -183.5t-132.5 -134t-181.5 -49.5q-99 0 -183 49.5zM146.5 203.5q38.5 -67.5 105 -107t145.5 -39.5t144.5 39.5t104 107t38.5 147.5q0 79 -38.5 146t-104 106.5
t-144.5 39.5t-145.5 -39.5t-105 -106.5t-38.5 -146q0 -80 38.5 -147.5zM267 539h172q68 0 106.5 -35t38.5 -96t-38.5 -95.5t-106.5 -34.5h-78v-115h-94v376zM426 355q30 0 46.5 14t16.5 39q0 24 -16 38.5t-43 14.5h-69v-106h65z" />
    <glyph glyph-name="lozenge" unicode="&#x25ca;" horiz-adv-x="556" 
d="M510 350l-169 -350h-126l-169 350l169 351h126zM278 126l103 224l-103 225l-103 -225z" />
    <glyph glyph-name="uni2E18" unicode="&#x2e18;" horiz-adv-x="642" 
d="M397 255v-83h-132v83l7 107h-2q-9 -18 -30 -34l-17 -14q-57 -43 -57 -112q0 -58 36 -88.5t100 -30.5q67 0 109 33.5t43 97.5h135q-1 -71 -37 -123t-100.5 -79.5t-149.5 -27.5q-86 0 -146.5 27.5t-92 75.5t-31.5 108q0 141 171 211l33 13q24 10 32 21t10 38l2 32h106z
M262 700h138v-134h-138v134z" />
    <glyph glyph-name="uniA78B" unicode="&#xa78b;" horiz-adv-x="237" 
d="M74 578l-14 222h115v-467h-98z" />
    <glyph glyph-name="uniA78C" unicode="&#xa78c;" horiz-adv-x="235" 
d="M74 468l-14 202h115v-387h-98z" />
    <glyph glyph-name="uni004A0301" horiz-adv-x="576" 
d="M83 51q-68 68 -68 194h132q0 -78 30.5 -116.5t86.5 -38.5t86.5 38.5t30.5 116.5v455h132v-458q0 -125 -68 -192t-181 -67t-181 68zM464 919h143l-100 -156h-123z" />
    <glyph glyph-name="uni013B.loclMAH" horiz-adv-x="506" 
d="M493 107v-107h-429v700h132v-593h297zM186 -114h77q10 0 17 5.5t7 15.5q0 9 -7 15t-17 6h-28v40h57q45 0 69.5 -20.5t24.5 -57.5t-25 -60.5t-69 -23.5h-106v80z" />
    <glyph glyph-name="uni0145.loclMAH" horiz-adv-x="729" 
d="M195 511h-2l1 -120v-391h-130v700h165l306 -508h2l-1 120v388h129v-700h-160zM278 -114h77q10 0 17 5.5t7 15.5q0 9 -7 15t-17 6h-28v40h57q45 0 69.5 -20.5t24.5 -57.5t-25 -60.5t-69 -23.5h-106v80z" />
    <glyph glyph-name="Y.ss04" horiz-adv-x="565" 
d="M14 105h236v2l-240 593h143l129 -349h2l128 349h143l-205 -500l43 -114q6 -15 6 -28q0 -25 -17.5 -41.5t-44.5 -16.5h-323v105z" />
    <glyph glyph-name="Yacute.ss04" horiz-adv-x="565" 
d="M14 105h236v2l-240 593h143l129 -349h2l128 349h143l-205 -500l43 -114q6 -15 6 -28q0 -25 -17.5 -41.5t-44.5 -16.5h-323v105zM301 919h143l-100 -156h-123z" />
    <glyph glyph-name="Ycircumflex.ss04" horiz-adv-x="565" 
d="M14 105h236v2l-240 593h143l129 -349h2l128 349h143l-205 -500l43 -114q6 -15 6 -28q0 -25 -17.5 -41.5t-44.5 -16.5h-323v105zM232 919h102l107 -156h-112l-45 68h-2l-45 -68h-112z" />
    <glyph glyph-name="Ydieresis.ss04" horiz-adv-x="565" 
d="M14 105h236v2l-240 593h143l129 -349h2l128 349h143l-205 -500l43 -114q6 -15 6 -28q0 -25 -17.5 -41.5t-44.5 -16.5h-323v105zM134 909h122v-122h-122v122zM310 909h122v-122h-122v122z" />
    <glyph glyph-name="Ygrave.ss04" horiz-adv-x="565" 
d="M14 105h236v2l-240 593h143l129 -349h2l128 349h143l-205 -500l43 -114q6 -15 6 -28q0 -25 -17.5 -41.5t-44.5 -16.5h-323v105zM119 919h143l80 -156h-119z" />
    <glyph glyph-name="uni0232.ss04" horiz-adv-x="565" 
d="M14 105h236v2l-240 593h143l129 -349h2l128 349h143l-205 -500l43 -114q6 -15 6 -28q0 -25 -17.5 -41.5t-44.5 -16.5h-323v105zM137 885h290v-101h-290v101z" />
    <glyph glyph-name="uni1EF8.ss04" horiz-adv-x="565" 
d="M14 105h236v2l-240 593h143l129 -349h2l128 349h143l-205 -500l43 -114q6 -15 6 -28q0 -25 -17.5 -41.5t-44.5 -16.5h-323v105zM311 770.5q-21 11.5 -48 32.5q-17 14 -28.5 21t-23.5 7q-17 0 -28 -14.5t-11 -41.5v-6h-83v21q0 64 32 99t81 35q30 0 52 -11.5t47 -32.5
q18 -14 29 -20.5t23 -6.5q17 0 28 14.5t11 40.5v6h83v-21q0 -65 -32 -99.5t-81 -34.5q-30 0 -51 11.5z" />
    <glyph glyph-name="S.ss05" horiz-adv-x="621" 
d="M58 105h266q57 0 90 27t33 73t-33 73t-90 27h-68q-66 0 -116.5 24.5t-78 69t-27.5 102.5q0 93 65.5 146t173.5 53h284v-105h-283q-47 0 -74.5 -24t-27.5 -66t27.5 -65.5t74.5 -23.5h74q72 0 126.5 -26t83.5 -73t29 -108q0 -65 -32.5 -112t-90.5 -72t-133 -25h-273v105z
" />
    <glyph glyph-name="Sacute.ss05" horiz-adv-x="621" 
d="M58 105h266q57 0 90 27t33 73t-33 73t-90 27h-68q-66 0 -116.5 24.5t-78 69t-27.5 102.5q0 93 65.5 146t173.5 53h284v-105h-283q-47 0 -74.5 -24t-27.5 -66t27.5 -65.5t74.5 -23.5h74q72 0 126.5 -26t83.5 -73t29 -108q0 -65 -32.5 -112t-90.5 -72t-133 -25h-273v105z
M330 919h143l-100 -156h-123z" />
    <glyph glyph-name="Scaron.ss05" horiz-adv-x="621" 
d="M58 105h266q57 0 90 27t33 73t-33 73t-90 27h-68q-66 0 -116.5 24.5t-78 69t-27.5 102.5q0 93 65.5 146t173.5 53h284v-105h-283q-47 0 -74.5 -24t-27.5 -66t27.5 -65.5t74.5 -23.5h74q72 0 126.5 -26t83.5 -73t29 -108q0 -65 -32.5 -112t-90.5 -72t-133 -25h-273v105z
M153 919h112l45 -58h2l45 58h112l-107 -156h-102z" />
    <glyph glyph-name="Scedilla.ss05" horiz-adv-x="621" 
d="M58 105h266q57 0 90 27t33 73t-33 73t-90 27h-68q-66 0 -116.5 24.5t-78 69t-27.5 102.5q0 93 65.5 146t173.5 53h284v-105h-283q-47 0 -74.5 -24t-27.5 -66t27.5 -65.5t74.5 -23.5h74q72 0 126.5 -26t83.5 -73t29 -108q0 -94 -65.5 -149t-173.5 -60v-37q36 -4 55.5 -23
t19.5 -51q0 -37 -25 -60t-69 -23h-105v80h76q10 0 17.5 5.5t7.5 15.5q0 9 -7.5 15t-17.5 6h-28v72h-214v105z" />
    <glyph glyph-name="Scircumflex.ss05" horiz-adv-x="621" 
d="M58 105h266q57 0 90 27t33 73t-33 73t-90 27h-68q-66 0 -116.5 24.5t-78 69t-27.5 102.5q0 93 65.5 146t173.5 53h284v-105h-283q-47 0 -74.5 -24t-27.5 -66t27.5 -65.5t74.5 -23.5h74q72 0 126.5 -26t83.5 -73t29 -108q0 -65 -32.5 -112t-90.5 -72t-133 -25h-273v105z
M260 919h102l107 -156h-112l-45 68h-2l-45 -68h-112z" />
    <glyph glyph-name="uni0218.ss05" horiz-adv-x="621" 
d="M58 105h266q57 0 90 27t33 73t-33 73t-90 27h-68q-66 0 -116.5 24.5t-78 69t-27.5 102.5q0 93 65.5 146t173.5 53h284v-105h-283q-47 0 -74.5 -24t-27.5 -66t27.5 -65.5t74.5 -23.5h74q72 0 126.5 -26t83.5 -73t29 -108q0 -65 -32.5 -112t-90.5 -72t-133 -25h-273v105z
M295.5 -199.5q16.5 12.5 16.5 34.5v5h-62v110h121v-114q0 -50 -33.5 -79t-87.5 -29v60q29 0 45.5 12.5z" />
    <glyph glyph-name="S.ss06" horiz-adv-x="667" 
d="M176 15.5q-67 32.5 -103 91t-39 135.5h136q3 -75 47 -113.5t120 -38.5q74 0 116 32.5t42 84.5q0 45 -32 71.5t-93 26.5h-100q-68 0 -119.5 25t-79 69t-27.5 101q0 92 66 146t182 54h305v-107h-304q-55 0 -84 -23.5t-29 -63.5q0 -41 29 -65.5t81 -24.5h105
q79 0 132.5 -26.5t79.5 -72t26 -102.5q0 -68 -36 -120.5t-103.5 -82t-157.5 -29.5q-93 0 -160 32.5z" />
    <glyph glyph-name="Sacute.ss06" horiz-adv-x="667" 
d="M176 15.5q-67 32.5 -103 91t-39 135.5h136q3 -75 47 -113.5t120 -38.5q74 0 116 32.5t42 84.5q0 45 -32 71.5t-93 26.5h-100q-68 0 -119.5 25t-79 69t-27.5 101q0 92 66 146t182 54h305v-107h-304q-55 0 -84 -23.5t-29 -63.5q0 -41 29 -65.5t81 -24.5h105
q79 0 132.5 -26.5t79.5 -72t26 -102.5q0 -68 -36 -120.5t-103.5 -82t-157.5 -29.5q-93 0 -160 32.5zM357 919h143l-100 -156h-123z" />
    <glyph glyph-name="Scaron.ss06" horiz-adv-x="667" 
d="M176 15.5q-67 32.5 -103 91t-39 135.5h136q3 -75 47 -113.5t120 -38.5q74 0 116 32.5t42 84.5q0 45 -32 71.5t-93 26.5h-100q-68 0 -119.5 25t-79 69t-27.5 101q0 92 66 146t182 54h305v-107h-304q-55 0 -84 -23.5t-29 -63.5q0 -41 29 -65.5t81 -24.5h105
q79 0 132.5 -26.5t79.5 -72t26 -102.5q0 -68 -36 -120.5t-103.5 -82t-157.5 -29.5q-93 0 -160 32.5zM180 919h112l45 -58h2l45 58h112l-107 -156h-102z" />
    <glyph glyph-name="Scedilla.ss06" horiz-adv-x="667" 
d="M251 -194v80h76q10 0 17.5 5.5t7.5 15.5q0 9 -7.5 15t-17.5 6h-28v56q-122 10 -191 79t-74 179h136q3 -75 47 -113.5t120 -38.5q74 0 116 32.5t42 84.5q0 45 -32 71.5t-93 26.5h-100q-68 0 -119.5 25t-79 69t-27.5 101q0 92 66 146t182 54h305v-107h-304q-55 0 -84 -23.5
t-29 -63.5q0 -41 29 -65.5t81 -24.5h105q79 0 132.5 -26.5t79.5 -72t26 -102.5q0 -63 -31 -113t-89.5 -80.5t-137.5 -36.5v-22q36 -4 55.5 -23t19.5 -51q0 -37 -25 -60t-69 -23h-105z" />
    <glyph glyph-name="Scircumflex.ss06" horiz-adv-x="667" 
d="M176 15.5q-67 32.5 -103 91t-39 135.5h136q3 -75 47 -113.5t120 -38.5q74 0 116 32.5t42 84.5q0 45 -32 71.5t-93 26.5h-100q-68 0 -119.5 25t-79 69t-27.5 101q0 92 66 146t182 54h305v-107h-304q-55 0 -84 -23.5t-29 -63.5q0 -41 29 -65.5t81 -24.5h105
q79 0 132.5 -26.5t79.5 -72t26 -102.5q0 -68 -36 -120.5t-103.5 -82t-157.5 -29.5q-93 0 -160 32.5zM287 919h102l107 -156h-112l-45 68h-2l-45 -68h-112z" />
    <glyph glyph-name="uni0218.ss06" horiz-adv-x="667" 
d="M176 15.5q-67 32.5 -103 91t-39 135.5h136q3 -75 47 -113.5t120 -38.5q74 0 116 32.5t42 84.5q0 45 -32 71.5t-93 26.5h-100q-68 0 -119.5 25t-79 69t-27.5 101q0 92 66 146t182 54h305v-107h-304q-55 0 -84 -23.5t-29 -63.5q0 -41 29 -65.5t81 -24.5h105
q79 0 132.5 -26.5t79.5 -72t26 -102.5q0 -68 -36 -120.5t-103.5 -82t-157.5 -29.5q-93 0 -160 32.5zM322.5 -199.5q16.5 12.5 16.5 34.5v5h-62v110h121v-114q0 -50 -33.5 -79t-87.5 -29v60q29 0 45.5 12.5z" />
    <glyph glyph-name="G.ss07" horiz-adv-x="753" 
d="M193 44.5q-76 44.5 -118.5 126.5t-42.5 190q0 105 41.5 185.5t119 125t183.5 44.5q97 0 168 -37.5t110.5 -102t45.5 -144.5h-135q-5 79 -54.5 128.5t-134.5 49.5q-95 0 -149.5 -66t-54.5 -183q0 -80 26.5 -137.5t73.5 -87t107 -29.5h181v138h-194v103h275q23 0 38 -15
t15 -38v-242q0 -22 -15 -37.5t-38 -15.5h-275q-97 0 -173 44.5z" />
    <glyph glyph-name="Gbreve.ss07" horiz-adv-x="753" 
d="M193 44.5q-76 44.5 -118.5 126.5t-42.5 190q0 105 41.5 185.5t119 125t183.5 44.5q97 0 168 -37.5t110.5 -102t45.5 -144.5h-135q-5 79 -54.5 128.5t-134.5 49.5q-95 0 -149.5 -66t-54.5 -183q0 -80 26.5 -137.5t73.5 -87t107 -29.5h181v138h-194v103h275q23 0 38 -15
t15 -38v-242q0 -22 -15 -37.5t-38 -15.5h-275q-97 0 -173 44.5zM267 805q-38 42 -38 114h101q0 -68 45 -68t45 68h101q0 -72 -38 -114t-108 -42t-108 42z" />
    <glyph glyph-name="Gcaron.ss07" horiz-adv-x="753" 
d="M193 44.5q-76 44.5 -118.5 126.5t-42.5 190q0 105 41.5 185.5t119 125t183.5 44.5q97 0 168 -37.5t110.5 -102t45.5 -144.5h-135q-5 79 -54.5 128.5t-134.5 49.5q-95 0 -149.5 -66t-54.5 -183q0 -80 26.5 -137.5t73.5 -87t107 -29.5h181v138h-194v103h275q23 0 38 -15
t15 -38v-242q0 -22 -15 -37.5t-38 -15.5h-275q-97 0 -173 44.5zM217 919h112l45 -58h2l45 58h112l-107 -156h-102z" />
    <glyph glyph-name="Gcircumflex.ss07" horiz-adv-x="753" 
d="M193 44.5q-76 44.5 -118.5 126.5t-42.5 190q0 105 41.5 185.5t119 125t183.5 44.5q97 0 168 -37.5t110.5 -102t45.5 -144.5h-135q-5 79 -54.5 128.5t-134.5 49.5q-95 0 -149.5 -66t-54.5 -183q0 -80 26.5 -137.5t73.5 -87t107 -29.5h181v138h-194v103h275q23 0 38 -15
t15 -38v-242q0 -22 -15 -37.5t-38 -15.5h-275q-97 0 -173 44.5zM324 919h102l107 -156h-112l-45 68h-2l-45 -68h-112z" />
    <glyph glyph-name="uni0122.ss07" horiz-adv-x="753" 
d="M193 44.5q-76 44.5 -118.5 126.5t-42.5 190q0 105 41.5 185.5t119 125t183.5 44.5q97 0 168 -37.5t110.5 -102t45.5 -144.5h-135q-5 79 -54.5 128.5t-134.5 49.5q-95 0 -149.5 -66t-54.5 -183q0 -80 26.5 -137.5t73.5 -87t107 -29.5h181v138h-194v103h275q23 0 38 -15
t15 -38v-242q0 -22 -15 -37.5t-38 -15.5h-275q-97 0 -173 44.5zM370.5 -199.5q16.5 12.5 16.5 34.5v5h-62v110h121v-114q0 -50 -33.5 -79t-87.5 -29v60q29 0 45.5 12.5z" />
    <glyph glyph-name="Gdotaccent.ss07" horiz-adv-x="753" 
d="M193 44.5q-76 44.5 -118.5 126.5t-42.5 190q0 105 41.5 185.5t119 125t183.5 44.5q97 0 168 -37.5t110.5 -102t45.5 -144.5h-135q-5 79 -54.5 128.5t-134.5 49.5q-95 0 -149.5 -66t-54.5 -183q0 -80 26.5 -137.5t73.5 -87t107 -29.5h181v138h-194v103h275q23 0 38 -15
t15 -38v-242q0 -22 -15 -37.5t-38 -15.5h-275q-97 0 -173 44.5zM311 909h129v-122h-129v122z" />
    <glyph glyph-name="uni1E20.ss07" horiz-adv-x="753" 
d="M193 44.5q-76 44.5 -118.5 126.5t-42.5 190q0 105 41.5 185.5t119 125t183.5 44.5q97 0 168 -37.5t110.5 -102t45.5 -144.5h-135q-5 79 -54.5 128.5t-134.5 49.5q-95 0 -149.5 -66t-54.5 -183q0 -80 26.5 -137.5t73.5 -87t107 -29.5h181v138h-194v103h275q23 0 38 -15
t15 -38v-242q0 -22 -15 -37.5t-38 -15.5h-275q-97 0 -173 44.5zM230 885h290v-101h-290v101z" />
    <glyph glyph-name="uni01E4.ss07" horiz-adv-x="754" 
d="M193 44.5q-76 44.5 -118.5 126.5t-42.5 190q0 105 41.5 185.5t120 125t185.5 44.5q96 0 166.5 -32.5t109.5 -88t45 -123.5h-135q-5 60 -54 99t-132 39q-97 0 -152 -66t-55 -183q0 -80 26.5 -137.5t73.5 -87t107 -29.5h189v65h-198v82h198v64h-202v84h275q23 0 38 -15
t15 -38v-95h49v-82h-49v-119q0 -22 -15 -37.5t-38 -15.5h-275q-97 0 -173 44.5z" />
    <glyph glyph-name="E.ss08" 
d="M90.5 407q-33.5 42 -33.5 102q0 56 28 99t82 67.5t130 24.5h271v-103h-250q-61 0 -94 -25.5t-33 -72.5t33 -72t94 -25h236v-103h-236q-61 0 -94 -25.5t-33 -72.5t33 -72.5t94 -25.5h258v-103h-279q-76 0 -130 24.5t-82 67.5t-28 99q0 60 33.5 102t106.5 56v2
q-73 14 -106.5 56z" />
    <glyph glyph-name="Eacute.ss08" 
d="M90.5 407q-33.5 42 -33.5 102q0 56 28 99t82 67.5t130 24.5h271v-103h-250q-61 0 -94 -25.5t-33 -72.5t33 -72t94 -25h236v-103h-236q-61 0 -94 -25.5t-33 -72.5t33 -72.5t94 -25.5h258v-103h-279q-76 0 -130 24.5t-82 67.5t-28 99q0 60 33.5 102t106.5 56v2
q-73 14 -106.5 56zM363 919h143l-100 -156h-123z" />
    <glyph glyph-name="Ebreve.ss08" 
d="M90.5 407q-33.5 42 -33.5 102q0 56 28 99t82 67.5t130 24.5h271v-103h-250q-61 0 -94 -25.5t-33 -72.5t33 -72t94 -25h236v-103h-236q-61 0 -94 -25.5t-33 -72.5t33 -72.5t94 -25.5h258v-103h-279q-76 0 -130 24.5t-82 67.5t-28 99q0 60 33.5 102t106.5 56v2
q-73 14 -106.5 56zM236 805q-38 42 -38 114h101q0 -68 45 -68t45 68h101q0 -72 -38 -114t-108 -42t-108 42z" />
    <glyph glyph-name="Ecaron.ss08" 
d="M90.5 407q-33.5 42 -33.5 102q0 56 28 99t82 67.5t130 24.5h271v-103h-250q-61 0 -94 -25.5t-33 -72.5t33 -72t94 -25h236v-103h-236q-61 0 -94 -25.5t-33 -72.5t33 -72.5t94 -25.5h258v-103h-279q-76 0 -130 24.5t-82 67.5t-28 99q0 60 33.5 102t106.5 56v2
q-73 14 -106.5 56zM186 919h112l45 -58h2l45 58h112l-107 -156h-102z" />
    <glyph glyph-name="Ecircumflex.ss08" 
d="M90.5 407q-33.5 42 -33.5 102q0 56 28 99t82 67.5t130 24.5h271v-103h-250q-61 0 -94 -25.5t-33 -72.5t33 -72t94 -25h236v-103h-236q-61 0 -94 -25.5t-33 -72.5t33 -72.5t94 -25.5h258v-103h-279q-76 0 -130 24.5t-82 67.5t-28 99q0 60 33.5 102t106.5 56v2
q-73 14 -106.5 56zM293 919h102l107 -156h-112l-45 68h-2l-45 -68h-112z" />
    <glyph glyph-name="Edieresis.ss08" 
d="M90.5 407q-33.5 42 -33.5 102q0 56 28 99t82 67.5t130 24.5h271v-103h-250q-61 0 -94 -25.5t-33 -72.5t33 -72t94 -25h236v-103h-236q-61 0 -94 -25.5t-33 -72.5t33 -72.5t94 -25.5h258v-103h-279q-76 0 -130 24.5t-82 67.5t-28 99q0 60 33.5 102t106.5 56v2
q-73 14 -106.5 56zM195 909h122v-122h-122v122zM371 909h122v-122h-122v122z" />
    <glyph glyph-name="Edotaccent.ss08" 
d="M90.5 407q-33.5 42 -33.5 102q0 56 28 99t82 67.5t130 24.5h271v-103h-250q-61 0 -94 -25.5t-33 -72.5t33 -72t94 -25h236v-103h-236q-61 0 -94 -25.5t-33 -72.5t33 -72.5t94 -25.5h258v-103h-279q-76 0 -130 24.5t-82 67.5t-28 99q0 60 33.5 102t106.5 56v2
q-73 14 -106.5 56zM279 909h129v-122h-129v122z" />
    <glyph glyph-name="uni1EB8.ss08" 
d="M90.5 407q-33.5 42 -33.5 102q0 56 28 99t82 67.5t130 24.5h271v-103h-250q-61 0 -94 -25.5t-33 -72.5t33 -72t94 -25h236v-103h-236q-61 0 -94 -25.5t-33 -72.5t33 -72.5t94 -25.5h258v-103h-279q-76 0 -130 24.5t-82 67.5t-28 99q0 60 33.5 102t106.5 56v2
q-73 14 -106.5 56zM278 -57h132v-117h-132v117z" />
    <glyph glyph-name="Egrave.ss08" 
d="M90.5 407q-33.5 42 -33.5 102q0 56 28 99t82 67.5t130 24.5h271v-103h-250q-61 0 -94 -25.5t-33 -72.5t33 -72t94 -25h236v-103h-236q-61 0 -94 -25.5t-33 -72.5t33 -72.5t94 -25.5h258v-103h-279q-76 0 -130 24.5t-82 67.5t-28 99q0 60 33.5 102t106.5 56v2
q-73 14 -106.5 56zM181 919h143l80 -156h-119z" />
    <glyph glyph-name="Emacron.ss08" 
d="M90.5 407q-33.5 42 -33.5 102q0 56 28 99t82 67.5t130 24.5h271v-103h-250q-61 0 -94 -25.5t-33 -72.5t33 -72t94 -25h236v-103h-236q-61 0 -94 -25.5t-33 -72.5t33 -72.5t94 -25.5h258v-103h-279q-76 0 -130 24.5t-82 67.5t-28 99q0 60 33.5 102t106.5 56v2
q-73 14 -106.5 56zM199 885h290v-101h-290v101z" />
    <glyph glyph-name="Eogonek.ss08" 
d="M90.5 407q-33.5 42 -33.5 102q0 56 28 99t82 67.5t130 24.5h271v-103h-250q-61 0 -94 -25.5t-33 -72.5t33 -72t94 -25h236v-103h-236q-61 0 -94 -25.5t-33 -72.5t33 -72.5t94 -25.5h258v-102l4 -1h-1q-18 0 -30.5 -13t-12.5 -32q0 -24 18.5 -38t46.5 -14h13v-93h-29
q-67 0 -101.5 27t-34.5 72q0 28 14.5 51.5t41.5 37.5v2h-208q-76 0 -130 24.5t-82 67.5t-28 99q0 60 33.5 102t106.5 56v2q-73 14 -106.5 56z" />
    <glyph glyph-name="uni1EBC.ss08" 
d="M90.5 407q-33.5 42 -33.5 102q0 56 28 99t82 67.5t130 24.5h271v-103h-250q-61 0 -94 -25.5t-33 -72.5t33 -72t94 -25h236v-103h-236q-61 0 -94 -25.5t-33 -72.5t33 -72.5t94 -25.5h258v-103h-279q-76 0 -130 24.5t-82 67.5t-28 99q0 60 33.5 102t106.5 56v2
q-73 14 -106.5 56zM373 770.5q-21 11.5 -48 32.5q-17 14 -28.5 21t-23.5 7q-17 0 -28 -14.5t-11 -41.5v-6h-83v21q0 64 32 99t81 35q30 0 52 -11.5t47 -32.5q18 -14 29 -20.5t23 -6.5q17 0 28 14.5t11 40.5v6h83v-21q0 -65 -32 -99.5t-81 -34.5q-30 0 -51 11.5z" />
    <glyph glyph-name="F.ss08" horiz-adv-x="573" 
d="M94.5 405q-34.5 41 -34.5 104q0 56 28 99t82 67.5t130 24.5h271v-103h-250q-61 0 -94 -25.5t-33 -72.5t33 -72t94 -25h236v-103h-236q-59 0 -90 -26.5t-31 -77.5v-195h-132v188q0 65 31 105.5t101 54.5v2q-71 14 -105.5 55z" />
    <glyph glyph-name="Y.ss09" horiz-adv-x="644" 
d="M59 107h389v153h-334q-25 0 -40 14.5t-15 38.5v387h132v-333h257v333h132v-647q0 -22 -15 -37.5t-38 -15.5h-468v107z" />
    <glyph glyph-name="Yacute.ss09" horiz-adv-x="644" 
d="M59 107h389v153h-334q-25 0 -40 14.5t-15 38.5v387h132v-333h257v333h132v-647q0 -22 -15 -37.5t-38 -15.5h-468v107zM341 919h143l-100 -156h-123z" />
    <glyph glyph-name="Ycircumflex.ss09" horiz-adv-x="644" 
d="M59 107h389v153h-334q-25 0 -40 14.5t-15 38.5v387h132v-333h257v333h132v-647q0 -22 -15 -37.5t-38 -15.5h-468v107zM271 919h102l107 -156h-112l-45 68h-2l-45 -68h-112z" />
    <glyph glyph-name="Ydieresis.ss09" horiz-adv-x="644" 
d="M59 107h389v153h-334q-25 0 -40 14.5t-15 38.5v387h132v-333h257v333h132v-647q0 -22 -15 -37.5t-38 -15.5h-468v107zM173 909h122v-122h-122v122zM349 909h122v-122h-122v122z" />
    <glyph glyph-name="Ygrave.ss09" horiz-adv-x="644" 
d="M59 107h389v153h-334q-25 0 -40 14.5t-15 38.5v387h132v-333h257v333h132v-647q0 -22 -15 -37.5t-38 -15.5h-468v107zM159 919h143l80 -156h-119z" />
    <glyph glyph-name="uni0232.ss09" horiz-adv-x="644" 
d="M59 107h389v153h-334q-25 0 -40 14.5t-15 38.5v387h132v-333h257v333h132v-647q0 -22 -15 -37.5t-38 -15.5h-468v107zM177 885h290v-101h-290v101z" />
    <glyph glyph-name="uni1EF8.ss09" horiz-adv-x="644" 
d="M59 107h389v153h-334q-25 0 -40 14.5t-15 38.5v387h132v-333h257v333h132v-647q0 -22 -15 -37.5t-38 -15.5h-468v107zM351 770.5q-21 11.5 -48 32.5q-17 14 -28.5 21t-23.5 7q-17 0 -28 -14.5t-11 -41.5v-6h-83v21q0 64 32 99t81 35q30 0 52 -11.5t47 -32.5
q18 -14 29 -20.5t23 -6.5q17 0 28 14.5t11 40.5v6h83v-21q0 -65 -32 -99.5t-81 -34.5q-30 0 -51 11.5z" />
    <glyph glyph-name="Q.ss10" horiz-adv-x="756" 
d="M270 -186q-17 14 -17 38q0 11 7 32l41 106q-79 16 -139.5 62.5t-95 122t-34.5 175.5q0 115 45.5 198t124.5 126t176 43q98 0 176.5 -43t124 -125.5t45.5 -198.5q0 -107 -39.5 -186t-108 -124.5t-156.5 -54.5l-31 -82h178v-103h-250q-30 0 -47 14zM228.5 156
q56.5 -66 149.5 -66t149.5 66t56.5 194t-56.5 194t-149.5 66t-149.5 -66t-56.5 -194t56.5 -194z" />
    <glyph glyph-name="Aacute.ss11" horiz-adv-x="690" 
d="M279 700h132l264 -700h-140l-57 163h-268l-57 -163h-138zM441 269l-33 96q-25 74 -63 197h-2q-38 -123 -65 -202l-32 -91h195zM515 831v-25l-231 -38v10z" />
    <glyph glyph-name="Abreve.ss11" horiz-adv-x="690" 
d="M279 700h132l264 -700h-140l-57 163h-268l-57 -163h-138zM441 269l-33 96q-25 74 -63 197h-2q-38 -123 -65 -202l-32 -91h195zM415 777.5q-29 -23.5 -71 -23.5t-71 23.5t-38 60.5h10q11 -28 37 -44t62 -16t62 16t37 44h10q-9 -37 -38 -60.5z" />
    <glyph glyph-name="Acircumflex.ss11" horiz-adv-x="690" 
d="M279 700h132l264 -700h-140l-57 163h-268l-57 -163h-138zM441 269l-33 96q-25 74 -63 197h-2q-38 -123 -65 -202l-32 -91h195zM226 771l115 61h5l115 -61v-10l-117 47h-1l-117 -47v10z" />
    <glyph glyph-name="uni1EAC.ss11" horiz-adv-x="690" 
d="M279 700h132l264 -700h-140l-57 163h-268l-57 -163h-138zM226 771l115 61h5l115 -61v-10l-117 47h-1l-117 -47v10zM441 269l-33 96q-25 74 -63 197h-2q-38 -123 -65 -202l-32 -91h195zM326 -62h36v-46h-36v46z" />
    <glyph glyph-name="Adieresis.ss11" horiz-adv-x="690" 
d="M279 700h132l264 -700h-140l-57 163h-268l-57 -163h-138zM441 269l-33 96q-25 74 -63 197h-2q-38 -123 -65 -202l-32 -91h195zM384 829h36v-36h-36v36zM268 829h36v-36h-36v36z" />
    <glyph glyph-name="uni1EA0.ss11" horiz-adv-x="690" 
d="M279 700h132l264 -700h-140l-57 163h-268l-57 -163h-138zM441 269l-33 96q-25 74 -63 197h-2q-38 -123 -65 -202l-32 -91h195zM326 -62h36v-46h-36v46z" />
    <glyph glyph-name="Agrave.ss11" horiz-adv-x="690" 
d="M279 700h132l264 -700h-140l-57 163h-268l-57 -163h-138zM441 269l-33 96q-25 74 -63 197h-2q-38 -123 -65 -202l-32 -91h195zM404 768l-231 38v25l231 -53v-10z" />
    <glyph glyph-name="Amacron.ss11" horiz-adv-x="690" 
d="M279 700h132l264 -700h-140l-57 163h-268l-57 -163h-138zM441 269l-33 96q-25 74 -63 197h-2q-38 -123 -65 -202l-32 -91h195zM219 820h250v-24h-250v24z" />
    <glyph glyph-name="Aogonek.ss11" horiz-adv-x="690" 
d="M279 700h132l264 -700h-2l-16 -8q-19 -9 -30 -26t-11 -38q0 -30 24 -49t66 -19h13v-30h-18q-48 0 -77 23.5t-29 61.5q0 26 14 48t39 35v2h-113l-57 163h-268l-57 -163h-138zM441 269l-33 96q-25 74 -63 197h-2q-38 -123 -65 -202l-32 -91h195z" />
    <glyph glyph-name="Aring.ss11" horiz-adv-x="690" 
d="M279 700h132l264 -700h-140l-57 163h-268l-57 -163h-138zM441 269l-33 96q-25 74 -63 197h-2q-38 -123 -65 -202l-32 -91h195zM296 763q-20 20 -20 48q0 29 20 49t48 20t48 -20t20 -49q0 -28 -19.5 -48t-48.5 -20q-28 0 -48 20zM308 768q15 -15 36 -15t36 15t15 36
t-15 36.5t-36 15.5t-36 -15.5t-15 -36.5t15 -36z" />
    <glyph glyph-name="Atilde.ss11" horiz-adv-x="690" 
d="M279 700h132l264 -700h-140l-57 163h-268l-57 -163h-138zM441 269l-33 96q-25 74 -63 197h-2q-38 -123 -65 -202l-32 -91h195zM374.5 757.5q-16.5 11.5 -38.5 35.5q-18 21 -32.5 31.5t-34.5 10.5q-28 0 -47.5 -22t-19.5 -62h-10q0 49 22 77t58 28q25 0 42 -12t37 -35
q21 -22 34.5 -32t33.5 -10q28 0 47.5 22t19.5 62h10q0 -50 -21.5 -77.5t-58.5 -27.5q-25 0 -41.5 11.5z" />
    <glyph glyph-name="AEacute.ss11" horiz-adv-x="947" 
d="M467 175h-246l-73 -175h-133l306 700h603v-103h-325v-193h286v-103h-286v-198h326v-103h-458v175zM467 278v319h-69l-134 -319h203zM707 831v-25l-231 -38v10z" />
    <glyph glyph-name="Cacute.ss11" horiz-adv-x="739" 
d="M198 28.5q-79 45.5 -122.5 128.5t-43.5 194t42 194t120.5 127.5t185.5 44.5q98 0 169 -37.5t111 -101.5t47 -143h-138q-6 75 -55 125t-134 50q-98 0 -153 -67t-55 -192q0 -82 26.5 -141t73.5 -89.5t108 -30.5q56 0 97 24t64 62.5t28 81.5h138q-9 -76 -49.5 -138.5
t-111 -99.5t-166.5 -37q-103 0 -182 45.5zM551 831v-25l-231 -38v10z" />
    <glyph glyph-name="Ccaron.ss11" horiz-adv-x="739" 
d="M198 28.5q-79 45.5 -122.5 128.5t-43.5 194t42 194t120.5 127.5t185.5 44.5q98 0 169 -37.5t111 -101.5t47 -143h-138q-6 75 -55 125t-134 50q-98 0 -153 -67t-55 -192q0 -82 26.5 -141t73.5 -89.5t108 -30.5q56 0 97 24t64 62.5t28 81.5h138q-9 -76 -49.5 -138.5
t-111 -99.5t-166.5 -37q-103 0 -182 45.5zM262 822v10l117 -47h1l117 47v-10l-115 -61h-5z" />
    <glyph glyph-name="Ccedilla.ss11" horiz-adv-x="739" 
d="M315 -170v25h75q24 0 37.5 12t13.5 31t-13.5 30.5t-37.5 11.5h-22v43q-100 3 -176 49t-118 128.5t-42 190.5q0 111 42 194t120.5 127.5t185.5 44.5q98 0 169 -37.5t111 -101.5t47 -143h-138q-6 75 -55 125t-134 50q-98 0 -153 -67t-55 -192q0 -82 26.5 -141t73.5 -89.5
t108 -30.5q56 0 97 24t64 62.5t28 81.5h138q-9 -74 -48 -135.5t-107 -99.5t-160 -40v-32h4q34 0 54 -15t20 -44q0 -30 -21 -46t-54 -16h-80z" />
    <glyph glyph-name="Ccircumflex.ss11" horiz-adv-x="739" 
d="M198 28.5q-79 45.5 -122.5 128.5t-43.5 194t42 194t120.5 127.5t185.5 44.5q98 0 169 -37.5t111 -101.5t47 -143h-138q-6 75 -55 125t-134 50q-98 0 -153 -67t-55 -192q0 -82 26.5 -141t73.5 -89.5t108 -30.5q56 0 97 24t64 62.5t28 81.5h138q-9 -76 -49.5 -138.5
t-111 -99.5t-166.5 -37q-103 0 -182 45.5zM262 771l115 61h5l115 -61v-10l-117 47h-1l-117 -47v10z" />
    <glyph glyph-name="Cdotaccent.ss11" horiz-adv-x="739" 
d="M198 28.5q-79 45.5 -122.5 128.5t-43.5 194t42 194t120.5 127.5t185.5 44.5q98 0 169 -37.5t111 -101.5t47 -143h-138q-6 75 -55 125t-134 50q-98 0 -153 -67t-55 -192q0 -82 26.5 -141t73.5 -89.5t108 -30.5q56 0 97 24t64 62.5t28 81.5h138q-9 -76 -49.5 -138.5
t-111 -99.5t-166.5 -37q-103 0 -182 45.5zM361 828h36v-36h-36v36z" />
    <glyph glyph-name="Eth.ss11" horiz-adv-x="711" 
d="M196 336v-229h129q99 0 156.5 62.5t57.5 180.5q0 119 -57.5 181t-156.5 62h-129v-231h75v-26h-75zM6 362h58v338h273q99 0 176.5 -41.5t121.5 -120.5t44 -188t-44 -188t-121.5 -120.5t-176.5 -41.5h-273v336h-58v26z" />
    <glyph glyph-name="Dcaron.ss11" horiz-adv-x="711" 
d="M64 700h273q99 0 176.5 -41.5t121.5 -120.5t44 -188t-44 -188t-121.5 -120.5t-176.5 -41.5h-273v700zM325 107q99 0 156.5 62.5t57.5 180.5q0 119 -57.5 181t-156.5 62h-129v-486h129zM207 822v10l117 -47h1l117 47v-10l-115 -61h-5z" />
    <glyph glyph-name="Dcroat.ss11" horiz-adv-x="711" 
d="M196 336v-229h129q99 0 156.5 62.5t57.5 180.5q0 119 -57.5 181t-156.5 62h-129v-231h75v-26h-75zM6 362h58v338h273q99 0 176.5 -41.5t121.5 -120.5t44 -188t-44 -188t-121.5 -120.5t-176.5 -41.5h-273v336h-58v26z" />
    <glyph glyph-name="Eacute.ss11" horiz-adv-x="583" 
d="M64 700h496v-103h-364v-193h325v-103h-325v-198h365v-103h-497v700zM487 831v-25l-231 -38v10z" />
    <glyph glyph-name="Ebreve.ss11" horiz-adv-x="583" 
d="M64 700h496v-103h-364v-193h325v-103h-325v-198h365v-103h-497v700zM387 777.5q-29 -23.5 -71 -23.5t-71 23.5t-38 60.5h10q11 -28 37 -44t62 -16t62 16t37 44h10q-9 -37 -38 -60.5z" />
    <glyph glyph-name="Ecaron.ss11" horiz-adv-x="583" 
d="M64 700h496v-103h-364v-193h325v-103h-325v-198h365v-103h-497v700zM198 822v10l117 -47h1l117 47v-10l-115 -61h-5z" />
    <glyph glyph-name="Ecircumflex.ss11" horiz-adv-x="583" 
d="M64 700h496v-103h-364v-193h325v-103h-325v-198h365v-103h-497v700zM198 771l115 61h5l115 -61v-10l-117 47h-1l-117 -47v10z" />
    <glyph glyph-name="Edieresis.ss11" horiz-adv-x="583" 
d="M64 700h496v-103h-364v-193h325v-103h-325v-198h365v-103h-497v700zM356 829h36v-36h-36v36zM240 829h36v-36h-36v36z" />
    <glyph glyph-name="Edotaccent.ss11" horiz-adv-x="583" 
d="M64 700h496v-103h-364v-193h325v-103h-325v-198h365v-103h-497v700zM297 828h36v-36h-36v36z" />
    <glyph glyph-name="uni1EB8.ss11" horiz-adv-x="583" 
d="M64 700h496v-103h-364v-193h325v-103h-325v-198h365v-103h-497v700zM298 -62h36v-46h-36v46z" />
    <glyph glyph-name="Egrave.ss11" horiz-adv-x="583" 
d="M64 700h496v-103h-364v-193h325v-103h-325v-198h365v-103h-497v700zM376 768l-231 38v25l231 -53v-10z" />
    <glyph glyph-name="Emacron.ss11" horiz-adv-x="583" 
d="M64 700h496v-103h-364v-193h325v-103h-325v-198h365v-103h-497v700zM191 820h250v-24h-250v24z" />
    <glyph glyph-name="Eogonek.ss11" horiz-adv-x="583" 
d="M64 700h496v-103h-364v-193h325v-103h-325v-198h365v-103h-9l-16 -8q-19 -9 -30 -26t-11 -38q0 -30 24 -49t66 -19h13v-30h-18q-48 0 -77 23.5t-29 61.5q0 26 14 48t39 35v2h-463v700z" />
    <glyph glyph-name="uni1EBC.ss11" horiz-adv-x="583" 
d="M64 700h496v-103h-364v-193h325v-103h-325v-198h365v-103h-497v700zM346.5 757.5q-16.5 11.5 -38.5 35.5q-18 21 -32.5 31.5t-34.5 10.5q-28 0 -47.5 -22t-19.5 -62h-10q0 49 22 77t58 28q25 0 42 -12t37 -35q21 -22 34.5 -32t33.5 -10q28 0 47.5 22t19.5 62h10
q0 -50 -21.5 -77.5t-58.5 -27.5q-25 0 -41.5 11.5z" />
    <glyph glyph-name="Gbreve.ss11" horiz-adv-x="753" 
d="M191.5 28.5q-74.5 45.5 -117 129.5t-42.5 193q0 108 41.5 191t119 129t183.5 46q96 0 168 -38t111 -103t43 -144h-135q-2 50 -25 90.5t-65 64t-97 23.5q-95 0 -149.5 -68.5t-54.5 -190.5q0 -82 26.5 -141t73.5 -89.5t107 -30.5q54 0 95.5 22.5t66.5 59t31 77.5h-206v102
h279q26 0 40.5 -14t14.5 -39v-298h-117l17 129h-2q-31 -71 -92 -108.5t-146 -37.5q-94 0 -168.5 45.5zM445 777.5q-29 -23.5 -71 -23.5t-71 23.5t-38 60.5h10q11 -28 37 -44t62 -16t62 16t37 44h10q-9 -37 -38 -60.5z" />
    <glyph glyph-name="Gcaron.ss11" horiz-adv-x="753" 
d="M191.5 28.5q-74.5 45.5 -117 129.5t-42.5 193q0 108 41.5 191t119 129t183.5 46q96 0 168 -38t111 -103t43 -144h-135q-2 50 -25 90.5t-65 64t-97 23.5q-95 0 -149.5 -68.5t-54.5 -190.5q0 -82 26.5 -141t73.5 -89.5t107 -30.5q54 0 95.5 22.5t66.5 59t31 77.5h-206v102
h279q26 0 40.5 -14t14.5 -39v-298h-117l17 129h-2q-31 -71 -92 -108.5t-146 -37.5q-94 0 -168.5 45.5zM256 822v10l117 -47h1l117 47v-10l-115 -61h-5z" />
    <glyph glyph-name="Gcircumflex.ss11" horiz-adv-x="753" 
d="M191.5 28.5q-74.5 45.5 -117 129.5t-42.5 193q0 108 41.5 191t119 129t183.5 46q96 0 168 -38t111 -103t43 -144h-135q-2 50 -25 90.5t-65 64t-97 23.5q-95 0 -149.5 -68.5t-54.5 -190.5q0 -82 26.5 -141t73.5 -89.5t107 -30.5q54 0 95.5 22.5t66.5 59t31 77.5h-206v102
h279q26 0 40.5 -14t14.5 -39v-298h-117l17 129h-2q-31 -71 -92 -108.5t-146 -37.5q-94 0 -168.5 45.5zM256 771l115 61h5l115 -61v-10l-117 47h-1l-117 -47v10z" />
    <glyph glyph-name="uni0122.ss11" horiz-adv-x="753" 
d="M377 -132v6h-31v55h45v-61q0 -26 -13.5 -42t-41.5 -16v14q41 0 41 44zM73.5 542q41.5 83 119 129t183.5 46q96 0 168 -38t111 -103t43 -144h-135q-2 50 -25 90.5t-65 64t-97 23.5q-95 0 -149.5 -68.5t-54.5 -190.5q0 -82 26.5 -141t73.5 -89.5t107 -30.5q54 0 95.5 22.5
t66.5 59t31 77.5h-206v102h279q26 0 40.5 -14t14.5 -39v-298h-117l17 129h-2q-31 -71 -92 -108.5t-146 -37.5q-94 0 -168.5 45.5t-117 129.5t-42.5 193q0 108 41.5 191z" />
    <glyph glyph-name="Gdotaccent.ss11" horiz-adv-x="753" 
d="M191.5 28.5q-74.5 45.5 -117 129.5t-42.5 193q0 108 41.5 191t119 129t183.5 46q96 0 168 -38t111 -103t43 -144h-135q-2 50 -25 90.5t-65 64t-97 23.5q-95 0 -149.5 -68.5t-54.5 -190.5q0 -82 26.5 -141t73.5 -89.5t107 -30.5q54 0 95.5 22.5t66.5 59t31 77.5h-206v102
h279q26 0 40.5 -14t14.5 -39v-298h-117l17 129h-2q-31 -71 -92 -108.5t-146 -37.5q-94 0 -168.5 45.5zM355 828h36v-36h-36v36z" />
    <glyph glyph-name="uni1E20.ss11" horiz-adv-x="753" 
d="M191.5 28.5q-74.5 45.5 -117 129.5t-42.5 193q0 108 41.5 191t119 129t183.5 46q96 0 168 -38t111 -103t43 -144h-135q-2 50 -25 90.5t-65 64t-97 23.5q-95 0 -149.5 -68.5t-54.5 -190.5q0 -82 26.5 -141t73.5 -89.5t107 -30.5q54 0 95.5 22.5t66.5 59t31 77.5h-206v102
h279q26 0 40.5 -14t14.5 -39v-298h-117l17 129h-2q-31 -71 -92 -108.5t-146 -37.5q-94 0 -168.5 45.5zM249 820h250v-24h-250v24z" />
    <glyph glyph-name="uni01E4.ss11" horiz-adv-x="754" 
d="M189.5 28.5q-74.5 45.5 -116 129t-41.5 193.5q0 108 41.5 191t121 129t189.5 46q94 0 162 -32.5t106.5 -88t45.5 -124.5h-135q-8 60 -55 99t-124 39q-99 0 -155.5 -68.5t-56.5 -190.5q0 -125 59 -193t157 -68q63 0 112.5 27.5t75.5 77.5h-210v18h218q16 42 16 87h-234
v102h279q26 0 40.5 -14t14.5 -39v-136h50v-18h-50v-195h-117l17 129h-2q-31 -71 -92 -108.5t-147 -37.5q-95 0 -169.5 45.5z" />
    <glyph glyph-name="Hbar.ss11" horiz-adv-x="674" 
d="M10 561h54v139h132v-139h299v139h132v-139h38v-24h-38v-537h-132v299h-299v-299h-132v537h-54v24zM495 406v131h-299v-131h299z" />
    <glyph glyph-name="Hcircumflex.ss11" horiz-adv-x="691" 
d="M64 700h132v-294h299v294h132v-700h-132v299h-299v-299h-132v700zM228 771l115 61h5l115 -61v-10l-117 47h-1l-117 -47v10z" />
    <glyph glyph-name="Iacute.ss11" horiz-adv-x="259" 
d="M64 700h132v-700h-132v700zM301 831v-25l-231 -38v10z" />
    <glyph glyph-name="Ibreve.ss11" horiz-adv-x="259" 
d="M64 700h132v-700h-132v700zM201 777.5q-29 -23.5 -71 -23.5t-71 23.5t-38 60.5h10q11 -28 37 -44t62 -16t62 16t37 44h10q-9 -37 -38 -60.5z" />
    <glyph glyph-name="uni01CF.ss11" horiz-adv-x="259" 
d="M64 700h132v-700h-132v700zM12 822v10l117 -47h1l117 47v-10l-115 -61h-5z" />
    <glyph glyph-name="Icircumflex.ss11" horiz-adv-x="259" 
d="M64 700h132v-700h-132v700zM12 771l115 61h5l115 -61v-10l-117 47h-1l-117 -47v10z" />
    <glyph glyph-name="Idieresis.ss11" horiz-adv-x="259" 
d="M64 700h132v-700h-132v700zM170 829h36v-36h-36v36zM54 829h36v-36h-36v36z" />
    <glyph glyph-name="Idotaccent.ss11" horiz-adv-x="259" 
d="M64 700h132v-700h-132v700zM111 828h36v-36h-36v36z" />
    <glyph glyph-name="uni1ECA.ss11" horiz-adv-x="259" 
d="M64 700h132v-700h-132v700zM112 -62h36v-46h-36v46z" />
    <glyph glyph-name="Igrave.ss11" horiz-adv-x="259" 
d="M64 700h132v-700h-132v700zM190 768l-231 38v25l231 -53v-10z" />
    <glyph glyph-name="Imacron.ss11" horiz-adv-x="259" 
d="M64 700h132v-700h-132v700zM5 820h250v-24h-250v24z" />
    <glyph glyph-name="Iogonek.ss11" horiz-adv-x="259" 
d="M64 700h132v-700h-9l-16 -8q-19 -9 -30 -26t-11 -38q0 -30 24 -49t66 -19h13v-30h-18q-48 0 -77 23.5t-29 61.5q0 26 14 48t39 35v2h-98v700z" />
    <glyph glyph-name="Itilde.ss11" horiz-adv-x="259" 
d="M64 700h132v-700h-132v700zM160.5 757.5q-16.5 11.5 -38.5 35.5q-18 21 -32.5 31.5t-34.5 10.5q-28 0 -47.5 -22t-19.5 -62h-10q0 49 22 77t58 28q25 0 42 -12t37 -35q21 -22 34.5 -32t33.5 -10q28 0 47.5 22t19.5 62h10q0 -50 -21.5 -77.5t-58.5 -27.5q-25 0 -41.5 11.5
z" />
    <glyph glyph-name="uni004A0301.ss11" horiz-adv-x="576" 
d="M83 51q-68 68 -68 194h132q0 -78 30.5 -116.5t86.5 -38.5t86.5 38.5t30.5 116.5v455h132v-458q0 -125 -68 -192t-181 -67t-181 68zM616 831v-25l-231 -38v10z" />
    <glyph glyph-name="Jcircumflex.ss11" horiz-adv-x="576" 
d="M83 51q-68 68 -68 194h132q0 -78 30.5 -116.5t86.5 -38.5t86.5 38.5t30.5 116.5v455h132v-458q0 -125 -68 -192t-181 -67t-181 68zM327 771l115 61h5l115 -61v-10l-117 47h-1l-117 -47v10z" />
    <glyph glyph-name="uni0136.ss11" horiz-adv-x="662" 
d="M64 700h132v-322h2l282 322h167l-269 -298l282 -402h-163l-206 303h-2l-93 -104v-199h-132v700zM338 -122v6h-31v55h45v-61q0 -26 -13.5 -42t-41.5 -16v14q41 0 41 44z" />
    <glyph glyph-name="Lacute.ss11" horiz-adv-x="506" 
d="M493 107v-107h-429v700h132v-593h297zM300 831v-25l-231 -38v10z" />
    <glyph glyph-name="Lcaron.ss11" horiz-adv-x="506" 
d="M493 107v-107h-429v700h132v-593h297zM379.5 597q9.5 12 9.5 35v19h-25v49h39v-68q0 -61 -55 -61v14q22 0 31.5 12z" />
    <glyph glyph-name="uni013B.ss11" horiz-adv-x="506" 
d="M493 107v-107h-429v700h132v-593h297zM287 -122v6h-31v55h45v-61q0 -26 -13.5 -42t-41.5 -16v14q41 0 41 44z" />
    <glyph glyph-name="Ldot.ss11" horiz-adv-x="506" 
d="M300 359h36v-46h-36v46zM64 700h132v-593h297v-107h-429v700z" />
    <glyph glyph-name="Nacute.ss11" horiz-adv-x="729" 
d="M195 511h-2l1 -120v-391h-130v700h165l306 -508h2l-1 120v388h129v-700h-160zM537 831v-25l-231 -38v10z" />
    <glyph glyph-name="Ncaron.ss11" horiz-adv-x="729" 
d="M195 511h-2l1 -120v-391h-130v700h165l306 -508h2l-1 120v388h129v-700h-160zM248 822v10l117 -47h1l117 47v-10l-115 -61h-5z" />
    <glyph glyph-name="uni0145.ss11" horiz-adv-x="729" 
d="M195 511h-2l1 -120v-391h-130v700h165l306 -508h2l-1 120v388h129v-700h-160zM379 -122v6h-31v55h45v-61q0 -26 -13.5 -42t-41.5 -16v14q41 0 41 44z" />
    <glyph glyph-name="Ntilde.ss11" horiz-adv-x="729" 
d="M195 511h-2l1 -120v-391h-130v700h165l306 -508h2l-1 120v388h129v-700h-160zM396.5 757.5q-16.5 11.5 -38.5 35.5q-18 21 -32.5 31.5t-34.5 10.5q-28 0 -47.5 -22t-19.5 -62h-10q0 49 22 77t58 28q25 0 42 -12t37 -35q21 -22 34.5 -32t33.5 -10q28 0 47.5 22t19.5 62h10
q0 -50 -21.5 -77.5t-58.5 -27.5q-25 0 -41.5 11.5z" />
    <glyph glyph-name="Oacute.ss11" horiz-adv-x="756" 
d="M202 26q-79 43 -124.5 126t-45.5 198t45.5 198t124.5 126t176 43q98 0 176.5 -43t124 -125.5t45.5 -198.5t-45.5 -198.5t-124 -125.5t-176.5 -43q-97 0 -176 43zM228.5 156q56.5 -66 149.5 -66t149.5 66t56.5 194t-56.5 194t-149.5 66t-149.5 -66t-56.5 -194t56.5 -194z
M549 831v-25l-231 -38v10z" />
    <glyph glyph-name="Obreve.ss11" horiz-adv-x="756" 
d="M202 26q-79 43 -124.5 126t-45.5 198t45.5 198t124.5 126t176 43q98 0 176.5 -43t124 -125.5t45.5 -198.5t-45.5 -198.5t-124 -125.5t-176.5 -43q-97 0 -176 43zM228.5 156q56.5 -66 149.5 -66t149.5 66t56.5 194t-56.5 194t-149.5 66t-149.5 -66t-56.5 -194t56.5 -194z
M449 777.5q-29 -23.5 -71 -23.5t-71 23.5t-38 60.5h10q11 -28 37 -44t62 -16t62 16t37 44h10q-9 -37 -38 -60.5z" />
    <glyph glyph-name="uni01D1.ss11" horiz-adv-x="756" 
d="M202 26q-79 43 -124.5 126t-45.5 198t45.5 198t124.5 126t176 43q98 0 176.5 -43t124 -125.5t45.5 -198.5t-45.5 -198.5t-124 -125.5t-176.5 -43q-97 0 -176 43zM228.5 156q56.5 -66 149.5 -66t149.5 66t56.5 194t-56.5 194t-149.5 66t-149.5 -66t-56.5 -194t56.5 -194z
M260 822v10l117 -47h1l117 47v-10l-115 -61h-5z" />
    <glyph glyph-name="Ocircumflex.ss11" horiz-adv-x="756" 
d="M202 26q-79 43 -124.5 126t-45.5 198t45.5 198t124.5 126t176 43q98 0 176.5 -43t124 -125.5t45.5 -198.5t-45.5 -198.5t-124 -125.5t-176.5 -43q-97 0 -176 43zM228.5 156q56.5 -66 149.5 -66t149.5 66t56.5 194t-56.5 194t-149.5 66t-149.5 -66t-56.5 -194t56.5 -194z
M260 771l115 61h5l115 -61v-10l-117 47h-1l-117 -47v10z" />
    <glyph glyph-name="Odieresis.ss11" horiz-adv-x="756" 
d="M202 26q-79 43 -124.5 126t-45.5 198t45.5 198t124.5 126t176 43q98 0 176.5 -43t124 -125.5t45.5 -198.5t-45.5 -198.5t-124 -125.5t-176.5 -43q-97 0 -176 43zM228.5 156q56.5 -66 149.5 -66t149.5 66t56.5 194t-56.5 194t-149.5 66t-149.5 -66t-56.5 -194t56.5 -194z
M418 829h36v-36h-36v36zM302 829h36v-36h-36v36z" />
    <glyph glyph-name="uni1ECC.ss11" horiz-adv-x="756" 
d="M202 26q-79 43 -124.5 126t-45.5 198t45.5 198t124.5 126t176 43q98 0 176.5 -43t124 -125.5t45.5 -198.5t-45.5 -198.5t-124 -125.5t-176.5 -43q-97 0 -176 43zM228.5 156q56.5 -66 149.5 -66t149.5 66t56.5 194t-56.5 194t-149.5 66t-149.5 -66t-56.5 -194t56.5 -194z
M360 -62h36v-46h-36v46z" />
    <glyph glyph-name="Ograve.ss11" horiz-adv-x="756" 
d="M202 26q-79 43 -124.5 126t-45.5 198t45.5 198t124.5 126t176 43q98 0 176.5 -43t124 -125.5t45.5 -198.5t-45.5 -198.5t-124 -125.5t-176.5 -43q-97 0 -176 43zM228.5 156q56.5 -66 149.5 -66t149.5 66t56.5 194t-56.5 194t-149.5 66t-149.5 -66t-56.5 -194t56.5 -194z
M438 768l-231 38v25l231 -53v-10z" />
    <glyph glyph-name="Ohungarumlaut.ss11" horiz-adv-x="756" 
d="M202 26q-79 43 -124.5 126t-45.5 198t45.5 198t124.5 126t176 43q98 0 176.5 -43t124 -125.5t45.5 -198.5t-45.5 -198.5t-124 -125.5t-176.5 -43q-97 0 -176 43zM228.5 156q56.5 -66 149.5 -66t149.5 66t56.5 194t-56.5 194t-149.5 66t-149.5 -66t-56.5 -194t56.5 -194z
M380 778l141 53v-25l-141 -38v10zM239 778l141 53v-25l-141 -38v10z" />
    <glyph glyph-name="Omacron.ss11" horiz-adv-x="756" 
d="M202 26q-79 43 -124.5 126t-45.5 198t45.5 198t124.5 126t176 43q98 0 176.5 -43t124 -125.5t45.5 -198.5t-45.5 -198.5t-124 -125.5t-176.5 -43q-97 0 -176 43zM228.5 156q56.5 -66 149.5 -66t149.5 66t56.5 194t-56.5 194t-149.5 66t-149.5 -66t-56.5 -194t56.5 -194z
M253 820h250v-24h-250v24z" />
    <glyph glyph-name="uni01EA.ss11" horiz-adv-x="756" 
d="M535.5 -145q-28.5 25 -28.5 67q0 29 13.5 55.5t37.5 48.5v2q-78 -45 -180 -45q-97 0 -176 43t-124.5 126t-45.5 198t45.5 198t124.5 126t176 43q98 0 176.5 -43t124 -125.5t45.5 -198.5q0 -97 -32.5 -171.5t-91.5 -121.5l-11 -11q-61 -57 -61 -114q0 -34 23.5 -53
t66.5 -19h13v-30h-18q-49 0 -77.5 25zM228.5 156q56.5 -66 149.5 -66t149.5 66t56.5 194t-56.5 194t-149.5 66t-149.5 -66t-56.5 -194t56.5 -194z" />
    <glyph glyph-name="Oslash.ss11" horiz-adv-x="756" 
d="M619 627q50 -48 77.5 -118t27.5 -159q0 -116 -45.5 -198.5t-124 -125.5t-176.5 -43q-67 0 -126.5 21t-104.5 61l-59 -68l-10 8l-1 1l57 70q-49 48 -75.5 117t-26.5 157q0 115 45.5 198t124.5 126t176 43q66 0 124 -20t104 -58l56 64l10 -8l1 -1zM214 176l149 183l163 187
q-55 64 -148 64t-149.5 -66t-56.5 -194q0 -106 42 -174zM378 90q93 0 149.5 66t56.5 194q0 110 -45 179l-153 -189l-159 -182q55 -68 151 -68z" />
    <glyph glyph-name="Oslashacute.ss11" horiz-adv-x="756" 
d="M619 627q50 -48 77.5 -118t27.5 -159q0 -116 -45.5 -198.5t-124 -125.5t-176.5 -43q-67 0 -126.5 21t-104.5 61l-59 -68l-10 8l-1 1l57 70q-49 48 -75.5 117t-26.5 157q0 115 45.5 198t124.5 126t176 43q66 0 124 -20t104 -58l56 64l10 -8l1 -1zM214 176l149 183l163 187
q-55 64 -148 64t-149.5 -66t-56.5 -194q0 -106 42 -174zM378 90q93 0 149.5 66t56.5 194q0 110 -45 179l-153 -189l-159 -182q55 -68 151 -68zM546 831v-25l-231 -38v10z" />
    <glyph glyph-name="Otilde.ss11" horiz-adv-x="756" 
d="M202 26q-79 43 -124.5 126t-45.5 198t45.5 198t124.5 126t176 43q98 0 176.5 -43t124 -125.5t45.5 -198.5t-45.5 -198.5t-124 -125.5t-176.5 -43q-97 0 -176 43zM228.5 156q56.5 -66 149.5 -66t149.5 66t56.5 194t-56.5 194t-149.5 66t-149.5 -66t-56.5 -194t56.5 -194z
M408.5 757.5q-16.5 11.5 -38.5 35.5q-18 21 -32.5 31.5t-34.5 10.5q-28 0 -47.5 -22t-19.5 -62h-10q0 49 22 77t58 28q25 0 42 -12t37 -35q21 -22 34.5 -32t33.5 -10q28 0 47.5 22t19.5 62h10q0 -50 -21.5 -77.5t-58.5 -27.5q-25 0 -41.5 11.5z" />
    <glyph glyph-name="Racute.ss11" horiz-adv-x="643" 
d="M64 700h294q118 0 184.5 -51.5t66.5 -138.5q0 -69 -42 -116t-120 -62v-2q59 -22 91 -66t52 -119l40 -145h-137l-29 122q-15 62 -34 94t-50 44.5t-85 12.5h-99v-273h-132v700zM308 379q83 0 124 28t41 83q0 50 -34.5 76.5t-102.5 26.5h-140v-214h112zM491 831v-25
l-231 -38v10z" />
    <glyph glyph-name="Rcaron.ss11" horiz-adv-x="643" 
d="M64 700h294q118 0 184.5 -51.5t66.5 -138.5q0 -69 -42 -116t-120 -62v-2q59 -22 91 -66t52 -119l40 -145h-137l-29 122q-15 62 -34 94t-50 44.5t-85 12.5h-99v-273h-132v700zM308 379q83 0 124 28t41 83q0 50 -34.5 76.5t-102.5 26.5h-140v-214h112zM202 822v10l117 -47
h1l117 47v-10l-115 -61h-5z" />
    <glyph glyph-name="uni0156.ss11" horiz-adv-x="643" 
d="M64 700h294q118 0 184.5 -51.5t66.5 -138.5q0 -69 -42 -116t-120 -62v-2q59 -22 91 -66t52 -119l40 -145h-137l-29 122q-15 62 -34 94t-50 44.5t-85 12.5h-99v-273h-132v700zM308 379q83 0 124 28t41 83q0 50 -34.5 76.5t-102.5 26.5h-140v-214h112zM341 -122v6h-31v55
h45v-61q0 -26 -13.5 -42t-41.5 -16v14q41 0 41 44z" />
    <glyph glyph-name="Sacute.ss11" horiz-adv-x="658" 
d="M114.5 51.5q-76.5 68.5 -80.5 190.5h138q3 -75 45 -113.5t117 -38.5q70 0 110.5 32t40.5 88q0 95 -124 95h-89q-112 0 -170 52t-58 139q0 67 33.5 116.5t97.5 77t153 27.5q138 0 210 -65.5t75 -179.5h-135q-6 138 -151 138q-69 0 -108 -28.5t-39 -78.5q0 -40 27.5 -63.5
t88.5 -23.5h89q124 0 181 -55.5t57 -143.5q0 -71 -34.5 -123.5t-100.5 -81.5t-156 -29q-141 0 -217.5 68.5zM499 831v-25l-231 -38v10z" />
    <glyph glyph-name="uniA78B.ss11" horiz-adv-x="195" 
d="M98 578l-18 222h35v-467h-10z" />
    <glyph glyph-name="Scaron.ss11" horiz-adv-x="658" 
d="M114.5 51.5q-76.5 68.5 -80.5 190.5h138q3 -75 45 -113.5t117 -38.5q70 0 110.5 32t40.5 88q0 95 -124 95h-89q-112 0 -170 52t-58 139q0 67 33.5 116.5t97.5 77t153 27.5q138 0 210 -65.5t75 -179.5h-135q-6 138 -151 138q-69 0 -108 -28.5t-39 -78.5q0 -40 27.5 -63.5
t88.5 -23.5h89q124 0 181 -55.5t57 -143.5q0 -71 -34.5 -123.5t-100.5 -81.5t-156 -29q-141 0 -217.5 68.5zM210 822v10l117 -47h1l117 47v-10l-115 -61h-5z" />
    <glyph glyph-name="Scedilla.ss11" horiz-adv-x="658" 
d="M263 -170v25h75q24 0 37.5 12t13.5 31t-13.5 30.5t-37.5 11.5h-22v43q-133 4 -205.5 72.5t-76.5 186.5h138q3 -75 45 -113.5t117 -38.5q70 0 110.5 32t40.5 88q0 95 -124 95h-89q-112 0 -170 52t-58 139q0 67 33.5 116.5t97.5 77t153 27.5q138 0 210 -65.5t75 -179.5
h-135q-6 138 -151 138q-69 0 -108 -28.5t-39 -78.5q0 -40 27.5 -63.5t88.5 -23.5h89q124 0 181 -55.5t57 -143.5q0 -106 -75 -169t-208 -65v-32h4q34 0 54 -15t20 -44q0 -30 -21 -46t-54 -16h-80z" />
    <glyph glyph-name="Scircumflex.ss11" horiz-adv-x="658" 
d="M114.5 51.5q-76.5 68.5 -80.5 190.5h138q3 -75 45 -113.5t117 -38.5q70 0 110.5 32t40.5 88q0 95 -124 95h-89q-112 0 -170 52t-58 139q0 67 33.5 116.5t97.5 77t153 27.5q138 0 210 -65.5t75 -179.5h-135q-6 138 -151 138q-69 0 -108 -28.5t-39 -78.5q0 -40 27.5 -63.5
t88.5 -23.5h89q124 0 181 -55.5t57 -143.5q0 -71 -34.5 -123.5t-100.5 -81.5t-156 -29q-141 0 -217.5 68.5zM210 771l115 61h5l115 -61v-10l-117 47h-1l-117 -47v10z" />
    <glyph glyph-name="uni0218.ss11" horiz-adv-x="658" 
d="M114.5 51.5q-76.5 68.5 -80.5 190.5h138q3 -75 45 -113.5t117 -38.5q70 0 110.5 32t40.5 88q0 95 -124 95h-89q-112 0 -170 52t-58 139q0 67 33.5 116.5t97.5 77t153 27.5q138 0 210 -65.5t75 -179.5h-135q-6 138 -151 138q-69 0 -108 -28.5t-39 -78.5q0 -40 27.5 -63.5
t88.5 -23.5h89q124 0 181 -55.5t57 -143.5q0 -71 -34.5 -123.5t-100.5 -81.5t-156 -29q-141 0 -217.5 68.5zM341 -122v6h-31v55h45v-61q0 -26 -13.5 -42t-41.5 -16v14q41 0 41 44z" />
    <glyph glyph-name="Tbar.ss11" horiz-adv-x="615" 
d="M103 342h139v251h-229v107h589v-107h-228v-251h131v-26h-131v-316h-132v316h-139v26z" />
    <glyph glyph-name="Tcaron.ss11" horiz-adv-x="615" 
d="M242 593h-229v107h589v-107h-228v-593h-132v593zM190 822v10l117 -47h1l117 47v-10l-115 -61h-5z" />
    <glyph glyph-name="uni0162.ss11" horiz-adv-x="615" 
d="M242 593h-229v107h589v-107h-228v-593h-132v593zM243 -170v25h75q24 0 37.5 12t13.5 31t-13.5 30.5t-37.5 11.5h-22v60h24v-49h4q34 0 54 -15t20 -44q0 -30 -21 -46t-54 -16h-80z" />
    <glyph glyph-name="uni021A.ss11" horiz-adv-x="615" 
d="M242 593h-229v107h589v-107h-228v-593h-132v593zM321 -122v6h-31v55h45v-61q0 -26 -13.5 -42t-41.5 -16v14q41 0 41 44z" />
    <glyph glyph-name="Uacute.ss11" horiz-adv-x="695" 
d="M202 15.5q-64 32.5 -101 95.5t-37 150v439h132v-434q0 -84 41.5 -130t109.5 -46t110 45.5t42 130.5v434h132v-439q0 -87 -37 -150t-101.5 -95.5t-145.5 -32.5t-145 32.5zM518 831v-25l-231 -38v10z" />
    <glyph glyph-name="Ubreve.ss11" horiz-adv-x="695" 
d="M202 15.5q-64 32.5 -101 95.5t-37 150v439h132v-434q0 -84 41.5 -130t109.5 -46t110 45.5t42 130.5v434h132v-439q0 -87 -37 -150t-101.5 -95.5t-145.5 -32.5t-145 32.5zM418 777.5q-29 -23.5 -71 -23.5t-71 23.5t-38 60.5h10q11 -28 37 -44t62 -16t62 16t37 44h10
q-9 -37 -38 -60.5z" />
    <glyph glyph-name="uni01D3.ss11" horiz-adv-x="695" 
d="M202 15.5q-64 32.5 -101 95.5t-37 150v439h132v-434q0 -84 41.5 -130t109.5 -46t110 45.5t42 130.5v434h132v-439q0 -87 -37 -150t-101.5 -95.5t-145.5 -32.5t-145 32.5zM229 822v10l117 -47h1l117 47v-10l-115 -61h-5z" />
    <glyph glyph-name="Ucircumflex.ss11" horiz-adv-x="695" 
d="M202 15.5q-64 32.5 -101 95.5t-37 150v439h132v-434q0 -84 41.5 -130t109.5 -46t110 45.5t42 130.5v434h132v-439q0 -87 -37 -150t-101.5 -95.5t-145.5 -32.5t-145 32.5zM229 771l115 61h5l115 -61v-10l-117 47h-1l-117 -47v10z" />
    <glyph glyph-name="Udieresis.ss11" horiz-adv-x="695" 
d="M202 15.5q-64 32.5 -101 95.5t-37 150v439h132v-434q0 -84 41.5 -130t109.5 -46t110 45.5t42 130.5v434h132v-439q0 -87 -37 -150t-101.5 -95.5t-145.5 -32.5t-145 32.5zM387 829h36v-36h-36v36zM271 829h36v-36h-36v36z" />
    <glyph glyph-name="uni1EE4.ss11" horiz-adv-x="695" 
d="M202 15.5q-64 32.5 -101 95.5t-37 150v439h132v-434q0 -84 41.5 -130t109.5 -46t110 45.5t42 130.5v434h132v-439q0 -87 -37 -150t-101.5 -95.5t-145.5 -32.5t-145 32.5zM329 -62h36v-46h-36v46z" />
    <glyph glyph-name="Ugrave.ss11" horiz-adv-x="695" 
d="M202 15.5q-64 32.5 -101 95.5t-37 150v439h132v-434q0 -84 41.5 -130t109.5 -46t110 45.5t42 130.5v434h132v-439q0 -87 -37 -150t-101.5 -95.5t-145.5 -32.5t-145 32.5zM407 768l-231 38v25l231 -53v-10z" />
    <glyph glyph-name="Uhungarumlaut.ss11" horiz-adv-x="695" 
d="M202 15.5q-64 32.5 -101 95.5t-37 150v439h132v-434q0 -84 41.5 -130t109.5 -46t110 45.5t42 130.5v434h132v-439q0 -87 -37 -150t-101.5 -95.5t-145.5 -32.5t-145 32.5zM349 778l141 53v-25l-141 -38v10zM208 778l141 53v-25l-141 -38v10z" />
    <glyph glyph-name="Umacron.ss11" horiz-adv-x="695" 
d="M202 15.5q-64 32.5 -101 95.5t-37 150v439h132v-434q0 -84 41.5 -130t109.5 -46t110 45.5t42 130.5v434h132v-439q0 -87 -37 -150t-101.5 -95.5t-145.5 -32.5t-145 32.5zM222 820h250v-24h-250v24z" />
    <glyph glyph-name="Uogonek.ss11" horiz-adv-x="688" 
d="M473.5 -145q-28.5 25 -28.5 67q0 46 35 88q-58 -27 -133 -27q-81 0 -145 32.5t-101 95.5t-37 150v439h132v-434q0 -84 41.5 -130t109.5 -46t110 45.5t42 130.5v434h132v-439q0 -83 -34 -144t-93 -95q-38 -46 -38 -90q0 -34 23.5 -53t66.5 -19h13v-30h-18q-49 0 -77.5 25z
" />
    <glyph glyph-name="Uring.ss11" horiz-adv-x="695" 
d="M202 15.5q-64 32.5 -101 95.5t-37 150v439h132v-434q0 -84 41.5 -130t109.5 -46t110 45.5t42 130.5v434h132v-439q0 -87 -37 -150t-101.5 -95.5t-145.5 -32.5t-145 32.5zM299 763q-20 20 -20 48q0 29 20 49t48 20t48 -20t20 -49q0 -28 -19.5 -48t-48.5 -20q-28 0 -48 20z
M311 768q15 -15 36 -15t36 15t15 36t-15 36.5t-36 15.5t-36 -15.5t-15 -36.5t15 -36z" />
    <glyph glyph-name="Utilde.ss11" horiz-adv-x="695" 
d="M202 15.5q-64 32.5 -101 95.5t-37 150v439h132v-434q0 -84 41.5 -130t109.5 -46t110 45.5t42 130.5v434h132v-439q0 -87 -37 -150t-101.5 -95.5t-145.5 -32.5t-145 32.5zM377.5 757.5q-16.5 11.5 -38.5 35.5q-18 21 -32.5 31.5t-34.5 10.5q-28 0 -47.5 -22t-19.5 -62h-10
q0 49 22 77t58 28q25 0 42 -12t37 -35q21 -22 34.5 -32t33.5 -10q28 0 47.5 22t19.5 62h10q0 -50 -21.5 -77.5t-58.5 -27.5q-25 0 -41.5 11.5z" />
    <glyph glyph-name="Wacute.ss11" horiz-adv-x="935" 
d="M10 700h136l127 -514h2l118 514h150l117 -514h2l127 514h136l-187 -700h-149l-122 537h-2l-120 -537h-148zM639 831v-25l-231 -38v10z" />
    <glyph glyph-name="Wcircumflex.ss11" horiz-adv-x="935" 
d="M10 700h136l127 -514h2l118 514h150l117 -514h2l127 514h136l-187 -700h-149l-122 537h-2l-120 -537h-148zM350 771l115 61h5l115 -61v-10l-117 47h-1l-117 -47v10z" />
    <glyph glyph-name="Wdieresis.ss11" horiz-adv-x="935" 
d="M10 700h136l127 -514h2l118 514h150l117 -514h2l127 514h136l-187 -700h-149l-122 537h-2l-120 -537h-148zM508 829h36v-36h-36v36zM392 829h36v-36h-36v36z" />
    <glyph glyph-name="Wgrave.ss11" horiz-adv-x="935" 
d="M10 700h136l127 -514h2l118 514h150l117 -514h2l127 514h136l-187 -700h-149l-122 537h-2l-120 -537h-148zM528 768l-231 38v25l231 -53v-10z" />
    <glyph glyph-name="Yacute.ss11" horiz-adv-x="642" 
d="M254 278l-244 422h151l159 -298h2l159 298h151l-246 -422v-278h-132v278zM492 831v-25l-231 -38v10z" />
    <glyph glyph-name="Ycircumflex.ss11" horiz-adv-x="642" 
d="M254 278l-244 422h151l159 -298h2l159 298h151l-246 -422v-278h-132v278zM203 771l115 61h5l115 -61v-10l-117 47h-1l-117 -47v10z" />
    <glyph glyph-name="Ydieresis.ss11" horiz-adv-x="642" 
d="M254 278l-244 422h151l159 -298h2l159 298h151l-246 -422v-278h-132v278zM361 829h36v-36h-36v36zM245 829h36v-36h-36v36z" />
    <glyph glyph-name="Ygrave.ss11" horiz-adv-x="642" 
d="M254 278l-244 422h151l159 -298h2l159 298h151l-246 -422v-278h-132v278zM381 768l-231 38v25l231 -53v-10z" />
    <glyph glyph-name="uni0232.ss11" horiz-adv-x="642" 
d="M254 278l-244 422h151l159 -298h2l159 298h151l-246 -422v-278h-132v278zM196 820h250v-24h-250v24z" />
    <glyph glyph-name="uni1EF8.ss11" horiz-adv-x="642" 
d="M254 278l-244 422h151l159 -298h2l159 298h151l-246 -422v-278h-132v278zM351.5 757.5q-16.5 11.5 -38.5 35.5q-18 21 -32.5 31.5t-34.5 10.5q-28 0 -47.5 -22t-19.5 -62h-10q0 49 22 77t58 28q25 0 42 -12t37 -35q21 -22 34.5 -32t33.5 -10q28 0 47.5 22t19.5 62h10
q0 -50 -21.5 -77.5t-58.5 -27.5q-25 0 -41.5 11.5z" />
    <glyph glyph-name="Zacute.ss11" horiz-adv-x="587" 
d="M16 104l370 485v2h-360v109h535v-99l-370 -485v-2h380v-114h-555v104zM469 831v-25l-231 -38v10z" />
    <glyph glyph-name="Zcaron.ss11" horiz-adv-x="587" 
d="M16 104l370 485v2h-360v109h535v-99l-370 -485v-2h380v-114h-555v104zM180 822v10l117 -47h1l117 47v-10l-115 -61h-5z" />
    <glyph glyph-name="Zdotaccent.ss11" horiz-adv-x="587" 
d="M16 104l370 485v2h-360v109h535v-99l-370 -485v-2h380v-114h-555v104zM279 828h36v-36h-36v36z" />
    <glyph glyph-name="uni013B.loclMAH.ss11" horiz-adv-x="506" 
d="M493 107v-107h-429v700h132v-593h297zM209 -145h75q24 0 37.5 12t13.5 31t-13.5 30.5t-37.5 11.5h-22v11h22q38 0 59 -15t21 -44q0 -30 -21 -46t-54 -16h-80v25z" />
    <glyph glyph-name="uni0145.loclMAH.ss11" horiz-adv-x="729" 
d="M195 511h-2l1 -120v-391h-130v700h165l306 -508h2l-1 120v388h129v-700h-160zM379 -122v6h-31v55h45v-61q0 -26 -13.5 -42t-41.5 -16v14q41 0 41 44z" />
    <glyph glyph-name="Yacute.ss04.ss11" horiz-adv-x="565" 
d="M14 105h236v2l-240 593h143l129 -349h2l128 349h143l-205 -500l43 -114q6 -15 6 -28q0 -25 -17.5 -41.5t-44.5 -16.5h-323v105zM454 831v-25l-231 -38v10z" />
    <glyph glyph-name="Ycircumflex.ss04.ss11" horiz-adv-x="565" 
d="M14 105h236v2l-240 593h143l129 -349h2l128 349h143l-205 -500l43 -114q6 -15 6 -28q0 -25 -17.5 -41.5t-44.5 -16.5h-323v105zM165 771l115 61h5l115 -61v-10l-117 47h-1l-117 -47v10z" />
    <glyph glyph-name="Ydieresis.ss04.ss11" horiz-adv-x="565" 
d="M14 105h236v2l-240 593h143l129 -349h2l128 349h143l-205 -500l43 -114q6 -15 6 -28q0 -25 -17.5 -41.5t-44.5 -16.5h-323v105zM323 829h36v-36h-36v36zM207 829h36v-36h-36v36z" />
    <glyph glyph-name="Ygrave.ss04.ss11" horiz-adv-x="565" 
d="M14 105h236v2l-240 593h143l129 -349h2l128 349h143l-205 -500l43 -114q6 -15 6 -28q0 -25 -17.5 -41.5t-44.5 -16.5h-323v105zM343 768l-231 38v25l231 -53v-10z" />
    <glyph glyph-name="uni0232.ss04.ss11" horiz-adv-x="565" 
d="M14 105h236v2l-240 593h143l129 -349h2l128 349h143l-205 -500l43 -114q6 -15 6 -28q0 -25 -17.5 -41.5t-44.5 -16.5h-323v105zM158 820h250v-24h-250v24z" />
    <glyph glyph-name="uni1EF8.ss04.ss11" horiz-adv-x="565" 
d="M14 105h236v2l-240 593h143l129 -349h2l128 349h143l-205 -500l43 -114q6 -15 6 -28q0 -25 -17.5 -41.5t-44.5 -16.5h-323v105zM313.5 757.5q-16.5 11.5 -38.5 35.5q-18 21 -32.5 31.5t-34.5 10.5q-28 0 -47.5 -22t-19.5 -62h-10q0 49 22 77t58 28q25 0 42 -12t37 -35
q21 -22 34.5 -32t33.5 -10q28 0 47.5 22t19.5 62h10q0 -50 -21.5 -77.5t-58.5 -27.5q-25 0 -41.5 11.5z" />
    <glyph glyph-name="Sacute.ss05.ss11" horiz-adv-x="621" 
d="M58 105h266q57 0 90 27t33 73t-33 73t-90 27h-68q-66 0 -116.5 24.5t-78 69t-27.5 102.5q0 93 65.5 146t173.5 53h284v-105h-283q-47 0 -74.5 -24t-27.5 -66t27.5 -65.5t74.5 -23.5h74q72 0 126.5 -26t83.5 -73t29 -108q0 -65 -32.5 -112t-90.5 -72t-133 -25h-273v105z
M482 831v-25l-231 -38v10z" />
    <glyph glyph-name="Scaron.ss05.ss11" horiz-adv-x="621" 
d="M58 105h266q57 0 90 27t33 73t-33 73t-90 27h-68q-66 0 -116.5 24.5t-78 69t-27.5 102.5q0 93 65.5 146t173.5 53h284v-105h-283q-47 0 -74.5 -24t-27.5 -66t27.5 -65.5t74.5 -23.5h74q72 0 126.5 -26t83.5 -73t29 -108q0 -65 -32.5 -112t-90.5 -72t-133 -25h-273v105z
M193 822v10l117 -47h1l117 47v-10l-115 -61h-5z" />
    <glyph glyph-name="Scedilla.ss05.ss11" horiz-adv-x="621" 
d="M58 105h266q57 0 90 27t33 73t-33 73t-90 27h-68q-66 0 -116.5 24.5t-78 69t-27.5 102.5q0 93 65.5 146t173.5 53h284v-105h-283q-47 0 -74.5 -24t-27.5 -66t27.5 -65.5t74.5 -23.5h74q72 0 126.5 -26t83.5 -73t29 -108q0 -65 -32.5 -112t-90.5 -72t-133 -25h-273v105z
M246 -170v25h75q24 0 37.5 12t13.5 31t-13.5 30.5t-37.5 11.5h-22v60h24v-49h4q34 0 54 -15t20 -44q0 -30 -21 -46t-54 -16h-80z" />
    <glyph glyph-name="Scircumflex.ss05.ss11" horiz-adv-x="621" 
d="M58 105h266q57 0 90 27t33 73t-33 73t-90 27h-68q-66 0 -116.5 24.5t-78 69t-27.5 102.5q0 93 65.5 146t173.5 53h284v-105h-283q-47 0 -74.5 -24t-27.5 -66t27.5 -65.5t74.5 -23.5h74q72 0 126.5 -26t83.5 -73t29 -108q0 -65 -32.5 -112t-90.5 -72t-133 -25h-273v105z
M193 771l115 61h5l115 -61v-10l-117 47h-1l-117 -47v10z" />
    <glyph glyph-name="uni0218.ss05.ss11" horiz-adv-x="621" 
d="M58 105h266q57 0 90 27t33 73t-33 73t-90 27h-68q-66 0 -116.5 24.5t-78 69t-27.5 102.5q0 93 65.5 146t173.5 53h284v-105h-283q-47 0 -74.5 -24t-27.5 -66t27.5 -65.5t74.5 -23.5h74q72 0 126.5 -26t83.5 -73t29 -108q0 -65 -32.5 -112t-90.5 -72t-133 -25h-273v105z
M324 -122v6h-31v55h45v-61q0 -26 -13.5 -42t-41.5 -16v14q41 0 41 44z" />
    <glyph glyph-name="Sacute.ss06.ss11" horiz-adv-x="667" 
d="M176 15.5q-67 32.5 -103 91t-39 135.5h136q3 -75 47 -113.5t120 -38.5q74 0 116 32.5t42 84.5q0 45 -32 71.5t-93 26.5h-100q-68 0 -119.5 25t-79 69t-27.5 101q0 92 66 146t182 54h305v-107h-304q-55 0 -84 -23.5t-29 -63.5q0 -41 29 -65.5t81 -24.5h105
q79 0 132.5 -26.5t79.5 -72t26 -102.5q0 -68 -36 -120.5t-103.5 -82t-157.5 -29.5q-93 0 -160 32.5zM509 831v-25l-231 -38v10z" />
    <glyph glyph-name="Scaron.ss06.ss11" horiz-adv-x="667" 
d="M176 15.5q-67 32.5 -103 91t-39 135.5h136q3 -75 47 -113.5t120 -38.5q74 0 116 32.5t42 84.5q0 45 -32 71.5t-93 26.5h-100q-68 0 -119.5 25t-79 69t-27.5 101q0 92 66 146t182 54h305v-107h-304q-55 0 -84 -23.5t-29 -63.5q0 -41 29 -65.5t81 -24.5h105
q79 0 132.5 -26.5t79.5 -72t26 -102.5q0 -68 -36 -120.5t-103.5 -82t-157.5 -29.5q-93 0 -160 32.5zM220 822v10l117 -47h1l117 47v-10l-115 -61h-5z" />
    <glyph glyph-name="Scedilla.ss06.ss11" horiz-adv-x="667" 
d="M273 -170v25h75q24 0 37.5 12t13.5 31t-13.5 30.5t-37.5 11.5h-22v43q-135 3 -211 73t-81 186h136q3 -75 47 -113.5t120 -38.5q74 0 116 32.5t42 84.5q0 45 -32 71.5t-93 26.5h-100q-68 0 -119.5 25t-79 69t-27.5 101q0 92 66 146t182 54h305v-107h-304q-55 0 -84 -23.5
t-29 -63.5q0 -41 29 -65.5t81 -24.5h105q79 0 132.5 -26.5t79.5 -72t26 -102.5q0 -66 -34 -118t-98 -82t-151 -32v-32h4q34 0 54 -15t20 -44q0 -30 -21 -46t-54 -16h-80z" />
    <glyph glyph-name="Scircumflex.ss06.ss11" horiz-adv-x="667" 
d="M176 15.5q-67 32.5 -103 91t-39 135.5h136q3 -75 47 -113.5t120 -38.5q74 0 116 32.5t42 84.5q0 45 -32 71.5t-93 26.5h-100q-68 0 -119.5 25t-79 69t-27.5 101q0 92 66 146t182 54h305v-107h-304q-55 0 -84 -23.5t-29 -63.5q0 -41 29 -65.5t81 -24.5h105
q79 0 132.5 -26.5t79.5 -72t26 -102.5q0 -68 -36 -120.5t-103.5 -82t-157.5 -29.5q-93 0 -160 32.5zM220 771l115 61h5l115 -61v-10l-117 47h-1l-117 -47v10z" />
    <glyph glyph-name="uni0218.ss06.ss11" horiz-adv-x="667" 
d="M176 15.5q-67 32.5 -103 91t-39 135.5h136q3 -75 47 -113.5t120 -38.5q74 0 116 32.5t42 84.5q0 45 -32 71.5t-93 26.5h-100q-68 0 -119.5 25t-79 69t-27.5 101q0 92 66 146t182 54h305v-107h-304q-55 0 -84 -23.5t-29 -63.5q0 -41 29 -65.5t81 -24.5h105
q79 0 132.5 -26.5t79.5 -72t26 -102.5q0 -68 -36 -120.5t-103.5 -82t-157.5 -29.5q-93 0 -160 32.5zM351 -122v6h-31v55h45v-61q0 -26 -13.5 -42t-41.5 -16v14q41 0 41 44z" />
    <glyph glyph-name="Gbreve.ss07.ss11" horiz-adv-x="753" 
d="M193 44.5q-76 44.5 -118.5 126.5t-42.5 190q0 105 41.5 185.5t119 125t183.5 44.5q97 0 168 -37.5t110.5 -102t45.5 -144.5h-135q-5 79 -54.5 128.5t-134.5 49.5q-95 0 -149.5 -66t-54.5 -183q0 -80 26.5 -137.5t73.5 -87t107 -29.5h181v138h-194v103h275q23 0 38 -15
t15 -38v-242q0 -22 -15 -37.5t-38 -15.5h-275q-97 0 -173 44.5zM446 777.5q-29 -23.5 -71 -23.5t-71 23.5t-38 60.5h10q11 -28 37 -44t62 -16t62 16t37 44h10q-9 -37 -38 -60.5z" />
    <glyph glyph-name="Gcaron.ss07.ss11" horiz-adv-x="753" 
d="M193 44.5q-76 44.5 -118.5 126.5t-42.5 190q0 105 41.5 185.5t119 125t183.5 44.5q97 0 168 -37.5t110.5 -102t45.5 -144.5h-135q-5 79 -54.5 128.5t-134.5 49.5q-95 0 -149.5 -66t-54.5 -183q0 -80 26.5 -137.5t73.5 -87t107 -29.5h181v138h-194v103h275q23 0 38 -15
t15 -38v-242q0 -22 -15 -37.5t-38 -15.5h-275q-97 0 -173 44.5zM257 822v10l117 -47h1l117 47v-10l-115 -61h-5z" />
    <glyph glyph-name="Gcircumflex.ss07.ss11" horiz-adv-x="753" 
d="M193 44.5q-76 44.5 -118.5 126.5t-42.5 190q0 105 41.5 185.5t119 125t183.5 44.5q97 0 168 -37.5t110.5 -102t45.5 -144.5h-135q-5 79 -54.5 128.5t-134.5 49.5q-95 0 -149.5 -66t-54.5 -183q0 -80 26.5 -137.5t73.5 -87t107 -29.5h181v138h-194v103h275q23 0 38 -15
t15 -38v-242q0 -22 -15 -37.5t-38 -15.5h-275q-97 0 -173 44.5zM257 771l115 61h5l115 -61v-10l-117 47h-1l-117 -47v10z" />
    <glyph glyph-name="uni0122.ss07.ss11" horiz-adv-x="753" 
d="M193 44.5q-76 44.5 -118.5 126.5t-42.5 190q0 105 41.5 185.5t119 125t183.5 44.5q97 0 168 -37.5t110.5 -102t45.5 -144.5h-135q-5 79 -54.5 128.5t-134.5 49.5q-95 0 -149.5 -66t-54.5 -183q0 -80 26.5 -137.5t73.5 -87t107 -29.5h181v138h-194v103h275q23 0 38 -15
t15 -38v-242q0 -22 -15 -37.5t-38 -15.5h-275q-97 0 -173 44.5zM398 -122v6h-31v55h45v-61q0 -26 -13.5 -42t-41.5 -16v14q41 0 41 44z" />
    <glyph glyph-name="Gdotaccent.ss07.ss11" horiz-adv-x="753" 
d="M193 44.5q-76 44.5 -118.5 126.5t-42.5 190q0 105 41.5 185.5t119 125t183.5 44.5q97 0 168 -37.5t110.5 -102t45.5 -144.5h-135q-5 79 -54.5 128.5t-134.5 49.5q-95 0 -149.5 -66t-54.5 -183q0 -80 26.5 -137.5t73.5 -87t107 -29.5h181v138h-194v103h275q23 0 38 -15
t15 -38v-242q0 -22 -15 -37.5t-38 -15.5h-275q-97 0 -173 44.5zM356 828h36v-36h-36v36z" />
    <glyph glyph-name="uni1E20.ss07.ss11" horiz-adv-x="753" 
d="M193 44.5q-76 44.5 -118.5 126.5t-42.5 190q0 105 41.5 185.5t119 125t183.5 44.5q97 0 168 -37.5t110.5 -102t45.5 -144.5h-135q-5 79 -54.5 128.5t-134.5 49.5q-95 0 -149.5 -66t-54.5 -183q0 -80 26.5 -137.5t73.5 -87t107 -29.5h181v138h-194v103h275q23 0 38 -15
t15 -38v-242q0 -22 -15 -37.5t-38 -15.5h-275q-97 0 -173 44.5zM250 820h250v-24h-250v24z" />
    <glyph glyph-name="uni01E4.ss07.ss11" horiz-adv-x="749" 
d="M193 44.5q-76 44.5 -118.5 126.5t-42.5 190q0 105 41.5 185.5t120 125t185.5 44.5q96 0 166.5 -32.5t109.5 -88t45 -123.5h-135q-5 60 -54 99t-132 39q-97 0 -152 -66t-55 -183q0 -80 26.5 -137.5t73.5 -87t107 -29.5h189v82h-205v28h205v82h-202v103h275q23 0 38 -15
t15 -38v-132h47v-28h-47v-136q0 -22 -15 -37.5t-38 -15.5h-275q-97 0 -173 44.5z" />
    <glyph glyph-name="Eacute.ss08.ss11" 
d="M90.5 407q-33.5 42 -33.5 102q0 56 28 99t82 67.5t130 24.5h271v-103h-250q-61 0 -94 -25.5t-33 -72.5t33 -72t94 -25h236v-103h-236q-61 0 -94 -25.5t-33 -72.5t33 -72.5t94 -25.5h258v-103h-279q-76 0 -130 24.5t-82 67.5t-28 99q0 60 33.5 102t106.5 56v2
q-73 14 -106.5 56zM515 831v-25l-231 -38v10z" />
    </font>
</defs>
</svg>
